<?xml version="1.0" standalone="no"?>
<!DOCTYPE svg PUBLIC "-//W3C//DTD SVG 20010904//EN"
 "http://www.w3.org/TR/2001/REC-SVG-20010904/DTD/svg10.dtd">
<svg version="1.0" xmlns="http://www.w3.org/2000/svg"
 width="968.000000pt" height="968.000000pt" viewBox="0 0 968.000000 968.000000"
 preserveAspectRatio="xMidYMid meet">
<metadata>
Created by potrace 1.11, written by Peter Selinger 2001-2013
</metadata>
<g transform="translate(0.000000,968.000000) scale(0.100000,-0.100000)"
fill="#000000" stroke="none">
<path d="M4914 9656 c-90 -33 -203 -100 -293 -172 -3 -3 45 -121 54 -132 5 -5
42 -10 145 -17 58 -4 108 -9 112 -11 7 -5 54 56 126 160 40 58 41 60 26 94
-14 35 -49 73 -84 92 -23 12 -12 14 -86 -14z"/>
<path d="M5112 9405 c-29 -42 -62 -89 -73 -104 l-21 -28 55 -118 c30 -65 61
-119 69 -121 8 -1 56 -5 108 -8 51 -4 98 -10 103 -13 13 -8 4 19 -65 197 -55
141 -113 270 -121 270 -2 0 -27 -34 -55 -75z"/>
<path d="M4506 9377 c-105 -120 -213 -263 -204 -272 2 -2 35 -6 73 -8 l70 -6
73 104 c39 58 72 110 72 117 -1 20 -38 98 -47 98 -4 0 -21 -15 -37 -33z"/>
<path d="M4663 9241 c-8 -9 -45 -58 -82 -110 l-68 -94 42 -86 c23 -47 48 -101
56 -118 8 -21 22 -33 34 -34 11 -1 29 -3 40 -4 11 -1 63 -5 115 -9 l95 -6 30
42 c17 24 51 72 77 109 l47 66 -45 94 c-63 135 -67 142 -85 144 -8 2 -53 6
-100 9 -46 4 -97 9 -113 10 -17 2 -34 -3 -43 -13z"/>
<path d="M4157 8872 c-47 -81 -88 -154 -91 -162 -8 -25 56 -143 79 -146 11 -2
65 -6 120 -10 55 -3 103 -8 107 -10 9 -6 42 30 86 96 20 30 45 63 54 74 31 35
30 54 -7 133 -20 43 -44 95 -52 116 -11 26 -22 37 -37 38 -34 1 -119 9 -147
13 -23 4 -32 -7 -112 -142z"/>
<path d="M5050 8835 c-41 -59 -74 -112 -72 -118 2 -7 14 -34 27 -62 12 -27 35
-76 49 -107 15 -32 32 -58 39 -59 7 0 21 -2 32 -4 11 -3 67 -7 125 -10 l105
-6 58 85 c31 46 57 88 57 93 0 21 -71 258 -80 267 -9 9 -20 11 -175 21 l-90 7
-75 -107z"/>
<path d="M4590 8663 c-19 -26 -53 -76 -77 -110 l-43 -62 31 -68 c81 -178 78
-173 112 -174 33 0 82 -4 178 -14 l56 -5 29 42 c16 24 51 73 77 109 l48 67
-48 103 c-69 148 -56 136 -153 143 -47 3 -105 9 -130 12 -45 5 -45 5 -80 -43z"/>
<path d="M3928 8457 c-57 -114 -71 -147 -59 -149 15 -3 70 65 146 180 l25 38
-19 39 -19 39 -74 -147z"/>
<path d="M5458 8465 l-37 -52 45 -94 c25 -52 50 -105 57 -119 16 -33 48 -39
42 -8 -5 24 -12 63 -19 108 -13 83 -42 209 -48 215 -2 2 -20 -21 -40 -50z"/>
<path d="M4112 8462 c-7 -9 -40 -55 -73 -102 -34 -47 -63 -90 -66 -97 -3 -8
87 -221 103 -241 2 -4 38 -7 179 -17 l91 -7 39 59 c22 32 42 60 46 63 3 3 19
26 37 51 l31 46 -36 74 c-20 41 -44 93 -54 117 -10 23 -22 43 -26 43 -25 4
-58 7 -148 14 -55 4 -103 9 -106 11 -3 1 -11 -5 -17 -14z"/>
<path d="M4997 8288 l-76 -110 23 -51 c82 -180 86 -187 109 -188 12 0 38 -2
57 -4 19 -2 70 -6 112 -9 l76 -6 69 97 c38 54 72 104 76 110 5 7 -14 58 -43
119 -27 59 -50 110 -50 115 0 12 -28 17 -135 24 -55 4 -109 8 -121 10 -16 2
-36 -20 -97 -107z"/>
<path d="M3790 8173 c-28 -62 -146 -352 -154 -379 -4 -13 -2 -21 6 -21 7 0 54
-3 103 -6 l91 -7 65 93 c97 136 95 115 30 247 -53 108 -58 115 -88 118 -29 3
-33 -1 -53 -45z"/>
<path d="M4550 8136 c-8 -13 -41 -61 -72 -106 -32 -45 -58 -84 -58 -87 0 -3 9
-24 20 -47 10 -23 34 -73 51 -112 37 -82 25 -76 209 -90 47 -4 87 -8 89 -10 2
-1 39 47 82 107 l78 110 -30 67 c-17 37 -42 91 -55 120 -14 28 -30 53 -37 53
-7 1 -21 3 -32 4 -11 2 -67 6 -125 10 -104 6 -105 6 -120 -19z"/>
<path d="M5485 8028 c-65 -87 -110 -160 -107 -172 3 -11 102 -219 106 -223 1
-1 32 -5 69 -9 l66 -6 -4 58 c-2 33 -7 97 -10 144 -3 47 -7 103 -10 125 -16
135 -15 133 -41 138 -20 4 -32 -5 -69 -55z"/>
<path d="M4053 7907 c-22 -24 -143 -195 -143 -201 0 -2 25 -56 55 -120 45 -96
58 -116 77 -117 13 -1 32 -3 43 -4 11 -1 61 -6 110 -9 l91 -7 74 102 c41 56
73 110 73 119 -2 22 -101 230 -110 231 -21 4 -56 7 -143 14 -52 4 -98 9 -101
11 -3 2 -15 -7 -26 -19z"/>
<path d="M4954 7753 c-39 -54 -73 -103 -77 -110 -10 -15 100 -250 116 -250 16
-1 207 -14 231 -16 20 -2 55 38 136 155 45 66 47 51 -24 201 -42 87 -50 97
-74 98 -15 0 -34 2 -42 3 -8 2 -56 6 -106 10 l-90 7 -70 -98z"/>
<path d="M3589 7663 c-12 -33 -62 -189 -89 -280 l-21 -71 20 -39 c11 -22 26
-40 33 -40 46 -1 197 -14 219 -19 30 -6 29 -7 145 157 l43 62 -23 46 c-12 25
-38 79 -56 119 -29 61 -37 72 -59 73 -14 0 -39 2 -56 4 -145 15 -145 15 -156
-12z"/>
<path d="M4510 7598 c-26 -28 -140 -194 -140 -204 0 -4 23 -57 52 -118 29 -61
52 -112 53 -113 0 -1 34 -4 75 -7 41 -4 102 -9 135 -11 l60 -5 77 109 78 109
-38 78 c-21 44 -44 94 -52 112 -7 18 -20 37 -30 42 -9 5 -61 12 -116 15 -54 3
-107 8 -116 11 -9 3 -26 -5 -38 -18z"/>
<path d="M5396 7430 l-76 -107 53 -116 c28 -64 59 -119 67 -121 8 -3 49 -8 91
-11 l76 -6 5 45 c3 25 6 128 7 230 l2 186 -33 1 c-18 1 -52 3 -74 4 l-42 3
-76 -108z"/>
<path d="M3946 7287 c-35 -50 -70 -98 -76 -105 -14 -15 -9 -31 51 -159 23 -51
49 -95 58 -97 9 -3 52 -8 96 -11 44 -3 98 -8 120 -10 l40 -4 65 92 c96 135 93
121 54 202 -18 39 -43 91 -54 118 -18 42 -24 47 -53 48 -18 1 -45 2 -62 4 -16
1 -62 5 -102 9 l-71 6 -66 -93z"/>
<path d="M4898 7201 c-43 -59 -78 -111 -78 -114 0 -5 83 -188 99 -217 9 -16
56 -25 189 -35 l89 -6 29 43 c16 24 31 45 34 48 4 3 25 32 48 66 l43 61 -58
119 c-33 67 -64 119 -73 120 -8 1 -60 5 -115 8 -55 4 -107 9 -115 11 -10 3
-41 -32 -92 -104z"/>
<path d="M3523 7142 c-13 -2 -35 -22 -52 -47 -16 -24 -38 -56 -49 -72 -11 -15
-25 -56 -31 -90 l-12 -62 43 -91 c36 -78 45 -90 67 -91 15 0 35 -2 46 -4 10
-2 60 -7 110 -10 l90 -6 35 53 c19 29 38 57 43 63 4 5 22 30 41 55 l33 45 -57
120 -57 121 -39 2 c-113 7 -177 12 -182 15 -4 2 -17 1 -29 -1z"/>
<path d="M4404 6984 c-32 -47 -67 -95 -76 -106 -10 -12 -18 -24 -18 -28 0 -4
25 -59 55 -124 l55 -116 42 -1 c24 0 52 -2 63 -4 11 -2 52 -6 91 -9 l72 -5 28
42 c33 48 35 51 67 92 64 84 64 71 1 205 l-57 120 -41 1 c-42 0 -94 4 -177 13
l-46 5 -59 -85z"/>
<path d="M5346 6886 c-42 -58 -76 -108 -76 -110 0 -2 24 -56 54 -119 45 -94
59 -115 79 -119 44 -9 157 -9 155 -1 -2 8 20 194 28 238 2 11 7 62 10 112 5
74 3 93 -7 93 -8 1 -48 3 -90 6 l-76 6 -77 -106z"/>
<path d="M3883 6726 c-40 -57 -73 -108 -73 -114 0 -8 98 -223 105 -230 4 -4
48 -8 180 -17 l90 -6 75 107 c41 58 74 110 73 115 -3 8 -53 119 -90 197 -8 17
-20 32 -27 33 -6 0 -22 2 -36 4 -14 1 -70 6 -125 9 l-100 7 -72 -105z"/>
<path d="M4900 6728 c-13 -18 -28 -37 -32 -43 -34 -43 -98 -137 -98 -144 0 -5
24 -62 54 -125 l55 -116 38 -1 c41 0 114 -6 180 -14 40 -4 44 -3 75 39 18 24
39 52 46 62 7 11 28 41 46 67 l35 48 -55 117 c-30 64 -56 117 -57 118 -1 1
-36 5 -77 8 -41 4 -100 9 -130 12 -53 5 -56 4 -80 -28z"/>
<path d="M3345 6669 c-15 -82 -14 -86 11 -53 27 33 28 40 10 73 -13 24 -14 24
-21 -20z"/>
<path d="M3430 6562 c-14 -21 -46 -67 -72 -103 -27 -36 -48 -72 -48 -80 0 -9
11 -37 23 -65 13 -27 36 -77 52 -111 27 -60 30 -63 64 -64 20 0 50 -2 66 -3
17 -2 61 -5 98 -7 l69 -4 77 108 77 108 -58 120 c-48 99 -62 119 -80 120 -13
0 -48 2 -78 5 -179 14 -163 16 -190 -24z"/>
<path d="M4400 6506 c0 -8 -3 -16 -8 -18 -9 -4 -132 -176 -132 -184 0 -4 23
-53 50 -111 28 -57 50 -109 50 -114 0 -5 6 -9 13 -10 6 0 21 -2 32 -4 11 -2
68 -7 126 -11 l106 -6 45 63 c101 142 109 157 99 176 -6 10 -31 62 -56 116
-37 79 -50 97 -68 98 -12 0 -30 2 -39 4 -9 2 -62 6 -117 9 -85 6 -101 5 -101
-8z"/>
<path d="M5373 6442 c-6 -4 -43 -52 -82 -107 -48 -68 -69 -106 -65 -118 3 -10
28 -65 55 -123 l50 -104 47 -1 c26 -1 62 -3 80 -5 l32 -4 1 78 c1 97 5 143 25
262 9 52 17 99 18 104 1 9 -9 11 -94 20 -30 3 -60 2 -67 -2z"/>
<path d="M3888 6257 c-12 -18 -26 -36 -31 -42 -33 -41 -97 -137 -97 -146 0 -6
20 -54 45 -106 25 -52 45 -98 45 -102 0 -27 47 -36 234 -44 50 -2 50 -2 88 53
21 30 45 62 52 71 7 9 25 33 39 53 l25 38 -37 76 c-21 43 -46 96 -57 119 -18
41 -20 43 -69 44 -27 1 -63 3 -80 5 -132 15 -133 15 -157 -19z"/>
<path d="M4814 6143 c-27 -37 -62 -87 -77 -109 l-28 -41 55 -118 c31 -67 61
-120 70 -121 8 -1 59 -5 113 -9 54 -3 105 -8 114 -11 18 -5 36 14 117 128 72
100 72 73 -8 241 -36 76 -45 87 -68 88 -15 1 -36 3 -47 4 -11 1 -59 5 -106 9
l-86 7 -49 -68z"/>
<path d="M3289 6145 c0 -22 -2 -52 -3 -67 -4 -36 5 -35 27 2 17 28 17 31 -2
67 l-20 38 -2 -40z"/>
<path d="M3359 5990 c-78 -111 -79 -113 -79 -167 0 -41 9 -71 41 -138 23 -47
46 -85 53 -86 6 0 18 -2 26 -3 8 -2 65 -6 125 -10 l110 -6 70 101 c39 56 71
105 73 110 3 6 -90 220 -102 236 -2 3 -102 13 -187 19 l-87 6 -43 -62z"/>
<path d="M4290 5879 c-39 -54 -73 -105 -76 -113 -5 -14 78 -209 100 -233 11
-11 53 -17 201 -28 l70 -5 75 106 c41 59 74 113 72 120 -4 20 -103 223 -110
228 -6 3 -100 12 -230 21 -30 2 -37 -4 -102 -96z"/>
<path d="M5243 5796 c-40 -57 -73 -108 -73 -114 0 -8 96 -218 104 -229 3 -4
89 -12 187 -19 l86 -5 57 80 c31 44 56 82 56 85 0 3 -16 22 -36 43 -48 50 -78
105 -100 178 -10 33 -21 64 -24 68 -4 4 -47 10 -96 13 l-89 5 -72 -105z"/>
<path d="M3783 5640 c-40 -55 -73 -108 -73 -118 0 -9 20 -59 45 -110 25 -52
45 -98 45 -102 0 -21 19 -25 170 -35 52 -4 98 -9 101 -11 7 -4 159 210 159
223 0 6 -17 45 -38 89 -21 43 -44 94 -51 112 -8 17 -19 32 -25 33 -6 1 -29 2
-51 4 -22 1 -78 6 -125 9 l-85 7 -72 -101z"/>
<path d="M3185 5701 c-6 -4 -39 -24 -75 -43 -55 -30 -242 -138 -289 -167 -12
-7 -11 -18 10 -65 13 -30 29 -58 36 -60 6 -3 60 -8 120 -11 59 -4 113 -8 119
-10 17 -5 25 4 102 112 l73 103 -26 57 c-41 92 -50 103 -70 84z"/>
<path d="M4814 5662 c-6 -4 -43 -53 -84 -110 l-73 -103 54 -116 c30 -65 61
-117 69 -118 8 -1 62 -6 119 -9 57 -4 109 -10 115 -12 13 -5 50 37 128 144 53
74 54 61 -20 211 -30 61 -53 96 -64 97 -10 1 -64 5 -120 9 -57 4 -105 9 -108
10 -3 2 -11 1 -16 -3z"/>
<path d="M5688 5473 c-30 -43 -58 -84 -62 -91 -4 -7 14 -56 43 -118 28 -57 51
-109 51 -114 0 -6 6 -10 13 -11 6 0 20 -2 30 -4 10 -2 64 -6 120 -10 56 -3
103 -8 105 -10 7 -7 143 186 137 195 -7 11 -257 171 -329 210 l-54 30 -54 -77z"/>
<path d="M3327 5472 c-14 -20 -48 -70 -76 -109 l-51 -73 52 -112 c28 -62 53
-116 57 -120 6 -6 110 -17 222 -23 51 -3 45 -8 136 122 12 18 32 46 44 62 l21
28 -25 54 c-94 204 -84 189 -125 190 -20 0 -50 2 -67 4 -16 2 -60 6 -96 9
l-66 6 -26 -38z"/>
<path d="M2542 5311 c-204 -139 -212 -145 -192 -165 17 -16 62 -23 190 -32
l85 -6 75 107 c41 59 74 112 72 118 -9 30 -43 97 -50 96 -4 0 -85 -53 -180
-118z"/>
<path d="M4260 5364 c-25 -36 -59 -84 -76 -107 l-31 -42 54 -115 c30 -63 55
-116 56 -116 1 -1 38 -5 82 -8 44 -4 105 -9 136 -12 l56 -5 75 107 75 107 -54
116 c-30 64 -55 117 -56 118 -3 2 -108 12 -192 18 l-80 5 -45 -66z"/>
<path d="M5258 5342 c-9 -9 -45 -58 -80 -108 l-66 -91 35 -74 c19 -41 43 -93
54 -116 10 -23 22 -44 26 -46 5 -3 46 -8 93 -11 47 -4 104 -8 127 -11 l43 -3
75 104 c41 58 75 111 75 118 0 7 -20 54 -45 105 -25 50 -45 95 -45 100 0 21
-32 30 -120 36 -52 3 -109 8 -126 10 -21 3 -36 -1 -46 -13z"/>
<path d="M2775 5169 c-38 -56 -71 -105 -73 -110 -2 -5 8 -32 21 -61 14 -29 38
-82 54 -117 27 -59 32 -64 64 -66 137 -10 203 -16 209 -20 4 -2 14 1 22 8 21
17 151 199 151 212 0 9 -19 53 -83 188 -12 26 -27 48 -34 48 -6 1 -20 3 -31 4
-11 2 -67 5 -125 9 l-105 6 -70 -101z"/>
<path d="M6136 5155 l-67 -94 57 -121 58 -120 40 -1 c41 -1 60 -2 167 -12 63
-6 50 -17 142 115 26 38 47 70 47 72 0 2 -19 16 -42 32 -24 16 -45 31 -48 35
-13 15 -269 189 -277 189 -5 0 -40 -43 -77 -95z"/>
<path d="M3748 5116 c-106 -146 -101 -130 -63 -211 18 -38 43 -90 54 -115 21
-43 23 -45 69 -47 26 -2 84 -7 130 -11 56 -5 88 -5 97 2 24 19 146 199 143
211 -10 41 -105 226 -118 229 -8 3 -55 8 -105 11 -49 4 -102 9 -118 11 -24 4
-33 -4 -89 -80z"/>
<path d="M4743 5093 c-12 -15 -47 -63 -77 -106 l-56 -79 52 -111 c28 -62 55
-116 58 -120 4 -4 31 -9 61 -12 30 -2 84 -6 120 -10 54 -5 68 -3 72 10 4 8 15
15 25 15 10 0 24 10 30 23 7 12 32 49 57 82 25 33 48 65 51 71 5 11 -80 209
-100 231 -6 7 -45 14 -86 17 -41 4 -100 9 -131 12 -52 5 -56 3 -76 -23z"/>
<path d="M2096 4999 c-82 -60 -143 -109 -135 -110 8 0 23 -2 34 -4 11 -2 44
-5 72 -8 l53 -5 40 56 c22 31 45 65 52 75 7 11 23 33 36 50 24 34 29 57 10 56
-7 0 -80 -50 -162 -110z"/>
<path d="M5697 5017 c-90 -124 -127 -179 -127 -188 0 -6 18 -48 40 -95 22 -47
40 -89 40 -93 0 -28 103 -58 220 -65 l75 -4 77 108 76 108 -37 79 c-64 138
-76 157 -94 159 -11 1 -61 5 -113 9 -52 3 -103 8 -114 10 -13 3 -27 -7 -43
-28z"/>
<path d="M2302 4973 c-26 -36 -61 -85 -78 -108 l-32 -42 30 -64 c17 -35 38
-82 48 -104 36 -79 27 -76 274 -89 26 -1 37 10 106 105 l77 106 -53 112 c-28
62 -56 117 -61 121 -4 4 -44 11 -88 15 -44 3 -101 8 -128 11 l-47 4 -48 -67z"/>
<path d="M3269 4913 c-20 -26 -55 -75 -78 -109 -39 -56 -41 -62 -30 -88 13
-27 14 -27 73 -20 34 3 77 8 98 9 l36 3 18 -97 c9 -53 20 -99 23 -103 3 -3 31
-9 63 -12 l56 -7 60 83 c105 147 100 118 37 251 -38 82 -60 117 -72 118 -10 0
-27 2 -38 4 -11 2 -63 7 -115 10 l-95 6 -36 -48z"/>
<path d="M6627 4898 c-13 -18 -42 -58 -65 -89 l-40 -56 54 -119 c31 -65 56
-120 57 -121 3 -2 184 -16 231 -17 38 -1 41 2 94 78 l55 78 -29 25 c-74 65
-315 253 -323 253 -6 0 -21 -15 -34 -32z"/>
<path d="M4244 4867 c-8 -12 -42 -59 -75 -104 -32 -45 -59 -85 -59 -89 0 -3
14 -36 31 -72 17 -37 42 -90 55 -118 12 -28 29 -51 36 -51 39 0 225 -15 238
-18 9 -3 24 9 37 28 12 17 46 68 77 111 30 44 54 82 52 85 -117 255 -88 227
-244 236 -50 4 -101 8 -112 10 -12 2 -26 -5 -36 -18z"/>
<path d="M1813 4762 c-17 -26 -52 -77 -77 -113 l-46 -66 34 -69 c18 -38 43
-90 55 -116 12 -27 27 -49 34 -49 6 -1 21 -3 32 -4 11 -2 67 -6 125 -9 l105
-7 45 68 c24 37 47 70 50 73 9 9 50 69 50 74 0 5 -100 228 -105 234 -4 5 -50
10 -160 17 -55 4 -102 8 -105 10 -3 2 -19 -18 -37 -43z"/>
<path d="M5171 4750 c-24 -33 -42 -63 -40 -64 2 -2 59 -6 126 -10 66 -3 127
-8 135 -10 7 -3 31 -7 53 -10 22 -3 55 -8 73 -12 17 -3 32 -4 32 -1 0 2 -15
38 -34 78 -30 66 -36 74 -62 75 -16 1 -76 5 -134 9 l-106 7 -43 -62z"/>
<path d="M2797 4717 c-14 -12 -107 -141 -107 -149 0 -2 39 8 88 24 88 29 176
53 222 62 67 12 78 17 73 37 -4 15 -15 19 -52 20 -25 1 -62 3 -81 5 -19 2 -56
5 -82 8 -27 2 -52 0 -61 -7z"/>
<path d="M6156 4709 c-73 -103 -97 -135 -104 -145 -14 -16 -34 -55 -30 -58 2
-2 37 -16 78 -31 41 -16 135 -55 209 -87 73 -32 137 -56 141 -53 4 3 29 35 54
73 l47 68 -55 117 c-30 64 -61 118 -68 119 -25 3 -63 6 -159 13 -94 7 -97 7
-113 -16z"/>
<path d="M3714 4595 c-21 -31 -54 -76 -71 -100 -18 -24 -33 -50 -33 -58 0 -11
86 -203 104 -233 1 -1 35 -5 76 -8 41 -4 103 -9 138 -12 34 -3 62 -2 62 3 0 5
7 18 15 28 9 11 34 45 55 75 22 30 47 64 55 75 22 28 19 41 -26 135 -23 47
-45 95 -50 108 -6 16 -17 22 -41 23 -18 0 -41 2 -51 4 -9 2 -57 6 -105 9 l-88
6 -40 -55z"/>
<path d="M7027 4514 l-55 -78 27 -56 c15 -30 40 -83 56 -117 22 -46 35 -63 50
-64 11 0 27 -2 35 -3 8 -2 60 -6 115 -9 l100 -6 28 40 c22 32 25 42 15 58 -11
18 -235 242 -290 290 l-26 23 -55 -78z"/>
<path d="M4644 4482 c-38 -53 -72 -102 -77 -109 -4 -7 13 -56 43 -119 27 -58
50 -110 50 -114 0 -13 26 -18 117 -25 l82 -6 5 33 c3 18 11 68 17 111 15 107
17 120 40 216 10 46 17 86 15 88 -6 6 -51 12 -142 17 l-82 5 -68 -97z"/>
<path d="M1499 4537 c-13 -11 -40 -33 -60 -51 -20 -17 -77 -67 -128 -110 -50
-44 -91 -83 -91 -87 0 -4 18 -46 41 -93 l41 -86 51 -1 c29 0 61 -2 72 -4 49
-10 149 -9 152 2 4 10 70 103 93 130 5 7 10 15 10 19 0 4 9 18 21 30 l20 22
-52 113 c-29 63 -55 117 -59 121 -14 18 -88 14 -111 -5z"/>
<path d="M2260 4440 c-18 -28 -40 -58 -47 -66 -23 -22 -2 -17 73 20 38 18 93
44 122 56 29 13 51 25 48 27 -2 2 -39 7 -83 10 l-79 5 -34 -52z"/>
<path d="M6577 4354 l-45 -65 205 -106 c157 -80 208 -102 214 -91 4 7 17 24
28 37 12 13 21 28 21 32 0 21 -111 239 -122 240 -7 1 -24 2 -38 4 -14 1 -68 5
-121 9 l-96 6 -46 -66z"/>
<path d="M3430 4400 c0 -23 86 -379 93 -386 2 -2 27 30 56 72 l53 76 -27 61
c-47 110 -80 172 -90 171 -6 0 -27 3 -47 6 -21 4 -38 4 -38 0z"/>
<path d="M4214 4342 c-12 -8 -144 -190 -151 -208 -2 -6 19 -60 46 -119 28 -59
51 -111 51 -116 0 -5 12 -9 28 -10 15 0 38 -2 52 -4 14 -1 63 -5 110 -9 l85
-5 77 108 78 108 -33 69 c-19 38 -44 92 -56 120 -13 28 -28 51 -35 51 -38 0
-232 16 -236 18 -3 2 -11 1 -16 -3z"/>
<path d="M1753 4202 c-21 -32 -40 -59 -43 -62 -11 -11 -50 -69 -50 -75 0 -5
56 23 99 50 9 6 60 34 114 64 53 30 97 57 97 61 0 3 -19 7 -42 9 -24 1 -64 4
-90 6 l-47 3 -38 -56z"/>
<path d="M1061 4132 c-110 -119 -203 -244 -190 -256 2 -2 47 -7 99 -10 l95 -6
73 104 c39 57 72 109 72 115 0 13 -58 141 -64 141 -2 0 -41 -40 -85 -88z"/>
<path d="M7447 4151 c-17 -28 -16 -30 39 -148 54 -116 57 -119 87 -119 42 1
45 24 13 109 -24 65 -99 187 -114 187 -4 0 -15 -13 -25 -29z"/>
<path d="M3630 4004 c-41 -60 -74 -112 -72 -118 4 -13 90 -198 101 -216 4 -8
17 -16 27 -16 10 -1 60 -5 109 -9 50 -4 100 -8 113 -8 19 -2 38 19 101 107
l78 109 -32 66 c-18 36 -43 90 -56 119 -21 45 -28 52 -54 54 -16 0 -41 2 -55
4 -14 1 -61 5 -105 9 l-80 6 -75 -107z"/>
<path d="M7057 4073 c-15 -21 -23 -40 -19 -44 12 -12 315 -164 361 -182 73
-28 73 -28 -9 151 -42 90 -44 92 -79 93 -20 1 -49 3 -66 4 -16 2 -60 6 -96 9
l-66 6 -26 -37z"/>
<path d="M4625 3982 c-22 -31 -57 -81 -79 -111 l-38 -54 53 -116 c29 -64 54
-117 55 -119 9 -14 270 -21 267 -7 -18 120 -26 205 -27 327 -1 59 -4 109 -7
112 -3 3 -41 8 -85 11 -43 4 -83 8 -89 9 -5 2 -28 -22 -50 -52z"/>
<path d="M1249 3968 c-64 -95 -83 -121 -96 -136 -15 -16 -16 -32 -4 -51 7 -11
39 3 158 71 195 112 243 142 243 149 0 3 -15 6 -32 6 -52 1 -212 15 -220 19
-3 2 -25 -24 -49 -58z"/>
<path d="M4137 3767 c-106 -145 -127 -176 -127 -188 0 -13 64 -155 95 -209 15
-27 32 -30 202 -43 l73 -5 75 103 c41 56 75 109 75 117 0 11 -93 221 -104 235
-1 1 -37 4 -81 8 -44 3 -103 8 -132 10 -49 5 -53 3 -76 -28z"/>
<path d="M826 3782 c-4 -3 -6 -20 -6 -38 0 -37 26 -73 58 -79 35 -6 192 51
192 70 -1 25 -21 34 -95 40 -44 4 -94 8 -112 10 -18 1 -34 0 -37 -3z"/>
<path d="M3660 3561 c0 -15 79 -239 105 -296 12 -27 35 -78 50 -113 23 -50 32
-62 48 -60 19 3 150 172 162 209 3 8 -12 51 -33 95 -21 43 -45 94 -53 112 -8
17 -16 33 -19 33 -12 3 -51 7 -145 14 -55 4 -103 9 -107 12 -5 2 -8 0 -8 -6z"/>
<path d="M4618 3483 c-9 -2 -19 -10 -22 -18 -2 -7 -35 -55 -71 -105 l-66 -91
32 -67 c17 -37 42 -91 55 -119 18 -41 29 -53 46 -54 13 0 34 -2 48 -4 14 -1
64 -6 111 -10 l86 -6 35 48 c19 26 52 72 72 100 l36 53 -24 72 c-35 105 -69
178 -86 183 -8 2 -58 7 -110 10 -52 3 -102 8 -110 9 -8 2 -22 2 -32 -1z"/>
<path d="M4043 3153 c-38 -54 -73 -104 -77 -110 -4 -7 10 -48 30 -90 20 -43
45 -96 54 -119 15 -33 23 -40 46 -41 47 -1 198 -14 216 -19 11 -3 26 8 45 33
15 21 34 44 41 51 6 8 17 23 24 35 6 12 24 39 40 59 l28 36 -51 114 c-28 62
-54 116 -58 119 -6 7 -65 14 -197 24 l-71 6 -70 -98z"/>
<path d="M4975 3048 c-19 -29 -42 -62 -50 -73 -13 -18 -9 -31 39 -133 30 -62
57 -116 60 -119 3 -3 25 -7 48 -9 24 -2 74 -6 111 -9 74 -6 73 -7 32 50 -39
54 -110 179 -150 263 -21 45 -42 82 -46 82 -5 0 -24 -24 -44 -52z"/>
<path d="M4564 2932 c-6 -4 -43 -53 -83 -109 l-72 -103 48 -102 c27 -57 53
-111 58 -120 8 -13 31 -18 105 -23 52 -3 109 -8 127 -11 34 -5 34 -5 90 71 20
28 48 66 63 85 42 56 42 57 17 112 -87 189 -86 188 -120 189 -31 1 -73 4 -172
14 -27 2 -55 1 -61 -3z"/>
<path d="M3998 2617 c-36 -51 -71 -101 -78 -113 -11 -18 -6 -35 40 -136 l54
-116 62 -6 c61 -6 65 -5 111 28 78 56 145 87 161 73 9 -7 16 -7 20 -1 4 6 21
30 38 54 l31 45 -51 112 c-28 61 -54 115 -58 119 -8 8 -16 9 -142 19 -50 4
-97 8 -106 10 -12 2 -38 -27 -82 -88z"/>
<path d="M5485 2632 c-62 -12 -95 -24 -95 -36 0 -11 75 -174 85 -185 2 -2 24
-5 49 -7 43 -4 45 -3 55 29 16 47 75 114 125 139 l41 21 -55 19 c-52 18 -161
29 -205 20z"/>
<path d="M8740 2634 c0 -19 44 -103 52 -98 18 12 68 87 62 95 -6 10 -114 13
-114 3z"/>
<path d="M4970 2564 c-25 -36 -49 -70 -55 -77 -5 -7 -20 -27 -32 -44 l-22 -31
54 -117 c30 -65 56 -119 57 -120 2 -2 43 -6 92 -10 49 -3 108 -8 132 -11 l43
-4 50 72 c28 40 54 78 59 83 4 6 16 24 26 40 l17 30 -55 118 -56 117 -43 1
c-23 0 -51 2 -62 4 -11 2 -51 6 -90 9 l-70 5 -45 -65z"/>
<path d="M8535 2605 c-5 -1 -54 -13 -107 -26 l-98 -23 -50 -74 -51 -74 52
-109 c29 -60 54 -109 56 -109 8 0 297 209 336 242 20 18 37 37 37 41 0 5 -14
37 -31 73 l-31 64 -52 -1 c-28 0 -55 -2 -61 -4z"/>
<path d="M8115 2495 c-57 -20 -64 -24 -40 -26 17 -1 43 -2 58 -3 22 -2 32 5
43 26 8 15 13 28 12 27 -2 -1 -34 -12 -73 -24z"/>
<path d="M4471 2337 c-22 -31 -41 -60 -41 -65 0 -19 244 -237 317 -283 l30
-19 56 83 57 83 -31 64 c-17 36 -42 89 -55 118 -12 28 -29 53 -36 53 -7 1 -22
3 -33 4 -11 1 -66 6 -121 10 l-102 7 -41 -55z"/>
<path d="M7805 2290 c-38 -56 -71 -105 -73 -110 -2 -5 19 -57 47 -115 28 -59
51 -111 51 -116 0 -5 8 -9 18 -10 9 0 33 -2 53 -4 32 -4 55 8 185 90 82 52
153 101 158 109 7 9 0 34 -21 77 -16 35 -40 87 -53 115 -18 38 -29 52 -44 51
-12 0 -73 3 -136 7 l-115 7 -70 -101z"/>
<path d="M3836 2293 c-10 -43 -20 -118 -23 -168 -5 -88 -5 -90 13 -65 10 14
20 27 24 30 12 11 80 116 80 124 0 11 -68 156 -73 156 -2 0 -12 -35 -21 -77z"/>
<path d="M7603 2297 c-62 -28 -111 -52 -109 -54 1 -2 38 -5 82 -8 l79 -6 42
61 c23 33 37 60 30 59 -7 -1 -63 -24 -124 -52z"/>
<path d="M5453 2296 c-11 -11 -32 -41 -48 -66 -17 -25 -32 -47 -35 -50 -3 -3
-17 -21 -32 -41 l-27 -36 28 -59 c15 -33 40 -87 56 -121 27 -60 30 -63 64 -64
20 -1 45 -3 56 -4 11 -1 55 -5 97 -9 l77 -6 76 106 c76 106 77 107 63 140 -8
21 -53 67 -124 127 -109 93 -112 95 -172 100 -53 4 -63 2 -79 -17z"/>
<path d="M3997 2142 c-7 -9 -42 -57 -76 -106 -50 -71 -61 -93 -56 -114 7 -29
13 -24 46 38 13 25 26 47 30 50 3 3 15 21 26 40 12 19 30 44 40 55 41 46 43
51 23 52 -10 1 -25 -6 -33 -15z"/>
<path d="M7324 2083 c-31 -43 -67 -91 -79 -108 l-22 -30 32 -70 c81 -176 70
-162 128 -169 159 -19 166 -19 218 15 48 30 149 154 149 182 0 8 -15 45 -33
83 -18 38 -42 88 -52 111 -11 24 -27 43 -35 44 -40 2 -131 9 -187 14 l-62 6
-57 -78z"/>
<path d="M7135 2061 c-38 -22 -71 -43 -72 -48 -2 -4 18 -9 45 -10 46 -2 48 -2
80 47 17 28 29 50 25 50 -5 -1 -39 -18 -78 -39z"/>
<path d="M4944 2053 c-41 -56 -94 -133 -94 -137 0 -13 364 -226 386 -226 7 0
33 30 59 66 l46 66 -52 114 c-28 63 -54 116 -58 118 -10 7 -78 15 -176 21
l-90 6 -21 -28z"/>
<path d="M5841 1899 l-79 -110 28 -57 c15 -31 40 -85 55 -119 26 -60 30 -63
64 -64 20 -1 45 -3 56 -4 11 -2 56 -4 100 -6 l79 -4 77 107 77 108 -20 37
c-16 29 -48 54 -135 108 -63 39 -126 78 -141 87 -15 9 -39 19 -54 22 -26 4
-34 -4 -107 -105z"/>
<path d="M6873 1901 c-22 -16 -66 -65 -97 -110 l-57 -80 47 -98 c25 -54 50
-108 55 -120 7 -19 16 -23 56 -24 27 0 57 -2 68 -4 11 -2 50 -5 86 -8 l67 -3
58 84 c33 46 67 93 77 104 22 27 22 23 -14 99 -17 35 -42 88 -55 117 -20 44
-27 52 -51 53 -53 1 -158 9 -179 14 -14 3 -36 -6 -61 -24z"/>
<path d="M5361 1694 l-53 -75 32 -66 c46 -92 215 -260 254 -251 11 2 11 10 -4
43 -20 45 -64 158 -75 193 -3 12 -2 22 3 22 6 0 63 -18 129 -40 162 -54 165
-51 93 105 -29 64 -57 118 -61 121 -10 6 -74 12 -180 19 l-86 5 -52 -76z"/>
<path d="M6292 1585 l-73 -105 17 -45 c9 -25 22 -49 28 -54 6 -5 45 -13 86
-17 41 -4 82 -8 90 -10 8 -1 20 -3 25 -3 6 -1 23 -30 39 -66 26 -60 30 -65 60
-65 29 0 38 9 108 107 l76 108 -23 50 c-69 155 -90 189 -115 191 -14 1 -74 5
-135 9 l-110 6 -73 -106z"/>
<path d="M7262 1530 c-33 -47 -58 -87 -55 -90 2 -3 11 3 18 13 11 15 71 62
180 140 19 14 16 15 -31 18 l-52 4 -60 -85z"/>
<path d="M5890 1449 c13 -5 63 -18 110 -28 142 -31 150 -32 150 -17 0 25 -24
34 -105 40 -44 4 -102 9 -130 11 -41 4 -46 3 -25 -6z"/>
<path d="M7179 1413 c-13 -16 -12 -17 4 -4 16 13 21 21 13 21 -2 0 -10 -8 -17
-17z"/>
<path d="M6748 1280 c-43 -60 -78 -111 -78 -115 0 -5 99 -227 104 -232 4 -4
69 -11 173 -18 l101 -7 37 55 c20 31 34 60 31 66 -12 19 -16 167 -6 216 13 64
-10 119 -50 121 -93 5 -225 16 -229 19 -3 2 -41 -46 -83 -105z"/>
<path d="M7136 878 c-17 -26 -16 -28 39 -145 56 -117 57 -119 92 -121 l35 -3
-28 48 c-28 48 -92 176 -111 223 l-10 24 -17 -26z"/>
<path d="M6770 828 c0 -14 146 -212 202 -274 18 -21 45 -51 60 -67 15 -17 29
-29 32 -26 2 2 22 30 44 62 l40 57 -25 53 c-14 28 -38 80 -54 114 -15 33 -32
63 -36 66 -5 3 -53 8 -108 12 -55 3 -112 8 -127 11 -18 3 -28 0 -28 -8z"/>
<path d="M7175 458 c-25 -34 -45 -65 -45 -69 0 -5 24 -31 54 -59 79 -74 105
-97 166 -143 30 -23 57 -44 60 -47 3 -3 19 -15 36 -27 l31 -22 47 66 47 65
-27 42 c-15 22 -60 87 -101 144 -61 84 -79 102 -101 103 -15 0 -48 3 -74 5
l-47 5 -46 -63z"/>
<path d="M7588 92 c-53 -74 -53 -75 29 -88 49 -8 66 10 57 60 -5 35 -29 96
-37 96 -1 0 -23 -31 -49 -68z"/>
</g>
</svg>
