<svg width="8202" height="5575" viewBox="0 0 8202 5575" fill="none" xmlns="http://www.w3.org/2000/svg">
<path fill-rule="evenodd" clip-rule="evenodd" d="M1101.87 2613.76C1333.52 1885.73 2601.77 1876.01 2658.41 1170.1C2714.28 473.734 3512.67 545.173 3980.28 831.77C4486.45 1142.01 6263.14 527.253 6202.8 1030.06C6142.47 1532.86 6987.05 1730.76 7040.05 2499.85C7092.69 3263.97 6316.26 4216.36 6481.72 4670.2C6629.76 5076.26 4717.72 4824 3922.04 4824C3418.31 4824 2297.6 4998.9 2141.91 4566.2C1809.61 3642.59 832.297 3460.99 1101.87 2613.76Z" fill="#4CC8ED" fill-opacity="0.1434"/>
<path fill-rule="evenodd" clip-rule="evenodd" d="M6322.93 3548.68C6322.93 3548.68 6234.28 3546.19 6233.11 3449.45C6231.96 3354.24 6323.34 3349.24 6323.34 3349.24L6548.37 3350.84C6548.37 3350.84 6645.58 3346.31 6644.28 3455.57C6643.14 3551.34 6542.91 3558 6542.91 3558L6445.91 3557.31C6435.99 3557.24 6421.53 3563.56 6413.61 3571.43L6337.9 3646.71C6330.28 3654.28 6327.4 3651.21 6331.46 3639.83L6356.43 3569.91C6359.74 3560.64 6356.13 3552.57 6348.35 3551.89L6322.93 3548.68Z" fill="#4CC8ED"/>
<path fill-rule="evenodd" clip-rule="evenodd" d="M6516.5 3451.79C6516.5 3437.19 6528.16 3425.36 6542.54 3425.36C6556.92 3425.36 6568.58 3437.19 6568.58 3451.79C6568.58 3466.39 6556.92 3478.23 6542.54 3478.23C6528.16 3478.23 6516.5 3466.39 6516.5 3451.79Z" fill="white"/>
<path fill-rule="evenodd" clip-rule="evenodd" d="M6416.33 3451.79C6416.33 3437.19 6427.99 3425.36 6442.37 3425.36C6456.75 3425.36 6468.41 3437.19 6468.41 3451.79C6468.41 3466.39 6456.75 3478.23 6442.37 3478.23C6427.99 3478.23 6416.33 3466.39 6416.33 3451.79Z" fill="white"/>
<path fill-rule="evenodd" clip-rule="evenodd" d="M6314.89 3451.79C6314.89 3437.19 6326.55 3425.36 6340.93 3425.36C6355.31 3425.36 6366.97 3437.19 6366.97 3451.79C6366.97 3466.39 6355.31 3478.23 6340.93 3478.23C6326.55 3478.23 6314.89 3466.39 6314.89 3451.79Z" fill="white"/>
<path fill-rule="evenodd" clip-rule="evenodd" d="M4661.92 1417.81L4688.73 1543.04L4269.71 1597.68L4661.92 1417.81Z" fill="#0081C3"/>
<path fill-rule="evenodd" clip-rule="evenodd" d="M4652.7 1368.4L4669.5 1447.82L4405.82 1533.09L4652.7 1368.4Z" fill="#1172BA"/>
<path fill-rule="evenodd" clip-rule="evenodd" d="M4590.02 1314.64L4652.99 1369.23L4429.53 1520.65L4718.89 1410.17L4797.19 1458.66L4251.74 1602.96L4590.02 1314.64Z" fill="#2BAAE2"/>
<path fill-rule="evenodd" clip-rule="evenodd" d="M4529.7 4820.7L4221.54 4780.15C4213.63 4779.11 4204.74 4772.29 4201.69 4764.92L4082.73 4477.77C4079.68 4470.4 4081.14 4459.29 4086 4452.96L4275.2 4206.36C4280.05 4200.03 4290.4 4195.75 4298.31 4196.79L4606.47 4237.34C4614.38 4238.38 4623.27 4245.2 4626.32 4252.57L4745.28 4539.72C4748.33 4547.09 4746.87 4558.2 4742.02 4564.53L4552.82 4811.13C4547.96 4817.46 4537.61 4821.74 4529.7 4820.7Z" stroke="#2BAAE2" stroke-opacity="0.138889" stroke-width="15.78" stroke-linecap="round" stroke-linejoin="round"/>
<path fill-rule="evenodd" clip-rule="evenodd" d="M3853.7 3020.38L3623.26 2990.05C3617.35 2989.28 3610.7 2984.18 3608.42 2978.67L3519.47 2763.94C3517.18 2758.43 3518.28 2750.13 3521.91 2745.39L3663.39 2560.99C3667.02 2556.26 3674.76 2553.05 3680.67 2553.83L3911.1 2584.16C3917.02 2584.94 3923.66 2590.03 3925.95 2595.55L4014.9 2810.27C4017.19 2815.78 4016.09 2824.09 4012.46 2828.82L3870.98 3013.22C3867.35 3017.95 3859.61 3021.16 3853.7 3020.38Z" stroke="#2BAAE2" stroke-opacity="0.138889" stroke-width="15.78" stroke-linecap="round" stroke-linejoin="round"/>
<path fill-rule="evenodd" clip-rule="evenodd" d="M1873.38 3695.97L1603.89 3662.06C1596.97 3661.19 1589.17 3655.27 1586.46 3648.84L1481.09 3398.49C1478.38 3392.07 1479.61 3382.35 1483.82 3376.8L1647.94 3160.37C1652.16 3154.81 1661.18 3151.01 1668.1 3151.89L1937.59 3185.8C1944.51 3186.67 1952.31 3192.59 1955.02 3199.02L2060.39 3449.37C2063.09 3455.79 2061.87 3465.5 2057.66 3471.06L1893.54 3687.49C1889.32 3693.05 1880.3 3696.85 1873.38 3695.97Z" stroke="#2BAAE2" stroke-opacity="0.138889" stroke-width="15.78" stroke-linecap="round" stroke-linejoin="round"/>
<path fill-rule="evenodd" clip-rule="evenodd" d="M5468.16 2281.82L5150.44 2170.73C5142.29 2167.88 5134.37 2158.68 5132.76 2150.2L5070.11 1819.49C5068.5 1811.01 5072.51 1799.56 5079.05 1793.92L5334.12 1574.31C5340.67 1568.67 5352.59 1566.42 5360.74 1569.27L5678.46 1680.36C5686.62 1683.21 5694.53 1692.4 5696.14 1700.89L5758.79 2031.59C5760.4 2040.08 5756.4 2051.53 5749.85 2057.17L5494.78 2276.78C5488.23 2282.41 5476.32 2284.67 5468.16 2281.82Z" stroke="#2BAAE2" stroke-opacity="0.138889" stroke-width="15.78" stroke-linecap="round" stroke-linejoin="round"/>
<path opacity="0.196035" fill-rule="evenodd" clip-rule="evenodd" d="M6845.25 2478.54C6771.83 2478.54 6710.86 2526.67 6702.69 2589.51C6695.72 2588.38 6688.7 2587.6 6681.62 2587.6C6621.76 2587.6 6572.62 2626.85 6572.62 2676.29C6572.62 2721.89 6614.68 2759.37 6669.15 2764.41C6669.15 2764.41 6681.7 2765.81 6686.5 2766.32C6700.21 2767.77 6715.1 2769.22 6730.62 2770.57C6753.18 2772.53 6775.15 2774.11 6795.84 2775.19C6815.19 2776.21 6832.92 2776.76 6848.65 2776.76C6888.19 2776.76 6926.29 2775.04 6977.53 2771.57C6983.3 2771.18 7014.89 2768.98 7023.06 2768.44C7081.51 2764.82 7127.53 2724.48 7127.53 2674.98C7127.53 2638.96 7102.94 2607.1 7065.44 2591.38C7061.44 2558.3 7030.21 2532.97 6992.72 2532.98C6983.85 2532.98 6975.2 2534.48 6967 2537.26C6940.93 2501.07 6895.35 2478.54 6845.25 2478.54Z" fill="#2BAAE2" fill-opacity="0.0631313" stroke="#2BAAE2" stroke-width="15.22" stroke-linecap="round" stroke-linejoin="round"/>
<path opacity="0.196035" fill-rule="evenodd" clip-rule="evenodd" d="M2859.96 4000.74C2786.54 4000.74 2725.57 4048.86 2717.4 4111.7C2710.43 4110.57 2703.41 4109.8 2696.33 4109.8C2636.47 4109.8 2587.33 4149.05 2587.33 4198.49C2587.33 4244.09 2629.39 4281.57 2683.87 4286.61C2683.87 4286.61 2696.41 4288.01 2701.21 4288.52C2714.92 4289.97 2729.81 4291.42 2745.33 4292.77C2767.89 4294.73 2789.86 4296.31 2810.55 4297.39C2829.9 4298.4 2847.63 4298.95 2863.37 4298.95C2902.9 4298.95 2941 4297.24 2992.24 4293.77C2998.01 4293.38 3029.6 4291.18 3037.77 4290.64C3096.22 4287.02 3142.24 4246.68 3142.24 4197.17C3142.24 4161.15 3117.65 4129.29 3080.15 4113.58C3076.15 4080.5 3044.92 4055.17 3007.43 4055.17C2998.56 4055.17 2989.91 4056.68 2981.71 4059.45C2955.64 4023.27 2910.06 4000.74 2859.96 4000.74Z" fill="#2BAAE2" fill-opacity="0.0631313" stroke="#2BAAE2" stroke-width="15.22" stroke-linecap="round" stroke-linejoin="round"/>
<path d="M4782.67 1333.06C4782.67 1333.06 5426.53 1029.49 5860.25 1120.98C6293.96 1212.46 5954.31 2161.16 6454.02 2094.58C6954.8 2027.86 7582.94 2606.43 7328.84 3019.44C7000.28 3553.47 6037.71 2633.89 5718.27 2988.04C5380.11 3362.96 6357.08 3762.35 6375.27 4033.71C6393.47 4305.07 5858.05 4267.29 5858.05 4267.29" stroke="#2BAAE2" stroke-opacity="0.237374" stroke-width="15.22" stroke-linecap="round" stroke-linejoin="round" stroke-dasharray="50 50 50 50"/>
<path fill-rule="evenodd" clip-rule="evenodd" d="M3732.57 2737.24C3732.57 2682.81 3765.88 2638.68 3806.98 2638.68C3848.07 2638.68 3881.39 2682.81 3881.39 2737.24C3881.39 2791.68 3848.07 2835.8 3806.98 2835.8C3765.88 2835.8 3732.57 2791.68 3732.57 2737.24Z" fill="#135EAB"/>
<path fill-rule="evenodd" clip-rule="evenodd" d="M4570.26 3753.93C4570.26 3753.93 4524.59 3851.17 4558.68 3885.81C4592.77 3920.45 4675.98 3881.87 4675.98 3881.87C4675.98 3881.87 4921.45 3739.3 4901.43 3721.02C4881.41 3702.73 4825.62 3767.75 4812.58 3755.51C4799.53 3743.27 4918.78 3669.7 4897.63 3652C4876.48 3634.29 4801.69 3731.2 4792.42 3721.5C4783.15 3711.81 4882.31 3630.18 4860.55 3613.22C4838.78 3596.26 4758.93 3705.12 4746.39 3696.04C4733.86 3686.96 4831.42 3589.77 4810.42 3576.9C4789.43 3564.03 4723.61 3677.92 4688.8 3682.71C4653.99 3687.5 4700.43 3584.09 4671.19 3596.06C4641.96 3608.04 4570.26 3753.93 4570.26 3753.93Z" fill="#FDBC8C"/>
<path fill-rule="evenodd" clip-rule="evenodd" d="M3417.71 2916.3C3417.71 2916.3 3441 3030.95 3441 3123.26C3441 3215.57 3417.71 3285.55 3417.71 3285.55C3417.71 3285.55 3420.31 3418.9 3505.68 3454.4C3591.05 3489.91 3759.19 3427.57 3759.19 3427.57C3759.19 3427.57 3696.9 3273.06 3690.33 3147.61C3683.76 3022.16 3732.92 2925.77 3732.92 2925.77L3417.71 2916.3Z" fill="#FDBC8C"/>
<path fill-rule="evenodd" clip-rule="evenodd" d="M3417.71 2916.3C3417.71 2916.3 3441 3030.95 3441 3123.26C3441 3215.57 3417.71 3285.55 3417.71 3285.55C3417.71 3285.55 3500.3 3201.41 3568.8 3175.72C3637.29 3150.02 3690.64 3112.55 3690.64 3112.55C3690.64 3112.55 3690.58 3073.91 3693.22 3048.47C3704.39 2940.89 3732.92 2925.77 3732.92 2925.77L3417.71 2916.3Z" fill="#DFA58B"/>
<path fill-rule="evenodd" clip-rule="evenodd" d="M3426.73 3251.16C3426.73 3251.16 3500.49 3328.41 3577.07 3339.31C3667.93 3352.24 3713.85 3288.73 3713.85 3288.73C3713.85 3288.73 3873.81 3357.22 4029.45 3515.6C4185.09 3673.99 4179.18 4065.18 4184.43 4162.01C4189.68 4258.84 4095.12 4135.84 4321.02 3952.65C4447.82 3849.82 4538.74 3766.95 4538.74 3766.95C4538.74 3766.95 4554.94 3820.32 4591.27 3853.44C4627.59 3886.55 4684.04 3899.4 4684.04 3899.4C4684.04 3899.4 4581.81 4158.19 4444.48 4373.99C4324.2 4563.01 4186.84 4587.39 4087.24 4557.19C3873.92 4492.5 4021.57 4206.5 4021.57 4206.5L4089.73 4864.33L3631.35 4875.16L3110.43 4869.64L3088.79 4435.34C3088.79 4435.34 2889.19 3949.07 2970.45 3662.99C3051.7 3376.91 3426.73 3251.16 3426.73 3251.16Z" fill="#2E3690"/>
<path fill-rule="evenodd" clip-rule="evenodd" d="M3357.67 3684.33C3380.23 3531.49 3314.8 3437.09 3226.82 3428.09C3135.79 3418.79 3005.15 3454.74 2953.84 3715.79C2902.53 3976.85 2974.33 4432.63 3091.68 4544.08C3145.56 4595.25 3392.87 4630.89 3392.87 4630.89C3392.87 4630.89 3577.47 4667.84 3674.99 4683.5C3772.5 4699.16 3782.95 4693.52 3782.95 4693.52C3782.95 4693.52 3755.25 4649.92 3755.25 4604.41C3755.25 4558.89 3852.01 4538.25 3852.01 4538.25C3852.01 4538.25 3655.59 4429.93 3490.43 4334.66C3384.91 4273.78 3269.55 4244.87 3254.31 4225.45C3196.15 4151.33 3335.11 3837.17 3357.67 3684.33Z" fill="#135EAB"/>
<path fill-rule="evenodd" clip-rule="evenodd" d="M3338.78 3679.68C3361.34 3526.84 3295.92 3432.43 3207.94 3423.44C3116.91 3414.14 2986.27 3450.09 2934.96 3711.14C2883.64 3972.2 2851.48 4383.19 2968.84 4494.65C3072.2 4592.81 3768.4 4687.01 3768.4 4687.01C3768.4 4687.01 3738.32 4650.98 3745.21 4605.99C3754.05 4548.22 3838.43 4535.88 3838.43 4535.88C3838.43 4535.88 3656.64 4433.75 3512.79 4356.08C3368.95 4278.41 3258.95 4254.07 3243.72 4234.65C3185.55 4160.54 3316.22 3832.52 3338.78 3679.68Z" fill="#2E3690"/>
<path fill-rule="evenodd" clip-rule="evenodd" d="M3280.47 2543C3224.37 2622.39 3295.53 2737.86 3307.67 2826.65C3312.28 2860.36 3249.54 2767.95 3239.08 2829.69C3233.5 2862.65 3286.2 2973.87 3320.7 2941.43C3355.2 2909 3392.68 3002.39 3421.4 3023.8C3491.9 3076.35 3565.98 3118.87 3669.84 3112.72C3860.58 3101.42 3845.31 2878.54 3829.64 2716.85C3821.05 2628.19 3798.24 2559.02 3751.5 2511.67C3713.01 2472.68 3657.07 2449.79 3590.07 2431.73C3441.72 2391.75 3357.87 2433.47 3280.47 2543Z" fill="#FDBC8C"/>
<path fill-rule="evenodd" clip-rule="evenodd" d="M3327.79 2905.86C3367.48 2957.21 3261.95 2775.03 3337.2 2732.66C3412.45 2690.29 3448.9 2750.37 3473.26 2647.98C3497.62 2545.59 3398.01 2477.22 3398.01 2477.22C3398.01 2477.22 3579.97 2541.74 3705.18 2523.44C3728.31 2520.06 3731.24 2519.14 3751.18 2511.17C3753.93 2510.08 3788.98 2554.63 3804.33 2597.3C3823.33 2650.08 3825.94 2699.33 3828.03 2693.42C3830.45 2686.57 3825.04 2626.05 3807.21 2572.28C3793.49 2530.91 3763.46 2503.09 3768.7 2502.36C3831.65 2493.58 3930.86 2392.81 3898.36 2340.73C3865.86 2288.66 3741.94 2219.24 3642.27 2291.06C3530.01 2371.94 3471.41 2260.57 3354.83 2292.34C3238.26 2324.12 3214.82 2390.88 3178.43 2527.29C3155.66 2612.62 3222.57 2719.28 3271.89 2799.73C3301.42 2847.89 3312.93 2886.64 3327.79 2905.86Z" fill="#272361"/>
<path fill-rule="evenodd" clip-rule="evenodd" d="M3554.32 2775.52C3551.75 2761.8 3559.63 2749.56 3571.94 2748.18C3584.24 2746.8 3596.3 2756.81 3598.87 2770.54C3601.45 2784.26 3593.56 2796.51 3581.26 2797.88C3568.96 2799.26 3556.9 2789.25 3554.32 2775.52Z" fill="#272361"/>
<path fill-rule="evenodd" clip-rule="evenodd" d="M3744.98 2754.83C3742.25 2741.1 3750.63 2728.86 3763.7 2727.48C3776.77 2726.11 3789.59 2736.12 3792.32 2749.84C3795.06 2763.57 3786.68 2775.81 3773.61 2777.19C3760.53 2778.57 3747.72 2768.56 3744.98 2754.83Z" fill="#272361"/>
<path fill-rule="evenodd" clip-rule="evenodd" d="M3596.58 2950.68C3592.35 2935.15 3649.14 2951.21 3692.19 2945.44C3735.24 2939.67 3755.13 2930.24 3759.37 2945.77C3763.6 2961.29 3743.81 2995.23 3700.75 3000.99C3657.7 3006.76 3600.81 2966.2 3596.58 2950.68Z" fill="#E0E0E0"/>
<path fill-rule="evenodd" clip-rule="evenodd" d="M3732.85 2649.81L3775.74 2650.6C3783.55 2650.74 3789.82 2655.48 3789.74 2661.18C3789.66 2666.88 3783.27 2671.38 3775.46 2671.24L3732.56 2670.45C3724.75 2670.3 3718.49 2665.56 3718.57 2659.86C3718.64 2654.16 3725.04 2649.66 3732.85 2649.81Z" fill="#272361"/>
<path fill-rule="evenodd" clip-rule="evenodd" d="M3535.3 2662.42L3577.8 2656.66C3585.54 2655.61 3592.47 2659.33 3593.26 2664.98C3594.06 2670.62 3588.43 2676.05 3580.69 2677.1L3538.19 2682.86C3530.45 2683.91 3523.52 2680.18 3522.73 2674.54C3521.93 2668.89 3527.56 2663.47 3535.3 2662.42Z" fill="#272361"/>
<path fill-rule="evenodd" clip-rule="evenodd" d="M3490.63 2772.89C3490.63 2728.42 3527.75 2692.37 3573.55 2692.37C3619.35 2692.37 3656.47 2728.42 3656.47 2772.89C3656.47 2817.37 3619.35 2853.42 3573.55 2853.42C3527.75 2853.42 3490.63 2817.37 3490.63 2772.89Z" stroke="#828282" stroke-width="8.77" stroke-linecap="round" stroke-linejoin="round"/>
<path fill-rule="evenodd" clip-rule="evenodd" d="M3704.05 2753.65C3704.05 2709.96 3740.13 2674.55 3784.63 2674.55C3829.14 2674.55 3865.22 2709.96 3865.22 2753.65C3865.22 2797.34 3829.14 2832.76 3784.63 2832.76C3740.13 2832.76 3704.05 2797.34 3704.05 2753.65Z" stroke="#828282" stroke-width="8.77" stroke-linecap="round" stroke-linejoin="round"/>
<path d="M3658.46 2752.71C3658.46 2752.71 3668.01 2747.1 3677.7 2746.09C3687.39 2745.07 3697.22 2748.64 3697.22 2748.64" stroke="#828282" stroke-width="8.77" stroke-linecap="round" stroke-linejoin="round"/>
<path d="M3862.4 2734.93L3830.78 2736.53" stroke="#828282" stroke-width="7.95" stroke-linejoin="round"/>
<path d="M3482.83 2780.28L3284 2810.41" stroke="#828282" stroke-width="8.86" stroke-linecap="round" stroke-linejoin="round"/>
<path fill-rule="evenodd" clip-rule="evenodd" d="M3986.86 3827C3986.86 3827 3993.52 3822.17 4017.46 4032.88C4041.39 4243.6 4056.8 4554.2 4056.8 4554.2C4056.8 4554.2 4061.25 4323.9 4041.33 4116.83C4021.41 3909.76 3986.86 3827 3986.86 3827Z" fill="#135EAB"/>
<path fill-rule="evenodd" clip-rule="evenodd" d="M1273.43 4824.43L4591.11 4808.88L5546.18 4804.41L7016.96 4797.52C7053.49 4797.35 7084.97 4815.46 7087.27 4837.97L7090.19 4866.55C7092.5 4889.07 7064.75 4907.3 7028.22 4907.29L2278.99 4905.05L1307.24 4904.59C1270.71 4904.58 1233.6 4886.87 1224.36 4865.05L1224.03 4864.25C1214.79 4842.43 1236.91 4824.6 1273.43 4824.43Z" fill="#E0E0E0"/>
<path fill-rule="evenodd" clip-rule="evenodd" d="M4631.94 2890.79L4716.59 2724.39L4577.21 2723.45C4492.69 2722.87 4425.17 2653.9 4426.39 2569.39L4432.93 2117.88C4434.42 2015.03 4519.01 1931.65 4621.87 1931.65H5095.58H5494.08C5581.73 1931.65 5651.02 2002.68 5648.85 2090.31L5637.43 2550.2C5635.07 2645.37 5555.98 2722.97 5460.78 2723.53L4974.91 2727.95L4631.94 2890.79Z" fill="#1172BA"/>
<path fill-rule="evenodd" clip-rule="evenodd" d="M4600.64 2093.39H4773.22C4785.65 2093.39 4795.72 2103.46 4795.72 2115.89C4795.72 2128.31 4785.65 2138.39 4773.22 2138.39H4600.64C4588.22 2138.39 4578.14 2128.31 4578.14 2115.89C4578.14 2103.46 4588.22 2093.39 4600.64 2093.39Z" fill="white"/>
<path fill-rule="evenodd" clip-rule="evenodd" d="M4875.76 2089.63H5455.63C5470.45 2089.63 5482.47 2099.71 5482.47 2112.13C5482.47 2124.56 5470.45 2134.63 5455.63 2134.63H4875.76C4860.94 2134.63 4848.92 2124.56 4848.92 2112.13C4848.92 2099.71 4860.94 2089.63 4875.76 2089.63Z" fill="white"/>
<path fill-rule="evenodd" clip-rule="evenodd" d="M4604.57 2232.44H5159.98C5172.27 2232.44 5182.24 2242.52 5182.24 2254.94C5182.24 2267.37 5172.27 2277.44 5159.98 2277.44H4604.57C4592.27 2277.44 4582.3 2267.37 4582.3 2254.94C4582.3 2242.52 4592.27 2232.44 4604.57 2232.44Z" fill="white"/>
<path fill-rule="evenodd" clip-rule="evenodd" d="M5255.62 2230.28H5464.94C5474.4 2230.28 5482.07 2240.35 5482.07 2252.78C5482.07 2265.21 5474.4 2275.28 5464.94 2275.28H5255.62C5246.16 2275.28 5238.49 2265.21 5238.49 2252.78C5238.49 2240.35 5246.16 2230.28 5255.62 2230.28Z" fill="white"/>
<path fill-rule="evenodd" clip-rule="evenodd" d="M4609.06 2371.27H5022.41C5034.84 2371.27 5044.91 2381.35 5044.91 2393.77C5044.91 2406.2 5034.84 2416.27 5022.41 2416.27H4609.06C4596.64 2416.27 4586.56 2406.2 4586.56 2393.77C4586.56 2381.35 4596.64 2371.27 4609.06 2371.27Z" fill="white"/>
<path fill-rule="evenodd" clip-rule="evenodd" d="M5102.55 2369.75H5166.61C5179.03 2369.75 5189.11 2379.83 5189.11 2392.25C5189.11 2404.68 5179.03 2414.75 5166.61 2414.75H5102.55C5090.12 2414.75 5080.05 2404.68 5080.05 2392.25C5080.05 2379.83 5090.12 2369.75 5102.55 2369.75Z" fill="white"/>
<path fill-rule="evenodd" clip-rule="evenodd" d="M5245.81 2366.46H5454.8C5467.22 2366.46 5477.3 2376.53 5477.3 2388.96C5477.3 2401.39 5467.22 2411.46 5454.8 2411.46H5245.81C5233.39 2411.46 5223.31 2401.39 5223.31 2388.96C5223.31 2376.53 5233.39 2366.46 5245.81 2366.46Z" fill="white"/>
<path fill-rule="evenodd" clip-rule="evenodd" d="M4616.6 2504.77H4838.5C4850.93 2504.77 4861 2514.84 4861 2527.27C4861 2539.69 4850.93 2549.77 4838.5 2549.77H4616.6C4604.17 2549.77 4594.1 2539.69 4594.1 2527.27C4594.1 2514.84 4604.17 2504.77 4616.6 2504.77Z" fill="white"/>
<path fill-rule="evenodd" clip-rule="evenodd" d="M4947.28 2503.7H5108.61C5121.04 2503.7 5131.11 2513.77 5131.11 2526.2C5131.11 2538.62 5121.04 2548.7 5108.61 2548.7H4947.28C4934.85 2548.7 4924.78 2538.62 4924.78 2526.2C4924.78 2513.77 4934.85 2503.7 4947.28 2503.7Z" fill="white"/>
<path fill-rule="evenodd" clip-rule="evenodd" d="M3421.7 1489.66C3421.7 1489.66 3555.84 1485.89 3557.61 1339.51C3559.36 1195.45 3421.09 1187.87 3421.09 1187.87L3080.57 1190.29C3080.57 1190.29 2933.48 1183.44 2935.45 1348.77C2937.17 1493.68 3088.83 1503.76 3088.83 1503.76L3235.61 1502.72C3250.63 1502.61 3272.51 1512.18 3284.49 1524.09L3399.05 1637.99C3410.58 1649.45 3414.94 1644.8 3408.8 1627.59L3371.01 1521.78C3366 1507.75 3371.47 1495.54 3383.23 1494.51L3421.7 1489.66Z" fill="#4CC8ED"/>
<path fill-rule="evenodd" clip-rule="evenodd" d="M3128.8 1343.06C3128.8 1320.97 3111.16 1303.06 3089.4 1303.06C3067.64 1303.06 3049.99 1320.97 3049.99 1343.06C3049.99 1365.15 3067.64 1383.06 3089.4 1383.06C3111.16 1383.06 3128.8 1365.15 3128.8 1343.06Z" fill="white"/>
<path fill-rule="evenodd" clip-rule="evenodd" d="M3280.37 1343.06C3280.37 1320.97 3262.73 1303.06 3240.96 1303.06C3219.2 1303.06 3201.56 1320.97 3201.56 1343.06C3201.56 1365.15 3219.2 1383.06 3240.96 1383.06C3262.73 1383.06 3280.37 1365.15 3280.37 1343.06Z" fill="white"/>
<path fill-rule="evenodd" clip-rule="evenodd" d="M3433.87 1343.06C3433.87 1320.97 3416.23 1303.06 3394.47 1303.06C3372.71 1303.06 3355.06 1320.97 3355.06 1343.06C3355.06 1365.15 3372.71 1383.06 3394.47 1383.06C3416.23 1383.06 3433.87 1365.15 3433.87 1343.06Z" fill="white"/>
<path fill-rule="evenodd" clip-rule="evenodd" d="M3597.93 4805.13L3598.13 4769.86C3598.18 4760.61 3606.29 4752.97 3616.25 4752.81L4502.69 4737.91C4512.64 4737.74 4524.07 4730.79 4528.22 4722.38L4961.15 3838.92C4965.29 3830.52 4988.1 3798.53 4997.74 3800.85L5073.9 3804.31C5083.54 3806.62 5069.84 3807.13 5065.99 3815.66L4642.6 4753.76C4638.75 4762.29 4643.7 4769.23 4653.66 4769.25L5644.78 4770.93C5654.74 4770.95 5661.14 4782.51 5660.96 4790.84C5660.79 4799.18 5654.13 4810.68 5644.17 4810.76L3615.86 4821.74C3605.91 4821.81 3597.88 4814.38 3597.93 4805.13Z" fill="#828282"/>
<path fill-rule="evenodd" clip-rule="evenodd" d="M4985.89 3850.46L4549.7 4720.19C4533.54 4752.42 4549.66 4778.52 4585.72 4778.48L5614.76 4777.35C5650.82 4777.31 5694.2 4751.7 5711.65 4720.15L6175.39 3881.7C6192.84 3850.15 6177.76 3823.77 6141.72 3822.79L5080.42 3793.88C5056.35 3793.22 4979.65 3792.81 4959.64 3809.83C4959.64 3809.83 4969.76 3814.88 4980.25 3823C4989.82 3830.4 4988.45 3845.35 4985.89 3850.46Z" fill="#4CC8ED"/>
<path fill-rule="evenodd" clip-rule="evenodd" d="M3802.29 4555.92C3788.49 4561.72 3767.7 4572.58 3760.39 4587.99C3752.45 4604.72 3747.42 4636.1 3761.14 4659.6C3773.17 4680.19 3809.93 4727.28 3872.48 4760.35C3935.03 4793.43 3979 4801.7 3984.6 4790.98C3993.22 4774.47 3898.57 4730.9 3896.97 4721.44C3895.5 4712.77 4006.09 4770.6 4015.96 4750.96C4025.82 4731.31 3913.19 4685.11 3914.75 4677.36C3916.76 4667.41 4038.82 4732.28 4047.93 4711.34C4057.05 4690.4 3933.98 4644.08 3933.98 4644.08C3933.98 4644.08 4049.55 4679.93 4052.3 4658.12C4054.23 4642.78 3989.11 4630.55 3940.21 4605.51C3903.05 4586.49 3895.14 4573.78 3896.36 4567.54C3897.33 4562.54 3912.71 4558.22 3926.7 4552.2C4001.23 4520.13 3977.24 4485.93 3935.25 4513.84C3913.74 4528.13 3871.94 4525.03 3844.85 4539.61C3809.94 4558.39 3816.09 4550.13 3802.29 4555.92Z" fill="#FDBC8C"/>
<path fill-rule="evenodd" clip-rule="evenodd" d="M2818.41 3042.85L2763.19 2935.37L2854.11 2934.76C2909.24 2934.39 2953.28 2889.83 2952.48 2835.24L2948.22 2543.58C2947.25 2477.15 2892.07 2423.29 2824.97 2423.29H2256.05C2198.87 2423.29 2153.67 2469.18 2155.09 2525.78L2162.54 2822.84C2164.08 2884.32 2215.67 2934.45 2277.77 2934.81L2594.69 2937.66L2818.41 3042.85Z" fill="#2BAAE2"/>
<path fill-rule="evenodd" clip-rule="evenodd" d="M2386.65 2752.32C2349.15 2752.1 2319.27 2720.33 2319.92 2681.36L2320.01 2675.67C2320.8 2628.38 2358.33 2590.04 2403.85 2590.04H2526.44C2570.9 2590.04 2605.88 2627.47 2604.56 2673.65L2604.54 2674.5C2603.32 2717.27 2568.96 2752.18 2527.78 2752.48L2455.94 2752.99C2451.52 2753.03 2444.71 2754.69 2440.74 2756.71L2377.57 2780.33C2368.92 2783.56 2366.41 2780.2 2371.95 2772.81L2387.21 2752.5C2387.28 2752.4 2387.24 2752.32 2387.13 2752.32H2386.65Z" fill="#E0E0E0"/>
<path fill-rule="evenodd" clip-rule="evenodd" d="M2692.54 2653.11V2624.08C2716.11 2621.36 2733 2612.68 2743.21 2598.03H2773.86V2741.04H2732.58V2639.82C2724.24 2645.43 2710.89 2649.86 2692.54 2653.11Z" fill="#E0E0E0"/>
<path fill-rule="evenodd" clip-rule="evenodd" d="M1827.94 4238.8C1827.94 4238.8 1838.07 4144.68 1810.18 4117.86C1782.29 4091.05 1745.63 4148.79 1727.21 4114.71C1708.8 4080.63 1754.46 4049.8 1719.95 4001.26C1693.65 3964.28 1650.12 4024.15 1622.96 3991.24C1595.8 3958.34 1642.99 3904.28 1620.43 3858.86C1597.88 3813.45 1549.23 3834.26 1532.75 3809.59C1515.92 3784.41 1564.15 3750.58 1518.67 3720.09C1469.12 3686.87 1462.56 3746.22 1421.95 3736.47C1391.42 3729.15 1366.76 3658.44 1314.97 3699.49C1271.51 3733.95 1312.38 3785.6 1312.41 3825.33C1312.45 3875.29 1272.98 3876.5 1300.58 3928.19C1319.31 3963.28 1367.57 3932.5 1389.05 3964.75C1410.53 3996.99 1352.13 4020.45 1386.51 4057.18C1420.89 4093.9 1490.06 4073.71 1511.09 4100.78C1532.12 4127.85 1487.78 4190.52 1518.66 4223.8C1549.54 4257.08 1600.95 4225.77 1637.6 4254.15C1674.25 4282.53 1620.72 4332.53 1657.61 4360.74C1694.51 4388.95 1797.68 4357.59 1797.68 4357.59L1827.94 4238.8Z" fill="#0081C3"/>
<path fill-rule="evenodd" clip-rule="evenodd" d="M1986.13 4269.14C1986.13 4269.14 2066.68 4169.77 2051.64 4121.25C2036.61 4072.73 1979.93 4107.19 1981.84 4056.71C1983.76 4006.22 2042.12 4006.33 2024.58 3930.64C2007.38 3856.41 1961.65 3897.43 1951.92 3842.53C1942.19 3787.63 1991.47 3786.09 1996.46 3720.12C2001.46 3654.15 1932.4 3654.18 1926.12 3615.99C1920.34 3580.76 1999.91 3563.94 1965.83 3499.72C1928.69 3429.75 1891.31 3474.29 1848.24 3436.64C1815.85 3408.34 1773.55 3329.5 1706.04 3339.33C1637.69 3349.29 1677.49 3420.01 1648.81 3464.79C1612.73 3521.09 1563.15 3496.53 1559.84 3572.89C1557.59 3624.72 1616.9 3623.94 1616.71 3664.62C1616.53 3705.3 1556.76 3710.67 1572.64 3774.62C1588.51 3838.57 1659.24 3853.44 1666.77 3901.02C1673.76 3945.23 1601.23 3991.34 1615.28 4049.11C1629.33 4106.88 1689.6 4111.67 1714.31 4167.71C1739.03 4223.75 1662.62 4238.62 1687.76 4294.63C1712.91 4350.64 1862.89 4383.07 1862.89 4383.07L1986.13 4269.14Z" fill="#2BAAE2"/>
<path fill-rule="evenodd" clip-rule="evenodd" d="M1957.78 4368.24C1957.78 4368.24 2083.39 4335.91 2106.03 4293.2C2128.68 4250.5 2062.65 4232.52 2097.23 4198.92C2131.81 4165.31 2168.65 4203.09 2215.07 4145.17C2250.45 4101.03 2182.58 4067.99 2212.77 4024.16C2242.96 3980.33 2305.11 4019.73 2351.86 3977.36C2398.62 3935 2357.13 3882.8 2381.08 3854.64C2405.54 3825.9 2462.48 3873.3 2483.56 3808.02C2506.51 3736.9 2433.15 3748.52 2431.01 3696C2429.41 3656.52 2505.76 3603.24 2438.93 3553.92C2382.85 3512.53 2334.86 3579.19 2287.26 3592.34C2227.39 3608.87 2212.52 3561.36 2159.96 3611.92C2124.28 3646.25 2177.59 3694.67 2146.25 3731.39C2114.92 3768.11 2066.93 3704.95 2034.62 3758.81C2002.3 3812.67 2033.02 3878.87 2007.73 3913.33C1982.45 3947.79 1909.28 3925.77 1879.9 3974.24C1850.52 4022.71 1891.68 4067.58 1870.14 4121.44C1848.59 4175.3 1784.31 4134.02 1763.06 4188.13C1741.81 4242.23 1815.72 4370.11 1815.72 4370.11L1957.78 4368.24Z" fill="#0081C3"/>
<path fill-rule="evenodd" clip-rule="evenodd" d="M1685.83 4434.42L1747.05 4850.76L1994.16 4848.91L2035.63 4430.87L1685.83 4434.42Z" fill="#135EAB"/>
<path fill-rule="evenodd" clip-rule="evenodd" d="M1688.28 4449.94L2034.4 4445.24L2028.96 4484.81L1693.59 4486.28L1688.28 4449.94Z" fill="#2E3690"/>
<path fill-rule="evenodd" clip-rule="evenodd" d="M1613.45 4360.43L2116.27 4352.04L2104.91 4448.18L1620.34 4453.47L1613.45 4360.43Z" fill="#135EAB"/>
<path fill-rule="evenodd" clip-rule="evenodd" d="M2528.09 4629.77L2528.43 4601.01C2528.43 4601.01 2624.54 4599.94 2623.95 4684.74C2623.38 4768.5 2528.19 4780.45 2528.19 4780.45L2529.66 4747.44C2529.66 4747.44 2597.96 4745.29 2597.01 4685.97C2596.09 4628.73 2528.09 4629.77 2528.09 4629.77Z" fill="#2BAAE2"/>
<path fill-rule="evenodd" clip-rule="evenodd" d="M2310.4 4520.5L2315.37 4803.45C2315.65 4818.99 2328.47 4831.65 2344.01 4831.72L2500.25 4832.43C2518.91 4832.52 2534 4817.46 2533.97 4798.81L2533.53 4521L2310.4 4520.5Z" fill="#2BAAE2"/>
<path fill-rule="evenodd" clip-rule="evenodd" d="M2533.76 4520.99L2493.39 4521.08L2494.77 4798.82C2494.77 4798.82 2494.57 4810.18 2491.15 4818.57C2487.74 4826.95 2474.55 4832.31 2474.55 4832.31L2499.16 4832.51C2520.25 4832.68 2534.36 4817.85 2534.39 4797.21L2533.76 4520.99Z" fill="#0081C3"/>
<path fill-rule="evenodd" clip-rule="evenodd" d="M2329.35 4545.51L2330.46 4691.45C2330.49 4694.94 2333.34 4697.77 2336.83 4697.77H2338.13C2341.63 4697.77 2344.42 4694.94 2344.37 4691.44L2342.48 4545.52C2342.43 4542.03 2339.57 4539.2 2336.07 4539.2H2335.63C2332.14 4539.19 2329.33 4542.02 2329.35 4545.51Z" fill="#4CC8ED"/>
<path fill-rule="evenodd" clip-rule="evenodd" d="M3354.51 2931.18C3354.51 2931.18 3396.09 2963 3437.66 2973.74C3479.23 2984.47 3520.8 2974.13 3520.8 2974.13L3527.89 2985.16C3527.89 2985.16 3482.78 2997.48 3434.51 2984.77C3386.24 2972.06 3343.09 2937.09 3343.09 2937.09L3354.51 2931.18Z" fill="#2E3690"/>
<path fill-rule="evenodd" clip-rule="evenodd" d="M3306.4 2741.17C3306.4 2741.17 3288.78 2581.97 3345.95 2471.86C3396.84 2373.86 3567.95 2322.19 3567.95 2322.19C3567.95 2322.19 3538.32 2305.83 3515.7 2312.94C3493.08 2320.04 3382.51 2355.66 3322.44 2447.27C3243.03 2568.37 3276.96 2741.05 3276.96 2741.05L3306.4 2741.17Z" fill="#135EAB"/>
<path fill-rule="evenodd" clip-rule="evenodd" d="M3219.52 2882.83C3195.12 2828.87 3211.21 2765.98 3255.47 2742.38C3299.73 2718.77 3355.4 2743.38 3379.8 2797.35C3404.21 2851.31 3388.11 2914.19 3343.85 2937.79C3299.59 2961.4 3243.93 2936.79 3219.52 2882.83Z" fill="#135EAB"/>
<path fill-rule="evenodd" clip-rule="evenodd" d="M3231.12 2875.51C3212.74 2832.65 3224.86 2782.72 3258.2 2763.97C3291.54 2745.23 3333.46 2764.77 3351.84 2807.62C3370.23 2850.48 3358.1 2900.41 3324.77 2919.16C3291.43 2937.9 3249.51 2918.36 3231.12 2875.51Z" fill="#2E3690"/>
<path fill-rule="evenodd" clip-rule="evenodd" d="M3510.49 2978.12C3509.17 2966.51 3517.15 2956.06 3535.38 2953.98C3553.62 2951.91 3577.22 2956.36 3578.54 2967.97C3579.87 2979.58 3561.73 2991.57 3542.7 2995.5C3524.73 2999.2 3511.81 2989.73 3510.49 2978.12Z" fill="#135EAB"/>
<path opacity="0.196035" fill-rule="evenodd" clip-rule="evenodd" d="M3543.08 528.283C3469.66 528.283 3408.69 576.412 3400.52 639.252C3393.55 638.12 3386.53 637.346 3379.45 637.345C3319.59 637.346 3270.45 676.597 3270.45 726.033C3270.45 771.637 3312.51 809.117 3366.98 814.158C3366.98 814.158 3379.53 815.557 3384.33 816.064C3398.04 817.513 3412.93 818.963 3428.45 820.314C3451.01 822.278 3472.98 823.857 3493.67 824.939C3513.02 825.952 3530.75 826.502 3546.48 826.502C3586.02 826.502 3624.12 824.784 3675.36 821.314C3681.13 820.923 3712.72 818.726 3720.89 818.189C3779.34 814.564 3825.36 774.229 3825.36 724.72C3825.36 688.703 3800.77 656.84 3763.27 641.127C3759.27 608.046 3728.04 582.72 3690.55 582.72C3681.68 582.72 3673.03 584.225 3664.83 587.002C3638.76 550.813 3593.18 528.283 3543.08 528.283Z" fill="#2BAAE2" fill-opacity="0.0631313" stroke="#2BAAE2" stroke-width="15.22" stroke-linecap="round" stroke-linejoin="round"/>
<path opacity="0.196035" fill-rule="evenodd" clip-rule="evenodd" d="M1597.82 1988.96C1536.95 1988.96 1486.41 2028.86 1479.63 2080.96C1473.86 2080.02 1468.04 2079.38 1462.17 2079.37C1412.54 2079.38 1371.81 2111.91 1371.81 2152.9C1371.81 2190.7 1406.67 2221.77 1451.84 2225.95C1451.84 2225.95 1462.23 2227.11 1466.21 2227.53C1477.58 2228.73 1489.92 2229.93 1502.79 2231.06C1521.49 2232.68 1539.71 2233.99 1556.86 2234.89C1572.9 2235.73 1587.59 2236.18 1600.64 2236.18C1633.41 2236.18 1665 2234.76 1707.48 2231.88C1712.26 2231.56 1738.45 2229.74 1745.22 2229.29C1793.68 2226.29 1831.83 2192.85 1831.83 2151.81C1831.83 2121.95 1811.44 2095.54 1780.35 2082.51C1777.04 2055.09 1751.15 2034.09 1720.07 2034.09C1712.72 2034.09 1705.55 2035.34 1698.75 2037.64C1677.14 2007.64 1639.35 1988.96 1597.82 1988.96Z" fill="#2BAAE2" fill-opacity="0.0631313" stroke="#2BAAE2" stroke-width="15.22" stroke-linecap="round" stroke-linejoin="round"/>
<path opacity="0.196035" fill-rule="evenodd" clip-rule="evenodd" d="M6488.48 1363.36C6426.03 1363.36 6374.16 1404.3 6367.21 1457.75C6361.29 1456.79 6355.31 1456.13 6349.3 1456.13C6298.38 1456.13 6256.58 1489.52 6256.58 1531.57C6256.58 1570.36 6292.35 1602.24 6338.69 1606.53C6338.69 1606.53 6349.36 1607.72 6353.44 1608.15C6365.1 1609.38 6377.77 1610.62 6390.98 1611.77C6410.16 1613.44 6428.85 1614.78 6446.45 1615.7C6462.91 1616.56 6477.99 1617.03 6491.37 1617.03C6525 1617.03 6557.41 1615.57 6600.99 1612.62C6605.91 1612.28 6632.77 1610.42 6639.72 1609.96C6689.44 1606.88 6728.58 1572.57 6728.58 1530.45C6728.58 1499.82 6707.67 1472.72 6675.77 1459.35C6672.37 1431.21 6645.81 1409.67 6613.91 1409.67C6606.37 1409.67 6599.01 1410.95 6592.04 1413.31C6569.86 1382.53 6531.09 1363.36 6488.48 1363.36Z" fill="#2BAAE2" fill-opacity="0.0631313" stroke="#2BAAE2" stroke-width="15.22" stroke-linecap="round" stroke-linejoin="round"/>
<path opacity="0.196035" fill-rule="evenodd" clip-rule="evenodd" d="M5183.69 3083.2C5126.47 3083.2 5078.95 3120.71 5072.58 3169.68C5067.15 3168.8 5061.68 3168.2 5056.17 3168.2C5009.51 3168.2 4971.22 3198.79 4971.22 3237.32C4971.22 3272.86 5003.99 3302.07 5046.45 3306C5046.45 3306 5056.22 3307.09 5059.97 3307.48C5070.65 3308.61 5082.26 3309.74 5094.35 3310.8C5111.93 3312.33 5129.06 3313.56 5145.18 3314.4C5160.26 3315.19 5174.08 3315.62 5186.34 3315.62C5217.15 3315.62 5246.85 3314.28 5286.78 3311.58C5291.28 3311.27 5315.9 3309.56 5322.26 3309.14C5367.82 3306.31 5403.68 3274.88 5403.68 3236.29C5403.68 3208.22 5384.52 3183.39 5355.29 3171.15C5352.17 3145.36 5327.84 3125.63 5298.62 3125.63C5291.71 3125.63 5284.97 3126.8 5278.57 3128.96C5258.26 3100.76 5222.73 3083.2 5183.69 3083.2Z" fill="#2BAAE2" fill-opacity="0.0631313" stroke="#2BAAE2" stroke-width="15.22" stroke-linecap="round" stroke-linejoin="round"/>
<path d="M5415.25 4721.39C5417.06 4723.48 5418.74 4724.89 5420.16 4725.46C5421.25 4725.91 5422.11 4725.86 5422.78 4725.3C5423.68 4724.54 5425.13 4722.12 5424.91 4714.46L5415.25 4721.39Z" fill="#2BAAE2"/>
<path d="M5418.32 4684.3L5409.62 4679.8L5400.17 4686.57C5404.14 4698.15 5408.8 4708.23 5413.38 4715.19L5422.43 4708.7C5422 4704.59 5421.24 4699.88 5420.18 4694.66C5419.5 4691.17 5418.87 4687.69 5418.32 4684.3Z" fill="#4CC8ED"/>
<path d="M5391.26 4647.16L5390.65 4647.59C5392.42 4658.9 5394.94 4669.91 5398.14 4680.32L5406.86 4674.09L5406.78 4655.15L5391.26 4647.16Z" fill="#2BAAE2"/>
<path d="M5412.84 4664.86L5412.87 4673.51L5417.09 4675.71C5416.06 4666.9 5415.74 4658.99 5416.2 4652.12L5412.79 4654.57L5412.84 4664.86Z" fill="#2BAAE2"/>
<path d="M5388.04 4622.76C5388.09 4623.59 5388.14 4624.44 5388.19 4625.28L5388.17 4622.84L5388.04 4622.76Z" fill="#2BAAE2"/>
<path d="M5394.28 4641.09L5397.62 4642.61L5397.39 4642.79L5409.76 4649.22L5417.19 4643.9C5418.58 4636.17 5421.17 4630.01 5425.07 4625.11L5425.01 4619.27L5421.91 4617.73L5421.97 4617.69L5416.8 4614.99L5409.63 4611.25L5397.38 4620L5397.4 4620L5397.07 4620.23L5394.21 4622.25L5394.25 4631.01L5394.28 4641.09Z" fill="#4CC8ED"/>
<path d="M5431.06 4619.33C5437.35 4614.71 5444.56 4612.96 5450.98 4611.38C5451.42 4611.27 5451.88 4611.17 5452.33 4611.06L5446.23 4607.91L5443.51 4609.92L5443.51 4609.83L5434.12 4616.56L5434.14 4616.57L5431.05 4618.77L5431.06 4619.33Z" fill="#2BAAE2"/>
<path d="M5354.15 4582.56L5353.77 4582.84C5358.97 4587.03 5364.3 4590.94 5369.7 4594.45L5369.68 4590.65L5354.15 4582.56Z" fill="#2BAAE2"/>
<path d="M5403.45 4608.09L5405.1 4606.92L5406.62 4605.83L5406.56 4590.68L5406.55 4590.7L5406.54 4587.03L5391.02 4579L5375.7 4589.96L5375.72 4592.1L5375.75 4598.23C5381.91 4601.91 5385.9 4603.75 5386.07 4603.82L5387.77 4604.58L5387.75 4606.64C5387.7 4609.38 5387.71 4612.13 5387.78 4615.04L5390.19 4616.29L5391.26 4616.84L5403.48 4608.1L5403.45 4608.09Z" fill="#2BAAE2"/>
<path d="M5428.06 4613.32L5443.46 4602.31L5443.38 4587.15L5443.37 4587.17L5443.37 4583.52L5429.98 4576.57C5428.06 4577.02 5426.23 4577.46 5424.48 4577.87L5412.56 4586.39L5412.57 4587L5412.67 4605.3L5415.72 4606.81L5415.66 4606.86L5428.06 4613.32Z" fill="#2BAAE2"/>
<path d="M5317.05 4517.97L5305.39 4526.33C5310.51 4535.24 5316.39 4543.82 5322.85 4551.83L5332.62 4544.84L5332.54 4525.99L5317.05 4517.97Z" fill="#2BAAE2"/>
<path d="M5246.27 4500.25L5246.28 4503.83C5250.3 4500.01 5256.24 4494.68 5264.03 4490.45L5261.59 4489.21L5249.34 4497.98L5249.4 4498L5248.02 4499.1L5246.27 4500.25Z" fill="#1172BA"/>
<path d="M5313.96 4497.38L5313.93 4493.68L5298.47 4485.65L5289.69 4491.93C5293.18 4501.96 5297.43 4511.73 5302.37 4520.94L5314.03 4512.6L5313.96 4497.38Z" fill="#1172BA"/>
<path d="M5258.6 4483.78L5258.54 4470.83C5252.97 4477.93 5248.87 4485.22 5246.34 4492.59L5255.51 4486.03L5255.48 4486.01L5258.6 4483.78Z" fill="#2BAAE2"/>
<path d="M5264.52 4464.33L5264.58 4475.35L5264.61 4483.12L5267.95 4484.64L5267.71 4484.81L5271.76 4486.92C5276.01 4485.35 5280.38 4484.3 5284.78 4483.83L5286.99 4483.59L5287.68 4485.8L5295.44 4480.25L5295.36 4461.32L5281.95 4454.35L5279.93 4453.3L5264.52 4464.33Z" fill="#1172BA"/>
<path d="M5332.29 4476.66L5332.19 4457.79L5316.74 4449.78L5301.38 4460.81L5301.46 4477.43L5301.46 4479.7L5301.55 4479.74L5316.81 4487.66L5319.91 4485.15L5319.91 4485.54L5332.29 4476.66Z" fill="#1172BA"/>
<path d="M5313.68 4425.45L5298.24 4417.43L5282.87 4428.41L5282.89 4429.65L5282.97 4447.33L5286.11 4448.81L5286.14 4448.83L5286 4448.93L5298.38 4455.38L5312.07 4445.58L5312.29 4445.42L5313.78 4444.37L5313.68 4425.45Z" fill="#2BAAE2"/>
<path d="M5366.14 4543.63L5369.43 4541.29L5369.41 4536.41C5366.47 4530.44 5363.82 4524.37 5361.5 4518.29L5353.9 4514.33L5338.53 4525.31L5338.62 4544.25L5354.07 4552.25L5354.61 4551.87L5366.14 4543.63Z" fill="#2BAAE2"/>
<path d="M5335.52 4519.97L5350.87 4508.96L5350.78 4490.04L5335.37 4482.03L5319.98 4493.07L5320.06 4511.94L5335.52 4519.97Z" fill="#2BAAE2"/>
<path d="M5362.34 4511.22C5365.85 4506.05 5370.93 4503.02 5377.07 4502.48C5377.42 4502.44 5377.79 4502.41 5378.15 4502.4C5372.56 4495.78 5365.16 4492.48 5356.8 4492.71L5356.87 4508.38L5362.34 4511.22Z" fill="#1172BA"/>
<path d="M5338.64 4551.84L5337.23 4551.15L5335.64 4550.27L5325.1 4557.83C5324.49 4564.62 5325.37 4574.91 5332.63 4586.42L5334.27 4587.27C5334.16 4583.27 5334.2 4578.01 5334.77 4572.87L5335.5 4566.24L5339.86 4570.45C5342.76 4573.25 5345.8 4576.03 5348.93 4578.72L5351.16 4577.12L5351.07 4558.22L5338.67 4551.76L5338.64 4551.84Z" fill="#2BAAE2"/>
<path d="M5357.07 4560.81L5357.12 4572.86L5357.13 4572.84L5357.15 4576.49L5372.67 4584.52L5387.98 4573.56L5387.98 4573.51L5387.95 4567.45C5383.63 4561.4 5379.56 4554.99 5375.81 4548.42L5372.41 4546.67L5357.04 4557.65L5357.07 4560.81Z" fill="#2BAAE2"/>
<path d="M5449.25 4575.43L5454.35 4571.76C5449.66 4572.52 5444.97 4573.37 5440.3 4574.31L5446.38 4577.47L5447.68 4576.54L5449.25 4575.43Z" fill="#2BAAE2"/>
<path d="M5338.29 4472.21L5338.29 4472.4L5338.28 4473.58L5338.29 4474.1L5338.29 4476.06L5351.64 4483C5349.68 4471.77 5348.82 4460.49 5349.07 4449.38L5338.19 4457.16L5338.29 4472.21Z" fill="#1172BA"/>
<path d="M5350.58 4430.89L5350.52 4421.83L5335.07 4413.78L5319.71 4424.79L5319.8 4443.73L5335.25 4451.73L5349.47 4441.54C5349.73 4437.94 5350.11 4434.34 5350.58 4430.89Z" fill="#0081C3"/>
<path d="M5411.19 4313.37L5411.26 4328.46L5411.32 4328.41L5411.28 4332.31L5426.72 4340.33L5442.09 4329.35L5442 4310.57L5426.4 4302.48L5411.19 4313.37Z" fill="#1172BA"/>
<path d="M5460.6 4342.92L5445 4334.81L5429.75 4345.7L5429.82 4363.06C5431.74 4364.54 5433.62 4366.05 5435.44 4367.58L5445.28 4372.69L5460.68 4361.67L5460.6 4342.92Z" fill="#1172BA"/>
<path d="M5408.28 4338.27L5405.51 4340.29L5405.28 4340.44L5405.28 4340.42L5399.05 4344.88C5399.08 4344.9 5399.12 4344.91 5399.17 4344.93C5407.31 4348.26 5415.6 4352.86 5423.81 4358.62L5423.77 4351.64L5423.75 4346.28L5408.28 4338.27Z" fill="#1172BA"/>
<path d="M5374.46 4335.84L5388.76 4343.26L5389.99 4341.65L5392.09 4342.31L5405.25 4332.87L5405.19 4317.63L5405.17 4317.62L5405.17 4314.46L5389.32 4306.2L5374.37 4316.9L5374.46 4335.84Z" fill="#2E3690"/>
<path d="M5368.43 4332.03L5368.36 4317.97L5352.48 4309.75L5337.52 4320.47L5337.6 4339.36L5353.08 4347.4L5362.53 4340.65L5368.45 4336.42L5368.43 4332.03Z" fill="#1172BA"/>
<path d="M5300.75 4342.93L5316.23 4350.97L5328.56 4342.14L5331.6 4339.97L5331.53 4324.74L5331.5 4324.76L5331.5 4321.56L5315.62 4313.32L5300.65 4324.01L5300.75 4342.93Z" fill="#1172BA"/>
<path d="M5294.73 4339.19L5294.66 4325.09L5289.05 4322.19C5287.06 4331.83 5285.28 4341.64 5283.77 4351.39L5294.75 4343.53L5294.73 4339.19Z" fill="#1172BA"/>
<path d="M5384.76 4348.71L5371.46 4341.81L5356.1 4352.79L5356.18 4371.73L5356.25 4371.76L5367.3 4377.51C5372.17 4367.79 5378.03 4358.09 5384.76 4348.71Z" fill="#0081C3"/>
<path d="M5326.74 4379.09L5334.81 4383.27L5350.19 4372.25L5350.19 4369.03L5350.11 4355.58L5350.11 4353.35L5334.62 4345.34L5319.27 4356.32L5319.36 4375.26L5326.74 4379.09Z" fill="#1172BA"/>
<path d="M5351.04 4352.68L5351 4352.64L5351.04 4352.68Z" fill="#1172BA"/>
<path d="M5282.42 4360.48L5282.42 4360.52L5282.41 4360.61L5282.52 4378.81L5289.26 4382.34L5297.92 4386.84L5313.34 4375.82L5313.29 4365.7L5313.3 4365.68L5313.26 4356.95L5297.77 4348.91L5296.25 4349.99L5282.52 4359.8L5282.42 4360.48Z" fill="#0081C3"/>
<path d="M5353.39 4415.59L5353.47 4415.53C5356.01 4404.79 5359.71 4394.05 5364.48 4383.55L5353.21 4377.68L5337.79 4388.71L5337.87 4407.6L5353.36 4415.62L5353.39 4415.59Z" fill="#1172BA"/>
<path d="M5331.85 4408.2L5331.8 4398.73L5331.77 4389.26L5324.07 4385.28L5316.31 4381.26L5300.92 4392.27L5301 4411.16L5316.45 4419.21L5328.33 4410.71L5331.85 4408.2Z" fill="#1172BA"/>
<path d="M5294.99 4411.74L5294.94 4401.42L5294.9 4392.8L5279.48 4384.78L5279.45 4384.8C5279.2 4387.06 5278.97 4389.32 5278.77 4391.62C5277.85 4401.67 5277.48 4411.79 5277.65 4421.71L5279.62 4422.74L5294.99 4411.74Z" fill="#1172BA"/>
<path d="M5473.54 4569.2L5483.24 4574.22L5483.31 4574.16L5483.32 4574.17L5492.33 4567.73C5486.15 4568.04 5479.86 4568.52 5473.54 4569.2Z" fill="#2BAAE2"/>
<path d="M5522.94 4568.61L5523.99 4567.86C5520.64 4567.67 5517.24 4567.51 5513.82 4567.44L5520.06 4570.69L5522.95 4568.59L5522.94 4568.61Z" fill="#2BAAE2"/>
<path d="M5449.46 4601.7L5452.74 4603.18L5452.48 4603.37L5462.2 4608.4C5464.33 4607.87 5466.88 4607.27 5469.77 4606.59L5480.3 4599.05L5480.22 4580.16L5464.76 4572.11L5449.39 4583.11L5449.46 4601.7Z" fill="#2BAAE2"/>
<path d="M5501.23 4568.9L5501.13 4568.97L5486.23 4579.63L5486.26 4584.96L5486.3 4594.8L5486.31 4594.78L5486.33 4598.43L5492.15 4601.44C5501.93 4599.17 5509.88 4597.21 5517.11 4595.35L5517.02 4576.61L5515.36 4575.76L5506.23 4571.01L5501.6 4568.6L5501.23 4568.9Z" fill="#4CC8ED"/>
<path d="M5516.51 4443.97L5516.5 4440.19L5501.07 4432.2L5499.71 4433.17L5495.69 4436.04C5502.98 4445.74 5509.85 4454.85 5515.19 4460.11L5516.61 4459.12L5516.51 4443.97Z" fill="#1172BA"/>
<path d="M5523.12 4591.38L5523.11 4592.66L5523.12 4593.81C5536.34 4590.27 5546.42 4587.1 5553.88 4584.15L5553.84 4573.14L5549.37 4570.82L5549.18 4570.79C5544.1 4569.93 5538.81 4569.21 5533.45 4568.68L5523.05 4576.14L5523.12 4591.27L5523.13 4591.25L5523.12 4591.38Z" fill="#4CC8ED"/>
<path d="M5563.31 4574.32C5562.32 4573.92 5561.16 4573.51 5559.86 4573.13L5559.89 4581.53C5565.37 4578.89 5566.8 4577.21 5567.14 4576.67C5566.88 4576.32 5566.01 4575.42 5563.31 4574.32Z" fill="#4CC8ED"/>
<path d="M5526.89 4436.52L5522.52 4439.64L5522.62 4458.61L5524.41 4459.54L5526.45 4460.6C5529.01 4455.78 5529.16 4447.52 5526.89 4436.52Z" fill="#1172BA"/>
<path d="M5480.44 4332.53L5466.64 4342.42L5466.71 4357.6L5466.72 4357.58L5466.74 4361.34L5482.18 4369.36L5495.6 4359.77C5490.81 4350.68 5485.71 4341.52 5480.44 4332.53Z" fill="#2E3690"/>
<path d="M5487 4394.55L5500.73 4401.69L5512.07 4393.58C5508.17 4384.68 5503.6 4375.15 5498.5 4365.26L5487.26 4373.3L5485.24 4374.74L5485.32 4393.68L5487 4394.55Z" fill="#1172BA"/>
<path d="M5448.39 4378.29L5448.4 4379.4C5455.06 4385.94 5461.78 4393.25 5468.86 4401.7L5479.28 4394.23L5479.22 4379.77L5479.21 4375.32L5463.75 4367.29L5448.39 4378.29Z" fill="#1172BA"/>
<path d="M5525.29 4429.76C5522.94 4420.98 5519.34 4410.78 5514.56 4399.39L5503.72 4407.14L5503.81 4426.03L5519.26 4434.08L5525.29 4429.76Z" fill="#2E3690"/>
<path d="M5497.78 4422.42L5497.71 4407.67L5496.99 4407.29L5482.29 4399.64L5472.8 4406.43C5479.79 4414.98 5486.25 4423.48 5491.81 4430.88L5496.62 4427.43L5497.8 4426.59L5497.78 4422.42Z" fill="#1172BA"/>
<path d="M5115.09 4299.94C5112.92 4303.03 5112.3 4305.74 5113.23 4308.21C5113.45 4308.8 5114.02 4309.28 5114.95 4309.66C5117.18 4310.57 5121.18 4310.77 5126.87 4310.26C5127.34 4310.23 5127.82 4310.18 5128.3 4310.13L5128.33 4306.83L5115.09 4299.94Z" fill="#2E3690"/>
<path d="M5135.45 4297.9L5146.63 4289.88L5146.58 4278.27C5134.45 4284.16 5125.44 4289.74 5119.74 4294.87L5131.31 4300.86L5135.08 4298.15L5135.45 4297.9Z" fill="#2E3690"/>
<path d="M5134.36 4309.32C5141.92 4308.18 5150.86 4306.4 5161.14 4304.33L5165.16 4303.52L5165.16 4303.28L5149.7 4295.25L5146.73 4297.39L5146.74 4297.37L5146.01 4297.9L5134.37 4306.24L5134.36 4309.32Z" fill="#135EAB"/>
<path d="M5197.64 4297.5L5186.5 4291.71L5176.95 4298.55L5171.88 4302.18C5179.54 4300.66 5188.34 4299 5197.64 4297.5Z" fill="#2E3690"/>
<path d="M5233.53 4293.42L5223.37 4288.17L5213.43 4295.27C5220.52 4294.4 5227.15 4293.78 5233.53 4293.42Z" fill="#1172BA"/>
<path d="M5260.21 4284.62L5248.45 4293.02C5258.18 4293.09 5267.27 4293.86 5275.54 4295.31L5275.69 4294.41L5275.67 4292.65L5260.21 4284.62Z" fill="#1172BA"/>
<path d="M5152.67 4285.61L5152.69 4286L5152.67 4289.3L5168.12 4297.32L5183.48 4286.34L5183.39 4267.4L5178.35 4264.77C5168.85 4268.38 5160.2 4271.94 5152.61 4275.4L5152.66 4285.42L5152.67 4285.41L5152.67 4285.61Z" fill="#135EAB"/>
<path d="M5189.41 4266.87L5189.48 4283.5L5189.49 4285.76L5204.97 4293.79L5218.18 4284.34L5220.32 4282.79L5220.24 4263.85L5204.78 4255.87L5192.59 4264.59L5192.6 4264.6L5189.41 4266.87Z" fill="#2E3690"/>
<path d="M5226.25 4263.32L5226.29 4270.59L5226.33 4282.18L5241.82 4290.23L5257.17 4279.24L5257.08 4260.3L5241.66 4252.29L5226.25 4263.32Z" fill="#2E3690"/>
<path d="M5278.46 4248.74L5263.1 4259.77L5263.17 4276.3L5263.18 4278.66L5278.62 4286.66L5293.81 4275.76L5293.81 4275.72L5294.01 4275.57L5293.91 4256.75L5278.46 4248.74Z" fill="#2E3690"/>
<path d="M5238.68 4246.86L5238.67 4244.84C5229.96 4247.39 5221.41 4250.01 5213.22 4252.66L5216.03 4254.13L5223.3 4257.88L5238.68 4246.86Z" fill="#2E3690"/>
<path d="M5272.6 4245.4L5274.34 4244.16L5275.51 4243.33L5275.48 4234.8C5270.65 4235.99 5259.84 4238.75 5244.68 4243.09L5244.7 4246.31L5246.47 4247.24L5260.12 4254.35L5272.6 4245.4Z" fill="#2E3690"/>
<path d="M5312.51 4289.01L5297.12 4281.01L5295.48 4282.29L5294.07 4283.4L5294.06 4283.17L5281.7 4292.03L5281.73 4296.54C5285.16 4297.31 5288.44 4298.2 5291.49 4299.21L5294.01 4300.03L5293.31 4302.94C5292.43 4306.6 5291.54 4310.55 5290.58 4314.99L5297.64 4318.67L5308.19 4311.13L5310.97 4309.15L5311.22 4308.98L5312.49 4308.08L5312.6 4307.99L5312.51 4289.01Z" fill="#1172BA"/>
<path d="M5318.54 4292.78L5318.6 4306.87L5334.49 4315.1L5349.45 4304.4L5349.36 4285.5L5333.87 4277.44L5318.53 4288.43L5318.54 4292.78Z" fill="#2E3690"/>
<path d="M5372.93 4310.4L5386.29 4300.85L5386.21 4281.91L5370.73 4273.88L5355.37 4284.88L5355.37 4285.47L5355.46 4303.28L5371.34 4311.55L5372.39 4310.79L5372.93 4310.4Z" fill="#1172BA"/>
<path d="M5392.23 4285.64L5392.31 4299.78L5407.96 4307.89L5411.19 4304.99L5411.19 4305.84L5423.12 4297.3L5423.11 4295.52L5423.05 4282.12L5423.04 4282.14L5423.03 4278.38L5407.58 4270.36L5392.22 4281.34L5392.23 4285.64Z" fill="#2E3690"/>
<path d="M5300.03 4271.36L5300.03 4272.08L5300.03 4275.02L5315.49 4283.05L5324.84 4276.36L5330.85 4272.07L5330.77 4253.13L5327.62 4251.58L5327.68 4251.53L5326.33 4250.83L5315.34 4245.12L5299.95 4256.11L5300 4271.37L5300.03 4271.36Z" fill="#2E3690"/>
<path d="M5352.33 4279.51L5364.63 4270.71L5364.6 4270.7L5367.7 4268.48L5367.61 4249.59L5363.99 4247.72L5352.16 4241.58L5336.76 4252.6L5336.85 4271.49L5352.33 4279.51Z" fill="#2E3690"/>
<path d="M5389.18 4275.96L5404.54 4264.98L5404.46 4246.04L5400.33 4243.9L5400.34 4243.88L5389.03 4238.02L5373.62 4249.03L5373.67 4258.56L5373.71 4267.9L5389.18 4275.96Z" fill="#135EAB"/>
<path d="M5441.29 4242.48L5425.83 4234.48L5410.47 4245.51L5410.56 4264.4L5426.02 4272.41L5429.01 4270.26L5429.01 4270.28L5441.37 4261.42L5441.29 4242.48Z" fill="#2E3690"/>
<path d="M5296.99 4250.7L5312.37 4239.68L5312.31 4227.63C5302.79 4229.13 5292.6 4231.03 5282.03 4233.25C5281.88 4233.28 5281.7 4233.32 5281.51 4233.36L5281.56 4242.68L5296.99 4250.7Z" fill="#2E3690"/>
<path d="M5349.12 4221.01L5349.09 4217.38L5333.57 4209.3L5321.04 4218.27C5320.11 4220.43 5319.2 4222.62 5318.29 4224.84L5318.36 4239.14L5331.6 4246.03L5333.78 4247.17L5349.2 4236.15L5349.12 4221.01Z" fill="#2E3690"/>
<path d="M5365.12 4240.72L5370.66 4243.59L5386.06 4232.58L5385.97 4213.8L5370.43 4205.76L5355.12 4216.72L5355.13 4218.93L5355.21 4235.59L5365.12 4240.72Z" fill="#2E3690"/>
<path d="M5407.47 4240.08L5422.87 4229.07L5422.86 4228.12L5422.81 4213.96L5422.79 4213.97L5422.76 4210.28L5407.28 4202.21L5391.97 4213.15L5392.01 4220.99L5392.05 4232.04L5395.14 4233.64L5407.47 4240.08Z" fill="#2E3690"/>
<path d="M5348.84 4162.88C5347.14 4165.76 5345.47 4168.7 5343.84 4171.65L5345.73 4170.29L5345.72 4170.28L5348.86 4168.04L5348.84 4162.88Z" fill="#2E3690"/>
<path d="M5354.87 4166.27L5354.87 4167.41L5358.17 4168.9L5357.95 4169.05L5365.08 4172.76L5367.12 4173.81L5370.3 4175.48L5385.7 4164.46L5385.61 4145.54L5382.04 4143.7L5370.14 4137.53L5359.89 4144.85C5358.2 4147.49 5356.48 4150.18 5354.78 4152.92L5354.87 4166.27Z" fill="#2E3690"/>
<path d="M5391.81 4163.95L5407.21 4171.93L5419.39 4163.22L5419.37 4163.21L5419.36 4163.21L5422.55 4160.94L5422.48 4142.03L5407.02 4133.98L5391.64 4145L5391.72 4163.91L5391.81 4163.95Z" fill="#2E3690"/>
<path d="M5388.63 4139.61L5404 4128.61L5403.91 4109.69L5390.6 4102.79C5384.55 4110.16 5378.68 4117.81 5373.12 4125.51L5373.14 4131.59L5388.63 4139.61Z" fill="#282560"/>
<path d="M5409.96 4118.91L5410.01 4128.03L5425.47 4136.08L5440.82 4125.07L5440.74 4106.14L5425.29 4098.13L5409.92 4109.11L5409.96 4118.91Z" fill="#2E3690"/>
<path d="M5330.51 4197.33C5328.94 4200.6 5327.38 4203.92 5325.89 4207.24L5330.55 4203.91L5330.51 4197.33Z" fill="#2E3690"/>
<path d="M5352.09 4211.3L5367.41 4200.34L5367.31 4181.47L5351.84 4173.46L5337.25 4183.88L5336.48 4185.36L5336.55 4199.62L5336.56 4199.6L5336.55 4199.76L5336.57 4203.27L5352.09 4211.3Z" fill="#2E3690"/>
<path d="M5373.4 4196.01L5373.43 4199.68L5388.94 4207.75L5404.25 4196.8L5404.17 4177.9L5388.72 4169.88L5373.33 4180.89L5373.4 4196.01Z" fill="#135EAB"/>
<path d="M5428.81 4202.07L5428.8 4202.09L5441.08 4193.29L5440.99 4174.37L5425.54 4166.34L5413.31 4175.08L5413.32 4175.1L5410.17 4177.34L5410.19 4180.23L5410.24 4192.52L5410.25 4192.5L5410.26 4196.17L5425.82 4204.22L5427.48 4203.03L5428.81 4202.07Z" fill="#2E3690"/>
<path d="M5422.25 4092.76L5422.16 4073.82L5418.35 4071.83C5410.25 4080.1 5402.4 4088.73 5394.97 4097.54L5406.9 4103.74L5422.25 4092.76Z" fill="#282560"/>
<path d="M5440.55 4050.56C5434.53 4055.99 5428.85 4061.34 5423.29 4066.86L5425.21 4067.87L5440.56 4056.86L5440.55 4050.56Z" fill="#282560"/>
<path d="M5448.16 4328.82L5463.76 4336.9L5477.28 4327.21C5471.21 4317.11 5465.47 4308.11 5460.57 4301.1L5448.07 4310.03L5448.16 4328.82Z" fill="#2E3690"/>
<path d="M5457.17 4295.97C5453.84 4289.78 5453.3 4281.8 5455.52 4272.24L5444.86 4266.69L5429.46 4277.7L5429.54 4296.46L5445.15 4304.57L5457.17 4295.97Z" fill="#2E3690"/>
<path d="M5457.4 4265.68C5459.98 4257.99 5463.66 4250.95 5466.34 4246.3C5467.55 4244.36 5468.69 4242.49 5469.83 4240.62L5470.03 4240.28C5470.93 4238.82 5471.81 4237.34 5472.68 4235.85L5463.12 4230.89L5447.8 4241.84L5447.89 4260.73L5457.4 4265.68Z" fill="#2E3690"/>
<path d="M5447.57 4192.61L5458.16 4198.09L5463.06 4200.63L5475.28 4191.89L5475.26 4191.88L5475.24 4191.88L5478.41 4189.64L5478.43 4189.63L5478.33 4170.73L5462.88 4162.68L5447.5 4173.68L5447.57 4187.76L5447.57 4192.61Z" fill="#2E3690"/>
<path d="M5484.43 4189.07L5494.78 4194.45C5499.62 4184.22 5504.1 4173.85 5508.09 4163.52L5499.67 4159.16L5484.32 4170.15L5484.43 4189.07Z" fill="#2E3690"/>
<path d="M5444.24 4130.41L5428.93 4141.36L5429.02 4160.28L5444.49 4168.29L5459.85 4157.31L5459.73 4138.36L5444.24 4130.41Z" fill="#2E3690"/>
<path d="M5465.79 4142.05L5465.87 4156.73L5481.31 4164.75L5496.67 4153.79L5496.58 4137.01L5496.55 4136.24L5496.58 4136.22L5496.56 4134.85L5481.14 4126.83L5472.08 4133.29L5465.78 4137.79L5465.79 4142.05Z" fill="#272361"/>
<path d="M5497.46 4154.39L5497.52 4154.34L5497.46 4154.39Z" fill="#282560"/>
<path d="M5464.93 4157.36L5464.93 4157.41L5464.93 4157.36Z" fill="#2E3690"/>
<path d="M5460.1 4225.5L5460.02 4206.6L5444.57 4198.55L5429.18 4209.57L5429.27 4228.51L5444.71 4236.51L5460.1 4225.5Z" fill="#135EAB"/>
<path d="M5466.05 4211.38L5466.1 4221.2L5466.11 4221.18L5466.12 4224.85L5476.1 4230.03C5481.72 4220.28 5487.03 4210.36 5491.87 4200.47L5491.42 4200.24L5481.38 4195.04L5466.01 4206.02L5466.05 4211.38Z" fill="#2E3690"/>
<path d="M5478.01 4102.52L5466.58 4096.56L5462.59 4094.48L5447.17 4105.51L5447.25 4124.31L5450.62 4125.82L5450.36 4126.01L5462.73 4132.44L5478.1 4121.45L5478.01 4102.52Z" fill="#282560"/>
<path d="M5484.09 4117.5L5484.11 4120.88L5499.58 4128.89L5514.9 4117.91L5514.82 4098.95L5499.39 4090.96L5487.16 4099.72L5487.2 4099.73L5487.19 4099.75L5487.01 4099.86L5484.03 4101.97L5484.09 4117.5Z" fill="#282560"/>
<path d="M5444.05 4062.13L5428.67 4073.13L5428.76 4092.07L5444.21 4100.07L5459.61 4089.06L5459.51 4070.16L5444.05 4062.13Z" fill="#282560"/>
<path d="M5465.52 4069.58L5465.61 4088.52L5473.26 4092.5L5475.8 4093.84L5481.03 4096.54L5496.28 4085.64L5496.27 4085.62L5496.41 4085.54L5496.35 4070.38L5496.33 4070.38L5496.32 4069.61L5496.32 4066.6L5480.89 4058.6L5465.52 4069.58Z" fill="#2E3690"/>
<path d="M5502.66 4149.5L5502.68 4151.13L5502.67 4151.82L5502.67 4152.22L5502.66 4153.21L5510.45 4157.25C5514.41 4146.55 5517.94 4135.67 5520.97 4124.89L5517.91 4123.3L5514.95 4125.44L5514.96 4125.42L5502.59 4134.28L5502.66 4149.5Z" fill="#282560"/>
<path d="M5522.79 4118.3C5525.01 4109.86 5526.95 4101.35 5528.58 4092.89L5520.84 4098.4L5520.91 4113.65L5520.93 4113.63L5520.92 4113.9L5520.91 4117.33L5522.79 4118.3Z" fill="#282560"/>
<path d="M5519.09 4092.11L5520.76 4090.91L5520.77 4090.93L5530.15 4084.21C5531.34 4077.16 5532.34 4070.04 5533.12 4063.07L5517.7 4055.04L5502.34 4066.05L5502.44 4085.01L5511.59 4089.76L5517.85 4093L5519.09 4092.11Z" fill="#282560"/>
<path d="M5532.82 4013.52L5532.79 4008.08C5532.02 4005.69 5531.08 4003.49 5530 4001.52C5528.33 4001.31 5525.2 4001.06 5520.8 4001.46C5514.76 4002.01 5508.41 4003.55 5501.92 4006.02L5501.97 4016.53L5512.83 4022.17L5517.42 4024.54L5532.82 4013.52Z" fill="#282560"/>
<path d="M5472.08 4023.71L5480.52 4028.11L5495.95 4017.08L5495.9 4008.57C5487.96 4012.29 5479.97 4017.38 5472.08 4023.71Z" fill="#282560"/>
<path d="M5533.86 4055.8C5534.64 4047.16 5535.13 4038.47 5535.29 4029.98L5535.3 4029.76C5535.32 4029.67 5535.68 4025.33 5535.1 4019.45L5520.38 4029.95L5520.47 4048.85L5526.19 4051.81L5533.86 4055.8Z" fill="#282560"/>
<path d="M5514.42 4040.64L5514.37 4030.53L5504.46 4025.4L5498.92 4022.53L5483.52 4033.54L5483.62 4052.44L5499.08 4060.47L5510.49 4052.3L5514.46 4049.47L5514.42 4040.64Z" fill="#282560"/>
<path d="M5477.61 4053.02L5477.56 4040.09L5477.53 4034.08L5466.52 4028.34L5463.65 4030.74C5459 4034.62 5453.24 4039.41 5446.76 4045.08L5446.81 4056L5462.26 4064L5477.61 4053.02Z" fill="#282560"/>
</svg>
