<svg width="8202" height="6166" viewBox="0 0 8202 6166" fill="none" xmlns="http://www.w3.org/2000/svg">
<path d="M6437.11 394.312L7770.41 3242.44C7797.92 3301.22 7791.67 3370.26 7754.03 3423.13L5889.28 6043C5852.57 6094.58 5791.45 6123.08 5728.33 6118.05L2527.15 5862.86C2462.65 5857.72 2405.87 5818.36 2378.44 5759.76L1041.55 2904.46C1014.05 2845.73 1020.27 2776.75 1057.83 2723.89L2918.94 104.347C2955.72 52.5847 3017.04 24.0276 3080.33 29.1961L6288.74 291.224C6353.11 296.481 6409.73 335.82 6437.11 394.312Z" stroke="#E0E0E0" stroke-width="40" stroke-linejoin="round"/>
<path fill-rule="evenodd" clip-rule="evenodd" d="M1101.87 3204.76C1333.52 2476.73 2601.77 2467.01 2658.41 1761.1C2714.28 1064.73 3512.67 1136.17 3980.28 1422.77C4486.45 1733.01 6263.14 1118.25 6202.8 1621.06C6142.47 2123.86 6987.05 2321.76 7040.05 3090.85C7092.69 3854.97 6316.26 4807.36 6481.72 5261.2C6629.76 5667.26 4717.72 5415 3922.04 5415C3418.31 5415 2297.6 5589.9 2141.91 5157.2C1809.61 4233.59 832.295 4051.99 1101.87 3204.76Z" fill="#4CC8ED" fill-opacity="0.1434"/>
<path fill-rule="evenodd" clip-rule="evenodd" d="M6322.93 4139.68C6322.93 4139.68 6234.28 4137.19 6233.11 4040.45C6231.96 3945.24 6323.34 3940.24 6323.34 3940.24L6548.37 3941.84C6548.37 3941.84 6645.58 3937.31 6644.28 4046.57C6643.14 4142.34 6542.91 4149 6542.91 4149L6445.91 4148.31C6435.99 4148.24 6421.53 4154.56 6413.61 4162.43L6337.9 4237.71C6330.28 4245.28 6327.4 4242.21 6331.46 4230.83L6356.43 4160.91C6359.74 4151.64 6356.13 4143.57 6348.35 4142.89L6322.93 4139.68Z" fill="#4CC8ED"/>
<path fill-rule="evenodd" clip-rule="evenodd" d="M6516.5 4042.79C6516.5 4028.19 6528.16 4016.36 6542.54 4016.36C6556.92 4016.36 6568.58 4028.19 6568.58 4042.79C6568.58 4057.39 6556.92 4069.23 6542.54 4069.23C6528.16 4069.23 6516.5 4057.39 6516.5 4042.79Z" fill="white"/>
<path fill-rule="evenodd" clip-rule="evenodd" d="M6416.33 4042.79C6416.33 4028.19 6427.99 4016.36 6442.37 4016.36C6456.75 4016.36 6468.41 4028.19 6468.41 4042.79C6468.41 4057.39 6456.75 4069.23 6442.37 4069.23C6427.99 4069.23 6416.33 4057.39 6416.33 4042.79Z" fill="white"/>
<path fill-rule="evenodd" clip-rule="evenodd" d="M6314.89 4042.79C6314.89 4028.19 6326.55 4016.36 6340.93 4016.36C6355.31 4016.36 6366.97 4028.19 6366.97 4042.79C6366.97 4057.39 6355.31 4069.23 6340.93 4069.23C6326.55 4069.23 6314.89 4057.39 6314.89 4042.79Z" fill="white"/>
<path fill-rule="evenodd" clip-rule="evenodd" d="M4661.92 2008.81L4688.73 2134.04L4269.71 2188.68L4661.92 2008.81Z" fill="#0081C3"/>
<path fill-rule="evenodd" clip-rule="evenodd" d="M4652.7 1959.4L4669.5 2038.82L4405.82 2124.09L4652.7 1959.4Z" fill="#1172BA"/>
<path fill-rule="evenodd" clip-rule="evenodd" d="M4590.02 1905.64L4652.99 1960.23L4429.53 2111.65L4718.89 2001.17L4797.19 2049.66L4251.74 2193.96L4590.02 1905.64Z" fill="#2BAAE2"/>
<path fill-rule="evenodd" clip-rule="evenodd" d="M4529.7 5411.7L4221.54 5371.15C4213.63 5370.11 4204.74 5363.29 4201.69 5355.92L4082.73 5068.77C4079.68 5061.4 4081.14 5050.29 4086 5043.96L4275.2 4797.36C4280.05 4791.03 4290.4 4786.75 4298.31 4787.79L4606.47 4828.34C4614.38 4829.38 4623.27 4836.2 4626.32 4843.57L4745.28 5130.72C4748.33 5138.09 4746.87 5149.2 4742.02 5155.53L4552.82 5402.13C4547.96 5408.46 4537.61 5412.74 4529.7 5411.7Z" stroke="#2BAAE2" stroke-opacity="0.138889" stroke-width="15.78" stroke-linecap="round" stroke-linejoin="round"/>
<path fill-rule="evenodd" clip-rule="evenodd" d="M3853.7 3611.38L3623.26 3581.05C3617.35 3580.28 3610.7 3575.18 3608.42 3569.67L3519.47 3354.94C3517.18 3349.43 3518.28 3341.13 3521.91 3336.39L3663.39 3151.99C3667.02 3147.26 3674.76 3144.05 3680.67 3144.83L3911.1 3175.16C3917.02 3175.94 3923.66 3181.03 3925.95 3186.55L4014.9 3401.27C4017.19 3406.78 4016.09 3415.09 4012.46 3419.82L3870.98 3604.22C3867.35 3608.95 3859.61 3612.16 3853.7 3611.38Z" stroke="#2BAAE2" stroke-opacity="0.138889" stroke-width="15.78" stroke-linecap="round" stroke-linejoin="round"/>
<path fill-rule="evenodd" clip-rule="evenodd" d="M1873.38 4286.97L1603.89 4253.06C1596.97 4252.19 1589.17 4246.27 1586.46 4239.84L1481.09 3989.49C1478.38 3983.07 1479.61 3973.35 1483.82 3967.8L1647.94 3751.37C1652.16 3745.81 1661.18 3742.01 1668.1 3742.89L1937.59 3776.8C1944.51 3777.67 1952.31 3783.59 1955.02 3790.02L2060.39 4040.37C2063.09 4046.79 2061.87 4056.5 2057.66 4062.06L1893.54 4278.49C1889.32 4284.05 1880.3 4287.85 1873.38 4286.97Z" stroke="#2BAAE2" stroke-opacity="0.138889" stroke-width="15.78" stroke-linecap="round" stroke-linejoin="round"/>
<path fill-rule="evenodd" clip-rule="evenodd" d="M5468.16 2872.82L5150.44 2761.73C5142.29 2758.88 5134.37 2749.68 5132.76 2741.2L5070.11 2410.49C5068.5 2402.01 5072.51 2390.56 5079.05 2384.92L5334.12 2165.31C5340.67 2159.67 5352.59 2157.42 5360.74 2160.27L5678.46 2271.36C5686.62 2274.21 5694.53 2283.4 5696.14 2291.89L5758.79 2622.59C5760.4 2631.08 5756.4 2642.53 5749.85 2648.17L5494.78 2867.78C5488.23 2873.41 5476.32 2875.67 5468.16 2872.82Z" stroke="#2BAAE2" stroke-opacity="0.138889" stroke-width="15.78" stroke-linecap="round" stroke-linejoin="round"/>
<path opacity="0.196035" fill-rule="evenodd" clip-rule="evenodd" d="M6845.25 3069.54C6771.83 3069.54 6710.86 3117.67 6702.69 3180.51C6695.72 3179.38 6688.7 3178.6 6681.62 3178.6C6621.76 3178.6 6572.62 3217.85 6572.62 3267.29C6572.62 3312.89 6614.68 3350.37 6669.15 3355.41C6669.15 3355.41 6681.7 3356.81 6686.5 3357.32C6700.21 3358.77 6715.1 3360.22 6730.62 3361.57C6753.18 3363.53 6775.15 3365.11 6795.84 3366.19C6815.19 3367.21 6832.92 3367.76 6848.65 3367.76C6888.19 3367.76 6926.29 3366.04 6977.53 3362.57C6983.3 3362.18 7014.89 3359.98 7023.06 3359.44C7081.51 3355.82 7127.53 3315.48 7127.53 3265.98C7127.53 3229.96 7102.94 3198.1 7065.44 3182.38C7061.44 3149.3 7030.21 3123.97 6992.72 3123.98C6983.85 3123.98 6975.2 3125.48 6967 3128.26C6940.93 3092.07 6895.35 3069.54 6845.25 3069.54Z" fill="#2BAAE2" fill-opacity="0.0631313" stroke="#2BAAE2" stroke-width="15.22" stroke-linecap="round" stroke-linejoin="round"/>
<path opacity="0.196035" fill-rule="evenodd" clip-rule="evenodd" d="M2859.96 4591.74C2786.54 4591.74 2725.57 4639.86 2717.4 4702.7C2710.43 4701.57 2703.41 4700.8 2696.33 4700.8C2636.47 4700.8 2587.33 4740.05 2587.33 4789.49C2587.33 4835.09 2629.39 4872.57 2683.87 4877.61C2683.87 4877.61 2696.41 4879.01 2701.21 4879.52C2714.92 4880.97 2729.81 4882.42 2745.33 4883.77C2767.89 4885.73 2789.86 4887.31 2810.55 4888.39C2829.9 4889.4 2847.63 4889.95 2863.37 4889.95C2902.9 4889.95 2941 4888.24 2992.24 4884.77C2998.01 4884.38 3029.6 4882.18 3037.77 4881.64C3096.22 4878.02 3142.24 4837.68 3142.24 4788.17C3142.24 4752.15 3117.65 4720.29 3080.15 4704.58C3076.15 4671.5 3044.92 4646.17 3007.43 4646.17C2998.56 4646.17 2989.91 4647.68 2981.71 4650.45C2955.64 4614.27 2910.06 4591.74 2859.96 4591.74Z" fill="#2BAAE2" fill-opacity="0.0631313" stroke="#2BAAE2" stroke-width="15.22" stroke-linecap="round" stroke-linejoin="round"/>
<path d="M4782.67 1924.06C4782.67 1924.06 5426.53 1620.49 5860.25 1711.98C6293.96 1803.46 5954.31 2752.16 6454.02 2685.58C6954.8 2618.86 7582.94 3197.43 7328.84 3610.44C7000.28 4144.47 6037.71 3224.89 5718.27 3579.04C5380.11 3953.96 6357.08 4353.35 6375.27 4624.71C6393.47 4896.07 5858.05 4858.29 5858.05 4858.29" stroke="#2BAAE2" stroke-opacity="0.237374" stroke-width="15.22" stroke-linecap="round" stroke-linejoin="round" stroke-dasharray="50 50 50 50"/>
<path fill-rule="evenodd" clip-rule="evenodd" d="M3732.57 3328.24C3732.57 3273.81 3765.88 3229.68 3806.98 3229.68C3848.07 3229.68 3881.39 3273.81 3881.39 3328.24C3881.39 3382.68 3848.07 3426.8 3806.98 3426.8C3765.88 3426.8 3732.57 3382.68 3732.57 3328.24Z" fill="#135EAB"/>
<path fill-rule="evenodd" clip-rule="evenodd" d="M4570.26 4344.93C4570.26 4344.93 4524.59 4442.17 4558.68 4476.81C4592.77 4511.45 4675.98 4472.87 4675.98 4472.87C4675.98 4472.87 4921.45 4330.3 4901.43 4312.02C4881.41 4293.73 4825.62 4358.75 4812.58 4346.51C4799.53 4334.27 4918.78 4260.7 4897.63 4243C4876.48 4225.29 4801.69 4322.2 4792.42 4312.5C4783.15 4302.81 4882.31 4221.18 4860.55 4204.22C4838.78 4187.26 4758.93 4296.12 4746.39 4287.04C4733.86 4277.96 4831.42 4180.77 4810.42 4167.9C4789.43 4155.03 4723.61 4268.92 4688.8 4273.71C4653.99 4278.5 4700.43 4175.09 4671.19 4187.06C4641.96 4199.04 4570.26 4344.93 4570.26 4344.93Z" fill="#FDBC8C"/>
<path fill-rule="evenodd" clip-rule="evenodd" d="M3417.71 3507.3C3417.71 3507.3 3441 3621.95 3441 3714.26C3441 3806.57 3417.71 3876.55 3417.71 3876.55C3417.71 3876.55 3420.31 4009.9 3505.68 4045.4C3591.05 4080.91 3759.19 4018.57 3759.19 4018.57C3759.19 4018.57 3696.9 3864.06 3690.33 3738.61C3683.76 3613.16 3732.92 3516.77 3732.92 3516.77L3417.71 3507.3Z" fill="#FDBC8C"/>
<path fill-rule="evenodd" clip-rule="evenodd" d="M3417.71 3507.3C3417.71 3507.3 3441 3621.95 3441 3714.26C3441 3806.57 3417.71 3876.55 3417.71 3876.55C3417.71 3876.55 3500.3 3792.41 3568.8 3766.72C3637.29 3741.02 3690.64 3703.55 3690.64 3703.55C3690.64 3703.55 3690.58 3664.91 3693.22 3639.47C3704.39 3531.89 3732.92 3516.77 3732.92 3516.77L3417.71 3507.3Z" fill="#DFA58B"/>
<path fill-rule="evenodd" clip-rule="evenodd" d="M3426.73 3842.16C3426.73 3842.16 3500.49 3919.41 3577.07 3930.31C3667.93 3943.24 3713.85 3879.73 3713.85 3879.73C3713.85 3879.73 3873.81 3948.22 4029.45 4106.6C4185.09 4264.99 4179.18 4656.18 4184.43 4753.01C4189.68 4849.84 4095.12 4726.84 4321.02 4543.65C4447.82 4440.82 4538.74 4357.95 4538.74 4357.95C4538.74 4357.95 4554.94 4411.32 4591.27 4444.44C4627.59 4477.55 4684.04 4490.4 4684.04 4490.4C4684.04 4490.4 4581.81 4749.19 4444.48 4964.99C4324.2 5154.01 4186.84 5178.39 4087.24 5148.19C3873.92 5083.5 4021.57 4797.5 4021.57 4797.5L4089.73 5455.33L3631.35 5466.16L3110.43 5460.64L3088.79 5026.34C3088.79 5026.34 2889.19 4540.07 2970.45 4253.99C3051.7 3967.91 3426.73 3842.16 3426.73 3842.16Z" fill="#2E3690"/>
<path fill-rule="evenodd" clip-rule="evenodd" d="M3357.67 4275.33C3380.23 4122.49 3314.8 4028.09 3226.82 4019.09C3135.79 4009.79 3005.15 4045.74 2953.84 4306.79C2902.53 4567.85 2974.33 5023.63 3091.68 5135.08C3145.56 5186.25 3392.87 5221.89 3392.87 5221.89C3392.87 5221.89 3577.47 5258.84 3674.99 5274.5C3772.5 5290.16 3782.95 5284.52 3782.95 5284.52C3782.95 5284.52 3755.25 5240.92 3755.25 5195.41C3755.25 5149.89 3852.01 5129.25 3852.01 5129.25C3852.01 5129.25 3655.59 5020.93 3490.43 4925.66C3384.91 4864.78 3269.55 4835.87 3254.31 4816.45C3196.15 4742.33 3335.11 4428.17 3357.67 4275.33Z" fill="#135EAB"/>
<path fill-rule="evenodd" clip-rule="evenodd" d="M3338.78 4270.68C3361.34 4117.84 3295.92 4023.43 3207.94 4014.44C3116.91 4005.14 2986.27 4041.09 2934.96 4302.14C2883.64 4563.2 2851.48 4974.19 2968.84 5085.65C3072.2 5183.81 3768.4 5278.01 3768.4 5278.01C3768.4 5278.01 3738.32 5241.98 3745.21 5196.99C3754.05 5139.22 3838.43 5126.88 3838.43 5126.88C3838.43 5126.88 3656.64 5024.75 3512.79 4947.08C3368.95 4869.41 3258.95 4845.07 3243.72 4825.65C3185.55 4751.54 3316.22 4423.52 3338.78 4270.68Z" fill="#2E3690"/>
<path fill-rule="evenodd" clip-rule="evenodd" d="M3280.47 3134C3224.37 3213.39 3295.53 3328.86 3307.67 3417.65C3312.28 3451.36 3249.54 3358.95 3239.08 3420.69C3233.5 3453.65 3286.2 3564.87 3320.7 3532.43C3355.2 3500 3392.68 3593.39 3421.4 3614.8C3491.9 3667.35 3565.98 3709.87 3669.84 3703.72C3860.58 3692.42 3845.31 3469.54 3829.64 3307.85C3821.05 3219.19 3798.24 3150.02 3751.5 3102.67C3713.01 3063.68 3657.07 3040.79 3590.07 3022.73C3441.72 2982.75 3357.87 3024.47 3280.47 3134Z" fill="#FDBC8C"/>
<path fill-rule="evenodd" clip-rule="evenodd" d="M3327.79 3496.86C3367.48 3548.21 3261.95 3366.03 3337.2 3323.66C3412.45 3281.29 3448.9 3341.37 3473.26 3238.98C3497.62 3136.59 3398.01 3068.22 3398.01 3068.22C3398.01 3068.22 3579.97 3132.74 3705.18 3114.44C3728.31 3111.06 3731.24 3110.14 3751.18 3102.17C3753.93 3101.08 3788.98 3145.63 3804.33 3188.3C3823.33 3241.08 3825.94 3290.33 3828.03 3284.42C3830.45 3277.57 3825.04 3217.05 3807.21 3163.28C3793.49 3121.91 3763.46 3094.09 3768.7 3093.36C3831.65 3084.58 3930.86 2983.81 3898.36 2931.73C3865.86 2879.66 3741.94 2810.24 3642.27 2882.06C3530.01 2962.94 3471.41 2851.57 3354.83 2883.34C3238.26 2915.12 3214.82 2981.88 3178.43 3118.29C3155.66 3203.62 3222.57 3310.28 3271.89 3390.73C3301.42 3438.89 3312.93 3477.64 3327.79 3496.86Z" fill="#272361"/>
<path fill-rule="evenodd" clip-rule="evenodd" d="M3554.32 3366.52C3551.75 3352.8 3559.63 3340.56 3571.94 3339.18C3584.24 3337.8 3596.3 3347.81 3598.87 3361.54C3601.45 3375.26 3593.56 3387.51 3581.26 3388.88C3568.96 3390.26 3556.9 3380.25 3554.32 3366.52Z" fill="#272361"/>
<path fill-rule="evenodd" clip-rule="evenodd" d="M3744.98 3345.83C3742.25 3332.1 3750.63 3319.86 3763.7 3318.48C3776.77 3317.11 3789.59 3327.12 3792.32 3340.84C3795.06 3354.57 3786.68 3366.81 3773.61 3368.19C3760.53 3369.57 3747.72 3359.56 3744.98 3345.83Z" fill="#272361"/>
<path fill-rule="evenodd" clip-rule="evenodd" d="M3596.58 3541.68C3592.35 3526.15 3649.14 3542.21 3692.19 3536.44C3735.24 3530.67 3755.13 3521.24 3759.37 3536.77C3763.6 3552.29 3743.81 3586.23 3700.75 3591.99C3657.7 3597.76 3600.81 3557.2 3596.58 3541.68Z" fill="#E0E0E0"/>
<path fill-rule="evenodd" clip-rule="evenodd" d="M3732.85 3240.81L3775.74 3241.6C3783.55 3241.74 3789.82 3246.48 3789.74 3252.18C3789.66 3257.88 3783.27 3262.38 3775.46 3262.24L3732.56 3261.45C3724.75 3261.3 3718.49 3256.56 3718.57 3250.86C3718.64 3245.16 3725.04 3240.66 3732.85 3240.81Z" fill="#272361"/>
<path fill-rule="evenodd" clip-rule="evenodd" d="M3535.3 3253.42L3577.8 3247.66C3585.54 3246.61 3592.47 3250.33 3593.26 3255.98C3594.06 3261.62 3588.43 3267.05 3580.69 3268.1L3538.19 3273.86C3530.45 3274.91 3523.52 3271.18 3522.73 3265.54C3521.93 3259.89 3527.56 3254.47 3535.3 3253.42Z" fill="#272361"/>
<path fill-rule="evenodd" clip-rule="evenodd" d="M3490.63 3363.89C3490.63 3319.42 3527.75 3283.37 3573.55 3283.37C3619.35 3283.37 3656.47 3319.42 3656.47 3363.89C3656.47 3408.37 3619.35 3444.42 3573.55 3444.42C3527.75 3444.42 3490.63 3408.37 3490.63 3363.89Z" stroke="#828282" stroke-width="8.77" stroke-linecap="round" stroke-linejoin="round"/>
<path fill-rule="evenodd" clip-rule="evenodd" d="M3704.05 3344.65C3704.05 3300.96 3740.13 3265.55 3784.63 3265.55C3829.14 3265.55 3865.22 3300.96 3865.22 3344.65C3865.22 3388.34 3829.14 3423.76 3784.63 3423.76C3740.13 3423.76 3704.05 3388.34 3704.05 3344.65Z" stroke="#828282" stroke-width="8.77" stroke-linecap="round" stroke-linejoin="round"/>
<path d="M3658.46 3343.71C3658.46 3343.71 3668.01 3338.1 3677.7 3337.09C3687.39 3336.07 3697.22 3339.64 3697.22 3339.64" stroke="#828282" stroke-width="8.77" stroke-linecap="round" stroke-linejoin="round"/>
<path d="M3862.4 3325.93L3830.78 3327.53" stroke="#828282" stroke-width="7.95" stroke-linejoin="round"/>
<path d="M3482.83 3371.28L3284 3401.41" stroke="#828282" stroke-width="8.86" stroke-linecap="round" stroke-linejoin="round"/>
<path fill-rule="evenodd" clip-rule="evenodd" d="M3986.86 4418C3986.86 4418 3993.52 4413.17 4017.46 4623.88C4041.39 4834.6 4056.8 5145.2 4056.8 5145.2C4056.8 5145.2 4061.25 4914.9 4041.33 4707.83C4021.41 4500.76 3986.86 4418 3986.86 4418Z" fill="#135EAB"/>
<path fill-rule="evenodd" clip-rule="evenodd" d="M1273.43 5415.43L4591.11 5399.88L5546.18 5395.41L7016.96 5388.52C7053.49 5388.35 7084.97 5406.46 7087.27 5428.97L7090.19 5457.55C7092.5 5480.07 7064.75 5498.3 7028.22 5498.29L2278.99 5496.05L1307.24 5495.59C1270.71 5495.58 1233.6 5477.87 1224.36 5456.05L1224.03 5455.25C1214.79 5433.43 1236.91 5415.6 1273.43 5415.43Z" fill="#E0E0E0"/>
<path fill-rule="evenodd" clip-rule="evenodd" d="M4631.94 3481.79L4716.59 3315.39L4577.21 3314.45C4492.69 3313.87 4425.17 3244.9 4426.39 3160.39L4432.93 2708.88C4434.42 2606.03 4519.01 2522.65 4621.87 2522.65H5095.58H5494.08C5581.73 2522.65 5651.02 2593.68 5648.85 2681.31L5637.43 3141.2C5635.07 3236.37 5555.98 3313.97 5460.78 3314.53L4974.91 3318.95L4631.94 3481.79Z" fill="#1172BA"/>
<path fill-rule="evenodd" clip-rule="evenodd" d="M4600.64 2684.39H4773.22C4785.65 2684.39 4795.72 2694.46 4795.72 2706.89C4795.72 2719.31 4785.65 2729.39 4773.22 2729.39H4600.64C4588.22 2729.39 4578.14 2719.31 4578.14 2706.89C4578.14 2694.46 4588.22 2684.39 4600.64 2684.39Z" fill="white"/>
<path fill-rule="evenodd" clip-rule="evenodd" d="M4875.76 2680.63H5455.63C5470.45 2680.63 5482.47 2690.71 5482.47 2703.13C5482.47 2715.56 5470.45 2725.63 5455.63 2725.63H4875.76C4860.94 2725.63 4848.92 2715.56 4848.92 2703.13C4848.92 2690.71 4860.94 2680.63 4875.76 2680.63Z" fill="white"/>
<path fill-rule="evenodd" clip-rule="evenodd" d="M4604.57 2823.44H5159.98C5172.27 2823.44 5182.24 2833.52 5182.24 2845.94C5182.24 2858.37 5172.27 2868.44 5159.98 2868.44H4604.57C4592.27 2868.44 4582.3 2858.37 4582.3 2845.94C4582.3 2833.52 4592.27 2823.44 4604.57 2823.44Z" fill="white"/>
<path fill-rule="evenodd" clip-rule="evenodd" d="M5255.62 2821.28H5464.94C5474.4 2821.28 5482.07 2831.35 5482.07 2843.78C5482.07 2856.21 5474.4 2866.28 5464.94 2866.28H5255.62C5246.16 2866.28 5238.49 2856.21 5238.49 2843.78C5238.49 2831.35 5246.16 2821.28 5255.62 2821.28Z" fill="white"/>
<path fill-rule="evenodd" clip-rule="evenodd" d="M4609.06 2962.27H5022.41C5034.84 2962.27 5044.91 2972.35 5044.91 2984.77C5044.91 2997.2 5034.84 3007.27 5022.41 3007.27H4609.06C4596.64 3007.27 4586.56 2997.2 4586.56 2984.77C4586.56 2972.35 4596.64 2962.27 4609.06 2962.27Z" fill="white"/>
<path fill-rule="evenodd" clip-rule="evenodd" d="M5102.55 2960.75H5166.61C5179.03 2960.75 5189.11 2970.83 5189.11 2983.25C5189.11 2995.68 5179.03 3005.75 5166.61 3005.75H5102.55C5090.12 3005.75 5080.05 2995.68 5080.05 2983.25C5080.05 2970.83 5090.12 2960.75 5102.55 2960.75Z" fill="white"/>
<path fill-rule="evenodd" clip-rule="evenodd" d="M5245.81 2957.46H5454.8C5467.22 2957.46 5477.3 2967.53 5477.3 2979.96C5477.3 2992.39 5467.22 3002.46 5454.8 3002.46H5245.81C5233.39 3002.46 5223.31 2992.39 5223.31 2979.96C5223.31 2967.53 5233.39 2957.46 5245.81 2957.46Z" fill="white"/>
<path fill-rule="evenodd" clip-rule="evenodd" d="M4616.6 3095.77H4838.5C4850.93 3095.77 4861 3105.84 4861 3118.27C4861 3130.69 4850.93 3140.77 4838.5 3140.77H4616.6C4604.17 3140.77 4594.1 3130.69 4594.1 3118.27C4594.1 3105.84 4604.17 3095.77 4616.6 3095.77Z" fill="white"/>
<path fill-rule="evenodd" clip-rule="evenodd" d="M4947.28 3094.7H5108.61C5121.04 3094.7 5131.11 3104.77 5131.11 3117.2C5131.11 3129.62 5121.04 3139.7 5108.61 3139.7H4947.28C4934.85 3139.7 4924.78 3129.62 4924.78 3117.2C4924.78 3104.77 4934.85 3094.7 4947.28 3094.7Z" fill="white"/>
<path fill-rule="evenodd" clip-rule="evenodd" d="M3421.7 2080.66C3421.7 2080.66 3555.84 2076.89 3557.61 1930.51C3559.36 1786.45 3421.09 1778.87 3421.09 1778.87L3080.57 1781.29C3080.57 1781.29 2933.48 1774.44 2935.45 1939.77C2937.17 2084.68 3088.83 2094.76 3088.83 2094.76L3235.61 2093.72C3250.63 2093.61 3272.51 2103.18 3284.49 2115.09L3399.05 2228.99C3410.58 2240.45 3414.94 2235.8 3408.8 2218.59L3371.01 2112.78C3366 2098.75 3371.47 2086.54 3383.23 2085.51L3421.7 2080.66Z" fill="#4CC8ED"/>
<path fill-rule="evenodd" clip-rule="evenodd" d="M3128.8 1934.06C3128.8 1911.97 3111.16 1894.06 3089.4 1894.06C3067.64 1894.06 3049.99 1911.97 3049.99 1934.06C3049.99 1956.15 3067.64 1974.06 3089.4 1974.06C3111.16 1974.06 3128.8 1956.15 3128.8 1934.06Z" fill="white"/>
<path fill-rule="evenodd" clip-rule="evenodd" d="M3280.37 1934.06C3280.37 1911.97 3262.73 1894.06 3240.96 1894.06C3219.2 1894.06 3201.56 1911.97 3201.56 1934.06C3201.56 1956.15 3219.2 1974.06 3240.96 1974.06C3262.73 1974.06 3280.37 1956.15 3280.37 1934.06Z" fill="white"/>
<path fill-rule="evenodd" clip-rule="evenodd" d="M3433.87 1934.06C3433.87 1911.97 3416.23 1894.06 3394.47 1894.06C3372.71 1894.06 3355.06 1911.97 3355.06 1934.06C3355.06 1956.15 3372.71 1974.06 3394.47 1974.06C3416.23 1974.06 3433.87 1956.15 3433.87 1934.06Z" fill="white"/>
<path fill-rule="evenodd" clip-rule="evenodd" d="M3597.93 5396.13L3598.13 5360.86C3598.18 5351.61 3606.29 5343.97 3616.25 5343.81L4502.69 5328.91C4512.64 5328.74 4524.07 5321.79 4528.22 5313.38L4961.15 4429.92C4965.29 4421.52 4988.1 4389.53 4997.74 4391.85L5073.9 4395.31C5083.54 4397.62 5069.84 4398.13 5065.99 4406.66L4642.6 5344.76C4638.75 5353.29 4643.7 5360.23 4653.66 5360.25L5644.78 5361.93C5654.74 5361.95 5661.14 5373.51 5660.96 5381.84C5660.79 5390.18 5654.13 5401.68 5644.17 5401.76L3615.86 5412.74C3605.91 5412.81 3597.88 5405.38 3597.93 5396.13Z" fill="#828282"/>
<path fill-rule="evenodd" clip-rule="evenodd" d="M4985.89 4441.46L4549.7 5311.19C4533.54 5343.42 4549.66 5369.52 4585.72 5369.48L5614.76 5368.35C5650.82 5368.31 5694.2 5342.7 5711.65 5311.15L6175.39 4472.7C6192.84 4441.15 6177.76 4414.77 6141.72 4413.79L5080.42 4384.88C5056.35 4384.22 4979.65 4383.81 4959.64 4400.83C4959.64 4400.83 4969.76 4405.88 4980.25 4414C4989.82 4421.4 4988.45 4436.35 4985.89 4441.46Z" fill="#4CC8ED"/>
<path fill-rule="evenodd" clip-rule="evenodd" d="M3802.29 5146.92C3788.49 5152.72 3767.7 5163.58 3760.39 5178.99C3752.45 5195.72 3747.42 5227.1 3761.14 5250.6C3773.17 5271.19 3809.93 5318.28 3872.48 5351.35C3935.03 5384.43 3979 5392.7 3984.6 5381.98C3993.22 5365.47 3898.57 5321.9 3896.97 5312.44C3895.5 5303.77 4006.09 5361.6 4015.96 5341.96C4025.82 5322.31 3913.19 5276.11 3914.75 5268.36C3916.76 5258.41 4038.82 5323.28 4047.93 5302.34C4057.05 5281.4 3933.98 5235.08 3933.98 5235.08C3933.98 5235.08 4049.55 5270.93 4052.3 5249.12C4054.23 5233.78 3989.11 5221.55 3940.21 5196.51C3903.05 5177.49 3895.14 5164.78 3896.36 5158.54C3897.33 5153.54 3912.71 5149.22 3926.7 5143.2C4001.23 5111.13 3977.24 5076.93 3935.25 5104.84C3913.74 5119.13 3871.94 5116.03 3844.85 5130.61C3809.94 5149.39 3816.09 5141.13 3802.29 5146.92Z" fill="#FDBC8C"/>
<path fill-rule="evenodd" clip-rule="evenodd" d="M2818.41 3633.85L2763.19 3526.37L2854.11 3525.76C2909.24 3525.39 2953.28 3480.83 2952.48 3426.24L2948.22 3134.58C2947.25 3068.15 2892.07 3014.29 2824.97 3014.29H2256.05C2198.87 3014.29 2153.67 3060.18 2155.09 3116.78L2162.54 3413.84C2164.08 3475.32 2215.67 3525.45 2277.77 3525.81L2594.69 3528.66L2818.41 3633.85Z" fill="#2BAAE2"/>
<path fill-rule="evenodd" clip-rule="evenodd" d="M2386.65 3343.32C2349.15 3343.1 2319.27 3311.33 2319.92 3272.36L2320.01 3266.67C2320.8 3219.38 2358.33 3181.04 2403.85 3181.04H2526.44C2570.9 3181.04 2605.88 3218.47 2604.56 3264.65L2604.54 3265.5C2603.32 3308.27 2568.96 3343.18 2527.78 3343.48L2455.94 3343.99C2451.52 3344.03 2444.71 3345.69 2440.74 3347.71L2377.57 3371.33C2368.92 3374.56 2366.41 3371.2 2371.95 3363.81L2387.21 3343.5C2387.28 3343.4 2387.24 3343.32 2387.13 3343.32H2386.65Z" fill="#E0E0E0"/>
<path fill-rule="evenodd" clip-rule="evenodd" d="M2692.54 3244.11V3215.08C2716.11 3212.36 2733 3203.68 2743.21 3189.03H2773.86V3332.04H2732.58V3230.82C2724.24 3236.43 2710.89 3240.86 2692.54 3244.11Z" fill="#E0E0E0"/>
<path fill-rule="evenodd" clip-rule="evenodd" d="M1827.94 4829.8C1827.94 4829.8 1838.07 4735.68 1810.18 4708.86C1782.29 4682.05 1745.63 4739.79 1727.21 4705.71C1708.8 4671.63 1754.46 4640.8 1719.95 4592.26C1693.65 4555.28 1650.12 4615.15 1622.96 4582.24C1595.8 4549.34 1642.99 4495.28 1620.43 4449.86C1597.88 4404.45 1549.23 4425.26 1532.75 4400.59C1515.92 4375.41 1564.15 4341.58 1518.67 4311.09C1469.12 4277.87 1462.56 4337.22 1421.95 4327.47C1391.42 4320.15 1366.76 4249.44 1314.97 4290.49C1271.51 4324.95 1312.38 4376.6 1312.41 4416.33C1312.45 4466.29 1272.98 4467.5 1300.58 4519.19C1319.31 4554.28 1367.57 4523.5 1389.05 4555.75C1410.53 4587.99 1352.13 4611.45 1386.51 4648.18C1420.89 4684.9 1490.06 4664.71 1511.09 4691.78C1532.12 4718.85 1487.78 4781.52 1518.66 4814.8C1549.54 4848.08 1600.95 4816.77 1637.6 4845.15C1674.25 4873.53 1620.72 4923.53 1657.61 4951.74C1694.51 4979.95 1797.68 4948.59 1797.68 4948.59L1827.94 4829.8Z" fill="#0081C3"/>
<path fill-rule="evenodd" clip-rule="evenodd" d="M1986.13 4860.14C1986.13 4860.14 2066.68 4760.77 2051.64 4712.25C2036.61 4663.73 1979.93 4698.19 1981.84 4647.71C1983.76 4597.22 2042.12 4597.33 2024.58 4521.64C2007.38 4447.41 1961.65 4488.43 1951.92 4433.53C1942.19 4378.63 1991.47 4377.09 1996.46 4311.12C2001.46 4245.15 1932.4 4245.18 1926.12 4206.99C1920.34 4171.76 1999.91 4154.94 1965.83 4090.72C1928.69 4020.75 1891.31 4065.29 1848.24 4027.64C1815.85 3999.34 1773.55 3920.5 1706.04 3930.33C1637.69 3940.29 1677.49 4011.01 1648.81 4055.79C1612.73 4112.09 1563.15 4087.53 1559.84 4163.89C1557.59 4215.72 1616.9 4214.94 1616.71 4255.62C1616.53 4296.3 1556.76 4301.67 1572.64 4365.62C1588.51 4429.57 1659.24 4444.44 1666.77 4492.02C1673.76 4536.23 1601.23 4582.34 1615.28 4640.11C1629.33 4697.88 1689.6 4702.67 1714.31 4758.71C1739.03 4814.75 1662.62 4829.62 1687.76 4885.63C1712.91 4941.64 1862.89 4974.07 1862.89 4974.07L1986.13 4860.14Z" fill="#2BAAE2"/>
<path fill-rule="evenodd" clip-rule="evenodd" d="M1957.78 4959.24C1957.78 4959.24 2083.39 4926.91 2106.03 4884.2C2128.68 4841.5 2062.65 4823.52 2097.23 4789.92C2131.81 4756.31 2168.65 4794.09 2215.07 4736.17C2250.45 4692.03 2182.58 4658.99 2212.77 4615.16C2242.96 4571.33 2305.11 4610.73 2351.86 4568.36C2398.62 4526 2357.13 4473.8 2381.08 4445.64C2405.54 4416.9 2462.48 4464.3 2483.56 4399.02C2506.51 4327.9 2433.15 4339.52 2431.01 4287C2429.41 4247.52 2505.76 4194.24 2438.93 4144.92C2382.85 4103.53 2334.86 4170.19 2287.26 4183.34C2227.39 4199.87 2212.52 4152.36 2159.96 4202.92C2124.28 4237.25 2177.59 4285.67 2146.25 4322.39C2114.92 4359.11 2066.93 4295.95 2034.62 4349.81C2002.3 4403.67 2033.02 4469.87 2007.73 4504.33C1982.45 4538.79 1909.28 4516.77 1879.9 4565.24C1850.52 4613.71 1891.68 4658.58 1870.14 4712.44C1848.59 4766.3 1784.31 4725.02 1763.06 4779.13C1741.81 4833.23 1815.72 4961.11 1815.72 4961.11L1957.78 4959.24Z" fill="#0081C3"/>
<path fill-rule="evenodd" clip-rule="evenodd" d="M1685.83 5025.42L1747.05 5441.76L1994.16 5439.91L2035.63 5021.87L1685.83 5025.42Z" fill="#135EAB"/>
<path fill-rule="evenodd" clip-rule="evenodd" d="M1688.28 5040.94L2034.4 5036.24L2028.96 5075.81L1693.59 5077.28L1688.28 5040.94Z" fill="#2E3690"/>
<path fill-rule="evenodd" clip-rule="evenodd" d="M1613.45 4951.43L2116.27 4943.04L2104.91 5039.18L1620.34 5044.47L1613.45 4951.43Z" fill="#135EAB"/>
<path fill-rule="evenodd" clip-rule="evenodd" d="M2528.09 5220.77L2528.43 5192.01C2528.43 5192.01 2624.54 5190.94 2623.95 5275.74C2623.38 5359.5 2528.19 5371.45 2528.19 5371.45L2529.66 5338.44C2529.66 5338.44 2597.96 5336.29 2597.01 5276.97C2596.09 5219.73 2528.09 5220.77 2528.09 5220.77Z" fill="#2BAAE2"/>
<path fill-rule="evenodd" clip-rule="evenodd" d="M2310.4 5111.5L2315.37 5394.45C2315.65 5409.99 2328.47 5422.65 2344.01 5422.72L2500.25 5423.43C2518.91 5423.52 2534 5408.46 2533.97 5389.81L2533.53 5112L2310.4 5111.5Z" fill="#2BAAE2"/>
<path fill-rule="evenodd" clip-rule="evenodd" d="M2533.76 5111.99L2493.39 5112.08L2494.77 5389.82C2494.77 5389.82 2494.57 5401.18 2491.15 5409.57C2487.74 5417.95 2474.55 5423.31 2474.55 5423.31L2499.16 5423.51C2520.25 5423.68 2534.36 5408.85 2534.39 5388.21L2533.76 5111.99Z" fill="#0081C3"/>
<path fill-rule="evenodd" clip-rule="evenodd" d="M2329.35 5136.51L2330.46 5282.45C2330.49 5285.94 2333.34 5288.77 2336.83 5288.77H2338.13C2341.63 5288.77 2344.42 5285.94 2344.37 5282.44L2342.48 5136.52C2342.43 5133.03 2339.57 5130.2 2336.07 5130.2H2335.63C2332.14 5130.19 2329.33 5133.02 2329.35 5136.51Z" fill="#4CC8ED"/>
<path fill-rule="evenodd" clip-rule="evenodd" d="M3354.51 3522.18C3354.51 3522.18 3396.09 3554 3437.66 3564.74C3479.23 3575.47 3520.8 3565.13 3520.8 3565.13L3527.89 3576.16C3527.89 3576.16 3482.78 3588.48 3434.51 3575.77C3386.24 3563.06 3343.09 3528.09 3343.09 3528.09L3354.51 3522.18Z" fill="#2E3690"/>
<path fill-rule="evenodd" clip-rule="evenodd" d="M3306.4 3332.17C3306.4 3332.17 3288.78 3172.97 3345.95 3062.86C3396.84 2964.86 3567.95 2913.19 3567.95 2913.19C3567.95 2913.19 3538.32 2896.83 3515.7 2903.94C3493.08 2911.04 3382.51 2946.66 3322.44 3038.27C3243.03 3159.37 3276.96 3332.05 3276.96 3332.05L3306.4 3332.17Z" fill="#135EAB"/>
<path fill-rule="evenodd" clip-rule="evenodd" d="M3219.52 3473.83C3195.12 3419.87 3211.21 3356.98 3255.47 3333.38C3299.73 3309.77 3355.4 3334.38 3379.8 3388.35C3404.21 3442.31 3388.11 3505.19 3343.85 3528.79C3299.59 3552.4 3243.93 3527.79 3219.52 3473.83Z" fill="#135EAB"/>
<path fill-rule="evenodd" clip-rule="evenodd" d="M3231.12 3466.51C3212.74 3423.65 3224.86 3373.72 3258.2 3354.97C3291.54 3336.23 3333.46 3355.77 3351.84 3398.62C3370.23 3441.48 3358.1 3491.41 3324.77 3510.16C3291.43 3528.9 3249.51 3509.36 3231.12 3466.51Z" fill="#2E3690"/>
<path fill-rule="evenodd" clip-rule="evenodd" d="M3510.49 3569.12C3509.17 3557.51 3517.15 3547.06 3535.38 3544.98C3553.62 3542.91 3577.22 3547.36 3578.54 3558.97C3579.87 3570.58 3561.73 3582.57 3542.7 3586.5C3524.73 3590.2 3511.81 3580.73 3510.49 3569.12Z" fill="#135EAB"/>
<path opacity="0.196035" fill-rule="evenodd" clip-rule="evenodd" d="M3543.08 1119.28C3469.66 1119.28 3408.69 1167.41 3400.52 1230.25C3393.55 1229.12 3386.53 1228.34 3379.45 1228.34C3319.59 1228.34 3270.45 1267.6 3270.45 1317.03C3270.45 1362.64 3312.51 1400.12 3366.98 1405.16C3366.98 1405.16 3379.53 1406.56 3384.33 1407.06C3398.04 1408.51 3412.93 1409.96 3428.45 1411.31C3451.01 1413.28 3472.98 1414.86 3493.67 1415.94C3513.02 1416.95 3530.75 1417.5 3546.48 1417.5C3586.02 1417.5 3624.12 1415.78 3675.36 1412.31C3681.13 1411.92 3712.72 1409.72 3720.89 1409.19C3779.34 1405.56 3825.36 1365.23 3825.36 1315.72C3825.36 1279.7 3800.77 1247.84 3763.27 1232.13C3759.27 1199.04 3728.04 1173.72 3690.55 1173.72C3681.68 1173.72 3673.03 1175.22 3664.83 1178C3638.76 1141.81 3593.18 1119.28 3543.08 1119.28Z" fill="#2BAAE2" fill-opacity="0.0631313" stroke="#2BAAE2" stroke-width="15.22" stroke-linecap="round" stroke-linejoin="round"/>
<path opacity="0.196035" fill-rule="evenodd" clip-rule="evenodd" d="M1597.82 2579.96C1536.95 2579.96 1486.41 2619.86 1479.63 2671.96C1473.86 2671.02 1468.04 2670.38 1462.17 2670.37C1412.54 2670.38 1371.81 2702.91 1371.81 2743.9C1371.81 2781.7 1406.67 2812.77 1451.84 2816.95C1451.84 2816.95 1462.23 2818.11 1466.21 2818.53C1477.58 2819.73 1489.92 2820.93 1502.79 2822.06C1521.49 2823.68 1539.71 2824.99 1556.86 2825.89C1572.9 2826.73 1587.59 2827.18 1600.64 2827.18C1633.41 2827.18 1665 2825.76 1707.48 2822.88C1712.26 2822.56 1738.45 2820.74 1745.22 2820.29C1793.68 2817.29 1831.83 2783.85 1831.83 2742.81C1831.83 2712.95 1811.44 2686.54 1780.35 2673.51C1777.04 2646.09 1751.15 2625.09 1720.07 2625.09C1712.72 2625.09 1705.55 2626.34 1698.75 2628.64C1677.14 2598.64 1639.35 2579.96 1597.82 2579.96Z" fill="#2BAAE2" fill-opacity="0.0631313" stroke="#2BAAE2" stroke-width="15.22" stroke-linecap="round" stroke-linejoin="round"/>
<path opacity="0.196035" fill-rule="evenodd" clip-rule="evenodd" d="M6488.48 1954.36C6426.03 1954.36 6374.16 1995.3 6367.21 2048.75C6361.29 2047.79 6355.31 2047.13 6349.3 2047.13C6298.38 2047.13 6256.58 2080.52 6256.58 2122.57C6256.58 2161.36 6292.35 2193.24 6338.69 2197.53C6338.69 2197.53 6349.36 2198.72 6353.44 2199.15C6365.1 2200.38 6377.77 2201.62 6390.98 2202.77C6410.16 2204.44 6428.85 2205.78 6446.45 2206.7C6462.91 2207.56 6477.99 2208.03 6491.37 2208.03C6525 2208.03 6557.41 2206.57 6600.99 2203.62C6605.91 2203.28 6632.77 2201.42 6639.72 2200.96C6689.44 2197.88 6728.58 2163.57 6728.58 2121.45C6728.58 2090.82 6707.67 2063.72 6675.77 2050.35C6672.37 2022.21 6645.81 2000.67 6613.91 2000.67C6606.37 2000.67 6599.01 2001.95 6592.04 2004.31C6569.86 1973.53 6531.09 1954.36 6488.48 1954.36Z" fill="#2BAAE2" fill-opacity="0.0631313" stroke="#2BAAE2" stroke-width="15.22" stroke-linecap="round" stroke-linejoin="round"/>
<path opacity="0.196035" fill-rule="evenodd" clip-rule="evenodd" d="M5183.69 3674.2C5126.47 3674.2 5078.95 3711.71 5072.58 3760.68C5067.15 3759.8 5061.68 3759.2 5056.17 3759.2C5009.51 3759.2 4971.22 3789.79 4971.22 3828.32C4971.22 3863.86 5003.99 3893.07 5046.45 3897C5046.45 3897 5056.22 3898.09 5059.97 3898.48C5070.65 3899.61 5082.26 3900.74 5094.35 3901.8C5111.93 3903.33 5129.06 3904.56 5145.18 3905.4C5160.26 3906.19 5174.08 3906.62 5186.34 3906.62C5217.15 3906.62 5246.85 3905.28 5286.78 3902.58C5291.28 3902.27 5315.9 3900.56 5322.26 3900.14C5367.82 3897.31 5403.68 3865.88 5403.68 3827.29C5403.68 3799.22 5384.52 3774.39 5355.29 3762.15C5352.17 3736.36 5327.84 3716.63 5298.62 3716.63C5291.71 3716.63 5284.97 3717.8 5278.57 3719.96C5258.26 3691.76 5222.73 3674.2 5183.69 3674.2Z" fill="#2BAAE2" fill-opacity="0.0631313" stroke="#2BAAE2" stroke-width="15.22" stroke-linecap="round" stroke-linejoin="round"/>
<path d="M5415.25 5312.39C5417.06 5314.48 5418.74 5315.89 5420.16 5316.47C5421.25 5316.91 5422.11 5316.86 5422.78 5316.3C5423.68 5315.55 5425.13 5313.13 5424.91 5305.46L5415.25 5312.39Z" fill="#2BAAE2"/>
<path d="M5418.32 5275.3L5409.62 5270.8L5400.17 5277.57C5404.14 5289.15 5408.8 5299.23 5413.38 5306.19L5422.43 5299.7C5422 5295.59 5421.24 5290.88 5420.18 5285.66C5419.5 5282.17 5418.87 5278.69 5418.32 5275.3Z" fill="#4CC8ED"/>
<path d="M5391.26 5238.16L5390.65 5238.59C5392.42 5249.9 5394.94 5260.91 5398.14 5271.32L5406.86 5265.08L5406.78 5246.15L5391.26 5238.16Z" fill="#2BAAE2"/>
<path d="M5412.84 5255.86L5412.87 5264.51L5417.09 5266.71C5416.06 5257.9 5415.74 5249.99 5416.2 5243.12L5412.79 5245.57L5412.84 5255.86Z" fill="#2BAAE2"/>
<path d="M5388.04 5213.77C5388.09 5214.59 5388.14 5215.44 5388.19 5216.28L5388.17 5213.84L5388.04 5213.77Z" fill="#2BAAE2"/>
<path d="M5394.28 5232.09L5397.62 5233.61L5397.39 5233.79L5409.76 5240.22L5417.19 5234.9C5418.58 5227.17 5421.17 5221.01 5425.07 5216.11L5425.01 5210.27L5421.91 5208.73L5421.97 5208.69L5416.8 5205.99L5409.63 5202.25L5397.38 5211L5397.4 5211L5397.07 5211.23L5394.21 5213.25L5394.25 5222.01L5394.28 5232.09Z" fill="#4CC8ED"/>
<path d="M5431.06 5210.33C5437.35 5205.71 5444.56 5203.96 5450.98 5202.38C5451.42 5202.27 5451.88 5202.17 5452.33 5202.06L5446.23 5198.91L5443.51 5200.92L5443.51 5200.83L5434.12 5207.56L5434.14 5207.57L5431.05 5209.77L5431.06 5210.33Z" fill="#2BAAE2"/>
<path d="M5354.15 5173.56L5353.77 5173.84C5358.97 5178.03 5364.3 5181.94 5369.7 5185.45L5369.68 5181.65L5354.15 5173.56Z" fill="#2BAAE2"/>
<path d="M5403.45 5199.09L5405.1 5197.92L5406.62 5196.83L5406.56 5181.68L5406.55 5181.7L5406.54 5178.03L5391.02 5170L5375.7 5180.96L5375.72 5183.1L5375.75 5189.23C5381.91 5192.91 5385.9 5194.75 5386.07 5194.82L5387.77 5195.58L5387.75 5197.64C5387.7 5200.38 5387.71 5203.13 5387.78 5206.04L5390.19 5207.29L5391.26 5207.84L5403.48 5199.1L5403.45 5199.09Z" fill="#2BAAE2"/>
<path d="M5428.06 5204.32L5443.46 5193.31L5443.38 5178.15L5443.37 5178.17L5443.37 5174.52L5429.98 5167.57C5428.06 5168.02 5426.23 5168.46 5424.48 5168.87L5412.56 5177.39L5412.57 5178L5412.67 5196.3L5415.72 5197.81L5415.66 5197.86L5428.06 5204.32Z" fill="#2BAAE2"/>
<path d="M5317.05 5108.97L5305.39 5117.33C5310.51 5126.23 5316.39 5134.82 5322.85 5142.83L5332.62 5135.83L5332.54 5116.99L5317.05 5108.97Z" fill="#2BAAE2"/>
<path d="M5246.27 5091.25L5246.28 5094.83C5250.3 5091.01 5256.24 5085.68 5264.03 5081.45L5261.59 5080.2L5249.34 5088.97L5249.4 5089L5248.02 5090.1L5246.27 5091.25Z" fill="#1172BA"/>
<path d="M5313.96 5088.38L5313.93 5084.68L5298.47 5076.65L5289.69 5082.93C5293.18 5092.97 5297.43 5102.73 5302.37 5111.94L5314.03 5103.6L5313.96 5088.38Z" fill="#1172BA"/>
<path d="M5258.6 5074.78L5258.54 5061.83C5252.97 5068.93 5248.87 5076.22 5246.34 5083.59L5255.51 5077.03L5255.48 5077.01L5258.6 5074.78Z" fill="#2BAAE2"/>
<path d="M5264.52 5055.33L5264.58 5066.35L5264.61 5074.12L5267.95 5075.64L5267.71 5075.81L5271.76 5077.92C5276.01 5076.35 5280.38 5075.3 5284.78 5074.83L5286.99 5074.59L5287.68 5076.8L5295.44 5071.25L5295.36 5052.32L5281.95 5045.35L5279.93 5044.3L5264.52 5055.33Z" fill="#1172BA"/>
<path d="M5332.29 5067.66L5332.19 5048.79L5316.74 5040.78L5301.38 5051.81L5301.46 5068.43L5301.46 5070.7L5301.55 5070.74L5316.81 5078.66L5319.91 5076.15L5319.91 5076.54L5332.29 5067.66Z" fill="#1172BA"/>
<path d="M5313.68 5016.45L5298.24 5008.43L5282.87 5019.41L5282.89 5020.65L5282.97 5038.33L5286.11 5039.81L5286.14 5039.83L5286 5039.93L5298.38 5046.38L5312.07 5036.58L5312.29 5036.42L5313.78 5035.37L5313.68 5016.45Z" fill="#2BAAE2"/>
<path d="M5366.14 5134.64L5369.43 5132.29L5369.41 5127.41C5366.47 5121.44 5363.82 5115.37 5361.5 5109.29L5353.9 5105.33L5338.53 5116.31L5338.62 5135.25L5354.07 5143.25L5354.61 5142.87L5366.14 5134.64Z" fill="#2BAAE2"/>
<path d="M5335.52 5110.97L5350.87 5099.96L5350.78 5081.04L5335.37 5073.03L5319.98 5084.07L5320.06 5102.94L5335.52 5110.97Z" fill="#2BAAE2"/>
<path d="M5362.34 5102.22C5365.85 5097.05 5370.93 5094.02 5377.07 5093.48C5377.42 5093.44 5377.79 5093.41 5378.15 5093.4C5372.56 5086.78 5365.16 5083.48 5356.8 5083.71L5356.87 5099.38L5362.34 5102.22Z" fill="#1172BA"/>
<path d="M5338.64 5142.84L5337.23 5142.15L5335.64 5141.27L5325.1 5148.83C5324.49 5155.62 5325.37 5165.91 5332.63 5177.42L5334.27 5178.28C5334.16 5174.27 5334.2 5169.01 5334.77 5163.87L5335.5 5157.24L5339.86 5161.45C5342.76 5164.26 5345.8 5167.03 5348.93 5169.72L5351.16 5168.12L5351.07 5149.22L5338.67 5142.76L5338.64 5142.84Z" fill="#2BAAE2"/>
<path d="M5357.07 5151.81L5357.12 5163.85L5357.13 5163.83L5357.15 5167.48L5372.67 5175.52L5387.98 5164.56L5387.98 5164.51L5387.95 5158.45C5383.63 5152.4 5379.56 5145.99 5375.81 5139.42L5372.41 5137.67L5357.04 5148.65L5357.07 5151.81Z" fill="#2BAAE2"/>
<path d="M5449.25 5166.43L5454.35 5162.76C5449.66 5163.52 5444.97 5164.37 5440.3 5165.31L5446.38 5168.47L5447.68 5167.54L5449.25 5166.43Z" fill="#2BAAE2"/>
<path d="M5338.29 5063.21L5338.29 5063.39L5338.28 5064.58L5338.29 5065.1L5338.29 5067.06L5351.64 5074C5349.68 5062.77 5348.82 5051.49 5349.07 5040.38L5338.19 5048.16L5338.29 5063.21Z" fill="#1172BA"/>
<path d="M5350.58 5021.89L5350.52 5012.83L5335.07 5004.78L5319.71 5015.79L5319.8 5034.73L5335.25 5042.73L5349.47 5032.54C5349.73 5028.94 5350.11 5025.34 5350.58 5021.89Z" fill="#0081C3"/>
<path d="M5411.19 4904.37L5411.26 4919.45L5411.32 4919.41L5411.28 4923.3L5426.72 4931.33L5442.09 4920.35L5442 4901.56L5426.4 4893.48L5411.19 4904.37Z" fill="#1172BA"/>
<path d="M5460.6 4933.92L5445 4925.8L5429.75 4936.7L5429.82 4954.06C5431.74 4955.54 5433.62 4957.05 5435.44 4958.58L5445.28 4963.68L5460.68 4952.67L5460.6 4933.92Z" fill="#1172BA"/>
<path d="M5408.28 4929.27L5405.51 4931.29L5405.28 4931.44L5405.28 4931.42L5399.05 4935.88C5399.08 4935.9 5399.12 4935.91 5399.17 4935.93C5407.31 4939.26 5415.6 4943.86 5423.81 4949.62L5423.77 4942.64L5423.75 4937.28L5408.28 4929.27Z" fill="#1172BA"/>
<path d="M5374.46 4926.84L5388.76 4934.26L5389.99 4932.65L5392.09 4933.31L5405.25 4923.87L5405.19 4908.63L5405.17 4908.62L5405.17 4905.45L5389.32 4897.2L5374.37 4907.9L5374.46 4926.84Z" fill="#2E3690"/>
<path d="M5368.43 4923.03L5368.36 4908.97L5352.48 4900.75L5337.52 4911.47L5337.6 4930.36L5353.08 4938.4L5362.53 4931.65L5368.45 4927.42L5368.43 4923.03Z" fill="#1172BA"/>
<path d="M5300.75 4933.93L5316.23 4941.97L5328.56 4933.14L5331.6 4930.97L5331.53 4915.74L5331.5 4915.75L5331.5 4912.56L5315.62 4904.32L5300.65 4915.01L5300.75 4933.93Z" fill="#1172BA"/>
<path d="M5294.73 4930.19L5294.66 4916.09L5289.05 4913.19C5287.06 4922.83 5285.28 4932.64 5283.77 4942.39L5294.75 4934.54L5294.73 4930.19Z" fill="#1172BA"/>
<path d="M5384.76 4939.71L5371.46 4932.81L5356.1 4943.79L5356.18 4962.73L5356.25 4962.76L5367.3 4968.51C5372.17 4958.79 5378.03 4949.09 5384.76 4939.71Z" fill="#0081C3"/>
<path d="M5326.74 4970.09L5334.81 4974.27L5350.19 4963.25L5350.19 4960.03L5350.11 4946.58L5350.11 4944.35L5334.62 4936.34L5319.27 4947.33L5319.36 4966.26L5326.74 4970.09Z" fill="#1172BA"/>
<path d="M5351.04 4943.68L5351 4943.64L5351.04 4943.68Z" fill="#1172BA"/>
<path d="M5282.42 4951.48L5282.42 4951.52L5282.41 4951.61L5282.52 4969.81L5289.26 4973.34L5297.92 4977.84L5313.34 4966.82L5313.29 4956.7L5313.3 4956.68L5313.26 4947.95L5297.77 4939.91L5296.25 4940.99L5282.52 4950.8L5282.42 4951.48Z" fill="#0081C3"/>
<path d="M5353.39 5006.59L5353.47 5006.53C5356.01 4995.79 5359.71 4985.05 5364.48 4974.55L5353.21 4968.68L5337.79 4979.71L5337.87 4998.6L5353.36 5006.62L5353.39 5006.59Z" fill="#1172BA"/>
<path d="M5331.85 4999.19L5331.8 4989.73L5331.77 4980.26L5324.07 4976.28L5316.31 4972.25L5300.92 4983.27L5301 5002.16L5316.45 5010.21L5328.33 5001.71L5331.85 4999.19Z" fill="#1172BA"/>
<path d="M5294.99 5002.74L5294.94 4992.42L5294.9 4983.8L5279.48 4975.78L5279.45 4975.8C5279.2 4978.06 5278.97 4980.32 5278.77 4982.62C5277.85 4992.67 5277.48 5002.79 5277.65 5012.71L5279.62 5013.74L5294.99 5002.74Z" fill="#1172BA"/>
<path d="M5473.54 5160.2L5483.24 5165.22L5483.31 5165.16L5483.32 5165.17L5492.33 5158.73C5486.15 5159.04 5479.86 5159.52 5473.54 5160.2Z" fill="#2BAAE2"/>
<path d="M5522.94 5159.61L5523.99 5158.86C5520.64 5158.66 5517.24 5158.51 5513.82 5158.44L5520.06 5161.69L5522.95 5159.59L5522.94 5159.61Z" fill="#2BAAE2"/>
<path d="M5449.46 5192.7L5452.74 5194.18L5452.48 5194.37L5462.2 5199.4C5464.33 5198.87 5466.88 5198.28 5469.77 5197.59L5480.3 5190.05L5480.22 5171.16L5464.76 5163.11L5449.39 5174.11L5449.46 5192.7Z" fill="#2BAAE2"/>
<path d="M5501.23 5159.9L5501.13 5159.97L5486.23 5170.63L5486.26 5175.96L5486.3 5185.8L5486.31 5185.78L5486.33 5189.43L5492.15 5192.44C5501.93 5190.17 5509.88 5188.21 5517.11 5186.35L5517.02 5167.61L5515.36 5166.76L5506.23 5162.01L5501.6 5159.6L5501.23 5159.9Z" fill="#4CC8ED"/>
<path d="M5516.51 5034.97L5516.5 5031.19L5501.07 5023.2L5499.71 5024.17L5495.69 5027.04C5502.98 5036.74 5509.85 5045.85 5515.19 5051.11L5516.61 5050.12L5516.51 5034.97Z" fill="#1172BA"/>
<path d="M5523.12 5182.38L5523.11 5183.66L5523.12 5184.81C5536.34 5181.27 5546.42 5178.1 5553.88 5175.15L5553.84 5164.14L5549.37 5161.82L5549.18 5161.79C5544.1 5160.93 5538.81 5160.21 5533.45 5159.68L5523.05 5167.14L5523.12 5182.27L5523.13 5182.25L5523.12 5182.38Z" fill="#4CC8ED"/>
<path d="M5563.31 5165.32C5562.32 5164.92 5561.16 5164.51 5559.86 5164.13L5559.89 5172.53C5565.37 5169.89 5566.8 5168.21 5567.14 5167.67C5566.88 5167.32 5566.01 5166.43 5563.31 5165.32Z" fill="#4CC8ED"/>
<path d="M5526.89 5027.52L5522.52 5030.64L5522.62 5049.6L5524.41 5050.54L5526.45 5051.6C5529.01 5046.78 5529.16 5038.52 5526.89 5027.52Z" fill="#1172BA"/>
<path d="M5480.44 4923.53L5466.64 4933.42L5466.71 4948.6L5466.72 4948.58L5466.74 4952.34L5482.18 4960.36L5495.6 4950.77C5490.81 4941.68 5485.71 4932.52 5480.44 4923.53Z" fill="#2E3690"/>
<path d="M5487 4985.55L5500.73 4992.69L5512.07 4984.58C5508.17 4975.68 5503.6 4966.15 5498.5 4956.26L5487.26 4964.3L5485.24 4965.74L5485.32 4984.68L5487 4985.55Z" fill="#1172BA"/>
<path d="M5448.39 4969.29L5448.4 4970.4C5455.06 4976.94 5461.78 4984.25 5468.86 4992.7L5479.28 4985.23L5479.22 4970.77L5479.21 4966.32L5463.75 4958.29L5448.39 4969.29Z" fill="#1172BA"/>
<path d="M5525.29 5020.76C5522.94 5011.98 5519.34 5001.78 5514.56 4990.39L5503.72 4998.14L5503.81 5017.03L5519.26 5025.08L5525.29 5020.76Z" fill="#2E3690"/>
<path d="M5497.78 5013.42L5497.71 4998.67L5496.99 4998.29L5482.29 4990.64L5472.8 4997.43C5479.79 5005.98 5486.25 5014.48 5491.81 5021.88L5496.62 5018.43L5497.8 5017.59L5497.78 5013.42Z" fill="#1172BA"/>
<path d="M5115.09 4890.94C5112.92 4894.03 5112.3 4896.75 5113.23 4899.21C5113.45 4899.8 5114.02 4900.28 5114.95 4900.66C5117.18 4901.57 5121.18 4901.77 5126.87 4901.26C5127.34 4901.23 5127.82 4901.18 5128.3 4901.13L5128.33 4897.84L5115.09 4890.94Z" fill="#2E3690"/>
<path d="M5135.45 4888.9L5146.63 4880.88L5146.58 4869.26C5134.45 4875.16 5125.44 4880.74 5119.74 4885.87L5131.31 4891.86L5135.08 4889.15L5135.45 4888.9Z" fill="#2E3690"/>
<path d="M5134.36 4900.32C5141.92 4899.18 5150.86 4897.4 5161.14 4895.33L5165.16 4894.52L5165.16 4894.28L5149.7 4886.25L5146.73 4888.39L5146.74 4888.37L5146.01 4888.9L5134.37 4897.24L5134.36 4900.32Z" fill="#135EAB"/>
<path d="M5197.64 4888.5L5186.5 4882.71L5176.95 4889.55L5171.88 4893.18C5179.54 4891.66 5188.34 4890 5197.64 4888.5Z" fill="#2E3690"/>
<path d="M5233.53 4884.42L5223.37 4879.17L5213.43 4886.27C5220.52 4885.4 5227.15 4884.78 5233.53 4884.42Z" fill="#1172BA"/>
<path d="M5260.21 4875.62L5248.45 4884.02C5258.18 4884.09 5267.27 4884.86 5275.54 4886.31L5275.69 4885.4L5275.67 4883.64L5260.21 4875.62Z" fill="#1172BA"/>
<path d="M5152.67 4876.61L5152.69 4877L5152.67 4880.3L5168.12 4888.32L5183.48 4877.34L5183.39 4858.4L5178.35 4855.77C5168.85 4859.38 5160.2 4862.94 5152.61 4866.4L5152.66 4876.42L5152.67 4876.41L5152.67 4876.61Z" fill="#135EAB"/>
<path d="M5189.41 4857.86L5189.48 4874.5L5189.49 4876.76L5204.97 4884.79L5218.18 4875.34L5220.32 4873.79L5220.24 4854.85L5204.78 4846.86L5192.59 4855.59L5192.6 4855.6L5189.41 4857.86Z" fill="#2E3690"/>
<path d="M5226.25 4854.32L5226.29 4861.59L5226.33 4873.18L5241.82 4881.23L5257.17 4870.24L5257.08 4851.3L5241.66 4843.29L5226.25 4854.32Z" fill="#2E3690"/>
<path d="M5278.46 4839.74L5263.1 4850.77L5263.17 4867.3L5263.18 4869.66L5278.62 4877.66L5293.81 4866.76L5293.81 4866.72L5294.01 4866.57L5293.91 4847.75L5278.46 4839.74Z" fill="#2E3690"/>
<path d="M5238.68 4837.87L5238.67 4835.84C5229.96 4838.39 5221.41 4841.01 5213.22 4843.67L5216.03 4845.13L5223.3 4848.89L5238.68 4837.87Z" fill="#2E3690"/>
<path d="M5272.6 4836.4L5274.34 4835.16L5275.51 4834.33L5275.48 4825.8C5270.65 4826.99 5259.84 4829.75 5244.68 4834.09L5244.7 4837.31L5246.47 4838.24L5260.12 4845.35L5272.6 4836.4Z" fill="#2E3690"/>
<path d="M5312.51 4880.01L5297.12 4872.01L5295.48 4873.29L5294.07 4874.4L5294.06 4874.17L5281.7 4883.03L5281.73 4887.54C5285.16 4888.31 5288.44 4889.2 5291.49 4890.21L5294.01 4891.03L5293.31 4893.94C5292.43 4897.6 5291.54 4901.55 5290.58 4905.99L5297.64 4909.67L5308.19 4902.13L5310.97 4900.15L5311.22 4899.98L5312.49 4899.08L5312.6 4898.99L5312.51 4880.01Z" fill="#1172BA"/>
<path d="M5318.54 4883.78L5318.6 4897.87L5334.49 4906.1L5349.45 4895.4L5349.36 4876.51L5333.87 4868.44L5318.53 4879.43L5318.54 4883.78Z" fill="#2E3690"/>
<path d="M5372.93 4901.4L5386.29 4891.85L5386.21 4872.91L5370.73 4864.88L5355.37 4875.88L5355.37 4876.47L5355.46 4894.28L5371.34 4902.55L5372.39 4901.79L5372.93 4901.4Z" fill="#1172BA"/>
<path d="M5392.23 4876.64L5392.31 4890.78L5407.96 4898.89L5411.19 4895.99L5411.19 4896.84L5423.12 4888.3L5423.11 4886.52L5423.05 4873.12L5423.04 4873.14L5423.03 4869.38L5407.58 4861.36L5392.22 4872.34L5392.23 4876.64Z" fill="#2E3690"/>
<path d="M5300.03 4862.36L5300.03 4863.08L5300.03 4866.02L5315.49 4874.05L5324.84 4867.35L5330.85 4863.07L5330.77 4844.13L5327.62 4842.58L5327.68 4842.53L5326.33 4841.82L5315.34 4836.12L5299.95 4847.11L5300 4862.37L5300.03 4862.36Z" fill="#2E3690"/>
<path d="M5352.33 4870.5L5364.63 4861.71L5364.6 4861.7L5367.7 4859.48L5367.61 4840.58L5363.99 4838.72L5352.16 4832.58L5336.76 4843.59L5336.85 4862.49L5352.33 4870.5Z" fill="#2E3690"/>
<path d="M5389.18 4866.96L5404.54 4855.98L5404.46 4837.04L5400.33 4834.9L5400.34 4834.88L5389.03 4829.02L5373.62 4840.03L5373.67 4849.56L5373.71 4858.9L5389.18 4866.96Z" fill="#135EAB"/>
<path d="M5441.29 4833.48L5425.83 4825.48L5410.47 4836.5L5410.56 4855.4L5426.02 4863.41L5429.01 4861.26L5429.01 4861.28L5441.37 4852.42L5441.29 4833.48Z" fill="#2E3690"/>
<path d="M5296.99 4841.7L5312.37 4830.68L5312.31 4818.63C5302.79 4820.13 5292.6 4822.03 5282.03 4824.25C5281.88 4824.28 5281.7 4824.32 5281.51 4824.36L5281.56 4833.68L5296.99 4841.7Z" fill="#2E3690"/>
<path d="M5349.12 4812.01L5349.09 4808.38L5333.57 4800.3L5321.04 4809.27C5320.11 4811.43 5319.2 4813.62 5318.29 4815.84L5318.36 4830.14L5331.6 4837.03L5333.78 4838.17L5349.2 4827.15L5349.12 4812.01Z" fill="#2E3690"/>
<path d="M5365.12 4831.72L5370.66 4834.59L5386.06 4823.58L5385.97 4804.8L5370.43 4796.76L5355.12 4807.72L5355.13 4809.93L5355.21 4826.59L5365.12 4831.72Z" fill="#2E3690"/>
<path d="M5407.47 4831.08L5422.87 4820.07L5422.86 4819.12L5422.81 4804.96L5422.79 4804.97L5422.76 4801.28L5407.28 4793.21L5391.97 4804.15L5392.01 4811.99L5392.05 4823.04L5395.14 4824.64L5407.47 4831.08Z" fill="#2E3690"/>
<path d="M5348.84 4753.88C5347.14 4756.76 5345.47 4759.7 5343.84 4762.65L5345.73 4761.29L5345.72 4761.28L5348.86 4759.04L5348.84 4753.88Z" fill="#2E3690"/>
<path d="M5354.87 4757.27L5354.87 4758.41L5358.17 4759.9L5357.95 4760.05L5365.08 4763.76L5367.12 4764.81L5370.3 4766.48L5385.7 4755.46L5385.61 4736.54L5382.04 4734.7L5370.14 4728.53L5359.89 4735.85C5358.2 4738.49 5356.48 4741.18 5354.78 4743.92L5354.87 4757.27Z" fill="#2E3690"/>
<path d="M5391.81 4754.95L5407.21 4762.93L5419.39 4754.22L5419.37 4754.22L5419.36 4754.21L5422.55 4751.94L5422.48 4733.03L5407.02 4724.98L5391.64 4736L5391.72 4754.91L5391.81 4754.95Z" fill="#2E3690"/>
<path d="M5388.63 4730.61L5404 4719.61L5403.91 4700.69L5390.6 4693.79C5384.55 4701.16 5378.68 4708.81 5373.12 4716.52L5373.14 4722.6L5388.63 4730.61Z" fill="#282560"/>
<path d="M5409.96 4709.91L5410.01 4719.03L5425.47 4727.08L5440.82 4716.07L5440.74 4697.14L5425.29 4689.13L5409.92 4700.11L5409.96 4709.91Z" fill="#2E3690"/>
<path d="M5330.51 4788.33C5328.94 4791.6 5327.38 4794.92 5325.89 4798.24L5330.55 4794.91L5330.51 4788.33Z" fill="#2E3690"/>
<path d="M5352.09 4802.3L5367.41 4791.35L5367.31 4772.47L5351.84 4764.46L5337.25 4774.88L5336.48 4776.37L5336.55 4790.62L5336.56 4790.6L5336.55 4790.76L5336.57 4794.27L5352.09 4802.3Z" fill="#2E3690"/>
<path d="M5373.4 4787L5373.43 4790.68L5388.94 4798.75L5404.25 4787.79L5404.17 4768.9L5388.72 4760.88L5373.33 4771.89L5373.4 4787Z" fill="#135EAB"/>
<path d="M5428.81 4793.07L5428.8 4793.09L5441.08 4784.29L5440.99 4765.37L5425.54 4757.34L5413.31 4766.08L5413.32 4766.1L5410.17 4768.34L5410.19 4771.23L5410.24 4783.52L5410.25 4783.5L5410.26 4787.17L5425.82 4795.22L5427.48 4794.03L5428.81 4793.07Z" fill="#2E3690"/>
<path d="M5422.25 4683.75L5422.16 4664.82L5418.35 4662.83C5410.25 4671.1 5402.4 4679.73 5394.97 4688.54L5406.9 4694.74L5422.25 4683.75Z" fill="#282560"/>
<path d="M5440.55 4641.56C5434.53 4646.99 5428.85 4652.34 5423.29 4657.86L5425.21 4658.87L5440.56 4647.86L5440.55 4641.56Z" fill="#282560"/>
<path d="M5448.16 4919.82L5463.76 4927.9L5477.28 4918.21C5471.21 4908.11 5465.47 4899.11 5460.57 4892.09L5448.07 4901.03L5448.16 4919.82Z" fill="#2E3690"/>
<path d="M5457.17 4886.97C5453.84 4880.78 5453.3 4872.8 5455.52 4863.24L5444.86 4857.69L5429.46 4868.7L5429.54 4887.46L5445.15 4895.57L5457.17 4886.97Z" fill="#2E3690"/>
<path d="M5457.4 4856.68C5459.98 4848.99 5463.66 4841.95 5466.34 4837.3C5467.55 4835.36 5468.69 4833.49 5469.83 4831.62L5470.03 4831.28C5470.93 4829.82 5471.81 4828.34 5472.68 4826.85L5463.12 4821.89L5447.8 4832.84L5447.89 4851.73L5457.4 4856.68Z" fill="#2E3690"/>
<path d="M5447.57 4783.61L5458.16 4789.09L5463.06 4791.63L5475.28 4782.89L5475.26 4782.88L5475.24 4782.88L5478.41 4780.64L5478.43 4780.63L5478.33 4761.73L5462.88 4753.68L5447.5 4764.68L5447.57 4778.75L5447.57 4783.61Z" fill="#2E3690"/>
<path d="M5484.43 4780.07L5494.78 4785.45C5499.62 4775.22 5504.1 4764.85 5508.09 4754.52L5499.67 4750.16L5484.32 4761.15L5484.43 4780.07Z" fill="#2E3690"/>
<path d="M5444.24 4721.4L5428.93 4732.36L5429.02 4751.28L5444.49 4759.29L5459.85 4748.31L5459.73 4729.36L5444.24 4721.4Z" fill="#2E3690"/>
<path d="M5465.79 4733.05L5465.87 4747.73L5481.31 4755.76L5496.67 4744.79L5496.58 4728.01L5496.55 4727.24L5496.58 4727.22L5496.56 4725.85L5481.14 4717.83L5472.08 4724.29L5465.78 4728.79L5465.79 4733.05Z" fill="#272361"/>
<path d="M5497.46 4745.39L5497.52 4745.35L5497.46 4745.39Z" fill="#282560"/>
<path d="M5464.93 4748.36L5464.93 4748.41L5464.93 4748.36Z" fill="#2E3690"/>
<path d="M5460.1 4816.5L5460.02 4797.6L5444.57 4789.56L5429.18 4800.58L5429.27 4819.51L5444.71 4827.51L5460.1 4816.5Z" fill="#135EAB"/>
<path d="M5466.05 4802.39L5466.1 4812.21L5466.11 4812.19L5466.12 4815.86L5476.1 4821.03C5481.72 4811.28 5487.03 4801.36 5491.87 4791.47L5491.42 4791.25L5481.38 4786.04L5466.01 4797.02L5466.05 4802.39Z" fill="#2E3690"/>
<path d="M5478.01 4693.51L5466.58 4687.56L5462.59 4685.48L5447.17 4696.5L5447.25 4715.31L5450.62 4716.82L5450.36 4717L5462.73 4723.43L5478.1 4712.45L5478.01 4693.51Z" fill="#282560"/>
<path d="M5484.09 4708.5L5484.11 4711.88L5499.58 4719.89L5514.9 4708.91L5514.82 4689.95L5499.39 4681.96L5487.16 4690.72L5487.2 4690.73L5487.19 4690.75L5487.01 4690.86L5484.03 4692.97L5484.09 4708.5Z" fill="#282560"/>
<path d="M5444.05 4653.13L5428.67 4664.13L5428.76 4683.07L5444.21 4691.07L5459.61 4680.06L5459.51 4661.16L5444.05 4653.13Z" fill="#282560"/>
<path d="M5465.52 4660.58L5465.61 4679.52L5473.26 4683.5L5475.8 4684.84L5481.03 4687.54L5496.28 4676.64L5496.27 4676.62L5496.41 4676.54L5496.35 4661.38L5496.33 4661.38L5496.32 4660.61L5496.32 4657.6L5480.89 4649.6L5465.52 4660.58Z" fill="#2E3690"/>
<path d="M5502.66 4740.5L5502.68 4742.13L5502.67 4742.82L5502.67 4743.22L5502.66 4744.21L5510.45 4748.25C5514.41 4737.55 5517.94 4726.67 5520.97 4715.89L5517.91 4714.3L5514.95 4716.44L5514.96 4716.42L5502.59 4725.28L5502.66 4740.5Z" fill="#282560"/>
<path d="M5522.79 4709.3C5525.01 4700.86 5526.95 4692.35 5528.58 4683.89L5520.84 4689.4L5520.91 4704.65L5520.93 4704.63L5520.92 4704.9L5520.91 4708.33L5522.79 4709.3Z" fill="#282560"/>
<path d="M5519.09 4683.11L5520.76 4681.91L5520.77 4681.93L5530.15 4675.21C5531.34 4668.16 5532.34 4661.04 5533.12 4654.07L5517.7 4646.04L5502.34 4657.05L5502.44 4676.01L5511.59 4680.77L5517.85 4684L5519.09 4683.11Z" fill="#282560"/>
<path d="M5532.82 4604.53L5532.79 4599.08C5532.02 4596.69 5531.08 4594.49 5530 4592.52C5528.33 4592.31 5525.2 4592.06 5520.8 4592.46C5514.76 4593.01 5508.41 4594.55 5501.92 4597.02L5501.97 4607.54L5512.83 4613.17L5517.42 4615.54L5532.82 4604.53Z" fill="#282560"/>
<path d="M5472.08 4614.71L5480.52 4619.11L5495.95 4608.08L5495.9 4599.57C5487.96 4603.29 5479.97 4608.38 5472.08 4614.71Z" fill="#282560"/>
<path d="M5533.86 4646.8C5534.64 4638.16 5535.13 4629.47 5535.29 4620.98L5535.3 4620.76C5535.32 4620.67 5535.68 4616.33 5535.1 4610.45L5520.38 4620.95L5520.47 4639.84L5526.19 4642.81L5533.86 4646.8Z" fill="#282560"/>
<path d="M5514.42 4631.64L5514.37 4621.53L5504.46 4616.4L5498.92 4613.53L5483.52 4624.54L5483.62 4643.44L5499.08 4651.47L5510.49 4643.3L5514.46 4640.47L5514.42 4631.64Z" fill="#282560"/>
<path d="M5477.61 4644.02L5477.56 4631.09L5477.53 4625.08L5466.52 4619.34L5463.65 4621.74C5459 4625.62 5453.24 4630.41 5446.76 4636.08L5446.81 4647L5462.26 4655L5477.61 4644.02Z" fill="#282560"/>
</svg>
