<svg width="7627" height="7457" viewBox="0 0 7627 7457" fill="none" xmlns="http://www.w3.org/2000/svg">
<path d="M5463.11 774.312L6796.41 3622.44C6823.92 3681.22 6817.67 3750.26 6780.03 3803.13L4915.28 6423C4878.57 6474.58 4817.45 6503.08 4754.33 6498.05L1553.15 6242.86C1488.65 6237.72 1431.87 6198.36 1404.44 6139.76L67.5532 3284.46C40.0549 3225.73 46.2739 3156.75 83.8333 3103.89L1944.94 484.347C1981.72 432.585 2043.04 404.028 2106.33 409.196L5314.74 671.224C5379.11 676.481 5435.73 715.82 5463.11 774.312Z" stroke="#E0E0E0" stroke-width="40" stroke-linejoin="round"/>
<g clip-path="url(#clip0)">
<path fill-rule="evenodd" clip-rule="evenodd" d="M3316.59 3660.44C3316.59 3660.44 3289.95 3577.71 3304.51 3548.41C3319.09 3519.11 3357.37 3564.18 3363.62 3530.12C3369.88 3496.04 3330.65 3476.83 3345.54 3426.77C3356.87 3388.62 3400.53 3434.32 3413.33 3399.68C3426.12 3365.03 3381.02 3325.23 3387.94 3280.21C3394.84 3235.17 3434.15 3244.81 3440.96 3219.56C3447.91 3193.79 3406.2 3172.36 3432.69 3136.48C3461.55 3097.37 3478.48 3149.51 3505.73 3133.18C3526.21 3120.9 3529.44 3052.73 3575.18 3079.99C3613.56 3102.86 3594.74 3156.91 3602.89 3192.64C3613.14 3237.55 3641.8 3231.29 3632.55 3282.91C3626.28 3317.94 3585.2 3299.26 3576.35 3332.25C3567.51 3365.25 3614.4 3375.45 3597.19 3414.88C3579.97 3454.3 3526 3449.05 3516.42 3477.3C3506.83 3505.56 3551.66 3553.63 3536.26 3589.3C3520.86 3624.97 3477.39 3606.41 3456.84 3638.75C3436.27 3671.1 3485.12 3706.09 3464.33 3738.32C3443.56 3770.55 3362.81 3761.6 3362.81 3761.6L3316.59 3660.44Z" fill="#0081C3"/>
<path fill-rule="evenodd" clip-rule="evenodd" d="M3186.1 3744.61C3186.1 3744.61 3119.53 3657.57 3127.25 3612.01C3134.98 3566.46 3179.33 3595.02 3174.38 3548.61C3169.43 3502.2 3126.25 3505.58 3133.92 3434.85C3141.45 3365.46 3178.17 3400.7 3181.52 3349.56C3184.88 3298.42 3148.31 3299.77 3139.98 3239.26C3131.67 3178.75 3182.77 3174.89 3184.74 3139.35C3186.55 3106.56 3126.5 3095.53 3147.21 3034.43C3169.8 2967.87 3200.58 3006.81 3229.82 2969.7C3251.79 2941.79 3277.57 2866.76 3328.21 2872.02C3379.49 2877.36 3354.99 2944.77 3379.35 2984.41C3409.99 3034.27 3444.96 3008.85 3452.75 3079.03C3458.05 3126.67 3414.11 3129.28 3417.09 3166.76C3420.09 3204.24 3464.68 3205.82 3457.42 3265.65C3450.14 3325.47 3398.86 3343.15 3396.61 3387.42C3394.54 3428.55 3451.44 3466.96 3445.1 3520.99C3438.74 3575.02 3394.47 3582.82 3380.11 3635.86C3365.75 3688.89 3423.33 3698.3 3408.65 3751.32C3393.97 3804.35 3285.26 3842.67 3285.26 3842.67L3186.1 3744.61Z" fill="#2BAAE2"/>
<path fill-rule="evenodd" clip-rule="evenodd" d="M3214.01 3834.34C3214.01 3834.34 3118.8 3811.62 3099.05 3773.53C3079.3 3735.45 3126.9 3715.18 3098.96 3686.16C3071.02 3657.14 3046.41 3694.01 3008 3643.25C2978.73 3604.58 3026.64 3570.31 3001.23 3531.61C2975.81 3492.92 2932.58 3532.72 2895.02 3496.31C2857.46 3459.9 2884.51 3409.47 2864.81 3384.86C2844.71 3359.76 2805.88 3406.64 2785.73 3347.66C2763.76 3283.42 2818.86 3290 2816.75 3241.48C2815.18 3205.01 2754.95 3160.21 2800.94 3111C2839.54 3069.71 2879.72 3128.43 2915.86 3137.87C2961.32 3149.75 2968.99 3105.12 3011.43 3148.76C3040.24 3178.38 3004.18 3226 3029.95 3258.08C3055.71 3290.15 3086.79 3229.25 3114.46 3277.06C3142.15 3324.88 3124.06 3387.61 3145.18 3417.95C3166.3 3448.29 3218.91 3423.87 3244.04 3466.88C3269.18 3509.9 3241.85 3553.57 3261.57 3601.98C3281.28 3650.41 3325.96 3608.76 3345.48 3657.41C3364.99 3706.08 3402.73 3786.08 3319.25 3828.07C3251.42 3862.2 3214.01 3834.34 3214.01 3834.34Z" fill="#0081C3"/>
<path fill-rule="evenodd" clip-rule="evenodd" d="M378.077 3574.32C641.891 2745.16 2086.26 2734.09 2150.76 1930.15C2214.4 1137.05 3123.65 1218.42 3656.2 1544.82C4232.67 1898.14 6256.07 1198.01 6187.35 1770.64C6118.64 2343.29 7080.52 2568.68 7140.86 3444.6C7200.83 4314.85 6365.17 5384.32 6505 5916.4C6605.27 6297.91 4496.04 6091.56 3589.87 6091.56C3016.19 6091.56 1739.85 6290.76 1562.54 5797.94C1184.1 4746.06 71.0697 4539.22 378.077 3574.32Z" fill="#4CC8ED" fill-opacity="0.140875"/>
<path fill-rule="evenodd" clip-rule="evenodd" d="M3858.5 2949.76L2400.05 3705.69C2400.05 3705.69 2218.08 3825.31 2143.59 3938.05C2078.99 4035.81 2035.88 4218.1 2035.88 4218.1C2035.88 4218.1 2405.23 4548.97 2771.35 4568.21C3137.42 4587.39 3565.89 4517.99 3565.89 4517.99L5192.59 3515.97L3858.5 2949.76Z" fill="#4CC8ED" stroke="#4CC8ED" stroke-linecap="round" stroke-linejoin="round"/>
<path fill-rule="evenodd" clip-rule="evenodd" d="M2051.27 4227.35C2094.64 4637.51 2174.96 4867.83 2519.03 5279.86C2519.03 5279.86 2437.87 5298.5 2399.04 5369.14C2360.19 5439.72 2389.51 5584.55 2405.17 5606.07C2420.83 5627.61 2680.31 5514.77 2845.24 5467.6C3010.22 5420.42 3362.61 5326.71 3706.93 5172.14C4150.91 4972.87 4273.19 4907.47 4774.8 4458.15C5145.47 4249.9 5189.5 3518.05 5189.5 3518.05L3753.84 4402.43L3568.46 4504.32C3568.46 4504.32 3093.24 4586 2734.43 4544.33C2375.69 4502.65 2051.27 4227.35 2051.27 4227.35Z" fill="#2BAAE2"/>
<path fill-rule="evenodd" clip-rule="evenodd" d="M4354.88 3008.84L5001.91 2683.41L4984.18 3789.63L4320.42 4222.49L4354.88 3008.84Z" fill="#1172BA"/>
<path fill-rule="evenodd" clip-rule="evenodd" d="M3504.99 2625.98L3489.66 3804.58L4314.81 4225.21L4348.31 3007.24L3504.99 2625.98Z" fill="#2BAAE2"/>
<path fill-rule="evenodd" clip-rule="evenodd" d="M4993.31 3171.74L5002.55 2688.6L4340.88 3011.72V3494.92L4993.31 3171.74Z" fill="#272361"/>
<path fill-rule="evenodd" clip-rule="evenodd" d="M4340.88 3014.82L3503.81 2620.91L3497.66 3137.92L4340.88 3494.92V3014.82Z" fill="#2E3690"/>
<path fill-rule="evenodd" clip-rule="evenodd" d="M2602.15 4270.47C2552.9 4353.54 2639.07 4375.08 2639.07 4375.08C2511.01 4359.1 2179.85 4306.96 2026.65 4211.96C2082.04 3944.24 2162.06 3864.21 2399.04 3704.2L3497.67 3134.83V3796.52C3497.67 3796.52 2651.36 4187.33 2602.15 4270.47Z" fill="#135EAB"/>
<path fill-rule="evenodd" clip-rule="evenodd" d="M2580.57 4261.22L2565.18 4079.62L2746.78 4242.73L3457.66 3799.55V3962.67L2746.78 4408.94L2580.57 4261.22Z" fill="#0081C3"/>
<path fill-rule="evenodd" clip-rule="evenodd" d="M2749.87 4255.08L2562.13 4085.77L3273.01 3670.31L3466.89 3808.8L2749.87 4255.08Z" fill="#4CC8ED"/>
<path fill-rule="evenodd" clip-rule="evenodd" d="M2405.17 5125.98C2116.04 4796.4 2089.5 4674.21 2026.65 4208.86C2514.54 4442.6 3319.23 4428.4 3583.84 4381.21L5190.24 3513.35C5179.08 3669.26 5126.45 3923.46 5067.15 4082.72C3583.84 5030.57 3722.33 5178.29 2405.17 5125.98Z" fill="#2E3690"/>
<path fill-rule="evenodd" clip-rule="evenodd" d="M3448.41 2597.99L4343.98 3017.87L5125.65 2636.24L4233.18 2257.72L3448.41 2597.99Z" fill="#272361"/>
<path fill-rule="evenodd" clip-rule="evenodd" d="M4018.93 2519.66L4008.53 1553.01L4042.4 1502.05C4042.4 1502.05 4106.13 1503.48 4212.39 1502.05C4318.71 1500.6 4356.27 1482.22 4356.27 1482.22L4434.05 1528.38L4453.13 2546.96C4453.13 2546.96 4345.74 2613.65 4230.08 2612.2C4114.42 2610.75 4018.93 2519.66 4018.93 2519.66Z" fill="#2E3690"/>
<path fill-rule="evenodd" clip-rule="evenodd" d="M4442.45 1956.11C4278.48 2048.12 4186.96 2052.4 4011.62 1956.11L4008.63 1519.14C4008.63 1519.14 4009.6 1507.71 4011.62 1500.66C4018.35 1476.83 4042.4 1456.25 4051.59 1451.44C4060.82 1446.58 4045.28 1470.9 4063.92 1477.35C4178.74 1517.27 4252.78 1519.94 4377.8 1472.98C4392.6 1467.42 4414.71 1491.41 4411.67 1482.22C4408.58 1472.98 4431.11 1506.8 4433.2 1509.89C4435.28 1512.99 4436.46 1521.49 4436.46 1521.49L4442.45 1956.11Z" fill="#4CC8ED"/>
<path fill-rule="evenodd" clip-rule="evenodd" d="M4227.09 1509.89C4357.06 1509.89 4420.91 1497.61 4420.91 1497.61C4420.91 1497.61 4357.06 1386.8 4217.58 1386.8C4078.13 1386.8 4023.91 1482.22 4023.91 1482.22C4023.91 1482.22 4084.49 1509.89 4227.09 1509.89Z" fill="#4CC8ED" stroke="#4CC8ED" stroke-linecap="round" stroke-linejoin="round"/>
<path fill-rule="evenodd" clip-rule="evenodd" d="M4217.79 1408.34C4125.58 1403.63 4036.25 1479.12 4036.2 1506.8C4036.2 1534.53 4142.95 1569.89 4217.79 1568.4C4295.42 1566.79 4405.52 1559.16 4405.52 1512.99C4405.52 1493.49 4328.59 1414.04 4217.79 1408.34Z" fill="#272361"/>
<path fill-rule="evenodd" clip-rule="evenodd" d="M4547.08 1316.01C4547.08 1242.92 4604.96 1183.68 4676.35 1183.68C4747.73 1183.68 4805.59 1242.92 4805.59 1316.01C4805.59 1389.1 4747.73 1448.35 4676.35 1448.35C4604.96 1448.35 4547.08 1389.1 4547.08 1316.01Z" fill="#2E3690"/>
<path fill-rule="evenodd" clip-rule="evenodd" d="M4651.73 1079.06C4651.73 949.888 4753.69 845.171 4879.46 845.171C5005.24 845.171 5107.19 949.888 5107.19 1079.06C5107.19 1208.23 5005.24 1312.95 4879.46 1312.95C4753.69 1312.95 4651.73 1208.23 4651.73 1079.06Z" fill="#2E3690"/>
<path fill-rule="evenodd" clip-rule="evenodd" d="M4879.43 959.013C4879.43 794.144 5008.94 660.492 5168.71 660.492C5328.47 660.492 5457.98 794.144 5457.98 959.013C5457.98 1123.88 5328.47 1257.54 5168.71 1257.54C5008.94 1257.54 4879.43 1123.88 4879.43 959.013Z" fill="#2E3690"/>
<path fill-rule="evenodd" clip-rule="evenodd" d="M2754.43 4709.58L2764.69 4782.24L2789.4 4782.6L2793.97 4695.32L2754.43 4709.58Z" fill="#AB7C59"/>
<path fill-rule="evenodd" clip-rule="evenodd" d="M2900.67 4713.28L2907.44 4779.33L2930.59 4778.53L2936.56 4710.9L2900.67 4713.28Z" fill="#AB7C59"/>
<path fill-rule="evenodd" clip-rule="evenodd" d="M2754.32 4772.66C2754.32 4772.66 2732.36 4801.36 2746.33 4826.5L2795.2 4833.65C2795.2 4833.65 2857.09 4849.17 2874.06 4844.06C2891.04 4838.94 2862.53 4818.66 2862.53 4818.66L2819.47 4791.59L2794.67 4773.77L2754.32 4772.66Z" fill="#272361"/>
<path fill-rule="evenodd" clip-rule="evenodd" d="M2898.89 4769.67C2898.89 4769.67 2876.94 4798.37 2890.9 4823.51L2939.78 4830.67C2939.78 4830.67 3001.65 4846.18 3018.64 4841.07C3035.62 4835.94 3007.11 4815.67 3007.11 4815.67L2964.05 4788.6L2939.24 4770.77L2898.89 4769.67Z" fill="#272361"/>
<path fill-rule="evenodd" clip-rule="evenodd" d="M2697.95 3954.01C2697.95 3954.01 2661.36 4615.1 2715.35 4797.65C2715.35 4797.65 2751.64 4803.16 2781.64 4798.23C2811.62 4793.29 2833.1 4781.41 2833.1 4781.41C2854.72 4581.4 2854.47 4135.82 2854.47 4135.82C2854.47 4135.82 2820.86 4608.09 2871.03 4780.41C2871.03 4780.41 2901.45 4786.3 2929.28 4786.55C2957.1 4786.81 2985.65 4772.23 2985.65 4772.23C3022.43 4586.67 2966.15 3955.4 2966.15 3955.4L2697.95 3954.01Z" fill="#2E3690"/>
<path fill-rule="evenodd" clip-rule="evenodd" d="M2872.42 4080.48C2872.42 4080.48 2876.54 4102.29 2867.6 4113.64C2858.65 4125.01 2856.59 4121.58 2855.54 4131.64C2852.22 4163.26 2856.02 4153.48 2857.27 4252.79C2858.51 4352.1 2851.37 4499.81 2847.11 4574.8C2844.94 4613.06 2853.07 4692.04 2862.9 4740.76C2868.11 4766.61 2871.41 4781.01 2871.41 4781.01C2871.41 4781.01 2859.66 4501.55 2866.27 4352.65C2873.05 4199.57 2864.87 4138.06 2864.87 4138.06C2864.87 4138.06 2863.23 4126.12 2870.1 4118.65C2882.2 4105.51 2872.42 4080.48 2872.42 4080.48Z" fill="#272361"/>
<path fill-rule="evenodd" clip-rule="evenodd" d="M2829.4 3436.41C2842.14 3415.82 2805.42 3260.39 2805.42 3260.39C2805.42 3260.39 2857.68 3275.29 2896.54 3271.8C2903.71 3271.15 2904.63 3270.93 2910.91 3268.81C2911.78 3268.52 2921.79 3282.88 2925.77 3296.33C2930.7 3312.97 2930.65 3328.23 2931.4 3326.45C2932.25 3324.36 2931.65 3305.58 2927.09 3288.66C2923.59 3275.64 2913.46 3255.52 2913.46 3255.52L2850.12 3232L2775.22 3266.7C2775.22 3266.7 2772.57 3321.12 2787.93 3423.2C2791.59 3447.52 2728.35 3420.11 2714.4 3465.77C2700.45 3511.44 2728.83 3546.41 2676.31 3542.99C2644.62 3540.92 2789.1 3566.61 2804.96 3562.05C2834.07 3553.69 2816.65 3456.99 2829.4 3436.41Z" fill="#135EAB"/>
<path fill-rule="evenodd" clip-rule="evenodd" d="M2787.63 3423.12C2787.63 3423.12 2790.95 3424.94 2795.61 3426.5C2800.27 3428.05 2806.27 3429.34 2806.27 3429.34L2805.09 3411.6C2805.09 3411.6 2800.69 3410.67 2795.71 3408.95C2790.75 3407.22 2785.22 3404.7 2785.22 3404.7C2785.22 3404.7 2784.53 3410.13 2785.16 3415.04C2785.79 3419.95 2787.63 3423.12 2787.63 3423.12Z" fill="#272361"/>
<path fill-rule="evenodd" clip-rule="evenodd" d="M2801.23 3388.19C2801.23 3388.19 2806.41 3424.01 2804.8 3452.52C2803.2 3481.04 2794.8 3502.26 2794.8 3502.26C2794.8 3502.26 2793.29 3543.5 2818.95 3555.95C2844.6 3568.4 2897.44 3552.05 2897.44 3552.05C2897.44 3552.05 2880.95 3503.24 2881.12 3464.37C2881.28 3425.5 2898.07 3396.58 2898.07 3396.58L2801.23 3388.19Z" fill="#AB7C59"/>
<path fill-rule="evenodd" clip-rule="evenodd" d="M2793.09 3385.84C2793.09 3385.84 2806.41 3424.01 2804.8 3452.52C2803.2 3481.04 2794.8 3502.26 2794.8 3502.26C2794.8 3502.26 2821.69 3477.69 2843.22 3470.95C2864.75 3464.2 2881.81 3453.55 2881.81 3453.55C2881.81 3453.55 2882.47 3441.6 2883.72 3433.79C2889.03 3400.75 2898.07 3396.58 2898.07 3396.58L2793.09 3385.84Z" fill="#896447"/>
<path fill-rule="evenodd" clip-rule="evenodd" d="M2693.07 3991.78C2693.07 3991.78 2687.38 4000.69 2687.37 4009.27C2687.35 4017.85 2692.51 4026.4 2692.51 4026.4C2692.51 4026.4 2758.52 4033.6 2828.17 4034.23C2897.84 4034.85 2971.13 4028.91 2971.13 4028.91C2971.13 4028.91 2974.71 4023.25 2974.21 4014.59C2973.71 4005.92 2970.22 3995.81 2970.22 3995.81L2693.07 3991.78Z" fill="#1172BA"/>
<path fill-rule="evenodd" clip-rule="evenodd" d="M2799.75 3491.14C2799.75 3491.14 2819.54 3516.94 2842.92 3521.63C2870.65 3527.2 2892.12 3500.65 2892.12 3500.65C2892.12 3500.65 2958.24 3506.45 3000 3549.04C3041.77 3591.64 3037.39 3608.53 3049.36 3670.47C3061.33 3732.42 3064.08 3745.15 3062.05 3771.9C3058.61 3817.19 3088.31 3865.34 3085.28 3886.56C3082.06 3909.06 3096.12 3945.9 3071.38 3961.87C3042.62 3980.41 3030.09 3950.72 3021.49 3938.39C3011.92 3924.64 3004.15 3908.02 3004.15 3908.02C3004.15 3908.02 3008.66 3968.6 3016.59 3978.98C3045.5 4016.77 2879.11 4010.8 2833.56 4009.22C2756.16 4006.53 2688.51 4030.16 2660.28 3977.45C2633.79 3927.98 2673.57 3851.76 2673.57 3851.76C2673.57 3851.76 2620.6 3698.08 2650.59 3611.11C2680.56 3524.14 2799.75 3491.14 2799.75 3491.14Z" fill="#2BAAE2"/>
<path fill-rule="evenodd" clip-rule="evenodd" d="M2762.1 3639.88C2771.71 3593.05 2755.76 3558.25 2728.84 3553.95C2700.98 3549.5 2664.89 3547.37 2644.55 3627.14C2624.22 3706.9 2632.41 3853.68 2656.41 3897.52C2669.11 3920.75 2680.87 3936.99 2680.87 3936.99L2724.68 4005.42C2724.68 4005.42 2737.51 4004.17 2750.07 4001.47C2762.63 3998.76 2774.7 3997.2 2774.7 3997.2C2774.7 3997.2 2773.4 3932.39 2761.63 3872.86C2751.51 3821.68 2731.13 3797.65 2726.78 3791.39C2710.16 3767.48 2752.5 3686.7 2762.1 3639.88Z" fill="#1172BA"/>
<path fill-rule="evenodd" clip-rule="evenodd" d="M2767.48 4003.97C2767.48 4003.97 2759.96 3961.76 2745.85 3912.27C2731.74 3862.79 2733.27 3865.2 2722.56 3836.21C2706.49 3792.67 2686.5 3784.45 2703 3733.41C2719.79 3681.48 2713.31 3648.54 2688.22 3636.61C2672.35 3629.09 2652.47 3656.57 2647.41 3708.64C2642.35 3760.7 2656.61 3812.94 2668 3844.88C2679.39 3876.82 2690.71 3893.98 2704.31 3928.16C2727.89 3987.47 2741.54 4010.07 2741.54 4010.07C2741.54 4010.07 2733.59 4106.24 2741.74 4103.47C2749.91 4100.7 2741.33 4075.19 2746.73 4073.44C2752.14 4071.68 2752.81 4116.18 2760.99 4113C2769.18 4109.84 2755.06 4074.14 2759.16 4073.05C2763.27 4071.96 2769.35 4112.09 2777.43 4108.63C2785.51 4105.18 2768.97 4066.24 2773.44 4064.15C2777.91 4062.05 2788.45 4104.12 2795.3 4100.25C2802.16 4096.38 2782 4060.58 2786.31 4050.15C2790.62 4039.73 2811.06 4068.53 2812.53 4058.54C2814.01 4048.57 2767.48 4003.97 2767.48 4003.97Z" fill="#AB7C59"/>
<path fill-rule="evenodd" clip-rule="evenodd" d="M2763.65 3622.65C2773.27 3575.82 2754.77 3545.53 2727.85 3541.22C2699.99 3536.77 2659.15 3545.62 2638.82 3625.37C2618.48 3705.13 2601.45 3831.54 2635.62 3868C2665.72 3900.12 2723.62 4009.41 2723.62 4009.41C2723.62 4009.41 2731.96 3987.83 2744.85 3984.74C2757.73 3981.66 2775.17 3997.06 2775.17 3997.06C2775.17 3997.06 2765.59 3914.06 2758.76 3870.97C2756.13 3854.38 2749.92 3838.18 2743.46 3824.77C2735.49 3808.2 2727.15 3795.91 2724.75 3792.45C2708.13 3768.54 2754.05 3669.47 2763.65 3622.65Z" fill="#2BAAE2"/>
<path fill-rule="evenodd" clip-rule="evenodd" d="M2752.79 3269.57C2738.27 3307.68 2757.11 3335.41 2768.92 3358.59C2773.7 3367.96 2778.77 3386.59 2802.59 3419.67C2816.85 3439.46 2862.66 3456.99 2886.18 3454.77C2916.19 3451.93 2933.49 3383.93 2931.48 3333.71C2930.38 3306.17 2925.05 3279.56 2911.49 3264.13C2900.33 3251.42 2894.27 3235.2 2873.96 3228.46C2829 3213.54 2761.47 3246.79 2752.79 3269.57Z" fill="#AB7C59"/>
<path fill-rule="evenodd" clip-rule="evenodd" d="M2757.09 3372.27C2766.04 3384.28 2790.58 3415.26 2789.32 3402.47C2784.94 3357.79 2812.68 3354.18 2812.68 3354.18C2812.68 3354.18 2802.9 3321.09 2817.94 3294.54C2831.87 3269.92 2852.72 3255.52 2889.99 3259.41C2914.76 3262 2922.86 3284.93 2926.84 3298.37C2931.77 3315.01 2931.72 3330.27 2932.47 3328.49C2933.33 3326.41 2930.87 3292.87 2929.48 3284.19C2928.08 3275.5 2921.91 3254 2912.56 3244.3C2899.9 3231.14 2881.01 3213.74 2855.62 3210.3C2826.2 3206.32 2786.15 3215.11 2759.36 3247.72C2747.97 3261.58 2734.29 3290.24 2735.08 3313.95C2736.13 3345.85 2749.13 3361.57 2757.09 3372.27Z" fill="#135EAB"/>
<path fill-rule="evenodd" clip-rule="evenodd" d="M2980.61 3654.52C2980.61 3654.52 2973.22 3726.99 2975.29 3774.51C2977.36 3822.04 2981.38 3804.45 2989.22 3839.63C2997.04 3874.81 3004.68 3916.57 3004.68 3916.57L3003.83 3906.72C3007.27 3913.73 3014.99 3929.27 3021.79 3939.37C3030.43 3952.2 3046.48 3964.7 3046.48 3964.7C3046.48 3964.7 3027.05 3940.79 3036.32 3941.13C3045.59 3941.49 3058.6 3941.24 3065.63 3934.2C3073.97 3925.86 3078.42 3933.32 3082.38 3941.09C3086.33 3948.87 3070.03 3957.4 3070.03 3957.4L3047.93 3966.36C3047.93 3966.36 3015.59 3934.83 3004.89 3904.92C3004.45 3903.72 3003.97 3907.79 3003.6 3906.59C2995.45 3879.29 2997.17 3875.26 2991.2 3839.1C2985.31 3803.36 2980.73 3820.28 2977.93 3774.22C2975.12 3728.15 2980.61 3654.52 2980.61 3654.52Z" fill="#1172BA"/>
<path fill-rule="evenodd" clip-rule="evenodd" d="M3054.03 3958.38L3051.38 3943.1C3051.38 3943.1 3056.54 3937.61 3063.89 3937.34C3071.25 3937.07 3078.48 3938.79 3078.48 3938.79L3080.14 3953.07C3080.14 3953.07 3127.59 4037.1 3119.01 4038C3110.45 4038.9 3107.57 4012.14 3101.92 4012.8C3096.28 4013.48 3114.29 4054.17 3105.53 4054.72C3096.76 4055.25 3094.67 4016.93 3090.47 4017.64C3086.28 4018.37 3097.56 4057.37 3088.77 4057.61C3079.99 4057.86 3078.71 4015.57 3073.78 4015.54C3068.85 4015.5 3076.88 4058.12 3069.03 4057.47C3061.18 4056.83 3064.51 4015.88 3056.24 4008.21C3047.96 4000.54 3041.43 4035.25 3035.92 4026.8C3030.42 4018.36 3054.03 3958.38 3054.03 3958.38Z" fill="#AB7C59"/>
<path fill-rule="evenodd" clip-rule="evenodd" d="M2840.99 3346.62C2840.44 3342.32 2843.08 3338.68 2846.89 3338.47C2850.7 3338.26 2854.24 3341.56 2854.79 3345.84C2855.34 3350.13 2852.7 3353.78 2848.9 3353.99C2845.08 3354.2 2841.54 3350.9 2840.99 3346.62Z" fill="#272361"/>
<path fill-rule="evenodd" clip-rule="evenodd" d="M2900.49 3343.52C2899.88 3339.24 2902.67 3335.6 2906.72 3335.4C2910.77 3335.21 2914.54 3338.52 2915.15 3342.8C2915.75 3347.1 2912.95 3350.73 2908.9 3350.92C2904.86 3351.13 2901.09 3347.81 2900.49 3343.52Z" fill="#272361"/>
<path fill-rule="evenodd" clip-rule="evenodd" d="M2855.69 3401.91C2854.65 3397.04 2871.85 3402.98 2885.19 3401.95C2898.55 3400.91 2904.84 3398.35 2905.87 3403.21C2906.9 3408.08 2900.21 3418.22 2886.87 3419.26C2873.52 3420.29 2856.71 3406.77 2855.69 3401.91Z" fill="#E0E0E0"/>
<path fill-rule="evenodd" clip-rule="evenodd" d="M2899.93 3311.1L2913.12 3312.09C2915.52 3312.26 2917.37 3313.83 2917.24 3315.59C2917.12 3317.35 2915.07 3318.63 2912.66 3318.45L2899.49 3317.46C2897.08 3317.29 2895.24 3315.71 2895.35 3313.95C2895.48 3312.2 2897.53 3310.91 2899.93 3311.1Z" fill="#272361"/>
<path fill-rule="evenodd" clip-rule="evenodd" d="M2836.43 3310.89L2849.62 3309.85C2852.01 3309.66 2854.08 3310.92 2854.23 3312.69C2854.38 3314.44 2852.54 3316.03 2850.15 3316.21L2836.96 3317.26C2834.56 3317.45 2832.5 3316.17 2832.35 3314.42C2832.2 3312.66 2834.02 3311.08 2836.43 3310.89Z" fill="#272361"/>
<path fill-rule="evenodd" clip-rule="evenodd" d="M2821.66 3346.72C2822.43 3332.99 2834.49 3322.5 2848.58 3323.28C2862.68 3324.08 2873.47 3335.86 2872.7 3349.6C2871.93 3363.34 2859.88 3373.84 2845.78 3373.04C2831.69 3372.24 2820.88 3360.47 2821.66 3346.72Z" stroke="#828282" stroke-width="8.77" stroke-linecap="round" stroke-linejoin="round"/>
<path fill-rule="evenodd" clip-rule="evenodd" d="M2887.68 3344.48C2888.44 3330.98 2900.16 3320.66 2913.86 3321.44C2927.56 3322.21 2938.05 3333.77 2937.29 3347.27C2936.52 3360.77 2924.8 3371.08 2911.1 3370.32C2897.41 3369.54 2886.93 3357.97 2887.68 3344.48Z" stroke="#828282" stroke-width="8.77" stroke-linecap="round" stroke-linejoin="round"/>
<path d="M2873.67 3343.39C2873.67 3343.39 2876.7 3341.83 2879.7 3341.69C2882.7 3341.54 2885.67 3342.81 2885.67 3342.81" stroke="#828282" stroke-width="8.77" stroke-linecap="round" stroke-linejoin="round"/>
<path d="M2936.74 3341.44L2931.41 3341.49" stroke="#828282" stroke-width="7.95" stroke-linejoin="round"/>
<path d="M2820.12 3348.99L2758.39 3354.84" stroke="#828282" stroke-width="8.86" stroke-linecap="round" stroke-linejoin="round"/>
<path fill-rule="evenodd" clip-rule="evenodd" d="M2804.93 3343.75C2795.62 3329.64 2786.32 3326.24 2779.29 3328.6C2772.28 3330.97 2769.98 3337.38 2772.55 3350.93C2774.55 3361.52 2781.39 3373.04 2788.68 3380.4C2794.01 3385.78 2802.64 3381.4 2804.37 3379C2806.1 3376.58 2815.39 3383.99 2816.51 3385.04C2817.63 3386.1 2814.23 3357.86 2804.93 3343.75Z" fill="#AB7C59"/>
<path fill-rule="evenodd" clip-rule="evenodd" d="M2799.02 3490.27C2799.02 3490.27 2824.12 3517.97 2846.37 3521.05C2868.61 3524.13 2888.23 3502.39 2888.23 3502.39C2888.23 3502.39 2893.01 3501.1 2897.04 3501.76C2901.06 3502.43 2904.3 3505.62 2904.3 3505.62C2904.3 3505.62 2878.77 3541.87 2851.68 3540.27C2817.16 3538.23 2782.71 3496.35 2782.71 3496.35C2782.71 3496.35 2785.3 3494.03 2789.4 3491.87C2793.5 3489.72 2799.02 3490.27 2799.02 3490.27Z" fill="#1172BA"/>
<path fill-rule="evenodd" clip-rule="evenodd" d="M3082.7 3941.6C3082.7 3941.6 3073.54 3936.54 3057.29 3945.06C3048.68 3949.56 3046.02 3954.57 3045.63 3958.62C3045.32 3961.75 3045.34 3965.97 3049.68 3965.31C3055.83 3964.38 3050.03 3967.07 3047.6 3966.51C3042.74 3965.42 3037.57 3957.83 3028.58 3948.32C3022.62 3942.01 3005.59 3911.69 3003.75 3906.94C2999.11 3895.01 3039.46 3896.4 3039.46 3896.4C3039.46 3896.4 3059.67 3889.2 3072.67 3892.29C3085.68 3895.36 3082.7 3941.6 3082.7 3941.6Z" fill="#2BAAE2"/>
<path fill-rule="evenodd" clip-rule="evenodd" d="M2484.62 3511.98C2472.61 3529.76 2486.57 3506.76 2471.84 3482.32C2462.89 3467.47 2477.37 3419.93 2464.43 3402.43C2451.49 3384.95 2441.61 3406.4 2441.61 3406.4C2441.61 3406.4 2369.3 3406.75 2376.82 3418.41C2384.32 3430.09 2351.23 3437.3 2344.51 3435.06C2343.58 3434.76 2329.12 3435.77 2324.93 3450.19C2319.74 3468.03 2311.58 3474.55 2310.77 3472.64C2309.84 3470.41 2310.25 3444.84 2310.66 3427.65C2311.07 3410.46 2315.34 3398.39 2315.34 3398.39C2315.34 3398.39 2315.31 3386.39 2330.67 3372.87C2346.04 3359.36 2374.97 3364.37 2374.97 3364.37C2374.97 3364.37 2374.26 3357.61 2406.6 3365.53C2422.02 3369.31 2431.63 3359.61 2431.63 3359.61C2431.63 3359.61 2480.08 3384.79 2487.92 3391.61C2505.21 3406.66 2519.88 3433.41 2539.75 3471.91C2569.03 3528.64 2534.49 3541.16 2558.48 3610.16C2595.01 3715.22 2629.64 3654.9 2637.64 3696.53C2645.63 3738.15 2630.87 3793.45 2588.78 3762.68C2585.4 3760.21 2539.4 3744.74 2534.78 3742.3C2506.69 3727.5 2348.47 3798.39 2287.4 3778.49C2250.77 3766.54 2309.14 3723.87 2290.66 3651.25C2270.87 3573.46 2323.89 3531.63 2310.28 3479.59C2304.53 3457.59 2506.85 3513.6 2505.95 3502.84C2505.2 3493.8 2489.13 3505.33 2484.62 3511.98Z" fill="#272361"/>
<path fill-rule="evenodd" clip-rule="evenodd" d="M2450.22 3538.15C2450.22 3538.15 2444.86 3576.54 2446.72 3607.07C2448.56 3637.62 2457.04 3652.56 2457.04 3652.56C2457.04 3652.56 2464.79 3671.36 2499.67 3678.91C2504.04 3679.86 2509.85 3683.21 2514.8 3685.54C2519.74 3687.88 2540.27 3838.93 2404.98 3856.81C2277.18 3873.71 2254.42 3712.43 2265.61 3708.22C2278.06 3703.54 2325.36 3688.25 2330.46 3685.8C2346.33 3678.19 2359.2 3669.14 2361.11 3666.15C2369.72 3652.67 2365.34 3636.26 2365.19 3620.14C2364.83 3578.5 2346.73 3547.6 2346.73 3547.6L2450.22 3538.15Z" fill="#FDBC8C"/>
<path fill-rule="evenodd" clip-rule="evenodd" d="M2450.22 3538.15C2450.22 3538.15 2444.86 3576.54 2446.72 3607.07C2448.56 3637.62 2457.05 3652.66 2457.05 3652.66C2457.05 3652.66 2428.78 3634.12 2405.73 3626.99C2382.68 3619.86 2364.39 3608.54 2364.39 3608.54C2364.39 3608.54 2363.63 3595.75 2362.25 3587.39C2356.42 3552.02 2346.73 3547.6 2346.73 3547.6L2450.22 3538.15Z" fill="#DFA58B"/>
<path fill-rule="evenodd" clip-rule="evenodd" d="M2487.97 3411.89C2507.88 3437.03 2486.97 3476.65 2484.78 3506.27C2483.95 3517.51 2502.58 3485.69 2507.24 3505.9C2509.72 3516.7 2494.75 3554.55 2482.83 3544.5C2470.91 3534.46 2463.22 3560.96 2451.6 3573.75C2432.14 3595.17 2415.33 3614.13 2381.31 3613.01C2354.82 3612.13 2340.49 3591.29 2326.34 3567.34C2309.82 3539.34 2311.17 3507.62 2312.13 3480.34C2313.15 3450.83 2319.21 3427.49 2333.52 3410.9C2345.3 3397.23 2363.11 3388.54 2384.63 3381.24C2432.27 3365.06 2460.49 3377.19 2487.97 3411.89Z" fill="#FDBC8C"/>
<path fill-rule="evenodd" clip-rule="evenodd" d="M2416.19 3556.86C2416.63 3551.54 2399.19 3560.17 2384.89 3560.87C2370.6 3561.56 2358.01 3557.39 2357.58 3562.71C2357.14 3568.02 2371.14 3580.18 2385.45 3579.49C2399.74 3578.79 2415.75 3562.16 2416.19 3556.86Z" fill="#E0E0E0"/>
<path fill-rule="evenodd" clip-rule="evenodd" d="M2435.81 3465.39L2415.36 3462.67C2411.64 3462.17 2408.18 3463.01 2407.63 3464.54C2407.09 3466.08 2409.66 3467.72 2413.39 3468.21L2433.84 3470.93C2437.55 3471.43 2441.01 3470.6 2441.56 3469.06C2442.11 3467.53 2439.53 3465.89 2435.81 3465.39Z" fill="#272361"/>
<path fill-rule="evenodd" clip-rule="evenodd" d="M2484.62 3511.99C2472.61 3529.76 2491.66 3506.51 2476.93 3482.08C2467.97 3467.22 2467.66 3473.39 2454.74 3455.89C2441.8 3438.4 2436.28 3420.6 2436.28 3420.6C2436.28 3420.6 2401.84 3414.38 2381.26 3433.7C2360.06 3453.61 2339.68 3437.09 2327.69 3456.48C2315.69 3475.85 2309.94 3485.22 2309.94 3485.22C2309.94 3485.22 2298.05 3460.97 2290.36 3432.87C2284.66 3411.99 2285.9 3390.53 2309.35 3364.3C2333.2 3337.61 2386.23 3342.29 2386.23 3342.29C2386.23 3342.29 2367.8 3321.41 2365.55 3295.15C2363.12 3266.76 2382.18 3223.91 2427.14 3231.46C2475.72 3239.62 2476.4 3282.16 2471.02 3303.37C2464.49 3329.17 2445.5 3348 2445.5 3348C2445.5 3348 2490.05 3348.16 2527.48 3377.23C2564.91 3406.31 2598.96 3444.38 2599.11 3529.25C2599.24 3607.9 2745.41 3590.02 2769.41 3659.02C2805.93 3764.09 2683.81 3820.64 2642.22 3869.01C2568.03 3955.28 2632.82 3792.67 2570.62 3759.87C2563.45 3756.09 2555.23 3698.66 2549.55 3694.65C2519.61 3673.52 2529.18 3667.16 2507.88 3634.33C2482.53 3595.26 2531.82 3540.06 2518.19 3488.02C2512.44 3466.02 2506.85 3513.6 2505.95 3502.84C2505.2 3493.8 2489.13 3505.33 2484.62 3511.99Z" fill="#272361"/>
<path fill-rule="evenodd" clip-rule="evenodd" d="M2359.45 3461.87L2338.96 3463.81C2335.23 3464.16 2332.45 3465.66 2332.75 3467.15C2333.06 3468.64 2336.34 3469.56 2340.07 3469.21L2360.56 3467.27C2364.3 3466.92 2367.07 3465.43 2366.76 3463.94C2366.45 3462.44 2363.18 3461.52 2359.45 3461.87Z" fill="#272361"/>
<path fill-rule="evenodd" clip-rule="evenodd" d="M2510.15 4944.92L2499.55 5022.79L2473.13 5023.29L2467.82 4929.83L2510.15 4944.92Z" fill="#FDBC8C"/>
<path fill-rule="evenodd" clip-rule="evenodd" d="M2349.71 4955.23L2346.93 5020.36L2322.17 5019.62L2320.17 4949.64L2349.71 4955.23Z" fill="#FDBC8C"/>
<path fill-rule="evenodd" clip-rule="evenodd" d="M2508.04 5009.37C2508.04 5009.37 2531.63 5040 2516.83 5067L2464.61 5074.9C2464.61 5074.9 2398.53 5091.83 2380.36 5086.42C2362.18 5081.02 2392.57 5059.17 2392.57 5059.17L2438.46 5029.96L2464.91 5010.74L2508.04 5009.37Z" fill="#272361"/>
<path fill-rule="evenodd" clip-rule="evenodd" d="M2476.45 4041.4C2476.45 4041.4 2554.13 4157.68 2558.67 4254.13C2561 4303.59 2559.48 4477.12 2518.91 4571.8C2509.88 4592.89 2514.21 4611.41 2516.34 4635.01C2524.28 4722.91 2529.81 4894.76 2512.93 4952.91C2512.93 4952.91 2497.19 4962.21 2482.6 4962.47C2468.02 4962.75 2461.03 4951.48 2461.03 4951.48C2439.75 4814.85 2431.4 4600.73 2419.96 4459.63C2414.25 4389.42 2407.26 4317.68 2404.74 4300.76C2404.35 4298.18 2399.81 4300 2399.81 4300C2399.81 4300 2411.22 4772.6 2358.42 4957.41C2358.42 4957.41 2346.53 4965.88 2333.16 4966.47C2319.8 4967.06 2309.68 4960.36 2309.68 4960.36C2298.96 4907.42 2281.05 4751.1 2299.53 4624.19C2302.87 4601.24 2297.04 4580.99 2297.04 4580.99C2283.95 4531.08 2253.5 4335.09 2253.75 4262.29C2254.1 4159.8 2328.96 4048.25 2328.96 4048.25L2476.45 4041.4Z" fill="#2E3690"/>
<path d="M2386.24 4094.68C2386.24 4094.68 2376.8 4149.08 2382.2 4202.74C2387.6 4256.39 2400.94 4299.74 2400.94 4299.74" stroke="#135EAB" stroke-width="5" stroke-linejoin="round"/>
<path d="M2381.84 4191.56C2381.84 4191.56 2390.25 4198.11 2397.13 4187.92C2404.01 4177.74 2400.53 4093.03 2400.53 4093.03" stroke="#135EAB" stroke-width="5.01" stroke-linecap="round" stroke-linejoin="round"/>
<path fill-rule="evenodd" clip-rule="evenodd" d="M2404.6 4299.77L2407.91 4326.76C2407.91 4326.76 2409.33 4330.53 2418.71 4436.51C2419.4 4444.29 2422.5 4493.67 2423.04 4501.4C2430.01 4599.14 2421.14 4673.8 2444.66 4817.22C2469.92 4971.37 2466.8 4963.82 2466.8 4963.82C2466.8 4963.82 2442.22 4782.28 2437.19 4622.69C2432 4458.65 2420.7 4377.27 2420.7 4377.27C2420.7 4377.27 2417.54 4349.53 2412.91 4332.97C2408.27 4316.4 2404.6 4299.77 2404.6 4299.77Z" fill="#272361"/>
<path d="M2451.87 4085.74C2451.87 4085.74 2462.13 4104.13 2477.92 4112.19C2493.72 4120.26 2517.18 4117.93 2517.18 4117.93" stroke="#135EAB" stroke-width="5.01" stroke-linecap="round" stroke-linejoin="round"/>
<path d="M2351.68 4089.44C2351.68 4089.44 2344.87 4111.26 2330 4118.61C2315.11 4125.97 2292.22 4118.48 2292.22 4118.48" stroke="#135EAB" stroke-width="5.01" stroke-linecap="round" stroke-linejoin="round"/>
<path fill-rule="evenodd" clip-rule="evenodd" d="M2145.42 3863.3C2144.74 3880.58 2197.17 3926.52 2220.38 3947.6C2245.38 3970.3 2256.62 3938.4 2256.62 3938.4L2216.7 3880.79C2216.7 3880.79 2146.12 3846.02 2145.42 3863.3Z" fill="#2BAAE2"/>
<path fill-rule="evenodd" clip-rule="evenodd" d="M2056.93 3757.9C2056.93 3757.9 2062.04 3764.09 2073.28 3807.41C2084.53 3850.74 2091.77 3913.88 2101.89 3931.19C2106.16 3938.51 2153.48 3879.81 2183.03 3821.33C2211.37 3765.21 2224.98 3755.74 2251.73 3741.02C2278.47 3726.29 2292.13 3744.56 2290.01 3762.43C2287.89 3780.31 2291.72 3820.81 2251.59 3857.59C2232.81 3874.81 2212.76 3897.68 2192.79 3919.66C2152.88 3963.57 2113.22 4003.91 2084.26 3988.47C2040.79 3965.28 2037.24 3825.66 2037.24 3825.66L2030.96 3764.79C2030.96 3764.79 1976.42 3684.45 1984.37 3682.31C1992.32 3680.17 1997.54 3705.79 2002.77 3704.31C2007.99 3702.83 1987.29 3665.86 1995.45 3664.04C2003.61 3662.23 2009.19 3699.23 2013.04 3697.91C2016.9 3696.58 2002.68 3660.28 2010.89 3658.74C2019.11 3657.22 2024.27 3698.19 2028.89 3697.5C2033.53 3696.8 2021.99 3656.49 2029.4 3655.96C2036.83 3655.44 2037.55 3695.8 2046.03 3702.04C2054.5 3708.28 2057.36 3673.54 2063.32 3680.94C2069.29 3688.35 2056.93 3757.9 2056.93 3757.9Z" fill="#FDBC8C"/>
<path fill-rule="evenodd" clip-rule="evenodd" d="M2502.15 3679.79C2502.15 3679.79 2489.34 3777.34 2397.96 3784.31C2280.35 3793.26 2303.24 3695.86 2303.24 3695.86C2303.24 3695.86 2216.87 3706.95 2208.73 3750.96C2200.36 3796.16 2145.22 3831.93 2145.43 3864.06C2145.43 3864.06 2181.15 3880.76 2194 3891.63C2212.74 3907.45 2231.27 3937.26 2232.03 3953.01C2232.51 3962.98 2261.08 3943.43 2261.08 3943.43C2261.08 3943.43 2284.75 4044.41 2332.82 4082.06C2358.63 4102.27 2459.34 4098.69 2482.92 4071.49C2512.67 4037.19 2533.15 3986.5 2543.23 3934.64C2553.32 3882.79 2540.31 3897.23 2541.89 3896.07C2543.67 3894.77 2548.69 3917.19 2559.15 3916.25C2600.17 3912.57 2684.89 3910.14 2683.18 3874.46C2680.49 3818.39 2653.29 3810.98 2636.44 3754.84C2618.71 3695.7 2569.17 3693.91 2533.43 3686.61C2511.52 3682.13 2502.15 3679.79 2502.15 3679.79Z" fill="#4CC8ED"/>
<path fill-rule="evenodd" clip-rule="evenodd" d="M2476.09 4019.83C2476.64 4021.07 2512.82 4014.65 2549.92 4015.07C2587.02 4015.48 2612.06 4017.63 2620.26 4017.94C2631.67 4018.35 2625.68 4002.87 2623.93 3991.73C2618.89 3959.57 2608.18 3949.74 2603.68 3912.11C2603.68 3912.11 2621.5 3910.28 2636.02 3907.55C2650.55 3904.8 2663.46 3898.62 2663.46 3898.62C2674.75 3918.73 2668.84 3957.82 2672.56 3997.97C2674.94 4023.79 2675.25 4052.85 2656.52 4055.83C2643.12 4057.96 2598.71 4057.81 2558.79 4054.38C2514.51 4050.58 2475.09 4043.33 2475.09 4043.33C2475.09 4043.33 2447.57 4058.03 2426.77 4059.27C2405.95 4060.5 2393.62 4062.4 2393.34 4058.6C2392.9 4052.73 2423.52 4049.32 2425.03 4046.81C2426.44 4044.52 2389.84 4049.93 2389.43 4043.01C2389.01 4036.08 2424.94 4037.68 2425.42 4035.25C2426.03 4032.14 2393.11 4035.32 2393.18 4028.12C2393.21 4023.59 2427.18 4024.54 2427.18 4024.54C2427.18 4024.54 2397.3 4017.83 2397.85 4014.53C2398.76 4009.08 2433.91 4015.97 2436.2 4015.19C2440.14 4013.86 2444.5 4013.99 2445.07 4011.16C2445.76 4007.71 2428.72 4003.1 2429.19 4000.09C2429.94 3995.22 2442.48 3999.06 2454.21 4003.99C2465.93 4008.93 2473.91 4014.96 2476.09 4019.83Z" fill="#FDBC8C"/>
<path fill-rule="evenodd" clip-rule="evenodd" d="M2531.23 3785.39C2531.23 3785.39 2547.76 3820.96 2553.45 3855.53C2559.15 3890.11 2546.07 3921.09 2546.07 3921.09L2533.26 3977.44C2533.26 3977.44 2522.68 3916.37 2524.88 3883.44C2527.43 3845.24 2531.23 3785.39 2531.23 3785.39Z" fill="#2BAAE2"/>
<path fill-rule="evenodd" clip-rule="evenodd" d="M2359.31 3497.73C2362.79 3495.1 2359.74 3491.34 2352.52 3489.31C2345.3 3487.28 2336.64 3487.77 2333.16 3490.39C2329.69 3493.01 2332.73 3496.78 2339.95 3498.81C2347.17 3500.84 2355.84 3500.35 2359.31 3497.73Z" fill="#272361"/>
<path fill-rule="evenodd" clip-rule="evenodd" d="M2408.45 3498.86C2404.98 3496.25 2408.01 3492.48 2415.23 3490.45C2422.45 3488.42 2431.13 3488.91 2434.6 3491.53C2438.07 3494.16 2435.03 3497.92 2427.81 3499.95C2420.59 3501.97 2411.93 3501.48 2408.45 3498.86Z" fill="#272361"/>
<path fill-rule="evenodd" clip-rule="evenodd" d="M3707.19 4570.84L3701.31 4659.16L3674.82 4664.05L3659.21 4571.41L3707.19 4570.84Z" fill="#FDBC8C"/>
<path fill-rule="evenodd" clip-rule="evenodd" d="M3556.58 4580.76L3553.18 4657.68L3524.92 4663.24L3511.56 4578.72L3556.58 4580.76Z" fill="#FDBC8C"/>
<path fill-rule="evenodd" clip-rule="evenodd" d="M3702.14 4652.07C3702.14 4652.07 3724.07 4666.77 3709.28 4696.72L3664.43 4702.62C3664.43 4702.62 3606.54 4712.92 3587.33 4711.29C3576.74 4710.39 3577.68 4688.76 3589.62 4683.91C3604.66 4677.79 3613.53 4679.13 3633.83 4670C3654.12 4660.88 3673.47 4655.43 3673.47 4655.43C3673.47 4655.43 3681.76 4659.46 3689.67 4658.33C3697.57 4657.2 3702.14 4652.07 3702.14 4652.07Z" fill="#272361"/>
<path fill-rule="evenodd" clip-rule="evenodd" d="M3553.67 4650.46C3553.67 4650.46 3577.45 4667.32 3563.37 4693.71L3512.64 4704.47C3512.64 4704.47 3460.72 4713.96 3440.9 4715.88C3425.69 4717.35 3426.9 4691.65 3438.88 4686.76C3450.87 4681.86 3468.01 4677.29 3482.13 4670.21C3495.9 4663.3 3523.61 4656.17 3523.61 4656.17C3523.61 4656.17 3532.78 4661.03 3542.79 4657.83C3550.11 4655.48 3553.67 4650.46 3553.67 4650.46Z" fill="#272361"/>
<path fill-rule="evenodd" clip-rule="evenodd" d="M3729.01 3819.89C3729.01 3819.89 3727.25 3928.4 3721.92 4065.09C3719.95 4115.4 3712.2 4168.9 3710.51 4223.31C3708.09 4300.47 3714.93 4397.34 3713.59 4433.77C3712.25 4470.22 3722.73 4552.41 3712.26 4590.12C3712.26 4590.12 3697.2 4596.76 3683.01 4597.2C3668.82 4597.63 3655.5 4591.85 3655.5 4591.85C3649.37 4542.85 3648.42 4491.72 3643.23 4427.91C3637.88 4362.09 3630.88 4301.82 3627.24 4238.32C3620.43 4119.15 3592.78 3948.33 3592.78 3948.33C3592.78 3948.33 3583.92 4032.88 3577.84 4113.39C3574.36 4159.46 3571.91 4213.24 3572.82 4268.45C3574.83 4389.59 3583.81 4516.49 3562.01 4596.33C3562.01 4596.33 3549.48 4600.07 3536.49 4600.81C3523.49 4601.55 3509.41 4597.63 3509.41 4597.63C3500.57 4556.66 3501.5 4514.1 3499.24 4431.49C3496.97 4348.86 3500.26 4330.31 3500.33 4267.15C3500.37 4220.09 3493.33 4147.02 3493.51 4101.76C3494.16 3945.72 3500.4 3828.22 3500.4 3828.22L3729.01 3819.89Z" fill="#0081C3"/>
<path fill-rule="evenodd" clip-rule="evenodd" d="M3574.97 3905.94C3574.97 3905.94 3572.09 3923 3581.59 3934.66C3591.09 3946.32 3592.04 3941.26 3593.31 3951.69C3597.3 3984.53 3597.26 4005.5 3592.32 4097.15C3589.48 4149.77 3574.87 4211.74 3575.95 4252C3576.99 4290.66 3585.4 4341.05 3580.18 4415.47C3569.56 4566.77 3561.22 4597.43 3561.22 4597.43C3561.22 4597.43 3569.34 4348.53 3562.48 4263.25C3558.63 4215.45 3570.93 4163.35 3576.04 4109.56C3582.4 4042.67 3585.45 3947.83 3585.45 3947.83C3585.45 3947.83 3578.71 3938.98 3576.05 3934.36C3569.19 3922.41 3574.97 3905.94 3574.97 3905.94Z" fill="#1172BA"/>
<path fill-rule="evenodd" clip-rule="evenodd" d="M3395.28 3904.8C3395.28 3904.8 3397.4 3858.13 3405.63 3802.65C3413.87 3747.17 3412.56 3750 3420.02 3717.15C3431.2 3667.82 3442.41 3648.89 3427.85 3592.27C3409.06 3519.14 3422.94 3435.6 3448.36 3419.17C3456.15 3414.12 3483.29 3400.9 3498.29 3427.64C3514.23 3456.08 3517.72 3495.31 3494.76 3535.22C3465.14 3586.69 3483.93 3675.09 3476.15 3711.21C3468.38 3747.34 3462.63 3775.06 3452.78 3813.93C3435.71 3881.36 3424.17 3907.72 3424.17 3907.72C3424.17 3907.72 3446.4 4010.52 3437.19 4008.68C3427.98 4006.85 3433.63 3978.07 3427.54 3976.94C3421.45 3975.81 3427.04 4023.99 3417.75 4021.72C3408.45 4019.46 3418.65 3978.88 3414.06 3978.27C3409.46 3977.68 3408.58 4021.92 3399.37 4019.32C3390.14 4016.73 3402.49 3972.3 3397.36 3970.68C3392.24 3969.05 3386.82 4016.02 3378.86 4012.8C3370.91 4009.59 3387.6 3968.05 3381.47 3957.39C3375.34 3946.74 3357.32 3980.76 3354.33 3970.18C3351.32 3959.61 3395.28 3904.8 3395.28 3904.8Z" fill="#FDBC8C"/>
<path fill-rule="evenodd" clip-rule="evenodd" d="M3635.5 3197.51C3635.5 3197.51 3630.75 3234.86 3632.92 3264.48C3635.08 3294.11 3642.78 3314.4 3642.78 3314.4C3642.78 3314.4 3650.3 3318.87 3660.76 3321.8C3671.23 3324.74 3685.09 3329.68 3685.09 3329.68C3685.09 3329.68 3638.72 3367.48 3592.02 3376.57C3545.31 3385.66 3497.82 3362.49 3497.82 3362.49C3505.25 3357.03 3515.91 3349.66 3526.92 3341.62C3537.93 3333.58 3546.66 3326.25 3548.26 3323.91C3557.03 3311.14 3554.08 3293.73 3553.77 3278.12C3552.91 3237.71 3534.94 3207.92 3534.94 3207.92L3635.5 3197.51Z" fill="#FDBC8C"/>
<path fill-rule="evenodd" clip-rule="evenodd" d="M3635.5 3197.51C3635.5 3197.51 3630.75 3234.86 3632.92 3264.48C3635.08 3294.11 3644.17 3316.03 3644.17 3316.03C3644.17 3316.03 3615.79 3290.95 3593.28 3284.31C3570.78 3277.66 3552.84 3266.88 3552.84 3266.88C3552.84 3266.88 3551.95 3254.48 3550.51 3246.37C3544.41 3212.1 3534.94 3207.92 3534.94 3207.92L3635.5 3197.51Z" fill="#DFA58B"/>
<path fill-rule="evenodd" clip-rule="evenodd" d="M3658.14 3321.04C3658.14 3321.04 3641.06 3360.02 3601.38 3365.7C3567.45 3370.57 3535.33 3336.2 3535.33 3336.2C3535.33 3336.2 3504.86 3341.73 3455.86 3370.18C3411.37 3396 3406.17 3464 3406.17 3464C3406.17 3464 3399.3 3522.13 3408.37 3537.69C3408.37 3537.69 3419.86 3540.95 3436.21 3540.43C3452.58 3539.92 3471.15 3533.43 3471.15 3533.43C3471.15 3533.43 3469.83 3610.56 3465.31 3691.35C3458.15 3819.33 3457.33 3897.66 3457.33 3897.66C3457.33 3897.66 3534.7 3912.19 3592.96 3911.48C3651.23 3910.77 3750.04 3904.56 3750.04 3904.56C3750.04 3904.56 3748.78 3789.81 3753.17 3718.95C3757.55 3648.08 3744.47 3655.06 3755.47 3564.99C3763.68 3497.77 3796.59 3470.81 3796.05 3413.21C3795.51 3356.84 3658.14 3321.04 3658.14 3321.04Z" fill="#135EAB"/>
<path fill-rule="evenodd" clip-rule="evenodd" d="M3658.11 3320.9C3658.11 3320.9 3622.89 3358.21 3593.5 3360.18C3558.24 3362.54 3536.27 3334.63 3536.27 3334.63C3536.27 3334.63 3533.96 3334.4 3531.6 3336.04C3529.56 3337.47 3529.35 3339.74 3529.35 3339.74C3529.35 3339.74 3554.96 3370.39 3591.56 3368.12C3636.4 3365.34 3666.67 3322.77 3666.67 3322.77C3666.67 3322.77 3665.49 3321.4 3662.4 3320.64C3660.08 3320.06 3658.11 3320.9 3658.11 3320.9Z" fill="#2BAAE2"/>
<path fill-rule="evenodd" clip-rule="evenodd" d="M3677.49 3442C3671.16 3396.26 3683.9 3359.23 3711.83 3354.28C3740.71 3349.17 3758.99 3355.43 3797.74 3439.02C3806.25 3457.35 3803.35 3491.76 3804.01 3509.75C3804.22 3515.68 3797.19 3516.63 3797.19 3516.63C3794.68 3517.85 3790.87 3537.57 3767.86 3541.29C3744.86 3545.01 3709.2 3540.24 3709.2 3540.24C3688.04 3523.86 3683.3 3483.97 3677.49 3442Z" fill="#135EAB"/>
<path fill-rule="evenodd" clip-rule="evenodd" d="M3677.01 3933.1C3677.01 3933.1 3684.76 3884.94 3699.87 3828.36C3714.98 3771.79 3713.29 3774.57 3724.91 3741.37C3742.36 3691.52 3764.97 3681.79 3745.22 3624.03C3725.13 3565.27 3699.61 3460.97 3727.93 3446.93C3736.61 3442.63 3778.01 3445.77 3790.4 3475.28C3803.57 3506.67 3804.52 3564.32 3808 3594.79C3814.74 3653.94 3799.51 3713.65 3787.17 3750.2C3774.82 3786.75 3762.26 3806.49 3747.44 3845.65C3721.74 3913.58 3706.65 3939.56 3706.65 3939.56C3706.65 3939.56 3717.52 4048.83 3708.19 4045.83C3698.85 4042.84 3708.12 4013.65 3701.93 4011.76C3695.75 4009.86 3695.84 4060.5 3686.47 4057.05C3677.09 4053.6 3692.49 4012.71 3687.79 4011.55C3683.1 4010.38 3676.95 4056.16 3667.69 4052.38C3658.43 4048.61 3676.5 4003.99 3671.38 4001.69C3666.25 3999.39 3655.07 4047.46 3647.19 4043.19C3639.32 4038.92 3661.56 3997.79 3656.47 3986.02C3651.37 3974.24 3628.65 4007.39 3626.78 3996.07C3624.92 3984.74 3677.01 3933.1 3677.01 3933.1Z" fill="#FDBC8C"/>
<path fill-rule="evenodd" clip-rule="evenodd" d="M3676.34 3447.95C3665.55 3399.42 3684.42 3357.61 3712.43 3353.18C3724.81 3351.22 3746.15 3352.62 3759.71 3363.15C3773.43 3373.8 3790.27 3379.59 3800.22 3422.75C3806 3447.88 3815.26 3523.6 3811.95 3531.16C3811.95 3531.16 3783.59 3536.79 3757.99 3537.76C3732.39 3538.74 3709.53 3535.06 3709.53 3535.06C3691.68 3520.28 3679.7 3463.01 3676.34 3447.95Z" fill="#135EAB"/>
<path fill-rule="evenodd" clip-rule="evenodd" d="M3670.62 3074.49C3690.43 3098.66 3662.17 3156.69 3667.9 3155.24C3673.63 3153.78 3677.26 3135.18 3689.8 3154.79C3700.05 3170.8 3669.21 3209.21 3661.27 3196.22C3653.21 3183.04 3645.52 3224.55 3636.85 3232.1C3615.54 3250.61 3592.85 3265.99 3559.49 3266.45C3498.23 3267.28 3497.19 3194.87 3498.39 3142.61C3499.07 3113.95 3497.14 3087.04 3510.97 3070.75C3522.37 3057.34 3520.33 3050.73 3541.33 3043.37C3587.82 3027.06 3643.3 3041.14 3670.62 3074.49Z" fill="#FDBC8C"/>
<path fill-rule="evenodd" clip-rule="evenodd" d="M3656.16 3189.77C3656.16 3189.77 3642.2 3194.82 3648.85 3179.4C3655.73 3163.44 3661.81 3149.92 3662.32 3138.1C3662.64 3130.68 3663.27 3121.56 3657.62 3119.24C3651.97 3116.9 3638.59 3124.16 3634.45 3115.07C3629.41 3103.99 3645.53 3084.99 3632.55 3073.87C3616.64 3060.26 3593.94 3077.7 3569.87 3077.43C3545.79 3077.15 3526.91 3065.33 3517.95 3067.75C3511.92 3069.38 3506.69 3074.24 3505.12 3083.24C3503.89 3090.23 3505.69 3100.27 3504.61 3108.8C3504.15 3112.38 3500.94 3112.93 3499.57 3115.93C3498.62 3117.97 3499.43 3121.22 3499.08 3123.91C3498.05 3131.54 3499.11 3138.45 3498.55 3137.19C3497.62 3135.04 3498.22 3107.55 3499.93 3094.78C3502.17 3078.1 3507.18 3068.38 3512.25 3059.51C3517.32 3050.64 3530.45 3037.68 3542.92 3032.24C3558.54 3025.43 3575.76 3021.55 3593.13 3022.15C3619.29 3023.06 3634.95 3029.8 3649.64 3037.94C3668.81 3048.59 3676.43 3070.72 3678.96 3084.33C3680.72 3093.79 3675.36 3125.23 3669.51 3151.1C3665.49 3168.82 3656.16 3189.77 3656.16 3189.77Z" fill="#272361"/>
<path fill-rule="evenodd" clip-rule="evenodd" d="M3605.24 3148.13C3605.34 3143.63 3602.22 3140.15 3598.26 3140.34C3594.3 3140.53 3590.99 3144.33 3590.88 3148.81C3590.77 3153.31 3593.89 3156.8 3597.86 3156.6C3601.82 3156.41 3605.13 3152.62 3605.24 3148.13Z" fill="#272361"/>
<path fill-rule="evenodd" clip-rule="evenodd" d="M3538.52 3146.74C3538.63 3142.24 3535.3 3138.81 3531.1 3139.1C3526.9 3139.37 3523.4 3143.26 3523.29 3147.75C3523.19 3152.25 3526.5 3155.68 3530.71 3155.4C3534.92 3155.12 3538.41 3151.24 3538.52 3146.74Z" fill="#272361"/>
<path fill-rule="evenodd" clip-rule="evenodd" d="M3668.98 3148.8C3672.78 3149.21 3649.6 3219.04 3637.62 3230.7C3620.89 3246.99 3615.06 3252.49 3589.69 3261.54C3577.78 3265.79 3554.73 3270.48 3534.68 3262.72C3522.05 3257.82 3517.29 3249.72 3508.69 3232.56C3500.08 3215.41 3500.25 3194.09 3500.25 3194.09C3500.25 3194.09 3501.77 3206.77 3509.43 3209.93C3514.78 3212.13 3518.77 3200.83 3543.49 3199.81C3565.28 3198.9 3565.99 3199.29 3583.65 3202.92C3601.31 3206.57 3608.32 3212.18 3614.15 3214.37C3625.64 3218.67 3646.61 3189.01 3650.9 3176.22C3656.32 3160.11 3668.2 3148.72 3668.98 3148.8Z" fill="#272361"/>
<path fill-rule="evenodd" clip-rule="evenodd" d="M3580.47 3217.31C3579.73 3214.24 3563.04 3221.37 3549.13 3220.53C3535.22 3219.69 3528.38 3216.91 3527.42 3219.11C3526.81 3220.54 3533.17 3233.58 3547.07 3234.42C3560.97 3235.28 3581.44 3221.37 3580.47 3217.31Z" fill="#E0E0E0"/>
<path fill-rule="evenodd" clip-rule="evenodd" d="M3531.8 3116.13L3518.23 3118.46C3515.77 3118.89 3514.02 3120.71 3514.32 3122.52C3514.62 3124.33 3516.87 3125.44 3519.34 3125.02L3532.89 3122.69C3535.36 3122.25 3537.12 3120.44 3536.81 3118.63C3536.51 3116.83 3534.26 3115.71 3531.8 3116.13Z" fill="#272361"/>
<path fill-rule="evenodd" clip-rule="evenodd" d="M3609 3118.88L3595.28 3118.03C3592.77 3117.87 3590.65 3119.22 3590.53 3121.06C3590.4 3122.89 3592.33 3124.5 3594.83 3124.66L3608.56 3125.51C3611.06 3125.67 3613.18 3124.3 3613.3 3122.48C3613.43 3120.65 3611.51 3119.04 3609 3118.88Z" fill="#272361"/>
<path fill-rule="evenodd" clip-rule="evenodd" d="M3495.51 3448.62C3495.51 3448.62 3488.05 3493.15 3486.42 3515.64C3482.86 3564.72 3483.26 3648.74 3483.26 3648.74C3483.26 3648.74 3480.65 3602.05 3480.6 3561.87C3480.56 3521.69 3481.94 3517.58 3487.49 3484.63C3493.05 3451.67 3495.51 3448.62 3495.51 3448.62Z" fill="#2E3690"/>
<path fill-rule="evenodd" clip-rule="evenodd" d="M3565.03 4585.27C3565.75 4585.82 3567.82 4588.13 3567.11 4592.39C3566.41 4596.66 3561.91 4598.31 3561.91 4598.31C3561.91 4598.31 3554.46 4602.06 3534.96 4603.37C3517.04 4604.56 3509.79 4599.52 3509.79 4599.52C3509.79 4599.52 3505.27 4597.49 3504.54 4593.32C3503.83 4589.17 3507.64 4586.48 3507.64 4586.48C3507.64 4586.48 3516.97 4592.07 3534.78 4591.5C3554.53 4590.86 3564.25 4584.69 3565.03 4585.27Z" fill="#1172BA"/>
<path fill-rule="evenodd" clip-rule="evenodd" d="M3714.65 4581.38C3715.37 4581.91 3717.31 4583.07 3716.6 4587.34C3715.91 4591.6 3712.09 4592.99 3712.09 4592.99C3712.09 4592.99 3701.64 4598.22 3683.25 4599.15C3666.22 4600.02 3655.47 4594.36 3655.47 4594.36C3655.47 4594.36 3652.28 4592.64 3651.55 4588.47C3650.83 4584.31 3654.38 4582.53 3654.38 4582.53C3654.38 4582.53 3664 4587.94 3683.4 4587C3702.1 4586.11 3713.88 4580.78 3714.65 4581.38Z" fill="#1172BA"/>
<path fill-rule="evenodd" clip-rule="evenodd" d="M3497.97 3907.4L3497.9 3918.75L3615.54 3911.23L3497.97 3907.4Z" fill="#0081C3"/>
<path fill-rule="evenodd" clip-rule="evenodd" d="M3684.86 3461.71C3684.86 3461.71 3686.98 3474.35 3690.96 3500.97C3698.24 3549.63 3700.34 3535.9 3721.17 3537.36C3721.17 3537.36 3719.8 3546.56 3703.86 3544.24C3695.15 3542.98 3692.06 3521.58 3689.11 3507.65C3686.33 3494.49 3684.86 3461.71 3684.86 3461.71Z" fill="#2E3690"/>
<path fill-rule="evenodd" clip-rule="evenodd" d="M3940.26 3402.39C3952 3417.64 3938.23 3397.81 3950.1 3375.15C3957.32 3361.37 3941.75 3319.64 3952.4 3303.29C3963.04 3286.94 3973.07 3305.59 3973.07 3305.59C3973.07 3305.59 4037.91 3301.96 4031.8 3312.8C4025.71 3323.66 4055.77 3328.3 4061.66 3325.93C4062.47 3325.6 4075.49 3325.73 4080.03 3338.4C4085.66 3354.08 4093.32 3359.46 4093.94 3357.7C4094.66 3355.67 4092.9 3332.81 4091.61 3317.46C4090.3 3302.11 4085.81 3291.54 4085.81 3291.54C4085.81 3291.54 4085.19 3280.8 4070.68 3269.55C4056.16 3258.29 4030.52 3264.37 4030.52 3264.37C4030.52 3264.37 4030.78 3258.27 4002.23 3267.13C3988.61 3271.36 3983.32 3278.08 3983.32 3278.08C3983.32 3278.08 3937.41 3288.36 3930.76 3294.89C3916.07 3309.29 3915.07 3318.44 3913.02 3368.02C3910.97 3417.59 3940.31 3430.18 3922.56 3493.19C3895.54 3589.18 3928.67 3567.47 3932.68 3565.05C3957.04 3550.27 4021.98 3580.31 4075.63 3559.17C4107.81 3546.48 4109.68 3598.95 4117.92 3540.01C4126.17 3481.06 4108.61 3323.39 4108.61 3323.39C4108.61 3323.39 3920.42 3405.04 3920.65 3395.37C3920.83 3387.24 3935.87 3396.67 3940.26 3402.39Z" fill="#272361"/>
<path fill-rule="evenodd" clip-rule="evenodd" d="M3972.53 3423.9C3972.53 3423.9 3979.42 3457.96 3979.42 3485.38C3979.42 3512.79 3972.64 3526.63 3972.64 3526.63C3972.64 3526.63 3965.37 3547.42 3923.27 3554.26C3911.68 3556.15 3959.08 3619.59 4011.28 3621.69C4069.57 3624.04 4126.42 3564.59 4115.8 3563.08C4091.8 3559.66 4062.54 3537.92 4059.35 3533.54C4050.9 3521.96 4053.94 3507.05 4053.19 3492.61C4051.26 3455.35 4065.8 3426.72 4065.8 3426.72L3972.53 3423.9Z" fill="#FDBC8C"/>
<path fill-rule="evenodd" clip-rule="evenodd" d="M3972.53 3423.9C3972.53 3423.9 3979.42 3457.96 3979.42 3485.38C3979.42 3512.79 3972.63 3526.72 3972.63 3526.72C3972.63 3526.72 3996.97 3508.59 4017.23 3500.96C4037.5 3493.33 4053.28 3482.19 4053.28 3482.19C4053.28 3482.19 4053.27 3470.72 4054.04 3463.16C4057.36 3431.2 4065.8 3426.72 4065.8 3426.72L3972.53 3423.9Z" fill="#DFA58B"/>
<path fill-rule="evenodd" clip-rule="evenodd" d="M3931.91 3313.02C3915.31 3336.61 3936.37 3370.9 3939.95 3397.27C3941.32 3407.29 3922.76 3379.84 3919.66 3398.17C3918.01 3407.97 3933.61 3441.01 3943.82 3431.37C3954.02 3421.74 3962.42 3445.02 3973.62 3455.84C3992.35 3473.93 4008.57 3489.98 4039.23 3487.12C4063.09 3484.89 4074.9 3465.46 4086.36 3443.26C4099.74 3417.33 4096.78 3389.03 4094.42 3364.66C4091.88 3338.33 4085.13 3317.78 4071.3 3303.71C4059.91 3292.13 4043.35 3285.33 4023.52 3279.97C3979.62 3268.09 3954.82 3280.49 3931.91 3313.02Z" fill="#FDBC8C"/>
<path fill-rule="evenodd" clip-rule="evenodd" d="M3932.62 3551.5L4020.86 3586.04L4095.52 3556.96C4095.52 3556.96 4119.39 3558.43 4134.79 3563.17C4150.19 3567.92 4164.9 3576.4 4164.9 3576.4C4164.9 3576.4 4149.54 3583.89 4142.27 3607.16C4135 3630.44 4130.03 3646.66 4135.83 3669.48C4146.01 3709.5 4137.9 3721.79 4120.5 3743.56C4106.43 3761.14 4104.38 3836.16 4107.91 3866.26C4110.97 3892.23 4122.74 3915.31 4122.74 3915.31L3951.83 3922.07C3951.83 3922.07 3959.06 3922.14 3962.52 3868.22C3965.98 3814.18 3934.8 3761.81 3920.29 3747.06C3911.67 3738.31 3890.6 3721.97 3894.58 3685.63C3899.39 3641.94 3894.75 3644.29 3888.89 3603.51C3884.62 3573.81 3852.88 3575.74 3852.88 3575.74C3852.88 3575.74 3862.27 3564.33 3880.38 3558.6C3898.48 3552.86 3932.62 3551.5 3932.62 3551.5Z" fill="#135EAB"/>
<path fill-rule="evenodd" clip-rule="evenodd" d="M3932.62 3551.5L4020.86 3586.04L4095.52 3556.96C4095.52 3556.96 4119.39 3558.43 4134.79 3563.17C4150.19 3567.92 4164.9 3576.4 4164.9 3576.4C4164.9 3576.4 4149.54 3583.89 4142.27 3607.16C4135 3630.44 4130.03 3646.66 4135.83 3669.48C4146.01 3709.5 4137.9 3721.79 4120.5 3743.56C4106.43 3761.14 4083.44 3706.35 4083.44 3706.35C4083.44 3706.35 3934.8 3761.81 3920.29 3747.06C3911.67 3738.31 3890.6 3721.97 3894.58 3685.63C3899.39 3641.94 3894.75 3644.29 3888.89 3603.51C3884.62 3573.81 3852.88 3575.74 3852.88 3575.74C3852.88 3575.74 3862.27 3564.33 3880.38 3558.6C3898.48 3552.86 3932.62 3551.5 3932.62 3551.5Z" fill="#135EAB"/>
<path fill-rule="evenodd" clip-rule="evenodd" d="M4068.65 3870.69L4102.86 3867.2C4102.86 3867.2 4103.77 3859.52 4104.28 3831.1C4104.81 3802.69 4109.91 3749.95 4109.91 3749.95C4109.91 3749.95 4117.3 3743.03 4123.49 3733.07C4130.19 3722.32 4132.59 3702.72 4132.59 3702.72C4132.59 3702.72 4125.75 3722.2 4117.8 3731.31C4109.86 3740.43 4099.72 3748.18 4099.72 3748.18C4099.72 3748.18 4093.11 3793.69 4086.56 3822.12C4080.01 3850.56 4068.65 3870.69 4068.65 3870.69Z" fill="#2E3690"/>
<path fill-rule="evenodd" clip-rule="evenodd" d="M4040.69 3770.08C4040.46 3771.28 4007.51 3773.04 3975.16 3780.97C3942.79 3788.91 3921.34 3795.89 3914.22 3797.83C3904.32 3800.51 3906.42 3785.78 3905.68 3775.7C3903.55 3746.61 3909.08 3737.83 3905.36 3704.06C3901.64 3670.3 3902.71 3645.96 3903.09 3622.57C3903.48 3599.18 3882.29 3548.51 3856.69 3569C3831.09 3589.49 3859.51 3755.25 3864.43 3791.06C3867.59 3814.08 3873.23 3839.5 3890.22 3838.29C3902.38 3837.41 3941.19 3828.23 3975.4 3817.1C4013.34 3804.75 4046.35 3790.38 4046.35 3790.38C4046.35 3790.38 4073.4 3797.61 4091.85 3794.44C4110.31 3791.28 4121.47 3790.42 4120.94 3787.04C4120.14 3781.84 4092.67 3785.09 4090.82 3783.22C4089.14 3781.51 4122.23 3778.76 4121.18 3772.63C4120.15 3766.51 4089.04 3775.23 4088.13 3773.21C4086.98 3770.62 4116.4 3766.68 4114.89 3760.41C4113.93 3756.46 4084.42 3764.22 4084.42 3764.22C4084.42 3764.22 4109.18 3752.27 4108.03 3749.5C4106.13 3744.92 4076.79 3758.1 4074.64 3757.9C4070.91 3757.54 4067.12 3758.54 4066.05 3756.19C4064.74 3753.32 4078.7 3745.82 4077.69 3743.3C4076.04 3739.2 4065.85 3745.09 4056.6 3751.79C4047.35 3758.49 4041.6 3765.39 4040.69 3770.08Z" fill="#FDBC8C"/>
<path fill-rule="evenodd" clip-rule="evenodd" d="M3993.08 3386.59C3992.29 3382.07 3994.84 3378.06 3998.79 3377.63C4002.73 3377.21 4006.57 3380.52 4007.36 3385.04C4008.16 3389.57 4005.61 3393.57 4001.67 3394.01C3997.72 3394.43 3993.88 3391.11 3993.08 3386.59Z" fill="#272361"/>
<path fill-rule="evenodd" clip-rule="evenodd" d="M4008.95 3439.18C4007.68 3434.86 4024.62 3439.32 4037.45 3437.72C4050.3 3436.11 4060.81 3430.76 4062.08 3435.08C4063.34 3439.4 4052.85 3451.58 4040.02 3453.18C4027.17 3454.79 4010.21 3443.49 4008.95 3439.18Z" fill="#E0E0E0"/>
<path fill-rule="evenodd" clip-rule="evenodd" d="M3835.53 4142.56C3803.33 4278.43 3789.07 4375.67 3804.73 4403.07C3824.44 4437.57 3879.58 4454.3 3917.62 4460.77C3981.38 4471.6 4052.6 4459.9 4079.76 4449.4C4198.79 4403.41 4240.21 4442.86 4279.88 4431.66C4336.91 4415.54 4295.76 4297.11 4243.41 4132.96C4206.93 4018.6 4108.14 3865.91 4108.14 3865.91C4108.14 3865.91 4072.45 3871.2 4035.68 3872.8C3998.91 3874.4 3961.88 3867.07 3961.88 3867.07C3961.88 3867.07 3856.98 4052.12 3835.53 4142.56Z" fill="#135EAB"/>
<path fill-rule="evenodd" clip-rule="evenodd" d="M4103.17 3866.59L4068.25 3870.48C4068.25 3870.48 4132.2 4019.1 4138.74 4114.22C4145.29 4209.34 4245.03 4351.31 4245.03 4351.31C4245.03 4351.31 4171.4 4266.71 4169.7 4123.64C4167.94 3976.55 4103.17 3866.59 4103.17 3866.59Z" fill="#2E3690"/>
<path fill-rule="evenodd" clip-rule="evenodd" d="M3982.36 3356.54L4003.05 3352.53C4006.8 3351.8 4010.42 3352.55 4011.11 3354.2C4011.79 3355.87 4009.3 3357.8 4005.53 3358.53L3984.86 3362.54C3981.09 3363.27 3977.48 3362.52 3976.8 3360.85C3976.1 3359.2 3978.6 3357.27 3982.36 3356.54Z" fill="#272361"/>
<path fill-rule="evenodd" clip-rule="evenodd" d="M4051.78 3348.38L4071.86 3349.6C4075.51 3349.82 4078.34 3351.37 4078.17 3353.05C4078 3354.74 4074.9 3355.93 4071.24 3355.71L4051.16 3354.5C4047.51 3354.27 4044.68 3352.72 4044.86 3351.04C4045.03 3349.35 4048.12 3348.17 4051.78 3348.38Z" fill="#272361"/>
<path fill-rule="evenodd" clip-rule="evenodd" d="M3947.2 3414.44C3958.95 3429.69 3943.07 3412.29 3949.62 3382.78C3951.23 3375.56 3953.36 3366.94 3964.01 3350.58C3974.64 3334.23 3984.47 3300.73 3984.47 3300.73C3984.47 3300.73 4001.94 3311.35 4021.44 3327.51C4041.52 3344.16 4064.47 3346.08 4076.27 3362.76C4080.14 3368.22 4087.33 3446.34 4084.64 3486.11C4079.72 3558.61 4054.67 3606.14 4054.67 3606.14L4063.86 3604.44C4063.86 3604.44 4067.47 3599.07 4068.12 3597.28C4068.77 3595.48 4071.62 3585.32 4071.62 3585.32L4068.85 3598.07L4065.84 3604.29C4065.84 3604.29 4112.23 3591.97 4134.37 3562.7C4156.5 3533.43 4161.38 3448.42 4161.38 3448.42C4161.38 3448.42 4165.53 3375.07 4146.81 3316.69C4127.29 3255.85 4070.92 3241.01 4038.4 3238.72C4008.56 3236.61 3988.9 3252.07 3977.23 3252.62C3965.56 3253.17 3934.54 3259.17 3915.29 3279.68C3896.03 3300.21 3870.44 3359.04 3874.92 3434.97C3877.98 3486.59 3887.93 3510.63 3906.88 3547.09C3925.82 3583.54 3935.36 3580.54 3939.2 3580.97C3940.73 3581.14 3935.89 3568.73 3935.89 3568.73C3937.52 3568.86 3943.33 3583.14 3944.98 3583.25C3968.15 3584.7 3988.34 3604.05 3988.34 3604.05C3988.34 3604.05 3949.12 3547.51 3939.98 3497.51C3930.82 3447.51 3928.08 3409.66 3928.29 3399.98C3928.47 3391.85 3942.8 3408.72 3947.2 3414.44Z" fill="#2E3690"/>
<path fill-rule="evenodd" clip-rule="evenodd" d="M3992.81 3776.38C3993.04 3777.58 4025.98 3779.35 4058.34 3787.28C4090.71 3795.21 4112.16 3802.19 4119.28 3804.12C4129.18 3806.81 4127.08 3792.09 4127.82 3782.01C4129.95 3752.91 4124.42 3744.14 4128.14 3710.37C4131.85 3676.6 4130.78 3652.26 4130.41 3628.88C4130.02 3605.49 4151.2 3554.82 4176.8 3575.31C4202.42 3595.79 4173.99 3761.56 4169.07 3797.36C4165.9 3820.39 4160.27 3845.81 4143.28 3844.59C4131.11 3843.72 4092.31 3834.53 4058.1 3823.41C4020.15 3811.05 3987.16 3796.69 3987.16 3796.69C3987.16 3796.69 3960.1 3803.91 3941.65 3800.74C3923.19 3797.58 3912.03 3796.72 3912.55 3793.34C3913.36 3788.13 3940.83 3791.39 3942.68 3789.52C3944.36 3787.82 3911.27 3785.07 3912.31 3778.94C3913.35 3772.81 3944.45 3781.54 3945.36 3779.51C3946.52 3776.92 3917.1 3772.98 3918.61 3766.71C3919.58 3762.77 3949.08 3770.53 3949.08 3770.53C3949.08 3770.53 3924.32 3758.57 3925.47 3755.8C3927.37 3751.22 3956.71 3764.41 3958.87 3764.21C3962.58 3763.84 3966.38 3764.84 3967.45 3762.49C3968.76 3759.63 3954.79 3752.12 3955.81 3749.59C3957.47 3745.49 3967.65 3751.41 3976.9 3758.1C3986.15 3764.8 3991.9 3771.69 3992.81 3776.38Z" fill="#FDBC8C"/>
<path fill-rule="evenodd" clip-rule="evenodd" d="M4058.21 3379.33C4059.62 3374.95 4063.74 3372.6 4067.43 3374.05C4071.12 3375.51 4072.97 3380.24 4071.57 3384.61C4070.17 3388.99 4066.04 3391.34 4062.35 3389.89C4058.66 3388.42 4056.81 3383.69 4058.21 3379.33Z" fill="#272361"/>
<path fill-rule="evenodd" clip-rule="evenodd" d="M3207.06 4917.9L3219.92 4995.27L3246.34 4995L3248.93 4901.62L3207.06 4917.9Z" fill="#FDBC8C"/>
<path fill-rule="evenodd" clip-rule="evenodd" d="M3367.71 4923.53L3372.38 4988.42L3397.1 4986.96L3397.08 4917.1L3367.71 4923.53Z" fill="#FDBC8C"/>
<path fill-rule="evenodd" clip-rule="evenodd" d="M3208.57 4985.31C3208.57 4985.31 3185.86 5016.55 3201.46 5043.05L3253.87 5049.42C3253.87 5049.42 3320.4 5064.38 3338.4 5058.46C3356.41 5052.55 3325.42 5031.64 3325.42 5031.64L3278.69 5003.83L3251.73 4985.43L3208.57 4985.31Z" fill="#272361"/>
<path fill-rule="evenodd" clip-rule="evenodd" d="M3362.99 4978.33C3362.99 4978.33 3340.29 5009.57 3355.87 5036.07L3408.28 5042.44C3408.28 5042.44 3474.81 5057.4 3492.82 5051.48C3510.83 5045.57 3479.83 5024.66 3479.83 5024.66L3433.11 4996.85L3406.13 4978.45L3362.99 4978.33Z" fill="#272361"/>
<path fill-rule="evenodd" clip-rule="evenodd" d="M3121.58 4159.95C3121.58 4159.95 3140.2 4744.25 3202.66 4937.91C3202.66 4937.91 3218.65 4946.73 3233.24 4946.57C3247.83 4946.43 3261.03 4937.28 3261.03 4937.28C3278.89 4723 3298.93 4302.16 3298.93 4302.16C3298.93 4302.16 3299.1 4755.11 3357.22 4937.93C3357.22 4937.93 3369.35 4946.03 3382.72 4946.23C3396.1 4946.44 3410.73 4938.75 3410.73 4938.75C3445.17 4739.5 3421.44 4165.19 3421.44 4165.19L3121.58 4159.95Z" fill="#2E3690"/>
<path fill-rule="evenodd" clip-rule="evenodd" d="M3331.5 4243.36C3331.5 4243.36 3327.07 4262.91 3317.82 4275.28C3308.56 4287.66 3300.82 4286.9 3299.97 4297.68C3297.25 4331.56 3299.04 4323.89 3302.95 4429.98C3306.88 4536.08 3298.28 4566.51 3315.67 4722.05C3332.98 4876.98 3360.67 4939.55 3360.67 4939.55C3360.67 4939.55 3314.05 4692.85 3317.21 4533.57C3320.46 4369.8 3310.09 4304.29 3310.09 4304.29C3310.09 4304.29 3312.42 4293.4 3319.57 4285.23C3332.15 4270.87 3331.5 4243.36 3331.5 4243.36Z" fill="#272361"/>
<path fill-rule="evenodd" clip-rule="evenodd" d="M3593.26 3793.61C3593.26 3793.61 3577.19 3825.27 3588.06 3837.08C3598.92 3848.89 3626.73 3837.01 3626.73 3837.01C3626.73 3837.01 3709.07 3792.45 3702.67 3786.2C3696.27 3779.94 3677.22 3800.85 3673.05 3796.66C3668.88 3792.48 3708.92 3769.41 3702.15 3763.34C3695.36 3757.27 3669.71 3788.52 3666.76 3785.22C3663.81 3781.91 3697.33 3755.97 3690.34 3750.13C3683.34 3744.3 3655.91 3779.45 3651.88 3776.31C3647.85 3773.18 3680.99 3742.08 3674.21 3737.6C3667.43 3733.12 3644.56 3770.08 3633.04 3771.31C3621.53 3772.53 3637.92 3738.83 3628.16 3742.47C3618.41 3746.13 3593.26 3793.61 3593.26 3793.61Z" fill="#FDBC8C"/>
<path fill-rule="evenodd" clip-rule="evenodd" d="M3222.47 3504.65C3222.47 3504.65 3228.94 3542.79 3227.97 3573.31C3227 3603.83 3218.6 3626.72 3218.6 3626.72C3218.6 3626.72 3218.05 3670.83 3245.79 3683.46C3273.54 3696.09 3329.57 3677.24 3329.57 3677.24C3329.57 3677.24 3310.67 3625.51 3309.83 3583.97C3308.99 3542.43 3326.19 3511.09 3326.19 3511.09L3222.47 3504.65Z" fill="#FDBC8C"/>
<path fill-rule="evenodd" clip-rule="evenodd" d="M3222.47 3504.65C3222.47 3504.65 3228.94 3542.79 3227.97 3573.31C3227 3603.83 3218.6 3626.72 3218.6 3626.72C3218.6 3626.72 3246.68 3599.77 3269.52 3591.99C3292.34 3584.21 3310.3 3572.38 3310.3 3572.38C3310.3 3572.38 3310.69 3559.61 3311.83 3551.23C3316.63 3515.78 3326.19 3511.09 3326.19 3511.09L3222.47 3504.65Z" fill="#DFA58B"/>
<path fill-rule="evenodd" clip-rule="evenodd" d="M3223.59 3614.71C3223.59 3614.71 3245.41 3641.75 3270.52 3646.16C3300.3 3651.39 3316.77 3631.37 3316.77 3631.37C3316.77 3631.37 3368.06 3655.18 3417.65 3709.16C3467.25 3763.16 3461.19 3892.41 3461.9 3924.47C3462.62 3956.54 3432.76 3914.89 3509.09 3856.7C3551.93 3824.03 3582.74 3797.59 3582.74 3797.59C3582.74 3797.59 3587.51 3815.4 3599.13 3826.72C3610.74 3838.05 3629.2 3842.89 3629.2 3842.89C3629.2 3842.89 3592.82 3927.38 3545.33 3997.27C3503.72 4058.5 3458.23 4065.11 3425.75 4054.09C3356.17 4030.48 3407.8 3937.48 3407.8 3937.48L3431.9 4150.54C3398.26 4208.03 3356.06 4168.28 3273.27 4167.43C3190.49 4166.58 3144.54 4188.17 3100.76 4147.16L3098.2 4003.36C3098.2 4003.36 3037.56 3840.54 3067.33 3746.82C3097.1 3653.1 3223.59 3614.71 3223.59 3614.71Z" fill="#0081C3"/>
<path fill-rule="evenodd" clip-rule="evenodd" d="M3194.63 3757.92C3203.67 3707.63 3183.11 3675.74 3154.23 3671.84C3124.36 3667.81 3080.95 3678.33 3061.31 3764.09C3041.66 3849.85 3025.68 3994.97 3063.16 4033.04C3080.36 4050.52 3140.93 4047.77 3197.79 4043.61C3250.03 4039.81 3302.87 4022.88 3302.87 4022.88C3302.87 4022.88 3282.91 4012.28 3283.39 3997.22C3283.87 3982.18 3305.81 3967.66 3305.81 3967.66C3305.81 3967.66 3291.46 3942.42 3247.64 3939.93C3207.56 3937.65 3162.31 3946.95 3157.5 3940.38C3139.12 3915.27 3185.6 3808.2 3194.63 3757.92Z" fill="#135EAB"/>
<path fill-rule="evenodd" clip-rule="evenodd" d="M3290.31 3979.98C3289.72 3981.42 3245.12 3975.37 3199.85 3977.19C3154.58 3979.02 3124.17 3982.4 3114.17 3983.03C3100.27 3983.92 3106.53 3965.96 3107.91 3953.14C3111.87 3916.09 3127.44 3892.23 3130.38 3848.93C3133.33 3805.63 3120.32 3792.41 3119.67 3779.95C3117.23 3732.96 3083.2 3776.1 3078.58 3776.67C3055.86 3779.5 3050.77 3915.9 3048.97 3962.06C3047.81 3991.72 3049.41 4025.04 3072.48 4027.78C3088.99 4029.74 3143.19 4027.95 3191.7 4022.58C3245.49 4016.61 3293.12 4006.86 3293.12 4006.86C3293.12 4006.86 3327.71 4022.72 3353.21 4023.38C3378.7 4024.05 3393.88 4025.78 3393.97 4021.4C3394.11 4014.66 3356.49 4011.86 3354.46 4009.05C3352.61 4006.47 3397.64 4011.35 3397.68 4003.39C3397.72 3995.44 3353.95 3998.58 3353.21 3995.81C3352.27 3992.27 3392.66 3994.71 3392.09 3986.47C3391.74 3981.28 3350.34 3983.6 3350.34 3983.6C3350.34 3983.6 3386.36 3974.82 3385.46 3971.06C3383.98 3964.83 3341.23 3974.69 3338.7 3973.22C3334.42 3970.72 3328.47 3972.13 3327.59 3968.91C3326.52 3964.99 3346.99 3959.08 3346.22 3955.65C3344.97 3950.1 3329.92 3954.95 3315.94 3961.03C3301.96 3967.11 3292.63 3974.31 3290.31 3979.98Z" fill="#FDBC8C"/>
<path fill-rule="evenodd" clip-rule="evenodd" d="M3188.46 3756.18C3197.5 3705.89 3176.95 3674 3148.07 3670.11C3118.18 3666.08 3074.78 3676.59 3055.13 3762.36C3035.5 3848.12 3020.59 3983.65 3058.07 4021.71C3091.08 4055.25 3298.11 4011.8 3298.11 4011.8C3298.11 4011.8 3282.45 4002.64 3282.93 3987.6C3283.41 3972.55 3300.25 3959.8 3300.25 3959.8C3300.25 3959.8 3285.29 3940.69 3241.46 3938.19C3201.39 3935.92 3156.14 3945.22 3151.32 3938.64C3132.95 3913.54 3179.43 3806.47 3188.46 3756.18Z" fill="#0081C3"/>
<path fill-rule="evenodd" clip-rule="evenodd" d="M3181.2 3379.82C3161.88 3405.48 3184.11 3444.39 3187.18 3473.87C3188.34 3485.06 3168.65 3453.86 3164.56 3474.15C3162.37 3484.99 3178.57 3522.3 3190.26 3511.95C3201.97 3501.59 3213.32 3532.85 3222.56 3540.23C3245.22 3558.34 3269.17 3573.17 3303.45 3572.22C3366.39 3570.48 3363.7 3496.64 3360.24 3443.04C3358.34 3413.63 3351.55 3390.52 3336.65 3374.38C3324.39 3361.09 3306.21 3352.94 3284.33 3346.28C3235.9 3331.5 3207.83 3344.42 3181.2 3379.82Z" fill="#FDBC8C"/>
<path fill-rule="evenodd" clip-rule="evenodd" d="M3192.97 3500.27C3205.5 3517.65 3172.67 3456.33 3197.89 3443.1C3223.12 3429.88 3234.48 3450.13 3243.58 3416.53C3252.68 3382.95 3220.6 3359.3 3220.6 3359.3C3220.6 3359.3 3279.84 3382.53 3321.28 3377.79C3328.93 3376.92 3329.9 3376.65 3336.56 3374.22C3337.47 3373.88 3348.54 3388.98 3353.15 3403.24C3358.86 3420.9 3359.2 3437.2 3359.95 3435.27C3360.82 3433.03 3359.67 3412.97 3354.36 3395.01C3350.28 3381.18 3340.68 3371.67 3342.41 3371.49C3363.24 3369.25 3396.98 3336.97 3386.82 3319.42C3376.66 3301.86 3336.57 3277.62 3303 3300.32C3265.18 3325.88 3247.05 3288.45 3208.32 3297.74C3169.59 3307.02 3161.17 3328.84 3147.76 3373.55C3139.37 3401.52 3160.28 3437.48 3175.67 3464.6C3184.9 3480.82 3188.28 3493.75 3192.97 3500.27Z" fill="#2E3690"/>
<path fill-rule="evenodd" clip-rule="evenodd" d="M3268.95 3459.55C3268.24 3454.98 3270.96 3451.02 3275.04 3450.69C3279.1 3450.36 3282.96 3453.8 3283.67 3458.37C3284.38 3462.93 3281.64 3466.9 3277.58 3467.22C3273.51 3467.55 3269.65 3464.11 3268.95 3459.55Z" fill="#272361"/>
<path fill-rule="evenodd" clip-rule="evenodd" d="M3331.96 3454.7C3331.2 3450.13 3334.09 3446.18 3338.41 3445.86C3342.72 3445.54 3346.84 3448.98 3347.6 3453.55C3348.36 3458.11 3345.47 3462.08 3341.15 3462.4C3336.82 3462.7 3332.71 3459.26 3331.96 3454.7Z" fill="#272361"/>
<path fill-rule="evenodd" clip-rule="evenodd" d="M3281.02 3517.88C3279.79 3512.71 3298.33 3518.61 3312.57 3517.16C3326.8 3515.7 3333.45 3512.79 3334.68 3517.96C3335.92 3523.15 3329.04 3534.16 3314.81 3535.62C3300.56 3537.07 3282.26 3523.07 3281.02 3517.88Z" fill="#E0E0E0"/>
<path fill-rule="evenodd" clip-rule="evenodd" d="M3329.07 3419.86L3343.18 3420.56C3345.75 3420.69 3347.77 3422.33 3347.68 3424.21C3347.6 3426.09 3345.44 3427.51 3342.87 3427.39L3328.75 3426.67C3326.19 3426.54 3324.17 3424.92 3324.25 3423.03C3324.34 3421.15 3326.49 3419.72 3329.07 3419.86Z" fill="#272361"/>
<path fill-rule="evenodd" clip-rule="evenodd" d="M3263.87 3421.96L3277.93 3420.5C3280.48 3420.24 3282.73 3421.53 3282.93 3423.41C3283.14 3425.28 3281.22 3427.02 3278.66 3427.29L3264.61 3428.74C3262.04 3429.01 3259.8 3427.71 3259.6 3425.83C3259.4 3423.96 3261.3 3422.23 3263.87 3421.96Z" fill="#272361"/>
<path fill-rule="evenodd" clip-rule="evenodd" d="M3247.99 3458.01C3248.47 3443.31 3261.07 3431.78 3276.16 3432.26C3291.23 3432.74 3303.08 3445.04 3302.61 3459.74C3302.14 3474.45 3289.54 3485.98 3274.46 3485.49C3259.38 3485.02 3247.52 3472.72 3247.99 3458.01Z" stroke="#828282" stroke-width="8.77" stroke-linecap="round" stroke-linejoin="round"/>
<path fill-rule="evenodd" clip-rule="evenodd" d="M3318.49 3453.88C3318.94 3439.44 3331.2 3428.11 3345.85 3428.57C3360.51 3429.04 3372.02 3441.12 3371.57 3455.56C3371.11 3470.02 3358.85 3481.34 3344.19 3480.88C3329.53 3480.42 3318.03 3468.32 3318.49 3453.88Z" stroke="#828282" stroke-width="8.77" stroke-linecap="round" stroke-linejoin="round"/>
<path d="M3303.49 3453.09C3303.49 3453.09 3306.69 3451.34 3309.89 3451.11C3313.09 3450.87 3316.29 3452.16 3316.29 3452.16" stroke="#828282" stroke-width="8.77" stroke-linecap="round" stroke-linejoin="round"/>
<path d="M3370.83 3449.35L3360.4 3449.55" stroke="#828282" stroke-width="7.95" stroke-linejoin="round"/>
<path d="M3245.35 3460.37L3179.56 3468.25" stroke="#828282" stroke-width="8.86" stroke-linecap="round" stroke-linejoin="round"/>
<path fill-rule="evenodd" clip-rule="evenodd" d="M5591.29 3175.09C5591.29 3175.09 5490.34 3172.25 5488.99 3062.07C5487.68 2953.65 5591.75 2947.95 5591.75 2947.95L5848.03 2949.77C5848.03 2949.77 5958.74 2944.61 5957.26 3069.04C5955.96 3178.12 5841.81 3185.7 5841.81 3185.7L5731.34 3184.92C5720.05 3184.84 5703.58 3192.05 5694.56 3201.01L5608.34 3286.73C5599.66 3295.37 5596.38 3291.86 5601 3278.91L5629.44 3199.27C5633.21 3188.71 5629.1 3179.52 5620.24 3178.74L5591.29 3175.09Z" fill="#4CC8ED"/>
<path fill-rule="evenodd" clip-rule="evenodd" d="M5811.74 3064.75C5811.74 3048.12 5825.02 3034.64 5841.39 3034.64C5857.77 3034.64 5871.05 3048.12 5871.05 3064.75C5871.05 3081.38 5857.77 3094.85 5841.39 3094.85C5825.02 3094.85 5811.74 3081.38 5811.74 3064.75Z" fill="white"/>
<path fill-rule="evenodd" clip-rule="evenodd" d="M5697.66 3064.75C5697.66 3048.12 5710.94 3034.64 5727.31 3034.64C5743.7 3034.64 5756.97 3048.12 5756.97 3064.75C5756.97 3081.38 5743.7 3094.85 5727.31 3094.85C5710.94 3094.85 5697.66 3081.38 5697.66 3064.75Z" fill="white"/>
<path fill-rule="evenodd" clip-rule="evenodd" d="M5582.13 3064.75C5582.13 3048.12 5595.41 3034.64 5611.79 3034.64C5628.16 3034.64 5641.44 3048.12 5641.44 3064.75C5641.44 3081.38 5628.16 3094.85 5611.79 3094.85C5595.41 3094.85 5582.13 3081.38 5582.13 3064.75Z" fill="white"/>
<path fill-rule="evenodd" clip-rule="evenodd" d="M4275.02 2499.21L4305.55 2641.82L3828.35 2704.06L4275.02 2499.21Z" fill="#0081C3"/>
<path fill-rule="evenodd" clip-rule="evenodd" d="M4264.53 2442.94L4283.65 2533.39L3983.37 2630.49L4264.53 2442.94Z" fill="#1172BA"/>
<path fill-rule="evenodd" clip-rule="evenodd" d="M4193.15 2381.7L4264.86 2443.88L4010.37 2616.32L4339.91 2490.5L4429.08 2545.73L3807.89 2710.08L4193.15 2381.7Z" fill="#2BAAE2"/>
<path fill-rule="evenodd" clip-rule="evenodd" d="M3713.62 6282.37L3362.66 6236.18C3353.66 6235 3343.53 6227.23 3340.06 6218.84L3204.58 5891.8C3201.1 5883.41 3202.77 5870.76 3208.3 5863.55L3423.78 5582.7C3429.3 5575.5 3441.09 5570.61 3450.09 5571.8L3801.05 5617.98C3810.06 5619.16 3820.18 5626.93 3823.65 5635.32L3959.13 5962.36C3962.61 5970.75 3960.94 5983.4 3955.42 5990.61L3739.95 6271.47C3734.41 6278.67 3722.63 6283.55 3713.62 6282.37Z" stroke="#2BAAE2" stroke-opacity="0.138889" stroke-width="15.78" stroke-linecap="round" stroke-linejoin="round"/>
<path fill-rule="evenodd" clip-rule="evenodd" d="M3070.86 4207.65L2808.43 4173.1C2801.69 4172.21 2794.13 4166.41 2791.52 4160.13L2690.22 3915.59C2687.62 3909.31 2688.86 3899.85 2693 3894.46L2854.13 3684.45C2858.26 3679.06 2867.07 3675.4 2873.81 3676.29L3136.25 3710.82C3142.98 3711.71 3150.55 3717.52 3153.15 3723.8L3254.45 3968.35C3257.06 3974.63 3255.82 3984.08 3251.67 3989.48L3090.54 4199.49C3086.41 4204.88 3077.61 4208.52 3070.86 4207.65Z" stroke="#2BAAE2" stroke-opacity="0.138889" stroke-width="15.78" stroke-linecap="round" stroke-linejoin="round"/>
<path fill-rule="evenodd" clip-rule="evenodd" d="M998.708 5203.31L806.437 5094.15C801.501 5091.35 797.467 5084.48 797.426 5078.8L795.817 4857.72C795.776 4852.03 799.709 4845.11 804.603 4842.24L995.265 4730.3C1000.16 4727.42 1008.13 4727.36 1013.06 4730.16L1205.33 4839.32C1210.27 4842.13 1214.3 4848.99 1214.34 4854.67L1215.95 5075.76C1215.99 5081.43 1212.06 5088.37 1207.17 5091.24L1016.5 5203.18C1011.61 5206.05 1003.64 5206.11 998.708 5203.31Z" stroke="#2BAAE2" stroke-opacity="0.138889" stroke-width="15.78" stroke-linecap="round" stroke-linejoin="round"/>
<path fill-rule="evenodd" clip-rule="evenodd" d="M4797.34 3564.81L4382.93 3419.9C4372.29 3416.19 4361.96 3404.2 4359.87 3393.13L4278.15 2961.77C4276.06 2950.7 4281.27 2935.77 4289.81 2928.41L4622.51 2641.97C4631.04 2634.61 4646.59 2631.66 4657.22 2635.39L5071.63 2780.29C5082.27 2784.01 5092.6 2796 5094.7 2807.08L5176.41 3238.42C5178.52 3249.49 5173.29 3264.43 5164.75 3271.78L4832.06 3558.24C4823.52 3565.58 4807.98 3568.53 4797.34 3564.81Z" stroke="#2BAAE2" stroke-opacity="0.138889" stroke-width="15.78" stroke-linecap="round" stroke-linejoin="round"/>
<path opacity="0.196035" fill-rule="evenodd" clip-rule="evenodd" d="M6356.76 3729.9C6273.16 3729.9 6203.71 3784.72 6194.41 3856.29C6186.48 3855 6178.48 3854.11 6170.42 3854.11C6102.24 3854.11 6046.29 3898.82 6046.29 3955.12C6046.29 4007.06 6094.18 4049.75 6156.22 4055.49C6156.22 4055.49 6170.5 4057.08 6175.97 4057.65C6191.58 4059.31 6208.55 4060.96 6226.23 4062.49C6251.91 4064.74 6276.94 4066.54 6300.5 4067.77C6322.54 4068.92 6342.72 4069.54 6360.65 4069.54C6405.67 4069.54 6449.06 4067.59 6507.41 4063.63C6514 4063.19 6549.97 4060.68 6559.28 4060.08C6625.83 4055.95 6678.26 4010.01 6678.24 3953.63C6678.26 3912.6 6650.24 3876.32 6607.53 3858.43C6602.98 3820.74 6567.42 3791.9 6524.71 3791.9C6514.62 3791.9 6504.77 3793.61 6495.42 3796.78C6465.74 3755.56 6413.82 3729.9 6356.76 3729.9Z" fill="#2BAAE2" fill-opacity="0.0631313" stroke="#2BAAE2" stroke-width="15.22" stroke-linecap="round" stroke-linejoin="round"/>
<path opacity="0.196035" fill-rule="evenodd" clip-rule="evenodd" d="M3227.67 1880.12C3144.07 1880.12 3074.62 1934.93 3065.32 2006.5C3057.39 2005.21 3049.39 2004.32 3041.33 2004.32C2973.15 2004.32 2917.2 2049.03 2917.2 2105.33C2917.2 2157.27 2965.09 2199.95 3027.13 2205.69C3027.13 2205.69 3041.41 2207.29 3046.88 2207.87C3062.49 2209.52 3079.46 2211.17 3097.14 2212.71C3122.82 2214.94 3147.85 2216.74 3171.41 2217.98C3193.45 2219.13 3213.63 2219.76 3231.56 2219.76C3276.58 2219.76 3319.97 2217.8 3378.32 2213.85C3384.91 2213.4 3420.88 2210.9 3430.19 2210.29C3496.74 2206.16 3549.16 2160.23 3549.15 2103.84C3549.16 2062.82 3521.15 2026.53 3478.44 2008.63C3473.89 1970.95 3438.33 1942.12 3395.62 1942.12C3385.53 1942.12 3375.68 1943.83 3366.33 1946.99C3336.65 1905.77 3284.73 1880.12 3227.67 1880.12Z" fill="#2BAAE2" fill-opacity="0.0631313" stroke="#2BAAE2" stroke-width="15.22" stroke-linecap="round" stroke-linejoin="round"/>
<path opacity="0.196035" fill-rule="evenodd" clip-rule="evenodd" d="M1070.97 3336.52C987.358 3336.52 917.917 3391.33 908.611 3462.9C900.68 3461.61 892.68 3460.73 884.623 3460.73C816.446 3460.73 760.486 3505.44 760.486 3561.73C760.486 3613.68 808.38 3656.36 870.423 3662.1C870.423 3662.1 884.707 3663.7 890.175 3664.28C905.79 3665.92 922.75 3667.57 940.427 3669.12C966.112 3671.35 991.139 3673.15 1014.7 3674.38C1036.74 3675.53 1056.93 3676.16 1074.85 3676.16C1119.87 3676.16 1163.26 3674.21 1221.62 3670.26C1228.2 3669.81 1264.17 3667.31 1273.47 3666.69C1340.04 3662.57 1392.45 3616.63 1392.45 3560.24C1392.45 3519.22 1364.45 3482.93 1321.73 3465.04C1317.18 3427.37 1281.62 3398.52 1238.92 3398.52C1228.82 3398.52 1218.97 3400.24 1209.63 3403.39C1179.94 3362.19 1128.03 3336.52 1070.97 3336.52Z" fill="#2BAAE2" fill-opacity="0.0631313" stroke="#2BAAE2" stroke-width="15.22" stroke-linecap="round" stroke-linejoin="round"/>
<path opacity="0.196035" fill-rule="evenodd" clip-rule="evenodd" d="M4554.24 5179.01C4470.62 5179.01 4401.18 5233.83 4391.88 5305.39C4383.95 5304.1 4375.95 5303.22 4367.9 5303.22C4299.71 5303.22 4243.76 5347.92 4243.76 5404.23C4243.76 5456.16 4291.65 5498.85 4353.69 5504.59C4353.69 5504.59 4367.98 5506.18 4373.44 5506.76C4389.06 5508.41 4406.01 5510.07 4423.7 5511.6C4449.38 5513.84 4474.4 5515.64 4497.98 5516.87C4520.01 5518.03 4540.19 5518.65 4558.12 5518.65C4603.14 5518.65 4646.53 5516.69 4704.89 5512.74C4711.47 5512.3 4747.43 5509.79 4756.74 5509.18C4823.31 5505.06 4875.72 5459.11 4875.72 5402.72C4875.72 5361.71 4847.71 5325.42 4805 5307.52C4800.45 5269.85 4764.88 5241 4722.19 5241C4712.1 5241 4702.24 5242.72 4692.89 5245.89C4663.2 5204.67 4611.29 5179.01 4554.24 5179.01Z" fill="#2BAAE2" fill-opacity="0.0631313" stroke="#2BAAE2" stroke-width="15.22" stroke-linecap="round" stroke-linejoin="round"/>
<path fill-rule="evenodd" clip-rule="evenodd" d="M2764.24 2785.16L2735.33 2728.9L2782.92 2728.58C2811.77 2728.39 2834.82 2705.08 2834.41 2676.5L2832.18 2523.84C2831.67 2489.07 2802.79 2460.88 2767.68 2460.88H2469.91C2439.98 2460.88 2416.32 2484.9 2417.06 2514.53L2420.97 2670.01C2421.77 2702.18 2448.77 2728.42 2481.27 2728.62L2647.15 2730.11L2764.24 2785.16Z" fill="#2BAAE2"/>
<path fill-rule="evenodd" clip-rule="evenodd" d="M2538.26 2633.1C2518.64 2632.98 2502.99 2616.36 2503.33 2595.96L2503.39 2592.99C2503.8 2568.23 2523.45 2548.16 2547.26 2548.16H2611.42C2634.69 2548.16 2653 2567.76 2652.31 2591.93L2652.3 2592.37C2651.66 2614.75 2633.68 2633.03 2612.13 2633.18L2574.52 2633.45C2572.21 2633.46 2568.65 2634.34 2566.57 2635.4L2533.51 2647.76C2528.98 2649.45 2527.67 2647.69 2530.58 2643.83L2538.56 2633.19C2538.59 2633.14 2538.57 2633.1 2538.51 2633.1H2538.26Z" fill="#E0E0E0"/>
<path fill-rule="evenodd" clip-rule="evenodd" d="M2698.37 2581.18V2565.98C2710.7 2564.56 2719.54 2560.02 2724.88 2552.34H2740.92V2627.2H2719.32V2574.22C2714.95 2577.16 2707.97 2579.47 2698.37 2581.18Z" fill="#E0E0E0"/>
<path d="M4330.09 2443.65C4330.09 2443.65 4741.03 2079.58 5234.98 2183.78C5728.93 2287.97 5832.65 2829.69 6245.75 3154.22C6658.85 3478.74 7069.53 3666.08 7031.85 4219.5C6983.37 4931.95 5759.03 4287.06 5491.41 4769.18C5223.78 5251.3 6042.2 5499.67 6042.2 5499.67" stroke="#2BAAE2" stroke-opacity="0.237374" stroke-width="15.22" stroke-linecap="round" stroke-linejoin="round" stroke-dasharray="50 50 50 50"/>
<path fill-rule="evenodd" clip-rule="evenodd" d="M2405.17 5125.98C2116.04 4796.4 2089.5 4674.21 2026.65 4208.86C2514.54 4442.6 3319.23 4428.4 3583.84 4381.21L5190.24 3513.35C5179.08 3669.26 5126.45 3923.46 5067.15 4082.72C3583.84 5030.57 3722.33 5178.29 2405.17 5125.98Z" fill="#2E3690"/>
<path fill-rule="evenodd" clip-rule="evenodd" d="M2412.06 4665.19C2411.48 4660.32 2412.82 4655.4 2415.81 4651.51C2418.79 4647.66 2423.18 4645.2 2427.93 4644.61C2432.75 4644.08 2437.55 4645.47 2441.34 4648.57C2445.14 4651.61 2447.6 4656.1 2448.13 4661.02C2449.68 4674.48 2455.34 4687.09 2464.32 4697.07C2473.35 4707.02 2485.16 4713.85 2498.14 4716.47L2483.33 4589.15C2476.39 4586.59 2470.25 4582.16 2465.55 4576.33C2460.78 4570.57 2457.64 4563.56 2456.46 4556.14C2455.24 4548.71 2455.98 4541.07 2458.66 4534.02C2461.27 4527.01 2465.7 4520.88 2471.48 4516.17C2477.2 4511.53 2484.09 4508.53 2491.4 4507.52C2498.66 4506.5 2506.1 4507.46 2512.93 4510.35C2519.72 4513.29 2525.7 4517.99 2530.14 4523.97C2534.57 4530.01 2537.4 4537.12 2538.26 4544.6C2539.22 4552.5 2537.93 4560.46 2534.57 4567.63C2531.26 4574.73 2525.97 4580.77 2519.45 4584.93L2534.25 4712.3C2546.27 4706.7 2556.26 4697.39 2562.72 4685.59C2569.19 4673.84 2571.81 4660.21 2570.21 4646.8C2569.61 4641.88 2571 4636.98 2573.94 4633.13C2576.94 4629.28 2581.32 4626.77 2586.07 4626.24C2590.88 4625.64 2595.69 4627.09 2599.49 4630.13C2603.28 4633.23 2605.73 4637.67 2606.32 4642.58C2609.42 4669.18 2602.05 4695.9 2585.85 4716.85C2569.67 4737.79 2545.95 4751.25 2519.98 4754.29C2494.02 4757.35 2467.85 4749.65 2447.28 4732.98C2426.71 4716.31 2413.4 4692 2410.3 4665.39L2412.06 4665.19Z" fill="#191919"/>
<path fill-rule="evenodd" clip-rule="evenodd" d="M2430.34 4633.66C2429.81 4628.74 2431.08 4623.83 2433.92 4619.98C2436.8 4616.13 2440.97 4613.67 2445.56 4613.15C2450.22 4612.61 2454.86 4614.05 2458.5 4617.1C2462.17 4620.2 2464.53 4624.69 2465.11 4629.59C2466.66 4643.06 2472.17 4655.68 2480.87 4665.71C2489.59 4675.71 2501.02 4682.54 2513.53 4685.26L2498.72 4557.9C2492.05 4555.34 2486.06 4550.9 2481.52 4545.08C2476.92 4539.26 2473.88 4532.25 2472.71 4524.83C2471.48 4517.35 2472.17 4509.76 2474.68 4502.77C2477.2 4495.71 2481.41 4489.62 2486.97 4484.97C2492.47 4480.32 2499.1 4477.34 2506.15 4476.37C2513.15 4475.35 2520.3 4476.37 2526.87 4479.31C2533.44 4482.24 2539.22 4486.95 2543.55 4492.98C2547.87 4499.02 2550.6 4506.18 2551.45 4513.67C2552.36 4521.51 2551.19 4529.47 2547.98 4536.58C2544.83 4543.74 2539.81 4549.72 2533.5 4553.89L2548.31 4681.21C2559.89 4675.71 2569.46 4666.4 2575.6 4654.66C2581.8 4642.9 2584.26 4629.33 2582.65 4615.92C2582.06 4611.01 2583.35 4606.09 2586.23 4602.25C2589.07 4598.4 2593.28 4595.94 2597.88 4595.41C2602.47 4594.87 2607.12 4596.32 2610.81 4599.41C2614.44 4602.45 2616.84 4606.94 2617.44 4611.86C2620.53 4638.47 2613.53 4665.13 2598.04 4686.02C2582.54 4706.86 2559.73 4720.2 2534.73 4723.14C2509.72 4726.04 2484.46 4718.28 2464.59 4701.52C2444.7 4684.79 2431.78 4660.42 2428.68 4633.82L2430.34 4633.66Z" fill="#4CC8ED"/>
</g>
<defs>
<clipPath id="clip0">
<rect width="7194" height="7457" fill="white" transform="translate(433)"/>
</clipPath>
</defs>
</svg>
