<svg width="3878" height="2856" viewBox="0 0 3878 2856" fill="none" xmlns="http://www.w3.org/2000/svg">
<mask id="mask0" mask-type="alpha" maskUnits="userSpaceOnUse" x="0" y="0" width="3878" height="2856">
<rect width="3878" height="2856" fill="#C4C4C4"/>
</mask>
<g mask="url(#mask0)">
<mask id="mask1" mask-type="alpha" maskUnits="userSpaceOnUse" x="451" y="-301" width="3335" height="2942">
<rect x="451" y="-301" width="3335" height="2942" fill="#C4C4C4"/>
</mask>
<g mask="url(#mask1)">
<path fill-rule="evenodd" clip-rule="evenodd" d="M432.631 283.772L3719.69 270L3727 2649.41L418 2654L432.631 283.772Z" fill="#272361"/>
<g filter="url(#filter0_d)">
<path fill-rule="evenodd" clip-rule="evenodd" d="M2999.99 1063.44C3152.32 977.627 3615 919 3615 919V1467.65C3347.41 1779 2964.6 1896.47 2605.01 2005.5L1844.96 2643.03L422.829 2633.05L418 1585.36C418 1585.36 1067.72 1851.5 1424.5 1851.5C1466.86 1851.5 1520.04 1825.69 1590.27 1791.59C1652.62 1761.33 1728.41 1724.54 1822 1693.5C1834.37 1689.4 1845.79 1685.69 1856.51 1682.21C1933.14 1657.35 1973.87 1644.13 2069.5 1580.7C2092.97 1565.13 2113.03 1549.39 2131.98 1534.53C2177.39 1498.91 2216.43 1468.28 2280.84 1456.87C2320.2 1449.9 2366.44 1456.84 2415.55 1464.21C2476.82 1473.4 2542.56 1483.27 2605.01 1467.65C2717.53 1439.52 2725.07 1434.99 2799.86 1322.43C2824.41 1285.47 2838.12 1254.37 2850.48 1226.35C2876.56 1167.18 2896.63 1121.67 2999.99 1063.44ZM2826.91 1397.34C2820.38 1387.41 2802.29 1413.5 2806.74 1432.68C2811.2 1451.86 2814.81 1467.42 2833.92 1462.98C2848.34 1459.63 2850.49 1436.25 2834.98 1432.07C2825.84 1429.61 2826.93 1421.45 2828.03 1413.13C2828.81 1407.31 2829.59 1401.42 2826.91 1397.34ZM1872.67 1803.84C1867.03 1802.62 1852.2 1793.85 1847.75 1789.86C1846.7 1788.92 1845.59 1787.96 1844.48 1787L1844.47 1787C1834.2 1778.11 1822.86 1768.31 1841 1757.79C1852.88 1750.91 1858.08 1755.47 1863.19 1759.96C1866.72 1763.07 1870.22 1766.14 1875.86 1765.33C1877.77 1765.06 1880.02 1764.08 1882.47 1763.02C1887.72 1760.74 1893.87 1758.08 1899.44 1761.19C1909.8 1766.97 1909.06 1780.83 1903.47 1791.29C1897.89 1801.76 1889.22 1807.42 1872.67 1803.84ZM2893.5 1337C2898.19 1337 2902 1331.63 2902 1325C2902 1318.37 2898.19 1313 2893.5 1313C2888.81 1313 2885 1318.37 2885 1325C2885 1331.63 2888.81 1337 2893.5 1337Z" fill="#2E3690"/>
</g>
<g filter="url(#filter1_d)">
<path fill-rule="evenodd" clip-rule="evenodd" d="M3525.5 952.5C3525.5 952.5 3401.5 810.406 3186 836.5C3089.69 848.162 3057.25 788.709 3023.05 726.028C2997.64 679.462 2971.26 631.115 2917 608.821C2856.52 583.973 2772.02 557.395 2754.5 568.5C2724.11 587.75 2706.91 588.177 2688.45 588.635C2670.04 589.093 2650.37 589.581 2615.11 608.821C2540.39 649.601 2515.58 704.487 2497.68 847.652C2492.52 888.938 2495.1 931.001 2497.79 974.841C2501.45 1034.61 2505.32 1097.67 2490.05 1166.57C2464.99 1279.66 2395.79 1316.98 2343.2 1345.35L2343.2 1345.35C2340.24 1346.95 2337.34 1348.51 2334.5 1350.06C2302.5 1367.52 2274.77 1370.89 2246.52 1374.32C2215.13 1378.14 2183.1 1382.03 2143.87 1405.4C2105.05 1428.52 2093.01 1451.65 2081.35 1474.06C2070.61 1494.69 2060.19 1514.71 2029.49 1533.55C1969.78 1570.21 1900.58 1582.98 1816.29 1598.55C1810.17 1599.68 1803.96 1600.83 1797.67 1602C1766.94 1607.72 1725.74 1643.64 1674.89 1687.96C1600.62 1752.69 1505.79 1835.35 1393 1868C855.475 1916.29 418 1597.06 418 1597.06L427.038 453.463L3068 346.5C3068 346.5 3294.68 416.797 3403 540.352C3524.84 679.323 3525.5 952.5 3525.5 952.5ZM2343.57 915.708C2341.12 920.517 2336.65 923.147 2333.57 921.582C2330.49 920.017 2329.98 914.85 2332.43 910.041C2334.88 905.232 2339.35 902.602 2342.43 904.167C2345.51 905.732 2346.02 910.899 2343.57 915.708ZM2360.57 1289.25C2363.65 1290.81 2368.12 1288.18 2370.57 1283.38C2373.02 1278.57 2372.51 1273.4 2369.43 1271.83C2366.35 1270.27 2361.88 1272.9 2359.43 1277.71C2356.98 1282.52 2357.49 1287.68 2360.57 1289.25Z" fill="#2E3690"/>
</g>
<g filter="url(#filter2_d)">
<path fill-rule="evenodd" clip-rule="evenodd" d="M3459 738C3459 738 3472.84 743.483 3474.67 766.902L3459 738ZM3474.67 766.902L3639.77 1071.5L3615 1746.5L3434.3 2499.93C3137.52 2509.61 3029.96 2373.3 2948.3 1868C2948.3 1868 2530.71 1556.68 2455.5 1668.5C2410.67 1735.15 2405.5 1868 2405.5 1868V2102.01L2271.5 2339.39L1883.54 2652.86L428.385 2654L418 2232.6C418 2232.6 941.692 2133.17 1011.58 2125.08C1054.71 2120.09 1077.39 2142.17 1094.73 2159.06C1105.49 2169.54 1114.2 2178.03 1124.48 2176.79C1138.83 2175.06 1145.04 2159.44 1151.87 2142.24C1157.8 2127.32 1164.2 2111.21 1176.8 2102.01C1191.67 2091.15 1206.64 2094.42 1221.19 2097.6C1233.15 2100.21 1244.83 2102.76 1255.92 2097.33C1268.57 2091.13 1270.09 2079.42 1271.57 2067.97C1272.97 2057.2 1274.33 2046.67 1284.91 2041.21C1296.98 2034.97 1309.77 2041.56 1320.87 2047.28C1329.86 2051.91 1337.74 2055.97 1343.25 2052.2C1348.36 2048.72 1348.77 2040.64 1349.27 2030.88C1349.98 2017.07 1350.86 1999.87 1365.47 1987.5C1377.63 1977.19 1388.42 1975.48 1400.8 1973.52C1413.75 1971.47 1428.44 1969.15 1448.28 1956.4C1467.39 1944.1 1473.97 1935.55 1481.3 1926.01C1488.85 1916.2 1497.2 1905.34 1520.86 1888.28C1535.99 1877.36 1543.75 1868.51 1550.43 1860.88C1564.34 1845.03 1573.56 1834.51 1634.8 1821.85C1675.08 1813.53 1708.47 1817.68 1742.12 1821.86C1784.21 1827.09 1826.69 1832.37 1883.54 1813.34C1942.91 1793.47 1956.6 1769.39 1973.23 1740.12C1985.24 1718.98 1998.79 1695.13 2032.22 1668.22C2111.89 1604.04 2202.27 1556.68 2202.27 1556.68C2202.27 1556.68 2284.88 1501.77 2388.88 1489.99C2492.88 1478.19 2607.21 1510.52 2607.21 1510.52C2607.21 1510.52 2716.31 1553.97 2794.85 1539.17C2873.38 1524.36 2886.98 1515.69 2925.11 1444.86C2947 1404.2 2944.93 1362.89 2942.91 1322.6C2941.41 1292.72 2939.94 1263.4 2948.3 1235.32C2967.93 1169.36 2987.25 1135.03 3042.99 1083.56C3098.76 1032.07 3163.7 999.64 3282.65 983.467C3313.57 979.265 3364.81 970.574 3411 946C3461.48 919.141 3462.73 886.26 3464.09 850.522C3464.69 834.969 3465.3 818.874 3470 802.5C3474.3 787.522 3475.37 775.89 3474.67 766.902ZM3155 1320C3152.31 1329.29 3153.4 1342.83 3154.35 1354.51C3154.93 1361.69 3155.45 1368.17 3155 1372.5C3129 1429.5 3101.4 1429.5 3089 1429.5C3037.5 1429.5 3033.9 1397.94 3049.5 1380C3076.02 1349.5 3069.52 1316.5 3049.5 1300.5C3020.02 1251.5 3063.27 1205.87 3106 1195.5C3150 1184.82 3232 1206.18 3179.71 1282.5C3177.52 1286.6 3174.17 1290.54 3170.58 1294.77C3164.64 1301.75 3158.04 1309.5 3155 1320ZM3004.16 1670.38C3013.64 1673.38 3024.29 1666.42 3027.96 1654.84C3031.63 1643.26 3026.92 1631.43 3017.44 1628.43C3007.96 1625.43 2997.31 1632.39 2993.64 1643.97C2989.97 1655.56 2994.68 1667.38 3004.16 1670.38ZM2265.1 1637.12C2249.79 1644.94 2233.61 1643.9 2228.96 1634.79C2224.31 1625.69 2232.96 1611.98 2248.27 1604.16C2263.59 1596.34 2279.77 1597.38 2284.41 1606.48C2289.06 1615.58 2280.41 1629.3 2265.1 1637.12ZM1477.33 2042.31C1451.02 2059.75 1433.87 2071.11 1453.83 2093.64C1482.5 2126 1522 2132.5 1573.8 2073.55C1605.25 2043.18 1632.82 1961.85 1601.98 1955.77C1562.12 1947.91 1552.69 1962.55 1539.32 1983.28C1532.39 1994.04 1524.39 2006.45 1510.54 2018.2C1499.18 2027.83 1487.56 2035.53 1477.33 2042.31Z" fill="#135EAB"/>
</g>
<g filter="url(#filter3_d)">
<path fill-rule="evenodd" clip-rule="evenodd" d="M3479 772C3473.82 766.111 3470.85 765.549 3464.83 764.406C3458.07 763.122 3447.45 761.107 3425.5 750C3415.4 744.888 3393.23 750.853 3367.08 757.89C3344.95 763.848 3319.95 770.574 3297 772C3184.83 778.971 3074.79 716.926 3041 640.549C3036.85 631.162 3032 618.65 3026.45 604.338L3026.44 604.332C2992.81 517.59 2933.55 364.756 2849 441C2772.91 509.614 2695.13 514.811 2618.5 510.5C2605.81 509.786 2557.9 514.114 2542 528.5C2524.77 544.097 2545.99 570.138 2564.31 592.608C2578.96 610.581 2591.75 626.27 2581.5 632.5C2542.88 655.977 2536.76 669.312 2530.19 683.642C2523.63 697.929 2516.62 713.203 2476.5 740.5C2450.55 758.158 2422.91 766.525 2396.63 774.483C2341.52 791.168 2292.34 806.059 2277 901C2264.69 977.138 2289.05 1022.93 2313.87 1069.61C2334.77 1108.9 2356 1148.82 2356 1208C2356 1300.92 2277 1362.45 2207 1400C2111 1451.5 2011.22 1486.25 1914.5 1504.5C1801.18 1525.89 1731.5 1548 1655.36 1584.24C1653.33 1585.2 1651.36 1586.14 1649.44 1587.05C1595.25 1612.78 1580.62 1619.72 1529.74 1695.26C1501.86 1736.66 1487.53 1770.58 1473.83 1803C1461.64 1831.84 1449.96 1859.48 1429.69 1890.13C1386.63 1955.23 1382.7 1958.49 1355.85 1961.47C1342.77 1962.91 1335.43 1957.97 1328.44 1953.26C1320.63 1948 1313.25 1943.03 1298.77 1947.59C1285.46 1951.79 1278.87 1962.83 1272.6 1973.32C1265.94 1984.47 1259.65 1995 1246.08 1996.04C1233.58 1997 1225.47 1986.53 1217.26 1975.93C1208.19 1964.22 1198.99 1952.34 1183.57 1955.52C1169.52 1958.41 1164.46 1971.38 1159.11 1985.06C1153.28 1999.99 1147.12 2015.77 1128.58 2020.27C1111.48 2024.41 1084.52 2026.1 1054.59 2027.98C1022.31 2030 986.589 2032.24 956.1 2038C897.342 2049.11 830.803 2115.28 830.803 2115.28L701.95 2211.5L418 2261L434.563 457.472L2565.98 339.5L2664.48 339.298H2975L3522.5 599C3522.5 599 3492.64 787.5 3479 772ZM2156.98 865.893C2152.39 879.648 2151.83 895.018 2151.29 909.547C2150.29 936.563 2149.4 960.669 2122.98 966.061C2049.48 981.061 2020.48 907.406 2043.98 835.907C2057.48 758.06 2155.75 714.989 2190.98 758.061C2209.36 780.53 2195.1 801.778 2179.13 825.578C2170.72 838.123 2161.82 851.377 2156.98 865.893ZM2044.31 1442.59C2052.21 1446.91 2063.74 1441.08 2070.05 1429.55C2076.36 1418.02 2075.08 1405.17 2067.17 1400.84C2059.27 1396.51 2047.75 1402.35 2041.43 1413.87C2035.12 1425.4 2036.41 1438.26 2044.31 1442.59ZM2424.86 715.871C2428.83 723.458 2428.07 731.682 2423.18 734.239C2418.28 736.796 2411.1 732.717 2407.14 725.13C2403.17 717.542 2403.93 709.318 2408.82 706.761C2413.72 704.204 2420.9 708.283 2424.86 715.871ZM2059.86 1071.32C2063.41 1069.46 2063.96 1063.49 2061.08 1057.98C2058.21 1052.47 2052.99 1049.5 2049.44 1051.36C2045.88 1053.22 2045.33 1059.19 2048.21 1064.7C2051.09 1070.21 2056.3 1073.17 2059.86 1071.32Z" fill="#135EAB"/>
</g>
<g filter="url(#filter4_d)">
<path fill-rule="evenodd" clip-rule="evenodd" d="M3264.72 1338.63C3325.1 1255.51 3603.36 1256.5 3603.36 1256.5L3583.86 1368C3583.86 1368 3578.71 1330.57 3562.5 1315.5C3536.33 1291.17 3500.03 1289.61 3466 1300.5C3417.59 1315.99 3316 1368 3376.5 1405C3404.03 1421.83 3417.31 1415.04 3436.18 1405.39C3447.98 1399.35 3461.97 1392.19 3483 1389C3500.12 1386.4 3513.43 1393.22 3526 1399.65C3540.69 1407.17 3554.35 1414.16 3571.86 1405C3625.02 1377.19 3517.6 1494.07 3475.51 1531.5C3436.07 1566.57 3385.46 1604.35 3328.86 1642.74C3071.92 1817.02 2691.43 2003.83 2670.93 2007C2664.13 2008.05 2677.32 2039.97 2697.61 2089.08C2766.38 2255.53 2916.74 2619.42 2646.86 2647.94H1765.36H1521.86H1278.36H416.863L424.503 2288.27C424.503 2288.27 622.973 2195.05 799.724 2184.6C896.017 2178.91 950.281 2200.37 999.114 2219.68C1039.92 2235.82 1076.94 2250.46 1131.51 2246.5C1251.41 2237.79 1285.88 2231.71 1360.05 2169.37C1393.87 2140.94 1411.44 2114.44 1428.71 2088.38C1449.32 2057.29 1469.52 2026.8 1516.43 1994.38C1600.28 1936.43 1606.11 1936.12 1697.02 1931.37C1699.61 1931.23 1702.28 1931.09 1705.01 1930.95C1723.74 1929.96 1740.14 1929.52 1756.03 1929.1H1756.04C1799.81 1927.94 1839.8 1926.87 1914.28 1914.65C2015.8 1897.99 2062.36 1887 2111.14 1864.3C2161.68 1840.78 2190.55 1811.59 2222.81 1775.4C2235.44 1761.22 2245.69 1748.88 2254.88 1737.8C2281.2 1706.09 2298.94 1684.72 2339.64 1660.28C2389.73 1630.2 2423.47 1619.8 2481.45 1612.56C2555.53 1603.3 2612.86 1620 2670.93 1637.84C2694.82 1645.18 2720.04 1658.99 2747.01 1673.75C2802.47 1704.12 2865.33 1738.52 2939.16 1729.04L2940 1728.93C3031.47 1717.18 3068.48 1712.43 3147.12 1613.86C3189.67 1560.54 3202.97 1508.85 3215.67 1459.49C3226.51 1417.35 3236.92 1376.91 3264.72 1338.63ZM1717 2042C1712.21 2067.42 1690.07 2072.12 1660.83 2078.32C1642.64 2082.18 1621.71 2086.63 1600.5 2097C1579.52 2107.26 1565.06 2120.03 1553.17 2130.54C1533.7 2147.74 1521.1 2158.87 1498 2143C1455.69 2113.92 1495.68 2033.55 1551 2006.5C1606.32 1979.45 1726.56 1991.34 1717 2042ZM2632.99 2395.8C2651.82 2383.38 2653 2351.97 2635.63 2325.65C2618.27 2299.33 2588.92 2288.07 2570.09 2300.5C2551.26 2312.93 2550.08 2344.33 2567.45 2370.65C2584.82 2396.97 2614.16 2408.23 2632.99 2395.8ZM2719.5 1820.17C2699.19 1852.66 2682.09 1842.56 2658.1 1828.39C2634.46 1814.43 2604.15 1796.53 2557.5 1811.5C2548.77 1814.3 2539.67 1817.5 2530.38 1820.77L2530.38 1820.78C2470.33 1841.91 2402.21 1865.88 2374.5 1802.67C2360.5 1732.67 2488.19 1692.17 2557.5 1692.17C2626.81 1692.17 2759.81 1755.67 2719.5 1820.17ZM2821 1790C2830.39 1790 2838 1784.18 2838 1777C2838 1769.82 2830.39 1764 2821 1764C2811.61 1764 2804 1769.82 2804 1777C2804 1784.18 2811.61 1790 2821 1790Z" fill="#0081C3"/>
</g>
<g filter="url(#filter5_d)">
<path fill-rule="evenodd" clip-rule="evenodd" d="M3454.27 604.794C3423.97 590.172 3391.9 574.704 3362 545.016C3278.37 461.993 3154.5 336.5 3154.5 336.5L2665 347.03C2618.74 432.04 2559.62 423.782 2420.5 352.289L435 395L418 2128L600.043 2051.72C600.043 2051.72 919.368 1930.69 1089.43 1853.17C1124.97 1836.98 1174.06 1829.02 1223.92 1820.93L1223.93 1820.93C1253.45 1816.14 1283.24 1811.31 1310.65 1804.7C1375.69 1789 1417.77 1767.5 1459.12 1704.83C1474.14 1682.07 1480.28 1650.13 1487.16 1614.31C1498.08 1557.49 1510.88 1490.92 1563.98 1435.85C1632.88 1364.42 1700.24 1334.27 1815.77 1306.62C1819.43 1305.74 1823 1304.89 1826.46 1304.07C1915.96 1282.8 1941.82 1276.65 1993.92 1163.55C2020.98 1104.81 2018.03 1047.02 2015.2 991.507C2012.38 936.004 2009.67 882.779 2037.17 833.16C2072.56 769.333 2124 751.741 2173.1 734.947C2197.4 726.637 2221.12 718.523 2242.05 705.098C2283.95 678.221 2303.54 642.937 2324.73 604.775L2324.73 604.774C2335.51 585.357 2346.71 565.195 2361.46 545.016C2382.53 516.202 2443.99 502.076 2479.71 504.463C2527.7 507.659 2580.45 503.421 2647.5 494C2682.81 489.038 2711.22 461.968 2739.02 435.488C2763.99 411.693 2788.47 388.374 2817 382C2878.25 368.316 2998.5 372.144 2999.5 413C3000.5 453.856 2929.48 566.689 2798.55 598.167C2729.79 614.697 2669.35 603.1 2611.58 592.014C2559.34 581.99 2509.28 572.384 2457.21 584.366C2347.56 609.6 2330.43 689.206 2349.85 704.812C2356.77 710.373 2363.48 703.669 2373.85 693.308C2392.59 674.572 2423.31 643.877 2488.86 652.116C2542.44 658.856 2621.44 691.028 2680.92 715.251L2680.93 715.251C2710.07 727.118 2734.52 737.077 2749.01 741.203C2793.05 753.75 2891.52 776.271 3051.81 718.613C3070.35 711.944 3087.2 701.709 3104.54 691.185C3131.78 674.64 3160.21 657.378 3198.23 652.116C3288.56 639.615 3413 704.812 3465.5 769.5C3498.39 810.021 3486.52 844.53 3472.34 885.786C3460.78 919.408 3447.67 957.511 3456 1007C3460.3 1032.54 3478.7 1067.68 3499.08 1106.62C3534.43 1174.11 3575.75 1253.03 3559.96 1313.16C3551.74 1332.66 3547.19 1346.36 3556 1325C3557.59 1321.15 3558.91 1317.2 3559.96 1313.16C3567.76 1294.67 3578.87 1270.97 3585 1267C3594.94 1260.57 3674.58 1046.77 3632.5 893C3630.09 884.199 3627.77 875.526 3625.47 866.97C3606.19 795.092 3589.13 731.46 3544 669.5C3519.95 636.477 3488.21 621.166 3454.27 604.794ZM2922.04 693.94C2944.32 688.384 2960.22 675.177 2957.54 664.44C2954.86 653.704 2934.63 649.504 2912.35 655.06C2890.06 660.615 2874.17 673.823 2876.85 684.559C2879.52 695.296 2899.76 699.496 2922.04 693.94ZM2330.37 509.508C2321.73 527.63 2303.6 537.016 2289.87 530.473C2276.13 523.93 2272 503.935 2280.63 485.813C2289.27 467.691 2307.4 458.304 2321.13 464.848C2334.87 471.391 2339 491.386 2330.37 509.508ZM1800 1227.5C1857.5 1261 1929.38 1229.5 1955 1145.5C1977.26 1072.5 1941.92 974.009 1892 996.999C1871.03 1006.65 1869.66 1022.31 1868.08 1040.35V1040.35C1867.33 1048.98 1866.52 1058.17 1863.5 1067.5C1856.76 1088.32 1837.61 1101.13 1818.24 1114.1C1804.24 1123.46 1790.13 1132.9 1780.5 1145.5C1765.4 1165.25 1768.11 1208.92 1800 1227.5ZM1567.89 1188C1564.52 1202.86 1553.79 1213.1 1543.91 1210.86C1534.04 1208.62 1528.76 1194.77 1532.12 1179.91C1535.49 1165.05 1546.22 1154.81 1556.1 1157.05C1565.97 1159.28 1571.25 1173.14 1567.89 1188ZM1568.19 1372.92C1578.03 1369.27 1583.91 1360.65 1581.32 1353.66C1578.74 1346.67 1568.66 1343.95 1558.82 1347.59C1548.98 1351.24 1543.1 1359.86 1545.69 1366.85C1548.27 1373.84 1558.35 1376.56 1568.19 1372.92Z" fill="#2BAAE2"/>
</g>
<g filter="url(#filter6_d)">
<path fill-rule="evenodd" clip-rule="evenodd" d="M2436.5 369.5C2706.84 244.113 3064.25 241.385 3312 407C3532.87 554.645 3662.82 700.539 3704 963C3746.23 1232.17 3487.5 1626.24 3487.5 1626.24L3408 1799.47C3408 1799.47 3204.41 1936.97 3030 1988.35C2918.46 2021.2 2818.84 2009.48 2761.52 2002.74C2729.22 1998.94 2710.35 1996.72 2710.35 2004.95C2710.35 2020.5 2818.97 2067.21 2992.33 2075.51C3165.7 2083.82 3402.36 1941.5 3402.36 1941.5L3480 1962L3423.5 2087C3423.5 2087 3156.46 2454.7 2903.5 2441.5C2826.41 2437.48 2710.35 2399.5 2710.35 2399.5L2582.17 2142.1C2582.17 2142.1 2395.53 1853.6 2195.9 1849.68L2195.04 1849.67C2155.75 1848.89 2055.94 1846.91 1950.63 1912.01C1842.8 1978.67 1786.45 2032.34 1731.87 2084.32C1690.53 2123.7 1650.2 2162.1 1589.29 2204.45C1447.96 2302.7 1406.41 2300.96 1406.41 2300.96C1406.41 2300.96 1446.55 2326.89 1570.03 2261.87C1639.01 2225.55 1707.4 2173.95 1768.16 2128.11L1768.16 2128.1L1768.17 2128.1C1816.17 2091.89 1859.41 2059.27 1894.39 2040.62C2001.4 1983.59 2142.32 2006.73 2216.58 2046.08C2331.53 2107 2396.43 2206.4 2456.95 2299.1C2508.16 2377.55 2556.24 2451.21 2628.89 2492.69C2763.02 2569.28 2921.49 2496.11 3089.8 2418.4L3089.81 2418.39L3089.86 2418.37L3089.86 2418.37L3089.87 2418.36L3089.88 2418.36L3089.89 2418.35C3120.44 2404.25 3151.31 2390 3182.42 2376.46C3346.5 2305.08 3567 2127.38 3567 2127.38L3405.54 2654L418 2651.98V2357.54C418 2357.54 722.646 2331.12 893.961 2301.84C1029.31 2278.71 1044.71 2270.54 1074.22 2254.9C1082.06 2250.74 1090.9 2246.06 1103.25 2240.43C1122.16 2231.79 1134.16 2224.09 1144.25 2217.61C1165.52 2203.95 1178.31 2195.73 1229.66 2195.76C1265.93 2195.78 1296.9 2205.04 1327.14 2214.08C1360.03 2223.91 1392.06 2233.49 1429.12 2230.66C1479.05 2226.84 1495.85 2212.87 1574.12 2147.82L1574.15 2147.8L1574.19 2147.77L1574.34 2147.64C1581.88 2141.37 1589.99 2134.63 1598.76 2127.38C1635.62 2096.89 1678.2 2058.49 1717.26 2022.15C1738.6 2002.32 1758.87 1983.09 1776.61 1966.1C1814.48 1929.84 1840.74 1903.79 1840.74 1903.79L1860.49 1887.53C1860.49 1887.53 2000 1759.88 2041.67 1738.43L2042.62 1737.94C2067.39 1725.17 2175.33 1669.53 2320.03 1677.49C2466.67 1685.56 2628.22 1770.69 2628.22 1770.69C2628.22 1770.69 2810.91 1853.47 2965.01 1800.88C3064.19 1767.03 3118.89 1710.34 3172.38 1654.89C3202 1624.18 3231.26 1593.85 3267.5 1568C3290.94 1545.11 3337.7 1511.42 3386.71 1476.11L3386.72 1476.11L3386.72 1476.11C3443.27 1435.37 3502.83 1392.47 3533 1361.5C3591.33 1301.64 3560.56 1216.4 3531.21 1135.08C3507.82 1070.3 3485.33 1008 3509.5 963C3564 861.5 3564 710.5 3344.5 638.5C3339.74 636.939 3334.66 635.305 3329.31 633.585L3329.21 633.552L3329.19 633.547C3251.38 608.537 3117.01 565.349 3089.5 461.5C3059.5 348.251 2817.94 323.507 2710.35 407C2654.32 450.477 2592.24 466.893 2530.3 483.271C2455.33 503.095 2380.57 522.864 2317 590.5C2254.5 657 2062 657 2062 657C2062 657 2277.05 443.455 2436.5 369.5ZM2006.77 1847.48C2017.41 1844.51 2024.34 1836.06 2022.26 1828.62C2020.18 1821.17 2009.87 1817.54 1999.23 1820.52C1988.59 1823.49 1981.66 1831.94 1983.74 1839.38C1985.82 1846.83 1996.13 1850.46 2006.77 1847.48ZM2645.5 1866.63C2626.22 1894.13 2594.95 1879.82 2563.82 1865.56C2545.7 1857.27 2527.63 1849 2512 1849C2507.56 1849 2502.83 1852.31 2497.47 1856.07C2487.13 1863.31 2474.45 1872.19 2457 1862.13C2432.5 1836.41 2466.01 1776.86 2544.5 1779.63C2622.99 1782.4 2676 1823.13 2645.5 1866.63ZM3148.88 1836.86C3157.1 1842.17 3169.58 1837.46 3176.76 1826.35C3183.94 1815.24 3183.1 1801.92 3174.88 1796.61C3166.66 1791.3 3154.18 1796.01 3147 1807.12C3139.82 1818.23 3140.66 1831.55 3148.88 1836.86ZM3373.49 540.761C3352.19 534.892 3335.14 516.19 3344.94 506.963C3349.13 503.024 3351.99 505.242 3355.8 508.19C3360.92 512.149 3367.73 517.424 3381.73 510.876C3406.14 499.452 3421.09 518.612 3417.9 530.18C3414.71 541.749 3394.79 546.631 3373.49 540.761ZM3599.55 1017.55C3602.59 1016.7 3603.93 1011.98 3602.53 1007C3601.14 1002.03 3597.55 998.691 3594.51 999.543C3591.46 1000.4 3590.13 1005.12 3591.52 1010.09C3592.92 1015.06 3596.51 1018.4 3599.55 1017.55ZM2548.96 360.351C2547.87 359.732 2546.86 359.076 2545.91 358.456C2541.88 355.827 2538.84 353.849 2534.99 358.115C2525.97 368.11 2544.48 385.363 2566.19 389.481C2587.89 393.599 2607.35 387.112 2609.59 375.323C2611.82 363.534 2595.37 345.653 2571.97 359.025C2571.82 359.111 2571.67 359.195 2571.52 359.278C2568.43 350.301 2561.72 344.481 2556 346.085C2551.35 347.389 2548.7 353.227 2548.96 360.351Z" fill="#4CC8ED"/>
</g>
<g filter="url(#filter7_d)">
<path fill-rule="evenodd" clip-rule="evenodd" d="M1388.87 1688.14C1298.34 1843.69 1110.21 1885.01 1110.21 1885.01L418 2128L425.759 459.504L1909.87 463.066C1909.87 463.066 1907.58 488.177 1884.75 525.551C1873.22 544.428 1853.79 566.766 1838.72 584.088C1823.95 601.071 1813.37 613.233 1818.54 612.585C1826.71 611.567 1885.51 568.772 1912.15 540.058C1927.55 523.471 1939.2 506.974 1949.17 492.855L1949.17 492.852L1949.17 492.851C1964.19 471.589 1975.39 455.72 1989.84 453.056C2013.87 448.632 1930.42 709.661 1828.82 864.766C1768.01 957.593 1718.58 985.081 1668.86 1012.73C1638.33 1029.7 1607.7 1046.74 1574.25 1079C1477.96 1171.9 1472.31 1262.77 1472.31 1262.77C1472.31 1262.77 1479.39 1532.57 1388.87 1688.14ZM1296.19 1742.69C1302.92 1747.14 1313.51 1743.01 1319.84 1733.45C1326.17 1723.9 1325.85 1712.53 1319.11 1708.07C1312.38 1703.61 1301.79 1707.75 1295.46 1717.31C1289.13 1726.86 1289.46 1738.23 1296.19 1742.69ZM1758.18 858.85C1767.26 876.347 1743.73 906.58 1705.61 926.376C1667.49 946.172 1629.22 948.035 1620.13 930.537C1611.05 913.039 1634.58 882.807 1672.7 863.011C1710.82 843.215 1749.09 841.352 1758.18 858.85ZM1910.25 618.057C1916.04 619.033 1921.91 612.798 1923.38 604.131C1924.84 595.464 1921.33 587.647 1915.54 586.671C1909.76 585.695 1903.88 591.929 1902.42 600.596C1900.96 609.263 1904.46 617.08 1910.25 618.057Z" fill="#4CC8ED"/>
</g>
<g filter="url(#filter8_d)">
<path fill-rule="evenodd" clip-rule="evenodd" d="M3406.46 1735C3406.46 1735 3079.56 2064.69 2862.98 2109.68C2575.42 2169.41 2442.31 1874 2105.63 1941.64C1848.15 1993.36 1770.46 2279.35 1526.3 2361.26C1282.14 2443.19 1222.19 2282.55 1130.59 2277.6C1015.78 2271.4 1037.41 2357.66 845.71 2344.25C701.86 2334.18 418 2349.45 418 2349.45L429.341 2631.45L3394.85 2654L3405.08 2273.48C3405.08 2273.48 3296.7 2342.88 3170.21 2405.62C3053.79 2463.37 2925.46 2514.43 2775.85 2524.11C2581.82 2536.67 2521.8 2408.47 2371.97 2270.15C2236.22 2144.84 2197.8 2165.45 2214.16 2158.69C2236.32 2149.54 2320.21 2131.11 2480.22 2273.1C2621.9 2398.83 2762.09 2434.29 2969.29 2409.63C3199.37 2382.26 3408 2167.19 3408 2167.19L3406.46 1735Z" fill="#F2F2F2"/>
</g>
<g filter="url(#filter9_d)">
<path fill-rule="evenodd" clip-rule="evenodd" d="M3382.69 2654L433.798 2646.3L418 2321.32L886.79 2331.74C886.79 2331.74 1029.25 2318.31 1151.42 2350.1C1193.95 2361.17 1227.11 2380.24 1259.28 2398.73C1319.49 2433.36 1376.22 2465.98 1484.42 2440.35C1643.28 2402.71 1785.11 2229.7 1812.39 2196.43C1813.61 2194.94 1814.61 2193.73 1815.36 2192.82C1832.93 2171.73 2001.66 1999.07 2213.62 1988.52C2343.68 1982.04 2453.64 2031.29 2555.37 2076.84C2619.43 2105.53 2680.22 2132.76 2740.73 2143.7C2851.23 2163.68 2956.88 2101.45 3123 1999.28C3289.12 1897.1 3405.22 1735 3405.22 1735L3408 2063.67C3408 2063.67 3177.01 2359.93 2890.27 2369.4C2716.04 2375.16 2614.25 2299.56 2515.21 2226C2451.25 2178.5 2388.44 2131.85 2308 2108.5C2090.43 2082.16 2022.31 2117.31 2025.24 2149.33C2026.18 2159.58 2041.79 2161.35 2068.16 2164.34C2124.12 2170.68 2228.54 2182.52 2343.91 2292.63C2377.32 2324.53 2404.38 2358.6 2430.8 2391.88C2507.41 2488.39 2578.7 2578.19 2784.38 2588.69C3060.98 2602.8 3395.17 2299.44 3395.17 2299.44L3382.69 2654ZM1041 2541.23C1041 2523.73 1100.93 2490.93 1148 2477.23C1201.06 2461.78 1248.15 2483.38 1296.51 2505.57C1336.02 2523.7 1376.37 2542.21 1421.5 2541.23C1463.29 2540.31 1497.97 2529.9 1520.97 2522.99C1538.03 2517.87 1548.66 2514.68 1551 2518.73C1556.5 2528.23 1467.5 2600 1381 2590.23C1335.48 2585.08 1298.26 2565.55 1265.2 2548.2C1235.45 2532.58 1209.05 2518.73 1183 2518.73C1155.02 2518.73 1118.75 2527.91 1089.87 2535.23C1061.99 2542.29 1041 2547.6 1041 2541.23Z" fill="white"/>
</g>
<g filter="url(#filter10_d)">
<path fill-rule="evenodd" clip-rule="evenodd" d="M1932.61 457.589C1932.61 457.589 1925.35 549.659 1843.77 637.332C1762.2 725.015 1586.21 792.223 1602.67 793.864C1631.94 796.802 1788.3 742.055 1902.12 665.212C2016.93 587.711 2022.47 458.754 2022.47 458.754L2257 453C2257 453 2214.1 588.612 2139.82 675.596C2065.53 762.58 2068.07 751.689 1927.95 808.838C1801.76 860.303 1717.02 862.521 1607.2 951.785C1520.97 1021.87 1485.69 1149.19 1469.25 1217.5C1444 1322.39 1452.91 1421.43 1425.28 1492.14C1362.76 1652.08 1138.98 1827.95 1138.98 1827.95C1138.98 1827.95 953.619 1993.34 952.775 1981.3C950.79 1953.07 1139.38 1802.46 1257.87 1665.94C1368.2 1538.82 1349.44 1342.99 1304.59 1366.68C1259.73 1390.35 1338.38 1537.94 1111.76 1725.97C858.096 1936.43 418 2391 418 2391L445.437 464.478L1932.61 457.589Z" fill="#F2F2F2"/>
</g>
<g filter="url(#filter11_d)">
<path fill-rule="evenodd" clip-rule="evenodd" d="M1007.06 1731.59C1067.7 1667.51 1167.5 1611.42 1226 1496.65C1284.5 1381.89 1241.04 1272.54 1241.04 1272.54C1241.04 1272.54 1207.23 1187.24 1233.96 1092.55C1260.7 997.861 1348.08 884.338 1365.33 886.977C1382.58 889.617 1310.79 1015.36 1302.97 1103.13C1295.13 1190.89 1325.52 1257.01 1325.52 1257.01C1325.52 1257.01 1318.01 1150.15 1367.99 1040.86C1417.96 931.579 1426.05 917.846 1525.41 819.872C1624.77 721.898 1691.07 715.508 1777.81 625.432C1864.56 535.356 1863 455.758 1863 455.758L1806.8 455.431C1806.8 455.431 1781.98 513.338 1742.38 563.258C1702.77 613.178 1647.61 647.49 1640.42 643.908C1633.23 640.336 1690.77 601.172 1713.63 548.94C1736.5 496.718 1737.18 453 1737.18 453L456.923 458.1L418 2391C418 2391 946.396 1795.68 1007.06 1731.59Z" fill="white"/>
</g>
<g filter="url(#filter12_d)">
<path d="M1777.5 757C1872 720.617 1975.87 670.617 2055.5 460H2212.5C2212.5 460 2127.5 647.5 2030 738C1932.5 828.5 1803.5 788.5 1589.5 933C1375.5 1077.5 1510.27 1356.05 1360.5 1577C1237.14 1758.98 955 1967.5 955 1967.5C1099.5 1821 1240.58 1711.46 1306.5 1589C1366.49 1477.55 1343.36 1350.18 1360.5 1197.5C1371.5 1099.5 1433.37 984.668 1459.5 947.5C1536.01 838.684 1672.7 797.349 1777.5 757Z" fill="white"/>
</g>
<circle cx="2501.5" cy="942.5" r="35" stroke="#E0E0E0" stroke-width="15"/>
<circle cx="1752.5" cy="1333.5" r="35" stroke="#E0E0E0" stroke-width="15"/>
<circle cx="3214" cy="1459" r="31" stroke="#E0E0E0" stroke-width="12"/>
<circle cx="1369" cy="2133" r="24.5" stroke="#F2F2F2" stroke-width="15"/>
<circle cx="1612.5" cy="1835.5" r="19.5" fill="#4CC8ED"/>
<circle cx="2121" cy="1247" r="14" fill="#4CC8ED"/>
<circle cx="2818.5" cy="1241.5" r="19.5" fill="#4CC8ED"/>
</g>
<g filter="url(#filter13_d)">
<path fill-rule="evenodd" clip-rule="evenodd" d="M3878 101H131V3027H3878V101ZM1036.27 1783.22L457.679 2344.52C457.679 2344.52 714.055 2421.88 858.269 2387.42C906.568 2375.88 947.243 2349.69 985.705 2324.92C1025.47 2299.32 1062.87 2275.24 1103.88 2270.44C1146.73 2265.43 1181.18 2288.65 1219.78 2314.66C1266.49 2346.15 1319.28 2381.72 1400.36 2376.25C1548.43 2366.24 1626.37 2314.96 1725.14 2216.31C1757.89 2183.61 1783.89 2155.97 1806.58 2131.85C1865.9 2068.78 1902.61 2029.76 1978.02 1987.24C2078.21 1930.75 2135.66 1902.47 2327.83 1941.83C2399.23 1956.45 2459.47 1989.88 2519.26 2023.05C2620.37 2079.17 2720.18 2134.56 2870.48 2096.98C3101.77 2039.16 3370.69 1766.26 3370.69 1766.26C3370.69 1766.26 3593.93 1526.85 3609.73 1152.91C3625.54 778.959 3479.96 557.594 3324.13 453.099C3021.41 250.091 2630.46 321.883 2473.53 387.103C2378.64 426.536 2273.67 538.47 2189.78 627.917L2189.78 627.92C2148.88 671.534 2112.99 709.802 2085.73 731.711C2019.31 785.081 1927.96 810.818 1863.77 828.903L1863.77 828.904C1845.08 834.167 1828.7 838.783 1815.9 843.242C1749.73 866.296 1649.26 907.364 1601.64 955.129C1596.9 959.883 1592.43 964.254 1588.18 968.413C1548.56 1007.17 1527.78 1027.5 1481.43 1167.89C1461.89 1227.08 1455.24 1285.37 1448.84 1341.53C1438.43 1432.85 1428.66 1518.53 1365.1 1593.29C1215.01 1769.88 980.017 1982.12 955.191 1970.71C942.919 1965.06 1011.14 1899.54 1090.34 1823.46C1171.36 1745.65 1263.87 1656.8 1293.46 1609.72C1351.99 1516.61 1364.8 1349.61 1300.95 1357.59C1292.9 1358.6 1291.03 1376.17 1288.13 1403.4C1283.4 1447.8 1275.94 1517.86 1234.5 1583.59C1167.67 1689.65 1036.27 1783.22 1036.27 1783.22ZM1600.16 787.43C1600.16 787.43 1778.28 710.788 1856.25 615.082C1925.25 530.369 1930.18 478.369 1932.08 458.303L1932.08 458.3C1932.28 456.147 1932.45 454.362 1932.66 452.943C1936.07 429.978 1946.22 398.563 1978.2 397.699C1996.88 397.198 2027.85 419.412 2023.71 456.683C2023.53 458.283 2023.35 459.992 2023.17 461.804L2023.16 461.826C2019.43 497.845 2011.47 574.752 1910.68 653.459C1804.79 736.144 1600.16 787.43 1600.16 787.43ZM2380.3 2193.76C2260.66 2133.95 2222.54 2143.79 2219.41 2149.39C2218.42 2151.15 2222.87 2153.5 2232.07 2158.35C2252.11 2168.92 2294.72 2191.4 2352.86 2245.69C2384.88 2275.6 2414.69 2306.44 2443.31 2336.04C2520.63 2416.03 2589.25 2487.02 2669.35 2506.33C2829.15 2544.85 2895.87 2518.34 3052.88 2455.95C3062.01 2452.33 3071.45 2448.58 3081.23 2444.71C3258.68 2374.57 3398.59 2259.49 3398.59 2259.49C3398.59 2259.49 3445.57 2211.78 3474.69 2150.28C3503.8 2088.79 3514.85 2008.53 3498.09 2004.57C3492.45 2003.25 3485.41 2022.7 3477.18 2045.46C3469.54 2066.57 3460.87 2090.53 3451.33 2103.42C3383.06 2195.58 3296.52 2292.06 3099.81 2367.17C3055.38 2384.13 2875.94 2441.09 2697.93 2388.64C2590.24 2356.93 2540.39 2314.16 2491.32 2272.08C2459.27 2244.59 2427.56 2217.39 2380.3 2193.76Z" fill="#F2F2F2"/>
</g>
<g filter="url(#filter14_d)">
<path fill-rule="evenodd" clip-rule="evenodd" d="M3955 -11H-22V3027H3955V-11ZM968.795 1768.38C758.334 1995.91 413 2325.65 413 2325.65C413 2325.65 784.414 2304.16 1024.16 2328.63C1164.38 2342.94 1227.64 2378.91 1276.14 2406.49C1310.58 2426.07 1337.57 2441.42 1379.38 2441.8C1509.28 2442.96 1519.61 2435.66 1627 2359.81C1639.06 2351.29 1652.36 2341.9 1667.18 2331.56C1728.07 2289.09 1770.63 2242.87 1811.59 2198.37C1869.36 2135.63 1923.97 2076.32 2022.39 2035.78C2190.59 1966.49 2280.22 1967.05 2419.04 2011.34C2460.65 2024.62 2502.22 2046.35 2544.64 2068.53C2643.78 2120.36 2747.61 2174.63 2867.55 2129.25C3046.05 2061.69 3269.57 1924.51 3437.08 1700.65C3564.81 1529.95 3572.18 1508.87 3609.18 1403.06C3616.17 1383.06 3624.21 1360.05 3634.33 1332.43C3666.57 1244.42 3698.98 828.748 3584.57 617.448C3486.81 436.908 3239.83 257.951 2904.47 221.074C2569.11 184.198 2425.3 251.334 2278.88 377.067C2220.68 427.044 2192.65 482.989 2162.81 542.535C2136.86 594.327 2109.54 648.843 2059.82 704.527C2012.72 757.281 1929.62 783.603 1839.53 812.138C1727.21 847.718 1604.02 886.738 1526.21 984.731C1463.26 1064.02 1453.12 1177.61 1444.96 1268.96V1268.96V1268.97C1443.76 1282.38 1442.61 1295.32 1441.33 1307.59C1431.97 1397.92 1412.83 1461.97 1396.34 1496.24L1396.25 1496.43C1350.45 1591.65 1340.13 1613.11 1230.86 1722.49C1121.53 1831.93 969.145 1966.31 961.705 1959.77C957.024 1955.65 987.25 1926.62 1030.23 1885.34L1030.23 1885.34L1030.23 1885.34C1061.57 1855.24 1099.7 1818.62 1136.01 1780.4C1155.87 1759.5 1173.3 1742.6 1189.6 1726.79C1223.06 1694.34 1251.74 1666.53 1286.84 1618.26C1332.37 1555.68 1337.52 1507.48 1341.95 1466.13C1342.47 1461.19 1342.99 1456.36 1343.57 1451.61C1350.6 1393.41 1350.99 1339.18 1350.93 1280.9C1350.87 1223.86 1352.32 1036.78 1513.56 882.385C1581.84 816.998 1672.15 784.417 1751.51 755.79C1815.6 732.67 1872.53 712.129 1904.94 678.969C2026 555.103 2078.5 454.615 2062.53 388.11C2046.71 322.17 1948.69 296.713 1905.87 332.309C1878.11 355.379 1875.28 375.87 1870.07 413.531C1868.09 427.838 1865.77 444.624 1861.61 464.97C1859.41 475.728 1857.79 484.867 1856.37 492.909C1848.09 539.69 1846.38 549.331 1774.92 624.403C1734.34 667.033 1697.87 689.653 1659.87 713.221C1619.45 738.291 1577.3 764.433 1526.63 816.873C1428.34 918.614 1407.74 944.083 1361.39 1042.04C1331.81 1104.54 1330.61 1168.45 1329.86 1208.33C1329.44 1230.96 1329.16 1245.85 1323.92 1248.36C1309.46 1255.3 1297.08 1159.94 1307.89 1071.2C1314.07 1020.52 1335.38 968.961 1350.1 933.357C1361.15 906.623 1368.48 888.887 1362.89 887.28C1349.85 883.532 1272.8 950.505 1230.54 1099.89C1211.63 1166.74 1225.87 1220 1239.65 1271.59C1245.41 1293.11 1251.08 1314.35 1254.24 1336.16C1259.6 1373.14 1252.12 1406.85 1236.69 1456.25C1204.29 1559.95 1130.76 1623.13 1058.37 1685.33C1027.17 1712.14 996.185 1738.77 968.795 1768.38ZM1641.9 632.567C1640.28 630.659 1646.8 622.502 1656.93 609.814C1680.68 580.071 1724.31 525.429 1729.73 468.029C1734.1 421.813 1728.68 382.189 1725.03 355.518C1722.1 334.132 1720.32 321.075 1725.63 319.627C1737.56 316.372 1799.26 378.438 1790.33 461.349C1781.51 543.129 1648.71 640.629 1641.9 632.567ZM2310.31 2103.91C2167.18 2067.26 2027.84 2111.19 2024.66 2136.92C2023.34 2147.56 2046.52 2152.68 2082.51 2160.63C2133.51 2171.89 2210.23 2188.83 2279.45 2235.23C2340.31 2276.02 2379.49 2325.03 2419.07 2374.54C2456.28 2421.07 2493.83 2468.04 2550.04 2509C2666.06 2593.54 2824.71 2589.85 2892.34 2575.43C2903.88 2572.96 2914.26 2570.92 2923.97 2569.01C2984.14 2557.16 3018.99 2550.3 3147.17 2479.84C3296.05 2398 3483.56 2275.65 3552.84 2114.43C3617.91 1963.01 3569.71 1824.19 3545.52 1824.2C3533.28 1824.21 3518.88 1855.79 3499.86 1897.5C3481.76 1937.18 3459.49 1986.03 3430.91 2025.58C3355.15 2130.5 3325.93 2160.93 3199.99 2247.28C3074.06 2333.63 3028.32 2353.78 2877.61 2362.82C2749.28 2370.52 2684.67 2333.35 2627.01 2300.17C2616.97 2294.4 2607.13 2288.74 2597.21 2283.46C2559.27 2263.28 2529.41 2237.81 2499.12 2211.97C2449.67 2169.79 2399.07 2126.62 2310.31 2103.91Z" fill="white"/>
</g>
<g filter="url(#filter15_i)">
<path fill-rule="evenodd" clip-rule="evenodd" d="M520.981 2015.34L213.671 2174.61C213.671 2174.61 175.339 2199.82 159.64 2223.58C146.029 2244.18 136.945 2282.58 136.945 2282.58C136.945 2282.58 214.769 2352.29 291.909 2356.34C369.04 2360.39 459.325 2345.77 459.325 2345.77L802.079 2134.65L520.981 2015.34Z" fill="#4CC8ED"/>
</g>
<path fill-rule="evenodd" clip-rule="evenodd" d="M520.981 2015.34L213.671 2174.61C213.671 2174.61 175.339 2199.82 159.64 2223.58C146.029 2244.18 136.945 2282.58 136.945 2282.58C136.945 2282.58 214.769 2352.29 291.909 2356.34C369.04 2360.39 459.325 2345.77 459.325 2345.77L802.079 2134.65L520.981 2015.34Z" stroke="#4CC8ED" stroke-linecap="round" stroke-linejoin="round"/>
<g filter="url(#filter16_d)">
<path fill-rule="evenodd" clip-rule="evenodd" d="M140.189 2284.53C149.325 2370.95 166.251 2419.48 238.751 2506.29C238.751 2506.29 221.644 2510.22 213.462 2525.1C205.28 2539.97 211.454 2570.49 214.758 2575.02C218.061 2579.56 272.726 2555.79 307.483 2545.85C342.24 2535.91 416.488 2516.16 489.043 2483.6C582.596 2441.61 608.354 2427.83 714.048 2333.16C792.153 2289.28 801.427 2135.08 801.427 2135.08L498.924 2321.42L459.864 2342.89C459.864 2342.89 359.733 2360.09 284.14 2351.32C208.549 2342.54 140.189 2284.53 140.189 2284.53Z" fill="#2BAAE2"/>
</g>
<path fill-rule="evenodd" clip-rule="evenodd" d="M625.569 2027.79L761.897 1959.22L762.88 2192.66L618.309 2283.51L625.569 2027.79Z" fill="#1172BA"/>
<path fill-rule="evenodd" clip-rule="evenodd" d="M443.549 1945.18L452.353 2194.69L627.52 2273.22L622.108 2027.31L443.549 1945.18Z" fill="#2BAAE2"/>
<path d="M762.244 2061.96L762.031 1960.32L622.619 2028.4V2130.2L762.244 2061.96Z" fill="#272361"/>
<path d="M622.619 2029.05L443.922 1946.11L447.661 2054.72L622.619 2130.2V2029.05Z" fill="#2E3690"/>
<g filter="url(#filter17_i)">
<path d="M256.256 2293.61C245.881 2311.12 264.037 2315.65 264.037 2315.65C237.055 2312.29 167.279 2301.3 135 2281.29C146.672 2224.87 163.531 2208.02 213.46 2174.3L447.211 2052.53L451.863 2181.39C451.863 2181.39 266.631 2276.1 256.256 2293.61Z" fill="#135EAB"/>
</g>
<g filter="url(#filter18_ddi)">
<path d="M214.757 2473.87C153.834 2404.43 148.244 2378.69 135 2280.64C237.8 2329.88 407.351 2326.89 463.105 2316.95L801.585 2134.09C799.23 2166.94 788.144 2220.49 775.648 2254.05C463.105 2453.77 492.285 2484.89 214.757 2473.87Z" fill="#2E3690"/>
</g>
<g filter="url(#filter19_d)">
<path fill-rule="evenodd" clip-rule="evenodd" d="M415.02 1945.64L624.782 2034.77L787.971 1949.29L583.252 1868.16L415.02 1945.64Z" fill="#272361"/>
</g>
<g filter="url(#filter20_d)">
<path fill-rule="evenodd" clip-rule="evenodd" d="M561.935 1945.61L556.049 1740.46L563.184 1729.73C563.184 1729.73 576.617 1730.03 599.012 1729.73C621.407 1729.42 629.324 1725.55 629.324 1725.55L645.712 1735.27L649.738 1949.89C649.738 1949.89 637.121 1971.45 603.267 1967.85C565.261 1963.81 561.935 1945.61 561.935 1945.61Z" fill="#2E3690"/>
</g>
<path d="M647.509 1813.82C612.961 1833.19 595.027 1834.44 558.077 1814.16L555.336 1721.98C555.336 1721.98 556.182 1718.19 556.601 1716.71C558.025 1711.68 564.426 1706.15 566.371 1705.13C568.316 1704.11 563.823 1711.57 567.752 1712.94C591.949 1721.34 607.548 1721.91 633.893 1712.01C637.004 1710.84 640.724 1712.04 640.724 1712.04C640.724 1712.04 643.485 1715.06 644.528 1717.2C645.283 1718.75 646.246 1722.23 646.246 1722.23L647.509 1813.82Z" fill="#4CC8ED"/>
<path d="M602.283 1721.08C629.662 1721.08 643.15 1715.38 643.15 1715.38C643.15 1715.38 629.662 1695.14 600.279 1695.14C570.897 1695.14 560.711 1711.19 560.711 1711.19C560.711 1711.19 572.232 1721.08 602.283 1721.08Z" fill="#4CC8ED" stroke="#4CC8ED" stroke-linecap="round" stroke-linejoin="round"/>
<g filter="url(#filter21_ddi)">
<path d="M601.012 1700.81C581.584 1699.81 562.243 1712.41 562.242 1718.24C562.241 1724.08 584.727 1731.53 600.5 1731.21C616.86 1730.88 640.054 1729.27 640.054 1719.54C640.054 1715.44 624.355 1702 601.012 1700.81Z" fill="#272361"/>
</g>
<g filter="url(#filter22_d)">
<path fill-rule="evenodd" clip-rule="evenodd" d="M797.048 1658.8C830.711 1658.8 858 1630.64 858 1595.9C858 1561.16 830.711 1533 797.048 1533C771.538 1533 749.689 1549.17 740.601 1572.12C739.118 1571.98 737.615 1571.91 736.095 1571.91C709.595 1571.91 688.112 1593.97 688.112 1621.19C688.112 1629.11 689.933 1636.6 693.169 1643.23C678.188 1643.3 666.064 1655.76 666.064 1671.12C666.064 1686.51 678.257 1699 693.298 1699C708.339 1699 720.532 1686.51 720.532 1671.12C720.532 1669.98 720.466 1668.85 720.336 1667.75C725.272 1669.51 730.575 1670.47 736.095 1670.47C750.59 1670.47 763.584 1663.87 772.382 1653.43C779.923 1656.88 788.269 1658.8 797.048 1658.8Z" fill="#2E3690"/>
</g>
<path d="M216.206 2376.78C216.085 2375.75 216.371 2374.71 216.999 2373.9C217.627 2373.09 218.547 2372.57 219.556 2372.45C220.564 2372.33 221.58 2372.63 222.378 2373.28C223.176 2373.92 223.692 2374.87 223.812 2375.9C224.134 2378.73 225.329 2381.39 227.224 2383.49C229.119 2385.6 231.615 2387.03 234.351 2387.59L231.228 2360.76C229.766 2360.21 228.47 2359.28 227.474 2358.06C226.478 2356.84 225.819 2355.37 225.563 2353.8C225.308 2352.23 225.466 2350.63 226.022 2349.15C226.577 2347.67 227.51 2346.37 228.723 2345.39C229.936 2344.4 231.386 2343.77 232.922 2343.56C234.459 2343.34 236.026 2343.55 237.461 2344.16C238.897 2344.77 240.149 2345.76 241.088 2347.03C242.027 2348.3 242.618 2349.8 242.802 2351.38C242.997 2353.04 242.727 2354.72 242.025 2356.22C241.323 2357.72 240.216 2358.99 238.834 2359.87L241.958 2386.7C244.492 2385.53 246.592 2383.56 247.953 2381.08C249.315 2378.6 249.867 2375.74 249.529 2372.9C249.409 2371.87 249.695 2370.84 250.323 2370.02C250.951 2369.21 251.871 2368.69 252.88 2368.57C253.888 2368.45 254.903 2368.75 255.702 2369.4C256.5 2370.04 257.016 2370.99 257.136 2372.02C257.788 2377.62 256.239 2383.25 252.828 2387.67C249.418 2392.08 244.425 2394.92 238.95 2395.55C233.474 2396.19 227.963 2394.58 223.63 2391.06C219.297 2387.55 216.496 2382.43 215.843 2376.83L216.206 2376.78Z" fill="#191919"/>
<path d="M220.063 2370.13C219.943 2369.1 220.214 2368.07 220.816 2367.26C221.417 2366.45 222.301 2365.93 223.273 2365.81C224.244 2365.7 225.223 2366 225.995 2366.65C226.767 2367.3 227.268 2368.25 227.388 2369.28C227.711 2372.11 228.873 2374.78 230.708 2376.89C232.542 2379 234.953 2380.44 237.592 2381.01L234.468 2354.18C233.058 2353.63 231.805 2352.7 230.841 2351.47C229.876 2350.24 229.234 2348.77 228.981 2347.2C228.728 2345.63 228.874 2344.03 229.403 2342.55C229.932 2341.08 230.825 2339.78 231.99 2338.81C233.154 2337.83 234.549 2337.2 236.028 2336.99C237.507 2336.78 239.018 2337 240.403 2337.61C241.789 2338.23 243 2339.23 243.91 2340.5C244.82 2341.77 245.396 2343.27 245.579 2344.85C245.774 2346.51 245.522 2348.19 244.852 2349.69C244.182 2351.19 243.121 2352.45 241.793 2353.32L244.916 2380.16C247.354 2379 249.368 2377.04 250.669 2374.56C251.97 2372.09 252.49 2369.23 252.153 2366.4C252.033 2365.37 252.303 2364.33 252.905 2363.52C253.507 2362.71 254.391 2362.19 255.362 2362.08C256.334 2361.97 257.313 2362.27 258.085 2362.92C258.856 2363.57 259.358 2364.51 259.478 2365.55C260.13 2371.15 258.661 2376.77 255.394 2381.17C252.127 2385.56 247.329 2388.38 242.056 2388.99C236.783 2389.61 231.467 2387.97 227.277 2384.44C223.087 2380.91 220.367 2375.78 219.715 2370.17L220.063 2370.13Z" fill="#4CC8ED"/>
</g>
<defs>
<filter id="filter0_d" x="318" y="779" width="3397" height="1924.03" filterUnits="userSpaceOnUse" color-interpolation-filters="sRGB">
<feFlood flood-opacity="0" result="BackgroundImageFix"/>
<feColorMatrix in="SourceAlpha" type="matrix" values="0 0 0 0 0 0 0 0 0 0 0 0 0 0 0 0 0 0 127 0"/>
<feOffset dy="-40"/>
<feGaussianBlur stdDeviation="50"/>
<feColorMatrix type="matrix" values="0 0 0 0 0 0 0 0 0 0 0 0 0 0 0 0 0 0 0.3 0"/>
<feBlend mode="normal" in2="BackgroundImageFix" result="effect1_dropShadow"/>
<feBlend mode="normal" in="SourceGraphic" in2="effect1_dropShadow" result="shape"/>
</filter>
<filter id="filter1_d" x="318" y="286.5" width="3307.5" height="1726.47" filterUnits="userSpaceOnUse" color-interpolation-filters="sRGB">
<feFlood flood-opacity="0" result="BackgroundImageFix"/>
<feColorMatrix in="SourceAlpha" type="matrix" values="0 0 0 0 0 0 0 0 0 0 0 0 0 0 0 0 0 0 127 0"/>
<feOffset dy="40"/>
<feGaussianBlur stdDeviation="50"/>
<feColorMatrix type="matrix" values="0 0 0 0 0 0 0 0 0 0 0 0 0 0 0 0 0 0 0.3 0"/>
<feBlend mode="normal" in2="BackgroundImageFix" result="effect1_dropShadow"/>
<feBlend mode="normal" in="SourceGraphic" in2="effect1_dropShadow" result="shape"/>
</filter>
<filter id="filter2_d" x="273" y="573" width="3431.77" height="2126" filterUnits="userSpaceOnUse" color-interpolation-filters="sRGB">
<feFlood flood-opacity="0" result="BackgroundImageFix"/>
<feColorMatrix in="SourceAlpha" type="matrix" values="0 0 0 0 0 0 0 0 0 0 0 0 0 0 0 0 0 0 127 0"/>
<feOffset dx="-40" dy="-60"/>
<feGaussianBlur stdDeviation="52.5"/>
<feColorMatrix type="matrix" values="0 0 0 0 0 0 0 0 0 0 0 0 0 0 0 0 0 0 0.4 0"/>
<feBlend mode="normal" in2="BackgroundImageFix" result="effect1_dropShadow"/>
<feBlend mode="normal" in="SourceGraphic" in2="effect1_dropShadow" result="shape"/>
</filter>
<filter id="filter3_d" x="318" y="259.298" width="3384.5" height="2201.7" filterUnits="userSpaceOnUse" color-interpolation-filters="sRGB">
<feFlood flood-opacity="0" result="BackgroundImageFix"/>
<feColorMatrix in="SourceAlpha" type="matrix" values="0 0 0 0 0 0 0 0 0 0 0 0 0 0 0 0 0 0 127 0"/>
<feOffset dx="40" dy="60"/>
<feGaussianBlur stdDeviation="70"/>
<feColorMatrix type="matrix" values="0 0 0 0 0 0 0 0 0 0 0 0 0 0 0 0 0 0 0.7 0"/>
<feBlend mode="normal" in2="BackgroundImageFix" result="effect1_dropShadow"/>
<feBlend mode="normal" in="SourceGraphic" in2="effect1_dropShadow" result="shape"/>
</filter>
<filter id="filter4_d" x="311.863" y="1151.5" width="3336.5" height="1541.44" filterUnits="userSpaceOnUse" color-interpolation-filters="sRGB">
<feFlood flood-opacity="0" result="BackgroundImageFix"/>
<feColorMatrix in="SourceAlpha" type="matrix" values="0 0 0 0 0 0 0 0 0 0 0 0 0 0 0 0 0 0 127 0"/>
<feOffset dx="-30" dy="-30"/>
<feGaussianBlur stdDeviation="37.5"/>
<feColorMatrix type="matrix" values="0 0 0 0 0 0 0 0 0 0 0 0 0 0 0 0 0 0 0.37 0"/>
<feBlend mode="normal" in2="BackgroundImageFix" result="effect1_dropShadow"/>
<feBlend mode="normal" in="SourceGraphic" in2="effect1_dropShadow" result="shape"/>
</filter>
<filter id="filter5_d" x="348" y="276.5" width="3466.68" height="2031.5" filterUnits="userSpaceOnUse" color-interpolation-filters="sRGB">
<feFlood flood-opacity="0" result="BackgroundImageFix"/>
<feColorMatrix in="SourceAlpha" type="matrix" values="0 0 0 0 0 0 0 0 0 0 0 0 0 0 0 0 0 0 127 0"/>
<feOffset dx="50" dy="60"/>
<feGaussianBlur stdDeviation="60"/>
<feColorMatrix type="matrix" values="0 0 0 0 0 0 0 0 0 0 0 0 0 0 0 0 0 0 0.5 0"/>
<feBlend mode="normal" in2="BackgroundImageFix" result="effect1_dropShadow"/>
<feBlend mode="normal" in="SourceGraphic" in2="effect1_dropShadow" result="shape"/>
</filter>
<filter id="filter6_d" x="308" y="228.733" width="3410.66" height="2495.27" filterUnits="userSpaceOnUse" color-interpolation-filters="sRGB">
<feFlood flood-opacity="0" result="BackgroundImageFix"/>
<feColorMatrix in="SourceAlpha" type="matrix" values="0 0 0 0 0 0 0 0 0 0 0 0 0 0 0 0 0 0 127 0"/>
<feOffset dx="-50" dy="10"/>
<feGaussianBlur stdDeviation="30"/>
<feColorMatrix type="matrix" values="0 0 0 0 0 0 0 0 0 0 0 0 0 0 0 0 0 0 0.3 0"/>
<feBlend mode="normal" in2="BackgroundImageFix" result="effect1_dropShadow"/>
<feBlend mode="normal" in="SourceGraphic" in2="effect1_dropShadow" result="shape"/>
</filter>
<filter id="filter7_d" x="318" y="393" width="1776" height="1875" filterUnits="userSpaceOnUse" color-interpolation-filters="sRGB">
<feFlood flood-opacity="0" result="BackgroundImageFix"/>
<feColorMatrix in="SourceAlpha" type="matrix" values="0 0 0 0 0 0 0 0 0 0 0 0 0 0 0 0 0 0 127 0"/>
<feOffset dy="40"/>
<feGaussianBlur stdDeviation="50"/>
<feColorMatrix type="matrix" values="0 0 0 0 0 0 0 0 0 0 0 0 0 0 0 0 0 0 0.3 0"/>
<feBlend mode="normal" in2="BackgroundImageFix" result="effect1_dropShadow"/>
<feBlend mode="normal" in="SourceGraphic" in2="effect1_dropShadow" result="shape"/>
</filter>
<filter id="filter8_d" x="364" y="1697" width="3048" height="977" filterUnits="userSpaceOnUse" color-interpolation-filters="sRGB">
<feFlood flood-opacity="0" result="BackgroundImageFix"/>
<feColorMatrix in="SourceAlpha" type="matrix" values="0 0 0 0 0 0 0 0 0 0 0 0 0 0 0 0 0 0 127 0"/>
<feOffset dx="-25" dy="-9"/>
<feGaussianBlur stdDeviation="14.5"/>
<feColorMatrix type="matrix" values="0 0 0 0 0 0 0 0 0 0 0 0 0 0 0 0 0 0 0.3 0"/>
<feBlend mode="normal" in2="BackgroundImageFix" result="effect1_dropShadow"/>
<feBlend mode="normal" in="SourceGraphic" in2="effect1_dropShadow" result="shape"/>
</filter>
<filter id="filter9_d" x="413" y="1708" width="3040" height="969" filterUnits="userSpaceOnUse" color-interpolation-filters="sRGB">
<feFlood flood-opacity="0" result="BackgroundImageFix"/>
<feColorMatrix in="SourceAlpha" type="matrix" values="0 0 0 0 0 0 0 0 0 0 0 0 0 0 0 0 0 0 127 0"/>
<feOffset dx="20" dy="-2"/>
<feGaussianBlur stdDeviation="12.5"/>
<feColorMatrix type="matrix" values="0 0 0 0 0 0 0 0 0 0 0 0 0 0 0 0 0 0 0.23 0"/>
<feBlend mode="normal" in2="BackgroundImageFix" result="effect1_dropShadow"/>
<feBlend mode="normal" in="SourceGraphic" in2="effect1_dropShadow" result="shape"/>
</filter>
<filter id="filter10_d" x="384" y="430" width="1925" height="2024" filterUnits="userSpaceOnUse" color-interpolation-filters="sRGB">
<feFlood flood-opacity="0" result="BackgroundImageFix"/>
<feColorMatrix in="SourceAlpha" type="matrix" values="0 0 0 0 0 0 0 0 0 0 0 0 0 0 0 0 0 0 127 0"/>
<feOffset dx="9" dy="20"/>
<feGaussianBlur stdDeviation="21.5"/>
<feColorMatrix type="matrix" values="0 0 0 0 0 0 0 0 0 0 0 0 0 0 0 0 0 0 0.39 0"/>
<feBlend mode="normal" in2="BackgroundImageFix" result="effect1_dropShadow"/>
<feBlend mode="normal" in="SourceGraphic" in2="effect1_dropShadow" result="shape"/>
</filter>
<filter id="filter11_d" x="410" y="429" width="1497" height="1990" filterUnits="userSpaceOnUse" color-interpolation-filters="sRGB">
<feFlood flood-opacity="0" result="BackgroundImageFix"/>
<feColorMatrix in="SourceAlpha" type="matrix" values="0 0 0 0 0 0 0 0 0 0 0 0 0 0 0 0 0 0 127 0"/>
<feOffset dx="18" dy="2"/>
<feGaussianBlur stdDeviation="13"/>
<feColorMatrix type="matrix" values="0 0 0 0 0 0 0 0 0 0 0 0 0 0 0 0 0 0 0.18 0"/>
<feBlend mode="normal" in2="BackgroundImageFix" result="effect1_dropShadow"/>
<feBlend mode="normal" in="SourceGraphic" in2="effect1_dropShadow" result="shape"/>
</filter>
<filter id="filter12_d" x="947" y="436" width="1309.5" height="1559.5" filterUnits="userSpaceOnUse" color-interpolation-filters="sRGB">
<feFlood flood-opacity="0" result="BackgroundImageFix"/>
<feColorMatrix in="SourceAlpha" type="matrix" values="0 0 0 0 0 0 0 0 0 0 0 0 0 0 0 0 0 0 127 0"/>
<feOffset dx="18" dy="2"/>
<feGaussianBlur stdDeviation="13"/>
<feColorMatrix type="matrix" values="0 0 0 0 0 0 0 0 0 0 0 0 0 0 0 0 0 0 0.2 0"/>
<feBlend mode="normal" in2="BackgroundImageFix" result="effect1_dropShadow"/>
<feBlend mode="normal" in="SourceGraphic" in2="effect1_dropShadow" result="shape"/>
</filter>
<filter id="filter13_d" x="54" y="39" width="3871" height="3050" filterUnits="userSpaceOnUse" color-interpolation-filters="sRGB">
<feFlood flood-opacity="0" result="BackgroundImageFix"/>
<feColorMatrix in="SourceAlpha" type="matrix" values="0 0 0 0 0 0 0 0 0 0 0 0 0 0 0 0 0 0 127 0"/>
<feOffset dx="-15"/>
<feGaussianBlur stdDeviation="31"/>
<feColorMatrix type="matrix" values="0 0 0 0 0 0 0 0 0 0 0 0 0 0 0 0 0 0 0.4 0"/>
<feBlend mode="normal" in2="BackgroundImageFix" result="effect1_dropShadow"/>
<feBlend mode="normal" in="SourceGraphic" in2="effect1_dropShadow" result="shape"/>
</filter>
<filter id="filter14_d" x="-76" y="-43" width="4035" height="3096" filterUnits="userSpaceOnUse" color-interpolation-filters="sRGB">
<feFlood flood-opacity="0" result="BackgroundImageFix"/>
<feColorMatrix in="SourceAlpha" type="matrix" values="0 0 0 0 0 0 0 0 0 0 0 0 0 0 0 0 0 0 127 0"/>
<feOffset dx="-25" dy="-3"/>
<feGaussianBlur stdDeviation="14.5"/>
<feColorMatrix type="matrix" values="0 0 0 0 0 0 0 0 0 0 0 0 0 0 0 0 0 0 0.3 0"/>
<feBlend mode="normal" in2="BackgroundImageFix" result="effect1_dropShadow"/>
<feBlend mode="normal" in="SourceGraphic" in2="effect1_dropShadow" result="shape"/>
</filter>
<filter id="filter15_i" x="136.445" y="2004.84" width="676.134" height="352.716" filterUnits="userSpaceOnUse" color-interpolation-filters="sRGB">
<feFlood flood-opacity="0" result="BackgroundImageFix"/>
<feBlend mode="normal" in="SourceGraphic" in2="BackgroundImageFix" result="shape"/>
<feColorMatrix in="SourceAlpha" type="matrix" values="0 0 0 0 0 0 0 0 0 0 0 0 0 0 0 0 0 0 127 0" result="hardAlpha"/>
<feOffset dx="10" dy="-10"/>
<feGaussianBlur stdDeviation="75"/>
<feComposite in2="hardAlpha" operator="arithmetic" k2="-1" k3="1"/>
<feColorMatrix type="matrix" values="0 0 0 0 0 0 0 0 0 0 0 0 0 0 0 0 0 0 0.7 0"/>
<feBlend mode="normal" in2="shape" result="effect1_innerShadow"/>
</filter>
<filter id="filter16_d" x="24.1895" y="2103.08" width="837.237" height="616.515" filterUnits="userSpaceOnUse" color-interpolation-filters="sRGB">
<feFlood flood-opacity="0" result="BackgroundImageFix"/>
<feColorMatrix in="SourceAlpha" type="matrix" values="0 0 0 0 0 0 0 0 0 0 0 0 0 0 0 0 0 0 127 0"/>
<feOffset dx="-28" dy="56"/>
<feGaussianBlur stdDeviation="44"/>
<feColorMatrix type="matrix" values="0 0 0 0 0 0 0 0 0 0 0 0 0 0 0 0 0 0 0.3 0"/>
<feBlend mode="normal" in2="BackgroundImageFix" result="effect1_dropShadow"/>
<feBlend mode="normal" in="SourceGraphic" in2="effect1_dropShadow" result="shape"/>
</filter>
<filter id="filter17_i" x="135" y="2052.53" width="316.863" height="313.125" filterUnits="userSpaceOnUse" color-interpolation-filters="sRGB">
<feFlood flood-opacity="0" result="BackgroundImageFix"/>
<feBlend mode="normal" in="SourceGraphic" in2="BackgroundImageFix" result="shape"/>
<feColorMatrix in="SourceAlpha" type="matrix" values="0 0 0 0 0 0 0 0 0 0 0 0 0 0 0 0 0 0 127 0" result="hardAlpha"/>
<feOffset dy="50"/>
<feGaussianBlur stdDeviation="50"/>
<feComposite in2="hardAlpha" operator="arithmetic" k2="-1" k3="1"/>
<feColorMatrix type="matrix" values="0 0 0 0 0 0 0 0 0 0 0 0 0 0 0 0 0 0 0.45 0"/>
<feBlend mode="normal" in2="shape" result="effect1_innerShadow"/>
</filter>
<filter id="filter18_ddi" x="110" y="2097.09" width="716.585" height="428.719" filterUnits="userSpaceOnUse" color-interpolation-filters="sRGB">
<feFlood flood-opacity="0" result="BackgroundImageFix"/>
<feColorMatrix in="SourceAlpha" type="matrix" values="0 0 0 0 0 0 0 0 0 0 0 0 0 0 0 0 0 0 127 0"/>
<feOffset dy="4"/>
<feGaussianBlur stdDeviation="10"/>
<feColorMatrix type="matrix" values="0 0 0 0 0 0 0 0 0 0 0 0 0 0 0 0 0 0 0.28 0"/>
<feBlend mode="normal" in2="BackgroundImageFix" result="effect1_dropShadow"/>
<feColorMatrix in="SourceAlpha" type="matrix" values="0 0 0 0 0 0 0 0 0 0 0 0 0 0 0 0 0 0 127 0"/>
<feOffset dy="-12"/>
<feGaussianBlur stdDeviation="12.5"/>
<feColorMatrix type="matrix" values="0 0 0 0 0 0 0 0 0 0 0 0 0 0 0 0 0 0 0.25 0"/>
<feBlend mode="normal" in2="effect1_dropShadow" result="effect2_dropShadow"/>
<feBlend mode="normal" in="SourceGraphic" in2="effect2_dropShadow" result="shape"/>
<feColorMatrix in="SourceAlpha" type="matrix" values="0 0 0 0 0 0 0 0 0 0 0 0 0 0 0 0 0 0 127 0" result="hardAlpha"/>
<feOffset dy="50"/>
<feGaussianBlur stdDeviation="50"/>
<feComposite in2="hardAlpha" operator="arithmetic" k2="-1" k3="1"/>
<feColorMatrix type="matrix" values="0 0 0 0 0 0 0 0 0 0 0 0 0 0 0 0 0 0 0.41 0"/>
<feBlend mode="normal" in2="shape" result="effect3_innerShadow"/>
</filter>
<filter id="filter19_d" x="315.02" y="1808.16" width="572.951" height="366.608" filterUnits="userSpaceOnUse" color-interpolation-filters="sRGB">
<feFlood flood-opacity="0" result="BackgroundImageFix"/>
<feColorMatrix in="SourceAlpha" type="matrix" values="0 0 0 0 0 0 0 0 0 0 0 0 0 0 0 0 0 0 127 0"/>
<feOffset dy="40"/>
<feGaussianBlur stdDeviation="50"/>
<feColorMatrix type="matrix" values="0 0 0 0 0 0 0 0 0 0 0 0 0 0 0 0 0 0 0.4 0"/>
<feBlend mode="normal" in2="BackgroundImageFix" result="effect1_dropShadow"/>
<feBlend mode="normal" in="SourceGraphic" in2="effect1_dropShadow" result="shape"/>
</filter>
<filter id="filter20_d" x="536.049" y="1707.59" width="133.689" height="292.66" filterUnits="userSpaceOnUse" color-interpolation-filters="sRGB">
<feFlood flood-opacity="0" result="BackgroundImageFix"/>
<feColorMatrix in="SourceAlpha" type="matrix" values="0 0 0 0 0 0 0 0 0 0 0 0 0 0 0 0 0 0 127 0"/>
<feOffset dy="12"/>
<feGaussianBlur stdDeviation="10"/>
<feColorMatrix type="matrix" values="0 0 0 0 0 0 0 0 0 0 0 0 0 0 0 0 0 0 0.25 0"/>
<feBlend mode="normal" in2="BackgroundImageFix" result="effect1_dropShadow"/>
<feBlend mode="normal" in="SourceGraphic" in2="effect1_dropShadow" result="shape"/>
</filter>
<filter id="filter21_ddi" x="557.242" y="1691.75" width="87.8115" height="49.4708" filterUnits="userSpaceOnUse" color-interpolation-filters="sRGB">
<feFlood flood-opacity="0" result="BackgroundImageFix"/>
<feColorMatrix in="SourceAlpha" type="matrix" values="0 0 0 0 0 0 0 0 0 0 0 0 0 0 0 0 0 0 127 0"/>
<feOffset dy="-4"/>
<feGaussianBlur stdDeviation="2.5"/>
<feColorMatrix type="matrix" values="0 0 0 0 0 0 0 0 0 0 0 0 0 0 0 0 0 0 0.35 0"/>
<feBlend mode="normal" in2="BackgroundImageFix" result="effect1_dropShadow"/>
<feColorMatrix in="SourceAlpha" type="matrix" values="0 0 0 0 0 0 0 0 0 0 0 0 0 0 0 0 0 0 127 0"/>
<feOffset dy="2"/>
<feGaussianBlur stdDeviation="1.5"/>
<feColorMatrix type="matrix" values="0 0 0 0 0 0 0 0 0 0 0 0 0 0 0 0 0 0 0.25 0"/>
<feBlend mode="normal" in2="effect1_dropShadow" result="effect2_dropShadow"/>
<feBlend mode="normal" in="SourceGraphic" in2="effect2_dropShadow" result="shape"/>
<feColorMatrix in="SourceAlpha" type="matrix" values="0 0 0 0 0 0 0 0 0 0 0 0 0 0 0 0 0 0 127 0" result="hardAlpha"/>
<feOffset dy="10"/>
<feGaussianBlur stdDeviation="7.5"/>
<feComposite in2="hardAlpha" operator="arithmetic" k2="-1" k3="1"/>
<feColorMatrix type="matrix" values="0 0 0 0 0 0 0 0 0 0 0 0 0 0 0 0 0 0 0.4 0"/>
<feBlend mode="normal" in2="shape" result="effect3_innerShadow"/>
</filter>
<filter id="filter22_d" x="656.064" y="1518" width="231.936" height="205.998" filterUnits="userSpaceOnUse" color-interpolation-filters="sRGB">
<feFlood flood-opacity="0" result="BackgroundImageFix"/>
<feColorMatrix in="SourceAlpha" type="matrix" values="0 0 0 0 0 0 0 0 0 0 0 0 0 0 0 0 0 0 127 0"/>
<feOffset dx="10" dy="5"/>
<feGaussianBlur stdDeviation="10"/>
<feColorMatrix type="matrix" values="0 0 0 0 0 0 0 0 0 0 0 0 0 0 0 0 0 0 0.25 0"/>
<feBlend mode="normal" in2="BackgroundImageFix" result="effect1_dropShadow"/>
<feBlend mode="normal" in="SourceGraphic" in2="effect1_dropShadow" result="shape"/>
</filter>
</defs>
</svg>
