<svg width="4328" height="3084" viewBox="0 0 4328 3084" fill="none" xmlns="http://www.w3.org/2000/svg">
<mask id="mask0" mask-type="alpha" maskUnits="userSpaceOnUse" x="0" y="0" width="4328" height="3084">
<rect width="4328" height="3084" fill="#C4C4C4"/>
</mask>
<g mask="url(#mask0)">
<mask id="mask1" mask-type="alpha" maskUnits="userSpaceOnUse" x="966" y="-247" width="3489" height="3118">
<rect x="1124.64" y="-246.979" width="3335" height="2942" transform="rotate(3.08458 1124.64 -246.979)" fill="#C4C4C4"/>
</mask>
<g mask="url(#mask1)">
<path fill-rule="evenodd" clip-rule="evenodd" d="M1074.84 335.957L4357.87 499.082L4237.14 2875.43L932.684 2701.96L1074.84 335.957Z" fill="#272361"/>
<g filter="url(#filter0_d)">
<path fill-rule="evenodd" clip-rule="evenodd" d="M3596.52 1252.64C3753.24 1175.15 4218.41 1141.51 4218.41 1141.51L4188.89 1689.36C3904.93 1985.86 3516.36 2082.57 3151.42 2172.09L2358.17 2767.8L938.632 2681.3L990.186 1634.87C990.186 1634.87 1624.65 1935.59 1980.91 1954.79C2023.21 1957.07 2077.7 1934.15 2149.66 1903.89C2213.55 1877.02 2291.21 1844.36 2386.33 1818.41C2398.91 1814.97 2410.51 1811.89 2421.4 1808.99C2499.26 1788.29 2540.64 1777.28 2639.54 1719.09C2663.82 1704.8 2684.7 1690.17 2704.42 1676.34C2751.67 1643.22 2792.31 1614.74 2857.24 1606.81C2896.92 1601.97 2942.71 1611.38 2991.36 1621.39C3052.04 1633.86 3117.16 1647.25 3180.36 1635.01C3294.23 1612.98 3302.01 1608.86 3382.74 1500.49C3409.25 1464.9 3424.61 1434.59 3438.46 1407.27C3467.69 1349.6 3490.17 1305.23 3596.52 1252.64ZM3405.72 1576.74C3399.74 1566.48 3380.27 1591.56 3383.69 1610.95C3387.1 1630.35 3389.87 1646.07 3409.19 1642.67C3423.77 1640.1 3427.17 1616.87 3411.91 1611.86C3402.92 1608.92 3404.44 1600.83 3406 1592.57C3407.08 1586.81 3408.18 1580.96 3405.72 1576.74ZM2430.99 1931.31C2425.42 1929.79 2411.09 1920.23 2406.86 1916.01C2405.86 1915.01 2404.81 1914 2403.75 1912.98L2403.74 1912.97C2393.96 1903.55 2383.17 1893.15 2401.85 1883.63C2414.08 1877.39 2419.03 1882.23 2423.88 1886.98C2427.25 1890.28 2430.57 1893.53 2436.25 1893.03C2438.17 1892.86 2440.47 1892.01 2442.97 1891.08C2448.34 1889.09 2454.62 1886.76 2460.02 1890.16C2470.05 1896.49 2468.57 1910.29 2462.43 1920.44C2456.28 1930.59 2447.33 1935.77 2430.99 1931.31ZM3475.46 1520.08C3480.15 1520.33 3484.24 1515.17 3484.6 1508.55C3484.95 1501.94 3481.44 1496.37 3476.76 1496.11C3472.07 1495.86 3467.98 1501.02 3467.62 1507.64C3467.27 1514.26 3470.78 1519.83 3475.46 1520.08Z" fill="#2E3690"/>
</g>
<g filter="url(#filter1_d)">
<path fill-rule="evenodd" clip-rule="evenodd" d="M4127.24 1170.14C4127.24 1170.14 4011.06 1021.58 3794.47 1036.04C3697.67 1042.51 3668.48 981.393 3637.7 916.963C3614.84 869.098 3591.1 819.401 3538.11 794.22C3479.06 766.153 3396.12 735.067 3378.02 745.213C3346.64 762.799 3329.44 762.3 3310.98 761.765C3292.57 761.231 3272.9 760.66 3236.66 777.975C3159.85 814.674 3132.13 868.147 3106.55 1010.14C3099.17 1051.09 3099.49 1093.23 3099.81 1137.15C3100.26 1197.03 3100.72 1260.21 3081.77 1328.19C3050.66 1439.76 2979.55 1473.31 2925.51 1498.8L2925.51 1498.81C2922.47 1500.24 2919.49 1501.65 2916.57 1503.04C2883.68 1518.75 2855.81 1520.62 2827.41 1522.53C2795.86 1524.66 2763.67 1526.82 2723.24 1548.04C2683.23 1569.04 2669.97 1591.49 2657.12 1613.24C2645.28 1633.26 2633.8 1652.69 2602.13 1669.85C2540.53 1703.24 2470.75 1712.28 2385.74 1723.29C2379.57 1724.09 2373.31 1724.9 2366.97 1725.73C2335.97 1729.79 2292.89 1763.44 2239.74 1804.95C2162.09 1865.6 2062.95 1943.03 1948.57 1969.57C1409.22 1988.86 989.557 1646.56 989.557 1646.56L1060.12 505.102L3703.01 540.404C3703.01 540.404 3925.58 622.796 4027.09 752.001C4141.28 897.327 4127.24 1170.14 4127.24 1170.14ZM2949 1069.81C2946.3 1074.48 2941.69 1076.86 2938.7 1075.13C2935.71 1073.4 2935.48 1068.22 2938.18 1063.55C2940.88 1058.88 2945.49 1056.49 2948.48 1058.22C2951.47 1059.95 2951.7 1065.13 2949 1069.81ZM2945.88 1443.72C2948.86 1445.45 2953.48 1443.06 2956.18 1438.39C2958.88 1433.72 2958.65 1428.53 2955.66 1426.81C2952.67 1425.08 2948.06 1427.46 2945.36 1432.13C2942.66 1436.8 2942.89 1441.99 2945.88 1443.72Z" fill="#2E3690"/>
</g>
<g filter="url(#filter2_d)">
<path fill-rule="evenodd" clip-rule="evenodd" d="M4072.38 952.376C4072.38 952.376 4085.9 958.596 4086.47 982.079L4072.38 952.376ZM4086.47 982.079L4234.94 1295.12L4173.88 1967.81L3952.91 2710.42C3656.03 2704.12 3555.96 2562.22 3501.61 2053.26C3501.61 2053.26 3101.38 1719.92 3020.26 1827.53C2971.91 1891.67 2959.6 2024.05 2959.6 2024.05L2947.01 2257.72L2800.43 2487.54L2396.16 2779.69L943.053 2702.52L955.359 2281.17C955.359 2281.17 1483.64 2210.07 1553.87 2205.75C1597.2 2203.09 1618.65 2226.36 1635.06 2244.16C1645.25 2255.2 1653.49 2264.14 1663.82 2263.46C1678.24 2262.51 1685.28 2247.24 1693.03 2230.44C1699.75 2215.85 1707.01 2200.12 1720.09 2191.6C1735.52 2181.56 1750.3 2185.63 1764.65 2189.59C1776.45 2192.84 1787.97 2196.01 1799.34 2191.19C1812.31 2185.68 1814.46 2174.07 1816.55 2162.72C1818.52 2152.04 1820.45 2141.6 1831.31 2136.71C1843.7 2131.13 1856.12 2138.4 1866.9 2144.7C1875.62 2149.81 1883.27 2154.29 1888.98 2150.83C1894.26 2147.62 1895.11 2139.58 1896.14 2129.86C1897.59 2116.1 1899.39 2098.97 1914.64 2087.41C1927.35 2077.77 1938.21 2076.65 1950.67 2075.36C1963.72 2074.01 1978.51 2072.48 1999.01 2060.81C2018.75 2049.56 2025.78 2041.38 2033.62 2032.25C2041.68 2022.85 2050.61 2012.46 2075.14 1996.69C2090.85 1986.61 2099.07 1978.18 2106.15 1970.93C2120.89 1955.85 2130.66 1945.84 2192.5 1936.5C2233.17 1930.36 2266.29 1936.3 2299.66 1942.28C2341.41 1949.77 2383.55 1957.33 2441.33 1941.39C2501.69 1924.74 2516.65 1901.42 2534.83 1873.09C2547.97 1852.63 2562.78 1829.55 2597.61 1804.47C2680.62 1744.68 2773.42 1702.25 2773.42 1702.25C2773.42 1702.25 2858.86 1651.86 2963.34 1645.69C3067.83 1639.51 3180.26 1677.94 3180.26 1677.94C3180.26 1677.94 3286.86 1727.2 3366.08 1716.64C3445.29 1706.09 3459.34 1698.16 3501.22 1629.48C3525.27 1590.06 3525.43 1548.7 3525.58 1508.36C3525.69 1478.45 3525.8 1449.09 3535.66 1421.5C3558.8 1356.69 3579.94 1323.44 3638.38 1275.05C3696.83 1226.64 3763.43 1197.75 3883.07 1188C3914.18 1185.47 3965.81 1179.55 4013.25 1157.49C4065.11 1133.39 4068.13 1100.62 4071.41 1065.01C4072.84 1049.51 4074.32 1033.47 4079.89 1017.37C4084.99 1002.65 4086.68 991.093 4086.47 982.079ZM3737.5 1517.17C3734.31 1526.31 3734.68 1539.89 3734.99 1551.6C3735.19 1558.8 3735.36 1565.3 3734.68 1569.6C3705.65 1625.12 3678.08 1623.63 3665.7 1622.96C3614.28 1620.19 3612.39 1588.48 3628.93 1571.41C3657.05 1542.38 3652.33 1509.08 3633.2 1492.03C3606.4 1441.51 3652.04 1398.27 3695.27 1390.22C3739.78 1381.92 3820.51 1407.66 3764.19 1481.06C3761.79 1485.04 3758.23 1488.79 3754.41 1492.82C3748.1 1499.47 3741.1 1506.86 3737.5 1517.17ZM3568.03 1858.93C3577.33 1862.44 3588.34 1856.06 3592.63 1844.69C3596.91 1833.33 3592.85 1821.27 3583.54 1817.76C3574.24 1814.25 3563.23 1820.63 3558.94 1832C3554.66 1843.37 3558.72 1855.43 3568.03 1858.93ZM2831.83 1785.95C2816.11 1792.93 2800.01 1791.02 2795.86 1781.68C2791.71 1772.34 2801.08 1759.11 2816.8 1752.13C2832.51 1745.15 2848.61 1747.06 2852.76 1756.39C2856.91 1765.73 2847.54 1778.96 2831.83 1785.95ZM2023.39 2148.17C1996.19 2164.16 1978.45 2174.59 1997.16 2198.15C2024.05 2232.01 2063.15 2240.63 2118.04 2184.55C2151.09 2155.91 2182.98 2076.19 2152.52 2068.45C2113.14 2058.46 2102.93 2072.57 2088.47 2092.55C2080.97 2102.93 2072.32 2114.88 2057.85 2125.87C2045.99 2134.88 2033.97 2141.94 2023.39 2148.17Z" fill="#135EAB"/>
</g>
<g filter="url(#filter3_d)">
<path fill-rule="evenodd" clip-rule="evenodd" d="M4090.52 987.403C4085.66 981.244 4082.73 980.523 4076.78 979.058C4070.1 977.412 4059.6 974.828 4038.28 962.556C4028.47 956.909 4006.01 961.672 3979.52 967.292C3957.1 972.049 3931.78 977.421 3908.78 977.61C3796.4 978.535 3689.85 910.659 3660.23 832.574C3656.58 822.978 3652.41 810.222 3647.64 795.633L3647.64 795.626C3618.72 707.2 3567.77 551.399 3479.24 622.983C3399.57 687.403 3321.62 688.407 3245.34 679.979C3232.7 678.582 3184.63 680.327 3167.98 693.836C3149.93 708.483 3169.72 735.628 3186.81 759.051C3200.47 777.787 3212.39 794.141 3201.82 799.811C3162 821.175 3155.17 834.163 3147.83 848.118C3140.52 862.031 3132.7 876.906 3091.17 902.005C3064.3 918.24 3036.26 925.108 3009.58 931.641C2953.66 945.336 2903.75 957.559 2883.32 1051.54C2866.93 1126.9 2888.79 1173.93 2911.06 1221.89C2929.82 1262.24 2948.87 1303.25 2945.68 1362.34C2940.68 1455.12 2858.49 1512.32 2786.57 1546.05C2687.94 1592.31 2586.44 1621.63 2488.87 1634.66C2374.57 1649.91 2303.79 1668.25 2225.81 1700.33C2223.74 1701.19 2221.72 1702.02 2219.75 1702.82C2164.25 1725.6 2149.27 1731.75 2094.41 1804.44C2064.34 1844.28 2048.2 1877.38 2032.77 1909.01C2019.05 1937.15 2005.9 1964.13 1984.01 1993.64C1937.51 2056.33 1933.41 2059.37 1906.44 2060.9C1893.3 2061.64 1886.24 2056.31 1879.51 2051.23C1871.99 2045.56 1864.89 2040.2 1850.19 2043.97C1836.67 2047.45 1829.49 2058.12 1822.67 2068.26C1815.42 2079.04 1808.58 2089.21 1794.97 2089.52C1782.43 2089.8 1774.9 2078.92 1767.28 2067.89C1758.85 2055.7 1750.3 2043.35 1734.73 2045.69C1720.54 2047.83 1714.79 2060.5 1708.72 2073.87C1702.09 2088.47 1695.09 2103.89 1676.33 2107.39C1659.04 2110.6 1632.02 2110.84 1602.03 2111.1C1569.69 2111.39 1533.9 2111.7 1503.15 2115.81C1443.88 2123.74 1373.88 2186.23 1373.88 2186.23L1240.03 2275.38L953.83 2309.53L1067.42 509.51L3202.1 506.401L3300.47 511.5L3610.53 528.208L4143.26 816.995C4143.26 816.995 4103.3 1003.61 4090.52 987.403ZM2765.36 1010.02C2760.04 1023.51 2758.65 1038.83 2757.33 1053.31C2754.88 1080.23 2752.69 1104.25 2726.02 1108.22C2651.82 1119.24 2626.83 1044.13 2654.14 973.999C2671.81 896.992 2772.25 859.271 2805.12 904.176C2822.26 927.602 2806.88 948.052 2789.65 970.958C2780.57 983.032 2770.98 995.788 2765.36 1010.02ZM2621.82 1579.82C2629.48 1584.56 2641.3 1579.36 2648.23 1568.18C2655.15 1557.01 2654.56 1544.11 2646.9 1539.36C2639.24 1534.61 2627.42 1539.82 2620.49 1550.99C2613.57 1562.16 2614.16 1575.07 2621.82 1579.82ZM3040.93 874.632C3044.48 882.422 3043.28 890.594 3038.26 892.883C3033.23 895.173 3026.28 890.714 3022.73 882.924C3019.18 875.134 3020.38 866.963 3025.4 864.673C3030.43 862.383 3037.38 866.842 3040.93 874.632ZM2657.33 1209.92C2660.98 1208.26 2661.85 1202.33 2659.27 1196.67C2656.69 1191.01 2651.64 1187.77 2647.99 1189.44C2644.34 1191.1 2643.47 1197.03 2646.05 1202.69C2648.63 1208.35 2653.68 1211.58 2657.33 1209.92Z" fill="#135EAB"/>
</g>
<g filter="url(#filter4_d)">
<path fill-rule="evenodd" clip-rule="evenodd" d="M3846.06 1541.68C3910.82 1461.94 4188.63 1477.89 4188.63 1477.89L4163.16 1588.18C4163.16 1588.18 4160.03 1550.53 4144.65 1534.61C4119.83 1508.91 4083.67 1505.39 4049.1 1514.44C3999.92 1527.3 3895.68 1573.77 3954.1 1613.97C3980.69 1632.26 3994.32 1626.19 4013.68 1617.57C4025.79 1612.17 4040.14 1605.78 4061.31 1603.72C4078.54 1602.05 4091.47 1609.57 4103.67 1616.67C4117.93 1624.97 4131.2 1632.69 4149.18 1624.48C4203.76 1599.58 4090.21 1710.5 4046.16 1745.62C4004.89 1778.52 3952.33 1813.52 3893.74 1848.81C3627.79 2009 3237.81 2175.07 3217.16 2177.13C3210.32 2177.82 3221.77 2210.4 3239.39 2260.53C3299.11 2430.44 3429.66 2801.89 3158.64 2815.85L2278.42 2768.42L2035.27 2755.32L1792.12 2742.21L931.872 2695.86L958.856 2337.11C958.856 2337.11 1162.05 2254.71 1339.11 2253.78C1435.57 2253.28 1488.6 2277.63 1536.32 2299.54C1576.2 2317.85 1612.38 2334.46 1667.09 2333.45C1787.28 2331.2 1822.03 2326.99 1899.45 2268.73C1934.75 2242.16 1953.71 2216.65 1972.36 2191.55C1994.62 2161.61 2016.43 2132.26 2065.02 2102.41C2151.86 2049.05 2157.7 2049.06 2248.73 2049.2C2251.33 2049.21 2254 2049.21 2256.74 2049.22C2275.49 2049.24 2291.89 2049.68 2307.78 2050.12L2307.79 2050.12C2351.56 2051.31 2391.55 2052.4 2466.57 2044.2C2568.85 2033.03 2615.93 2024.56 2665.86 2004.52C2717.59 1983.75 2748 1956.15 2782.15 1921.75C2795.53 1908.28 2806.42 1896.51 2816.2 1885.94C2844.19 1855.69 2863.06 1835.3 2905.01 1813.09C2956.65 1785.75 2990.89 1777.18 3049.18 1773.06C3123.65 1767.8 3180 1787.57 3237.03 1808.51C3260.49 1817.13 3284.93 1832.27 3311.06 1848.46C3364.81 1881.77 3425.72 1919.5 3499.96 1914.01L3500.81 1913.94C3592.77 1907.14 3629.99 1904.38 3713.81 1810.19C3759.17 1759.23 3775.24 1708.33 3790.57 1659.73C3803.67 1618.23 3816.24 1578.41 3846.06 1541.68ZM2262.73 2160.75C2256.58 2185.87 2234.22 2189.37 2204.69 2194C2186.32 2196.88 2165.18 2200.19 2143.44 2209.4C2121.94 2218.52 2106.81 2230.49 2094.37 2240.35C2074.01 2256.47 2060.82 2266.91 2038.61 2249.82C1997.93 2218.51 2042.19 2140.4 2098.88 2116.37C2155.58 2092.33 2275 2110.68 2262.73 2160.75ZM3158.36 2563.33C3177.83 2551.94 3180.7 2520.64 3164.77 2493.42C3148.84 2466.21 3120.15 2453.39 3100.68 2464.78C3081.21 2476.18 3078.34 2507.47 3094.26 2534.69C3110.19 2561.9 3138.89 2574.73 3158.36 2563.33ZM3275.72 1993.18C3253.69 2024.54 3237.15 2013.53 3213.96 1998.09C3191.11 1982.88 3161.8 1963.37 3114.42 1975.81C3105.55 1978.14 3096.29 1980.85 3086.84 1983.61L3086.83 1983.61C3025.73 2001.49 2956.43 2021.76 2932.16 1957.15C2921.95 1886.49 3051.63 1852.92 3120.84 1856.65C3190.05 1860.38 3319.44 1930.95 3275.72 1993.18ZM3378.69 1968.52C3388.07 1969.03 3395.98 1963.62 3396.37 1956.45C3396.75 1949.29 3389.47 1943.06 3380.09 1942.56C3370.72 1942.05 3362.8 1947.46 3362.42 1954.63C3362.03 1961.79 3369.32 1968.02 3378.69 1968.52Z" fill="#0081C3"/>
</g>
<g filter="url(#filter5_d)">
<path fill-rule="evenodd" clip-rule="evenodd" d="M4074.83 819.109C4045.35 802.877 4014.16 785.706 3985.9 754.453C3906.86 667.049 3789.92 535.073 3789.92 535.073L3300.56 519.247C3249.8 601.645 3191.2 590.218 3056.14 511.343L1071.21 447.152L960.986 2176.73L1146.87 2110.35C1146.87 2110.35 1472.24 2006.68 1646.24 1938.43C1682.59 1924.17 1732.04 1918.86 1782.27 1913.47L1782.27 1913.47C1812.01 1910.28 1842.02 1907.05 1869.74 1901.93C1935.53 1889.76 1978.71 1870.55 2023.37 1810.19C2039.59 1788.28 2047.44 1756.71 2056.24 1721.31C2070.21 1665.16 2086.56 1599.37 2142.55 1547.25C2215.19 1479.62 2284.08 1453.14 2400.93 1431.75C2404.63 1431.07 2408.24 1430.42 2411.75 1429.78C2502.26 1413.35 2528.41 1408.6 2586.52 1298.48C2616.7 1241.27 2616.87 1183.41 2617.03 1127.83C2617.2 1072.25 2617.35 1018.96 2647.49 970.89C2686.26 909.06 2738.57 894.261 2788.5 880.134C2813.21 873.143 2837.34 866.317 2858.96 854.038C2902.25 829.454 2923.71 795.276 2946.92 758.31L2946.92 758.309C2958.73 739.5 2970.99 719.969 2986.81 700.614C3009.4 672.975 3071.53 662.176 3107.07 666.482C3154.82 672.256 3207.72 670.862 3275.18 665.063C3310.71 662.008 3340.54 636.506 3369.71 611.56C3395.93 589.143 3421.63 567.175 3450.46 562.346C3512.36 551.978 3632.23 562.27 3631.03 603.121C3629.83 643.973 3552.84 752.82 3420.4 777.207C3350.86 790.014 3291.13 775.181 3234.04 761.002C3182.41 748.182 3132.94 735.896 3080.31 745.059C2969.45 764.355 2948.07 842.925 2966.62 859.553C2973.23 865.478 2980.29 859.145 2991.2 849.357C3010.93 831.657 3043.25 802.66 3108.27 814.414C3161.4 824.027 3238.56 860.403 3296.65 887.792L3296.65 887.793C3325.11 901.21 3349 912.47 3363.24 917.369C3406.54 932.269 3503.66 960.056 3666.82 911.106C3685.69 905.444 3703.07 896.132 3720.94 886.555C3749.04 871.501 3778.36 855.793 3816.61 852.585C3907.48 844.962 4028.23 916.761 4077.17 984.18C4107.83 1026.41 4094.12 1060.23 4077.74 1100.67C4064.39 1133.62 4049.26 1170.96 4054.91 1220.83C4057.82 1246.56 4074.3 1282.64 4092.57 1322.62C4124.22 1391.92 4161.24 1472.94 4142.24 1532.14C4132.98 1551.17 4127.7 1564.6 4137.65 1543.75C4139.45 1539.98 4140.97 1536.11 4142.24 1532.14C4151.03 1514.1 4163.39 1491.02 4169.73 1487.39C4180 1481.5 4271.03 1272.3 4237.28 1116.49C4235.35 1107.57 4233.5 1098.78 4231.67 1090.12C4216.29 1017.31 4202.67 952.848 4160.94 888.549C4138.7 854.28 4107.83 837.283 4074.83 819.109ZM3538.57 879.486C3561.12 875.138 3577.7 862.805 3575.6 851.94C3573.51 841.074 3553.53 835.792 3530.98 840.141C3508.43 844.489 3491.85 856.822 3493.94 867.688C3496.04 878.553 3516.02 883.835 3538.57 879.486ZM2957.67 663.484C2948.08 681.115 2929.46 689.512 2916.1 682.239C2902.74 674.966 2899.69 654.778 2909.29 637.147C2918.88 619.515 2937.5 611.118 2950.86 618.391C2964.22 625.664 2967.27 645.852 2957.67 663.484ZM2389.44 1351.9C2445.05 1388.44 2518.53 1360.86 2548.63 1278.36C2574.78 1206.66 2544.79 1106.41 2493.71 1126.68C2472.25 1135.19 2470.04 1150.75 2467.49 1168.68L2467.49 1168.68C2466.27 1177.26 2464.98 1186.39 2461.46 1195.54C2453.6 1215.97 2433.79 1227.74 2413.75 1239.64C2399.27 1248.24 2384.67 1256.91 2374.38 1268.97C2358.24 1287.88 2358.6 1331.63 2389.44 1351.9ZM2159.79 1299.97C2155.63 1314.62 2144.36 1324.27 2134.62 1321.5C2124.88 1318.74 2120.35 1304.61 2124.51 1289.96C2128.67 1275.3 2139.94 1265.66 2149.68 1268.42C2159.42 1271.19 2163.95 1285.31 2159.79 1299.97ZM2150.14 1484.63C2160.16 1481.52 2166.5 1473.23 2164.29 1466.11C2162.08 1458.99 2152.17 1455.73 2142.15 1458.84C2132.12 1461.94 2125.79 1470.24 2127.99 1477.36C2130.2 1484.48 2140.12 1487.73 2150.14 1484.63Z" fill="#2BAAE2"/>
</g>
<g filter="url(#filter6_d)">
<path fill-rule="evenodd" clip-rule="evenodd" d="M3071.19 529.389C3347.89 418.731 3704.92 435.239 3943.4 613.945C4156 773.262 4277.92 925.937 4304.91 1190.23C4332.6 1461.28 4053.04 1840.86 4053.04 1840.86L3964.33 2009.56C3964.33 2009.56 3753.64 2135.91 3576.72 2177.83C3463.57 2204.63 3364.73 2187.57 3307.86 2177.75C3275.8 2172.22 3257.08 2168.99 3256.63 2177.21C3255.8 2192.73 3361.75 2245.22 3534.41 2262.84C3707.09 2280.46 3951.06 2151.08 3951.06 2151.08L4027.48 2175.73L3964.34 2297.51C3964.34 2297.51 3677.9 2650.31 3426.02 2623.52C3349.26 2615.35 3235.4 2571.18 3235.4 2571.18L3121.27 2307.25C3121.27 2307.25 2950.42 2009.13 2751.29 1994.48L2750.43 1994.42C2711.24 1991.53 2611.68 1984.18 2503.02 2043.52C2391.76 2104.28 2332.6 2154.84 2275.31 2203.81C2231.9 2240.9 2189.57 2277.09 2126.46 2316.09C1980.06 2406.59 1938.66 2402.63 1938.66 2402.63C1938.66 2402.63 1977.34 2430.68 2104.15 2372.39C2174.98 2339.83 2246.05 2291.99 2309.19 2249.48L2309.19 2249.48L2309.2 2249.48C2359.08 2215.9 2404 2185.66 2439.94 2168.92C2549.87 2117.73 2689.33 2148.41 2761.37 2191.7C2872.88 2258.72 2932.33 2361.47 2987.77 2457.3C3034.69 2538.39 3078.74 2614.52 3149.05 2659.85C3278.87 2743.55 3441.04 2679.01 3613.29 2610.47L3613.3 2610.47L3613.35 2610.45L3613.36 2610.44L3613.36 2610.44L3613.37 2610.44L3613.38 2610.43C3644.64 2597.99 3676.24 2585.42 3708.03 2573.58C3875.71 2511.13 4105.46 2345.56 4105.46 2345.56L3915.9 2862.72L932.792 2699.94L948.635 2405.94C948.635 2405.94 1254.26 2395.94 1426.9 2375.92C1563.3 2360.11 1579.12 2352.78 1609.43 2338.75C1617.48 2335.02 1626.56 2330.82 1639.19 2325.86C1658.54 2318.26 1670.94 2311.21 1681.36 2305.29C1703.34 2292.79 1716.55 2285.27 1767.83 2288.06C1804.04 2290.04 1834.47 2300.95 1864.18 2311.6C1896.49 2323.19 1927.96 2334.48 1965.12 2333.65C2015.18 2332.52 2032.71 2319.48 2114.37 2258.73L2114.4 2258.71L2114.44 2258.68L2114.6 2258.56C2122.46 2252.71 2130.92 2246.41 2140.07 2239.65C2178.52 2211.18 2223.1 2175.13 2264.07 2140.94C2286.43 2122.29 2307.71 2104.17 2326.34 2088.17C2366.11 2054 2393.73 2029.4 2393.73 2029.4L2414.33 2014.23C2414.33 2014.23 2560.5 1894.26 2603.27 1875.09L2604.24 1874.65C2629.67 1863.23 2740.45 1813.48 2884.5 1829.22C3030.49 1845.16 3187.23 1938.87 3187.23 1938.87C3187.23 1938.87 3365.2 2031.36 3521.91 1987.13C3622.77 1958.67 3680.43 1905 3736.83 1852.51C3768.07 1823.44 3798.91 1794.73 3836.49 1770.87C3861.13 1749.27 3909.63 1718.15 3960.47 1685.53L3960.48 1685.53L3960.48 1685.53C4019.15 1647.89 4080.92 1608.25 4112.72 1578.95C4174.18 1522.32 4148.05 1435.55 4123.11 1352.77C4103.25 1286.82 4084.14 1223.41 4110.7 1179.77C4170.58 1081.35 4178.7 930.566 3963.4 846.859C3958.73 845.044 3953.74 843.139 3948.49 841.134L3948.39 841.095L3948.37 841.089C3872.02 811.929 3740.17 761.573 3718.29 656.394C3694.43 541.695 3454.55 503.988 3342.62 581.57C3284.33 621.97 3221.46 635.021 3158.73 648.043C3082.8 663.804 3007.08 679.521 2939.97 743.639C2873.98 806.679 2681.76 796.321 2681.76 796.321C2681.76 796.321 2907.99 594.657 3071.19 529.389ZM2562.55 1982.11C2573.33 1979.71 2580.71 1971.65 2579.03 1964.1C2577.36 1956.55 2567.26 1952.38 2556.47 1954.77C2545.69 1957.17 2538.31 1965.23 2539.99 1972.78C2541.66 1980.33 2551.77 1984.5 2562.55 1982.11ZM3199.32 2035.6C3178.59 2062.02 3148.14 2046.04 3117.82 2030.14C3100.17 2020.88 3082.58 2011.65 3066.97 2010.81C3062.53 2010.57 3057.63 2013.62 3052.07 2017.09C3041.36 2023.76 3028.22 2031.94 3011.34 2020.96C2988.26 1993.96 3024.92 1936.3 3103.15 1943.29C3181.38 1950.28 3232.12 1993.8 3199.32 2035.6ZM3703.58 2032.95C3711.5 2038.7 3724.22 2034.67 3731.99 2023.96C3739.75 2013.25 3739.62 1999.91 3731.7 1994.17C3723.78 1988.42 3711.06 1992.45 3703.3 2003.16C3695.53 2013.87 3695.66 2027.21 3703.58 2032.95ZM3997.6 750.822C3976.65 743.815 3960.63 724.222 3970.92 715.536C3975.31 711.828 3978.05 714.197 3981.7 717.346C3986.59 721.574 3993.11 727.208 4007.44 721.423C4032.43 711.33 4046.32 731.266 4042.52 742.646C4038.71 754.026 4018.55 757.829 3997.6 750.822ZM4197.68 1239.09C4200.77 1238.4 4202.35 1233.75 4201.23 1228.71C4200.1 1223.67 4196.69 1220.14 4193.61 1220.83C4190.53 1221.52 4188.94 1226.16 4190.07 1231.2C4191.19 1236.24 4194.6 1239.77 4197.68 1239.09ZM3183.98 526.305C3182.92 525.628 3181.95 524.919 3181.03 524.249C3177.15 521.407 3174.22 519.268 3170.15 523.321C3160.6 532.815 3178.16 551.039 3199.61 556.319C3221.06 561.599 3240.84 556.169 3243.71 544.518C3246.58 532.866 3231.11 514.126 3207.02 526.218C3206.87 526.296 3206.71 526.373 3206.56 526.448C3203.95 517.317 3197.58 511.145 3191.78 512.439C3187.06 513.491 3184.1 519.177 3183.98 526.305Z" fill="#4CC8ED"/>
</g>
<g filter="url(#filter7_d)">
<path fill-rule="evenodd" clip-rule="evenodd" d="M1954.11 1789.74C1855.35 1940.2 1665.27 1971.33 1665.27 1971.33L960.987 2176.73L1058.52 511.065L2540.28 594.482C2540.28 594.482 2536.65 619.433 2511.84 655.525C2499.32 673.754 2478.71 695.014 2462.73 711.5C2447.06 727.663 2435.84 739.238 2441.05 738.87C2449.26 738.293 2510.27 698.724 2538.42 671.485C2554.69 655.75 2567.21 639.904 2577.92 626.342L2577.93 626.34L2577.93 626.338C2594.07 605.915 2606.11 590.672 2620.67 588.789C2644.91 585.664 2547.53 841.825 2437.74 991.239C2372.02 1080.66 2321.18 1105.45 2270.05 1130.38C2238.65 1145.69 2207.14 1161.05 2172.01 1191.47C2070.86 1279.05 2060.32 1369.48 2060.32 1369.48C2060.32 1369.48 2052.88 1639.28 1954.11 1789.74ZM1858.64 1839.23C1865.12 1844.04 1875.92 1840.48 1882.75 1831.28C1889.59 1822.08 1889.87 1810.71 1883.39 1805.9C1876.91 1801.08 1866.11 1804.64 1859.28 1813.84C1852.44 1823.05 1852.16 1834.41 1858.64 1839.23ZM2367.51 981.529C2375.65 999.491 2350.52 1028.41 2311.39 1046.13C2272.26 1063.85 2233.95 1063.65 2225.82 1045.68C2217.68 1027.72 2242.81 998.801 2281.94 981.085C2321.07 963.369 2359.38 963.568 2367.51 981.529ZM2532.33 749.268C2538.05 750.554 2544.26 744.645 2546.18 736.069C2548.11 727.494 2545.03 719.499 2539.3 718.213C2533.58 716.927 2527.37 722.836 2525.45 731.412C2523.52 739.987 2526.6 747.982 2532.33 749.268Z" fill="#4CC8ED"/>
</g>
<g filter="url(#filter8_d)">
<path fill-rule="evenodd" clip-rule="evenodd" d="M3966.26 1945.1C3966.26 1945.1 3622.1 2256.72 3403.41 2289.99C3113.05 2334.17 2996.03 2032.02 2656.2 2081.45C2396.31 2119.24 2303.34 2400.64 2055.13 2469.29C1806.92 2537.95 1755.7 2374.33 1664.5 2364.46C1550.19 2352.09 1567.14 2439.38 1376.44 2415.67C1233.34 2397.89 949.069 2397.86 949.069 2397.86L945.219 2680.06L3905.21 2862.15L3935.91 2482.73C3935.91 2482.73 3823.95 2546.2 3694.27 2602.04C3574.92 2653.44 3444.02 2697.52 3294.1 2699.14C3099.68 2701.24 3046.64 2569.99 2904.48 2423.82C2775.67 2291.38 2736.19 2309.9 2752.89 2304.02C2775.51 2296.08 2860.27 2282.19 3012.41 2432.58C3147.12 2565.75 3285.2 2608.71 3493.42 2595.23C3724.65 2580.28 3944.54 2376.76 3944.54 2376.76L3966.26 1945.1Z" fill="#F2F2F2"/>
</g>
<g filter="url(#filter9_d)">
<path fill-rule="evenodd" clip-rule="evenodd" d="M3893.08 2861.49L948.871 2695.12L950.583 2369.77L1418.13 2405.39C1418.13 2405.39 1561.11 2399.65 1681.39 2437.97C1723.26 2451.31 1755.35 2472.13 1786.47 2492.34C1844.74 2530.15 1899.63 2565.78 2009.05 2546.01C2169.71 2516.97 2320.65 2351.84 2349.67 2320.09C2350.97 2318.66 2352.03 2317.51 2352.83 2316.65C2371.52 2296.53 2549.29 2133.2 2761.51 2134.07C2891.73 2134.6 2998.88 2189.69 3098.01 2240.66C3160.43 2272.75 3219.68 2303.21 3279.5 2317.39C3388.77 2343.28 3497.62 2286.83 3668.99 2193.74C3840.37 2100.65 3965.03 1945.04 3965.03 1945.04L3950.12 2273.38C3950.12 2273.38 3703.52 2556.78 3416.69 2550.81C3242.39 2547.18 3144.82 2466.22 3049.88 2387.43C2988.57 2336.56 2928.36 2286.6 2849.3 2258.96C2633.46 2220.95 2563.55 2252.38 2564.75 2284.51C2565.14 2294.8 2580.63 2297.4 2606.8 2301.81C2662.34 2311.15 2765.97 2328.59 2875.25 2444.75C2906.9 2478.4 2932.08 2513.88 2956.67 2548.53C3027.98 2649.02 3094.33 2742.53 3299.14 2764.08C3574.59 2793.06 3924.62 2508.12 3924.62 2508.12L3893.08 2861.49ZM1560.85 2622.88C1561.79 2605.4 1623.4 2575.88 1671.14 2564.73C1724.95 2552.15 1770.81 2576.27 1817.91 2601.02C1856.38 2621.25 1895.68 2641.91 1940.8 2643.35C1982.58 2644.69 2017.77 2636.16 2041.1 2630.5C2058.41 2626.3 2069.2 2623.69 2071.32 2627.85C2076.3 2637.64 1983.57 2704.52 1897.72 2690.1C1852.54 2682.52 1816.43 2661.01 1784.35 2641.9C1755.48 2624.71 1729.87 2609.45 1703.85 2608.05C1675.91 2606.55 1639.2 2613.77 1609.97 2619.52C1581.75 2625.07 1560.5 2629.24 1560.85 2622.88Z" fill="white"/>
</g>
<g filter="url(#filter10_d)">
<path fill-rule="evenodd" clip-rule="evenodd" d="M2563.28 590.236C2563.28 590.236 2551.08 681.782 2464.9 764.938C2378.73 848.104 2199.38 905.746 2215.73 908.27C2244.8 912.779 2403.87 866.524 2521.66 795.918C2640.48 724.706 2652.95 596.235 2652.95 596.235L2887.45 603.109C2887.45 603.109 2837.32 736.217 2758.46 819.077C2679.6 901.938 2682.72 891.199 2539.73 940.725C2410.95 985.325 2326.22 982.981 2211.75 1066.21C2121.88 1131.55 2079.8 1256.78 2059.71 1324.11C2028.85 1427.5 2032.41 1526.87 2001.02 1595.99C1929.98 1752.34 1697.07 1915.9 1697.07 1915.9C1697.07 1915.9 1503.07 2071.08 1502.88 2059.01C1502.42 2030.72 1698.84 1890.47 1824.5 1760.53C1941.51 1639.53 1933.32 1442.97 1887.26 1464.21C1841.19 1485.44 1911.78 1637.04 1675.37 1812.61C1410.75 2009.11 946.833 2439.35 946.833 2439.35L1077.9 517.091L2563.28 590.236Z" fill="#F2F2F2"/>
</g>
<g filter="url(#filter11_d)">
<path fill-rule="evenodd" clip-rule="evenodd" d="M1570.52 1812.59C1634.53 1751.86 1737.2 1701.23 1801.79 1589.77C1866.38 1478.32 1828.87 1366.8 1828.87 1366.8C1828.87 1366.8 1799.69 1279.8 1831.48 1186.68C1863.28 1093.57 1956.64 984.914 1973.73 988.478C1990.81 992.041 1912.36 1113.74 1899.82 1200.96C1887.28 1288.17 1914.06 1355.84 1914.06 1355.84C1914.06 1355.84 1912.31 1248.72 1968.1 1142.28C2023.87 1035.85 2032.69 1022.57 2137.18 930.083C2241.67 837.598 2308.22 834.784 2399.68 749.507C2491.15 664.229 2493.87 584.663 2493.87 584.663L2437.77 581.312C2437.77 581.312 2409.88 637.8 2367.65 685.516C2325.41 733.232 2268.48 764.526 2261.49 760.562C2254.5 756.608 2314.07 720.598 2339.71 669.672C2365.35 618.756 2368.39 575.138 2368.39 575.138L1089.71 511.34L946.833 2439.35C946.833 2439.35 1506.5 1873.32 1570.52 1812.59Z" fill="white"/>
</g>
<g filter="url(#filter12_d)">
<path d="M2392.29 880.867C2488.61 849.622 2595.02 805.284 2685.87 599.256L2842.64 607.705C2842.64 607.705 2747.67 790.359 2645.45 875.482C2543.22 960.604 2416.56 913.72 2195.09 1046.5C1973.63 1179.27 2093.21 1464.67 1931.77 1677.24C1798.8 1852.32 1505.84 2045.35 1505.84 2045.35C1658.02 1906.84 1804.79 1805.05 1877.2 1686.32C1943.1 1578.26 1926.86 1449.83 1952.19 1298.29C1968.45 1201.02 2036.41 1089.69 2064.5 1053.98C2146.75 949.438 2285.47 915.518 2392.29 880.867Z" fill="white"/>
</g>
<circle cx="3105.26" cy="1105.06" r="35" transform="rotate(3.08458 3105.26 1105.06)" stroke="#E0E0E0" stroke-width="15"/>
<circle cx="2336.3" cy="1455.19" r="35" transform="rotate(3.08458 2336.3 1455.19)" stroke="#E0E0E0" stroke-width="15"/>
<circle cx="3788.93" cy="1659.15" r="31" transform="rotate(3.08458 3788.93 1659.15)" stroke="#E0E0E0" stroke-width="12"/>
<circle cx="1910.34" cy="2232.89" r="24.5" transform="rotate(3.08458 1910.34 2232.89)" stroke="#F2F2F2" stroke-width="15"/>
<circle cx="2169.49" cy="1948.93" r="19.5" transform="rotate(3.08458 2169.49 1948.93)" fill="#4CC8ED"/>
<circle cx="2708.93" cy="1388.64" r="14" transform="rotate(3.08458 2708.93 1388.64)" fill="#4CC8ED"/>
<circle cx="3405.71" cy="1420.68" r="19.5" transform="rotate(3.08458 3405.71 1420.68)" fill="#4CC8ED"/>
</g>
<g filter="url(#filter13_d)">
<path fill-rule="evenodd" clip-rule="evenodd" d="M4525.05 338.846L783.477 137.22L626.028 3058.98L4367.6 3260.61L4525.05 338.846ZM1596.91 1865.72L988.958 2395.07C988.958 2395.07 1240.8 2486.11 1386.66 2459.46C1435.51 2450.53 1477.54 2426.57 1517.27 2403.91C1558.36 2380.49 1597 2358.45 1638.21 2355.87C1681.27 2353.17 1714.42 2378.21 1751.56 2406.26C1796.51 2440.22 1847.31 2478.58 1928.57 2477.47C2076.96 2475.45 2157.55 2428.44 2261.48 2335.25C2295.94 2304.36 2323.39 2278.16 2347.35 2255.29C2409.98 2195.51 2448.74 2158.52 2526.32 2120.12C2629.4 2069.1 2688.29 2043.95 2878.07 2093.59C2948.58 2112.03 3006.94 2148.66 3064.85 2185C3162.8 2246.47 3259.48 2307.15 3411.59 2277.72C3645.65 2232.43 3928.86 1974.39 3928.86 1974.39C3928.86 1974.39 4164.67 1747.35 4200.57 1374.79C4236.48 1002.24 4103.01 773.359 3953.04 660.631C3661.68 441.628 3267.43 492.279 3107.22 548.959C3010.34 583.23 2899.5 689.353 2810.92 774.157L2810.92 774.159C2767.73 815.509 2729.84 851.79 2701.44 872.201C2632.24 921.92 2539.64 942.704 2474.57 957.309L2474.56 957.309C2455.62 961.56 2439.02 965.287 2426 969.051C2358.68 988.511 2256.15 1024.11 2206.03 1069.25C2201.04 1073.74 2196.34 1077.86 2191.87 1081.79C2150.22 1118.36 2128.38 1137.53 2074.54 1275.23C2051.84 1333.29 2042.07 1391.13 2032.65 1446.86C2017.34 1537.49 2002.97 1622.53 1935.49 1693.76C1776.11 1862.01 1530.04 2061.3 1505.86 2048.57C1493.91 2042.27 1565.56 1980.51 1648.75 1908.81C1733.83 1835.47 1830.99 1751.72 1863.07 1706.3C1926.52 1616.48 1948.3 1450.41 1884.11 1454.94C1876.02 1455.52 1873.21 1472.97 1868.85 1500C1861.74 1544.08 1850.51 1613.63 1805.6 1677.04C1733.16 1779.35 1596.91 1865.72 1596.91 1865.72ZM2213.57 901.711C2213.57 901.711 2395.56 834.764 2478.56 743.392C2552.03 662.516 2559.74 610.856 2562.72 590.921L2562.72 590.918C2563.04 588.779 2563.31 587.006 2563.59 585.601C2568.23 562.852 2580.05 532.029 2612.03 532.887C2630.72 533.392 2660.45 557.24 2654.3 594.234C2654.04 595.823 2653.77 597.519 2653.49 599.319L2653.48 599.34C2647.82 635.107 2635.73 711.473 2530.85 784.643C2420.67 861.51 2213.57 901.711 2213.57 901.711ZM2916.9 2347.98C2800.66 2281.82 2762.07 2289.59 2758.64 2295.02C2757.56 2296.72 2761.87 2299.3 2770.79 2304.64C2790.24 2316.28 2831.58 2341.02 2886.71 2398.36C2917.08 2429.95 2945.19 2462.35 2972.17 2493.45C3045.07 2577.48 3109.77 2652.06 3188.71 2675.65C3346.21 2722.72 3414.26 2699.84 3574.41 2645.99C3583.72 2642.86 3593.34 2639.62 3603.31 2636.29C3784.29 2575.8 3930.18 2468.41 3930.18 2468.41C3930.18 2468.41 3979.66 2423.3 4012.05 2363.46C4044.43 2303.62 4059.78 2224.07 4043.26 2219.22C4037.69 2217.59 4029.62 2236.63 4020.17 2258.92C4011.41 2279.59 4001.47 2303.05 3991.25 2315.4C3918.11 2403.76 3826.51 2495.44 3626.04 2559.85C3580.76 2574.4 3398.52 2621.62 3223.58 2559.68C3117.77 2522.21 3070.28 2476.83 3023.56 2432.17C2993.03 2402.99 2962.83 2374.13 2916.9 2347.98Z" fill="#F2F2F2"/>
</g>
<g filter="url(#filter14_d)">
<path fill-rule="evenodd" clip-rule="evenodd" d="M4511.65 -190.66L-9.40701 11.6566L-65.6203 3332.41L4444.49 3264.75L4511.65 -190.66ZM1530.34 1847.26C1307.94 2063.14 945.359 2373.82 945.359 2373.82C945.359 2373.82 1317.39 2372.35 1555.48 2409.69C1694.72 2431.52 1755.95 2470.84 1802.9 2500.99C1836.23 2522.4 1862.36 2539.18 1904.09 2541.8C2033.74 2549.95 2044.45 2543.22 2155.76 2473.26C2168.27 2465.39 2182.05 2456.73 2197.41 2447.21C2260.49 2408.07 2305.47 2364.21 2348.77 2321.99C2409.83 2262.44 2467.56 2206.15 2568.01 2170.97C2739.7 2110.83 2829.17 2116.22 2965.41 2167.92C3006.24 2183.41 3046.58 2207.35 3087.75 2231.78C3183.96 2288.86 3284.72 2348.65 3406.92 2309.78C3588.8 2251.93 3819.38 2126.97 3998.69 1912.46C4135.42 1748.87 4143.91 1728.22 4186.55 1624.55C4194.6 1604.96 4203.88 1582.41 4215.47 1555.38C4252.39 1469.23 4307.13 1055.91 4204.25 838.756C4116.35 653.217 3879.36 461.229 3546.47 406.361C3213.58 351.492 3066.37 410.792 2913.39 528.465C2852.59 575.237 2821.58 629.592 2788.58 687.447C2759.88 737.767 2729.67 790.734 2677.03 843.662C2627.15 893.805 2542.76 915.618 2451.27 939.264C2337.19 968.748 2212.08 1001.08 2129.12 1094.75C2061.99 1170.53 2045.74 1283.42 2032.68 1374.2C2030.77 1387.53 2028.92 1400.38 2026.98 1412.57C2012.77 1502.27 1990.21 1565.19 1971.9 1598.53L1971.8 1598.71C1920.95 1691.33 1909.48 1712.21 1794.49 1815.54C1679.43 1918.94 1520.03 2044.93 1512.96 2037.99C1508.5 2033.63 1540.24 2006.27 1585.38 1967.37L1585.38 1967.37L1585.39 1967.36C1618.3 1938.99 1658.34 1904.48 1696.67 1868.26C1717.62 1848.47 1735.93 1832.53 1753.05 1817.62C1788.22 1787.02 1818.36 1760.79 1856 1714.48C1904.83 1654.43 1912.57 1606.59 1919.21 1565.53C1920 1560.63 1920.78 1555.83 1921.61 1551.12C1931.77 1493.38 1935.07 1439.25 1938.14 1381.06C1941.16 1324.09 1952.68 1137.37 2121.98 991.868C2193.69 930.25 2285.62 902.576 2366.4 878.26C2431.64 858.622 2489.6 841.175 2523.75 809.807C2651.29 692.635 2709.12 595.117 2696.76 527.849C2684.51 461.154 2588 430.459 2543.32 463.699C2514.37 485.242 2510.44 505.551 2503.21 542.878C2500.46 557.058 2497.24 573.694 2491.99 593.787C2489.22 604.385 2487.12 613.406 2485.27 621.346L2485.26 621.392L2485.26 621.402C2474.47 667.671 2472.25 677.206 2396.85 748.324C2354.04 788.708 2316.4 809.333 2277.19 830.822L2277.19 830.823C2235.48 853.681 2191.98 877.518 2138.57 927.155C2034.94 1023.46 2013 1047.78 1961.44 1143.11C1928.55 1203.92 1923.91 1267.67 1921.02 1307.46C1919.37 1330.03 1918.29 1344.88 1912.93 1347.11C1898.12 1353.26 1890.88 1257.37 1906.46 1169.35C1915.35 1119.07 1939.41 1068.73 1956.02 1033.97L1956.02 1033.97C1968.49 1007.87 1976.76 990.554 1971.27 988.648C1958.45 984.204 1877.91 1046.93 1827.67 1193.83C1805.19 1259.56 1816.54 1313.51 1827.54 1365.77C1832.12 1387.57 1836.65 1409.08 1838.63 1431.03C1841.98 1468.24 1832.7 1501.5 1814.64 1550C1776.7 1651.81 1699.88 1710.94 1624.25 1769.16C1591.66 1794.25 1559.28 1819.17 1530.34 1847.26ZM2263.58 749.318C2262.07 747.325 2269.01 739.531 2279.81 727.406C2305.13 698.984 2351.64 646.77 2360.14 589.745C2366.99 543.831 2363.71 503.972 2361.5 477.144C2359.73 455.631 2358.65 442.497 2364.03 441.336C2376.12 438.729 2434.39 504.025 2421.01 586.335C2407.81 667.522 2269.95 757.735 2263.58 749.318ZM2851.85 2254.49C2710.9 2210.2 2569.4 2246.57 2564.84 2272.09C2562.95 2282.65 2585.82 2289 2621.33 2298.88C2671.65 2312.86 2747.35 2333.91 2813.97 2383.96C2872.54 2427.97 2909.04 2479.02 2945.89 2530.58C2980.54 2579.05 3015.51 2627.97 3069.44 2671.9C3180.74 2762.56 3339.36 2767.41 3407.67 2756.65C3419.32 2754.81 3429.79 2753.33 3439.6 2751.94C3500.31 2743.35 3535.49 2738.37 3667.27 2674.91C3820.33 2601.21 4014.16 2489.12 4092.02 2331.86C4165.14 2184.16 4124.48 2042.95 4100.32 2041.66C4088.1 2041.01 4072.02 2071.77 4050.78 2112.39C4030.58 2151.04 4005.71 2198.62 3975.05 2236.58C3893.75 2337.27 3862.93 2366.08 3732.53 2445.53C3602.13 2524.98 3555.37 2542.64 3404.4 2543.56C3275.84 2544.34 3213.33 2503.75 3157.53 2467.52C3147.81 2461.21 3138.3 2455.03 3128.67 2449.22C3091.88 2427.03 3063.43 2399.99 3034.58 2372.56C2987.47 2327.78 2939.26 2281.95 2851.85 2254.49Z" fill="white"/>
</g>
<path fill-rule="evenodd" clip-rule="evenodd" d="M793.8 1928.95L294.329 2150.52C294.329 2150.52 231.516 2186.58 204.507 2222.51C181.089 2253.66 163.101 2313.32 163.101 2313.32C163.101 2313.32 279.059 2430.6 400.221 2444.36C521.371 2458.13 665.033 2443.72 665.033 2443.72L1225.31 2143.85L793.8 1928.95Z" fill="#4CC8ED" stroke="#4CC8ED" stroke-linecap="round" stroke-linejoin="round"/>
<g filter="url(#filter15_d)">
<path fill-rule="evenodd" clip-rule="evenodd" d="M168.025 2316.69C174.153 2453.74 196.179 2531.82 302.112 2675.56C302.112 2675.56 274.781 2680.1 260.465 2702.77C246.15 2725.41 252.959 2774.09 257.73 2781.56C262.501 2789.03 350.912 2756.79 406.63 2744.45C462.348 2732.12 581.231 2708.11 698.673 2663.74C850.102 2606.52 892.008 2587.28 1067.61 2448.22C1194.88 2386.56 1224.24 2144.46 1224.24 2144.46L729.758 2409.14L666.157 2439.23C666.157 2439.23 506.733 2456.76 388.459 2435.7C270.191 2414.64 168.025 2316.69 168.025 2316.69Z" fill="#2BAAE2"/>
</g>
<path fill-rule="evenodd" clip-rule="evenodd" d="M957.411 1958.58L1178.78 1863.59L1150.6 2230.49L921.505 2360.82L957.411 1958.58Z" fill="#1172BA"/>
<path fill-rule="evenodd" clip-rule="evenodd" d="M682.949 1814.34L654.106 2205.33L919.578 2361.61L955.253 1957.92L682.949 1814.34Z" fill="#2BAAE2"/>
<path d="M1166.09 2025.54L1178.89 1865.32L952.703 1959.26L942.963 2119.67L1166.09 2025.54Z" fill="#272361"/>
<path d="M952.638 1960.28L682.667 1812.63L670.2 1984.15L942.96 2119.67L952.638 1960.28Z" fill="#2E3690"/>
<path d="M350.046 2342.1C332.023 2368.7 360.197 2377.58 360.197 2377.58C318.003 2369.7 209.107 2345.7 160.159 2311.09C183.948 2223.31 212.126 2198.36 294.026 2150.01L670.264 1983.13L656.926 2202.81C656.926 2202.81 368.068 2315.51 350.046 2342.1Z" fill="#135EAB"/>
<path d="M343.08 2338.6L341.632 2278.01L398.626 2335.82L643.581 2203.02L640.293 2257.17L395.276 2390.99L343.08 2338.6Z" fill="#0081C3"/>
<path d="M399.398 2339.97L340.484 2279.99L584.881 2156.39L646.459 2206.27L399.398 2339.97Z" fill="#4CC8ED"/>
<path d="M267.407 2622.17C178.054 2506.92 171.709 2465.82 160.221 2310.06C317.494 2397.49 584.943 2409 673.747 2398.67L1224.59 2142.92C1217.74 2194.45 1195.14 2277.78 1172.24 2329.46C660.656 2614.26 703.657 2666.09 267.407 2622.17Z" fill="#2E3690"/>
<path fill-rule="evenodd" clip-rule="evenodd" d="M664.74 1803.91L953.602 1961.37L1220.82 1850.43L932.143 1706.76L664.74 1803.91Z" fill="#272361"/>
<path fill-rule="evenodd" clip-rule="evenodd" d="M855.742 1789.41L871.758 1468.26L884.028 1452.03C884.028 1452.03 905.165 1453.78 940.482 1455.46C975.799 1457.11 988.645 1451.77 988.645 1451.77L1013.54 1468.66L999.348 1807.21C999.348 1807.21 962.339 1827.2 923.968 1824.38C885.597 1821.57 855.742 1789.41 855.742 1789.41Z" fill="#2E3690"/>
<path d="M1007.7 1610.85C951.406 1638.08 920.937 1637.65 864.655 1602.16L872.478 1457.02C872.478 1457.02 873.033 1453.24 873.836 1450.95C876.559 1443.17 884.949 1436.83 888.112 1435.41C891.275 1433.98 885.616 1441.74 891.676 1444.26C928.999 1459.82 953.524 1462.22 995.982 1449.14C1001 1447.59 1007.87 1456.01 1007.03 1452.88C1006.2 1449.76 1013 1461.44 1013.63 1462.51L1013.63 1462.51C1014.25 1463.58 1014.47 1466.42 1014.47 1466.42L1007.7 1610.85Z" fill="#4CC8ED"/>
<path d="M945.202 1458.36C988.344 1460.98 1009.79 1458.18 1009.79 1458.18C1009.79 1458.18 990.826 1420.11 944.527 1417.3C898.229 1414.49 878.296 1445.07 878.296 1445.07C878.296 1445.07 897.852 1455.48 945.202 1458.36Z" fill="#4CC8ED" stroke="#4CC8ED" stroke-linecap="round" stroke-linejoin="round"/>
<path d="M944.155 1424.45C913.638 1421.03 882.448 1444.29 881.887 1453.49C881.327 1462.69 916.047 1476.57 940.929 1477.58C966.741 1478.63 1003.44 1478.3 1004.37 1462.98C1004.76 1456.52 980.823 1428.57 944.155 1424.45Z" fill="#272361"/>
<ellipse cx="1098.26" cy="1403.05" rx="42.992" ry="44.0157" transform="rotate(3.4747 1098.26 1403.05)" fill="#2E3690"/>
<ellipse cx="1170.47" cy="1328.47" rx="75.7479" ry="77.7951" transform="rotate(3.4747 1170.47 1328.47)" fill="#2E3690"/>
<ellipse cx="1268.93" cy="1294.45" rx="96.2203" ry="99.2911" transform="rotate(3.4747 1268.93 1294.45)" fill="#2E3690"/>
<path d="M278.977 2469.33C278.886 2467.69 279.435 2466.09 280.503 2464.86C281.571 2463.64 283.07 2462.91 284.67 2462.82C286.271 2462.73 287.842 2463.3 289.038 2464.39C290.234 2465.49 290.957 2467.02 291.047 2468.66C291.284 2473.16 292.912 2477.46 295.697 2480.96C298.481 2484.45 302.277 2486.95 306.535 2488.09L304.181 2445.51C301.929 2444.52 299.976 2442.93 298.524 2440.91C297.072 2438.89 296.173 2436.5 295.92 2434.01C295.668 2431.52 296.071 2429 297.088 2426.72C298.105 2424.45 299.699 2422.49 301.704 2421.06C303.71 2419.62 306.055 2418.77 308.497 2418.57C310.938 2418.38 313.387 2418.86 315.591 2419.96C317.795 2421.06 319.673 2422.74 321.031 2424.83C322.389 2426.92 323.177 2429.34 323.315 2431.84C323.464 2434.47 322.879 2437.09 321.628 2439.4C320.378 2441.7 318.513 2443.59 316.251 2444.84L318.605 2487.42C322.712 2485.82 326.209 2482.92 328.591 2479.14C330.973 2475.36 332.117 2470.9 331.857 2466.41C331.766 2464.77 332.315 2463.16 333.383 2461.94C334.451 2460.72 335.95 2459.98 337.55 2459.89C339.151 2459.81 340.722 2460.37 341.918 2461.47C343.114 2462.56 343.837 2464.1 343.927 2465.74C344.419 2474.63 341.439 2483.35 335.642 2489.98C329.846 2496.61 321.708 2500.6 313.019 2501.08C304.33 2501.56 295.801 2498.49 289.309 2492.54C282.817 2486.59 278.894 2478.26 278.402 2469.36L278.977 2469.33Z" fill="#191919"/>
<path d="M285.695 2459.22C285.604 2457.58 286.13 2455.98 287.156 2454.76C288.181 2453.54 289.624 2452.81 291.165 2452.72C292.706 2452.64 294.221 2453.21 295.375 2454.3C296.529 2455.4 297.228 2456.94 297.318 2458.58C297.555 2463.07 299.133 2467.38 301.821 2470.88C304.51 2474.38 308.171 2476.88 312.274 2478.04L309.919 2435.46C307.749 2434.46 305.865 2432.87 304.462 2430.84C303.06 2428.82 302.189 2426.43 301.941 2423.94C301.693 2421.45 302.076 2418.93 303.05 2416.66C304.025 2414.38 305.556 2412.43 307.485 2411C309.413 2409.57 311.67 2408.72 314.021 2408.53C316.372 2408.34 318.732 2408.82 320.856 2409.93C322.981 2411.03 324.793 2412.72 326.105 2414.81C327.417 2416.9 328.182 2419.32 328.32 2421.83C328.468 2424.46 327.91 2427.08 326.711 2429.38C325.511 2431.68 323.719 2433.56 321.543 2434.81L323.897 2477.39C327.848 2475.8 331.211 2472.9 333.497 2469.13C335.784 2465.36 336.876 2460.9 336.616 2456.4C336.526 2454.77 337.051 2453.16 338.077 2451.94C339.103 2450.72 340.545 2449.99 342.086 2449.91C343.628 2449.82 345.142 2450.39 346.296 2451.49C347.45 2452.59 348.149 2454.12 348.24 2455.76C348.731 2464.66 345.879 2473.37 340.31 2479.98C334.741 2486.6 326.912 2490.58 318.545 2491.04C310.177 2491.5 301.957 2488.41 295.693 2482.45C289.429 2476.49 285.633 2468.14 285.141 2459.25L285.695 2459.22Z" fill="#4CC8ED"/>
</g>
<defs>
<filter id="filter0_d" x="833.273" y="829.478" width="3485.14" height="2093.57" filterUnits="userSpaceOnUse" color-interpolation-filters="sRGB">
<feFlood flood-opacity="0" result="BackgroundImageFix"/>
<feColorMatrix in="SourceAlpha" type="matrix" values="0 0 0 0 0 0 0 0 0 0 0 0 0 0 0 0 0 0 127 0"/>
<feOffset dy="-40"/>
<feGaussianBlur stdDeviation="50"/>
<feColorMatrix type="matrix" values="0 0 0 0 0 0 0 0 0 0 0 0 0 0 0 0 0 0 0.3 0"/>
<feBlend mode="normal" in2="BackgroundImageFix" result="effect1_dropShadow"/>
<feBlend mode="normal" in="SourceGraphic" in2="effect1_dropShadow" result="shape"/>
</filter>
<filter id="filter1_d" x="874.711" y="337.807" width="3385.14" height="1891.48" filterUnits="userSpaceOnUse" color-interpolation-filters="sRGB">
<feFlood flood-opacity="0" result="BackgroundImageFix"/>
<feColorMatrix in="SourceAlpha" type="matrix" values="0 0 0 0 0 0 0 0 0 0 0 0 0 0 0 0 0 0 127 0"/>
<feOffset dy="40"/>
<feGaussianBlur stdDeviation="50"/>
<feColorMatrix type="matrix" values="0 0 0 0 0 0 0 0 0 0 0 0 0 0 0 0 0 0 0.3 0"/>
<feBlend mode="normal" in2="BackgroundImageFix" result="effect1_dropShadow"/>
<feBlend mode="normal" in="SourceGraphic" in2="effect1_dropShadow" result="shape"/>
</filter>
<filter id="filter2_d" x="787.684" y="623.74" width="3530.2" height="2296.59" filterUnits="userSpaceOnUse" color-interpolation-filters="sRGB">
<feFlood flood-opacity="0" result="BackgroundImageFix"/>
<feColorMatrix in="SourceAlpha" type="matrix" values="0 0 0 0 0 0 0 0 0 0 0 0 0 0 0 0 0 0 127 0"/>
<feOffset dx="-40" dy="-60"/>
<feGaussianBlur stdDeviation="52.5"/>
<feColorMatrix type="matrix" values="0 0 0 0 0 0 0 0 0 0 0 0 0 0 0 0 0 0 0.4 0"/>
<feBlend mode="normal" in2="BackgroundImageFix" result="effect1_dropShadow"/>
<feBlend mode="normal" in="SourceGraphic" in2="effect1_dropShadow" result="shape"/>
</filter>
<filter id="filter3_d" x="853.83" y="310.616" width="3483.41" height="2365.97" filterUnits="userSpaceOnUse" color-interpolation-filters="sRGB">
<feFlood flood-opacity="0" result="BackgroundImageFix"/>
<feColorMatrix in="SourceAlpha" type="matrix" values="0 0 0 0 0 0 0 0 0 0 0 0 0 0 0 0 0 0 127 0"/>
<feOffset dx="40" dy="60"/>
<feGaussianBlur stdDeviation="70"/>
<feColorMatrix type="matrix" values="0 0 0 0 0 0 0 0 0 0 0 0 0 0 0 0 0 0 0.7 0"/>
<feBlend mode="normal" in2="BackgroundImageFix" result="effect1_dropShadow"/>
<feBlend mode="normal" in="SourceGraphic" in2="effect1_dropShadow" result="shape"/>
</filter>
<filter id="filter4_d" x="826.873" y="1201.43" width="3406.76" height="1710.89" filterUnits="userSpaceOnUse" color-interpolation-filters="sRGB">
<feFlood flood-opacity="0" result="BackgroundImageFix"/>
<feColorMatrix in="SourceAlpha" type="matrix" values="0 0 0 0 0 0 0 0 0 0 0 0 0 0 0 0 0 0 127 0"/>
<feOffset dx="-30" dy="-30"/>
<feGaussianBlur stdDeviation="37.5"/>
<feColorMatrix type="matrix" values="0 0 0 0 0 0 0 0 0 0 0 0 0 0 0 0 0 0 0.37 0"/>
<feBlend mode="normal" in2="BackgroundImageFix" result="effect1_dropShadow"/>
<feBlend mode="normal" in="SourceGraphic" in2="effect1_dropShadow" result="shape"/>
</filter>
<filter id="filter5_d" x="890.986" y="327.822" width="3558.41" height="2202.53" filterUnits="userSpaceOnUse" color-interpolation-filters="sRGB">
<feFlood flood-opacity="0" result="BackgroundImageFix"/>
<feColorMatrix in="SourceAlpha" type="matrix" values="0 0 0 0 0 0 0 0 0 0 0 0 0 0 0 0 0 0 127 0"/>
<feOffset dx="50" dy="60"/>
<feGaussianBlur stdDeviation="60"/>
<feColorMatrix type="matrix" values="0 0 0 0 0 0 0 0 0 0 0 0 0 0 0 0 0 0 0.5 0"/>
<feBlend mode="normal" in2="BackgroundImageFix" result="effect1_dropShadow"/>
<feBlend mode="normal" in="SourceGraphic" in2="effect1_dropShadow" result="shape"/>
</filter>
<filter id="filter6_d" x="822.684" y="280.139" width="3533.7" height="2668.89" filterUnits="userSpaceOnUse" color-interpolation-filters="sRGB">
<feFlood flood-opacity="0" result="BackgroundImageFix"/>
<feColorMatrix in="SourceAlpha" type="matrix" values="0 0 0 0 0 0 0 0 0 0 0 0 0 0 0 0 0 0 127 0"/>
<feOffset dx="-50" dy="10"/>
<feGaussianBlur stdDeviation="30"/>
<feColorMatrix type="matrix" values="0 0 0 0 0 0 0 0 0 0 0 0 0 0 0 0 0 0 0.3 0"/>
<feBlend mode="normal" in2="BackgroundImageFix" result="effect1_dropShadow"/>
<feBlend mode="normal" in="SourceGraphic" in2="effect1_dropShadow" result="shape"/>
</filter>
<filter id="filter7_d" x="860.988" y="444.153" width="1863.85" height="1957.38" filterUnits="userSpaceOnUse" color-interpolation-filters="sRGB">
<feFlood flood-opacity="0" result="BackgroundImageFix"/>
<feColorMatrix in="SourceAlpha" type="matrix" values="0 0 0 0 0 0 0 0 0 0 0 0 0 0 0 0 0 0 127 0"/>
<feOffset dy="40"/>
<feGaussianBlur stdDeviation="50"/>
<feColorMatrix type="matrix" values="0 0 0 0 0 0 0 0 0 0 0 0 0 0 0 0 0 0 0.3 0"/>
<feBlend mode="normal" in2="BackgroundImageFix" result="effect1_dropShadow"/>
<feBlend mode="normal" in="SourceGraphic" in2="effect1_dropShadow" result="shape"/>
</filter>
<filter id="filter8_d" x="878.682" y="1746.3" width="3093.12" height="1136.56" filterUnits="userSpaceOnUse" color-interpolation-filters="sRGB">
<feFlood flood-opacity="0" result="BackgroundImageFix"/>
<feColorMatrix in="SourceAlpha" type="matrix" values="0 0 0 0 0 0 0 0 0 0 0 0 0 0 0 0 0 0 127 0"/>
<feOffset dx="-25" dy="-9"/>
<feGaussianBlur stdDeviation="14.5"/>
<feColorMatrix type="matrix" values="0 0 0 0 0 0 0 0 0 0 0 0 0 0 0 0 0 0 0.3 0"/>
<feBlend mode="normal" in2="BackgroundImageFix" result="effect1_dropShadow"/>
<feBlend mode="normal" in="SourceGraphic" in2="effect1_dropShadow" result="shape"/>
</filter>
<filter id="filter9_d" x="927.682" y="1757.3" width="3085.12" height="1128.56" filterUnits="userSpaceOnUse" color-interpolation-filters="sRGB">
<feFlood flood-opacity="0" result="BackgroundImageFix"/>
<feColorMatrix in="SourceAlpha" type="matrix" values="0 0 0 0 0 0 0 0 0 0 0 0 0 0 0 0 0 0 127 0"/>
<feOffset dx="20" dy="-2"/>
<feGaussianBlur stdDeviation="12.5"/>
<feColorMatrix type="matrix" values="0 0 0 0 0 0 0 0 0 0 0 0 0 0 0 0 0 0 0.23 0"/>
<feBlend mode="normal" in2="BackgroundImageFix" result="effect1_dropShadow"/>
<feBlend mode="normal" in="SourceGraphic" in2="effect1_dropShadow" result="shape"/>
</filter>
<filter id="filter10_d" x="912.834" y="481.153" width="2026.62" height="2120.15" filterUnits="userSpaceOnUse" color-interpolation-filters="sRGB">
<feFlood flood-opacity="0" result="BackgroundImageFix"/>
<feColorMatrix in="SourceAlpha" type="matrix" values="0 0 0 0 0 0 0 0 0 0 0 0 0 0 0 0 0 0 127 0"/>
<feOffset dx="9" dy="20"/>
<feGaussianBlur stdDeviation="21.5"/>
<feColorMatrix type="matrix" values="0 0 0 0 0 0 0 0 0 0 0 0 0 0 0 0 0 0 0.39 0"/>
<feBlend mode="normal" in2="BackgroundImageFix" result="effect1_dropShadow"/>
<feBlend mode="normal" in="SourceGraphic" in2="effect1_dropShadow" result="shape"/>
</filter>
<filter id="filter11_d" x="938.834" y="480.153" width="1599.19" height="2064.95" filterUnits="userSpaceOnUse" color-interpolation-filters="sRGB">
<feFlood flood-opacity="0" result="BackgroundImageFix"/>
<feColorMatrix in="SourceAlpha" type="matrix" values="0 0 0 0 0 0 0 0 0 0 0 0 0 0 0 0 0 0 127 0"/>
<feOffset dx="18" dy="2"/>
<feGaussianBlur stdDeviation="13"/>
<feColorMatrix type="matrix" values="0 0 0 0 0 0 0 0 0 0 0 0 0 0 0 0 0 0 0.18 0"/>
<feBlend mode="normal" in2="BackgroundImageFix" result="effect1_dropShadow"/>
<feBlend mode="normal" in="SourceGraphic" in2="effect1_dropShadow" result="shape"/>
</filter>
<filter id="filter12_d" x="1497.84" y="516.039" width="1388.8" height="1624.98" filterUnits="userSpaceOnUse" color-interpolation-filters="sRGB">
<feFlood flood-opacity="0" result="BackgroundImageFix"/>
<feColorMatrix in="SourceAlpha" type="matrix" values="0 0 0 0 0 0 0 0 0 0 0 0 0 0 0 0 0 0 127 0"/>
<feOffset dx="18" dy="2"/>
<feGaussianBlur stdDeviation="13"/>
<feColorMatrix type="matrix" values="0 0 0 0 0 0 0 0 0 0 0 0 0 0 0 0 0 0 0.2 0"/>
<feBlend mode="normal" in2="BackgroundImageFix" result="effect1_dropShadow"/>
<feBlend mode="normal" in="SourceGraphic" in2="effect1_dropShadow" result="shape"/>
</filter>
<filter id="filter13_d" x="549.029" y="75.2197" width="4023.02" height="3247.39" filterUnits="userSpaceOnUse" color-interpolation-filters="sRGB">
<feFlood flood-opacity="0" result="BackgroundImageFix"/>
<feColorMatrix in="SourceAlpha" type="matrix" values="0 0 0 0 0 0 0 0 0 0 0 0 0 0 0 0 0 0 127 0"/>
<feOffset dx="-15"/>
<feGaussianBlur stdDeviation="31"/>
<feColorMatrix type="matrix" values="0 0 0 0 0 0 0 0 0 0 0 0 0 0 0 0 0 0 0.4 0"/>
<feBlend mode="normal" in2="BackgroundImageFix" result="effect1_dropShadow"/>
<feBlend mode="normal" in="SourceGraphic" in2="effect1_dropShadow" result="shape"/>
</filter>
<filter id="filter14_d" x="-242" y="-465" width="4876.35" height="4065.55" filterUnits="userSpaceOnUse" color-interpolation-filters="sRGB">
<feFlood flood-opacity="0" result="BackgroundImageFix"/>
<feColorMatrix in="SourceAlpha" type="matrix" values="0 0 0 0 0 0 0 0 0 0 0 0 0 0 0 0 0 0 127 0"/>
<feOffset dx="-25" dy="-3"/>
<feGaussianBlur stdDeviation="14.5"/>
<feColorMatrix type="matrix" values="0 0 0 0 0 0 0 0 0 0 0 0 0 0 0 0 0 0 0.3 0"/>
<feBlend mode="normal" in2="BackgroundImageFix" result="effect1_dropShadow"/>
<feBlend mode="normal" in="SourceGraphic" in2="effect1_dropShadow" result="shape"/>
</filter>
<filter id="filter15_d" x="24.1777" y="2049.2" width="1260.07" height="933.39" filterUnits="userSpaceOnUse" color-interpolation-filters="sRGB">
<feFlood flood-opacity="0" result="BackgroundImageFix"/>
<feColorMatrix in="SourceAlpha" type="matrix" values="0 0 0 0 0 0 0 0 0 0 0 0 0 0 0 0 0 0 127 0"/>
<feOffset dx="-28" dy="56"/>
<feGaussianBlur stdDeviation="44"/>
<feColorMatrix type="matrix" values="0 0 0 0 0 0 0 0 0 0 0 0 0 0 0 0 0 0 0.3 0"/>
<feBlend mode="normal" in2="BackgroundImageFix" result="effect1_dropShadow"/>
<feBlend mode="normal" in="SourceGraphic" in2="effect1_dropShadow" result="shape"/>
</filter>
</defs>
</svg>
