<svg width="4256" height="3009" viewBox="0 0 4256 3009" fill="none" xmlns="http://www.w3.org/2000/svg">
<mask id="mask0" mask-type="alpha" maskUnits="userSpaceOnUse" x="0" y="0" width="4256" height="3009">
<rect width="4256" height="3009" fill="#C4C4C4"/>
</mask>
<g mask="url(#mask0)">
<mask id="mask1" mask-type="alpha" maskUnits="userSpaceOnUse" x="972" y="-309" width="3489" height="3118">
<rect x="1130.64" y="-308.979" width="3335" height="2942" transform="rotate(3.08458 1130.64 -308.979)" fill="#C4C4C4"/>
</mask>
<g mask="url(#mask1)">
<path fill-rule="evenodd" clip-rule="evenodd" d="M1080.84 273.957L4363.87 437.082L4243.14 2813.43L938.684 2639.96L1080.84 273.957Z" fill="#272361"/>
<g filter="url(#filter0_d)">
<path fill-rule="evenodd" clip-rule="evenodd" d="M3602.52 1190.64C3759.24 1113.15 4224.41 1079.51 4224.41 1079.51L4194.89 1627.36C3910.93 1923.86 3522.36 2020.57 3157.42 2110.09L2364.17 2705.8L944.632 2619.3L996.186 1572.87C996.186 1572.87 1630.65 1873.59 1986.91 1892.79C2029.21 1895.07 2083.7 1872.15 2155.66 1841.89C2219.55 1815.02 2297.21 1782.36 2392.33 1756.41C2404.91 1752.97 2416.51 1749.89 2427.4 1746.99C2505.26 1726.29 2546.64 1715.28 2645.54 1657.09C2669.82 1642.8 2690.7 1628.17 2710.42 1614.34C2757.67 1581.22 2798.31 1552.74 2863.24 1544.81C2902.92 1539.97 2948.71 1549.38 2997.36 1559.39C3058.04 1571.86 3123.16 1585.25 3186.36 1573.01C3300.23 1550.98 3308.01 1546.86 3388.74 1438.49C3415.25 1402.9 3430.61 1372.59 3444.46 1345.27C3473.69 1287.6 3496.17 1243.23 3602.52 1190.64ZM3411.72 1514.74C3405.74 1504.48 3386.27 1529.56 3389.69 1548.95C3393.1 1568.35 3395.87 1584.07 3415.19 1580.67C3429.77 1578.1 3433.17 1554.87 3417.91 1549.86C3408.92 1546.92 3410.44 1538.83 3412 1530.57C3413.08 1524.81 3414.18 1518.96 3411.72 1514.74ZM2436.99 1869.31C2431.42 1867.79 2417.09 1858.23 2412.86 1854.01C2411.86 1853.01 2410.81 1852 2409.75 1850.98L2409.74 1850.97C2399.96 1841.55 2389.17 1831.15 2407.85 1821.63C2420.08 1815.39 2425.03 1820.23 2429.88 1824.98C2433.25 1828.28 2436.57 1831.53 2442.25 1831.03C2444.17 1830.86 2446.47 1830.01 2448.97 1829.08C2454.34 1827.09 2460.62 1824.76 2466.02 1828.16C2476.05 1834.49 2474.57 1848.29 2468.43 1858.44C2462.28 1868.59 2453.33 1873.77 2436.99 1869.31ZM3481.46 1458.08C3486.15 1458.33 3490.24 1453.17 3490.6 1446.55C3490.95 1439.94 3487.44 1434.37 3482.76 1434.11C3478.07 1433.86 3473.98 1439.02 3473.62 1445.64C3473.27 1452.26 3476.78 1457.83 3481.46 1458.08Z" fill="#2E3690"/>
</g>
<g filter="url(#filter1_d)">
<path fill-rule="evenodd" clip-rule="evenodd" d="M4133.24 1108.14C4133.24 1108.14 4017.06 959.583 3800.47 974.043C3703.67 980.506 3674.48 919.393 3643.7 854.963C3620.84 807.098 3597.1 757.401 3544.11 732.22C3485.06 704.153 3402.12 673.067 3384.02 683.213C3352.64 700.799 3335.44 700.3 3316.98 699.765C3298.57 699.231 3278.9 698.66 3242.66 715.975C3165.85 752.674 3138.13 806.147 3112.55 948.141C3105.17 989.089 3105.49 1031.23 3105.81 1075.15C3106.26 1135.03 3106.72 1198.21 3087.77 1266.19C3056.66 1377.76 2985.55 1411.31 2931.51 1436.8L2931.51 1436.81C2928.47 1438.24 2925.49 1439.65 2922.57 1441.04C2889.68 1456.75 2861.81 1458.62 2833.41 1460.53C2801.86 1462.66 2769.67 1464.82 2729.24 1486.04C2689.23 1507.04 2675.97 1529.49 2663.12 1551.24C2651.28 1571.26 2639.8 1590.69 2608.13 1607.85C2546.53 1641.24 2476.75 1650.28 2391.74 1661.29C2385.57 1662.09 2379.31 1662.9 2372.97 1663.73C2341.97 1667.79 2298.89 1701.44 2245.74 1742.95C2168.09 1803.6 2068.95 1881.03 1954.57 1907.57C1415.22 1926.86 995.557 1584.56 995.557 1584.56L1066.12 443.102L3709.01 478.404C3709.01 478.404 3931.58 560.796 4033.09 690.001C4147.28 835.327 4133.24 1108.14 4133.24 1108.14ZM2955 1007.81C2952.3 1012.48 2947.69 1014.86 2944.7 1013.13C2941.71 1011.4 2941.48 1006.22 2944.18 1001.55C2946.88 996.876 2951.49 994.491 2954.48 996.219C2957.47 997.948 2957.7 1003.13 2955 1007.81ZM2951.88 1381.72C2954.86 1383.45 2959.48 1381.06 2962.18 1376.39C2964.88 1371.72 2964.65 1366.53 2961.66 1364.81C2958.67 1363.08 2954.06 1365.46 2951.36 1370.13C2948.66 1374.8 2948.89 1379.99 2951.88 1381.72Z" fill="#2E3690"/>
</g>
<g filter="url(#filter2_d)">
<path fill-rule="evenodd" clip-rule="evenodd" d="M4078.38 890.376C4078.38 890.376 4091.9 896.596 4092.47 920.079L4078.38 890.376ZM4092.47 920.079L4240.94 1233.12L4179.88 1905.81L3958.91 2648.42C3662.03 2642.12 3561.96 2500.22 3507.61 1991.26C3507.61 1991.26 3107.38 1657.92 3026.26 1765.53C2977.91 1829.67 2965.6 1962.05 2965.6 1962.05L2953.01 2195.72L2806.43 2425.54L2402.16 2717.69L949.053 2640.52L961.359 2219.17C961.359 2219.17 1489.64 2148.07 1559.87 2143.75C1603.2 2141.09 1624.65 2164.36 1641.06 2182.16C1651.25 2193.2 1659.49 2202.14 1669.82 2201.46C1684.24 2200.51 1691.28 2185.24 1699.03 2168.44C1705.75 2153.85 1713.01 2138.12 1726.09 2129.6C1741.52 2119.56 1756.3 2123.63 1770.65 2127.59C1782.45 2130.84 1793.97 2134.01 1805.34 2129.19C1818.31 2123.68 1820.46 2112.07 1822.55 2100.72C1824.52 2090.04 1826.45 2079.6 1837.31 2074.71C1849.7 2069.13 1862.12 2076.4 1872.9 2082.7C1881.62 2087.81 1889.27 2092.29 1894.98 2088.83C1900.26 2085.62 1901.11 2077.58 1902.14 2067.86C1903.59 2054.1 1905.39 2036.97 1920.64 2025.41C1933.35 2015.77 1944.21 2014.65 1956.67 2013.36C1969.72 2012.01 1984.51 2010.48 2005.01 1998.81C2024.75 1987.56 2031.78 1979.38 2039.62 1970.25C2047.68 1960.85 2056.61 1950.46 2081.14 1934.69C2096.85 1924.61 2105.07 1916.18 2112.15 1908.93C2126.89 1893.85 2136.66 1883.84 2198.5 1874.5C2239.17 1868.36 2272.29 1874.3 2305.66 1880.28C2347.41 1887.77 2389.55 1895.33 2447.33 1879.39C2507.69 1862.74 2522.65 1839.42 2540.83 1811.09C2553.97 1790.63 2568.78 1767.55 2603.61 1742.47C2686.62 1682.68 2779.42 1640.25 2779.42 1640.25C2779.42 1640.25 2864.86 1589.86 2969.34 1583.69C3073.83 1577.51 3186.26 1615.94 3186.26 1615.94C3186.26 1615.94 3292.86 1665.2 3372.08 1654.64C3451.29 1644.09 3465.34 1636.16 3507.22 1567.48C3531.27 1528.06 3531.43 1486.7 3531.58 1446.36C3531.69 1416.45 3531.8 1387.09 3541.66 1359.5C3564.8 1294.69 3585.94 1261.44 3644.38 1213.05C3702.83 1164.64 3769.43 1135.75 3889.07 1126C3920.18 1123.47 3971.81 1117.55 4019.25 1095.49C4071.11 1071.39 4074.13 1038.62 4077.41 1003.01C4078.84 987.511 4080.32 971.473 4085.89 955.375C4090.99 940.65 4092.68 929.093 4092.47 920.079ZM3743.5 1455.17C3740.31 1464.31 3740.68 1477.89 3740.99 1489.6C3741.19 1496.8 3741.36 1503.3 3740.68 1507.6C3711.65 1563.12 3684.08 1561.63 3671.7 1560.96C3620.28 1558.19 3618.39 1526.48 3634.93 1509.41C3663.05 1480.38 3658.33 1447.08 3639.2 1430.03C3612.4 1379.51 3658.04 1336.27 3701.27 1328.22C3745.78 1319.92 3826.51 1345.66 3770.19 1419.06C3767.79 1423.04 3764.23 1426.79 3760.41 1430.82C3754.1 1437.47 3747.1 1444.86 3743.5 1455.17ZM3574.03 1796.93C3583.33 1800.44 3594.34 1794.06 3598.63 1782.69C3602.91 1771.33 3598.85 1759.27 3589.54 1755.76C3580.24 1752.25 3569.23 1758.63 3564.94 1770C3560.66 1781.37 3564.72 1793.43 3574.03 1796.93ZM2837.83 1723.95C2822.11 1730.93 2806.01 1729.02 2801.86 1719.68C2797.71 1710.34 2807.08 1697.11 2822.8 1690.13C2838.51 1683.15 2854.61 1685.06 2858.76 1694.39C2862.91 1703.73 2853.54 1716.96 2837.83 1723.95ZM2029.39 2086.17C2002.19 2102.16 1984.45 2112.59 2003.16 2136.15C2030.05 2170.01 2069.15 2178.63 2124.04 2122.55C2157.09 2093.91 2188.98 2014.19 2158.52 2006.45C2119.14 1996.46 2108.93 2010.57 2094.47 2030.55C2086.97 2040.93 2078.32 2052.88 2063.85 2063.87C2051.99 2072.88 2039.97 2079.94 2029.39 2086.17Z" fill="#135EAB"/>
</g>
<g filter="url(#filter3_d)">
<path fill-rule="evenodd" clip-rule="evenodd" d="M4096.52 925.403C4091.66 919.244 4088.73 918.523 4082.78 917.058C4076.1 915.412 4065.6 912.828 4044.28 900.556C4034.47 894.909 4012.01 899.672 3985.52 905.292C3963.1 910.049 3937.78 915.421 3914.78 915.61C3802.4 916.535 3695.85 848.659 3666.23 770.574C3662.58 760.978 3658.41 748.222 3653.64 733.633L3653.64 733.626C3624.72 645.2 3573.77 489.399 3485.24 560.983C3405.57 625.403 3327.62 626.407 3251.34 617.979C3238.7 616.582 3190.63 618.327 3173.98 631.836C3155.93 646.483 3175.72 673.628 3192.81 697.051C3206.47 715.787 3218.39 732.141 3207.82 737.811C3168 759.175 3161.17 772.163 3153.83 786.118C3146.52 800.031 3138.7 814.906 3097.17 840.005C3070.3 856.24 3042.26 863.108 3015.58 869.641C2959.66 883.336 2909.75 895.559 2889.32 989.537C2872.93 1064.9 2894.79 1111.93 2917.06 1159.89C2935.82 1200.24 2954.87 1241.25 2951.68 1300.34C2946.68 1393.12 2864.49 1450.32 2792.57 1484.05C2693.94 1530.31 2592.44 1559.63 2494.87 1572.66C2380.57 1587.91 2309.79 1606.25 2231.81 1638.33C2229.74 1639.19 2227.72 1640.02 2225.75 1640.82C2170.25 1663.6 2155.27 1669.75 2100.41 1742.44C2070.34 1782.28 2054.2 1815.38 2038.77 1847.01C2025.05 1875.15 2011.9 1902.13 1990.01 1931.64C1943.51 1994.33 1939.41 1997.37 1912.44 1998.9C1899.3 1999.64 1892.24 1994.31 1885.51 1989.23C1877.99 1983.56 1870.89 1978.2 1856.19 1981.97C1842.67 1985.45 1835.49 1996.12 1828.67 2006.26C1821.42 2017.04 1814.58 2027.21 1800.97 2027.52C1788.43 2027.8 1780.9 2016.92 1773.28 2005.89C1764.85 1993.7 1756.3 1981.35 1740.73 1983.69C1726.54 1985.83 1720.79 1998.5 1714.72 2011.87C1708.09 2026.47 1701.09 2041.89 1682.33 2045.39C1665.04 2048.6 1638.02 2048.84 1608.03 2049.1C1575.69 2049.39 1539.9 2049.7 1509.15 2053.81C1449.88 2061.74 1379.88 2124.23 1379.88 2124.23L1246.03 2213.38L959.83 2247.53L1073.42 447.51L3208.1 444.401L3306.47 449.5L3616.53 466.208L4149.26 754.995C4149.26 754.995 4109.3 941.615 4096.52 925.403ZM2771.36 948.023C2766.04 961.51 2764.65 976.828 2763.33 991.307C2760.88 1018.23 2758.69 1042.25 2732.02 1046.22C2657.82 1057.24 2632.83 982.131 2660.14 911.999C2677.81 834.992 2778.25 797.271 2811.12 842.176C2828.26 865.602 2812.88 886.052 2795.65 908.958C2786.57 921.032 2776.98 933.788 2771.36 948.023ZM2627.82 1517.82C2635.48 1522.56 2647.3 1517.36 2654.23 1506.18C2661.15 1495.01 2660.56 1482.11 2652.9 1477.36C2645.24 1472.61 2633.42 1477.82 2626.49 1488.99C2619.57 1500.16 2620.16 1513.07 2627.82 1517.82ZM3046.93 812.632C3050.48 820.422 3049.28 828.594 3044.26 830.883C3039.23 833.173 3032.28 828.714 3028.73 820.924C3025.18 813.134 3026.38 804.963 3031.4 802.673C3036.43 800.383 3043.38 804.842 3046.93 812.632ZM2663.33 1147.92C2666.98 1146.26 2667.85 1140.33 2665.27 1134.67C2662.69 1129.01 2657.64 1125.77 2653.99 1127.44C2650.34 1129.1 2649.47 1135.03 2652.05 1140.69C2654.63 1146.35 2659.68 1149.58 2663.33 1147.92Z" fill="#135EAB"/>
</g>
<g filter="url(#filter4_d)">
<path fill-rule="evenodd" clip-rule="evenodd" d="M3852.06 1479.68C3916.82 1399.94 4194.63 1415.89 4194.63 1415.89L4169.16 1526.18C4169.16 1526.18 4166.03 1488.53 4150.65 1472.61C4125.83 1446.91 4089.67 1443.39 4055.1 1452.44C4005.92 1465.3 3901.68 1511.77 3960.1 1551.97C3986.69 1570.26 4000.32 1564.19 4019.68 1555.57C4031.79 1550.17 4046.14 1543.78 4067.31 1541.72C4084.54 1540.05 4097.47 1547.57 4109.67 1554.67C4123.93 1562.97 4137.2 1570.69 4155.18 1562.48C4209.76 1537.58 4096.21 1648.5 4052.16 1683.62C4010.89 1716.52 3958.33 1751.52 3899.74 1786.81C3633.79 1947 3243.81 2113.07 3223.16 2115.13C3216.32 2115.82 3227.77 2148.4 3245.39 2198.53C3305.11 2368.44 3435.66 2739.89 3164.64 2753.85L2284.42 2706.42L2041.27 2693.32L1798.12 2680.21L937.872 2633.86L964.856 2275.11C964.856 2275.11 1168.05 2192.71 1345.11 2191.78C1441.57 2191.28 1494.6 2215.63 1542.32 2237.54C1582.2 2255.85 1618.38 2272.46 1673.09 2271.45C1793.28 2269.2 1828.03 2264.99 1905.45 2206.73C1940.75 2180.16 1959.71 2154.65 1978.36 2129.55C2000.62 2099.61 2022.43 2070.26 2071.02 2040.41C2157.86 1987.05 2163.7 1987.06 2254.73 1987.2C2257.33 1987.21 2260 1987.21 2262.74 1987.22C2281.49 1987.24 2297.89 1987.68 2313.78 1988.12L2313.79 1988.12C2357.56 1989.31 2397.55 1990.4 2472.57 1982.2C2574.85 1971.03 2621.93 1962.56 2671.86 1942.52C2723.59 1921.75 2754 1894.15 2788.15 1859.75C2801.53 1846.28 2812.42 1834.51 2822.2 1823.94C2850.19 1793.69 2869.06 1773.3 2911.01 1751.09C2962.65 1723.75 2996.89 1715.18 3055.18 1711.06C3129.65 1705.8 3186 1725.57 3243.03 1746.51C3266.49 1755.13 3290.93 1770.27 3317.06 1786.46C3370.81 1819.77 3431.72 1857.5 3505.96 1852.01L3506.81 1851.94C3598.77 1845.14 3635.99 1842.38 3719.81 1748.19C3765.17 1697.23 3781.24 1646.33 3796.57 1597.73C3809.67 1556.23 3822.24 1516.41 3852.06 1479.68ZM2268.73 2098.75C2262.58 2123.87 2240.22 2127.37 2210.69 2132C2192.32 2134.88 2171.18 2138.19 2149.44 2147.4C2127.94 2156.52 2112.81 2168.49 2100.37 2178.35C2080.01 2194.47 2066.82 2204.91 2044.61 2187.82C2003.93 2156.51 2048.19 2078.4 2104.88 2054.37C2161.58 2030.33 2281 2048.68 2268.73 2098.75ZM3164.36 2501.33C3183.83 2489.94 3186.7 2458.64 3170.77 2431.42C3154.84 2404.21 3126.15 2391.39 3106.68 2402.78C3087.21 2414.18 3084.34 2445.47 3100.26 2472.69C3116.19 2499.9 3144.89 2512.73 3164.36 2501.33ZM3281.72 1931.18C3259.69 1962.54 3243.15 1951.53 3219.96 1936.09C3197.11 1920.88 3167.8 1901.37 3120.42 1913.81C3111.55 1916.14 3102.29 1918.85 3092.84 1921.61L3092.83 1921.61C3031.73 1939.49 2962.43 1959.76 2938.16 1895.15C2927.95 1824.49 3057.63 1790.92 3126.84 1794.65C3196.05 1798.38 3325.44 1868.95 3281.72 1931.18ZM3384.69 1906.52C3394.07 1907.03 3401.98 1901.62 3402.37 1894.45C3402.75 1887.29 3395.47 1881.06 3386.09 1880.56C3376.72 1880.05 3368.8 1885.46 3368.42 1892.63C3368.03 1899.79 3375.32 1906.02 3384.69 1906.52Z" fill="#0081C3"/>
</g>
<g filter="url(#filter5_d)">
<path fill-rule="evenodd" clip-rule="evenodd" d="M4080.83 757.109C4051.35 740.877 4020.16 723.706 3991.9 692.453C3912.86 605.049 3795.92 473.073 3795.92 473.073L3306.56 457.247C3255.8 539.645 3197.2 528.218 3062.14 449.343L1077.21 385.152L966.986 2114.73L1152.87 2048.35C1152.87 2048.35 1478.24 1944.68 1652.24 1876.43C1688.59 1862.17 1738.04 1856.86 1788.27 1851.47L1788.27 1851.47C1818.01 1848.28 1848.02 1845.05 1875.74 1839.93C1941.53 1827.76 1984.71 1808.55 2029.37 1748.19C2045.59 1726.28 2053.44 1694.71 2062.24 1659.31C2076.21 1603.16 2092.56 1537.37 2148.55 1485.25C2221.19 1417.62 2290.08 1391.14 2406.93 1369.75C2410.63 1369.07 2414.24 1368.42 2417.75 1367.78C2508.26 1351.35 2534.41 1346.6 2592.52 1236.48C2622.7 1179.27 2622.87 1121.41 2623.03 1065.83C2623.2 1010.25 2623.35 956.957 2653.49 908.89C2692.26 847.06 2744.57 832.261 2794.5 818.134C2819.21 811.143 2843.34 804.317 2864.96 792.038C2908.25 767.454 2929.71 733.276 2952.92 696.31L2952.92 696.309C2964.73 677.5 2976.99 657.969 2992.81 638.614C3015.4 610.975 3077.53 600.176 3113.07 604.482C3160.82 610.256 3213.72 608.862 3281.18 603.063C3316.71 600.008 3346.54 574.506 3375.71 549.56C3401.93 527.143 3427.63 505.175 3456.46 500.346C3518.36 489.978 3638.23 500.27 3637.03 541.121C3635.83 581.973 3558.84 690.82 3426.4 715.207C3356.86 728.014 3297.13 713.181 3240.04 699.002C3188.41 686.182 3138.94 673.896 3086.31 683.059C2975.45 702.355 2954.07 780.925 2972.62 797.553C2979.23 803.478 2986.29 797.145 2997.2 787.357C3016.93 769.657 3049.25 740.66 3114.27 752.414C3167.4 762.027 3244.56 798.403 3302.65 825.792L3302.65 825.793C3331.11 839.21 3355 850.47 3369.24 855.369C3412.54 870.269 3509.66 898.056 3672.82 849.106C3691.69 843.444 3709.07 834.132 3726.94 824.555C3755.04 809.501 3784.36 793.793 3822.61 790.585C3913.48 782.962 4034.23 854.761 4083.17 922.18C4113.83 964.412 4100.12 998.233 4083.74 1038.67C4070.39 1071.62 4055.26 1108.96 4060.91 1158.83C4063.82 1184.56 4080.3 1220.64 4098.57 1260.62C4130.22 1329.92 4167.24 1410.94 4148.24 1470.14C4138.98 1489.17 4133.7 1502.6 4143.65 1481.75C4145.45 1477.98 4146.97 1474.11 4148.24 1470.14C4157.03 1452.1 4169.39 1429.02 4175.73 1425.39C4186 1419.5 4277.03 1210.3 4243.28 1054.49C4241.35 1045.57 4239.5 1036.78 4237.67 1028.12C4222.29 955.306 4208.67 890.848 4166.94 826.549C4144.7 792.28 4113.83 775.283 4080.83 757.109ZM3544.57 817.486C3567.12 813.138 3583.7 800.805 3581.6 789.94C3579.51 779.074 3559.53 773.792 3536.98 778.141C3514.43 782.489 3497.85 794.822 3499.94 805.688C3502.04 816.553 3522.02 821.835 3544.57 817.486ZM2963.67 601.484C2954.08 619.115 2935.46 627.512 2922.1 620.239C2908.74 612.966 2905.69 592.778 2915.29 575.147C2924.88 557.515 2943.5 549.118 2956.86 556.391C2970.22 563.664 2973.27 583.852 2963.67 601.484ZM2395.44 1289.9C2451.05 1326.44 2524.53 1298.86 2554.63 1216.36C2580.78 1144.66 2550.79 1044.41 2499.71 1064.68C2478.25 1073.19 2476.04 1088.75 2473.49 1106.68L2473.49 1106.68C2472.27 1115.26 2470.98 1124.39 2467.46 1133.54C2459.6 1153.97 2439.79 1165.74 2419.75 1177.64C2405.27 1186.24 2390.67 1194.91 2380.38 1206.97C2364.24 1225.88 2364.6 1269.63 2395.44 1289.9ZM2165.79 1237.97C2161.63 1252.62 2150.36 1262.27 2140.62 1259.5C2130.88 1256.74 2126.35 1242.61 2130.51 1227.96C2134.67 1213.3 2145.94 1203.66 2155.68 1206.42C2165.42 1209.19 2169.95 1223.31 2165.79 1237.97ZM2156.14 1422.63C2166.16 1419.52 2172.5 1411.23 2170.29 1404.11C2168.08 1396.99 2158.17 1393.73 2148.15 1396.84C2138.12 1399.94 2131.79 1408.24 2133.99 1415.36C2136.2 1422.48 2146.12 1425.73 2156.14 1422.63Z" fill="#2BAAE2"/>
</g>
<g filter="url(#filter6_d)">
<path fill-rule="evenodd" clip-rule="evenodd" d="M3077.19 467.389C3353.89 356.731 3710.92 373.239 3949.4 551.945C4162 711.262 4283.92 863.937 4310.91 1128.23C4338.6 1399.28 4059.04 1778.86 4059.04 1778.86L3970.33 1947.56C3970.33 1947.56 3759.64 2073.91 3582.72 2115.83C3469.57 2142.63 3370.73 2125.57 3313.86 2115.75C3281.8 2110.22 3263.08 2106.99 3262.63 2115.21C3261.8 2130.73 3367.75 2183.22 3540.41 2200.84C3713.09 2218.46 3957.06 2089.08 3957.06 2089.08L4033.48 2113.73L3970.34 2235.51C3970.34 2235.51 3683.9 2588.31 3432.02 2561.52C3355.26 2553.35 3241.4 2509.18 3241.4 2509.18L3127.27 2245.25C3127.27 2245.25 2956.42 1947.13 2757.29 1932.48L2756.43 1932.42C2717.24 1929.53 2617.68 1922.18 2509.02 1981.52C2397.76 2042.28 2338.6 2092.84 2281.31 2141.81C2237.9 2178.9 2195.57 2215.09 2132.46 2254.09C1986.06 2344.59 1944.66 2340.63 1944.66 2340.63C1944.66 2340.63 1983.34 2368.68 2110.15 2310.39C2180.98 2277.83 2252.05 2229.99 2315.19 2187.48L2315.19 2187.48L2315.2 2187.48C2365.08 2153.9 2410 2123.66 2445.94 2106.92C2555.87 2055.73 2695.33 2086.41 2767.37 2129.7C2878.88 2196.72 2938.33 2299.47 2993.77 2395.3C3040.69 2476.39 3084.74 2552.52 3155.05 2597.85C3284.87 2681.55 3447.04 2617.01 3619.29 2548.47L3619.3 2548.47L3619.35 2548.45L3619.36 2548.44L3619.36 2548.44L3619.37 2548.44L3619.38 2548.43C3650.64 2535.99 3682.24 2523.42 3714.03 2511.58C3881.71 2449.13 4111.46 2283.56 4111.46 2283.56L3921.9 2800.72L938.792 2637.94L954.635 2343.94C954.635 2343.94 1260.26 2333.94 1432.9 2313.92C1569.3 2298.11 1585.12 2290.78 1615.43 2276.75C1623.48 2273.02 1632.56 2268.82 1645.19 2263.86C1664.54 2256.26 1676.94 2249.21 1687.36 2243.29C1709.34 2230.79 1722.55 2223.27 1773.83 2226.06C1810.04 2228.04 1840.47 2238.95 1870.18 2249.6C1902.49 2261.19 1933.96 2272.48 1971.12 2271.65C2021.18 2270.52 2038.71 2257.48 2120.37 2196.73L2120.4 2196.71L2120.44 2196.68L2120.6 2196.56C2128.46 2190.71 2136.92 2184.41 2146.07 2177.65C2184.52 2149.18 2229.1 2113.13 2270.07 2078.94C2292.43 2060.29 2313.71 2042.17 2332.34 2026.17C2372.11 1992 2399.73 1967.4 2399.73 1967.4L2420.33 1952.23C2420.33 1952.23 2566.5 1832.26 2609.27 1813.09L2610.24 1812.65C2635.67 1801.23 2746.45 1751.48 2890.5 1767.22C3036.49 1783.16 3193.23 1876.87 3193.23 1876.87C3193.23 1876.87 3371.2 1969.36 3527.91 1925.13C3628.77 1896.67 3686.43 1843 3742.83 1790.51C3774.07 1761.44 3804.91 1732.73 3842.49 1708.87C3867.13 1687.27 3915.63 1656.15 3966.47 1623.53L3966.48 1623.53L3966.48 1623.53C4025.15 1585.89 4086.92 1546.25 4118.72 1516.95C4180.18 1460.32 4154.05 1373.55 4129.11 1290.77C4109.25 1224.82 4090.14 1161.41 4116.7 1117.77C4176.58 1019.35 4184.7 868.566 3969.4 784.859C3964.73 783.044 3959.74 781.139 3954.49 779.134L3954.39 779.095L3954.37 779.089C3878.02 749.929 3746.17 699.573 3724.29 594.394C3700.43 479.695 3460.55 441.988 3348.62 519.57C3290.33 559.97 3227.46 573.021 3164.73 586.043C3088.8 601.804 3013.08 617.521 2945.97 681.639C2879.98 744.679 2687.76 734.321 2687.76 734.321C2687.76 734.321 2913.99 532.657 3077.19 467.389ZM2568.55 1920.11C2579.33 1917.71 2586.71 1909.65 2585.03 1902.1C2583.36 1894.55 2573.26 1890.38 2562.47 1892.77C2551.69 1895.17 2544.31 1903.23 2545.99 1910.78C2547.66 1918.33 2557.77 1922.5 2568.55 1920.11ZM3205.32 1973.6C3184.59 2000.02 3154.14 1984.04 3123.82 1968.14C3106.17 1958.88 3088.58 1949.65 3072.97 1948.81C3068.53 1948.57 3063.63 1951.62 3058.07 1955.09C3047.36 1961.76 3034.22 1969.94 3017.34 1958.96C2994.26 1931.96 3030.92 1874.3 3109.15 1881.29C3187.38 1888.28 3238.12 1931.8 3205.32 1973.6ZM3709.58 1970.95C3717.5 1976.7 3730.22 1972.67 3737.99 1961.96C3745.75 1951.25 3745.62 1937.91 3737.7 1932.17C3729.78 1926.42 3717.06 1930.45 3709.3 1941.16C3701.53 1951.87 3701.66 1965.21 3709.58 1970.95ZM4003.6 688.822C3982.65 681.815 3966.63 662.222 3976.92 653.536C3981.31 649.828 3984.05 652.197 3987.7 655.346C3992.59 659.574 3999.11 665.208 4013.44 659.423C4038.43 649.33 4052.32 669.266 4048.52 680.646C4044.71 692.026 4024.55 695.829 4003.6 688.822ZM4203.68 1177.09C4206.77 1176.4 4208.35 1171.75 4207.23 1166.71C4206.1 1161.67 4202.69 1158.14 4199.61 1158.83C4196.53 1159.52 4194.94 1164.16 4196.07 1169.2C4197.19 1174.24 4200.6 1177.77 4203.68 1177.09ZM3189.98 464.305C3188.92 463.628 3187.95 462.919 3187.03 462.249C3183.15 459.407 3180.22 457.268 3176.15 461.321C3166.6 470.815 3184.16 489.039 3205.61 494.319C3227.06 499.599 3246.84 494.169 3249.71 482.518C3252.58 470.866 3237.11 452.126 3213.02 464.218C3212.87 464.296 3212.71 464.373 3212.56 464.448C3209.95 455.317 3203.58 449.145 3197.78 450.439C3193.06 451.491 3190.1 457.177 3189.98 464.305Z" fill="#4CC8ED"/>
</g>
<g filter="url(#filter7_d)">
<path fill-rule="evenodd" clip-rule="evenodd" d="M1960.11 1727.74C1861.35 1878.2 1671.27 1909.33 1671.27 1909.33L966.987 2114.73L1064.52 449.065L2546.28 532.482C2546.28 532.482 2542.65 557.433 2517.84 593.525C2505.32 611.754 2484.71 633.014 2468.73 649.5C2453.06 665.663 2441.84 677.238 2447.05 676.87C2455.26 676.293 2516.27 636.724 2544.42 609.485C2560.69 593.75 2573.21 577.904 2583.92 564.342L2583.93 564.34L2583.93 564.338C2600.07 543.915 2612.11 528.672 2626.67 526.789C2650.91 523.664 2553.53 779.825 2443.74 929.239C2378.02 1018.66 2327.18 1043.45 2276.05 1068.38C2244.65 1083.69 2213.14 1099.05 2178.01 1129.47C2076.86 1217.05 2066.32 1307.48 2066.32 1307.48C2066.32 1307.48 2058.88 1577.28 1960.11 1727.74ZM1864.64 1777.23C1871.12 1782.04 1881.92 1778.48 1888.75 1769.28C1895.59 1760.08 1895.87 1748.71 1889.39 1743.9C1882.91 1739.08 1872.11 1742.64 1865.28 1751.84C1858.44 1761.05 1858.16 1772.41 1864.64 1777.23ZM2373.51 919.529C2381.65 937.491 2356.52 966.413 2317.39 984.129C2278.26 1001.85 2239.95 1001.65 2231.82 983.685C2223.68 965.723 2248.81 936.801 2287.94 919.085C2327.07 901.369 2365.38 901.568 2373.51 919.529ZM2538.33 687.268C2544.05 688.554 2550.26 682.645 2552.18 674.069C2554.11 665.494 2551.03 657.499 2545.3 656.213C2539.58 654.927 2533.37 660.836 2531.45 669.412C2529.52 677.987 2532.6 685.982 2538.33 687.268Z" fill="#4CC8ED"/>
</g>
<g filter="url(#filter8_d)">
<path fill-rule="evenodd" clip-rule="evenodd" d="M3972.26 1883.1C3972.26 1883.1 3628.1 2194.72 3409.41 2227.99C3119.05 2272.17 3002.03 1970.02 2662.2 2019.45C2402.31 2057.24 2309.34 2338.64 2061.13 2407.29C1812.92 2475.95 1761.7 2312.33 1670.5 2302.46C1556.19 2290.09 1573.14 2377.38 1382.44 2353.67C1239.34 2335.89 955.069 2335.86 955.069 2335.86L951.219 2618.06L3911.21 2800.15L3941.91 2420.73C3941.91 2420.73 3829.95 2484.2 3700.27 2540.04C3580.92 2591.44 3450.02 2635.52 3300.1 2637.14C3105.68 2639.24 3052.64 2507.99 2910.48 2361.82C2781.67 2229.38 2742.19 2247.9 2758.89 2242.02C2781.51 2234.08 2866.27 2220.19 3018.41 2370.58C3153.12 2503.75 3291.2 2546.71 3499.42 2533.23C3730.65 2518.28 3950.54 2314.76 3950.54 2314.76L3972.26 1883.1Z" fill="#F2F2F2"/>
</g>
<g filter="url(#filter9_d)">
<path fill-rule="evenodd" clip-rule="evenodd" d="M3899.08 2799.49L954.871 2633.12L956.583 2307.77L1424.13 2343.39C1424.13 2343.39 1567.11 2337.65 1687.39 2375.97C1729.26 2389.31 1761.35 2410.13 1792.47 2430.34C1850.74 2468.15 1905.63 2503.78 2015.05 2484.01C2175.71 2454.97 2326.65 2289.84 2355.67 2258.09C2356.97 2256.66 2358.03 2255.51 2358.83 2254.65C2377.52 2234.53 2555.29 2071.2 2767.51 2072.07C2897.73 2072.6 3004.88 2127.69 3104.01 2178.66C3166.43 2210.75 3225.68 2241.21 3285.5 2255.39C3394.77 2281.28 3503.62 2224.83 3674.99 2131.74C3846.37 2038.65 3971.03 1883.04 3971.03 1883.04L3956.12 2211.38C3956.12 2211.38 3709.52 2494.78 3422.69 2488.81C3248.39 2485.18 3150.82 2404.22 3055.88 2325.43C2994.57 2274.56 2934.36 2224.6 2855.3 2196.96C2639.46 2158.95 2569.55 2190.38 2570.75 2222.51C2571.14 2232.8 2586.63 2235.4 2612.8 2239.81C2668.34 2249.15 2771.97 2266.59 2881.25 2382.75C2912.9 2416.4 2938.08 2451.88 2962.67 2486.53C3033.98 2587.02 3100.33 2680.53 3305.14 2702.08C3580.59 2731.06 3930.62 2446.12 3930.62 2446.12L3899.08 2799.49ZM1566.85 2560.88C1567.79 2543.4 1629.4 2513.88 1677.14 2502.73C1730.95 2490.15 1776.81 2514.27 1823.91 2539.02C1862.38 2559.25 1901.68 2579.91 1946.8 2581.35C1988.58 2582.69 2023.77 2574.16 2047.1 2568.5C2064.41 2564.3 2075.2 2561.69 2077.32 2565.85C2082.3 2575.64 1989.57 2642.52 1903.72 2628.1C1858.54 2620.52 1822.43 2599.01 1790.35 2579.9C1761.48 2562.71 1735.87 2547.45 1709.85 2546.05C1681.91 2544.55 1645.2 2551.77 1615.97 2557.52C1587.75 2563.07 1566.5 2567.24 1566.85 2560.88Z" fill="white"/>
</g>
<g filter="url(#filter10_d)">
<path fill-rule="evenodd" clip-rule="evenodd" d="M2569.28 528.236C2569.28 528.236 2557.08 619.782 2470.9 702.938C2384.73 786.104 2205.38 843.746 2221.73 846.27C2250.8 850.779 2409.87 804.524 2527.66 733.918C2646.48 662.706 2658.95 534.235 2658.95 534.235L2893.45 541.109C2893.45 541.109 2843.32 674.217 2764.46 757.077C2685.6 839.938 2688.72 829.199 2545.73 878.725C2416.95 923.325 2332.22 920.981 2217.75 1004.21C2127.88 1069.55 2085.8 1194.78 2065.71 1262.11C2034.85 1365.5 2038.41 1464.87 2007.02 1533.99C1935.98 1690.34 1703.07 1853.9 1703.07 1853.9C1703.07 1853.9 1509.07 2009.08 1508.88 1997.01C1508.42 1968.72 1704.84 1828.47 1830.5 1698.53C1947.51 1577.53 1939.32 1380.97 1893.26 1402.21C1847.19 1423.44 1917.78 1575.04 1681.37 1750.61C1416.75 1947.11 952.833 2377.35 952.833 2377.35L1083.9 455.091L2569.28 528.236Z" fill="#F2F2F2"/>
</g>
<g filter="url(#filter11_d)">
<path fill-rule="evenodd" clip-rule="evenodd" d="M1576.52 1750.59C1640.53 1689.86 1743.2 1639.23 1807.79 1527.77C1872.38 1416.32 1834.87 1304.8 1834.87 1304.8C1834.87 1304.8 1805.69 1217.8 1837.48 1124.68C1869.28 1031.57 1962.64 922.914 1979.73 926.478C1996.81 930.041 1918.36 1051.74 1905.82 1138.96C1893.28 1226.17 1920.06 1293.84 1920.06 1293.84C1920.06 1293.84 1918.31 1186.72 1974.1 1080.28C2029.87 973.846 2038.69 960.569 2143.18 868.083C2247.67 775.598 2314.22 772.784 2405.68 687.507C2497.15 602.229 2499.87 522.663 2499.87 522.663L2443.77 519.312C2443.77 519.312 2415.88 575.8 2373.65 623.516C2331.41 671.232 2274.48 702.526 2267.49 698.562C2260.5 694.608 2320.07 658.598 2345.71 607.672C2371.35 556.756 2374.39 513.138 2374.39 513.138L1095.71 449.34L952.833 2377.35C952.833 2377.35 1512.5 1811.32 1576.52 1750.59Z" fill="white"/>
</g>
<g filter="url(#filter12_d)">
<path d="M2398.29 818.867C2494.61 787.622 2601.02 743.284 2691.87 537.256L2848.64 545.705C2848.64 545.705 2753.67 728.359 2651.45 813.482C2549.22 898.604 2422.56 851.72 2201.09 984.496C1979.63 1117.27 2099.21 1402.67 1937.77 1615.24C1804.8 1790.32 1511.84 1983.35 1511.84 1983.35C1664.02 1844.84 1810.79 1743.05 1883.2 1624.32C1949.1 1516.26 1932.86 1387.83 1958.19 1236.29C1974.45 1139.02 2042.41 1027.69 2070.5 991.979C2152.75 887.438 2291.47 853.518 2398.29 818.867Z" fill="white"/>
</g>
<circle cx="3111.26" cy="1043.06" r="35" transform="rotate(3.08458 3111.26 1043.06)" stroke="#E0E0E0" stroke-width="15"/>
<circle cx="2342.3" cy="1393.19" r="35" transform="rotate(3.08458 2342.3 1393.19)" stroke="#E0E0E0" stroke-width="15"/>
<circle cx="3794.93" cy="1597.15" r="31" transform="rotate(3.08458 3794.93 1597.15)" stroke="#E0E0E0" stroke-width="12"/>
<circle cx="1916.34" cy="2170.89" r="24.5" transform="rotate(3.08458 1916.34 2170.89)" stroke="#F2F2F2" stroke-width="15"/>
<circle cx="2175.49" cy="1886.93" r="19.5" transform="rotate(3.08458 2175.49 1886.93)" fill="#4CC8ED"/>
<circle cx="2714.93" cy="1326.64" r="14" transform="rotate(3.08458 2714.93 1326.64)" fill="#4CC8ED"/>
<circle cx="3411.71" cy="1358.68" r="19.5" transform="rotate(3.08458 3411.71 1358.68)" fill="#4CC8ED"/>
</g>
<g filter="url(#filter13_d)">
<path fill-rule="evenodd" clip-rule="evenodd" d="M4531.05 276.846L789.477 75.2197L632.028 2996.98L4373.6 3198.61L4531.05 276.846ZM1602.91 1803.72L994.958 2333.07C994.958 2333.07 1246.8 2424.11 1392.66 2397.46C1441.51 2388.53 1483.54 2364.57 1523.27 2341.91C1564.36 2318.49 1603 2296.45 1644.21 2293.87C1687.27 2291.17 1720.42 2316.21 1757.56 2344.26C1802.51 2378.22 1853.31 2416.58 1934.57 2415.47C2082.96 2413.45 2163.55 2366.44 2267.48 2273.25C2301.94 2242.36 2329.39 2216.16 2353.35 2193.29C2415.98 2133.51 2454.74 2096.52 2532.32 2058.12C2635.4 2007.1 2694.29 1981.95 2884.07 2031.59C2954.58 2050.03 3012.94 2086.66 3070.85 2123C3168.8 2184.47 3265.48 2245.15 3417.59 2215.72C3651.65 2170.43 3934.86 1912.39 3934.86 1912.39C3934.86 1912.39 4170.67 1685.35 4206.57 1312.79C4242.48 940.238 4109.01 711.359 3959.04 598.631C3667.68 379.628 3273.43 430.279 3113.22 486.959C3016.34 521.23 2905.5 627.353 2816.92 712.157L2816.92 712.159C2773.73 753.509 2735.84 789.79 2707.44 810.201C2638.24 859.92 2545.64 880.704 2480.57 895.309L2480.56 895.309C2461.62 899.56 2445.02 903.287 2432 907.051C2364.68 926.511 2262.15 962.113 2212.03 1007.25C2207.04 1011.74 2202.34 1015.86 2197.87 1019.79C2156.22 1056.36 2134.38 1075.53 2080.54 1213.23C2057.84 1271.29 2048.07 1329.13 2038.65 1384.86C2023.34 1475.49 2008.97 1560.53 1941.49 1631.76C1782.11 1800.01 1536.04 1999.3 1511.86 1986.57C1499.91 1980.27 1571.56 1918.51 1654.75 1846.81C1739.83 1773.47 1836.99 1689.72 1869.07 1644.3C1932.52 1554.48 1954.3 1388.41 1890.11 1392.94C1882.02 1393.52 1879.21 1410.97 1874.85 1438C1867.74 1482.08 1856.51 1551.63 1811.6 1615.04C1739.16 1717.35 1602.91 1803.72 1602.91 1803.72ZM2219.57 839.711C2219.57 839.711 2401.56 772.764 2484.56 681.392C2558.03 600.516 2565.74 548.856 2568.72 528.921L2568.72 528.918C2569.04 526.779 2569.31 525.006 2569.59 523.601C2574.23 500.852 2586.05 470.029 2618.03 470.887C2636.72 471.392 2666.45 495.24 2660.3 532.234C2660.04 533.823 2659.77 535.519 2659.49 537.319L2659.48 537.34C2653.82 573.107 2641.73 649.473 2536.85 722.643C2426.67 799.51 2219.57 839.711 2219.57 839.711ZM2922.9 2285.98C2806.66 2219.82 2768.07 2227.59 2764.64 2233.02C2763.56 2234.72 2767.87 2237.3 2776.79 2242.64C2796.24 2254.28 2837.58 2279.02 2892.71 2336.36C2923.08 2367.95 2951.19 2400.35 2978.17 2431.45C3051.07 2515.48 3115.77 2590.06 3194.71 2613.65C3352.21 2660.72 3420.26 2637.84 3580.41 2583.99C3589.72 2580.86 3599.34 2577.62 3609.31 2574.29C3790.29 2513.8 3936.18 2406.41 3936.18 2406.41C3936.18 2406.41 3985.66 2361.3 4018.05 2301.46C4050.43 2241.62 4065.78 2162.07 4049.26 2157.22C4043.69 2155.59 4035.62 2174.63 4026.17 2196.92C4017.41 2217.59 4007.47 2241.05 3997.25 2253.4C3924.11 2341.76 3832.51 2433.44 3632.04 2497.85C3586.76 2512.4 3404.52 2559.62 3229.58 2497.68C3123.77 2460.21 3076.28 2414.83 3029.56 2370.17C2999.03 2340.99 2968.83 2312.13 2922.9 2285.98Z" fill="#F2F2F2"/>
</g>
<g filter="url(#filter14_d)">
<path fill-rule="evenodd" clip-rule="evenodd" d="M4517.65 -252.66L-3.40701 -50.3434L-59.6203 3270.41L4450.49 3202.75L4517.65 -252.66ZM1536.34 1785.26C1313.94 2001.14 951.359 2311.82 951.359 2311.82C951.359 2311.82 1323.39 2310.35 1561.48 2347.69C1700.72 2369.52 1761.95 2408.84 1808.9 2438.99C1842.23 2460.4 1868.36 2477.18 1910.09 2479.8C2039.74 2487.95 2050.45 2481.22 2161.76 2411.26C2174.27 2403.39 2188.05 2394.73 2203.41 2385.21C2266.49 2346.07 2311.47 2302.21 2354.77 2259.99C2415.83 2200.44 2473.56 2144.15 2574.01 2108.97C2745.7 2048.83 2835.17 2054.22 2971.41 2105.92C3012.24 2121.41 3052.58 2145.35 3093.75 2169.78C3189.96 2226.86 3290.72 2286.65 3412.92 2247.78C3594.8 2189.93 3825.38 2064.97 4004.69 1850.46C4141.42 1686.87 4149.91 1666.22 4192.55 1562.55C4200.6 1542.96 4209.88 1520.41 4221.47 1493.38C4258.39 1407.23 4313.13 993.906 4210.25 776.756C4122.35 591.217 3885.36 399.229 3552.47 344.361C3219.58 289.492 3072.37 348.792 2919.39 466.465C2858.59 513.237 2827.58 567.592 2794.58 625.447C2765.88 675.767 2735.67 728.734 2683.03 781.662C2633.15 831.805 2548.76 853.618 2457.27 877.264C2343.19 906.748 2218.08 939.083 2135.12 1032.75C2067.99 1108.53 2051.74 1221.42 2038.68 1312.2C2036.77 1325.53 2034.92 1338.38 2032.98 1350.57C2018.77 1440.27 1996.21 1503.19 1977.9 1536.53L1977.8 1536.71C1926.95 1629.33 1915.48 1650.21 1800.49 1753.54C1685.43 1856.94 1526.03 1982.93 1518.96 1975.99C1514.5 1971.63 1546.24 1944.27 1591.38 1905.37L1591.38 1905.37L1591.39 1905.36C1624.3 1876.99 1664.34 1842.48 1702.67 1806.26C1723.62 1786.47 1741.93 1770.53 1759.05 1755.62C1794.22 1725.02 1824.36 1698.79 1862 1652.48C1910.83 1592.43 1918.57 1544.59 1925.21 1503.53C1926 1498.63 1926.78 1493.83 1927.61 1489.12C1937.77 1431.38 1941.07 1377.25 1944.14 1319.06C1947.16 1262.09 1958.68 1075.37 2127.98 929.868C2199.69 868.25 2291.62 840.576 2372.4 816.26C2437.64 796.622 2495.6 779.175 2529.75 747.807C2657.29 630.635 2715.12 533.117 2702.76 465.849C2690.51 399.154 2594 368.459 2549.32 401.699C2520.37 423.242 2516.44 443.551 2509.21 480.878C2506.46 495.058 2503.24 511.694 2497.99 531.787C2495.22 542.385 2493.12 551.406 2491.27 559.346L2491.26 559.392L2491.26 559.402C2480.47 605.671 2478.25 615.206 2402.85 686.324C2360.04 726.708 2322.4 747.333 2283.19 768.822L2283.19 768.823C2241.48 791.681 2197.98 815.518 2144.57 865.155C2040.94 961.459 2019 985.783 1967.44 1081.11C1934.55 1141.92 1929.91 1205.67 1927.02 1245.46C1925.37 1268.03 1924.29 1282.88 1918.93 1285.11C1904.12 1291.26 1896.88 1195.37 1912.46 1107.35C1921.35 1057.07 1945.41 1006.73 1962.02 971.971L1962.02 971.969C1974.49 945.869 1982.76 928.554 1977.27 926.648C1964.45 922.204 1883.91 984.934 1833.67 1131.83C1811.19 1197.56 1822.54 1251.51 1833.54 1303.77C1838.12 1325.57 1842.65 1347.08 1844.63 1369.03C1847.98 1406.24 1838.7 1439.5 1820.64 1488C1782.7 1589.81 1705.88 1648.94 1630.25 1707.16C1597.66 1732.25 1565.28 1757.17 1536.34 1785.26ZM2269.58 687.318C2268.07 685.325 2275.01 677.531 2285.81 665.406C2311.13 636.984 2357.64 584.77 2366.14 527.745C2372.99 481.831 2369.71 441.972 2367.5 415.144C2365.73 393.631 2364.65 380.497 2370.03 379.336C2382.12 376.729 2440.39 442.025 2427.01 524.335C2413.81 605.522 2275.95 695.735 2269.58 687.318ZM2857.85 2192.49C2716.9 2148.2 2575.4 2184.57 2570.84 2210.09C2568.95 2220.65 2591.82 2227 2627.33 2236.88C2677.65 2250.86 2753.35 2271.91 2819.97 2321.96C2878.54 2365.97 2915.04 2417.02 2951.89 2468.58C2986.54 2517.05 3021.51 2565.97 3075.44 2609.9C3186.74 2700.56 3345.36 2705.41 3413.67 2694.65C3425.32 2692.81 3435.79 2691.33 3445.6 2689.94C3506.31 2681.35 3541.49 2676.37 3673.27 2612.91C3826.33 2539.21 4020.16 2427.12 4098.02 2269.86C4171.14 2122.16 4130.48 1980.95 4106.32 1979.66C4094.1 1979.01 4078.02 2009.77 4056.78 2050.39C4036.58 2089.04 4011.71 2136.62 3981.05 2174.58C3899.75 2275.27 3868.93 2304.08 3738.53 2383.53C3608.13 2462.98 3561.37 2480.64 3410.4 2481.56C3281.84 2482.34 3219.33 2441.75 3163.53 2405.52C3153.81 2399.21 3144.3 2393.03 3134.67 2387.22C3097.88 2365.03 3069.43 2337.99 3040.58 2310.56C2993.47 2265.78 2945.26 2219.95 2857.85 2192.49Z" fill="white"/>
</g>
<g filter="url(#filter15_i)">
<path fill-rule="evenodd" clip-rule="evenodd" d="M721.8 1853.95L222.329 2075.52C222.329 2075.52 159.516 2111.58 132.507 2147.51C109.089 2178.66 91.1006 2238.32 91.1006 2238.32C91.1006 2238.32 207.059 2355.6 328.221 2369.36C449.371 2383.13 593.033 2368.72 593.033 2368.72L1153.31 2068.85L721.8 1853.95Z" fill="#4CC8ED"/>
</g>
<path fill-rule="evenodd" clip-rule="evenodd" d="M721.8 1853.95L222.329 2075.52C222.329 2075.52 159.516 2111.58 132.507 2147.51C109.089 2178.66 91.1006 2238.32 91.1006 2238.32C91.1006 2238.32 207.059 2355.6 328.221 2369.36C449.371 2383.13 593.033 2368.72 593.033 2368.72L1153.31 2068.85L721.8 1853.95Z" stroke="#4CC8ED" stroke-linecap="round" stroke-linejoin="round"/>
<g filter="url(#filter16_d)">
<path fill-rule="evenodd" clip-rule="evenodd" d="M96.0253 2241.69C102.153 2378.74 124.179 2456.82 230.112 2600.56C230.112 2600.56 202.781 2605.1 188.465 2627.77C174.15 2650.41 180.959 2699.09 185.73 2706.56C190.501 2714.03 278.912 2681.79 334.63 2669.45C390.348 2657.12 509.231 2633.11 626.673 2588.74C778.102 2531.52 820.008 2512.28 995.609 2373.22C1122.88 2311.56 1152.24 2069.46 1152.24 2069.46L657.758 2334.14L594.157 2364.23C594.157 2364.23 434.733 2381.76 316.459 2360.7C198.191 2339.64 96.0253 2241.69 96.0253 2241.69Z" fill="#2BAAE2"/>
</g>
<path fill-rule="evenodd" clip-rule="evenodd" d="M885.411 1883.59L1106.78 1788.59L1086 2156.5L849.505 2285.83L885.411 1883.59Z" fill="#1172BA"/>
<path fill-rule="evenodd" clip-rule="evenodd" d="M606.5 1736L596.5 2130L865 2270.5L880 1882.5L606.5 1736Z" fill="#2BAAE2"/>
<path d="M1097.5 1950.5L1106.89 1790.32L880.703 1884.26L870.963 2044.67L1097.5 1950.5Z" fill="#272361"/>
<path d="M880.64 1885.28L607 1737.5L602.5 1909L870.962 2044.67L880.64 1885.28Z" fill="#2E3690"/>
<g filter="url(#filter17_i)">
<path d="M278.044 2267.1C260.022 2293.7 288.196 2302.58 288.196 2302.58C246.002 2294.7 137.106 2270.7 88.1582 2236.09C111.947 2148.31 140.125 2123.36 222.025 2075.01L602 1905.5L597 2109C597 2109 296.067 2240.51 278.044 2267.1Z" fill="#135EAB"/>
</g>
<g filter="url(#filter18_ddi)">
<path d="M195.407 2547.17C106.054 2431.92 99.7088 2390.83 88.2211 2235.06C245.494 2322.49 512.943 2334 601.747 2323.67L1152.59 2067.92C1145.74 2119.46 1123.14 2202.78 1100.24 2254.46C588.656 2539.26 631.657 2591.1 195.407 2547.17Z" fill="#2E3690"/>
</g>
<g filter="url(#filter19_d)">
<path fill-rule="evenodd" clip-rule="evenodd" d="M561.5 1734L883.5 1894.5L1148.82 1775.43L834 1628L561.5 1734Z" fill="#272361"/>
</g>
<g filter="url(#filter20_d)">
<path fill-rule="evenodd" clip-rule="evenodd" d="M793 1748L803.353 1424.18L815.623 1407.95C815.623 1407.95 836.761 1409.71 872.077 1411.38C907.395 1413.04 920.241 1407.69 920.241 1407.69L945.134 1424.59L930.943 1763.14C930.943 1763.14 909 1795.91 856 1787C796.5 1777 793 1748 793 1748Z" fill="#2E3690"/>
</g>
<path d="M940.452 1548.52C884.16 1575.75 855.782 1575.99 799.5 1540.5L804 1395C804 1395 805.695 1389.1 806.498 1386.81C809.222 1379.03 819.837 1370.92 823 1369.5C826.163 1368.08 818.369 1379.41 824.43 1381.93C861.753 1397.49 886.278 1399.88 928.736 1386.81C933.751 1385.26 939.498 1387.5 939.498 1387.5C939.498 1387.5 943.559 1392.53 944.998 1396C946.04 1398.51 947.224 1404.09 947.224 1404.09L940.452 1548.52Z" fill="#4CC8ED"/>
<path d="M878.059 1398.06C921.2 1400.68 942.999 1393 942.999 1393C942.999 1393 923.682 1359.81 877.384 1357C831.085 1354.19 813.5 1378.5 813.5 1378.5C813.5 1378.5 830.708 1395.19 878.059 1398.06Z" fill="#4CC8ED" stroke="#4CC8ED" stroke-linecap="round" stroke-linejoin="round"/>
<g filter="url(#filter21_ddi)">
<path d="M878 1366C847.483 1362.57 815.803 1380.57 815.242 1389.77C814.682 1398.96 849.401 1412.85 874.284 1413.86C900.096 1414.91 936.796 1414.58 937.727 1399.25C938.119 1392.79 914.668 1370.12 878 1366Z" fill="#272361"/>
</g>
<g filter="url(#filter22_d)">
<path fill-rule="evenodd" clip-rule="evenodd" d="M1190.91 1318.56C1243.96 1321.78 1289.65 1280.02 1292.97 1225.28C1296.3 1170.55 1255.99 1123.56 1202.95 1120.34C1162.75 1117.9 1126.78 1141.29 1110.26 1176.58C1107.94 1176.22 1105.58 1175.96 1103.18 1175.82C1061.42 1173.28 1025.46 1205.99 1022.86 1248.88C1022.1 1261.36 1024.25 1273.34 1028.72 1284.1C1005.11 1282.78 984.812 1301.25 983.343 1325.44C981.87 1349.7 999.888 1370.54 1023.59 1371.98C1047.29 1373.42 1067.7 1354.92 1069.17 1330.65C1069.28 1328.86 1069.28 1327.08 1069.18 1325.33C1076.79 1328.58 1085.05 1330.59 1093.75 1331.12C1116.59 1332.51 1137.7 1323.35 1152.56 1307.75C1164.11 1313.9 1177.08 1317.72 1190.91 1318.56Z" fill="#2E3690"/>
</g>
<path d="M206.977 2394.33C206.886 2392.69 207.435 2391.09 208.503 2389.86C209.571 2388.64 211.07 2387.91 212.67 2387.82C214.271 2387.73 215.842 2388.3 217.038 2389.39C218.234 2390.49 218.957 2392.02 219.047 2393.66C219.284 2398.16 220.912 2402.46 223.697 2405.96C226.481 2409.45 230.277 2411.95 234.535 2413.09L232.181 2370.51C229.929 2369.52 227.976 2367.93 226.524 2365.91C225.072 2363.89 224.173 2361.5 223.92 2359.01C223.668 2356.52 224.071 2354 225.088 2351.72C226.105 2349.45 227.699 2347.49 229.704 2346.06C231.71 2344.62 234.055 2343.77 236.497 2343.57C238.938 2343.38 241.387 2343.86 243.591 2344.96C245.795 2346.06 247.673 2347.74 249.031 2349.83C250.389 2351.92 251.177 2354.34 251.315 2356.84C251.464 2359.47 250.879 2362.09 249.628 2364.4C248.378 2366.7 246.513 2368.59 244.251 2369.84L246.605 2412.42C250.712 2410.82 254.209 2407.92 256.591 2404.14C258.973 2400.36 260.117 2395.9 259.857 2391.41C259.766 2389.77 260.315 2388.16 261.383 2386.94C262.451 2385.72 263.95 2384.98 265.55 2384.89C267.151 2384.81 268.722 2385.37 269.918 2386.47C271.114 2387.56 271.837 2389.1 271.927 2390.74C272.419 2399.63 269.439 2408.35 263.642 2414.98C257.846 2421.61 249.708 2425.6 241.019 2426.08C232.33 2426.56 223.801 2423.49 217.309 2417.54C210.817 2411.59 206.894 2403.26 206.402 2394.36L206.977 2394.33Z" fill="#191919"/>
<path d="M213.695 2384.22C213.604 2382.58 214.13 2380.98 215.156 2379.76C216.181 2378.54 217.624 2377.81 219.165 2377.72C220.706 2377.64 222.221 2378.21 223.375 2379.3C224.529 2380.4 225.228 2381.94 225.318 2383.58C225.555 2388.07 227.133 2392.38 229.821 2395.88C232.51 2399.38 236.171 2401.88 240.274 2403.04L237.919 2360.46C235.749 2359.46 233.865 2357.87 232.462 2355.84C231.06 2353.82 230.189 2351.43 229.941 2348.94C229.693 2346.45 230.076 2343.93 231.05 2341.66C232.025 2339.38 233.556 2337.43 235.485 2336C237.413 2334.57 239.67 2333.72 242.021 2333.53C244.372 2333.34 246.732 2333.82 248.856 2334.93C250.981 2336.03 252.793 2337.72 254.105 2339.81C255.417 2341.9 256.182 2344.32 256.32 2346.83C256.468 2349.46 255.91 2352.08 254.711 2354.38C253.511 2356.68 251.719 2358.56 249.543 2359.81L251.897 2402.39C255.848 2400.8 259.211 2397.9 261.497 2394.13C263.784 2390.36 264.876 2385.9 264.616 2381.4C264.526 2379.77 265.051 2378.16 266.077 2376.94C267.103 2375.72 268.545 2374.99 270.086 2374.91C271.628 2374.82 273.142 2375.39 274.296 2376.49C275.45 2377.59 276.149 2379.12 276.24 2380.76C276.731 2389.66 273.879 2398.37 268.31 2404.98C262.741 2411.6 254.912 2415.58 246.545 2416.04C238.177 2416.5 229.957 2413.41 223.693 2407.45C217.429 2401.49 213.633 2393.14 213.141 2384.25L213.695 2384.22Z" fill="#4CC8ED"/>
</g>
<defs>
<filter id="filter0_d" x="839.273" y="767.478" width="3485.14" height="2093.57" filterUnits="userSpaceOnUse" color-interpolation-filters="sRGB">
<feFlood flood-opacity="0" result="BackgroundImageFix"/>
<feColorMatrix in="SourceAlpha" type="matrix" values="0 0 0 0 0 0 0 0 0 0 0 0 0 0 0 0 0 0 127 0"/>
<feOffset dy="-40"/>
<feGaussianBlur stdDeviation="50"/>
<feColorMatrix type="matrix" values="0 0 0 0 0 0 0 0 0 0 0 0 0 0 0 0 0 0 0.3 0"/>
<feBlend mode="normal" in2="BackgroundImageFix" result="effect1_dropShadow"/>
<feBlend mode="normal" in="SourceGraphic" in2="effect1_dropShadow" result="shape"/>
</filter>
<filter id="filter1_d" x="880.711" y="275.807" width="3385.14" height="1891.48" filterUnits="userSpaceOnUse" color-interpolation-filters="sRGB">
<feFlood flood-opacity="0" result="BackgroundImageFix"/>
<feColorMatrix in="SourceAlpha" type="matrix" values="0 0 0 0 0 0 0 0 0 0 0 0 0 0 0 0 0 0 127 0"/>
<feOffset dy="40"/>
<feGaussianBlur stdDeviation="50"/>
<feColorMatrix type="matrix" values="0 0 0 0 0 0 0 0 0 0 0 0 0 0 0 0 0 0 0.3 0"/>
<feBlend mode="normal" in2="BackgroundImageFix" result="effect1_dropShadow"/>
<feBlend mode="normal" in="SourceGraphic" in2="effect1_dropShadow" result="shape"/>
</filter>
<filter id="filter2_d" x="793.684" y="561.74" width="3530.2" height="2296.59" filterUnits="userSpaceOnUse" color-interpolation-filters="sRGB">
<feFlood flood-opacity="0" result="BackgroundImageFix"/>
<feColorMatrix in="SourceAlpha" type="matrix" values="0 0 0 0 0 0 0 0 0 0 0 0 0 0 0 0 0 0 127 0"/>
<feOffset dx="-40" dy="-60"/>
<feGaussianBlur stdDeviation="52.5"/>
<feColorMatrix type="matrix" values="0 0 0 0 0 0 0 0 0 0 0 0 0 0 0 0 0 0 0.4 0"/>
<feBlend mode="normal" in2="BackgroundImageFix" result="effect1_dropShadow"/>
<feBlend mode="normal" in="SourceGraphic" in2="effect1_dropShadow" result="shape"/>
</filter>
<filter id="filter3_d" x="859.83" y="248.616" width="3483.41" height="2365.97" filterUnits="userSpaceOnUse" color-interpolation-filters="sRGB">
<feFlood flood-opacity="0" result="BackgroundImageFix"/>
<feColorMatrix in="SourceAlpha" type="matrix" values="0 0 0 0 0 0 0 0 0 0 0 0 0 0 0 0 0 0 127 0"/>
<feOffset dx="40" dy="60"/>
<feGaussianBlur stdDeviation="70"/>
<feColorMatrix type="matrix" values="0 0 0 0 0 0 0 0 0 0 0 0 0 0 0 0 0 0 0.7 0"/>
<feBlend mode="normal" in2="BackgroundImageFix" result="effect1_dropShadow"/>
<feBlend mode="normal" in="SourceGraphic" in2="effect1_dropShadow" result="shape"/>
</filter>
<filter id="filter4_d" x="832.873" y="1139.43" width="3406.76" height="1710.89" filterUnits="userSpaceOnUse" color-interpolation-filters="sRGB">
<feFlood flood-opacity="0" result="BackgroundImageFix"/>
<feColorMatrix in="SourceAlpha" type="matrix" values="0 0 0 0 0 0 0 0 0 0 0 0 0 0 0 0 0 0 127 0"/>
<feOffset dx="-30" dy="-30"/>
<feGaussianBlur stdDeviation="37.5"/>
<feColorMatrix type="matrix" values="0 0 0 0 0 0 0 0 0 0 0 0 0 0 0 0 0 0 0.37 0"/>
<feBlend mode="normal" in2="BackgroundImageFix" result="effect1_dropShadow"/>
<feBlend mode="normal" in="SourceGraphic" in2="effect1_dropShadow" result="shape"/>
</filter>
<filter id="filter5_d" x="896.986" y="265.822" width="3558.41" height="2202.53" filterUnits="userSpaceOnUse" color-interpolation-filters="sRGB">
<feFlood flood-opacity="0" result="BackgroundImageFix"/>
<feColorMatrix in="SourceAlpha" type="matrix" values="0 0 0 0 0 0 0 0 0 0 0 0 0 0 0 0 0 0 127 0"/>
<feOffset dx="50" dy="60"/>
<feGaussianBlur stdDeviation="60"/>
<feColorMatrix type="matrix" values="0 0 0 0 0 0 0 0 0 0 0 0 0 0 0 0 0 0 0.5 0"/>
<feBlend mode="normal" in2="BackgroundImageFix" result="effect1_dropShadow"/>
<feBlend mode="normal" in="SourceGraphic" in2="effect1_dropShadow" result="shape"/>
</filter>
<filter id="filter6_d" x="828.684" y="218.139" width="3533.7" height="2668.89" filterUnits="userSpaceOnUse" color-interpolation-filters="sRGB">
<feFlood flood-opacity="0" result="BackgroundImageFix"/>
<feColorMatrix in="SourceAlpha" type="matrix" values="0 0 0 0 0 0 0 0 0 0 0 0 0 0 0 0 0 0 127 0"/>
<feOffset dx="-50" dy="10"/>
<feGaussianBlur stdDeviation="30"/>
<feColorMatrix type="matrix" values="0 0 0 0 0 0 0 0 0 0 0 0 0 0 0 0 0 0 0.3 0"/>
<feBlend mode="normal" in2="BackgroundImageFix" result="effect1_dropShadow"/>
<feBlend mode="normal" in="SourceGraphic" in2="effect1_dropShadow" result="shape"/>
</filter>
<filter id="filter7_d" x="866.988" y="382.153" width="1863.85" height="1957.38" filterUnits="userSpaceOnUse" color-interpolation-filters="sRGB">
<feFlood flood-opacity="0" result="BackgroundImageFix"/>
<feColorMatrix in="SourceAlpha" type="matrix" values="0 0 0 0 0 0 0 0 0 0 0 0 0 0 0 0 0 0 127 0"/>
<feOffset dy="40"/>
<feGaussianBlur stdDeviation="50"/>
<feColorMatrix type="matrix" values="0 0 0 0 0 0 0 0 0 0 0 0 0 0 0 0 0 0 0.3 0"/>
<feBlend mode="normal" in2="BackgroundImageFix" result="effect1_dropShadow"/>
<feBlend mode="normal" in="SourceGraphic" in2="effect1_dropShadow" result="shape"/>
</filter>
<filter id="filter8_d" x="884.682" y="1684.3" width="3093.12" height="1136.56" filterUnits="userSpaceOnUse" color-interpolation-filters="sRGB">
<feFlood flood-opacity="0" result="BackgroundImageFix"/>
<feColorMatrix in="SourceAlpha" type="matrix" values="0 0 0 0 0 0 0 0 0 0 0 0 0 0 0 0 0 0 127 0"/>
<feOffset dx="-25" dy="-9"/>
<feGaussianBlur stdDeviation="14.5"/>
<feColorMatrix type="matrix" values="0 0 0 0 0 0 0 0 0 0 0 0 0 0 0 0 0 0 0.3 0"/>
<feBlend mode="normal" in2="BackgroundImageFix" result="effect1_dropShadow"/>
<feBlend mode="normal" in="SourceGraphic" in2="effect1_dropShadow" result="shape"/>
</filter>
<filter id="filter9_d" x="933.682" y="1695.3" width="3085.12" height="1128.56" filterUnits="userSpaceOnUse" color-interpolation-filters="sRGB">
<feFlood flood-opacity="0" result="BackgroundImageFix"/>
<feColorMatrix in="SourceAlpha" type="matrix" values="0 0 0 0 0 0 0 0 0 0 0 0 0 0 0 0 0 0 127 0"/>
<feOffset dx="20" dy="-2"/>
<feGaussianBlur stdDeviation="12.5"/>
<feColorMatrix type="matrix" values="0 0 0 0 0 0 0 0 0 0 0 0 0 0 0 0 0 0 0.23 0"/>
<feBlend mode="normal" in2="BackgroundImageFix" result="effect1_dropShadow"/>
<feBlend mode="normal" in="SourceGraphic" in2="effect1_dropShadow" result="shape"/>
</filter>
<filter id="filter10_d" x="918.834" y="419.153" width="2026.62" height="2120.15" filterUnits="userSpaceOnUse" color-interpolation-filters="sRGB">
<feFlood flood-opacity="0" result="BackgroundImageFix"/>
<feColorMatrix in="SourceAlpha" type="matrix" values="0 0 0 0 0 0 0 0 0 0 0 0 0 0 0 0 0 0 127 0"/>
<feOffset dx="9" dy="20"/>
<feGaussianBlur stdDeviation="21.5"/>
<feColorMatrix type="matrix" values="0 0 0 0 0 0 0 0 0 0 0 0 0 0 0 0 0 0 0.39 0"/>
<feBlend mode="normal" in2="BackgroundImageFix" result="effect1_dropShadow"/>
<feBlend mode="normal" in="SourceGraphic" in2="effect1_dropShadow" result="shape"/>
</filter>
<filter id="filter11_d" x="944.834" y="418.153" width="1599.19" height="2064.95" filterUnits="userSpaceOnUse" color-interpolation-filters="sRGB">
<feFlood flood-opacity="0" result="BackgroundImageFix"/>
<feColorMatrix in="SourceAlpha" type="matrix" values="0 0 0 0 0 0 0 0 0 0 0 0 0 0 0 0 0 0 127 0"/>
<feOffset dx="18" dy="2"/>
<feGaussianBlur stdDeviation="13"/>
<feColorMatrix type="matrix" values="0 0 0 0 0 0 0 0 0 0 0 0 0 0 0 0 0 0 0.18 0"/>
<feBlend mode="normal" in2="BackgroundImageFix" result="effect1_dropShadow"/>
<feBlend mode="normal" in="SourceGraphic" in2="effect1_dropShadow" result="shape"/>
</filter>
<filter id="filter12_d" x="1503.84" y="454.039" width="1388.8" height="1624.98" filterUnits="userSpaceOnUse" color-interpolation-filters="sRGB">
<feFlood flood-opacity="0" result="BackgroundImageFix"/>
<feColorMatrix in="SourceAlpha" type="matrix" values="0 0 0 0 0 0 0 0 0 0 0 0 0 0 0 0 0 0 127 0"/>
<feOffset dx="18" dy="2"/>
<feGaussianBlur stdDeviation="13"/>
<feColorMatrix type="matrix" values="0 0 0 0 0 0 0 0 0 0 0 0 0 0 0 0 0 0 0.2 0"/>
<feBlend mode="normal" in2="BackgroundImageFix" result="effect1_dropShadow"/>
<feBlend mode="normal" in="SourceGraphic" in2="effect1_dropShadow" result="shape"/>
</filter>
<filter id="filter13_d" x="555.029" y="13.2197" width="4023.02" height="3247.39" filterUnits="userSpaceOnUse" color-interpolation-filters="sRGB">
<feFlood flood-opacity="0" result="BackgroundImageFix"/>
<feColorMatrix in="SourceAlpha" type="matrix" values="0 0 0 0 0 0 0 0 0 0 0 0 0 0 0 0 0 0 127 0"/>
<feOffset dx="-15"/>
<feGaussianBlur stdDeviation="31"/>
<feColorMatrix type="matrix" values="0 0 0 0 0 0 0 0 0 0 0 0 0 0 0 0 0 0 0.4 0"/>
<feBlend mode="normal" in2="BackgroundImageFix" result="effect1_dropShadow"/>
<feBlend mode="normal" in="SourceGraphic" in2="effect1_dropShadow" result="shape"/>
</filter>
<filter id="filter14_d" x="-236" y="-527" width="4876.35" height="4065.55" filterUnits="userSpaceOnUse" color-interpolation-filters="sRGB">
<feFlood flood-opacity="0" result="BackgroundImageFix"/>
<feColorMatrix in="SourceAlpha" type="matrix" values="0 0 0 0 0 0 0 0 0 0 0 0 0 0 0 0 0 0 127 0"/>
<feOffset dx="-25" dy="-3"/>
<feGaussianBlur stdDeviation="14.5"/>
<feColorMatrix type="matrix" values="0 0 0 0 0 0 0 0 0 0 0 0 0 0 0 0 0 0 0.3 0"/>
<feBlend mode="normal" in2="BackgroundImageFix" result="effect1_dropShadow"/>
<feBlend mode="normal" in="SourceGraphic" in2="effect1_dropShadow" result="shape"/>
</filter>
<filter id="filter15_i" x="83.4473" y="1806.68" width="1091.81" height="613.143" filterUnits="userSpaceOnUse" color-interpolation-filters="sRGB">
<feFlood flood-opacity="0" result="BackgroundImageFix"/>
<feBlend mode="normal" in="SourceGraphic" in2="BackgroundImageFix" result="shape"/>
<feColorMatrix in="SourceAlpha" type="matrix" values="0 0 0 0 0 0 0 0 0 0 0 0 0 0 0 0 0 0 127 0" result="hardAlpha"/>
<feOffset dx="10" dy="-10"/>
<feGaussianBlur stdDeviation="75"/>
<feComposite in2="hardAlpha" operator="arithmetic" k2="-1" k3="1"/>
<feColorMatrix type="matrix" values="0 0 0 0 0 0 0 0 0 0 0 0 0 0 0 0 0 0 0.7 0"/>
<feBlend mode="normal" in2="shape" result="effect1_innerShadow"/>
</filter>
<filter id="filter16_d" x="-47.8223" y="1974.2" width="1260.07" height="933.39" filterUnits="userSpaceOnUse" color-interpolation-filters="sRGB">
<feFlood flood-opacity="0" result="BackgroundImageFix"/>
<feColorMatrix in="SourceAlpha" type="matrix" values="0 0 0 0 0 0 0 0 0 0 0 0 0 0 0 0 0 0 127 0"/>
<feOffset dx="-28" dy="56"/>
<feGaussianBlur stdDeviation="44"/>
<feColorMatrix type="matrix" values="0 0 0 0 0 0 0 0 0 0 0 0 0 0 0 0 0 0 0.3 0"/>
<feBlend mode="normal" in2="BackgroundImageFix" result="effect1_dropShadow"/>
<feBlend mode="normal" in="SourceGraphic" in2="effect1_dropShadow" result="shape"/>
</filter>
<filter id="filter17_i" x="84.8691" y="1875.63" width="524.459" height="494.926" filterUnits="userSpaceOnUse" color-interpolation-filters="sRGB">
<feFlood flood-opacity="0" result="BackgroundImageFix"/>
<feBlend mode="normal" in="SourceGraphic" in2="BackgroundImageFix" result="shape"/>
<feColorMatrix in="SourceAlpha" type="matrix" values="0 0 0 0 0 0 0 0 0 0 0 0 0 0 0 0 0 0 127 0" result="hardAlpha"/>
<feOffset dy="50"/>
<feGaussianBlur stdDeviation="50"/>
<feComposite in2="hardAlpha" operator="arithmetic" k2="-1" k3="1"/>
<feColorMatrix type="matrix" values="0 0 0 0 0 0 0 0 0 0 0 0 0 0 0 0 0 0 0.45 0"/>
<feBlend mode="normal" in2="shape" result="effect1_innerShadow"/>
</filter>
<filter id="filter18_ddi" x="44.5469" y="1967.15" width="1133.04" height="689.227" filterUnits="userSpaceOnUse" color-interpolation-filters="sRGB">
<feFlood flood-opacity="0" result="BackgroundImageFix"/>
<feColorMatrix in="SourceAlpha" type="matrix" values="0 0 0 0 0 0 0 0 0 0 0 0 0 0 0 0 0 0 127 0"/>
<feOffset dy="4"/>
<feGaussianBlur stdDeviation="10"/>
<feColorMatrix type="matrix" values="0 0 0 0 0 0 0 0 0 0 0 0 0 0 0 0 0 0 0.28 0"/>
<feBlend mode="normal" in2="BackgroundImageFix" result="effect1_dropShadow"/>
<feColorMatrix in="SourceAlpha" type="matrix" values="0 0 0 0 0 0 0 0 0 0 0 0 0 0 0 0 0 0 127 0"/>
<feOffset dy="-12"/>
<feGaussianBlur stdDeviation="12.5"/>
<feColorMatrix type="matrix" values="0 0 0 0 0 0 0 0 0 0 0 0 0 0 0 0 0 0 0.25 0"/>
<feBlend mode="normal" in2="effect1_dropShadow" result="effect2_dropShadow"/>
<feBlend mode="normal" in="SourceGraphic" in2="effect2_dropShadow" result="shape"/>
<feColorMatrix in="SourceAlpha" type="matrix" values="0 0 0 0 0 0 0 0 0 0 0 0 0 0 0 0 0 0 127 0" result="hardAlpha"/>
<feOffset dy="50"/>
<feGaussianBlur stdDeviation="50"/>
<feComposite in2="hardAlpha" operator="arithmetic" k2="-1" k3="1"/>
<feColorMatrix type="matrix" values="0 0 0 0 0 0 0 0 0 0 0 0 0 0 0 0 0 0 0.41 0"/>
<feBlend mode="normal" in2="shape" result="effect3_innerShadow"/>
</filter>
<filter id="filter19_d" x="452.975" y="1551.9" width="803.605" height="498.209" filterUnits="userSpaceOnUse" color-interpolation-filters="sRGB">
<feFlood flood-opacity="0" result="BackgroundImageFix"/>
<feColorMatrix in="SourceAlpha" type="matrix" values="0 0 0 0 0 0 0 0 0 0 0 0 0 0 0 0 0 0 127 0"/>
<feOffset dy="40"/>
<feGaussianBlur stdDeviation="50"/>
<feColorMatrix type="matrix" values="0 0 0 0 0 0 0 0 0 0 0 0 0 0 0 0 0 0 0.4 0"/>
<feBlend mode="normal" in2="BackgroundImageFix" result="effect1_dropShadow"/>
<feBlend mode="normal" in="SourceGraphic" in2="effect1_dropShadow" result="shape"/>
</filter>
<filter id="filter20_d" x="761.559" y="1377" width="211.801" height="447.084" filterUnits="userSpaceOnUse" color-interpolation-filters="sRGB">
<feFlood flood-opacity="0" result="BackgroundImageFix"/>
<feColorMatrix in="SourceAlpha" type="matrix" values="0 0 0 0 0 0 0 0 0 0 0 0 0 0 0 0 0 0 127 0"/>
<feOffset dy="12"/>
<feGaussianBlur stdDeviation="10"/>
<feColorMatrix type="matrix" values="0 0 0 0 0 0 0 0 0 0 0 0 0 0 0 0 0 0 0.25 0"/>
<feBlend mode="normal" in2="BackgroundImageFix" result="effect1_dropShadow"/>
<feBlend mode="normal" in="SourceGraphic" in2="effect1_dropShadow" result="shape"/>
</filter>
<filter id="filter21_ddi" x="809" y="1353.2" width="135.524" height="74.458" filterUnits="userSpaceOnUse" color-interpolation-filters="sRGB">
<feFlood flood-opacity="0" result="BackgroundImageFix"/>
<feColorMatrix in="SourceAlpha" type="matrix" values="0 0 0 0 0 0 0 0 0 0 0 0 0 0 0 0 0 0 127 0"/>
<feOffset dy="-4"/>
<feGaussianBlur stdDeviation="2.5"/>
<feColorMatrix type="matrix" values="0 0 0 0 0 0 0 0 0 0 0 0 0 0 0 0 0 0 0.35 0"/>
<feBlend mode="normal" in2="BackgroundImageFix" result="effect1_dropShadow"/>
<feColorMatrix in="SourceAlpha" type="matrix" values="0 0 0 0 0 0 0 0 0 0 0 0 0 0 0 0 0 0 127 0"/>
<feOffset dy="2"/>
<feGaussianBlur stdDeviation="1.5"/>
<feColorMatrix type="matrix" values="0 0 0 0 0 0 0 0 0 0 0 0 0 0 0 0 0 0 0.25 0"/>
<feBlend mode="normal" in2="effect1_dropShadow" result="effect2_dropShadow"/>
<feBlend mode="normal" in="SourceGraphic" in2="effect2_dropShadow" result="shape"/>
<feColorMatrix in="SourceAlpha" type="matrix" values="0 0 0 0 0 0 0 0 0 0 0 0 0 0 0 0 0 0 127 0" result="hardAlpha"/>
<feOffset dy="10"/>
<feGaussianBlur stdDeviation="7.5"/>
<feComposite in2="hardAlpha" operator="arithmetic" k2="-1" k3="1"/>
<feColorMatrix type="matrix" values="0 0 0 0 0 0 0 0 0 0 0 0 0 0 0 0 0 0 0.4 0"/>
<feBlend mode="normal" in2="shape" result="effect3_innerShadow"/>
</filter>
<filter id="filter22_d" x="970.676" y="1092.81" width="358.317" height="319.928" filterUnits="userSpaceOnUse" color-interpolation-filters="sRGB">
<feFlood flood-opacity="0" result="BackgroundImageFix"/>
<feColorMatrix in="SourceAlpha" type="matrix" values="0 0 0 0 0 0 0 0 0 0 0 0 0 0 0 0 0 0 127 0"/>
<feOffset dx="10" dy="5"/>
<feGaussianBlur stdDeviation="10"/>
<feColorMatrix type="matrix" values="0 0 0 0 0 0 0 0 0 0 0 0 0 0 0 0 0 0 0.25 0"/>
<feBlend mode="normal" in2="BackgroundImageFix" result="effect1_dropShadow"/>
<feBlend mode="normal" in="SourceGraphic" in2="effect1_dropShadow" result="shape"/>
</filter>
</defs>
</svg>
