<svg width="7826" height="6558" viewBox="0 0 7826 6558" fill="none" xmlns="http://www.w3.org/2000/svg">
<path d="M6115.85 394.312L7449.15 3242.44C7476.66 3301.22 7470.41 3370.26 7432.77 3423.13L5568.02 6043C5531.31 6094.58 5470.19 6123.08 5407.07 6118.05L2205.89 5862.86C2141.39 5857.72 2084.61 5818.36 2057.18 5759.76L720.293 2904.46C692.795 2845.73 699.014 2776.75 736.573 2723.89L2597.68 104.347C2634.46 52.5847 2695.78 24.0276 2759.07 29.1961L5967.48 291.224C6031.85 296.481 6088.47 335.82 6115.85 394.312Z" stroke="#E0E0E0" stroke-width="40" stroke-linejoin="round"/>
<path opacity="0.151982" fill-rule="evenodd" clip-rule="evenodd" d="M182.009 2923.91C469.414 2109.34 2042.94 2098.46 2113.21 1308.65C2182.53 529.493 3173.1 609.423 3753.25 930.091C4381.27 1277.21 6585.6 589.373 6510.75 1151.95C6435.89 1714.53 7483.77 1935.95 7549.52 2796.47C7614.85 3651.42 6651.52 4717.03 6856.8 5224.82C7040.48 5679.15 4668.2 5396.9 3681 5396.9C3056.03 5396.9 1665.55 5592.59 1472.39 5108.45C1060.1 4075.05 -152.452 3871.86 182.009 2923.91Z" fill="#4CC8ED"/>
<path opacity="0.42511" fill-rule="evenodd" clip-rule="evenodd" d="M6458.79 577.214C6436.52 577.753 6417.08 580.796 6404.64 584.657L6398.11 702.961C6344.46 704.376 6309.64 706.46 6262.8 725.865L6203.71 621.109C6152.13 634.741 6082.51 676.256 6058.35 715.25L6125.45 811.309C6092.66 840.634 6069.47 866.555 6046.94 904.618L5950.16 854.353C5919.79 888.128 5890.6 956.877 5893.97 990.618L5995.45 1025.18C5985.79 1063 5981.13 1102.79 5982.21 1143.77L5874.43 1161.9C5865.2 1200.78 5874.26 1276.85 5902.82 1315.42L6008.29 1280.95C6022.99 1321.1 6044.82 1361.5 6070.05 1394.94L5988.75 1476.94C6010.12 1511.51 6064.36 1564.03 6098.84 1581.21L6170.97 1489.07C6208.45 1514.46 6250.1 1533.99 6294.62 1546.47L6276.14 1653.99C6320 1673.23 6369.03 1679.73 6419.66 1671.08L6420.77 1562.05C6464.38 1560.9 6498.59 1556.92 6537.91 1543.67L6582.31 1641.87C6623.78 1640.89 6682.51 1610.66 6706.67 1578.57L6647.87 1489.28C6687.05 1462.77 6721.58 1429.91 6750.04 1392.23L6850.8 1450.48C6888.58 1424.15 6924.16 1354.23 6926.26 1313.46L6814.77 1269.34C6830.28 1222.92 6842.43 1191.01 6841.06 1139.21L6963.11 1122.17C6977.01 1072.57 6962.24 1005.66 6934.52 971.773L6816.93 1002.48C6804.63 963.521 6786.95 926.988 6764.84 893.781L6861.94 813.552C6838.12 753.806 6794.12 708.227 6747.85 690.874L6661.06 784.294C6627.25 758.85 6586.09 734.469 6545.69 719.909L6574.32 603.172C6540.85 582.397 6495.9 576.316 6458.79 577.214ZM6409.27 903.336C6537.15 899.964 6643.59 1001.74 6646.98 1130.64C6650.38 1259.55 6549.47 1366.8 6421.58 1370.16C6293.7 1373.54 6187.27 1271.76 6183.87 1142.86C6180.47 1013.95 6281.39 906.708 6409.27 903.336Z" fill="#2BAAE2"/>
<path opacity="0.42511" fill-rule="evenodd" clip-rule="evenodd" d="M5760.03 1186.98C5743.76 1183.12 5729.06 1181.61 5719.29 1182.03L5691.93 1266.7C5652.69 1257.47 5627.01 1252.33 5589.29 1257.47L5566.4 1170.09C5526.34 1170.14 5467.85 1186.98 5442.85 1210.67L5473.21 1293.25C5443.8 1308.28 5422 1322.67 5398.36 1346.01L5337.69 1291C5309.18 1309.72 5274.84 1354.07 5270.83 1379.21L5337.92 1423.72C5323.67 1449.33 5312.69 1477.33 5305.64 1507.3L5223.9 1499.86C5209.77 1526.33 5201.81 1583.31 5215.17 1616.77L5298.35 1611.9C5301.35 1643.88 5309.48 1677.39 5321.4 1706.49L5246.7 1750.49C5255.6 1779.68 5284.95 1828.2 5306.7 1847.26L5376.7 1794.14C5399.06 1819.74 5425.58 1841.88 5455.52 1859.45L5421.54 1934C5449.71 1956.36 5484.08 1970.46 5522.5 1973.85L5544.15 1894.89C5576.04 1902.39 5601.64 1906.04 5632.73 1903.94L5646.2 1983.73C5676.5 1990.95 5724.93 1980.22 5748.6 1961.54L5722.98 1885.46C5756.49 1873.69 5787.86 1856.43 5815.73 1834.52L5877.76 1896.08C5910.23 1884.17 5949.43 1840.21 5958.76 1811L5886.23 1757.65C5906.36 1726.9 5921.29 1706.05 5930.19 1668.17L6022.08 1679.13C6041.66 1645.77 6043.72 1594.35 6030.07 1564.45L5938.8 1564.27C5937.33 1533.63 5931.47 1503.72 5921.76 1475.37L6007.61 1435.68C6001.73 1387.74 5978.5 1346.22 5948.21 1324.78L5867.33 1376.03C5847.64 1351.09 5822.41 1325.52 5795.86 1307.22L5838.97 1227.92C5818.63 1206.43 5787.15 1193.42 5760.03 1186.98ZM5661.72 1414.34C5755.23 1436.34 5813.07 1530.59 5790.9 1624.85C5768.72 1719.11 5674.93 1777.7 5581.42 1755.7C5487.91 1733.7 5430.08 1639.45 5452.25 1545.19C5474.42 1450.93 5568.21 1392.34 5661.72 1414.34Z" fill="#2BAAE2"/>
<path opacity="0.42511" fill-rule="evenodd" clip-rule="evenodd" d="M1462.45 4804.18C1483.09 4828.7 1504.01 4847.8 1519.54 4858.3L1658.29 4759.18C1708.16 4818.18 1741.82 4855.41 1805.76 4890.56L1741.27 5051.19C1802.99 5096.86 1912.25 5137.69 1977.79 5129.75L2025.32 4967.96C2087.75 4978.4 2137.73 4981.13 2200.76 4972.18L2231.37 5126.11C2296.64 5129.84 2400.12 5100.76 2434.99 5066.62L2382.5 4921.54C2433.68 4898.37 2482.56 4867.8 2527.62 4829.72L2644.96 4934.46C2696.93 4909.84 2774.22 4831.22 2791.84 4764.45L2658.23 4677.01C2690.11 4624.36 2715.84 4563.48 2730.71 4505.07L2895.95 4522.6C2915.56 4467.49 2925.75 4359.32 2914.02 4305.14L2745.63 4307.02C2740.43 4242.08 2724.89 4177.73 2698.85 4116.5L2836.24 4040.51C2818.4 3973.93 2781.58 3913.01 2726.31 3863.94L2602.85 3960.79C2562.32 3912.84 2527.07 3877.99 2476.81 3845.76L2547.16 3707.53C2508.74 3661.83 2421.95 3623.07 2364.17 3624.81L2316.78 3771.19C2251.76 3751.03 2183.77 3741.81 2115.84 3743.74L2090.62 3578.16C2027.05 3559.42 1916.5 3582.37 1868.81 3616.69L1919.57 3781.59C1853.48 3805.95 1806.7 3821.03 1749.75 3869.17L1620.8 3747.42C1552.58 3776.42 1490.72 3853.22 1477.6 3914.85L1617.9 4019.29C1585.2 4068.16 1560.06 4120.88 1542.67 4175.61L1365.18 4138.72C1319.51 4219.24 1307.9 4309.66 1330.04 4377.25L1513.06 4390.68C1514.9 4451.53 1524.55 4519.71 1544.55 4578.19L1387.67 4651.06C1394.45 4707.35 1428.06 4763.31 1462.45 4804.18ZM1873.31 4566.37C1754.47 4425.77 1773.02 4214.66 1914.75 4094.86C2056.48 3975.06 2267.74 3991.92 2386.59 4132.52C2505.44 4273.12 2486.88 4484.23 2345.16 4604.03C2203.42 4723.83 1992.16 4706.97 1873.31 4566.37Z" fill="#2BAAE2"/>
<path opacity="0.42511" fill-rule="evenodd" clip-rule="evenodd" d="M2776.06 5040.39C2786.36 5062.14 2797.89 5080.01 2807.16 5090.6L2926.87 5045.15C2951.81 5097.53 2969.14 5131 3008.85 5168.75L2931.31 5273.07C2967.4 5318.03 3038.94 5368.57 3088.05 5375.33L3153.49 5266.93C3196.84 5286.44 3232.61 5297.98 3280.09 5303.53L3272.89 5421.16C3319.57 5436.35 3400.28 5435.02 3432.13 5416.89L3421.75 5301.49C3463.35 5294.46 3504.68 5281.6 3544.68 5262.56L3609.87 5361.05C3652.31 5353.12 3723.48 5310.79 3749.04 5265.67L3668.73 5176.63C3701.94 5144.49 3732.27 5105.21 3754.23 5065.63L3870.87 5109.95C3895.65 5073.67 3923.73 4997.07 3925.57 4955.49L3802.93 4924.67C3811.56 4876.51 3812.59 4826.81 3805.38 4777.36L3919.68 4748.45C3919.44 4696.69 3904.36 4645.4 3873.6 4599.2L3765.43 4645.94C3745.17 4603.37 3726.23 4571.32 3695.9 4538.31L3773.4 4451.38C3754.25 4410.85 3698.62 4366.1 3656.34 4356.33L3593.94 4453.57C3550.57 4426.5 3502.96 4406.81 3453.26 4395.22L3466.6 4270.16C3424.02 4244.39 3339.35 4239.92 3298.17 4255.73L3303.5 4385.19C3250.85 4390.24 3214 4392.24 3163.44 4416.32L3093.07 4303.25C3037.99 4311.27 2978.38 4355.22 2957.07 4397.46L3038.98 4500.13C3005.9 4529.36 2977.57 4562.85 2954.47 4599.26L2832.63 4538.54C2784.08 4588.29 2758.36 4651.73 2761.52 4705.05L2891.86 4749.78C2881.56 4794.33 2875.54 4845.68 2878.88 4891.97L2751.02 4914.9C2745.19 4957.07 2758.9 5004.13 2776.06 5040.39ZM3119.88 4946.24C3060.46 4821.42 3114.29 4671.65 3240.11 4611.75C3365.94 4551.85 3516.13 4604.48 3575.56 4729.3C3634.98 4854.13 3581.15 5003.89 3455.32 5063.79C3329.5 5123.7 3179.31 5071.06 3119.88 4946.24Z" fill="#2BAAE2"/>
<path opacity="0.42511" fill-rule="evenodd" clip-rule="evenodd" d="M7275.66 1368.86C7258.3 1363.28 7242.46 1360.39 7231.8 1360.02L7194.86 1449.71C7152.99 1436.34 7125.52 1428.57 7084.08 1430.93L7066.64 1334.03C7023.1 1330.65 6958.08 1343.98 6928.9 1367.61L6954.86 1459.95C6921.61 1473.79 6896.7 1487.57 6869.02 1510.92L6807.76 1445.97C6775.17 1463.88 6734.07 1509.16 6727.58 1536.15L6796.71 1590.24C6779.03 1616.87 6764.71 1646.36 6754.5 1678.33L6666.29 1663.29C6648.67 1690.86 6635.16 1752.11 6646.84 1789.62L6737.67 1791.4C6738.21 1826.41 6744.19 1863.53 6754.67 1896.18L6669.72 1937.65C6676.92 1970.14 6704.69 2025.36 6726.71 2047.93L6807.31 1996.15C6829.43 2025.89 6856.37 2052.22 6887.42 2073.86L6844.14 2152C6872.86 2178.7 6909.01 2196.95 6950.48 2203.91L6980.74 2119.92C7014.76 2130.79 7042.28 2136.94 7076.24 2137.3L7084.09 2225.18C7116.41 2235.6 7169.96 2228.07 7197.28 2209.78L7175.9 2124.9C7213.34 2114.97 7248.9 2098.87 7281.06 2077.42L7343.24 2149.62C7379.55 2139.45 7425.9 2095 7438.52 2064.04L7364.24 1999.88C7388.74 1968.18 7406.73 1946.78 7419.64 1906.37L7518.58 1926.11C7542.7 1891.52 7549.32 1835.81 7537.03 1802.14L7437.85 1794.17C7438.85 1760.74 7435.04 1727.74 7426.89 1696.1L7523.59 1660.26C7521.28 1607.65 7499.56 1560.56 7468.47 1534.67L7376.18 1583.48C7356.92 1554.7 7331.67 1524.75 7304.36 1502.6L7357.97 1420.08C7337.69 1395 7304.59 1378.17 7275.66 1368.86ZM7149.46 1607.62C7249.21 1639.49 7304.05 1746.86 7271.92 1847.42C7239.79 1947.99 7132.87 2003.68 7033.1 1971.81C6933.34 1939.93 6878.5 1832.56 6910.63 1732C6942.76 1631.44 7049.69 1575.74 7149.46 1607.62Z" fill="#2BAAE2"/>
<path opacity="0.42511" fill-rule="evenodd" clip-rule="evenodd" d="M5616.6 741.966C5607.64 731.61 5598.6 723.575 5591.9 719.177L5533.21 762.315C5511.56 737.401 5496.97 721.695 5469.45 707.051L5496.08 638.064C5469.45 618.916 5422.54 602.099 5394.6 605.874L5375.22 675.254C5348.5 671.158 5327.13 670.281 5300.26 674.464L5286.3 608.892C5258.4 607.675 5214.36 620.693 5199.66 635.476L5222.92 697.147C5201.19 707.338 5180.49 720.679 5161.46 737.207L5110.74 693.142C5088.68 703.956 5056.12 737.99 5048.98 766.61L5106.55 803.19C5093.24 825.863 5082.6 852.013 5076.59 877.052L5005.91 870.517C4997.85 894.17 4994.12 940.435 4999.44 963.511L5071.36 961.733C5073.95 989.443 5080.96 1016.84 5092.44 1042.85L5034.19 1076.1C5042.2 1104.43 5058.28 1130.24 5082.17 1150.89L5134.34 1108.8C5151.93 1129.05 5167.2 1143.73 5188.85 1157.21L5159.6 1216.66C5176.27 1235.96 5213.57 1252.02 5238.24 1250.94L5257.63 1188.14C5285.53 1196.38 5314.62 1199.92 5343.62 1198.7L5355.35 1269.29C5382.62 1276.92 5429.7 1266.49 5449.87 1251.55L5427.24 1181.4C5455.33 1170.62 5475.22 1163.91 5499.28 1143.02L5555.06 1194.28C5584.03 1181.49 5610.01 1148.33 5615.26 1121.93L5554.73 1078.13C5568.42 1057.07 5578.85 1034.4 5585.96 1010.93L5661.98 1025.66C5681.03 991 5685.47 952.309 5675.62 923.566L5597.37 918.886C5596.23 892.901 5591.71 863.838 5582.83 838.972L5649.43 806.938C5646.21 782.934 5631.52 759.225 5616.6 741.966ZM5442.47 845.917C5494.04 905.289 5487.34 995.575 5427.49 1047.56C5367.64 1099.55 5277.3 1093.57 5225.73 1034.2C5174.15 974.828 5180.86 884.543 5240.7 832.552C5300.55 780.563 5390.89 786.545 5442.47 845.917Z" fill="#2BAAE2"/>
<path fill-rule="evenodd" clip-rule="evenodd" d="M3767.4 1937.45C3767.4 1937.45 3697.03 1935.47 3696.1 1858.69C3695.18 1783.11 3767.72 1779.14 3767.72 1779.14L3946.34 1780.41C3946.34 1780.41 4023.49 1776.82 4022.47 1863.53C4021.56 1939.55 3942.01 1944.84 3942.01 1944.84L3865.01 1944.3C3857.14 1944.24 3845.65 1949.26 3839.38 1955.51L3779.28 2015.25C3773.23 2021.27 3770.94 2018.82 3774.16 2009.8L3793.99 1954.29C3796.62 1946.93 3793.74 1940.53 3787.58 1939.99L3767.4 1937.45Z" fill="#4CC8ED"/>
<path fill-rule="evenodd" clip-rule="evenodd" d="M3921.04 1860.54C3921.04 1848.95 3930.29 1839.56 3941.71 1839.56C3953.13 1839.56 3962.38 1848.95 3962.38 1860.54C3962.38 1872.13 3953.13 1881.53 3941.71 1881.53C3930.29 1881.53 3921.04 1872.13 3921.04 1860.54Z" fill="white"/>
<path fill-rule="evenodd" clip-rule="evenodd" d="M3841.53 1860.54C3841.53 1848.95 3850.79 1839.56 3862.2 1839.56C3873.62 1839.56 3882.87 1848.95 3882.87 1860.54C3882.87 1872.13 3873.62 1881.53 3862.2 1881.53C3850.79 1881.53 3841.53 1872.13 3841.53 1860.54Z" fill="white"/>
<path fill-rule="evenodd" clip-rule="evenodd" d="M3761.01 1860.54C3761.01 1848.95 3770.26 1839.56 3781.68 1839.56C3793.1 1839.56 3802.35 1848.95 3802.35 1860.54C3802.35 1872.13 3793.1 1881.53 3781.68 1881.53C3770.26 1881.53 3761.01 1872.13 3761.01 1860.54Z" fill="white"/>
<path fill-rule="evenodd" clip-rule="evenodd" d="M2850.01 1466.39L2871.29 1565.79L2538.7 1609.16L2850.01 1466.39Z" fill="#0081C3"/>
<path fill-rule="evenodd" clip-rule="evenodd" d="M2842.69 1427.18L2856.03 1490.21L2646.74 1557.9L2842.69 1427.18Z" fill="#1172BA"/>
<path fill-rule="evenodd" clip-rule="evenodd" d="M2792.94 1384.51L2842.93 1427.84L2665.55 1548.03L2895.23 1460.33L2957.38 1498.82L2524.43 1613.36L2792.94 1384.51Z" fill="#2BAAE2"/>
<path fill-rule="evenodd" clip-rule="evenodd" d="M2458.73 4103.02L2214.13 4070.82C2207.85 4070 2200.8 4064.58 2198.38 4058.73L2103.95 3830.81C2101.52 3824.96 2102.69 3816.15 2106.54 3811.13L2256.72 3615.39C2260.57 3610.37 2268.79 3606.96 2275.07 3607.79L2519.67 3639.98C2525.95 3640.81 2533 3646.21 2535.42 3652.07L2629.85 3879.99C2632.27 3885.84 2631.11 3894.65 2627.25 3899.68L2477.08 4095.41C2473.23 4100.44 2465.01 4103.84 2458.73 4103.02Z" stroke="#2BAAE2" stroke-opacity="0.138889" stroke-width="15.78" stroke-linecap="round" stroke-linejoin="round"/>
<path fill-rule="evenodd" clip-rule="evenodd" d="M2010.76 2657.07L1827.85 2632.99C1823.16 2632.38 1817.88 2628.33 1816.07 2623.96L1745.46 2453.52C1743.65 2449.15 1744.51 2442.56 1747.4 2438.8L1859.69 2292.43C1862.58 2288.68 1868.72 2286.13 1873.42 2286.75L2056.32 2310.82C2061.02 2311.44 2066.29 2315.48 2068.11 2319.86L2138.71 2490.3C2140.52 2494.67 2139.66 2501.26 2136.77 2505.02L2024.47 2651.38C2021.59 2655.14 2015.45 2657.69 2010.76 2657.07Z" stroke="#2BAAE2" stroke-opacity="0.138889" stroke-width="15.78" stroke-linecap="round" stroke-linejoin="round"/>
<path fill-rule="evenodd" clip-rule="evenodd" d="M566.537 3350.98L432.537 3274.9C429.092 3272.95 426.282 3268.16 426.258 3264.21L425.131 3110.12C425.107 3106.17 427.846 3101.34 431.259 3099.34L564.14 3021.32C567.553 3019.32 573.109 3019.28 576.546 3021.23L710.554 3097.3C713.991 3099.26 716.801 3104.04 716.833 3108L717.952 3262.08C717.984 3266.04 715.237 3270.87 711.832 3272.87L578.943 3350.89C575.53 3352.89 569.982 3352.93 566.537 3350.98Z" stroke="#2BAAE2" stroke-opacity="0.138889" stroke-width="15.78" stroke-linecap="round" stroke-linejoin="round"/>
<path fill-rule="evenodd" clip-rule="evenodd" d="M3214.05 2209.06L2925.21 2108.06C2917.8 2105.47 2910.61 2097.12 2909.14 2089.4L2852.19 1788.77C2850.72 1781.06 2854.37 1770.65 2860.32 1765.52L3092.19 1565.89C3098.14 1560.76 3108.98 1558.72 3116.39 1561.3L3405.22 1662.29C3412.63 1664.89 3419.83 1673.24 3421.29 1680.96L3478.25 1981.59C3479.71 1989.3 3476.07 1999.71 3470.12 2004.84L3238.24 2204.47C3232.29 2209.6 3221.46 2211.64 3214.05 2209.06Z" stroke="#2BAAE2" stroke-opacity="0.138889" stroke-width="15.78" stroke-linecap="round" stroke-linejoin="round"/>
<path opacity="0.196035" fill-rule="evenodd" clip-rule="evenodd" d="M4300.91 2324.11C4242.63 2324.11 4194.24 2362.31 4187.75 2412.19C4182.22 2411.29 4176.65 2410.68 4171.03 2410.68C4123.51 2410.68 4084.51 2441.84 4084.51 2481.07C4084.51 2517.27 4117.89 2547.02 4161.14 2551.02C4161.14 2551.02 4171.09 2552.13 4174.9 2552.54C4185.78 2553.68 4197.6 2554.83 4209.92 2555.91C4227.83 2557.47 4245.27 2558.72 4261.69 2559.58C4277.05 2560.38 4291.12 2560.82 4303.61 2560.82C4334.99 2560.82 4365.23 2559.46 4405.9 2556.71C4410.48 2556.39 4435.56 2554.65 4442.04 2554.22C4488.44 2551.35 4524.97 2519.33 4524.97 2480.03C4524.97 2451.44 4505.45 2426.15 4475.68 2413.68C4472.51 2387.43 4447.72 2367.32 4417.96 2367.32C4410.92 2367.32 4404.05 2368.52 4397.55 2370.72C4376.85 2341.99 4340.67 2324.11 4300.91 2324.11Z" fill="#2BAAE2" fill-opacity="0.0631313" stroke="#2BAAE2" stroke-width="15.22" stroke-linecap="round" stroke-linejoin="round"/>
<path opacity="0.196035" fill-rule="evenodd" clip-rule="evenodd" d="M2120.05 1034.93C2061.77 1034.93 2013.38 1073.13 2006.89 1123.01C2001.36 1122.11 1995.79 1121.5 1990.17 1121.5C1942.66 1121.5 1903.65 1152.65 1903.65 1191.89C1903.65 1228.09 1937.04 1257.84 1980.28 1261.84C1980.28 1261.84 1990.23 1262.95 1994.04 1263.35C2004.92 1264.5 2016.74 1265.65 2029.06 1266.72C2046.97 1268.29 2064.41 1269.54 2080.83 1270.4C2096.19 1271.2 2110.26 1271.64 2122.76 1271.64C2154.13 1271.64 2184.37 1270.27 2225.05 1267.52C2229.63 1267.21 2254.7 1265.46 2261.19 1265.04C2307.58 1262.16 2344.11 1230.15 2344.11 1190.85C2344.11 1162.26 2324.59 1136.97 2294.82 1124.5C2291.65 1098.24 2266.86 1078.14 2237.1 1078.14C2230.06 1078.14 2223.2 1079.33 2216.69 1081.54C2196 1052.81 2159.82 1034.93 2120.05 1034.93Z" fill="#2BAAE2" fill-opacity="0.0631313" stroke="#2BAAE2" stroke-width="15.22" stroke-linecap="round" stroke-linejoin="round"/>
<path opacity="0.196035" fill-rule="evenodd" clip-rule="evenodd" d="M616.908 2049.95C558.631 2049.95 510.236 2088.16 503.744 2138.03C498.219 2137.14 492.647 2136.52 487.027 2136.52C439.514 2136.52 400.509 2167.67 400.51 2206.91C400.509 2243.11 433.886 2272.86 477.129 2276.86C477.129 2276.86 487.083 2277.97 490.901 2278.37C501.783 2279.53 513.602 2280.68 525.921 2281.75C543.82 2283.3 561.266 2284.56 577.689 2285.42C593.048 2286.23 607.113 2286.66 619.607 2286.66C650.992 2286.66 681.233 2285.3 721.905 2282.54C726.485 2282.23 751.559 2280.49 758.044 2280.06C804.439 2277.18 840.967 2245.16 840.967 2205.87C840.967 2177.28 821.449 2151.99 791.675 2139.52C788.508 2113.26 763.719 2093.16 733.954 2093.16C726.921 2093.16 720.055 2094.35 713.547 2096.56C692.854 2067.84 656.667 2049.95 616.908 2049.95Z" fill="#2BAAE2" fill-opacity="0.0631313" stroke="#2BAAE2" stroke-width="15.22" stroke-linecap="round" stroke-linejoin="round"/>
<path opacity="0.196035" fill-rule="evenodd" clip-rule="evenodd" d="M3044.61 3334.05C2986.34 3334.05 2937.94 3372.25 2931.45 3422.13C2925.92 3421.23 2920.35 3420.61 2914.73 3420.61C2867.22 3420.61 2828.21 3451.77 2828.21 3491.01C2828.21 3527.2 2861.6 3556.95 2904.84 3560.95C2904.84 3560.95 2914.8 3562.06 2918.61 3562.47C2929.49 3563.62 2941.31 3564.77 2953.63 3565.84C2971.53 3567.4 2988.97 3568.65 3005.4 3569.52C3020.75 3570.32 3034.82 3570.76 3047.31 3570.76C3078.7 3570.76 3108.94 3569.39 3149.61 3566.64C3154.19 3566.33 3179.27 3564.58 3185.75 3564.16C3232.14 3561.28 3268.67 3529.27 3268.67 3489.97C3268.67 3461.38 3249.15 3436.09 3219.38 3423.61C3216.21 3397.36 3191.43 3377.26 3161.67 3377.26C3154.63 3377.26 3147.76 3378.45 3141.25 3380.66C3120.56 3351.93 3084.38 3334.05 3044.61 3334.05Z" fill="#2BAAE2" fill-opacity="0.0631313" stroke="#2BAAE2" stroke-width="15.22" stroke-linecap="round" stroke-linejoin="round"/>
<path fill-rule="evenodd" clip-rule="evenodd" d="M1797.04 1665.69L1776.9 1626.49L1810.07 1626.26C1830.18 1626.12 1846.25 1609.87 1845.95 1589.96L1844.4 1483.57C1844.05 1459.33 1823.92 1439.69 1799.44 1439.69H1591.91C1571.05 1439.69 1554.57 1456.43 1555.08 1477.07L1557.8 1585.43C1558.36 1607.86 1577.18 1626.14 1599.84 1626.28L1715.44 1627.32L1797.04 1665.69Z" fill="#2BAAE2"/>
<path fill-rule="evenodd" clip-rule="evenodd" d="M1639.55 1559.71C1625.87 1559.63 1614.97 1548.04 1615.21 1533.82L1615.24 1531.75C1615.53 1514.5 1629.22 1500.51 1645.83 1500.51H1690.55C1706.76 1500.51 1719.52 1514.17 1719.04 1531.02L1719.03 1531.32C1718.59 1546.92 1706.06 1559.66 1691.03 1559.77L1664.83 1559.95C1663.22 1559.97 1660.73 1560.57 1659.28 1561.31L1636.24 1569.92C1633.09 1571.11 1632.17 1569.88 1634.19 1567.19L1639.76 1559.78C1639.79 1559.74 1639.77 1559.71 1639.73 1559.71H1639.55Z" fill="#E0E0E0"/>
<path fill-rule="evenodd" clip-rule="evenodd" d="M1751.13 1523.52V1512.93C1759.73 1511.94 1765.89 1508.78 1769.62 1503.43H1780.79V1555.6H1765.74V1518.67C1762.7 1520.72 1757.83 1522.34 1751.13 1523.52Z" fill="#E0E0E0"/>
<path d="M2888.39 1427.68C2888.39 1427.68 3174.8 1173.95 3519.07 1246.56C3863.32 1319.18 3935.62 1696.73 4223.52 1922.9C4511.44 2149.07 4797.66 2279.63 4771.42 2665.34C4737.62 3161.87 3884.31 2712.42 3697.78 3048.42C3511.26 3384.42 4081.67 3557.52 4081.67 3557.52" stroke="#2BAAE2" stroke-opacity="0.237374" stroke-width="15.22" stroke-linecap="round" stroke-linejoin="round" stroke-dasharray="50 50 50 50"/>
<path fill-rule="evenodd" clip-rule="evenodd" d="M0 5433.86C0 5372.15 1543.69 5322.13 3447.95 5322.13C5352.19 5322.13 6895.89 5372.15 6895.89 5433.86C6895.89 5495.56 5352.19 5545.58 3447.95 5545.58C1543.69 5545.58 0 5495.56 0 5433.86Z" fill="#E0E0E0"/>
<path fill-rule="evenodd" clip-rule="evenodd" d="M5131.71 4617.67L5988.04 4624.99C5988.04 4624.99 6026 4814.77 6059.95 4990.58C6093.92 5166.37 6090.35 5247.94 6036.41 5313.37C5982.48 5378.79 5831.35 5398.58 5831.35 5398.58L4654.25 5396.3L4657.54 5342.17C4657.54 5342.17 5151.87 5352.05 5252.86 5214.32C5353.87 5076.59 5131.71 4617.67 5131.71 4617.67Z" fill="#1172BA"/>
<path fill-rule="evenodd" clip-rule="evenodd" d="M5072.81 4614L5929.14 4621.32C5929.14 4621.32 5967.09 4811.1 6001.06 4986.91C6035.01 5162.71 6031.45 5244.27 5977.51 5309.7C5923.57 5375.13 5772.44 5394.91 5772.44 5394.91L4595.35 5392.64L4598.63 5338.5C4598.63 5338.5 5092.96 5348.38 5193.97 5210.65C5294.96 5072.92 5072.81 4614 5072.81 4614Z" fill="#2BAAE2"/>
<path opacity="0.947137" fill-rule="evenodd" clip-rule="evenodd" d="M5217.01 5048.14L6010.05 5239.62C6010.05 5239.62 6022.46 5222.77 6023.5 5160.71C6024.42 5106.65 6012.27 5053.04 6012.27 5053.04L5150.81 4801.54C5150.81 4801.54 5175.69 4867.16 5192.63 4928.66C5209.56 4990.17 5217.01 5048.14 5217.01 5048.14Z" fill="#4CC8ED"/>
<path fill-rule="evenodd" clip-rule="evenodd" d="M915.643 4327.75C915.643 4327.75 1058.86 4434.36 1123.02 4629.01C1137.02 4671.46 1138.16 5326.72 1138.16 5326.72L975.801 5334.79C946.63 5336.23 923.151 5361.08 923.358 5390.29L923.397 5395.14L1396.41 5393.76L1396.44 5377.22C1396.47 5356.56 1379.78 5338.67 1359.16 5337.27L1195.76 5325.25L1199.09 5060.87C1199.09 5060.87 1219.63 5063.48 1247.49 5060.31C1280.18 5056.6 1328.63 5035.32 1241.55 5032.83L1199.05 5025.16C1201.07 4883.65 1203.38 4662.25 1212.31 4629.97C1254.02 4479.17 1436.53 4325.11 1436.53 4325.11L915.643 4327.75Z" fill="#828282"/>
<path fill-rule="evenodd" clip-rule="evenodd" d="M810.861 4034.8H1520.44C1565.23 4034.8 1601.54 4071.12 1601.54 4115.9V4252.8C1601.54 4297.58 1565.23 4333.89 1520.44 4333.89H810.861C766.078 4333.89 729.764 4297.58 729.764 4252.8V4115.9C729.764 4071.12 766.078 4034.8 810.861 4034.8Z" fill="#2BAAE2"/>
<path fill-rule="evenodd" clip-rule="evenodd" d="M810.861 4034.8C810.861 4034.8 817.774 4181.78 851.445 4256.55C863.367 4283.02 879.615 4307.47 906.825 4315.99C956.474 4331.55 945.544 4333.89 945.544 4333.89H810.861C766.078 4333.89 729.764 4297.58 729.764 4252.8V4115.9C729.764 4071.12 766.078 4034.8 810.861 4034.8Z" fill="#135EAB"/>
<path fill-rule="evenodd" clip-rule="evenodd" d="M4277.43 1820.46L7784.79 1778.99C7804 1778.99 7817.01 1811.72 7824 1876.2C7830.98 1940.68 7812.81 2036.92 7812.81 2036.92L7309.26 4689.33C7302.71 4722.7 7269.81 4749.67 7235.75 4749.59L3759.22 4663.05C3700.38 4653.62 3676.31 4598.17 3676.85 4557.25L3707.01 4419.07L4204.27 1940.18C4218.72 1885.24 4251.28 1820.46 4277.43 1820.46Z" fill="#1172BA"/>
<path fill-rule="evenodd" clip-rule="evenodd" d="M4269.44 1821.8L4315.05 1821.24L7788.68 1778.99C7804.55 1778.99 7795.5 1885.51 7775.03 1984.9C7745.02 2131.16 7269.89 4633.43 7269.89 4633.43C7263.42 4666.46 7229.42 4691.77 7195.76 4691.68L3740.14 4625.9C3706.49 4625.81 3671.48 4585.65 3677.9 4552.61L4212.25 1913.57C4219.91 1875.48 4269.44 1821.8 4269.44 1821.8Z" fill="#4CC8ED"/>
<path fill-rule="evenodd" clip-rule="evenodd" d="M7033.78 4689.82L7178.37 4693.19C7268.79 4690.1 7267.13 4672.44 7293.05 4523.51L7310.09 4415.83L6352.04 4157.06L4909.7 4134.36L7033.78 4689.82Z" fill="#2BAAE2"/>
<path fill-rule="evenodd" clip-rule="evenodd" d="M7790.11 1778.99L7310.03 4172.77C7307.7 4184.41 7296.19 4193.61 7284.33 4193.34L3797.74 4113.72L4262.79 1821.01L4316.34 1820.37L7790.11 1778.99Z" fill="#135EAB"/>
<path fill-rule="evenodd" clip-rule="evenodd" d="M7684.14 1863.73L7235.47 4077.23C7232.74 4090.71 7219.38 4101.37 7205.63 4101.04L3942.55 4024.11C3921.66 4023.62 3907.98 4006.6 3912.01 3986.09L4322.65 1894.8L7684.14 1863.73Z" fill="white"/>
<path d="M4770.54 2405.5C4772.15 2405.65 4773.77 2405.79 4775.38 2405.94C4777.14 2405.94 4779.49 2405.94 4782.42 2405.94C4791.95 2405.94 4800.53 2404.47 4808.16 2401.54C4815.93 2398.61 4822.46 2394.43 4827.74 2389C4833.17 2383.43 4837.35 2376.68 4840.28 2368.76C4843.21 2360.69 4844.68 2351.67 4844.68 2341.7C4844.68 2336.57 4844.02 2331.95 4842.7 2327.84C4841.38 2323.59 4839.18 2319.99 4836.1 2317.06C4833.17 2313.98 4829.28 2311.63 4824.44 2310.02C4819.75 2308.41 4814.03 2307.6 4807.28 2307.6C4802.88 2307.6 4798.41 2307.82 4793.86 2308.26L4770.54 2405.5ZM4879.88 2339.94C4879.88 2354.75 4877.46 2368.03 4872.62 2379.76C4867.78 2391.49 4860.81 2401.47 4851.72 2409.68C4842.77 2417.75 4831.85 2423.98 4818.94 2428.38C4806.03 2432.78 4791.44 2434.98 4775.16 2434.98C4769 2434.98 4761.89 2434.61 4753.82 2433.88C4745.75 2433.15 4737.98 2431.97 4730.5 2430.36L4765.92 2283.18C4774.28 2281.57 4782.27 2280.47 4789.9 2279.88C4797.67 2279.15 4804.64 2278.78 4810.8 2278.78C4821.65 2278.78 4831.33 2280.25 4839.84 2283.18C4848.49 2286.11 4855.75 2290.29 4861.62 2295.72C4867.63 2301.15 4872.18 2307.6 4875.26 2315.08C4878.34 2322.56 4879.88 2330.85 4879.88 2339.94Z" fill="#2E3690"/>
<path d="M4887.31 2387.68C4887.31 2378.29 4888.92 2369.2 4892.15 2360.4C4895.52 2351.6 4900.22 2343.83 4906.23 2337.08C4912.24 2330.19 4919.5 2324.69 4928.01 2320.58C4936.66 2316.33 4946.2 2314.2 4956.61 2314.2C4961.74 2314.2 4966.51 2314.93 4970.91 2316.4C4975.31 2317.87 4979.12 2319.99 4982.35 2322.78C4985.72 2325.57 4988.29 2329.01 4990.05 2333.12C4991.96 2337.08 4992.91 2341.63 4992.91 2346.76C4992.91 2354.97 4991.08 2361.94 4987.41 2367.66C4983.74 2373.38 4978.61 2378.07 4972.01 2381.74C4965.56 2385.26 4957.86 2387.83 4948.91 2389.44C4939.96 2391.05 4930.21 2391.86 4919.65 2391.86C4920.68 2398.02 4922.88 2402.42 4926.25 2405.06C4929.77 2407.55 4935.27 2408.8 4942.75 2408.8C4947.44 2408.8 4952.21 2408.43 4957.05 2407.7C4961.89 2406.82 4966.44 2405.57 4970.69 2403.96L4973.11 2429.7C4969 2431.31 4963.72 2432.78 4957.27 2434.1C4950.96 2435.42 4944.07 2436.08 4936.59 2436.08C4927.5 2436.08 4919.8 2434.83 4913.49 2432.34C4907.33 2429.7 4902.27 2426.18 4898.31 2421.78C4894.5 2417.38 4891.71 2412.25 4889.95 2406.38C4888.19 2400.51 4887.31 2394.28 4887.31 2387.68ZM4951.33 2340.16C4943.85 2340.16 4937.25 2342.87 4931.53 2348.3C4925.96 2353.58 4922.29 2360.62 4920.53 2369.42C4929.62 2369.13 4936.96 2368.39 4942.53 2367.22C4948.1 2365.9 4952.43 2364.36 4955.51 2362.6C4958.59 2360.84 4960.64 2358.93 4961.67 2356.88C4962.7 2354.83 4963.21 2352.77 4963.21 2350.72C4963.21 2343.68 4959.25 2340.16 4951.33 2340.16Z" fill="#2E3690"/>
<path d="M4997.37 2387.68C4997.37 2378.29 4998.98 2369.2 5002.21 2360.4C5005.58 2351.6 5010.28 2343.83 5016.29 2337.08C5022.3 2330.19 5029.56 2324.69 5038.07 2320.58C5046.72 2316.33 5056.26 2314.2 5066.67 2314.2C5071.8 2314.2 5076.57 2314.93 5080.97 2316.4C5085.37 2317.87 5089.18 2319.99 5092.41 2322.78C5095.78 2325.57 5098.35 2329.01 5100.11 2333.12C5102.02 2337.08 5102.97 2341.63 5102.97 2346.76C5102.97 2354.97 5101.14 2361.94 5097.47 2367.66C5093.8 2373.38 5088.67 2378.07 5082.07 2381.74C5075.62 2385.26 5067.92 2387.83 5058.97 2389.44C5050.02 2391.05 5040.27 2391.86 5029.71 2391.86C5030.74 2398.02 5032.94 2402.42 5036.31 2405.06C5039.83 2407.55 5045.33 2408.8 5052.81 2408.8C5057.5 2408.8 5062.27 2408.43 5067.11 2407.7C5071.95 2406.82 5076.5 2405.57 5080.75 2403.96L5083.17 2429.7C5079.06 2431.31 5073.78 2432.78 5067.33 2434.1C5061.02 2435.42 5054.13 2436.08 5046.65 2436.08C5037.56 2436.08 5029.86 2434.83 5023.55 2432.34C5017.39 2429.7 5012.33 2426.18 5008.37 2421.78C5004.56 2417.38 5001.77 2412.25 5000.01 2406.38C4998.25 2400.51 4997.37 2394.28 4997.37 2387.68ZM5061.39 2340.16C5053.91 2340.16 5047.31 2342.87 5041.59 2348.3C5036.02 2353.58 5032.35 2360.62 5030.59 2369.42C5039.68 2369.13 5047.02 2368.39 5052.59 2367.22C5058.16 2365.9 5062.49 2364.36 5065.57 2362.6C5068.65 2360.84 5070.7 2358.93 5071.73 2356.88C5072.76 2354.83 5073.27 2352.77 5073.27 2350.72C5073.27 2343.68 5069.31 2340.16 5061.39 2340.16Z" fill="#2E3690"/>
<path d="M5139.33 2407.48C5141.82 2408.07 5144.9 2408.36 5148.57 2408.36C5154.29 2408.36 5159.5 2407.33 5164.19 2405.28C5168.88 2403.08 5172.84 2400.07 5176.07 2396.26C5179.44 2392.45 5182.01 2387.9 5183.77 2382.62C5185.68 2377.19 5186.63 2371.25 5186.63 2364.8C5186.63 2358.49 5185.24 2353.14 5182.45 2348.74C5179.66 2344.34 5174.82 2342.14 5167.93 2342.14C5163.24 2342.14 5158.84 2342.58 5154.73 2343.46L5139.33 2407.48ZM5219.19 2362.38C5219.19 2373.09 5217.43 2382.91 5213.91 2391.86C5210.39 2400.66 5205.48 2408.29 5199.17 2414.74C5193.01 2421.19 5185.53 2426.25 5176.73 2429.92C5168.08 2433.44 5158.62 2435.2 5148.35 2435.2C5143.36 2435.2 5138.38 2434.76 5133.39 2433.88L5123.49 2473.7H5090.93L5127.45 2321.46C5133.32 2319.7 5139.99 2318.16 5147.47 2316.84C5155.1 2315.37 5163.31 2314.64 5172.11 2314.64C5180.32 2314.64 5187.36 2315.89 5193.23 2318.38C5199.24 2320.87 5204.16 2324.32 5207.97 2328.72C5211.78 2332.97 5214.57 2338.03 5216.33 2343.9C5218.24 2349.62 5219.19 2355.78 5219.19 2362.38Z" fill="#2E3690"/>
<path d="M5320.91 2434.98C5312.11 2434.98 5303.09 2434.61 5293.85 2433.88C5284.61 2433.15 5276.25 2431.97 5268.77 2430.36L5303.97 2282.96C5312.33 2281.35 5321.06 2280.25 5330.15 2279.66C5339.39 2279.07 5347.82 2278.78 5355.45 2278.78C5364.25 2278.78 5371.8 2279.73 5378.11 2281.64C5384.56 2283.4 5389.77 2285.82 5393.73 2288.9C5397.84 2291.98 5400.84 2295.65 5402.75 2299.9C5404.8 2304.01 5405.83 2308.41 5405.83 2313.1C5405.83 2316.33 5405.46 2319.7 5404.73 2323.22C5404.14 2326.74 5402.82 2330.26 5400.77 2333.78C5398.86 2337.15 5396.15 2340.38 5392.63 2343.46C5389.26 2346.54 5384.78 2349.33 5379.21 2351.82C5385.81 2354.75 5390.65 2358.79 5393.73 2363.92C5396.81 2368.91 5398.35 2374.48 5398.35 2380.64C5398.35 2387.68 5396.96 2394.5 5394.17 2401.1C5391.38 2407.55 5386.91 2413.35 5380.75 2418.48C5374.59 2423.47 5366.6 2427.5 5356.77 2430.58C5346.94 2433.51 5334.99 2434.98 5320.91 2434.98ZM5317.83 2366.34L5308.37 2405.94C5310.72 2406.38 5313.65 2406.75 5317.17 2407.04C5320.84 2407.19 5324.21 2407.26 5327.29 2407.26C5331.69 2407.26 5336.02 2406.97 5340.27 2406.38C5344.67 2405.65 5348.56 2404.4 5351.93 2402.64C5355.45 2400.88 5358.31 2398.46 5360.51 2395.38C5362.71 2392.3 5363.81 2388.34 5363.81 2383.5C5363.81 2381.45 5363.37 2379.39 5362.49 2377.34C5361.76 2375.29 5360.51 2373.45 5358.75 2371.84C5356.99 2370.23 5354.64 2368.91 5351.71 2367.88C5348.92 2366.85 5345.55 2366.34 5341.59 2366.34H5317.83ZM5324.21 2340.6H5345.77C5354.57 2340.6 5361.1 2338.69 5365.35 2334.88C5369.75 2331.07 5371.95 2326.52 5371.95 2321.24C5371.95 2318.45 5371.29 2316.11 5369.97 2314.2C5368.8 2312.15 5367.18 2310.53 5365.13 2309.36C5363.08 2308.19 5360.73 2307.38 5358.09 2306.94C5355.45 2306.35 5352.74 2306.06 5349.95 2306.06C5346.87 2306.06 5343.57 2306.21 5340.05 2306.5C5336.53 2306.65 5333.89 2306.87 5332.13 2307.16L5324.21 2340.6Z" fill="#2E3690"/>
<path d="M5453.83 2435.2C5443.42 2435.2 5435.21 2433.88 5429.19 2431.24C5423.33 2428.45 5419.07 2424.71 5416.43 2420.02C5413.94 2415.33 5412.69 2409.97 5412.69 2403.96C5412.84 2397.8 5413.72 2391.27 5415.33 2384.38L5443.27 2267.56L5477.37 2262.28L5446.79 2389C5446.21 2391.64 5445.84 2394.06 5445.69 2396.26C5445.69 2398.46 5446.13 2400.44 5447.01 2402.2C5447.89 2403.81 5449.36 2405.13 5451.41 2406.16C5453.61 2407.19 5456.62 2407.85 5460.43 2408.14L5453.83 2435.2Z" fill="#2E3690"/>
<path d="M5589.89 2317.28L5574.27 2383.06C5572.22 2391.42 5571.63 2399.85 5572.51 2408.36C5573.39 2416.72 5575.08 2424.2 5577.57 2430.8L5548.31 2434.98C5546.7 2431.75 5545.16 2428.16 5543.69 2424.2C5539.58 2427.43 5534.96 2430.14 5529.83 2432.34C5524.7 2434.54 5518.98 2435.64 5512.67 2435.64C5504.02 2435.64 5496.98 2434.1 5491.55 2431.02C5486.27 2427.79 5482.31 2423.61 5479.67 2418.48C5477.03 2413.2 5475.56 2407.19 5475.27 2400.44C5475.12 2393.69 5475.93 2386.8 5477.69 2379.76L5492.65 2317.28H5525.43L5510.69 2379.32C5509.96 2382.55 5509.3 2385.85 5508.71 2389.22C5508.27 2392.59 5508.27 2395.75 5508.71 2398.68C5509.15 2401.47 5510.25 2403.81 5512.01 2405.72C5513.92 2407.48 5516.85 2408.36 5520.81 2408.36C5524.18 2408.36 5527.26 2407.77 5530.05 2406.6C5532.98 2405.28 5536.06 2403.08 5539.29 2400C5539.58 2396.33 5540.02 2392.52 5540.61 2388.56C5541.34 2384.45 5542.08 2380.71 5542.81 2377.34L5557.11 2317.28H5589.89Z" fill="#2E3690"/>
<path d="M5596.5 2387.68C5596.5 2378.29 5598.11 2369.2 5601.34 2360.4C5604.71 2351.6 5609.41 2343.83 5615.42 2337.08C5621.43 2330.19 5628.69 2324.69 5637.2 2320.58C5645.85 2316.33 5655.39 2314.2 5665.8 2314.2C5670.93 2314.2 5675.7 2314.93 5680.1 2316.4C5684.5 2317.87 5688.31 2319.99 5691.54 2322.78C5694.91 2325.57 5697.48 2329.01 5699.24 2333.12C5701.15 2337.08 5702.1 2341.63 5702.1 2346.76C5702.1 2354.97 5700.27 2361.94 5696.6 2367.66C5692.93 2373.38 5687.8 2378.07 5681.2 2381.74C5674.75 2385.26 5667.05 2387.83 5658.1 2389.44C5649.15 2391.05 5639.4 2391.86 5628.84 2391.86C5629.87 2398.02 5632.07 2402.42 5635.44 2405.06C5638.96 2407.55 5644.46 2408.8 5651.94 2408.8C5656.63 2408.8 5661.4 2408.43 5666.24 2407.7C5671.08 2406.82 5675.63 2405.57 5679.88 2403.96L5682.3 2429.7C5678.19 2431.31 5672.91 2432.78 5666.46 2434.1C5660.15 2435.42 5653.26 2436.08 5645.78 2436.08C5636.69 2436.08 5628.99 2434.83 5622.68 2432.34C5616.52 2429.7 5611.46 2426.18 5607.5 2421.78C5603.69 2417.38 5600.9 2412.25 5599.14 2406.38C5597.38 2400.51 5596.5 2394.28 5596.5 2387.68ZM5660.52 2340.16C5653.04 2340.16 5646.44 2342.87 5640.72 2348.3C5635.15 2353.58 5631.48 2360.62 5629.72 2369.42C5638.81 2369.13 5646.15 2368.39 5651.72 2367.22C5657.29 2365.9 5661.62 2364.36 5664.7 2362.6C5667.78 2360.84 5669.83 2358.93 5670.86 2356.88C5671.89 2354.83 5672.4 2352.77 5672.4 2350.72C5672.4 2343.68 5668.44 2340.16 5660.52 2340.16Z" fill="#2E3690"/>
<path d="M5865.89 2426.4C5859.88 2429.33 5853.21 2431.68 5845.87 2433.44C5838.54 2435.2 5829.59 2436.08 5819.03 2436.08C5809.94 2436.08 5801.58 2434.61 5793.95 2431.68C5786.47 2428.6 5780.02 2424.27 5774.59 2418.7C5769.31 2413.13 5765.21 2406.38 5762.27 2398.46C5759.34 2390.39 5757.87 2381.37 5757.87 2371.4C5757.87 2359.96 5759.85 2348.59 5763.81 2337.3C5767.92 2326.01 5773.86 2315.96 5781.63 2307.16C5789.55 2298.21 5799.16 2290.95 5810.45 2285.38C5821.89 2279.81 5835.02 2277.02 5849.83 2277.02C5856.87 2277.02 5863.77 2277.83 5870.51 2279.44C5877.41 2281.05 5884.59 2283.91 5892.07 2288.02L5879.75 2314.64C5873.59 2311.41 5868.09 2309.21 5863.25 2308.04C5858.41 2306.87 5853.21 2306.28 5847.63 2306.28C5839.27 2306.28 5831.72 2307.97 5824.97 2311.34C5818.37 2314.71 5812.65 2319.33 5807.81 2325.2C5803.12 2330.92 5799.53 2337.59 5797.03 2345.22C5794.54 2352.85 5793.29 2360.91 5793.29 2369.42C5793.29 2382.33 5796.08 2391.71 5801.65 2397.58C5807.37 2403.45 5815.51 2406.38 5826.07 2406.38C5833.11 2406.38 5839.57 2405.65 5845.43 2404.18C5851.45 2402.71 5857.02 2400.81 5862.15 2398.46L5865.89 2426.4Z" fill="#2E3690"/>
<path d="M4638.13 2607.03C4639.55 2608.21 4640.8 2608.95 4641.79 2609.18C4642.55 2609.36 4643.11 2609.23 4643.49 2608.79C4644.01 2608.2 4644.7 2606.46 4643.74 2601.45L4638.13 2607.03Z" fill="#2BAAE2"/>
<path d="M4636.19 2582.35L4630 2580.32L4624.51 2585.77C4628.35 2592.95 4632.49 2599.08 4636.24 2603.16L4641.49 2597.93C4640.77 2595.28 4639.77 2592.27 4638.52 2588.95C4637.7 2586.73 4636.91 2584.52 4636.19 2582.35Z" fill="#4CC8ED"/>
<path d="M4614.46 2560.85L4614.1 2561.2C4616.47 2568.44 4619.31 2575.4 4622.52 2581.89L4627.58 2576.87L4625.5 2564.44L4614.46 2560.85Z" fill="#2BAAE2"/>
<path d="M4630.52 2570.18L4631.46 2575.85L4634.47 2576.84C4632.85 2571.17 4631.8 2566.01 4631.37 2561.45L4629.39 2563.42L4630.52 2570.18Z" fill="#2BAAE2"/>
<path d="M4609.75 2545.18C4609.86 2545.71 4609.99 2546.27 4610.11 2546.81L4609.84 2545.21L4609.75 2545.18Z" fill="#2BAAE2"/>
<path d="M4615.79 2556.54L4618.15 2557.19L4618.02 2557.33L4626.82 2560.23L4631.14 2555.94C4631.22 2550.72 4632.27 2546.4 4634.31 2542.77L4633.64 2538.93L4631.45 2538.26L4631.48 2538.22L4627.8 2537L4622.69 2535.31L4615.58 2542.36L4615.59 2542.36L4615.4 2542.55L4613.74 2544.18L4614.7 2549.93L4615.79 2556.54Z" fill="#4CC8ED"/>
<path d="M4637.62 2538.34C4641.26 2534.63 4645.81 2532.71 4649.86 2530.99C4650.14 2530.87 4650.43 2530.75 4650.71 2530.63L4646.37 2529.22L4644.8 2530.83L4644.79 2530.77L4639.34 2536.19L4639.35 2536.19L4637.56 2537.97L4637.62 2538.34Z" fill="#2BAAE2"/>
<path d="M4583.2 2522.4L4582.99 2522.62C4586.85 2524.81 4590.76 2526.81 4594.68 2528.54L4594.27 2526.05L4583.2 2522.4Z" fill="#2BAAE2"/>
<path d="M4618.3 2533.9L4619.26 2532.96L4620.14 2532.08L4618.48 2522.14L4618.48 2522.15L4618.08 2519.74L4607.03 2516.13L4598.14 2524.95L4598.39 2526.36L4599.06 2530.38C4603.5 2532.14 4606.31 2532.92 4606.43 2532.95L4607.63 2533.27L4607.83 2534.62C4608.09 2536.43 4608.4 2538.23 4608.75 2540.13L4610.47 2540.7L4611.23 2540.95L4618.32 2533.91L4618.3 2533.9Z" fill="#2BAAE2"/>
<path d="M4635.02 2534.71L4643.95 2525.83L4642.28 2515.89L4642.28 2515.9L4641.89 2513.51L4632.36 2510.37C4631.14 2510.87 4629.99 2511.36 4628.89 2511.81L4621.96 2518.68L4622.03 2519.08L4624.06 2531.08L4626.22 2531.75L4626.19 2531.79L4635.02 2534.71Z" fill="#2BAAE2"/>
<path d="M4551.96 2483.94L4545.19 2490.67C4549.5 2495.97 4554.27 2500.98 4559.37 2505.55L4565.04 2499.92L4562.98 2487.55L4551.96 2483.94Z" fill="#2BAAE2"/>
<path d="M4503.59 2479.86L4503.98 2482.2C4506.21 2479.27 4509.54 2475.14 4514.2 2471.53L4512.47 2470.97L4505.36 2478.03L4505.41 2478.05L4504.61 2478.91L4503.59 2479.86Z" fill="#1172BA"/>
<path d="M4547.73 2470.75L4547.32 2468.32L4536.31 2464.7L4531.21 2469.76C4534.57 2475.98 4538.41 2481.93 4542.63 2487.46L4549.4 2480.74L4547.73 2470.75Z" fill="#1172BA"/>
<path d="M4509.93 2467.72L4508.51 2459.23C4505.6 2464.48 4503.69 2469.71 4502.81 2474.82L4508.14 2469.53L4508.12 2469.52L4509.93 2467.72Z" fill="#2BAAE2"/>
<path d="M4511.74 2454.32L4512.95 2461.55L4513.8 2466.65L4516.16 2467.29L4516.01 2467.43L4518.9 2468.38C4521.52 2466.9 4524.28 2465.74 4527.12 2464.96L4528.55 2464.57L4529.23 2465.95L4533.74 2461.48L4531.66 2449.05L4522.12 2445.91L4520.68 2445.44L4511.74 2454.32Z" fill="#1172BA"/>
<path d="M4557.55 2455.19L4555.48 2442.81L4544.48 2439.2L4535.57 2448.08L4537.39 2458.98L4537.64 2460.48L4537.7 2460.49L4548.56 2464.07L4550.33 2462.09L4550.37 2462.34L4557.55 2455.19Z" fill="#1172BA"/>
<path d="M4539.87 2423.55L4528.88 2419.93L4519.96 2428.78L4520.1 2429.59L4522.04 2441.19L4524.26 2441.83L4524.28 2441.84L4524.2 2441.92L4533.02 2444.84L4540.96 2436.94L4541.09 2436.81L4541.95 2435.96L4539.87 2423.55Z" fill="#2BAAE2"/>
<path d="M4586.92 2495.56L4588.83 2493.67L4588.3 2490.46C4585.73 2486.86 4583.34 2483.15 4581.17 2479.41L4575.76 2477.62L4566.84 2486.47L4568.92 2498.9L4579.92 2502.5L4580.23 2502.19L4586.92 2495.56Z" fill="#2BAAE2"/>
<path d="M4564.29 2483.28L4573.2 2474.41L4571.12 2462L4560.15 2458.39L4551.22 2467.28L4553.28 2479.66L4564.29 2483.28Z" fill="#2BAAE2"/>
<path d="M4580.97 2474.68C4582.72 2470.91 4585.74 2468.38 4589.71 2467.37C4589.94 2467.31 4590.18 2467.25 4590.41 2467.2C4586.03 2463.45 4580.82 2462.07 4575.36 2463.11L4577.07 2473.4L4580.97 2474.68Z" fill="#1172BA"/>
<path d="M4569.74 2503.87L4568.74 2503.57L4567.6 2503.17L4561.49 2509.25C4561.82 2513.77 4563.49 2520.44 4569.49 2527.22L4570.66 2527.61C4570.15 2524.99 4569.62 2521.53 4569.44 2518.09L4569.22 2513.67L4572.53 2515.96C4574.73 2517.5 4577.03 2518.99 4579.36 2520.43L4580.66 2519.14L4578.59 2506.74L4569.76 2503.82L4569.74 2503.87Z" fill="#2BAAE2"/>
<path d="M4582.8 2507.8L4584.12 2515.71L4584.12 2515.69L4584.52 2518.09L4595.57 2521.7L4604.46 2512.88L4604.45 2512.85L4603.78 2508.87C4600.3 2505.35 4596.95 2501.58 4593.78 2497.67L4591.36 2496.88L4582.44 2505.73L4582.8 2507.8Z" fill="#2BAAE2"/>
<path d="M4644.88 2507.57L4647.84 2504.62C4644.84 2505.61 4641.86 2506.67 4638.89 2507.79L4643.22 2509.21L4643.97 2508.46L4644.88 2507.57Z" fill="#2BAAE2"/>
<path d="M4561.02 2451.63L4561.04 2451.75L4561.16 2452.53L4561.22 2452.87L4561.43 2454.15L4570.94 2457.29C4568.45 2450.12 4566.68 2442.81 4565.67 2435.49L4559.35 2441.75L4561.02 2451.63Z" fill="#1172BA"/>
<path d="M4564.68 2423.19L4563.67 2417.24L4552.67 2413.61L4543.76 2422.47L4545.84 2434.9L4556.84 2438.5L4565.09 2430.3C4564.87 2427.9 4564.74 2425.5 4564.68 2423.19Z" fill="#0081C3"/>
<path d="M4591.94 2339.55L4593.6 2349.45L4593.63 2349.42L4594.02 2351.98L4605.02 2355.6L4613.93 2346.75L4611.87 2334.42L4600.77 2330.78L4591.94 2339.55Z" fill="#1172BA"/>
<path d="M4627.54 2353.68L4616.43 2350.02L4607.58 2358.8L4609.48 2370.19C4610.9 2370.96 4612.29 2371.75 4613.65 2372.56L4620.66 2374.87L4629.59 2365.99L4627.54 2353.68Z" fill="#1172BA"/>
<path d="M4592.69 2356.22L4591.08 2357.84L4590.95 2357.96L4590.94 2357.95L4587.33 2361.54C4587.35 2361.55 4587.38 2361.55 4587.41 2361.56C4593.11 2362.88 4599.05 2365.02 4605.05 2367.92L4604.29 2363.34L4603.7 2359.83L4592.69 2356.22Z" fill="#1172BA"/>
<path d="M4570.22 2358.23L4580.4 2361.57L4581.04 2360.39L4582.49 2360.59L4590.12 2353L4588.46 2342.99L4588.44 2342.99L4588.11 2340.91L4576.82 2337.18L4568.14 2345.8L4570.22 2358.23Z" fill="#2E3690"/>
<path d="M4565.86 2356.36L4564.31 2347.14L4553.01 2343.44L4544.33 2352.07L4546.4 2364.47L4557.42 2368.09L4562.9 2362.66L4566.34 2359.25L4565.86 2356.36Z" fill="#1172BA"/>
<path d="M4522.58 2370.75L4533.6 2374.37L4540.75 2367.26L4542.52 2365.51L4540.85 2355.52L4540.83 2355.53L4540.49 2353.43L4529.19 2349.71L4520.5 2358.33L4522.58 2370.75Z" fill="#1172BA"/>
<path d="M4518.23 2368.93L4516.68 2359.68L4512.69 2358.37C4512.41 2364.91 4512.29 2371.55 4512.33 2378.11L4518.7 2371.78L4518.23 2368.93Z" fill="#1172BA"/>
<path d="M4578.36 2365.58L4568.89 2362.47L4559.97 2371.32L4562.05 2383.74L4562.1 2383.75L4569.97 2386.35C4572.13 2379.45 4574.94 2372.46 4578.36 2365.58Z" fill="#0081C3"/>
<path d="M4543.5 2391.71L4549.25 2393.6L4558.17 2384.72L4557.83 2382.61L4556.34 2373.79L4556.1 2372.32L4545.08 2368.71L4536.17 2377.56L4538.25 2389.99L4543.5 2391.71Z" fill="#1172BA"/>
<path d="M4556.64 2371.78L4556.61 2371.76L4556.64 2371.78Z" fill="#1172BA"/>
<path d="M4512.42 2384.22L4512.42 2384.25L4512.42 2384.31L4514.43 2396.25L4519.24 2397.84L4525.4 2399.88L4534.35 2390.99L4533.24 2384.36L4533.25 2384.34L4532.29 2378.61L4521.26 2374.98L4520.38 2375.86L4512.41 2383.76L4512.42 2384.22Z" fill="#0081C3"/>
<path d="M4564.89 2412.84L4564.94 2412.79C4565.46 2405.47 4566.74 2398.02 4568.75 2390.62L4560.73 2387.97L4551.78 2396.85L4553.85 2409.25L4564.87 2412.86L4564.89 2412.84Z" fill="#1172BA"/>
<path d="M4549.96 2410.28L4548.92 2404.07L4547.89 2397.85L4542.41 2396.06L4536.89 2394.25L4527.95 2403.12L4530.02 2415.52L4541.03 2419.15L4547.92 2412.31L4549.96 2410.28Z" fill="#1172BA"/>
<path d="M4526.13 2416.54L4525 2409.77L4524.06 2404.11L4513.07 2400.49L4513.06 2400.51C4513.14 2402.02 4513.23 2403.53 4513.34 2405.06C4513.81 2411.76 4514.64 2418.44 4515.81 2424.93L4517.21 2425.4L4526.13 2416.54Z" fill="#1172BA"/>
<path d="M4660.17 2500.88L4667.08 2503.15L4667.11 2503.1L4667.13 2503.1L4672.35 2497.92C4668.33 2498.77 4664.25 2499.76 4660.17 2500.88Z" fill="#2BAAE2"/>
<path d="M4692.55 2495.23L4693.15 2494.63C4690.93 2494.85 4688.68 2495.12 4686.43 2495.43L4690.88 2496.9L4692.55 2495.21L4692.55 2495.23Z" fill="#2BAAE2"/>
<path d="M4647.83 2524.8L4650.14 2525.42L4649.99 2525.57L4656.91 2527.83C4658.25 2527.26 4659.86 2526.6 4661.69 2525.84L4667.8 2519.77L4665.73 2507.37L4654.72 2503.73L4645.8 2512.6L4647.83 2524.8Z" fill="#2BAAE2"/>
<path d="M4678.32 2497.74L4678.26 2497.79L4669.62 2506.38L4670.2 2509.88L4671.28 2516.34L4671.28 2516.32L4671.69 2518.72L4675.83 2520.07C4682.01 2517.54 4687.02 2515.4 4691.57 2513.41L4689.51 2501.12L4688.33 2500.73L4681.83 2498.59L4678.53 2497.5L4678.32 2497.74Z" fill="#4CC8ED"/>
<path d="M4675.03 2414.08L4674.62 2411.6L4663.63 2407.99L4662.85 2408.78L4660.51 2411.09C4666.33 2416.68 4671.82 2421.93 4675.88 2424.81L4676.71 2424.01L4675.03 2414.08Z" fill="#1172BA"/>
<path d="M4695.09 2510.16L4695.22 2511L4695.35 2511.75C4703.65 2508.02 4709.93 2504.87 4714.52 2502.13L4713.32 2494.91L4710.13 2493.86L4710.01 2493.86C4706.58 2493.84 4703.03 2493.93 4699.46 2494.15L4693.42 2500.16L4695.08 2510.09L4695.08 2510.07L4695.09 2510.16Z" fill="#4CC8ED"/>
<path d="M4719.67 2494.68C4718.97 2494.52 4718.16 2494.37 4717.27 2494.26L4718.19 2499.77C4721.5 2497.46 4722.26 2496.2 4722.43 2495.81C4722.22 2495.61 4721.56 2495.11 4719.67 2494.68Z" fill="#4CC8ED"/>
<path d="M4681.05 2408.08L4678.52 2410.59L4680.6 2423.03L4681.88 2423.45L4683.33 2423.93C4684.5 2420.49 4683.72 2415.06 4681.05 2408.08Z" fill="#1172BA"/>
<path d="M4639.46 2344.75L4631.45 2352.71L4633.12 2362.67L4633.12 2362.66L4633.53 2365.13L4644.53 2368.75L4652.32 2361.01C4648.2 2355.56 4643.88 2350.09 4639.46 2344.75Z" fill="#2E3690"/>
<path d="M4650.38 2384.77L4660.16 2388L4666.74 2381.46C4663.22 2376.03 4659.21 2370.26 4654.8 2364.32L4648.28 2370.79L4647.11 2371.96L4649.18 2384.38L4650.38 2384.77Z" fill="#1172BA"/>
<path d="M4623.29 2378.21L4623.42 2378.94C4628.49 2382.53 4633.68 2386.61 4639.23 2391.4L4645.28 2385.38L4643.69 2375.9L4643.21 2372.97L4632.2 2369.35L4623.29 2378.21Z" fill="#1172BA"/>
<path d="M4679.28 2403.81C4676.8 2398.29 4673.35 2391.98 4668.99 2385.01L4662.7 2391.25L4664.77 2403.65L4675.78 2407.29L4679.28 2403.81Z" fill="#2E3690"/>
<path d="M4660.43 2401.92L4658.81 2392.24L4658.3 2392.07L4647.83 2388.61L4642.32 2394.09C4647.82 2398.95 4652.97 2403.85 4657.41 2408.11L4660.21 2405.34L4660.89 2404.66L4660.43 2401.92Z" fill="#1172BA"/>
<path d="M4396.09 2362.32C4394.99 2364.58 4394.88 2366.43 4395.74 2367.95C4395.95 2368.31 4396.38 2368.57 4397.03 2368.72C4398.59 2369.08 4401.24 2368.78 4404.92 2367.84C4405.23 2367.77 4405.54 2367.68 4405.85 2367.6L4405.52 2365.43L4396.09 2362.32Z" fill="#2E3690"/>
<path d="M4409.24 2358.81L4415.73 2352.35L4414.45 2344.73C4407.12 2349.9 4401.79 2354.52 4398.6 2358.5L4406.84 2361.19L4409.03 2359.02L4409.24 2358.81Z" fill="#2E3690"/>
<path d="M4409.74 2366.42C4414.58 2364.87 4420.26 2362.75 4426.8 2360.29L4429.35 2359.33L4429.32 2359.17L4418.31 2355.55L4416.59 2357.27L4416.6 2357.25L4416.17 2357.68L4409.42 2364.4L4409.74 2366.42Z" fill="#135EAB"/>
<path d="M4450.03 2351.91L4442.1 2349.3L4436.56 2354.81L4433.61 2357.73C4438.48 2355.92 4444.08 2353.89 4450.03 2351.91Z" fill="#2E3690"/>
<path d="M4473.16 2345.41L4465.93 2343.04L4460.16 2348.77C4464.72 2347.44 4469.01 2346.32 4473.16 2345.41Z" fill="#1172BA"/>
<path d="M4489.74 2336.78L4482.91 2343.55C4489.31 2342.56 4495.36 2342.1 4500.94 2342.17L4500.95 2341.56L4500.75 2340.4L4489.74 2336.78Z" fill="#1172BA"/>
<path d="M4419.23 2348.9L4419.28 2349.15L4419.63 2351.32L4430.62 2354.94L4439.54 2346.09L4437.46 2333.67L4433.87 2332.48C4428.02 2335.86 4422.72 2339.12 4418.11 2342.21L4419.21 2348.78L4419.21 2348.77L4419.23 2348.9Z" fill="#135EAB"/>
<path d="M4441.36 2332.67L4443.18 2343.59L4443.43 2345.07L4454.45 2348.7L4462.11 2341.08L4463.36 2339.83L4461.28 2327.41L4450.28 2323.81L4443.2 2330.84L4443.21 2330.85L4441.36 2332.67Z" fill="#2E3690"/>
<path d="M4465.17 2326.42L4465.97 2331.19L4467.23 2338.8L4478.26 2342.42L4487.17 2333.57L4485.09 2321.15L4474.11 2317.53L4465.17 2326.42Z" fill="#2E3690"/>
<path d="M4497.9 2311.28L4488.99 2320.16L4490.8 2331L4491.06 2332.55L4502.04 2336.16L4510.86 2327.38L4510.85 2327.35L4510.97 2327.24L4508.9 2314.88L4497.9 2311.28Z" fill="#2E3690"/>
<path d="M4471.57 2314.29L4471.35 2312.96C4465.9 2315.56 4460.57 2318.2 4455.48 2320.81L4457.48 2321.47L4462.65 2323.16L4471.57 2314.29Z" fill="#2E3690"/>
<path d="M4493.69 2309.71L4494.7 2308.71L4495.38 2308.04L4494.45 2302.44C4491.4 2303.74 4484.6 2306.7 4475.11 2311.17L4475.47 2313.29L4476.73 2313.71L4486.45 2316.92L4493.69 2309.71Z" fill="#2E3690"/>
<path d="M4524.55 2334.09L4513.59 2330.47L4512.65 2331.49L4511.84 2332.37L4511.82 2332.22L4504.64 2339.36L4505.14 2342.31C4507.48 2342.46 4509.72 2342.69 4511.84 2343.02L4513.57 2343.3L4513.43 2345.28C4513.24 2347.78 4513.08 2350.47 4512.92 2353.49L4517.95 2355.15L4524.07 2349.07L4525.69 2347.47L4525.83 2347.34L4526.57 2346.61L4526.63 2346.54L4524.55 2334.09Z" fill="#1172BA"/>
<path d="M4528.91 2335.91L4530.45 2345.16L4541.77 2348.87L4550.44 2340.25L4548.37 2327.85L4537.34 2324.21L4528.44 2333.06L4528.91 2335.91Z" fill="#2E3690"/>
<path d="M4566.5 2341.69L4574.26 2333.99L4572.18 2321.56L4561.16 2317.94L4552.25 2326.8L4552.32 2327.19L4554.27 2338.88L4565.58 2342.61L4566.19 2342L4566.5 2341.69Z" fill="#1172BA"/>
<path d="M4576.54 2323.37L4578.09 2332.65L4589.23 2336.3L4591.05 2334.05L4591.14 2334.61L4598.06 2327.73L4597.87 2326.56L4596.4 2317.77L4596.39 2317.78L4595.98 2315.31L4584.99 2311.69L4576.07 2320.54L4576.54 2323.37Z" fill="#2E3690"/>
<path d="M4514.47 2323.83L4514.55 2324.3L4514.86 2326.23L4525.87 2329.86L4531.3 2324.46L4534.79 2321.01L4532.71 2308.58L4530.48 2307.89L4530.51 2307.86L4529.55 2307.54L4521.73 2304.96L4512.79 2313.82L4514.46 2323.84L4514.47 2323.83Z" fill="#2E3690"/>
<path d="M4549.68 2323.6L4556.82 2316.51L4556.8 2316.51L4558.6 2314.72L4556.52 2302.32L4553.95 2301.49L4545.53 2298.72L4536.59 2307.59L4538.66 2319.99L4549.68 2323.6Z" fill="#2E3690"/>
<path d="M4573.5 2317.34L4582.42 2308.49L4580.34 2296.06L4577.4 2295.1L4577.41 2295.09L4569.36 2292.45L4560.41 2301.32L4561.46 2307.57L4562.48 2313.7L4573.5 2317.34Z" fill="#135EAB"/>
<path d="M4604.14 2289.8L4593.14 2286.19L4584.23 2295.07L4586.3 2307.47L4597.31 2311.08L4599.05 2309.35L4599.05 2309.36L4606.22 2302.22L4604.14 2289.8Z" fill="#2E3690"/>
<path d="M4510.27 2310.59L4519.19 2301.71L4517.87 2293.8C4511.78 2295.81 4505.29 2298.14 4498.58 2300.73C4498.49 2300.76 4498.38 2300.81 4498.25 2300.85L4499.28 2306.97L4510.27 2310.59Z" fill="#2E3690"/>
<path d="M4541.33 2285.53L4540.92 2283.15L4529.87 2279.5L4522.6 2286.73C4522.22 2288.25 4521.86 2289.78 4521.5 2291.33L4523.07 2300.72L4532.5 2303.83L4534.05 2304.35L4543 2295.46L4541.33 2285.53Z" fill="#2E3690"/>
<path d="M4553.94 2296.77L4557.89 2298.06L4566.82 2289.19L4564.76 2276.86L4553.7 2273.24L4544.81 2282.07L4545.06 2283.52L4546.89 2294.45L4553.94 2296.77Z" fill="#2E3690"/>
<path d="M4581.68 2291.83L4590.62 2282.95L4590.51 2282.33L4588.97 2273.04L4588.95 2273.05L4588.54 2270.63L4577.51 2266.99L4568.63 2275.8L4569.49 2280.94L4570.7 2288.2L4572.9 2288.92L4581.68 2291.83Z" fill="#2E3690"/>
<path d="M4534.95 2247.39C4534.14 2249.46 4533.36 2251.57 4532.6 2253.68L4533.7 2252.59L4533.69 2252.58L4535.52 2250.77L4534.95 2247.39Z" fill="#2E3690"/>
<path d="M4539.27 2248.97L4539.39 2249.73L4541.72 2250.35L4541.59 2250.48L4546.66 2252.15L4548.12 2252.62L4550.38 2253.37L4559.32 2244.5L4557.24 2232.09L4554.7 2231.26L4546.23 2228.48L4540.28 2234.38C4539.45 2236.29 4538.61 2238.24 4537.79 2240.22L4539.27 2248.97Z" fill="#2E3690"/>
<path d="M4563.28 2243.51L4574.24 2247.11L4581.31 2240.09L4581.3 2240.09L4581.29 2240.09L4583.14 2238.26L4581.08 2225.85L4570.07 2222.21L4561.15 2231.09L4563.22 2243.5L4563.28 2243.51Z" fill="#2E3690"/>
<path d="M4558.59 2227.87L4567.52 2219.01L4565.44 2206.6L4555.96 2203.48C4552.78 2208.97 4549.74 2214.62 4546.91 2220.27L4547.57 2224.26L4558.59 2227.87Z" fill="#282560"/>
<path d="M4570.39 2212L4571.4 2217.98L4582.41 2221.62L4591.31 2212.75L4589.24 2200.33L4578.24 2196.72L4569.32 2205.57L4570.39 2212Z" fill="#2E3690"/>
<path d="M4526.59 2271.97C4525.91 2274.28 4525.24 2276.63 4524.61 2278.97L4527.32 2276.28L4526.59 2271.97Z" fill="#2E3690"/>
<path d="M4542.25 2278.84L4551.14 2270.01L4549.06 2257.63L4538.05 2254.02L4529.58 2262.42L4529.23 2263.47L4530.8 2272.83L4530.8 2272.81L4530.82 2272.91L4531.2 2275.22L4542.25 2278.84Z" fill="#2E3690"/>
<path d="M4554.61 2266.52L4555.02 2268.93L4566.06 2272.58L4574.95 2263.75L4572.88 2251.35L4561.88 2247.73L4552.95 2256.61L4554.61 2266.52Z" fill="#135EAB"/>
<path d="M4591.64 2264.6L4591.63 2264.61L4598.76 2257.52L4596.68 2245.11L4585.68 2241.49L4578.58 2248.53L4578.59 2248.54L4576.76 2250.35L4577.08 2252.24L4578.43 2260.31L4578.43 2260.3L4578.83 2262.7L4589.9 2266.33L4590.87 2265.37L4591.64 2264.6Z" fill="#2E3690"/>
<path d="M4575.67 2193.52L4573.59 2181.09L4570.88 2180.19C4566.44 2186.48 4562.21 2192.99 4558.27 2199.57L4566.76 2202.37L4575.67 2193.52Z" fill="#282560"/>
<path d="M4583.19 2163.86C4579.81 2168.07 4576.66 2172.18 4573.59 2176.4L4574.96 2176.86L4583.87 2167.99L4583.19 2163.86Z" fill="#282560"/>
<path d="M4617.87 2345.75L4628.97 2349.4L4636.81 2341.59C4631.75 2335.61 4627.02 2330.31 4623.06 2326.23L4615.8 2333.43L4617.87 2345.75Z" fill="#2E3690"/>
<path d="M4620.28 2323.23C4617.43 2319.52 4616.22 2314.34 4616.66 2307.82L4609.07 2305.31L4600.13 2314.18L4602.19 2326.49L4613.3 2330.15L4620.28 2323.23Z" fill="#2E3690"/>
<path d="M4617.2 2303.31C4618.07 2297.99 4619.74 2292.97 4621 2289.63C4621.59 2288.23 4622.14 2286.88 4622.69 2285.53L4622.78 2285.28C4623.22 2284.23 4623.64 2283.16 4624.05 2282.09L4617.24 2279.85L4608.35 2288.68L4610.42 2301.08L4617.2 2303.31Z" fill="#2E3690"/>
<path d="M4602.95 2256.38L4610.49 2258.85L4613.97 2260L4621.06 2252.95L4621.05 2252.95L4621.04 2252.95L4622.88 2251.14L4622.89 2251.13L4620.81 2238.73L4609.81 2235.1L4600.89 2243.96L4602.43 2253.19L4602.95 2256.38Z" fill="#2E3690"/>
<path d="M4626.78 2250.12L4634.15 2252.55C4636.23 2245.32 4638.07 2238.03 4639.58 2230.82L4633.59 2228.86L4624.69 2237.71L4626.78 2250.12Z" fill="#2E3690"/>
<path d="M4594.13 2215.89L4585.24 2224.72L4587.32 2237.13L4598.33 2240.74L4607.25 2231.89L4605.15 2219.46L4594.13 2215.89Z" fill="#2E3690"/>
<path d="M4609.52 2221.24L4611.13 2230.87L4622.13 2234.49L4631.05 2225.65L4629.2 2214.64L4629.1 2214.14L4629.11 2214.13L4628.96 2213.23L4617.97 2209.61L4612.72 2214.82L4609.06 2218.44L4609.52 2221.24Z" fill="#272361"/>
<path d="M4631.63 2225.96L4631.66 2225.93L4631.63 2225.96Z" fill="#282560"/>
<path d="M4610.59 2231.39L4610.59 2231.42L4610.59 2231.39Z" fill="#2E3690"/>
<path d="M4614.68 2276.64L4612.61 2264.24L4601.61 2260.61L4592.69 2269.48L4594.76 2281.91L4605.75 2285.51L4614.68 2276.64Z" fill="#135EAB"/>
<path d="M4617.09 2266.74L4618.16 2273.18L4618.17 2273.17L4618.57 2275.58L4625.67 2277.91C4628.32 2270.91 4630.75 2263.83 4632.87 2256.82L4632.55 2256.72L4625.41 2254.37L4616.49 2263.22L4617.09 2266.74Z" fill="#2E3690"/>
<path d="M4613.33 2193.98L4605.19 2191.29L4602.34 2190.34L4593.39 2199.23L4595.45 2211.57L4597.82 2212.2L4597.68 2212.35L4606.48 2215.25L4615.4 2206.4L4613.33 2193.98Z" fill="#282560"/>
<path d="M4618.92 2203.17L4619.29 2205.39L4630.3 2208.99L4639.19 2200.15L4637.12 2187.71L4626.13 2184.11L4619.04 2191.16L4619.06 2191.17L4619.06 2191.18L4618.95 2191.27L4617.22 2192.98L4618.92 2203.17Z" fill="#282560"/>
<path d="M4586.72 2171.08L4577.8 2179.94L4579.87 2192.37L4590.87 2195.98L4599.81 2187.1L4597.72 2174.7L4586.72 2171.08Z" fill="#282560"/>
<path d="M4601.61 2173.68L4603.69 2186.11L4609.14 2187.91L4610.95 2188.51L4614.67 2189.73L4623.52 2180.95L4623.51 2180.93L4623.59 2180.87L4621.94 2170.92L4621.93 2170.92L4621.84 2170.42L4621.52 2168.44L4610.53 2164.84L4601.61 2173.68Z" fill="#2E3690"/>
<path d="M4634.53 2222.2L4634.71 2223.26L4634.78 2223.72L4634.82 2223.99L4634.92 2224.63L4640.47 2226.45C4641.92 2219.01 4643.08 2211.49 4643.92 2204.08L4641.75 2203.37L4640.03 2205.09L4640.03 2205.07L4632.85 2212.21L4634.53 2222.2Z" fill="#282560"/>
<path d="M4644.41 2199.56C4644.97 2193.78 4645.34 2187.99 4645.5 2182.26L4641.01 2186.71L4642.68 2196.71L4642.69 2196.7L4642.72 2196.87L4643.08 2199.13L4644.41 2199.56Z" fill="#282560"/>
<path d="M4639.19 2182.76L4640.16 2181.79L4640.17 2181.81L4645.61 2176.39C4645.64 2171.64 4645.53 2166.85 4645.3 2162.2L4634.32 2158.57L4625.41 2167.43L4627.5 2179.87L4634.01 2182.02L4638.47 2183.48L4639.19 2182.76Z" fill="#282560"/>
<path d="M4639.82 2129.7L4639.23 2126.12C4638.46 2124.64 4637.61 2123.29 4636.69 2122.11C4635.57 2122.15 4633.49 2122.33 4630.64 2123.06C4626.74 2124.06 4622.73 2125.75 4618.74 2128.06L4619.89 2134.96L4627.62 2137.5L4630.89 2138.57L4639.82 2129.7Z" fill="#282560"/>
<path d="M4601.03 2142.87L4607.04 2144.85L4615.99 2135.97L4615.05 2130.38C4610.24 2133.68 4605.53 2137.87 4601.03 2142.87Z" fill="#282560"/>
<path d="M4645.01 2157.35C4644.61 2151.58 4644 2145.83 4643.2 2140.24L4643.18 2140.09C4643.18 2140.03 4642.96 2137.14 4641.95 2133.34L4633.41 2141.81L4635.48 2154.21L4639.55 2155.54L4645.01 2157.35Z" fill="#282560"/>
<path d="M4630.63 2149.47L4629.52 2142.83L4622.47 2140.52L4618.52 2139.22L4609.59 2148.1L4611.67 2160.5L4622.68 2164.12L4629.3 2157.54L4631.6 2155.26L4630.63 2149.47Z" fill="#282560"/>
<path d="M4607.78 2161.52L4606.37 2153.04L4605.71 2149.09L4597.87 2146.5L4596.24 2148.38C4593.6 2151.42 4590.33 2155.18 4586.68 2159.59L4587.88 2166.76L4598.88 2170.37L4607.78 2161.52Z" fill="#282560"/>
<path fill-rule="evenodd" clip-rule="evenodd" d="M7685.25 1860.03L7637.31 2074.36L4281.41 2078.5L4318.66 1890.96L7685.25 1860.03Z" fill="#0081C3"/>
<path fill-rule="evenodd" clip-rule="evenodd" d="M4354.37 2638L7321.23 2642.81C7325.55 2642.81 7328.26 2646.22 7327.28 2650.43L7294.82 2790.25C7293.84 2794.45 7289.55 2797.86 7285.24 2797.85L4313.52 2795.61C4309.21 2795.61 4306.59 2792.22 4307.67 2788.05L4344.61 2645.55C4345.69 2641.37 4350.06 2637.99 4354.37 2638Z" fill="#135EAB"/>
<path fill-rule="evenodd" clip-rule="evenodd" d="M4981.84 3020.56L4887 3419C4885.81 3424.83 4879.56 3431 4871.5 3431H4195.62C4187.56 3431 4181.98 3426.27 4183.16 3420.44L4275.5 3020.5C4276.68 3014.67 4288.94 3010 4297 3010H4969.39C4977.46 3010 4983.03 3014.73 4981.84 3020.56Z" fill="#4CC8ED"/>
<path fill-rule="evenodd" clip-rule="evenodd" d="M6709.62 3150.16H7231.53C7232.79 3150.16 7233.59 3150.8 7233.32 3151.6L7217.86 3197.69C7217.59 3198.48 7216.35 3199.13 7215.1 3199.14L6689.69 3201.05C6688.43 3201.06 6687.67 3200.42 6687.98 3199.63L6706.79 3151.59C6707.09 3150.8 6708.36 3150.16 6709.62 3150.16Z" fill="#135EAB"/>
<path fill-rule="evenodd" clip-rule="evenodd" d="M6094.63 3148.25C6124.78 3042.66 6237.89 2974.69 6347.27 2996.41C6456.64 3018.14 6524 3122.13 6490.72 3226.94C6465.31 3306.94 6388.14 3373.71 6292.36 3369.56L6290.45 3233.98C6290.45 3233.98 6362.97 3225.5 6371.18 3171.58C6375.16 3145.46 6352.47 3114.15 6316.02 3105.71C6269.11 3094.84 6232.1 3116.79 6221.66 3149.63C6205.76 3199.66 6258.75 3229.91 6258.75 3229.91C6258.75 3229.91 6208.15 3366.29 6198.41 3362.71C6108.01 3329.47 6067.42 3243.57 6094.63 3148.25Z" fill="#272361"/>
<path fill-rule="evenodd" clip-rule="evenodd" d="M5688.92 3010.18L5907.23 3010.57C5911.08 3010.58 5913.44 3013.61 5912.51 3017.35L5811.59 3420.43C5810.65 3424.17 5806.77 3427.21 5802.91 3427.21H5588.28C5584.42 3427.21 5582.03 3424.17 5582.94 3420.42L5680.3 3016.95C5681.21 3013.2 5685.07 3010.17 5688.92 3010.18Z" fill="#2BAAE2"/>
<path fill-rule="evenodd" clip-rule="evenodd" d="M6683.89 3237.34H7205.81C7207.06 3237.34 7207.86 3237.98 7207.59 3238.78L7192.13 3284.86C7191.86 3285.66 7190.63 3286.31 7189.37 3286.31L6663.96 3288.23C6662.71 3288.24 6661.95 3287.6 6662.26 3286.81L6681.07 3238.76C6681.38 3237.98 6682.64 3237.34 6683.89 3237.34Z" fill="#135EAB"/>
<path fill-rule="evenodd" clip-rule="evenodd" d="M6658.17 3323.08H7180.09C7181.33 3323.08 7182.13 3323.73 7181.86 3324.53L7166.4 3370.61C7166.13 3371.4 7164.9 3372.06 7163.65 3372.06L6638.24 3373.98C6636.98 3373.98 6636.22 3373.34 6636.53 3372.56L6655.34 3324.51C6655.65 3323.72 6656.91 3323.08 6658.17 3323.08Z" fill="#135EAB"/>
<path fill-rule="evenodd" clip-rule="evenodd" d="M6601 3596.04H7122.92C7124.17 3596.04 7124.97 3596.69 7124.7 3597.48L7109.24 3643.57C7108.97 3644.36 7107.74 3645.01 7106.48 3645.02L6581.07 3646.93C6579.82 3646.94 6579.06 3646.31 6579.37 3645.51L6598.18 3597.47C6598.49 3596.68 6599.75 3596.04 6601 3596.04Z" fill="#135EAB"/>
<path fill-rule="evenodd" clip-rule="evenodd" d="M6576.71 3686.07H7098.63C7099.88 3686.07 7100.67 3686.73 7100.4 3687.52L7084.94 3733.6C7084.67 3734.4 7083.44 3735.05 7082.2 3735.06L6556.78 3736.97C6555.53 3736.98 6554.76 3736.34 6555.07 3735.55L6573.88 3687.51C6574.19 3686.72 6575.45 3686.07 6576.71 3686.07Z" fill="#135EAB"/>
<path fill-rule="evenodd" clip-rule="evenodd" d="M6548.12 3780.4H7070.04C7071.3 3780.4 7072.09 3781.05 7071.83 3781.84L7056.36 3827.92C7056.09 3828.73 7054.86 3829.38 7053.61 3829.38L6528.19 3831.3C6526.95 3831.3 6526.17 3830.66 6526.48 3829.87L6545.3 3781.83C6545.61 3781.04 6546.87 3780.4 6548.12 3780.4Z" fill="#135EAB"/>
<path fill-rule="evenodd" clip-rule="evenodd" d="M4159.29 3510.16L5789.1 3513.24C5790.14 3513.24 5790.75 3514.05 5790.45 3515.05L5773.19 3572.96C5772.89 3573.96 5771.8 3574.77 5770.76 3574.77L4139.72 3581.01C4138.68 3581.02 4138.06 3580.2 4138.33 3579.2L4156.9 3511.97C4157.18 3510.97 4158.25 3510.16 4159.29 3510.16Z" fill="#135EAB"/>
<path fill-rule="evenodd" clip-rule="evenodd" d="M5397.07 3010.18L5615.38 3010.57C5619.23 3010.58 5621.6 3013.61 5620.66 3017.35L5519.74 3420.43C5518.8 3424.17 5514.92 3427.21 5511.07 3427.21H5296.43C5292.58 3427.21 5290.18 3424.17 5291.08 3420.42L5388.46 3016.95C5389.36 3013.2 5393.22 3010.17 5397.07 3010.18Z" fill="#2BAAE2"/>
<path fill-rule="evenodd" clip-rule="evenodd" d="M5104.12 3010.18L5322.42 3010.57C5326.27 3010.58 5328.64 3013.61 5327.71 3017.35L5226.78 3420.43C5225.85 3424.17 5221.96 3427.21 5218.11 3427.21H5003.47C4999.61 3427.21 4997.22 3424.17 4998.13 3420.42L5095.5 3016.95C5096.4 3013.2 5100.26 3010.17 5104.12 3010.18Z" fill="#2BAAE2"/>
<path fill-rule="evenodd" clip-rule="evenodd" d="M4133.08 3627L5767.57 3630.05C5768.62 3630.05 5769.22 3630.85 5768.92 3631.84L5751.62 3689.04C5751.31 3690.03 5750.22 3690.84 5749.17 3690.84L4806.3 3694.39L4113.46 3697C4112.41 3697.01 4111.79 3696.2 4112.07 3695.2L4130.68 3628.8C4130.96 3627.81 4132.03 3627 4133.08 3627Z" fill="#135EAB"/>
<path fill-rule="evenodd" clip-rule="evenodd" d="M4106.07 3757L5739.57 3760.09C5740.62 3760.09 5741.22 3760.91 5740.92 3761.91L5723.63 3819.93C5723.32 3820.93 5722.23 3821.75 5721.18 3821.76L4778.88 3825.36L4086.46 3828C4085.41 3828.01 4084.79 3827.2 4085.07 3826.19L4103.67 3758.82C4103.95 3757.81 4105.02 3756.99 4106.07 3757Z" fill="#135EAB"/>
<path fill-rule="evenodd" clip-rule="evenodd" d="M5987.07 3623.45C6009.39 3509.38 6117.19 3434.8 6227.84 3456.87C6338.5 3478.94 6410.11 3589.3 6387.79 3703.38C6370.06 3793.96 6298.44 3859.63 6214.3 3871.79C6211.99 3872.13 6198.55 3866.55 6200.56 3858.9C6216.92 3796.72 6215.68 3765.6 6204.75 3763.19C6203.51 3762.93 6274.48 3769.78 6298.48 3726.83C6337.47 3657.06 6307.3 3620.74 6307.3 3620.74C6307.3 3620.74 6314.19 3603.18 6316.02 3589.33C6317.84 3575.48 6314.6 3565.35 6314.6 3565.35C6314.6 3565.35 6302.44 3563.17 6287.39 3565.55C6272.34 3567.95 6256.81 3575.12 6256.81 3575.12C6219.05 3558.66 6188.88 3553.72 6156.16 3555.41C6156.16 3555.41 6143.56 3542.46 6130.7 3534.51C6117.84 3526.57 6105.75 3523.44 6105.75 3523.44C6105.75 3523.44 6097.42 3535.41 6093.86 3549.08C6090.28 3562.75 6093.11 3578.36 6091.47 3578.14C6089.4 3577.85 6047.19 3609.92 6059.46 3679.27C6068.06 3727.81 6131.8 3748.21 6130.98 3748.25C6125.1 3748.59 6119.96 3758.59 6115.69 3771.89C6115.07 3773.82 6069.28 3776.25 6062.92 3752.15C6052.33 3712.09 6021.6 3711.88 6021.35 3718.35C6021.2 3722.1 6040.06 3727.67 6045.51 3762.85C6051.49 3801.6 6108.83 3798.7 6108.25 3801.6C6106.95 3808.03 6105.83 3814.27 6104.91 3819.78C6099.68 3851.07 6093.66 3851.35 6086.63 3847.31C6011.81 3804.29 5969.15 3715.07 5987.07 3623.45Z" fill="#272361"/>
<path fill-rule="evenodd" clip-rule="evenodd" d="M6071.35 3771.81C6071.97 3770.32 6074.28 3769.95 6076.5 3770.97C6078.71 3771.99 6080 3774.02 6079.37 3775.5C6078.74 3776.99 6076.44 3777.36 6074.23 3776.35C6072.01 3775.32 6070.72 3773.29 6071.35 3771.81Z" fill="#272361"/>
<path fill-rule="evenodd" clip-rule="evenodd" d="M6086.2 3778.56C6086.49 3777.06 6088.75 3776.26 6091.23 3776.76C6093.72 3777.25 6095.5 3778.87 6095.21 3780.35C6094.92 3781.83 6092.67 3782.64 6090.17 3782.14C6087.69 3781.64 6085.9 3780.04 6086.2 3778.56Z" fill="#272361"/>
<path fill-rule="evenodd" clip-rule="evenodd" d="M6102.14 3779.86C6102.31 3778.31 6104.51 3777.27 6107.04 3777.54C6109.58 3777.81 6111.49 3779.28 6111.32 3780.82C6111.13 3782.38 6108.94 3783.42 6106.41 3783.15C6103.87 3782.88 6101.95 3781.41 6102.14 3779.86Z" fill="#272361"/>
<path fill-rule="evenodd" clip-rule="evenodd" d="M6060.39 3764.29C6059.01 3762.19 6059.03 3759.71 6060.45 3758.74C6061.86 3757.78 6064.12 3758.71 6065.5 3760.81C6066.88 3762.91 6066.85 3765.39 6065.44 3766.35C6064.03 3767.31 6061.76 3766.39 6060.39 3764.29Z" fill="#272361"/>
<path fill-rule="evenodd" clip-rule="evenodd" d="M6053.06 3749.78C6052.25 3747.76 6052.67 3745.65 6053.99 3745.07C6055.31 3744.49 6057.04 3745.67 6057.84 3747.7C6058.65 3749.73 6058.23 3751.84 6056.92 3752.41C6055.6 3752.99 6053.87 3751.81 6053.06 3749.78Z" fill="#272361"/>
<path fill-rule="evenodd" clip-rule="evenodd" d="M6047.84 3737.44C6046.57 3735.7 6046.3 3733.72 6047.22 3733.02C6048.15 3732.32 6049.92 3733.16 6051.19 3734.9C6052.46 3736.64 6052.74 3738.62 6051.81 3739.32C6050.88 3740.02 6049.11 3739.18 6047.84 3737.44Z" fill="#272361"/>
<path fill-rule="evenodd" clip-rule="evenodd" d="M6041.37 3728.17C6040.11 3727.15 6039.58 3725.7 6040.18 3724.95C6040.77 3724.18 6042.28 3724.42 6043.53 3725.44C6044.79 3726.47 6045.32 3727.92 6044.72 3728.67C6044.12 3729.42 6042.62 3729.2 6041.37 3728.17Z" fill="#272361"/>
<path fill-rule="evenodd" clip-rule="evenodd" d="M3238.4 4939.18C3238.4 4939.18 3220.09 4993.72 3228.1 5084.15C3233.06 5140.2 3258.15 5220.77 3262.25 5268.48C3264.77 5297.74 3256.72 5316.8 3256.72 5316.8L3317.35 5321.18L3338.2 4922.63L3238.4 4939.18Z" fill="#FDBC8C"/>
<path fill-rule="evenodd" clip-rule="evenodd" d="M3595.94 4935.33C3595.94 4935.33 3577.86 4989.95 3586.25 5080.35C3591.45 5136.38 3616.87 5216.84 3621.17 5264.53C3623.81 5293.78 3615.85 5312.87 3615.85 5312.87L3676.5 5317L3695.67 4918.36L3595.94 4935.33Z" fill="#FDBC8C"/>
<path fill-rule="evenodd" clip-rule="evenodd" d="M3621.52 5295.83C3621.52 5295.83 3590.95 5314.58 3612.09 5359.91C3613.72 5363.4 3616.58 5376.65 3618.81 5380.21C3618.81 5380.21 3624.3 5378.94 3671.32 5381.18C3677.68 5381.49 3675.51 5362.74 3682.44 5363C3691.36 5363.34 3724.62 5383.35 3732.83 5384.05C3778.17 5387.9 3793.3 5387.6 3823.5 5382.3C3837.15 5379.91 3838.87 5343.92 3811.52 5338.29C3783.39 5332.49 3775.96 5329.83 3742.32 5320.57C3708.68 5311.32 3678.44 5295.64 3678.44 5295.64C3678.44 5295.64 3662.97 5303.8 3648.54 5303.38C3634.13 5302.95 3621.52 5295.83 3621.52 5295.83Z" fill="#272361"/>
<path fill-rule="evenodd" clip-rule="evenodd" d="M3169.42 3571.31C3169.42 3571.31 3048 4651.5 3089.88 5067.53C3089.88 5067.53 3174.53 5097.08 3249.27 5097.25C3324.02 5097.41 3424.87 5064.83 3424.87 5064.83C3429.14 4845.54 3395.27 4618.29 3400.77 4348.39C3403.92 4193.55 3398.73 3984.28 3398.73 3984.28C3398.73 3984.28 3411.36 4251.75 3435.52 4551.01C3450.39 4735.24 3427.27 4943.31 3473.5 5066.18C3473.5 5066.18 3579.64 5088.05 3657.2 5085.09C3734.77 5082.12 3819.29 5040.51 3819.29 5040.51C3838.21 4620.43 3550.28 3561.65 3550.28 3561.65L3169.42 3571.31Z" fill="#2E3690"/>
<path fill-rule="evenodd" clip-rule="evenodd" d="M3333.12 3835.06C3333.12 3835.06 3335.45 3901.77 3352 3938.28C3368.55 3974.78 3399.33 3981.09 3399.33 3981.09C3399.33 3981.09 3405.7 4005.2 3400.07 4208C3399.66 4222.88 3398.67 4304.39 3397.97 4402.18C3396.82 4563.09 3403.67 4645.58 3417.76 4834.15C3425.02 4931.39 3424.17 5060.84 3424.17 5060.84C3424.17 5060.84 3395.04 4966.43 3376.38 4654.09C3365.17 4466.22 3380.25 3990.17 3380.25 3990.17C3380.25 3990.17 3357.25 3965.84 3343.44 3950.36C3319.15 3923.13 3333.12 3835.06 3333.12 3835.06Z" fill="#272361"/>
<path fill-rule="evenodd" clip-rule="evenodd" d="M3943.22 3003.04C3943.22 3003.04 3928.24 3035.05 3927.97 3061.1C3927.86 3071.14 3839.46 3150.63 3839.46 3150.63C3839.46 3150.63 3859.67 3190.99 3883.29 3175.94C3913.61 3156.61 3960.56 3095.8 3967.23 3095.34C3988.31 3093.89 4009.78 3083.9 4009.78 3083.9C4009.78 3083.9 4164.35 2993.79 4151.75 2982.23C4139.14 2970.68 4104.01 3011.78 4095.8 3004.04C4087.58 2996.3 4162.68 2949.81 4149.36 2938.62C4136.04 2927.43 4088.94 2988.67 4083.1 2982.54C4077.27 2976.42 4139.71 2924.82 4126.01 2914.11C4112.3 2903.38 4062.01 2972.19 4054.12 2966.45C4046.23 2960.72 4107.66 2899.29 4094.45 2891.15C4081.22 2883.02 4039.77 2955 4017.86 2958.02C3995.94 2961.06 4025.18 2895.69 4006.77 2903.26C3988.36 2910.84 3943.22 3003.04 3943.22 3003.04Z" fill="#FDBC8C"/>
<path fill-rule="evenodd" clip-rule="evenodd" d="M3217.47 2473.65C3217.47 2473.65 3249.95 2557.21 3249.95 2615.55C3249.95 2673.89 3234.98 2727.83 3234.98 2727.83C3234.98 2727.83 3199.87 2740.76 3108.87 2779.06C3104.63 2780.85 3100.25 2782.7 3095.75 2784.6C2999.72 2825.2 3294.69 2853.5 3294.69 2853.5L3546.78 2811.79C3546.78 2811.79 3515.6 2769.19 3458.73 2748.56C3439.33 2741.52 3402.41 2730.65 3398.11 2718.4C3388.05 2689.81 3379.3 2656.87 3377.68 2625.83C3373.54 2546.55 3415.96 2479.63 3415.96 2479.63L3217.47 2473.65Z" fill="#FDBC8C"/>
<path fill-rule="evenodd" clip-rule="evenodd" d="M3217.47 2473.65C3217.47 2473.65 3232.14 2546.1 3232.14 2604.45C3232.14 2662.79 3217.47 2707.02 3217.47 2707.02C3217.47 2707.02 3269.48 2653.83 3312.61 2637.6C3355.75 2621.36 3389.33 2597.68 3389.33 2597.68C3389.33 2597.68 3389.29 2573.26 3390.96 2557.18C3397.99 2489.18 3415.96 2479.63 3415.96 2479.63L3217.47 2473.65Z" fill="#DFA58B"/>
<path fill-rule="evenodd" clip-rule="evenodd" d="M3146.53 2752.97C3146.53 2752.97 3231.8 2769.89 3310.81 2770.61C3409.29 2771.5 3475.2 2747.37 3475.2 2747.37C3475.2 2747.37 3627.21 2769.3 3640.35 2853.64C3657.8 2965.62 3724.92 3161.85 3728.23 3223.05C3731.54 3284.25 3684.51 3263.31 3757.48 3199.73C3835.1 3132.09 3926.38 3056.39 3926.38 3056.39C3926.38 3056.39 3924.5 3067.33 3934.92 3079.15C3945.32 3090.97 3968.12 3086.97 3968.12 3086.97C3968.12 3086.97 3922.19 3167.85 3835.71 3304.24C3759.97 3423.7 3690.44 3439.64 3648.61 3412.88C3606.77 3386.1 3543.04 3202.14 3535.79 3171.4C3528.54 3140.66 3545.03 3259.35 3542.91 3375.75C3541.27 3465.58 3567.52 3511.32 3576.33 3550.5C3585.13 3589.69 3509.2 3591.13 3438.26 3587.46C3396.6 3585.3 3397.57 3554.23 3304.08 3616.64C3213.66 3677.01 3159.03 3654.72 3158.17 3599C3157.25 3539.53 3206.58 3437.7 3152.12 3256.46C3150.67 3251.65 3055.35 3138.32 3055.35 3182.35C3055.35 3250.09 3018.42 3294.5 3023.05 3326.94C3027.69 3359.38 3140.66 3294.67 3170.83 3287.79C3224.3 3275.61 3251.81 3361.67 3083.63 3423.77C3021.22 3446.81 2914.99 3478.12 2892.82 3425.58C2873.93 3380.79 2888.59 3314.06 2899.81 3207.62C2911.03 3101.18 2928.92 3025.93 2945.99 2925.47C2965.71 2809.37 3078.71 2782.28 3078.71 2782.28L3146.53 2752.97Z" fill="#0081C3"/>
<path fill-rule="evenodd" clip-rule="evenodd" d="M3095.85 3070.59C3095.85 3070.59 3068.46 3153.44 3053.76 3214.24C3039.21 3274.32 3010.93 3329.56 3027.9 3333.15C3051.61 3338.19 3105.71 3315.09 3105.71 3315.09C3105.71 3315.09 2997.4 3377.25 3000.88 3319.17C3011.99 3133.24 3095.85 3070.59 3095.85 3070.59Z" fill="#1172BA"/>
<path fill-rule="evenodd" clip-rule="evenodd" d="M3132.71 2229.82C3097.38 2279.99 3142.19 2352.98 3149.84 2409.09C3152.74 2430.4 3113.24 2371.99 3106.65 2411.01C3103.14 2431.85 3136.32 2502.13 3158.05 2481.64C3179.76 2461.14 3203.37 2520.16 3221.45 2533.69C3265.85 2566.9 3312.49 2593.78 3377.89 2589.89C3497.99 2582.75 3488.38 2441.89 3478.52 2339.7C3473.11 2283.67 3458.74 2239.94 3429.31 2210.02C3405.07 2185.38 3369.85 2170.91 3327.66 2159.49C3234.25 2134.22 3181.45 2160.6 3132.71 2229.82Z" fill="#FDBC8C"/>
<path fill-rule="evenodd" clip-rule="evenodd" d="M3463.03 2369.36C3465.1 2363.59 3472.2 2359.74 3480.17 2359.19C3483.09 2358.99 3482.49 2389.11 3482.49 2389.11C3481.36 2388.98 3479.79 2388.79 3478.66 2388.52C3467.2 2385.81 3460.19 2377.23 3463.03 2369.36Z" fill="#272361"/>
<path fill-rule="evenodd" clip-rule="evenodd" d="M3150.05 3275.95C3294.75 3387.11 3436.38 3189.83 3466.03 3018.96C3504.11 2799.39 3356.7 2771.87 3416.44 2671.4C3477.17 2569.26 3345.4 2432.09 3337.56 2361.36C3329.72 2290.62 3382.92 2332.48 3425.6 2313.57C3468.29 2294.64 3479.71 2284.98 3499.81 2246.9C3519.92 2208.82 3541.03 2133.4 3464.59 2136.21C3390.16 2138.95 3397.62 2099.22 3327.5 2108.54C3267.77 2116.49 3224.95 2066.74 3128.77 2147.53C3037.17 2224.48 3037.31 2351.77 3006.5 2418.82C2971.27 2495.51 2891.94 2464.36 2802.23 2581.68C2743.07 2659.04 2755.29 2755.59 2811.78 2844.2C2859.07 2918.4 2903.02 2997.21 2872.62 3059.25C2804.95 3197.3 3036.87 3188.99 3150.05 3275.95Z" fill="#272361"/>
<path fill-rule="evenodd" clip-rule="evenodd" d="M3451.58 2478.31C3452.13 2475.27 3459.76 2479.22 3468.65 2481.48C3475.79 2483.3 3480.32 2482.82 3480.32 2482.82C3480.32 2482.82 3480.2 2484.65 3479.05 2490.93C3477.89 2497.21 3476.4 2502.55 3476.4 2502.55C3460.1 2496.62 3449.8 2488.1 3451.58 2478.31Z" fill="#E0E0E0"/>
<path fill-rule="evenodd" clip-rule="evenodd" d="M3449.3 2325.48L3467.41 2320.15L3475.94 2317.61C3475.94 2317.61 3477.12 2317.19 3477.83 2324.06C3478.53 2330.79 3477.37 2330.75 3477.37 2330.75L3456.88 2336.76C3449.94 2338.8 3442.62 2337.93 3440.53 2334.81C3438.43 2331.7 3442.36 2327.52 3449.3 2325.48Z" fill="#272361"/>
<path fill-rule="evenodd" clip-rule="evenodd" d="M3261.07 5303.18C3261.07 5303.18 3230.3 5321.63 3251.02 5367.17C3252.61 5370.68 3255.34 5383.94 3257.54 5387.53C3257.54 5387.53 3263.04 5386.32 3310.03 5389.01C3316.4 5389.37 3314.4 5370.6 3321.33 5370.93C3330.24 5371.35 3363.31 5391.67 3371.52 5392.45C3416.82 5396.75 3431.95 5396.59 3462.21 5391.58C3475.88 5389.32 3477.93 5353.34 3450.65 5347.45C3422.57 5341.38 3415.16 5338.66 3381.61 5329.08C3348.06 5319.5 3317.97 5303.53 3317.97 5303.53C3317.97 5303.53 3302.42 5311.55 3288.01 5310.98C3273.6 5310.42 3261.07 5303.18 3261.07 5303.18Z" fill="#272361"/>
<path fill-rule="evenodd" clip-rule="evenodd" d="M1432.01 4835.64L1292.43 4933.58L1310.85 4982.07L1478.99 4915.24L1432.01 4835.64Z" fill="#FDBC8C"/>
<path fill-rule="evenodd" clip-rule="evenodd" d="M1499.57 5194.31L1516.87 5341.6L1571.98 5348.31L1585.76 5184.06L1499.57 5194.31Z" fill="#FDBC8C"/>
<path fill-rule="evenodd" clip-rule="evenodd" d="M1303.3 4925.11C1303.3 4925.11 1257.15 4903.67 1222.62 4957.95L1257.68 5037.71C1257.68 5037.71 1298.56 5143.35 1320.44 5173.36C1332.49 5189.9 1367.16 5166.74 1363.23 5142.25C1358.27 5111.36 1347.21 5098.07 1341.97 5055.54C1336.72 5013.01 1326.39 4975.68 1326.39 4975.68C1326.39 4975.68 1311.47 4966.04 1305.43 4951.89C1299.39 4937.75 1303.3 4925.11 1303.3 4925.11Z" fill="#272361"/>
<path fill-rule="evenodd" clip-rule="evenodd" d="M1514.94 5327.8C1514.94 5327.8 1471.63 5363.53 1502.39 5412.24L1601.34 5425.8C1601.34 5425.8 1702.43 5436.7 1740.77 5437.62C1770.21 5438.32 1764.28 5389.12 1740.57 5381.4C1716.85 5373.68 1683.27 5367.32 1655.15 5355.68C1627.74 5344.33 1573.5 5334.52 1573.5 5334.52C1573.5 5334.52 1556.57 5345.17 1536.89 5340.43C1522.48 5336.95 1514.94 5327.8 1514.94 5327.8Z" fill="#272361"/>
<path fill-rule="evenodd" clip-rule="evenodd" d="M1061.39 3756.87C1061.39 3756.87 989.135 4023.14 1116.4 4140.49C1209.59 4226.44 1656.67 4586.9 1702.48 4645.78C1732.15 4683.95 1621.7 4690.08 1541.63 4741.37C1461.56 4792.66 1397.49 4847.47 1397.49 4847.47C1397.49 4847.47 1405.61 4884.96 1418.76 4901.71C1431.9 4918.46 1448.45 4937.91 1448.45 4937.91C1448.45 4937.91 1676.28 4877.23 1779.49 4803.68C1882.7 4730.13 1951.18 4719.59 1911.26 4603.74C1837.74 4390.32 1341.15 3984.47 1341.15 3984.47C1341.15 3984.47 1370.05 4145.66 1393.06 4299.47C1396.87 4324.99 1402.59 4354.45 1408.93 4386C1424.45 4463.23 1443.71 4553.01 1447.97 4628.41C1461.13 4861.39 1438.21 5074.67 1491.31 5224.99C1491.31 5224.99 1515.89 5230.41 1540.96 5230C1566.04 5229.59 1592.56 5220.09 1592.56 5220.09C1603.78 5140.14 1621.73 5016.3 1614.48 4857.26C1607.23 4698.23 1630.14 4679.25 1621.14 4557.93C1614.43 4467.53 1639.48 4427.86 1632.76 4340.93C1624.08 4228.56 1633.17 4249.39 1623.39 4074.55C1615.58 3935.03 1533.1 3746.29 1533.1 3746.29L1061.39 3756.87Z" fill="#0081C3"/>
<path d="M1632.24 4245.5C1522.91 4139.65 1460.27 4076.91 1342.24 3979.5C1333.06 4139.92 1346.78 4233.29 1408.74 4388L1620.24 4570.5C1620.24 4570.5 1649.32 4476.55 1652.24 4416.5C1655.51 4349.34 1632.24 4245.5 1632.24 4245.5Z" fill="#0081C3"/>
<path d="M1617.74 4705C1555.51 4725.83 1519.2 4747.83 1452.24 4804V4940C1517.53 4920.94 1553.31 4908.65 1615.74 4884L1617.74 4705Z" fill="#0081C3"/>
<path fill-rule="evenodd" clip-rule="evenodd" d="M1153.59 2548.11C1153.59 2548.11 1167.97 2619.18 1167.97 2676.4C1167.97 2733.62 1156.04 2773.68 1156.04 2773.68C1156.04 2773.68 1142.23 2783.33 1122.53 2790.44C1102.84 2797.55 1076.9 2808.97 1076.9 2808.97C1076.9 2808.97 1171.29 2875.09 1262.29 2885.98C1353.29 2896.88 1441.27 2845.7 1441.27 2845.7C1426.24 2836.25 1404.73 2823.59 1382.44 2809.69C1360.16 2795.79 1342.36 2782.94 1338.94 2778.67C1320.31 2755.38 1323.53 2721.51 1321.95 2691.5C1317.9 2613.74 1348.26 2553.98 1348.26 2553.98L1153.59 2548.11Z" fill="#FDBC8C"/>
<path fill-rule="evenodd" clip-rule="evenodd" d="M1153.59 2548.11C1153.59 2548.11 1167.97 2619.18 1167.97 2676.4C1167.97 2733.62 1153.59 2777 1153.59 2777C1153.59 2777 1204.6 2724.84 1246.9 2708.91C1289.2 2692.99 1322.14 2669.76 1322.14 2669.76C1322.14 2669.76 1322.11 2645.81 1323.74 2630.04C1330.64 2563.35 1348.26 2553.98 1348.26 2553.98L1153.59 2548.11Z" fill="#DFA58B"/>
<path fill-rule="evenodd" clip-rule="evenodd" d="M1906.56 3493.23C1905.25 3495.85 1822.58 3478.54 1737.61 3475.91C1652.63 3473.26 1595.25 3475.51 1576.45 3475.37C1550.29 3475.18 1564.44 3442.4 1568.73 3418.57C1581.1 3349.77 1613.44 3307.18 1624.74 3226.54C1636.04 3145.89 1613.47 3119.39 1613.93 3095.98C1615.63 3007.71 1546.17 3083.9 1537.46 3084.36C1494.55 3086.62 1466.77 3341.22 1457.22 3427.37C1451.08 3482.77 1449.59 3545.33 1492.43 3553.55C1523.06 3559.42 1624.76 3563.34 1716.26 3559.76C1817.75 3555.78 1908.22 3543.92 1908.22 3543.92C1908.22 3543.92 1970.85 3578.24 2018.48 3582.88C2066.11 3587.53 2094.28 3592.81 2095.03 3584.63C2096.19 3572.04 2026.17 3561.75 2022.74 3556.22C2019.6 3551.15 2103.25 3566.3 2104.39 3551.42C2105.52 3536.53 2023.19 3536.56 2022.18 3531.29C2020.88 3524.52 2096.16 3534.5 2096.2 3519C2096.22 3509.22 2018.43 3508.05 2018.43 3508.05C2018.43 3508.05 2087.02 3496.43 2085.85 3489.27C2083.91 3477.42 2002.58 3490.13 1998.03 3487.04C1990.35 3481.81 1979.03 3483.65 1977.81 3477.5C1976.32 3470.02 2015.45 3461.7 2014.47 3455.18C2012.85 3444.61 1984.04 3451.67 1957.06 3461.18C1930.09 3470.69 1911.66 3482.93 1906.56 3493.23Z" fill="#FDBC8C"/>
<path fill-rule="evenodd" clip-rule="evenodd" d="M1127.46 2788.59C1127.46 2788.59 1165.76 2861.07 1242.77 2866.42C1308.63 2870.99 1365.53 2800.45 1365.53 2800.45C1365.53 2800.45 1424.83 2806.81 1522.99 2854.58C1612.06 2897.93 1631.62 3027.83 1631.62 3027.83C1631.62 3027.83 1652.97 3138.54 1637.75 3169.68C1637.75 3169.68 1616.12 3177.56 1584.63 3178.88C1553.12 3180.2 1516.52 3170.33 1516.52 3170.33C1516.52 3170.33 1533.08 3289.62 1553.12 3444.2C1584.86 3689.05 1600.55 3875.98 1600.55 3875.98C1600.55 3875.98 1447.67 3906.88 1335.63 3913.7C1223.59 3920.53 1037.48 3921.14 1037.48 3921.14C1037.48 3921.14 1019.17 3701.84 1000.8 3566.34C982.42 3430.84 1008.54 3442.39 974.753 3270.9C949.543 3142.94 882.519 3095.77 875.479 2985.04C868.589 2876.67 1127.46 2788.59 1127.46 2788.59Z" fill="#272361"/>
<path fill-rule="evenodd" clip-rule="evenodd" d="M1127.5 2788.32C1127.5 2788.32 1200.4 2855.05 1257.14 2854.71C1325.2 2854.28 1363.5 2797.6 1363.5 2797.6C1363.5 2797.6 1367.89 2796.8 1372.66 2799.64C1376.78 2802.09 1377.52 2806.43 1377.52 2806.43C1377.52 2806.43 1332.6 2868.9 1261.98 2869.69C1175.44 2870.65 1111.32 2793.12 1111.32 2793.12C1111.32 2793.12 1113.4 2790.32 1119.21 2788.42C1123.6 2786.99 1127.5 2788.32 1127.5 2788.32Z" fill="#1172BA"/>
<path fill-rule="evenodd" clip-rule="evenodd" d="M1107.28 3023.68C1113.02 2934.92 1083.33 2865.56 1029 2859.99C972.776 2854.22 938.55 2868.83 875.836 3034.85C862.081 3071.28 872.487 3136.95 873.741 3171.62C874.146 3183.01 887.814 3183.86 887.814 3183.86C892.799 3185.86 902.903 3223.21 947.623 3227.13C992.342 3231.04 1060.16 3216.86 1060.16 3216.86C1098.53 3182.44 1102.01 3105.13 1107.28 3023.68Z" fill="#135EAB"/>
<path fill-rule="evenodd" clip-rule="evenodd" d="M1237.93 3549.18L1238.03 3531.48C1238.05 3526.84 1242.13 3523.01 1247.12 3522.93L1691.92 3515.45C1696.91 3515.36 1702.65 3511.88 1704.73 3507.66L1921.96 3064.36C1924.04 3060.14 1935.49 3044.09 1940.33 3045.26L1978.54 3046.99C1983.38 3048.15 1976.5 3048.41 1974.57 3052.69L1762.13 3523.4C1760.19 3527.69 1762.67 3531.17 1767.67 3531.17L2265 3532.02C2270 3532.03 2273.2 3537.83 2273.12 3542.01C2273.03 3546.19 2269.69 3551.96 2264.69 3552L1246.93 3557.51C1241.93 3557.55 1237.9 3553.82 1237.93 3549.18Z" fill="#2BAAE2"/>
<path fill-rule="evenodd" clip-rule="evenodd" d="M1949.12 3067.35L1730.26 3503.75C1722.14 3519.93 1730.23 3533.02 1748.33 3533L2264.69 3532.44C2282.78 3532.41 2304.54 3519.56 2313.3 3503.73L2545.99 3083.01C2554.74 3067.19 2547.19 3053.95 2529.1 3053.45L1996.56 3038.95C1984.49 3038.62 1946 3038.41 1935.96 3046.95C1935.96 3046.95 1941.03 3049.49 1946.3 3053.57C1951.1 3057.28 1950.41 3064.78 1949.12 3067.35Z" fill="#4CC8ED"/>
<path fill-rule="evenodd" clip-rule="evenodd" d="M1345.92 3503.85C1344.74 3506.71 1256.28 3494.7 1166.5 3498.32C1076.72 3501.95 1016.39 3508.63 996.565 3509.9C968.983 3511.67 981.421 3476.06 984.151 3450.61C992.009 3377.14 1022.89 3329.81 1028.73 3243.95C1034.55 3158.07 1008.77 3131.85 1007.48 3107.13C1002.62 3013.94 935.145 3099.49 925.986 3100.64C880.932 3106.26 870.828 3376.75 867.256 3468.3C864.962 3527.15 868.113 3593.21 913.889 3598.65C946.623 3602.55 1054.13 3599 1150.31 3588.32C1257.01 3576.49 1351.5 3557.17 1351.5 3557.17C1351.5 3557.17 1420.1 3588.63 1470.66 3589.93C1521.22 3591.24 1551.32 3594.68 1551.5 3586.01C1551.77 3572.64 1477.18 3567.07 1473.15 3561.5C1469.46 3556.4 1558.78 3566.05 1558.86 3550.28C1558.93 3534.51 1472.14 3540.73 1470.67 3535.26C1468.8 3528.22 1548.9 3533.06 1547.77 3516.72C1547.07 3506.42 1464.98 3511.04 1464.98 3511.04C1464.98 3511.04 1536.41 3493.62 1534.63 3486.16C1531.69 3473.82 1446.91 3493.35 1441.87 3490.43C1433.4 3485.5 1421.6 3488.29 1419.85 3481.9C1417.71 3474.12 1458.34 3462.41 1456.8 3455.6C1454.31 3444.59 1424.47 3454.2 1396.74 3466.26C1369.02 3478.32 1350.52 3492.62 1345.92 3503.85Z" fill="#FDBC8C"/>
<path fill-rule="evenodd" clip-rule="evenodd" d="M1110.32 3034.94C1124.25 2940.2 1082.11 2862.55 1027.68 2857.97C1003.61 2855.94 962.815 2861.63 938.249 2883.75C913.388 2906.15 881.845 2919.64 868.812 3003.96C861.223 3053.02 854.064 3199.81 861.493 3213.86C861.493 3213.86 916.762 3220.68 966.085 3218.95C1015.42 3217.22 1058.81 3206.95 1058.81 3206.95C1091.01 3176.05 1105.99 3064.36 1110.32 3034.94Z" fill="#272361"/>
<path fill-rule="evenodd" clip-rule="evenodd" d="M1068.83 2316.71C1034.18 2365.92 1096.63 2473.44 1085.42 2471.45C1074.21 2469.46 1064.61 2434.24 1043.27 2473.67C1025.85 2505.86 1090.47 2575.32 1103.9 2549.26C1117.53 2522.8 1138.13 2601.47 1155.87 2614.74C1199.41 2647.32 1245.16 2673.68 1309.3 2669.86C1427.09 2662.86 1418.96 2523.6 1409.28 2423.37C1403.97 2368.41 1403.89 2316.46 1375.02 2287.1C1351.25 2262.93 1354.24 2249.96 1312.87 2238.77C1221.24 2213.98 1116.64 2248.81 1068.83 2316.71Z" fill="#FDBC8C"/>
<path fill-rule="evenodd" clip-rule="evenodd" d="M1112.82 2536.13C1112.82 2536.13 1140.35 2543.9 1125.41 2515.2C1109.95 2485.49 1096.36 2460.38 1093.73 2437.73C1092.07 2423.55 1089.58 2406.11 1100.11 2400.85C1110.63 2395.58 1137.37 2407.62 1144.03 2389.58C1152.15 2367.59 1118.5 2333.37 1141.89 2310.19C1170.54 2281.81 1216.61 2312.11 1262.81 2308.2C1309.01 2304.3 1343.65 2278.93 1361.2 2282.32C1373 2284.6 1383.72 2293.2 1388.02 2310.26C1391.35 2323.54 1389.31 2343.08 1392.59 2359.32C1393.95 2366.12 1400.21 2366.72 1403.28 2372.3C1405.38 2376.09 1404.27 2382.43 1405.34 2387.54C1408.39 2402.06 1407.32 2415.49 1408.21 2412.97C1409.7 2408.73 1404.69 2356.02 1399.6 2331.71C1392.95 2299.98 1381.96 2282.02 1370.98 2265.69C1360.01 2249.36 1332.95 2226.31 1308.24 2217.6C1277.27 2206.7 1243.64 2201.68 1210.35 2205.28C1160.23 2210.69 1131.07 2225.84 1104.01 2243.57C1068.68 2266.7 1057.14 2310.28 1054.19 2336.8C1052.15 2355.22 1066.85 2414.86 1081.75 2463.74C1091.95 2497.21 1112.82 2536.13 1112.82 2536.13Z" fill="#2E3690"/>
<path fill-rule="evenodd" clip-rule="evenodd" d="M1237.96 2460.84C1236.37 2452.34 1241.24 2444.75 1248.83 2443.89C1256.44 2443.04 1263.88 2449.25 1265.47 2457.76C1267.07 2466.27 1262.19 2473.85 1254.6 2474.7C1247 2475.56 1239.55 2469.35 1237.96 2460.84Z" fill="#272361"/>
<path fill-rule="evenodd" clip-rule="evenodd" d="M1355.71 2448.02C1354.02 2439.51 1359.2 2431.92 1367.27 2431.06C1375.34 2430.21 1383.25 2436.42 1384.94 2444.93C1386.63 2453.43 1381.46 2461.03 1373.39 2461.87C1365.31 2462.73 1357.39 2456.53 1355.71 2448.02Z" fill="#272361"/>
<path fill-rule="evenodd" clip-rule="evenodd" d="M1082.42 2459.24C1075.19 2460.57 1129.54 2591.45 1154.2 2612.16C1188.62 2641.09 1200.58 2650.86 1250.62 2664.68C1274.07 2671.17 1319.01 2676.94 1356.44 2659.2C1380.03 2648.02 1388.03 2631.78 1402.15 2597.61C1416.27 2563.45 1412.95 2522.53 1412.95 2522.53C1412.95 2522.53 1411.81 2547.11 1397.54 2554.24C1387.57 2559.23 1378.33 2538.09 1330.68 2539.6C1288.7 2540.92 1287.39 2541.75 1253.97 2551.23C1220.54 2560.7 1207.88 2572.48 1196.98 2577.5C1175.52 2587.38 1131.06 2533.32 1121.02 2509.37C1108.36 2479.18 1083.93 2458.97 1082.42 2459.24Z" fill="#2E3690"/>
<path fill-rule="evenodd" clip-rule="evenodd" d="M1262.1 2578.4C1263.09 2572.42 1296.17 2583.76 1322.75 2580.19C1349.35 2576.61 1362.11 2570.32 1364.25 2574.41C1365.65 2577.08 1355.25 2603.03 1328.66 2606.61C1302.08 2610.18 1260.79 2586.34 1262.1 2578.4Z" fill="#E0E0E0"/>
<path fill-rule="evenodd" clip-rule="evenodd" d="M1348.22 2382.92L1374.7 2383.41C1379.52 2383.5 1383.4 2386.43 1383.35 2389.96C1383.3 2393.5 1379.35 2396.29 1374.53 2396.2L1348.03 2395.71C1343.22 2395.62 1339.34 2392.69 1339.39 2389.15C1339.44 2385.61 1343.39 2382.83 1348.22 2382.92Z" fill="#272361"/>
<path fill-rule="evenodd" clip-rule="evenodd" d="M1226.21 2390.74L1252.46 2387.16C1257.24 2386.51 1261.52 2388.82 1262.01 2392.32C1262.5 2395.82 1259.03 2399.18 1254.25 2399.83L1228 2403.4C1223.21 2404.06 1218.94 2401.75 1218.45 2398.24C1217.96 2394.74 1221.43 2391.39 1226.21 2390.74Z" fill="#272361"/>
<path fill-rule="evenodd" clip-rule="evenodd" d="M1480.89 3028.35C1480.89 3028.35 1501.48 3112.85 1507.78 3155.83C1521.52 3249.59 1523.41 3405 1523.41 3405C1523.41 3405 1526.4 3302.95 1520.83 3225.75C1515.28 3148.56 1516.67 3158.92 1501.36 3096.39C1486.04 3033.87 1480.89 3028.35 1480.89 3028.35Z" fill="#135EAB"/>
<path fill-rule="evenodd" clip-rule="evenodd" d="M1483.96 5204.17C1482.65 5205.31 1479 5210.04 1480.95 5218.14C1482.9 5226.23 1491.78 5228.78 1491.78 5228.78C1491.78 5228.78 1506.62 5234.93 1544.27 5234.69C1578.87 5234.47 1592.07 5223.78 1592.07 5223.78C1592.07 5223.78 1600.47 5219.23 1601.28 5211.14C1602.09 5203.04 1594.38 5198.43 1594.38 5198.43C1594.38 5198.43 1577.24 5210.48 1542.93 5211.88C1504.92 5213.43 1485.37 5202.93 1483.96 5204.17Z" fill="#272361"/>
<path fill-rule="evenodd" clip-rule="evenodd" d="M1407.22 4833.89C1405.61 4833.24 1401.76 4831.21 1395.44 4836.63C1389.12 4842.05 1390.64 4849.72 1390.64 4849.72C1390.64 4849.72 1392.49 4872.15 1409.29 4903.35C1424.89 4932.29 1444.96 4944.34 1444.96 4944.34C1444.96 4944.34 1450.97 4947.87 1458.55 4944.91C1466.13 4941.94 1465.53 4934.3 1465.53 4934.3C1465.53 4934.3 1447.01 4923.87 1429.16 4890.99C1411.95 4859.28 1408.96 4834.58 1407.22 4833.89Z" fill="#272361"/>
<path fill-rule="evenodd" clip-rule="evenodd" d="M1571.34 3881.61C1571.34 3881.61 1584.62 3898.18 1515.44 3906.61C1446.28 3915.03 1292.22 3916.39 1292.22 3916.39L1571.34 3881.61Z" fill="#272361"/>
<path fill-rule="evenodd" clip-rule="evenodd" d="M1455.28 4944.31C1455.28 4944.31 1456.58 5028.96 1464.1 5093.95C1471.62 5158.94 1485.38 5204.27 1485.38 5204.27L1506.58 5210.37C1506.58 5210.37 1494.97 5175.37 1485.92 5103.72C1476.86 5032.07 1474.6 4927.83 1474.6 4927.83L1455.28 4944.31Z" fill="#272361"/>
<path fill-rule="evenodd" clip-rule="evenodd" d="M1454.69 4801.19L1468.62 4788.56C1468.62 4788.56 1459.37 4593.07 1444.04 4497.13C1425.16 4378.93 1519.91 4493.34 1569.83 4531.56C1608.52 4561.18 1623.57 4574 1623.57 4574L1409.91 4388.3C1409.91 4388.3 1433.7 4491.04 1444.14 4594.91C1454.57 4698.79 1454.69 4801.19 1454.69 4801.19Z" fill="#272361"/>
<path fill-rule="evenodd" clip-rule="evenodd" d="M1433.39 4052.82L1628.68 4242.54L1628.29 4221.07L1433.39 4052.82Z" fill="#272361"/>
</svg>
