<svg width="7826" height="6558" viewBox="0 0 7826 6558" fill="none" xmlns="http://www.w3.org/2000/svg">
<path d="M6116.11 394.312L7449.41 3242.44C7476.92 3301.22 7470.67 3370.26 7433.03 3423.13L5568.28 6043C5531.56 6094.58 5470.45 6123.08 5407.33 6118.05L2206.15 5862.86C2141.65 5857.72 2084.87 5818.36 2057.43 5759.76L720.551 2904.46C693.053 2845.73 699.272 2776.75 736.831 2723.89L2597.94 104.347C2634.72 52.5847 2696.04 24.0276 2759.33 29.1961L5967.74 291.224C6032.1 296.481 6088.72 335.82 6116.11 394.312Z" stroke="#E0E0E0" stroke-width="40" stroke-linejoin="round"/>
<path opacity="0.151982" fill-rule="evenodd" clip-rule="evenodd" d="M182.268 2923.91C469.672 2109.34 2043.19 2098.47 2113.47 1308.65C2182.79 529.494 3173.35 609.424 3753.51 930.092C4381.52 1277.21 6585.86 589.374 6511 1151.95C6436.15 1714.53 7484.03 1935.96 7549.78 2796.47C7615.1 3651.42 6651.77 4717.03 6857.06 5224.82C7040.74 5679.15 4668.46 5396.9 3681.26 5396.9C3056.29 5396.9 1665.81 5592.59 1472.65 5108.45C1060.36 4075.05 -152.193 3871.86 182.268 2923.91Z" fill="#4CC8ED"/>
<path opacity="0.42511" fill-rule="evenodd" clip-rule="evenodd" d="M6459.04 577.214C6436.78 577.753 6417.34 580.796 6404.89 584.657L6398.37 702.961C6344.71 704.376 6309.9 706.46 6263.06 725.865L6203.97 621.109C6152.39 634.741 6082.77 676.256 6058.61 715.25L6125.7 811.309C6092.92 840.634 6069.73 866.555 6047.2 904.618L5950.42 854.353C5920.04 888.128 5890.86 956.877 5894.23 990.618L5995.71 1025.18C5986.04 1063 5981.39 1102.79 5982.47 1143.77L5874.69 1161.9C5865.46 1200.78 5874.52 1276.85 5903.08 1315.42L6008.55 1280.95C6023.25 1321.1 6045.08 1361.5 6070.31 1394.94L5989.01 1476.94C6010.38 1511.51 6064.62 1564.03 6099.1 1581.21L6171.22 1489.07C6208.7 1514.46 6250.35 1533.99 6294.88 1546.47L6276.4 1653.99C6320.26 1673.23 6369.29 1679.73 6419.91 1671.08L6421.02 1562.05C6464.64 1560.9 6498.85 1556.92 6538.17 1543.67L6582.57 1641.87C6624.04 1640.89 6682.76 1610.66 6706.92 1578.57L6648.12 1489.28C6687.3 1462.77 6721.84 1429.91 6750.3 1392.23L6851.06 1450.48C6888.83 1424.15 6924.42 1354.23 6926.52 1313.46L6815.03 1269.34C6830.53 1222.92 6842.69 1191.01 6841.32 1139.21L6963.37 1122.17C6977.27 1072.57 6962.49 1005.66 6934.78 971.773L6817.18 1002.48C6804.89 963.521 6787.21 926.988 6765.1 893.781L6862.2 813.552C6838.38 753.806 6794.38 708.227 6748.1 690.874L6661.31 784.294C6627.51 758.85 6586.35 734.469 6545.94 719.909L6574.57 603.172C6541.1 582.397 6496.15 576.316 6459.04 577.214ZM6409.53 903.336C6537.41 899.964 6643.84 1001.74 6647.24 1130.64C6650.64 1259.55 6549.72 1366.8 6421.84 1370.16C6293.96 1373.54 6187.53 1271.76 6184.12 1142.86C6180.73 1013.95 6281.65 906.708 6409.53 903.336Z" fill="#2BAAE2"/>
<path opacity="0.42511" fill-rule="evenodd" clip-rule="evenodd" d="M5760.29 1186.98C5744.01 1183.12 5729.32 1181.61 5719.54 1182.03L5692.19 1266.7C5652.95 1257.47 5627.27 1252.33 5589.55 1257.47L5566.66 1170.09C5526.6 1170.14 5468.11 1186.98 5443.1 1210.67L5473.47 1293.25C5444.06 1308.28 5422.25 1322.67 5398.62 1346.01L5337.95 1291C5309.44 1309.72 5275.1 1354.07 5271.09 1379.21L5338.18 1423.72C5323.93 1449.33 5312.95 1477.33 5305.9 1507.3L5224.16 1499.86C5210.03 1526.33 5202.07 1583.31 5215.43 1616.77L5298.6 1611.9C5301.6 1643.88 5309.74 1677.39 5321.66 1706.49L5246.95 1750.49C5255.86 1779.68 5285.2 1828.2 5306.96 1847.26L5376.95 1794.14C5399.32 1819.74 5425.83 1841.88 5455.78 1859.45L5421.8 1934C5449.97 1956.36 5484.34 1970.46 5522.76 1973.85L5544.4 1894.89C5576.3 1902.39 5601.9 1906.04 5632.98 1903.94L5646.45 1983.73C5676.76 1990.95 5725.19 1980.22 5748.86 1961.54L5723.23 1885.46C5756.75 1873.69 5788.11 1856.43 5815.98 1834.52L5878.01 1896.08C5910.49 1884.17 5949.69 1840.21 5959.02 1811L5886.48 1757.65C5906.62 1726.9 5921.54 1706.05 5930.45 1668.17L6022.34 1679.13C6041.91 1645.77 6043.98 1594.35 6030.33 1564.45L5939.06 1564.27C5937.58 1533.63 5931.73 1503.72 5922.02 1475.37L6007.87 1435.68C6001.99 1387.74 5978.76 1346.22 5948.47 1324.78L5867.58 1376.03C5847.9 1351.09 5822.67 1325.52 5796.12 1307.22L5839.22 1227.92C5818.89 1206.43 5787.41 1193.42 5760.29 1186.98ZM5661.98 1414.34C5755.49 1436.34 5813.32 1530.59 5791.15 1624.85C5768.98 1719.11 5675.19 1777.7 5581.68 1755.7C5488.17 1733.7 5430.33 1639.45 5452.51 1545.19C5474.68 1450.93 5568.47 1392.34 5661.98 1414.34Z" fill="#2BAAE2"/>
<path opacity="0.42511" fill-rule="evenodd" clip-rule="evenodd" d="M1462.71 4804.18C1483.35 4828.7 1504.26 4847.8 1519.8 4858.3L1658.55 4759.18C1708.42 4818.18 1742.08 4855.41 1806.02 4890.56L1741.52 5051.19C1803.25 5096.86 1912.51 5137.69 1978.05 5129.75L2025.58 4967.96C2088.01 4978.4 2137.99 4981.13 2201.02 4972.18L2231.63 5126.11C2296.9 5129.84 2400.38 5100.76 2435.25 5066.62L2382.76 4921.54C2433.94 4898.37 2482.82 4867.8 2527.88 4829.72L2645.22 4934.46C2697.19 4909.84 2774.48 4831.22 2792.1 4764.45L2658.49 4677.01C2690.37 4624.36 2716.1 4563.48 2730.97 4505.07L2896.21 4522.6C2915.82 4467.49 2926.01 4359.32 2914.28 4305.14L2745.89 4307.02C2740.68 4242.08 2725.15 4177.73 2699.11 4116.5L2836.5 4040.51C2818.65 3973.93 2781.84 3913.01 2726.57 3863.94L2603.1 3960.79C2562.58 3912.84 2527.32 3877.99 2477.07 3845.76L2547.41 3707.53C2509 3661.83 2422.21 3623.07 2364.43 3624.81L2317.04 3771.19C2252.02 3751.03 2184.03 3741.81 2116.1 3743.74L2090.88 3578.16C2027.3 3559.42 1916.76 3582.37 1869.07 3616.69L1919.83 3781.59C1853.74 3805.95 1806.96 3821.03 1750.01 3869.17L1621.06 3747.42C1552.84 3776.42 1490.98 3853.22 1477.86 3914.85L1618.16 4019.29C1585.46 4068.16 1560.32 4120.88 1542.93 4175.61L1365.44 4138.72C1319.77 4219.24 1308.16 4309.66 1330.3 4377.25L1513.32 4390.68C1515.16 4451.53 1524.81 4519.71 1544.81 4578.19L1387.93 4651.06C1394.71 4707.35 1428.32 4763.31 1462.71 4804.18ZM1873.57 4566.37C1754.72 4425.77 1773.28 4214.66 1915.01 4094.86C2056.74 3975.06 2268 3991.92 2386.85 4132.52C2505.7 4273.12 2487.14 4484.23 2345.41 4604.03C2203.68 4723.83 1992.42 4706.97 1873.57 4566.37Z" fill="#2BAAE2"/>
<path opacity="0.42511" fill-rule="evenodd" clip-rule="evenodd" d="M2776.32 5040.39C2786.62 5062.14 2798.15 5080.01 2807.42 5090.6L2927.13 5045.15C2952.07 5097.53 2969.39 5131 3009.11 5168.75L2931.56 5273.07C2967.66 5318.02 3039.2 5368.57 3088.3 5375.32L3153.75 5266.92C3197.1 5286.44 3232.87 5297.97 3280.34 5303.53L3273.15 5421.16C3319.83 5436.35 3400.54 5435.01 3432.39 5416.88L3422 5301.49C3463.6 5294.46 3504.94 5281.6 3544.94 5262.56L3610.13 5361.05C3652.57 5353.11 3723.74 5310.79 3749.3 5265.67L3668.99 5176.63C3702.2 5144.49 3732.53 5105.21 3754.49 5065.62L3871.13 5109.95C3895.91 5073.67 3923.99 4997.07 3925.83 4955.48L3803.18 4924.66C3811.82 4876.51 3812.84 4826.8 3805.64 4777.35L3919.94 4748.45C3919.7 4696.69 3904.62 4645.4 3873.86 4599.2L3765.69 4645.93C3745.42 4603.37 3726.49 4571.32 3696.16 4538.3L3773.66 4451.37C3754.5 4410.85 3698.88 4366.1 3656.6 4356.32L3594.2 4453.56C3550.83 4426.5 3503.22 4406.81 3453.52 4395.22L3466.86 4270.16C3424.27 4244.39 3339.61 4239.92 3298.43 4255.72L3303.76 4385.18C3251.11 4390.24 3214.26 4392.24 3163.69 4416.31L3093.33 4303.25C3038.25 4311.27 2978.64 4355.22 2957.33 4397.46L3039.24 4500.13C3006.16 4529.36 2977.83 4562.85 2954.73 4599.25L2832.89 4538.54C2784.34 4588.29 2758.62 4651.73 2761.78 4705.04L2892.12 4749.78C2881.82 4794.32 2875.8 4845.68 2879.14 4891.97L2751.28 4914.9C2745.45 4957.07 2759.15 5004.13 2776.32 5040.39ZM3120.14 4946.24C3060.71 4821.41 3114.55 4671.65 3240.37 4611.75C3366.2 4551.84 3516.39 4604.48 3575.82 4729.3C3635.24 4854.12 3581.4 5003.89 3455.58 5063.79C3329.76 5123.69 3179.57 5071.06 3120.14 4946.24Z" fill="#2BAAE2"/>
<path opacity="0.42511" fill-rule="evenodd" clip-rule="evenodd" d="M7275.92 1368.86C7258.56 1363.28 7242.72 1360.39 7232.06 1360.02L7195.12 1449.71C7153.25 1436.34 7125.77 1428.57 7084.34 1430.93L7066.9 1334.02C7023.36 1330.65 6958.34 1343.98 6929.16 1367.61L6955.12 1459.95C6921.87 1473.79 6896.95 1487.56 6869.28 1510.92L6808.01 1445.96C6775.42 1463.88 6734.33 1509.16 6727.84 1536.15L6796.97 1590.23C6779.29 1616.86 6764.97 1646.36 6754.75 1678.33L6666.55 1663.29C6648.93 1690.86 6635.42 1752.11 6647.1 1789.61L6737.93 1791.4C6738.47 1826.41 6744.45 1863.53 6754.93 1896.18L6669.98 1937.65C6677.17 1970.13 6704.95 2025.35 6726.97 2047.93L6807.57 1996.15C6829.69 2025.89 6856.62 2052.21 6887.67 2073.86L6844.4 2151.99C6873.12 2178.7 6909.27 2196.94 6950.74 2203.9L6981 2119.92C7015.02 2130.79 7042.53 2136.94 7076.5 2137.29L7084.35 2225.18C7116.67 2235.6 7170.22 2228.07 7197.54 2209.78L7176.16 2124.9C7213.6 2114.97 7249.15 2098.87 7281.32 2077.42L7343.5 2149.62C7379.8 2139.45 7426.16 2095 7438.78 2064.04L7364.49 1999.88C7389 1968.18 7406.99 1946.78 7419.9 1906.37L7518.84 1926.1C7542.96 1891.51 7549.58 1835.81 7537.28 1802.14L7438.11 1794.17C7439.11 1760.74 7435.3 1727.73 7427.14 1696.1L7523.85 1660.26C7521.54 1607.65 7499.82 1560.56 7468.73 1534.66L7376.44 1583.48C7357.18 1554.7 7331.93 1524.75 7304.62 1502.6L7358.23 1420.08C7337.95 1395 7304.84 1378.17 7275.92 1368.86ZM7149.71 1607.62C7249.47 1639.49 7304.31 1746.86 7272.18 1847.42C7240.05 1947.99 7133.13 2003.68 7033.36 1971.81C6933.59 1939.93 6878.76 1832.56 6910.88 1732C6943.02 1631.44 7049.95 1575.74 7149.71 1607.62Z" fill="#2BAAE2"/>
<path opacity="0.42511" fill-rule="evenodd" clip-rule="evenodd" d="M5616.86 741.965C5607.89 731.609 5598.85 723.574 5592.16 719.176L5533.46 762.314C5511.82 737.4 5497.23 721.694 5469.71 707.05L5496.33 638.063C5469.71 618.915 5422.8 602.098 5394.85 605.873L5375.48 675.253C5348.75 671.157 5327.38 670.28 5300.52 674.463L5286.55 608.891C5258.65 607.674 5214.62 620.692 5199.92 635.475L5223.18 697.146C5201.45 707.337 5180.75 720.678 5161.72 737.206L5110.99 693.141C5088.94 703.955 5056.38 737.989 5049.23 766.609L5106.81 803.189C5093.5 825.862 5082.86 852.012 5076.85 877.051L5006.16 870.516C4998.11 894.169 4994.38 940.434 4999.69 963.51L5071.62 961.732C5074.21 989.442 5081.22 1016.84 5092.7 1042.85L5034.44 1076.1C5042.45 1104.43 5058.53 1130.24 5082.43 1150.89L5134.6 1108.8C5152.19 1129.05 5167.45 1143.73 5189.11 1157.21L5159.86 1216.66C5176.53 1235.96 5213.82 1252.02 5238.49 1250.94L5257.89 1188.14C5285.78 1196.37 5314.87 1199.91 5343.88 1198.7L5355.61 1269.29C5382.87 1276.92 5429.96 1266.49 5450.13 1251.55L5427.5 1181.4C5455.59 1170.61 5475.48 1163.91 5499.53 1143.01L5555.32 1194.28C5584.29 1181.49 5610.27 1148.33 5615.51 1121.93L5554.98 1078.13C5568.67 1057.07 5579.1 1034.4 5586.22 1010.92L5662.24 1025.66C5681.29 990.999 5685.73 952.308 5675.88 923.565L5597.62 918.885C5596.49 892.9 5591.97 863.837 5583.09 838.971L5649.68 806.937C5646.46 782.933 5631.78 759.224 5616.86 741.965ZM5442.72 845.916C5494.3 905.288 5487.59 995.574 5427.75 1047.56C5367.9 1099.55 5277.56 1093.57 5225.98 1034.2C5174.41 974.827 5181.11 884.542 5240.96 832.552C5300.81 780.562 5391.15 786.544 5442.72 845.916Z" fill="#2BAAE2"/>
<path fill-rule="evenodd" clip-rule="evenodd" d="M3767.66 1937.45C3767.66 1937.45 3697.29 1935.47 3696.36 1858.69C3695.44 1783.11 3767.97 1779.14 3767.97 1779.14L3946.6 1780.41C3946.6 1780.41 4023.75 1776.82 4022.73 1863.53C4021.82 1939.55 3942.27 1944.84 3942.27 1944.84L3865.27 1944.3C3857.4 1944.24 3845.91 1949.26 3839.63 1955.51L3779.54 2015.25C3773.49 2021.27 3771.2 2018.82 3774.42 2009.8L3794.25 1954.29C3796.87 1946.93 3794 1940.53 3787.83 1939.99L3767.66 1937.45Z" fill="#4CC8ED"/>
<path fill-rule="evenodd" clip-rule="evenodd" d="M3921.3 1860.54C3921.3 1848.95 3930.55 1839.56 3941.97 1839.56C3953.39 1839.56 3962.64 1848.95 3962.64 1860.54C3962.64 1872.13 3953.39 1881.53 3941.97 1881.53C3930.55 1881.53 3921.3 1872.13 3921.3 1860.54Z" fill="white"/>
<path fill-rule="evenodd" clip-rule="evenodd" d="M3841.79 1860.54C3841.79 1848.95 3851.05 1839.56 3862.46 1839.56C3873.88 1839.56 3883.13 1848.95 3883.13 1860.54C3883.13 1872.13 3873.88 1881.53 3862.46 1881.53C3851.05 1881.53 3841.79 1872.13 3841.79 1860.54Z" fill="white"/>
<path fill-rule="evenodd" clip-rule="evenodd" d="M3761.27 1860.54C3761.27 1848.95 3770.52 1839.56 3781.94 1839.56C3793.36 1839.56 3802.61 1848.95 3802.61 1860.54C3802.61 1872.13 3793.36 1881.53 3781.94 1881.53C3770.52 1881.53 3761.27 1872.13 3761.27 1860.54Z" fill="white"/>
<path fill-rule="evenodd" clip-rule="evenodd" d="M2850.27 1466.4L2871.55 1565.8L2538.95 1609.17L2850.27 1466.4Z" fill="#0081C3"/>
<path fill-rule="evenodd" clip-rule="evenodd" d="M2842.95 1427.18L2856.29 1490.22L2647 1557.9L2842.95 1427.18Z" fill="#1172BA"/>
<path fill-rule="evenodd" clip-rule="evenodd" d="M2793.2 1384.51L2843.19 1427.84L2665.81 1548.02L2895.49 1460.32L2957.64 1498.82L2524.69 1613.36L2793.2 1384.51Z" fill="#2BAAE2"/>
<path fill-rule="evenodd" clip-rule="evenodd" d="M2458.99 4103.02L2214.39 4070.82C2208.11 4070 2201.06 4064.59 2198.63 4058.74L2104.21 3830.81C2101.78 3824.96 2102.95 3816.15 2106.8 3811.13L2256.97 3615.39C2260.83 3610.37 2269.05 3606.96 2275.33 3607.79L2519.93 3639.98C2526.21 3640.81 2533.25 3646.21 2535.68 3652.07L2630.11 3879.99C2632.53 3885.84 2631.37 3894.65 2627.51 3899.68L2477.33 4095.41C2473.49 4100.44 2465.27 4103.84 2458.99 4103.02Z" stroke="#2BAAE2" stroke-opacity="0.138889" stroke-width="15.78" stroke-linecap="round" stroke-linejoin="round"/>
<path fill-rule="evenodd" clip-rule="evenodd" d="M2011.02 2657.07L1828.11 2632.99C1823.41 2632.38 1818.14 2628.33 1816.33 2623.96L1745.71 2453.52C1743.9 2449.15 1744.77 2442.56 1747.66 2438.8L1859.95 2292.43C1862.84 2288.68 1868.98 2286.13 1873.67 2286.75L2056.58 2310.82C2061.28 2311.44 2066.55 2315.48 2068.36 2319.86L2138.97 2490.29C2140.78 2494.67 2139.91 2501.26 2137.03 2505.02L2024.73 2651.38C2021.85 2655.14 2015.71 2657.68 2011.02 2657.07Z" stroke="#2BAAE2" stroke-opacity="0.138889" stroke-width="15.78" stroke-linecap="round" stroke-linejoin="round"/>
<path fill-rule="evenodd" clip-rule="evenodd" d="M566.795 3350.98L432.794 3274.9C429.35 3272.95 426.54 3268.17 426.516 3264.21L425.389 3110.12C425.365 3106.17 428.103 3101.34 431.517 3099.34L564.398 3021.32C567.811 3019.32 573.367 3019.28 576.804 3021.23L710.812 3097.31C714.249 3099.26 717.059 3104.04 717.091 3108L718.21 3262.09C718.241 3266.05 715.495 3270.87 712.09 3272.87L579.201 3350.89C575.788 3352.89 570.24 3352.94 566.795 3350.98Z" stroke="#2BAAE2" stroke-opacity="0.138889" stroke-width="15.78" stroke-linecap="round" stroke-linejoin="round"/>
<path fill-rule="evenodd" clip-rule="evenodd" d="M3214.3 2209.06L2925.47 2108.06C2918.05 2105.47 2910.86 2097.12 2909.4 2089.4L2852.44 1788.77C2850.98 1781.06 2854.63 1770.65 2860.58 1765.52L3092.45 1565.89C3098.4 1560.76 3109.24 1558.72 3116.65 1561.3L3405.48 1662.29C3412.89 1664.89 3420.08 1673.24 3421.55 1680.96L3478.5 1981.59C3479.96 1989.3 3476.33 1999.71 3470.38 2004.84L3238.5 2204.47C3232.54 2209.6 3221.72 2211.64 3214.3 2209.06Z" stroke="#2BAAE2" stroke-opacity="0.138889" stroke-width="15.78" stroke-linecap="round" stroke-linejoin="round"/>
<path opacity="0.196035" fill-rule="evenodd" clip-rule="evenodd" d="M4301.16 2324.11C4242.89 2324.11 4194.49 2362.31 4188.01 2412.19C4182.48 2411.29 4176.9 2410.68 4171.28 2410.68C4123.77 2410.68 4084.77 2441.84 4084.77 2481.07C4084.77 2517.27 4118.15 2547.02 4161.39 2551.02C4161.39 2551.02 4171.35 2552.13 4175.16 2552.54C4186.04 2553.68 4197.86 2554.83 4210.18 2555.91C4228.08 2557.47 4245.52 2558.72 4261.95 2559.58C4277.31 2560.38 4291.38 2560.82 4303.87 2560.82C4335.25 2560.82 4365.49 2559.46 4406.16 2556.71C4410.74 2556.39 4435.82 2554.65 4442.3 2554.22C4488.7 2551.35 4525.22 2519.33 4525.22 2480.03C4525.22 2451.44 4505.71 2426.15 4475.94 2413.68C4472.76 2387.43 4447.98 2367.32 4418.22 2367.32C4411.18 2367.32 4404.31 2368.52 4397.8 2370.72C4377.11 2341.99 4340.93 2324.11 4301.16 2324.11Z" fill="#2BAAE2" fill-opacity="0.0631313" stroke="#2BAAE2" stroke-width="15.22" stroke-linecap="round" stroke-linejoin="round"/>
<path opacity="0.196035" fill-rule="evenodd" clip-rule="evenodd" d="M2120.31 1034.93C2062.03 1034.93 2013.64 1073.13 2007.15 1123.01C2001.62 1122.11 1996.05 1121.5 1990.43 1121.5C1942.91 1121.5 1903.91 1152.65 1903.91 1191.89C1903.91 1228.09 1937.29 1257.84 1980.54 1261.84C1980.54 1261.84 1990.49 1262.95 1994.3 1263.35C2005.18 1264.5 2017 1265.65 2029.32 1266.72C2047.23 1268.29 2064.67 1269.54 2081.09 1270.4C2096.45 1271.2 2110.52 1271.64 2123.01 1271.64C2154.39 1271.64 2184.63 1270.27 2225.3 1267.52C2229.88 1267.21 2254.96 1265.46 2261.44 1265.04C2307.84 1262.16 2344.37 1230.15 2344.37 1190.85C2344.37 1162.26 2324.85 1136.97 2295.08 1124.5C2291.91 1098.24 2267.12 1078.14 2237.36 1078.14C2230.32 1078.14 2223.45 1079.33 2216.95 1081.54C2196.25 1052.81 2160.07 1034.93 2120.31 1034.93Z" fill="#2BAAE2" fill-opacity="0.0631313" stroke="#2BAAE2" stroke-width="15.22" stroke-linecap="round" stroke-linejoin="round"/>
<path opacity="0.196035" fill-rule="evenodd" clip-rule="evenodd" d="M617.166 2049.95C558.889 2049.95 510.494 2088.15 504.001 2138.03C498.477 2137.14 492.905 2136.52 487.285 2136.52C439.772 2136.52 400.767 2167.67 400.768 2206.91C400.767 2243.11 434.144 2272.86 477.387 2276.86C477.387 2276.86 487.341 2277.97 491.159 2278.37C502.041 2279.52 513.86 2280.67 526.179 2281.75C544.078 2283.3 561.524 2284.56 577.947 2285.41C593.306 2286.22 607.371 2286.66 619.865 2286.66C651.249 2286.66 681.491 2285.29 722.163 2282.54C726.743 2282.23 751.817 2280.48 758.302 2280.06C804.696 2277.18 841.225 2245.16 841.225 2205.87C841.225 2177.28 821.706 2151.99 791.933 2139.52C788.766 2113.26 763.977 2093.15 734.212 2093.16C727.179 2093.16 720.313 2094.35 713.805 2096.56C693.112 2067.83 656.925 2049.95 617.166 2049.95Z" fill="#2BAAE2" fill-opacity="0.0631313" stroke="#2BAAE2" stroke-width="15.22" stroke-linecap="round" stroke-linejoin="round"/>
<path opacity="0.196035" fill-rule="evenodd" clip-rule="evenodd" d="M3044.87 3334.04C2986.59 3334.04 2938.2 3372.25 2931.71 3422.13C2926.18 3421.23 2920.61 3420.61 2914.99 3420.61C2867.48 3420.61 2828.47 3451.76 2828.47 3491.01C2828.47 3527.2 2861.86 3556.95 2905.09 3560.95C2905.09 3560.95 2915.05 3562.06 2918.86 3562.47C2929.75 3563.62 2941.56 3564.77 2953.88 3565.84C2971.78 3567.4 2989.23 3568.65 3005.65 3569.52C3021.01 3570.32 3035.08 3570.75 3047.57 3570.75C3078.95 3570.75 3109.2 3569.39 3149.87 3566.63C3154.45 3566.32 3179.52 3564.58 3186.01 3564.16C3232.4 3561.28 3268.93 3529.26 3268.93 3489.97C3268.93 3461.38 3249.41 3436.09 3219.64 3423.61C3216.47 3397.35 3191.68 3377.26 3161.92 3377.26C3154.88 3377.26 3148.02 3378.45 3141.51 3380.65C3120.82 3351.93 3084.64 3334.04 3044.87 3334.04Z" fill="#2BAAE2" fill-opacity="0.0631313" stroke="#2BAAE2" stroke-width="15.22" stroke-linecap="round" stroke-linejoin="round"/>
<path fill-rule="evenodd" clip-rule="evenodd" d="M1797.3 1665.69L1777.16 1626.48L1810.33 1626.25C1830.44 1626.12 1846.5 1609.87 1846.21 1589.96L1844.65 1483.57C1844.31 1459.33 1824.18 1439.69 1799.7 1439.69H1592.16C1571.31 1439.69 1554.83 1456.43 1555.34 1477.07L1558.06 1585.43C1558.62 1607.86 1577.44 1626.14 1600.09 1626.28L1715.69 1627.32L1797.3 1665.69Z" fill="#2BAAE2"/>
<path fill-rule="evenodd" clip-rule="evenodd" d="M1639.81 1559.71C1626.13 1559.63 1615.23 1548.04 1615.47 1533.82L1615.5 1531.75C1615.79 1514.5 1629.48 1500.51 1646.08 1500.51H1690.8C1707.02 1500.51 1719.77 1514.17 1719.3 1531.01L1719.29 1531.32C1718.85 1546.92 1706.31 1559.66 1691.29 1559.77L1665.09 1559.95C1663.47 1559.97 1660.99 1560.57 1659.54 1561.31L1636.49 1569.92C1633.34 1571.11 1632.42 1569.88 1634.45 1567.18L1640.02 1559.78C1640.04 1559.74 1640.03 1559.71 1639.99 1559.71H1639.81Z" fill="#E0E0E0"/>
<path fill-rule="evenodd" clip-rule="evenodd" d="M1751.39 1523.52V1512.93C1759.99 1511.94 1766.15 1508.77 1769.88 1503.43H1781.05V1555.6H1765.99V1518.67C1762.95 1520.72 1758.09 1522.34 1751.39 1523.52Z" fill="#E0E0E0"/>
<path d="M2888.65 1427.69C2888.65 1427.69 3175.06 1173.95 3519.32 1246.56C3863.58 1319.18 3935.88 1696.73 4223.78 1922.9C4511.7 2149.07 4797.92 2279.63 4771.67 2665.34C4737.88 3161.87 3884.57 2712.42 3698.04 3048.42C3511.51 3384.42 4081.92 3557.52 4081.92 3557.52" stroke="#2BAAE2" stroke-opacity="0.237374" stroke-width="15.22" stroke-linecap="round" stroke-linejoin="round" stroke-dasharray="50 50 50 50"/>
<path fill-rule="evenodd" clip-rule="evenodd" d="M0.257812 5433.86C0.257812 5372.15 1543.95 5322.13 3448.21 5322.13C5352.45 5322.13 6896.15 5372.15 6896.15 5433.86C6896.15 5495.56 5352.45 5545.58 3448.21 5545.58C1543.95 5545.58 0.257812 5495.56 0.257812 5433.86Z" fill="#E0E0E0"/>
<path fill-rule="evenodd" clip-rule="evenodd" d="M5131.97 4617.67L5988.3 4624.99C5988.3 4624.99 6026.25 4814.77 6060.21 4990.58C6094.18 5166.37 6090.61 5247.94 6036.67 5313.37C5982.73 5378.79 5831.6 5398.58 5831.6 5398.58L4654.51 5396.3L4657.8 5342.17C4657.8 5342.17 5152.13 5352.05 5253.12 5214.32C5354.13 5076.59 5131.97 4617.67 5131.97 4617.67Z" fill="#1172BA"/>
<path fill-rule="evenodd" clip-rule="evenodd" d="M5073.07 4614L5929.39 4621.32C5929.39 4621.32 5967.35 4811.1 6001.31 4986.91C6035.27 5162.71 6031.71 5244.27 5977.76 5309.7C5923.83 5375.13 5772.7 5394.91 5772.7 5394.91L4595.61 5392.64L4598.89 5338.5C4598.89 5338.5 5093.22 5348.38 5194.23 5210.65C5295.22 5072.92 5073.07 4614 5073.07 4614Z" fill="#2BAAE2"/>
<path opacity="0.947137" fill-rule="evenodd" clip-rule="evenodd" d="M5217.27 5048.14L6010.31 5239.62C6010.31 5239.62 6022.71 5222.77 6023.76 5160.71C6024.67 5106.65 6012.53 5053.04 6012.53 5053.04L5151.07 4801.54C5151.07 4801.54 5175.95 4867.16 5192.88 4928.66C5209.81 4990.17 5217.27 5048.14 5217.27 5048.14Z" fill="#4CC8ED"/>
<path fill-rule="evenodd" clip-rule="evenodd" d="M915.9 4327.75C915.9 4327.75 1059.12 4434.36 1123.28 4629.01C1137.28 4671.46 1138.42 5326.72 1138.42 5326.72L976.058 5334.79C946.888 5336.23 923.409 5361.08 923.616 5390.29L923.655 5395.14L1396.67 5393.76L1396.7 5377.22C1396.73 5356.56 1380.04 5338.67 1359.42 5337.27L1196.01 5325.25L1199.35 5060.87C1199.35 5060.87 1219.89 5063.48 1247.75 5060.31C1280.44 5056.6 1328.89 5035.32 1241.8 5032.83L1199.31 5025.16C1201.32 4883.65 1203.63 4662.25 1212.56 4629.97C1254.27 4479.17 1436.79 4325.11 1436.79 4325.11L915.9 4327.75Z" fill="#828282"/>
<path fill-rule="evenodd" clip-rule="evenodd" d="M811.118 4034.8H1520.7C1565.49 4034.8 1601.79 4071.12 1601.79 4115.9V4252.8C1601.79 4297.58 1565.49 4333.89 1520.7 4333.89H811.118C766.335 4333.89 730.021 4297.58 730.021 4252.8V4115.9C730.021 4071.12 766.335 4034.8 811.118 4034.8Z" fill="#2BAAE2"/>
<path fill-rule="evenodd" clip-rule="evenodd" d="M811.118 4034.8C811.118 4034.8 818.032 4181.78 851.702 4256.55C863.624 4283.02 879.872 4307.47 907.082 4315.99C956.731 4331.55 945.801 4333.89 945.801 4333.89H811.118C766.335 4333.89 730.021 4297.58 730.021 4252.8V4115.9C730.021 4071.12 766.335 4034.8 811.118 4034.8Z" fill="#135EAB"/>
<path fill-rule="evenodd" clip-rule="evenodd" d="M4277.69 1820.47L7785.05 1778.99C7804.25 1778.99 7817.27 1811.72 7824.26 1876.2C7831.24 1940.69 7813.06 2036.92 7813.06 2036.92L7309.52 4689.34C7302.97 4722.71 7270.06 4749.68 7236.01 4749.59L3759.48 4663.05C3700.64 4653.63 3676.57 4598.18 3677.11 4557.25L3707.27 4419.07L4204.53 1940.18C4218.98 1885.24 4251.54 1820.47 4277.69 1820.47Z" fill="#1172BA"/>
<path fill-rule="evenodd" clip-rule="evenodd" d="M4269.7 1821.8L4315.31 1821.24L7788.94 1778.99C7804.81 1778.99 7795.76 1885.51 7775.28 1984.91C7745.28 2131.16 7270.15 4633.43 7270.15 4633.43C7263.68 4666.46 7229.68 4691.77 7196.01 4691.69L3740.4 4625.9C3706.74 4625.81 3671.74 4585.65 3678.15 4552.61L4212.51 1913.57C4220.16 1875.48 4269.7 1821.8 4269.7 1821.8Z" fill="#4CC8ED"/>
<path fill-rule="evenodd" clip-rule="evenodd" d="M7034.04 4689.82L7178.62 4693.19C7269.05 4690.1 7267.39 4672.45 7293.31 4523.52L7310.35 4415.84L6352.3 4157.06L4909.95 4134.36L7034.04 4689.82Z" fill="#2BAAE2"/>
<path fill-rule="evenodd" clip-rule="evenodd" d="M7790.36 1778.99L7310.29 4172.77C7307.96 4184.41 7296.45 4193.62 7284.59 4193.35L3797.99 4113.72L4263.05 1821.01L4316.6 1820.37L7790.36 1778.99Z" fill="#135EAB"/>
<path fill-rule="evenodd" clip-rule="evenodd" d="M7684.4 1863.73L7235.73 4077.24C7233 4090.72 7219.64 4101.38 7205.89 4101.04L3942.8 4024.11C3921.91 4023.62 3908.24 4006.6 3912.27 3986.09L4322.91 1894.8L7684.4 1863.73Z" fill="white"/>
<path fill-rule="evenodd" clip-rule="evenodd" d="M7685.51 1860.03L7637.57 2074.36L4281.67 2078.5L4318.91 1890.96L7685.51 1860.03Z" fill="#0081C3"/>
<path fill-rule="evenodd" clip-rule="evenodd" d="M4398.41 2406.94L7365.26 2411.75C7369.58 2411.75 7372.29 2415.16 7371.31 2419.37L7338.85 2559.19C7337.87 2563.39 7333.59 2566.79 7329.27 2566.79L4357.55 2564.55C4353.24 2564.55 4350.62 2561.16 4351.7 2556.98L4388.64 2414.48C4389.72 2410.31 4394.1 2406.93 4398.41 2406.94Z" fill="#135EAB"/>
<path fill-rule="evenodd" clip-rule="evenodd" d="M5015.39 2772.66L4934.72 3188.99C4933.54 3195.06 4926.13 3199.98 4918.17 3199.98H4239.1C4231.14 3199.98 4225.63 3195.06 4226.8 3188.99L4306.93 2772.66C4308.09 2766.59 4315.5 2761.66 4323.46 2761.66H5003.1C5011.07 2761.66 5016.57 2766.59 5015.39 2772.66Z" fill="#4CC8ED"/>
<path fill-rule="evenodd" clip-rule="evenodd" d="M6753.65 2919.1H7275.56C7276.82 2919.1 7277.62 2919.74 7277.35 2920.54L7261.89 2966.62C7261.62 2967.42 7260.39 2968.07 7259.13 2968.08L6733.72 2969.99C6732.47 2970 6731.7 2969.36 6732.01 2968.57L6750.82 2920.52C6751.13 2919.74 6752.4 2919.1 6753.65 2919.1Z" fill="#135EAB"/>
<path fill-rule="evenodd" clip-rule="evenodd" d="M6138.66 2917.18C6168.81 2811.6 6281.92 2743.62 6391.3 2765.35C6500.67 2787.08 6568.03 2891.07 6534.75 2995.87C6509.34 3075.87 6432.17 3142.64 6336.39 3138.49L6334.48 3002.92C6334.48 3002.92 6407 2994.44 6415.21 2940.52C6419.19 2914.4 6396.5 2883.09 6360.05 2874.65C6313.15 2863.78 6276.13 2885.73 6265.69 2918.56C6249.79 2968.59 6302.78 2998.84 6302.78 2998.84C6302.78 2998.84 6252.18 3135.23 6242.45 3131.65C6152.05 3098.41 6111.45 3012.5 6138.66 2917.18Z" fill="#272361"/>
<path fill-rule="evenodd" clip-rule="evenodd" d="M5732.96 2779.11L5951.26 2779.51C5955.11 2779.52 5957.48 2782.55 5956.54 2786.29L5855.62 3189.37C5854.69 3193.11 5850.8 3196.14 5846.95 3196.14H5632.31C5628.45 3196.14 5626.06 3193.1 5626.97 3189.35L5724.34 2785.88C5725.24 2782.14 5729.1 2779.1 5732.96 2779.11Z" fill="#2BAAE2"/>
<path fill-rule="evenodd" clip-rule="evenodd" d="M6727.93 3006.27H7249.85C7251.09 3006.27 7251.89 3006.91 7251.62 3007.72L7236.16 3053.8C7235.89 3054.59 7234.66 3055.24 7233.41 3055.24L6708 3057.17C6706.74 3057.17 6705.98 3056.53 6706.29 3055.75L6725.1 3007.7C6725.41 3006.91 6726.67 3006.27 6727.93 3006.27Z" fill="#135EAB"/>
<path fill-rule="evenodd" clip-rule="evenodd" d="M6702.2 3092.02H7224.12C7225.37 3092.02 7226.17 3092.66 7225.9 3093.46L7210.44 3139.55C7210.17 3140.34 7208.94 3140.99 7207.68 3140.99L6682.27 3142.91C6681.02 3142.91 6680.25 3142.28 6680.56 3141.49L6699.37 3093.45C6699.68 3092.66 6700.95 3092.02 6702.2 3092.02Z" fill="#135EAB"/>
<path fill-rule="evenodd" clip-rule="evenodd" d="M6645.04 3364.98H7166.95C7168.2 3364.98 7169 3365.63 7168.73 3366.42L7153.27 3412.51C7153 3413.3 7151.77 3413.95 7150.52 3413.96L6625.1 3415.87C6623.85 3415.88 6623.09 3415.24 6623.4 3414.45L6642.21 3366.41C6642.52 3365.62 6643.78 3364.98 6645.04 3364.98Z" fill="#135EAB"/>
<path fill-rule="evenodd" clip-rule="evenodd" d="M6620.74 3455.01H7142.66C7143.91 3455.01 7144.71 3455.66 7144.44 3456.45L7128.98 3502.54C7128.71 3503.34 7127.48 3503.98 7126.23 3503.99L6600.81 3505.9C6599.56 3505.91 6598.79 3505.28 6599.1 3504.48L6617.91 3456.45C6618.22 3455.65 6619.49 3455.01 6620.74 3455.01Z" fill="#135EAB"/>
<path fill-rule="evenodd" clip-rule="evenodd" d="M6592.16 3549.34H7114.08C7115.33 3549.34 7116.12 3549.98 7115.86 3550.77L7100.39 3596.86C7100.12 3597.66 7098.89 3598.31 7097.65 3598.31L6572.23 3600.23C6570.98 3600.23 6570.21 3599.6 6570.52 3598.8L6589.33 3550.77C6589.64 3549.97 6590.9 3549.34 6592.16 3549.34Z" fill="#135EAB"/>
<path fill-rule="evenodd" clip-rule="evenodd" d="M4203.32 3279.09L5833.14 3282.18C5834.18 3282.18 5834.78 3282.99 5834.49 3283.99L5817.22 3341.89C5816.92 3342.89 5815.83 3343.71 5814.79 3343.71L4183.75 3349.95C4182.71 3349.96 4182.09 3349.14 4182.37 3348.13L4200.93 3280.91C4201.21 3279.9 4202.28 3279.09 4203.32 3279.09Z" fill="#135EAB"/>
<path fill-rule="evenodd" clip-rule="evenodd" d="M5441.1 2779.11L5659.41 2779.51C5663.27 2779.52 5665.63 2782.55 5664.69 2786.29L5563.77 3189.37C5562.83 3193.11 5558.95 3196.14 5555.1 3196.14H5340.46C5336.61 3196.14 5334.21 3193.1 5335.12 3189.35L5432.49 2785.88C5433.39 2782.14 5437.25 2779.1 5441.1 2779.11Z" fill="#2BAAE2"/>
<path fill-rule="evenodd" clip-rule="evenodd" d="M5148.15 2779.11L5366.45 2779.51C5370.3 2779.52 5372.67 2782.55 5371.74 2786.29L5270.81 3189.37C5269.88 3193.11 5266 3196.14 5262.14 3196.14H5047.5C5043.64 3196.14 5041.25 3193.1 5042.16 3189.35L5139.53 2785.88C5140.43 2782.14 5144.29 2779.1 5148.15 2779.11Z" fill="#2BAAE2"/>
<path fill-rule="evenodd" clip-rule="evenodd" d="M4181.94 3395.54L5811.74 3398.62C5812.79 3398.62 5813.4 3399.43 5813.09 3400.43L5795.84 3458.34C5795.54 3459.34 5794.45 3460.15 5793.4 3460.15L4853.22 3463.75L4162.37 3466.39C4161.32 3466.4 4160.7 3465.58 4160.98 3464.57L4179.54 3397.35C4179.82 3396.35 4180.89 3395.54 4181.94 3395.54Z" fill="#135EAB"/>
<path fill-rule="evenodd" clip-rule="evenodd" d="M4170.05 3526.24L5799.86 3529.32C5800.91 3529.32 5801.51 3530.14 5801.21 3531.14L5783.96 3589.03C5783.65 3590.03 5782.57 3590.85 5781.52 3590.86L4841.34 3594.45L4150.49 3597.09C4149.44 3597.1 4148.82 3596.29 4149.1 3595.28L4167.66 3528.06C4167.94 3527.05 4169.01 3526.23 4170.05 3526.24Z" fill="#135EAB"/>
<path fill-rule="evenodd" clip-rule="evenodd" d="M6032.54 3396.7C6054.86 3282.64 6162.66 3208.06 6273.31 3230.12C6383.96 3252.2 6455.58 3362.56 6433.26 3476.63C6415.53 3567.21 6343.91 3632.89 6259.77 3645.05C6257.46 3645.38 6244.02 3639.8 6246.03 3632.15C6262.39 3569.98 6261.15 3538.85 6250.22 3536.45C6248.98 3536.18 6319.95 3543.04 6343.94 3500.09C6382.94 3430.32 6352.76 3394 6352.76 3394C6352.76 3394 6359.66 3376.43 6361.49 3362.58C6363.31 3348.73 6360.06 3338.6 6360.06 3338.6C6360.06 3338.6 6347.9 3336.42 6332.85 3338.81C6317.81 3341.21 6302.28 3348.37 6302.28 3348.37C6264.51 3331.92 6234.34 3326.97 6201.62 3328.66C6201.62 3328.66 6189.03 3315.72 6176.17 3307.77C6163.31 3299.82 6151.21 3296.69 6151.21 3296.69C6151.21 3296.69 6142.89 3308.66 6139.32 3322.33C6135.75 3336.01 6138.58 3351.61 6136.93 3351.39C6134.87 3351.1 6092.66 3383.17 6104.93 3452.52C6113.53 3501.06 6177.26 3521.46 6176.45 3521.5C6170.57 3521.84 6165.42 3531.85 6161.16 3545.14C6160.54 3547.08 6114.75 3549.51 6108.38 3525.41C6097.79 3485.34 6067.07 3485.13 6066.81 3491.6C6066.66 3495.36 6085.53 3500.92 6090.98 3536.1C6096.96 3574.85 6154.3 3571.95 6153.71 3574.85C6152.41 3581.29 6151.29 3587.53 6150.37 3593.03C6145.15 3624.32 6139.12 3624.6 6132.1 3620.56C6057.28 3577.55 6014.62 3488.32 6032.54 3396.7Z" fill="#272361"/>
<path fill-rule="evenodd" clip-rule="evenodd" d="M6116.81 3545.06C6117.44 3543.58 6119.75 3543.2 6121.96 3544.23C6124.18 3545.24 6125.46 3547.28 6124.84 3548.76C6124.21 3550.24 6121.91 3550.62 6119.69 3549.6C6117.48 3548.58 6116.19 3546.55 6116.81 3545.06Z" fill="#272361"/>
<path fill-rule="evenodd" clip-rule="evenodd" d="M6131.66 3551.81C6131.96 3550.32 6134.21 3549.51 6136.7 3550.01C6139.19 3550.51 6140.97 3552.12 6140.68 3553.6C6140.39 3555.09 6138.13 3555.89 6135.64 3555.4C6133.16 3554.9 6131.37 3553.29 6131.66 3551.81Z" fill="#272361"/>
<path fill-rule="evenodd" clip-rule="evenodd" d="M6147.6 3553.11C6147.78 3551.56 6149.98 3550.52 6152.51 3550.79C6155.05 3551.06 6156.96 3552.53 6156.78 3554.08C6156.6 3555.63 6154.4 3556.67 6151.87 3556.4C6149.33 3556.13 6147.42 3554.67 6147.6 3553.11Z" fill="#272361"/>
<path fill-rule="evenodd" clip-rule="evenodd" d="M6105.86 3537.54C6104.48 3535.44 6104.5 3532.96 6105.91 3532C6107.33 3531.04 6109.59 3531.96 6110.96 3534.06C6112.34 3536.16 6112.32 3538.65 6110.91 3539.61C6109.49 3540.57 6107.23 3539.65 6105.86 3537.54Z" fill="#272361"/>
<path fill-rule="evenodd" clip-rule="evenodd" d="M6098.53 3523.03C6097.72 3521.01 6098.14 3518.9 6099.45 3518.32C6100.77 3517.75 6102.5 3518.92 6103.31 3520.96C6104.12 3522.98 6103.7 3525.09 6102.38 3525.66C6101.07 3526.24 6099.33 3525.06 6098.53 3523.03Z" fill="#272361"/>
<path fill-rule="evenodd" clip-rule="evenodd" d="M6093.31 3510.69C6092.04 3508.95 6091.76 3506.98 6092.69 3506.28C6093.61 3505.57 6095.39 3506.41 6096.66 3508.15C6097.93 3509.89 6098.21 3511.88 6097.28 3512.57C6096.35 3513.27 6094.57 3512.43 6093.31 3510.69Z" fill="#272361"/>
<path fill-rule="evenodd" clip-rule="evenodd" d="M6086.83 3501.42C6085.58 3500.4 6085.05 3498.95 6085.64 3498.2C6086.24 3497.44 6087.75 3497.67 6089 3498.69C6090.25 3499.72 6090.79 3501.17 6090.19 3501.92C6089.59 3502.68 6088.09 3502.45 6086.83 3501.42Z" fill="#272361"/>
<path fill-rule="evenodd" clip-rule="evenodd" d="M3238.66 4939.18C3238.66 4939.18 3220.34 4993.73 3228.35 5084.16C3233.32 5140.2 3258.41 5220.77 3262.51 5268.48C3265.03 5297.74 3256.98 5316.8 3256.98 5316.8L3317.61 5321.18L3338.45 4922.63L3238.66 4939.18Z" fill="#FDBC8C"/>
<path fill-rule="evenodd" clip-rule="evenodd" d="M3596.2 4935.33C3596.2 4935.33 3578.12 4989.96 3586.51 5080.35C3591.71 5136.38 3617.13 5216.84 3621.43 5264.53C3624.07 5293.78 3616.11 5312.87 3616.11 5312.87L3676.76 5317L3695.93 4918.36L3596.2 4935.33Z" fill="#FDBC8C"/>
<path fill-rule="evenodd" clip-rule="evenodd" d="M3621.78 5295.83C3621.78 5295.83 3591.21 5314.58 3612.35 5359.91C3613.98 5363.4 3616.84 5376.65 3619.07 5380.21C3619.07 5380.21 3624.56 5378.94 3671.57 5381.18C3677.94 5381.49 3675.77 5362.74 3682.69 5363C3691.62 5363.34 3724.87 5383.35 3733.09 5384.05C3778.43 5387.9 3793.56 5387.6 3823.76 5382.3C3837.41 5379.91 3839.13 5343.92 3811.78 5338.29C3783.65 5332.49 3776.22 5329.83 3742.57 5320.57C3708.94 5311.32 3678.69 5295.64 3678.69 5295.64C3678.69 5295.64 3663.22 5303.8 3648.8 5303.38C3634.39 5302.95 3621.78 5295.83 3621.78 5295.83Z" fill="#272361"/>
<path fill-rule="evenodd" clip-rule="evenodd" d="M3169.68 3571.31C3169.68 3571.31 3048.26 4651.5 3090.14 5067.53C3090.14 5067.53 3174.78 5097.08 3249.53 5097.25C3324.28 5097.41 3425.13 5064.83 3425.13 5064.83C3429.39 4845.54 3395.53 4618.29 3401.03 4348.39C3404.18 4193.55 3398.99 3984.28 3398.99 3984.28C3398.99 3984.28 3411.61 4251.75 3435.78 4551.01C3450.65 4735.24 3427.53 4943.31 3473.76 5066.18C3473.76 5066.18 3579.9 5088.05 3657.46 5085.09C3735.03 5082.12 3819.55 5040.51 3819.55 5040.51C3838.47 4620.43 3550.54 3561.65 3550.54 3561.65L3169.68 3571.31Z" fill="#2E3690"/>
<path fill-rule="evenodd" clip-rule="evenodd" d="M3333.38 3835.06C3333.38 3835.06 3335.71 3901.77 3352.26 3938.28C3368.81 3974.78 3399.59 3981.09 3399.59 3981.09C3399.59 3981.09 3405.95 4005.2 3400.33 4208C3399.91 4222.88 3398.93 4304.39 3398.23 4402.18C3397.08 4563.09 3403.93 4645.58 3418.02 4834.15C3425.28 4931.39 3424.43 5060.84 3424.43 5060.84C3424.43 5060.84 3395.29 4966.43 3376.64 4654.09C3365.43 4466.22 3380.51 3990.17 3380.51 3990.17C3380.51 3990.17 3357.51 3965.84 3343.7 3950.36C3319.4 3923.13 3333.38 3835.06 3333.38 3835.06Z" fill="#272361"/>
<path fill-rule="evenodd" clip-rule="evenodd" d="M3943.48 3003.04C3943.48 3003.04 3928.49 3035.05 3928.22 3061.1C3928.12 3071.14 3839.72 3150.64 3839.72 3150.64C3839.72 3150.64 3859.93 3190.99 3883.54 3175.94C3913.87 3156.61 3960.82 3095.8 3967.49 3095.34C3988.57 3093.89 4010.04 3083.9 4010.04 3083.9C4010.04 3083.9 4164.61 2993.79 4152 2982.24C4139.4 2970.69 4104.27 3011.78 4096.05 3004.04C4087.84 2996.3 4162.93 2949.81 4149.62 2938.62C4136.3 2927.43 4089.2 2988.67 4083.36 2982.55C4077.53 2976.42 4139.97 2924.82 4126.26 2914.11C4112.56 2903.39 4062.27 2972.2 4054.38 2966.46C4046.49 2960.72 4107.92 2899.29 4094.7 2891.15C4081.48 2883.02 4040.03 2955 4018.12 2958.03C3996.2 2961.06 4025.44 2895.69 4007.03 2903.27C3988.62 2910.84 3943.48 3003.04 3943.48 3003.04Z" fill="#FDBC8C"/>
<path fill-rule="evenodd" clip-rule="evenodd" d="M3217.73 2473.65C3217.73 2473.65 3250.21 2557.21 3250.21 2615.55C3250.21 2673.89 3235.24 2727.83 3235.24 2727.83C3235.24 2727.83 3200.13 2740.76 3109.13 2779.06C3104.89 2780.85 3100.51 2782.7 3096.01 2784.6C2999.98 2825.2 3294.95 2853.5 3294.95 2853.5L3547.04 2811.79C3547.04 2811.79 3515.86 2769.19 3458.99 2748.56C3439.59 2741.52 3402.67 2730.65 3398.37 2718.4C3388.31 2689.81 3379.56 2656.87 3377.94 2625.83C3373.8 2546.55 3416.22 2479.63 3416.22 2479.63L3217.73 2473.65Z" fill="#FDBC8C"/>
<path fill-rule="evenodd" clip-rule="evenodd" d="M3217.73 2473.65C3217.73 2473.65 3232.4 2546.1 3232.4 2604.45C3232.4 2662.79 3217.73 2707.02 3217.73 2707.02C3217.73 2707.02 3269.74 2653.83 3312.87 2637.6C3356 2621.36 3389.59 2597.68 3389.59 2597.68C3389.59 2597.68 3389.55 2573.26 3391.21 2557.18C3398.25 2489.18 3416.22 2479.63 3416.22 2479.63L3217.73 2473.65Z" fill="#DFA58B"/>
<path fill-rule="evenodd" clip-rule="evenodd" d="M3146.79 2752.97C3146.79 2752.97 3232.06 2769.89 3311.07 2770.61C3409.55 2771.51 3475.46 2747.37 3475.46 2747.37C3475.46 2747.37 3627.47 2769.3 3640.61 2853.64C3658.06 2965.62 3725.18 3161.85 3728.49 3223.06C3731.8 3284.25 3684.77 3263.31 3757.74 3199.73C3835.36 3132.09 3926.64 3056.4 3926.64 3056.4C3926.64 3056.4 3924.76 3067.33 3935.18 3079.15C3945.58 3090.97 3968.38 3086.97 3968.38 3086.97C3968.38 3086.97 3922.44 3167.85 3835.97 3304.24C3760.23 3423.71 3690.7 3439.64 3648.86 3412.88C3607.03 3386.11 3543.3 3202.14 3536.05 3171.4C3528.8 3140.67 3545.29 3259.35 3543.17 3375.75C3541.53 3465.58 3567.78 3511.32 3576.59 3550.5C3585.39 3589.69 3509.46 3591.13 3438.52 3587.46C3396.86 3585.3 3397.83 3554.24 3304.34 3616.64C3213.92 3677.01 3159.29 3654.72 3158.42 3599C3157.5 3539.54 3206.84 3437.71 3152.38 3256.46C3150.93 3251.65 3055.61 3138.32 3055.61 3182.35C3055.61 3250.09 3018.68 3294.5 3023.31 3326.94C3027.95 3359.38 3140.92 3294.67 3171.08 3287.79C3224.56 3275.61 3252.07 3361.67 3083.89 3423.77C3021.48 3446.81 2915.25 3478.12 2893.08 3425.58C2874.19 3380.8 2888.84 3314.06 2900.07 3207.62C2911.29 3101.18 2929.17 3025.93 2946.25 2925.47C2965.97 2809.38 3078.97 2782.28 3078.97 2782.28L3146.79 2752.97Z" fill="#0081C3"/>
<path fill-rule="evenodd" clip-rule="evenodd" d="M3096.11 3070.6C3096.11 3070.6 3068.72 3153.44 3054.02 3214.24C3039.47 3274.32 3011.19 3329.56 3028.16 3333.16C3051.86 3338.19 3105.97 3315.09 3105.97 3315.09C3105.97 3315.09 2997.66 3377.25 3001.14 3319.17C3012.25 3133.25 3096.11 3070.6 3096.11 3070.6Z" fill="#1172BA"/>
<path fill-rule="evenodd" clip-rule="evenodd" d="M3132.97 2229.82C3097.64 2279.99 3142.45 2352.98 3150.1 2409.09C3153 2430.4 3113.5 2372 3106.91 2411.02C3103.39 2431.85 3136.58 2502.14 3158.31 2481.64C3180.02 2461.14 3203.63 2520.16 3221.71 2533.7C3266.1 2566.91 3312.74 2593.78 3378.15 2589.89C3498.25 2582.75 3488.64 2441.89 3478.77 2339.7C3473.37 2283.67 3459 2239.94 3429.57 2210.03C3405.33 2185.38 3370.11 2170.91 3327.92 2159.5C3234.51 2134.22 3181.71 2160.6 3132.97 2229.82Z" fill="#FDBC8C"/>
<path fill-rule="evenodd" clip-rule="evenodd" d="M3463.29 2369.36C3465.36 2363.59 3472.45 2359.74 3480.43 2359.19C3483.35 2358.99 3482.75 2389.12 3482.75 2389.12C3481.62 2388.98 3480.05 2388.79 3478.92 2388.52C3467.45 2385.81 3460.45 2377.23 3463.29 2369.36Z" fill="#272361"/>
<path fill-rule="evenodd" clip-rule="evenodd" d="M3150.31 3275.95C3295 3387.11 3436.64 3189.83 3466.29 3018.96C3504.37 2799.39 3356.96 2771.87 3416.7 2671.4C3477.43 2569.26 3345.65 2432.1 3337.82 2361.36C3329.98 2290.62 3383.17 2332.48 3425.86 2313.57C3468.55 2294.64 3479.97 2284.99 3500.07 2246.9C3520.17 2208.82 3541.29 2133.4 3464.85 2136.21C3390.42 2138.95 3397.88 2099.22 3327.76 2108.55C3268.03 2116.49 3225.21 2066.74 3129.02 2147.53C3037.43 2224.48 3037.57 2351.77 3006.76 2418.82C2971.53 2495.51 2892.2 2464.36 2802.49 2581.68C2743.33 2659.04 2755.55 2755.59 2812.03 2844.2C2859.33 2918.4 2903.28 2997.21 2872.87 3059.25C2805.21 3197.3 3037.12 3189 3150.31 3275.95Z" fill="#272361"/>
<path fill-rule="evenodd" clip-rule="evenodd" d="M3451.84 2478.31C3452.39 2475.28 3460.02 2479.22 3468.91 2481.48C3476.05 2483.3 3480.57 2482.82 3480.57 2482.82C3480.57 2482.82 3480.46 2484.65 3479.31 2490.94C3478.15 2497.21 3476.66 2502.55 3476.66 2502.55C3460.36 2496.62 3450.06 2488.1 3451.84 2478.31Z" fill="#E0E0E0"/>
<path fill-rule="evenodd" clip-rule="evenodd" d="M3449.56 2325.48L3467.67 2320.15L3476.2 2317.61C3476.2 2317.61 3477.38 2317.2 3478.09 2324.06C3478.79 2330.79 3477.63 2330.75 3477.63 2330.75L3457.14 2336.76C3450.2 2338.8 3442.88 2337.94 3440.78 2334.82C3438.69 2331.71 3442.62 2327.52 3449.56 2325.48Z" fill="#272361"/>
<path fill-rule="evenodd" clip-rule="evenodd" d="M3261.33 5303.18C3261.33 5303.18 3230.56 5321.64 3251.28 5367.17C3252.87 5370.68 3255.6 5383.94 3257.8 5387.53C3257.8 5387.53 3263.3 5386.32 3310.29 5389.01C3316.66 5389.37 3314.66 5370.6 3321.59 5370.93C3330.5 5371.36 3363.57 5391.68 3371.78 5392.45C3417.08 5396.75 3432.21 5396.6 3462.47 5391.58C3476.14 5389.32 3478.19 5353.35 3450.9 5347.45C3422.83 5341.38 3415.42 5338.66 3381.87 5329.08C3348.32 5319.5 3318.23 5303.53 3318.23 5303.53C3318.23 5303.53 3302.68 5311.55 3288.27 5310.98C3273.86 5310.42 3261.33 5303.18 3261.33 5303.18Z" fill="#272361"/>
<path fill-rule="evenodd" clip-rule="evenodd" d="M1432.27 4835.65L1292.68 4933.58L1311.11 4982.08L1479.25 4915.24L1432.27 4835.65Z" fill="#FDBC8C"/>
<path fill-rule="evenodd" clip-rule="evenodd" d="M1499.83 5194.31L1517.13 5341.6L1572.23 5348.31L1586.01 5184.07L1499.83 5194.31Z" fill="#FDBC8C"/>
<path fill-rule="evenodd" clip-rule="evenodd" d="M1303.56 4925.12C1303.56 4925.12 1257.41 4903.68 1222.87 4957.95L1257.93 5037.72C1257.93 5037.72 1298.82 5143.36 1320.7 5173.36C1332.75 5189.91 1367.42 5166.74 1363.49 5142.25C1358.53 5111.36 1347.47 5098.07 1342.23 5055.54C1336.98 5013.02 1326.65 4975.69 1326.65 4975.69C1326.65 4975.69 1311.73 4966.04 1305.69 4951.9C1299.65 4937.75 1303.56 4925.12 1303.56 4925.12Z" fill="#272361"/>
<path fill-rule="evenodd" clip-rule="evenodd" d="M1515.2 5327.8C1515.2 5327.8 1471.89 5363.53 1502.65 5412.24L1601.6 5425.8C1601.6 5425.8 1702.69 5436.7 1741.03 5437.62C1770.46 5438.32 1764.54 5389.13 1740.82 5381.4C1717.11 5373.68 1683.53 5367.32 1655.41 5355.68C1627.99 5344.34 1573.76 5334.53 1573.76 5334.53C1573.76 5334.53 1556.83 5345.17 1537.15 5340.43C1522.74 5336.95 1515.2 5327.8 1515.2 5327.8Z" fill="#272361"/>
<path fill-rule="evenodd" clip-rule="evenodd" d="M1061.65 3756.87C1061.65 3756.87 989.393 4023.14 1116.65 4140.49C1209.85 4226.44 1656.93 4586.9 1702.73 4645.78C1732.41 4683.95 1621.96 4690.08 1541.89 4741.37C1461.82 4792.66 1397.75 4847.47 1397.75 4847.47C1397.75 4847.47 1405.87 4884.96 1419.02 4901.71C1432.16 4918.46 1448.71 4937.91 1448.71 4937.91C1448.71 4937.91 1676.54 4877.23 1779.75 4803.68C1882.95 4730.13 1951.44 4719.59 1911.52 4603.74C1838 4390.32 1341.4 3984.47 1341.4 3984.47C1341.4 3984.47 1370.31 4145.66 1393.31 4299.47C1397.13 4324.99 1402.85 4354.45 1409.19 4386C1424.71 4463.23 1443.97 4553.01 1448.23 4628.41C1461.39 4861.39 1438.46 5074.67 1491.56 5224.99C1491.56 5224.99 1516.15 5230.41 1541.22 5230C1566.3 5229.59 1592.82 5220.09 1592.82 5220.09C1604.04 5140.14 1621.99 5016.3 1614.74 4857.26C1607.49 4698.23 1630.4 4679.25 1621.4 4557.93C1614.69 4467.53 1639.74 4427.86 1633.02 4340.93C1624.34 4228.56 1633.43 4249.39 1623.64 4074.55C1615.83 3935.03 1533.36 3746.29 1533.36 3746.29L1061.65 3756.87Z" fill="#0081C3"/>
<path d="M1632.5 4245.5C1523.17 4139.65 1460.53 4076.91 1342.5 3979.5C1333.32 4139.92 1347.04 4233.29 1409 4388L1620.5 4570.5C1620.5 4570.5 1649.57 4476.55 1652.5 4416.5C1655.77 4349.34 1632.5 4245.5 1632.5 4245.5Z" fill="#0081C3"/>
<path d="M1618 4705C1555.77 4725.83 1519.46 4747.83 1452.5 4804V4940C1517.78 4920.94 1553.56 4908.65 1616 4884L1618 4705Z" fill="#0081C3"/>
<path fill-rule="evenodd" clip-rule="evenodd" d="M1153.85 2548.11C1153.85 2548.11 1168.23 2619.18 1168.23 2676.4C1168.23 2733.62 1156.3 2773.68 1156.3 2773.68C1156.3 2773.68 1142.49 2783.33 1122.79 2790.44C1103.1 2797.55 1077.16 2808.97 1077.16 2808.97C1077.16 2808.97 1171.55 2875.09 1262.55 2885.98C1353.55 2896.88 1441.53 2845.7 1441.53 2845.7C1426.49 2836.25 1404.98 2823.59 1382.69 2809.69C1360.41 2795.79 1342.62 2782.94 1339.2 2778.67C1320.57 2755.38 1323.78 2721.51 1322.21 2691.5C1318.16 2613.74 1348.52 2553.98 1348.52 2553.98L1153.85 2548.11Z" fill="#FDBC8C"/>
<path fill-rule="evenodd" clip-rule="evenodd" d="M1153.85 2548.11C1153.85 2548.11 1168.23 2619.18 1168.23 2676.4C1168.23 2733.62 1153.85 2777 1153.85 2777C1153.85 2777 1204.86 2724.84 1247.15 2708.91C1289.46 2692.99 1322.4 2669.76 1322.4 2669.76C1322.4 2669.76 1322.37 2645.81 1324 2630.04C1330.89 2563.35 1348.52 2553.98 1348.52 2553.98L1153.85 2548.11Z" fill="#DFA58B"/>
<path fill-rule="evenodd" clip-rule="evenodd" d="M1906.81 3493.23C1905.51 3495.85 1822.83 3478.54 1737.86 3475.91C1652.89 3473.27 1595.51 3475.51 1576.7 3475.37C1550.55 3475.18 1564.7 3442.41 1568.99 3418.57C1581.36 3349.77 1613.7 3307.18 1625 3226.54C1636.3 3145.89 1613.73 3119.39 1614.18 3095.98C1615.89 3007.71 1546.43 3083.9 1537.71 3084.36C1494.8 3086.62 1467.02 3341.22 1457.47 3427.37C1451.34 3482.77 1449.85 3545.33 1492.68 3553.55C1523.31 3559.43 1625.02 3563.34 1716.51 3559.76C1818.01 3555.78 1908.48 3543.93 1908.48 3543.93C1908.48 3543.93 1971.11 3578.24 2018.74 3582.88C2066.36 3587.53 2094.53 3592.81 2095.29 3584.64C2096.45 3572.04 2026.43 3561.75 2023 3556.22C2019.86 3551.16 2103.51 3566.3 2104.65 3551.42C2105.78 3536.54 2023.45 3536.56 2022.44 3531.29C2021.14 3524.52 2096.42 3534.5 2096.46 3519C2096.48 3509.22 2018.69 3508.05 2018.69 3508.05C2018.69 3508.05 2087.28 3496.44 2086.1 3489.27C2084.17 3477.43 2002.84 3490.13 1998.28 3487.04C1990.61 3481.81 1979.29 3483.66 1978.07 3477.5C1976.58 3470.02 2015.71 3461.7 2014.72 3455.18C2013.11 3444.61 1984.3 3451.67 1957.32 3461.19C1930.35 3470.69 1911.92 3482.93 1906.81 3493.23Z" fill="#FDBC8C"/>
<path fill-rule="evenodd" clip-rule="evenodd" d="M1127.72 2788.6C1127.72 2788.6 1166.02 2861.07 1243.03 2866.42C1308.89 2871 1365.79 2800.46 1365.79 2800.46C1365.79 2800.46 1425.09 2806.81 1523.24 2854.58C1612.32 2897.94 1631.88 3027.83 1631.88 3027.83C1631.88 3027.83 1653.23 3138.54 1638 3169.69C1638 3169.69 1616.38 3177.57 1584.89 3178.89C1553.38 3180.2 1516.78 3170.34 1516.78 3170.34C1516.78 3170.34 1533.34 3289.63 1553.37 3444.2C1585.12 3689.05 1600.81 3875.99 1600.81 3875.99C1600.81 3875.99 1447.92 3906.89 1335.89 3913.7C1223.85 3920.53 1037.74 3921.14 1037.74 3921.14C1037.74 3921.14 1019.43 3701.85 1001.05 3566.34C982.678 3430.84 1008.8 3442.39 975.011 3270.9C949.801 3142.95 882.777 3095.77 875.737 2985.04C868.847 2876.68 1127.72 2788.6 1127.72 2788.6Z" fill="#272361"/>
<path fill-rule="evenodd" clip-rule="evenodd" d="M1127.76 2788.32C1127.76 2788.32 1200.66 2855.06 1257.4 2854.71C1325.46 2854.29 1363.76 2797.6 1363.76 2797.6C1363.76 2797.6 1368.15 2796.8 1372.92 2799.64C1377.04 2802.09 1377.77 2806.43 1377.77 2806.43C1377.77 2806.43 1332.86 2868.9 1262.24 2869.69C1175.7 2870.65 1111.57 2793.12 1111.57 2793.12C1111.57 2793.12 1113.65 2790.32 1119.46 2788.42C1123.85 2786.99 1127.76 2788.32 1127.76 2788.32Z" fill="#1172BA"/>
<path fill-rule="evenodd" clip-rule="evenodd" d="M1107.53 3023.69C1113.27 2934.92 1083.59 2865.57 1029.26 2859.99C973.034 2854.22 938.808 2868.84 876.094 3034.85C862.338 3071.28 872.744 3136.95 873.999 3171.62C874.403 3183.01 888.072 3183.86 888.072 3183.86C893.056 3185.86 903.161 3223.21 947.88 3227.13C992.6 3231.04 1060.42 3216.86 1060.42 3216.86C1098.79 3182.44 1102.27 3105.13 1107.53 3023.69Z" fill="#135EAB"/>
<path fill-rule="evenodd" clip-rule="evenodd" d="M1238.19 3549.19L1238.29 3531.49C1238.31 3526.84 1242.38 3523.01 1247.38 3522.93L1692.18 3515.45C1697.17 3515.37 1702.91 3511.88 1704.99 3507.66L1922.22 3064.37C1924.3 3060.14 1935.75 3044.09 1940.59 3045.26L1978.8 3047C1983.64 3048.16 1976.76 3048.41 1974.83 3052.69L1762.38 3523.41C1760.45 3527.69 1762.93 3531.17 1767.93 3531.18L2265.26 3532.02C2270.25 3532.04 2273.46 3537.83 2273.37 3542.01C2273.29 3546.2 2269.94 3551.97 2264.95 3552.01L1247.19 3557.51C1242.19 3557.55 1238.16 3553.82 1238.19 3549.19Z" fill="#2BAAE2"/>
<path fill-rule="evenodd" clip-rule="evenodd" d="M1949.38 3067.35L1730.51 3503.75C1722.4 3519.93 1730.49 3533.02 1748.59 3533L2264.94 3532.44C2283.03 3532.42 2304.8 3519.57 2313.55 3503.74L2546.25 3083.02C2555 3067.19 2547.45 3053.95 2529.36 3053.46L1996.82 3038.96C1984.74 3038.62 1946.26 3038.42 1936.21 3046.96C1936.21 3046.96 1941.29 3049.49 1946.56 3053.57C1951.36 3057.28 1950.67 3064.79 1949.38 3067.35Z" fill="#4CC8ED"/>
<path fill-rule="evenodd" clip-rule="evenodd" d="M1346.17 3503.85C1345 3506.71 1256.54 3494.71 1166.76 3498.33C1076.98 3501.95 1016.65 3508.64 996.823 3509.91C969.24 3511.68 981.678 3476.06 984.409 3450.61C992.267 3377.15 1023.15 3329.81 1028.99 3243.95C1034.81 3158.07 1009.02 3131.85 1007.74 3107.13C1002.88 3013.94 935.403 3099.5 926.243 3100.64C881.19 3106.26 871.085 3376.75 867.514 3468.3C865.22 3527.15 868.371 3593.22 914.146 3598.65C946.88 3602.55 1054.39 3599 1150.57 3588.33C1257.27 3576.49 1351.75 3557.17 1351.75 3557.17C1351.75 3557.17 1420.36 3588.63 1470.92 3589.93C1521.48 3591.24 1551.58 3594.68 1551.75 3586.01C1552.02 3572.64 1477.44 3567.07 1473.4 3561.51C1469.71 3556.4 1559.04 3566.05 1559.12 3550.28C1559.19 3534.51 1472.4 3540.73 1470.93 3535.26C1469.05 3528.23 1549.16 3533.07 1548.03 3516.72C1547.33 3506.42 1465.24 3511.04 1465.24 3511.04C1465.24 3511.04 1536.67 3493.63 1534.89 3486.16C1531.95 3473.82 1447.17 3493.36 1442.13 3490.43C1433.65 3485.5 1421.86 3488.29 1420.1 3481.9C1417.97 3474.12 1458.59 3462.41 1457.06 3455.61C1454.57 3444.59 1424.72 3454.2 1397 3466.27C1369.28 3478.32 1350.78 3492.62 1346.17 3503.85Z" fill="#FDBC8C"/>
<path fill-rule="evenodd" clip-rule="evenodd" d="M1110.57 3034.94C1124.51 2940.2 1082.36 2862.55 1027.94 2857.97C1003.87 2855.95 963.073 2861.64 938.506 2883.76C913.646 2906.15 882.103 2919.64 869.069 3003.96C861.481 3053.02 854.322 3199.82 861.751 3213.87C861.751 3213.87 917.02 3220.68 966.343 3218.95C1015.67 3217.22 1059.07 3206.95 1059.07 3206.95C1091.27 3176.05 1106.25 3064.37 1110.57 3034.94Z" fill="#272361"/>
<path fill-rule="evenodd" clip-rule="evenodd" d="M1069.09 2316.71C1034.44 2365.92 1096.89 2473.44 1085.67 2471.45C1074.47 2469.47 1064.86 2434.24 1043.53 2473.67C1026.1 2505.87 1090.73 2575.33 1104.16 2549.26C1117.79 2522.8 1138.39 2601.47 1156.13 2614.74C1199.66 2647.32 1245.42 2673.68 1309.56 2669.86C1427.35 2662.86 1419.21 2523.6 1409.54 2423.37C1404.23 2368.42 1404.15 2316.46 1375.28 2287.1C1351.51 2262.94 1354.5 2249.97 1313.12 2238.77C1221.5 2213.99 1116.89 2248.81 1069.09 2316.71Z" fill="#FDBC8C"/>
<path fill-rule="evenodd" clip-rule="evenodd" d="M1113.07 2536.13C1113.07 2536.13 1140.61 2543.9 1125.67 2515.2C1110.21 2485.49 1096.62 2460.39 1093.99 2437.73C1092.33 2423.55 1089.84 2406.11 1100.37 2400.85C1110.89 2395.58 1137.63 2407.62 1144.29 2389.58C1152.41 2367.59 1118.76 2333.37 1142.15 2310.2C1170.8 2281.81 1216.87 2312.12 1263.07 2308.2C1309.27 2304.3 1343.9 2278.93 1361.45 2282.32C1373.26 2284.6 1383.98 2293.2 1388.27 2310.27C1391.61 2323.54 1389.57 2343.08 1392.85 2359.32C1394.21 2366.12 1400.47 2366.73 1403.54 2372.31C1405.63 2376.09 1404.53 2382.43 1405.6 2387.54C1408.65 2402.06 1407.58 2415.49 1408.47 2412.98C1409.96 2408.73 1404.95 2356.02 1399.86 2331.71C1393.2 2299.98 1382.22 2282.02 1371.24 2265.69C1360.26 2249.36 1333.21 2226.31 1308.5 2217.61C1277.53 2206.7 1243.9 2201.68 1210.61 2205.28C1160.49 2210.69 1131.33 2225.84 1104.27 2243.57C1068.93 2266.71 1057.4 2310.28 1054.45 2336.8C1052.41 2355.22 1067.11 2414.86 1082.01 2463.74C1092.21 2497.21 1113.07 2536.13 1113.07 2536.13Z" fill="#2E3690"/>
<path fill-rule="evenodd" clip-rule="evenodd" d="M1238.22 2460.85C1236.63 2452.34 1241.5 2444.75 1249.09 2443.89C1256.7 2443.04 1264.14 2449.25 1265.73 2457.76C1267.32 2466.27 1262.45 2473.86 1254.85 2474.71C1247.26 2475.56 1239.8 2469.36 1238.22 2460.85Z" fill="#272361"/>
<path fill-rule="evenodd" clip-rule="evenodd" d="M1355.97 2448.02C1354.28 2439.51 1359.45 2431.92 1367.53 2431.07C1375.6 2430.22 1383.51 2436.42 1385.2 2444.93C1386.89 2453.43 1381.72 2461.03 1373.65 2461.88C1365.57 2462.74 1357.65 2456.53 1355.97 2448.02Z" fill="#272361"/>
<path fill-rule="evenodd" clip-rule="evenodd" d="M1082.67 2459.24C1075.45 2460.57 1129.8 2591.45 1154.45 2612.16C1188.88 2641.1 1200.84 2650.86 1250.88 2664.69C1274.33 2671.17 1319.27 2676.94 1356.7 2659.2C1380.29 2648.03 1388.28 2631.79 1402.4 2597.62C1416.53 2563.45 1413.21 2522.53 1413.21 2522.53C1413.21 2522.53 1412.07 2547.11 1397.8 2554.25C1387.83 2559.23 1378.58 2538.09 1330.93 2539.6C1288.96 2540.93 1287.65 2541.75 1254.23 2551.23C1220.8 2560.71 1208.13 2572.49 1197.24 2577.5C1175.77 2587.38 1131.32 2533.32 1121.27 2509.38C1108.61 2479.18 1084.18 2458.97 1082.67 2459.24Z" fill="#2E3690"/>
<path fill-rule="evenodd" clip-rule="evenodd" d="M1262.36 2578.4C1263.35 2572.42 1296.43 2583.77 1323.01 2580.19C1349.6 2576.61 1362.37 2570.33 1364.51 2574.42C1365.91 2577.08 1355.51 2603.03 1328.92 2606.61C1302.34 2610.18 1261.05 2586.35 1262.36 2578.4Z" fill="#E0E0E0"/>
<path fill-rule="evenodd" clip-rule="evenodd" d="M1348.48 2382.92L1374.96 2383.41C1379.78 2383.5 1383.66 2386.43 1383.61 2389.97C1383.56 2393.5 1379.61 2396.29 1374.79 2396.21L1348.29 2395.71C1343.48 2395.62 1339.6 2392.69 1339.65 2389.15C1339.7 2385.62 1343.65 2382.83 1348.48 2382.92Z" fill="#272361"/>
<path fill-rule="evenodd" clip-rule="evenodd" d="M1226.47 2390.74L1252.72 2387.16C1257.5 2386.51 1261.78 2388.82 1262.27 2392.32C1262.76 2395.82 1259.28 2399.18 1254.5 2399.83L1228.26 2403.4C1223.47 2404.06 1219.2 2401.75 1218.71 2398.24C1218.21 2394.74 1221.68 2391.39 1226.47 2390.74Z" fill="#272361"/>
<path fill-rule="evenodd" clip-rule="evenodd" d="M1481.15 3028.35C1481.15 3028.35 1501.74 3112.85 1508.04 3155.84C1521.78 3249.59 1523.67 3405 1523.67 3405C1523.67 3405 1526.66 3302.95 1521.09 3225.75C1515.54 3148.56 1516.93 3158.92 1501.61 3096.39C1486.3 3033.87 1481.15 3028.35 1481.15 3028.35Z" fill="#135EAB"/>
<path fill-rule="evenodd" clip-rule="evenodd" d="M1484.22 5204.17C1482.91 5205.31 1479.25 5210.04 1481.21 5218.14C1483.16 5226.23 1492.04 5228.78 1492.04 5228.78C1492.04 5228.78 1506.88 5234.93 1544.53 5234.69C1579.12 5234.47 1592.32 5223.78 1592.32 5223.78C1592.32 5223.78 1600.73 5219.23 1601.54 5211.14C1602.35 5203.04 1594.64 5198.43 1594.64 5198.43C1594.64 5198.43 1577.5 5210.48 1543.19 5211.88C1505.18 5213.43 1485.63 5202.93 1484.22 5204.17Z" fill="#272361"/>
<path fill-rule="evenodd" clip-rule="evenodd" d="M1407.48 4833.89C1405.86 4833.24 1402.02 4831.21 1395.7 4836.63C1389.38 4842.05 1390.9 4849.72 1390.9 4849.72C1390.9 4849.72 1392.74 4872.15 1409.55 4903.35C1425.14 4932.29 1445.22 4944.34 1445.22 4944.34C1445.22 4944.34 1451.23 4947.87 1458.81 4944.91C1466.39 4941.94 1465.78 4934.3 1465.78 4934.3C1465.78 4934.3 1447.27 4923.87 1429.41 4890.99C1412.21 4859.28 1409.22 4834.58 1407.48 4833.89Z" fill="#272361"/>
<path fill-rule="evenodd" clip-rule="evenodd" d="M1571.6 3881.61C1571.6 3881.61 1584.88 3898.19 1515.7 3906.62C1446.54 3915.04 1292.48 3916.39 1292.48 3916.39L1571.6 3881.61Z" fill="#272361"/>
<path fill-rule="evenodd" clip-rule="evenodd" d="M1455.54 4944.32C1455.54 4944.32 1456.84 5028.96 1464.36 5093.95C1471.88 5158.94 1485.64 5204.27 1485.64 5204.27L1506.84 5210.37C1506.84 5210.37 1495.22 5175.37 1486.18 5103.72C1477.12 5032.07 1474.86 4927.83 1474.86 4927.83L1455.54 4944.32Z" fill="#272361"/>
<path fill-rule="evenodd" clip-rule="evenodd" d="M1454.95 4801.19L1468.88 4788.56C1468.88 4788.56 1459.63 4593.07 1444.3 4497.13C1425.41 4378.93 1520.17 4493.34 1570.09 4531.56C1608.78 4561.18 1623.83 4574 1623.83 4574L1410.17 4388.3C1410.17 4388.3 1433.96 4491.04 1444.4 4594.91C1454.83 4698.79 1454.95 4801.19 1454.95 4801.19Z" fill="#272361"/>
<path fill-rule="evenodd" clip-rule="evenodd" d="M1433.65 4052.82L1628.94 4242.54L1628.55 4221.07L1433.65 4052.82Z" fill="#272361"/>
</svg>
