<?xml version="1.0" encoding="UTF-8" standalone="no"?> <!-- Created with Vectornator for iOS (http://vectornator.io/) --><!DOCTYPE svg PUBLIC "-//W3C//DTD SVG 1.1//EN" "http://www.w3.org/Graphics/SVG/1.1/DTD/svg11.dtd">
<svg style="fill-rule:evenodd;clip-rule:evenodd;stroke-linecap:round;stroke-linejoin:round;" xmlns:vectornator="http://vectornator.io" xmlns:xlink="http://www.w3.org/1999/xlink" xmlns="http://www.w3.org/2000/svg" xml:space="preserve" version="1.1" viewBox="0 0 9494.51 6443.2">
<metadata>
<vectornator:setting key="DimensionsVisible" value="1"/>
<vectornator:setting key="New" value="1"/>
<vectornator:setting key="SnapToPoints" value="0"/>
<vectornator:setting key="GuidesVisible" value="1"/>
<vectornator:setting key="RulersVisible" value="1"/>
<vectornator:setting key="CMYKEnabledKey" value="0"/>
<vectornator:setting key="SnapToEdges" value="0"/>
<vectornator:setting key="DisplayWhiteBackground" value="1"/>
<vectornator:setting key="idAngle" value="45"/>
<vectornator:setting key="SnapToGuides" value="1"/>
<vectornator:setting key="GridSpacing" value="100"/>
<vectornator:setting key="Units" value="Pixels"/>
<vectornator:setting key="DynamicGuides" value="0"/>
<vectornator:setting key="SnapToGrid" value="0"/>
</metadata>
<defs>
<path d="M6052.78+2230.17C6052.78+2230.17+5935.64+2226.88+5934.09+2099.05C5932.57+1973.24+6053.32+1966.62+6053.32+1966.62L6350.69+1968.73C6350.69+1968.73+6479.14+1962.75+6477.42+2107.13C6475.92+2233.68+6343.47+2242.48+6343.47+2242.48L6215.3+2241.58C6202.18+2241.48+6183.07+2249.84+6172.61+2260.24L6072.57+2359.71C6062.5+2369.72+6058.68+2365.65+6064.05+2350.62L6097.05+2258.22C6101.43+2245.97+6096.65+2235.31+6086.38+2234.41L6052.78+2230.17Z" id="Mask"/>
</defs>
<g id="Слой 2" vectornator:layerName="Слой 2">
<path d="M332.775+3247.36C664.316+2354.62+2479.49+2342.7+2560.55+1477.1C2640.52+623.185+3783.21+710.786+4452.47+1062.22C5176.93+1442.64+7719.79+688.812+7633.43+1305.37C7547.08+1921.92+8755.89+2164.6+8831.73+3107.69C8907.08+4044.68+7795.82+5212.54+8032.64+5769.05C8244.52+6266.98+5507.92+5957.64+4369.11+5957.64C3648.16+5957.64+1391.32+6195.04+1168.5+5664.44C692.899+4531.88-53.0489+4286.27+332.775+3247.36Z" fill-opacity="0.153501" fill="#4cc8ed" opacity="1"/>
<path d="M699.581+5744.54C699.581+5682.05+2475.07+5631.39+4665.25+5631.39C6855.43+5631.39+8630.93+5682.05+8630.93+5744.54C8630.93+5807.04+6855.43+5857.7+4665.25+5857.7C2475.07+5857.7+699.581+5807.04+699.581+5744.54Z" opacity="1" fill="#e0e0e0"/>
</g>
<g id="1" vectornator:layerName="1">
<path d="M2955.39+4368.16C2945.59+4350.39+2934.95+4335.97+2926.59+4327.53L2828.24+4372.04C2804.51+4329.26+2788.18+4302.01+2752.79+4272.32L2812.59+4180.48C2779.87+4144.54+2717.03+4105.74+2675.35+4102.62L2625.95+4197.26C2588.45+4183.11+2557.75+4175.27+2517.51+4173.07L2517.41+4073.71C2477.33+4063.37+2409.49+4068.71+2383.64+4085.63L2398.41+4182.19C2363.77+4190.29+2329.66+4203.27+2296.99+4221.38L2236.99+4141.91C2201.69+4150.81+2144.02+4190.14+2124.87+4229.44L2197.1+4300.17C2170.84+4328.95+2147.37+4363.6+2130.96+4398.05L2030.49+4366.85C2011.54+4398.67+1991.91+4464.6+1992.54+4499.69L2097.35+4519.22C2092.6+4560.19+2094.34+4602.07+2102.99+4643.3L2008.32+4673.6C2011.22+4717.14+2026.59+4759.51+2054.89+4796.78L2143.47+4751.8C2162.75+4786.56+2180.36+4812.54+2207.61+4838.74L2146.93+4915.94C2165.17+4949.04+2214.31+4983.78+2250.4+4989.81L2297.83+4904.72C2335.74+4925.22+2376.83+4939.31+2419.26+4946.46L2414.57+5052.4C2451.75+5071.85+2523.22+5071.19+2557.06+5055.74L2545.8+4947.07C2589.85+4940.07+2620.75+4936.46+2662.04+4913.56L2727.16+5005.03C2773.09+4995.4+2820.95+4955.3+2836.67+4918.64L2762.38+4836.52C2788.69+4810.2+2810.78+4780.54+2828.31+4748.69L2934.01+4793.42C2972.27+4749.02+2990.6+4694.29+2985.15+4649.59L2873.13+4618.76C2879.48+4580.73+2881.86+4537.21+2876.63+4498.43L2983.02+4472.45C2985.72+4436.66+2971.73+4397.77+2955.39+4368.16ZM2670.99+4465.36C2727.52+4567.29+2690.05+4696.13+2587.3+4753.11C2484.55+4810.09+2355.42+4773.66+2298.89+4671.73C2242.36+4569.79+2279.83+4440.96+2382.58+4383.97C2485.33+4326.99+2614.46+4363.43+2670.99+4465.36Z" opacity="0.42511" fill="#2baae2"/>
<path d="M3032.01+4679.12C3018.38+4685.94+3007.23+4693.48+3000.65+4699.5L3031.06+4774.65C2998.25+4791.15+2977.3+4802.57+2953.95+4828.23L2886.86+4780.57C2858.89+4804.03+2827.88+4850+2824.27+4881.18L2893.78+4921.12C2882.02+4948.82+2875.21+4971.63+2872.34+5001.75L2797.79+4998.81C2788.82+5028.57+2790.76+5079.63+2802.67+5099.54L2875.57+5091.39C2880.6+5117.62+2889.3+5143.61+2901.9+5168.67L2840.45+5211.28C2846.05+5238.04+2873.82+5282.5+2902.72+5298.06L2957.98+5246.01C2978.78+5266.59+3004.06+5285.25+3029.42+5298.61L3002.96+5373.05C3026.26+5388.24+3075.13+5404.96+3101.48+5405.56L3119.31+5327.51C3149.91+5332.32+3181.38+5332.28+3212.58+5327.04L3232.44+5398.99C3265.2+5398.14+3297.46+5387.89+3326.28+5367.79L3295.22+5299.96C3321.89+5286.55+3341.91+5274.13+3362.4+5254.47L3415.53+5307.16C3440.92+5294.48+3475.08+5254.35+3480.7+5227.45L3418.46+5183.72C3435+5155.9+3442.99+5130.56+3449.65+5098.94L3531.06+5118.25C3546.78+5090.95+3549.05+5027.37+3538.48+5001.52L3460.66+5000.3C3456.74+4967.04+3448.26+4947.46+3432.33+4915.78L3502.93+4869.69C3497.1+4834.94+3468.47+4797.81+3441.44+4784.9L3377.57+4838.16C3358.62+4817.61+3337.04+4800.14+3313.67+4786.02L3350.44+4708.07C3318.29+4678.02+3277.78+4662.6+3244.08+4665.33L3217.54+4748.45C3189.2+4742.53+3156.62+4739.42+3127.36+4742.17L3111.1+4661.56C3084.33+4658.44+3054.72+4667.76+3032.01+4679.12ZM3096.31+4895.46C3174.5+4856.14+3270.04+4888.17+3309.67+4966.99C3349.31+5045.81+3318.05+5141.6+3239.86+5180.92C3161.66+5220.24+3066.13+5188.21+3026.49+5109.39C2986.85+5030.57+3018.11+4934.78+3096.31+4895.46Z" opacity="0.42511" fill="#2baae2"/>
<path d="M7854.79+1869.44C7834.78+1872.82+7817.65+1878.1+7806.93+1883.21L7816.46+1990.74C7768.25+1999.01+7737.13+2005.42+7697.42+2029.02L7630.48+1942.25C7585.75+1961.27+7528.37+2007.77+7511.67+2046.08L7584.68+2123.97C7558.94+2154.68+7541.4+2181.08+7526.05+2218.34L7432.23+2185.62C7409.23+2220.03+7391.87+2285.83+7399.3+2315.82L7495.32+2333.77C7491.53+2369.13+7492.52+2405.62+7498.83+2442.43L7404+2472.83C7400.74+2509.08+7418.83+2576.51+7449.6+2607.56L7540.21+2562.74C7558.71+2597.04+7583.66+2630.63+7610.76+2657.49L7548.13+2742.02C7571.91+2770.42+7627.66+2810.72+7660.99+2821.71L7714.03+2729.23C7751.14+2747.24+7791.24+2759.43+7833.02+2764.88L7830.36+2864.25C7872.41+2875.89+7917.48+2875.36+7962+2860.96L7948.8+2762.5C7987.98+2755.78+8018.31+2747.74+8052.04+2730.66L8104.87+2813.43C8142.14+2807.15+8191.16+2772.23+8208.76+2740.15L8144.11+2667.29C8175.98+2638.28+8202.85+2604.14+8223.61+2566.46L8322.06+2605.87C8352.69+2577.2+8375.67+2509.51+8372.26+2472.47L8265.97+2447.22C8273.91+2403.33+8280.7+2372.97+8272.72+2326.43L8380.56+2295.17C8386.64+2248.64+8364.6+2190.22+8335.18+2163.27L8233.14+2206.28C8216.98+2172.75+8196.28+2142.11+8172.01+2115.04L8249.13+2030.04C8219.86+1979.27+8174.25+1943.9+8130.26+1934.28L8064.16+2029.83C8030.37+2011.29+7990.07+1994.67+7951.74+1986.8L7962.35+1877.8C7929.46+1863.42+7888.13+1863.8+7854.79+1869.44ZM7852.62+2169.98C7967.5+2150.28+8076.74+2228.2+8096.59+2344C8116.45+2459.8+8039.42+2569.66+7924.54+2589.36C7809.65+2609.06+7700.42+2531.14+7680.56+2415.34C7660.7+2299.54+7737.74+2189.68+7852.62+2169.98Z" opacity="0.42511" fill="#2baae2"/>
<path d="M7304.1+2510.34C7288.93+2508.98+7275.48+2509.54+7266.72+2511.19L7253.08+2591.1C7216.49+2587.89+7192.67+2586.6+7159.32+2596.15L7127.29+2520.34C7091.18+2525.6+7040.62+2548.4+7021.17+2573.03L7059.3+2643.54C7034.74+2660.93+7016.95+2676.74+6998.68+2700.87L6936.8+2659.17C6913.53+2679.76+6888.34+2724.23+6888+2747.43L6954.3+2778.82C6944.78+2803.77+6938.53+2830.46+6936.07+2858.4L6861.4+2862.34C6852.1+2888.05+6852.34+2940.47+6868.75+2968.9L6943.13+2953.67C6950+2982.11+6961.7+3011.28+6976.24+3035.97L6914.6+3085.38C6926.44+3110.55+6959.22+3150.47+6981.32+3164.83L7037.52+3107.8C7061.02+3127.98+7087.81+3144.5+7117.11+3156.44L7096.18+3228.09C7124.5+3244.58+7157.33+3252.82+7192.41+3250.87L7201.65+3176.84C7231.38+3179.46+7254.95+3179.41+7282.7+3173.46L7305.25+3243.67C7333.52+3246.23+7375.79+3230.25+7394.7+3210.32L7361.68+3145.04C7390.37+3130.07+7416.41+3110.42+7438.68+3087.02L7502.64+3134.46C7530.37+3119.49+7560+3074.74+7564.6+3047.18L7492.25+3008.53C7506.4+2978.17+7517.14+2957.42+7520.24+2922.11L7604.53+2920.02C7617.84+2887.39+7613+2840.75+7596.79+2815.56L7514.47+2827.29C7509.14+2799.85+7499.97+2773.64+7487.52+2749.34L7559.76+2702.36C7548.22+2659.89+7521.86+2625.49+7491.75+2610.09L7425.49+2666.85C7404.49+2646.92+7378.4+2627.14+7352.07+2614.1L7380.62+2536.98C7359.48+2520.25+7329.4+2512.62+7304.1+2510.34ZM7245.07+2728.18C7332.26+2735.84+7396.7+2813.3+7388.98+2901.19C7381.26+2989.08+7304.32+3054.13+7217.13+3046.47C7129.94+3038.82+7065.51+2961.35+7073.22+2873.46C7080.94+2785.58+7157.88+2720.52+7245.07+2728.18Z" opacity="0.42511" fill="#2baae2"/>
<path d="M8219.11+5003.61C8219.11+5003.61+8230.47+4898.08+8199.2+4868.02C8167.93+4837.95+8126.82+4902.69+8106.17+4864.48C8085.53+4826.27+8136.73+4791.7+8098.03+4737.28C8068.54+4695.81+8019.73+4762.94+7989.28+4726.05C7958.84+4689.16+8011.74+4628.54+7986.45+4577.63C7961.17+4526.71+7906.62+4550.04+7888.14+4522.38C7869.27+4494.14+7923.35+4456.22+7872.36+4422.03C7816.8+4384.78+7809.45+4451.33+7763.91+4440.4C7729.68+4432.19+7702.03+4352.9+7643.97+4398.94C7595.24+4437.57+7641.06+4495.48+7641.09+4540.02C7641.14+4596.05+7596.89+4597.4+7627.83+4655.36C7648.83+4694.7+7702.93+4660.19+7727.02+4696.34C7751.11+4732.5+7685.63+4758.8+7724.17+4799.98C7762.72+4841.15+7840.28+4818.52+7863.86+4848.86C7887.44+4879.21+7837.72+4949.48+7872.35+4986.79C7906.97+5024.11+7964.61+4989+8005.7+5020.82C8046.79+5052.64+7986.77+5108.71+8028.14+5140.33C8069.51+5171.96+8185.18+5136.8+8185.18+5136.8L8219.11+5003.61Z" opacity="1" fill="#0081c3"/>
<path d="M8396.47+5037.62C8396.47+5037.62+8486.78+4926.21+8469.93+4871.81C8453.08+4817.41+8389.53+4856.05+8391.67+4799.45C8393.81+4742.85+8459.25+4742.97+8439.59+4658.1C8420.3+4574.87+8369.02+4620.86+8358.12+4559.31C8347.21+4497.75+8402.46+4496.03+8408.06+4422.07C8413.66+4348.1+8336.23+4348.13+8329.19+4305.31C8322.71+4265.81+8411.93+4246.95+8373.71+4174.95C8332.08+4096.5+8290.16+4146.44+8241.87+4104.23C8205.56+4072.49+8158.13+3984.1+8082.44+3995.12C8005.8+4006.29+8050.43+4085.58+8018.27+4135.78C7977.82+4198.92+7922.23+4171.38+7918.51+4256.99C7915.99+4315.1+7982.49+4314.22+7982.28+4359.84C7982.07+4405.45+7915.06+4411.47+7932.86+4483.17C7950.66+4554.87+8029.96+4571.55+8038.4+4624.89C8046.25+4674.46+7964.92+4726.16+7980.67+4790.93C7996.42+4855.7+8064.01+4861.08+8091.71+4923.91C8119.42+4986.74+8033.75+5003.41+8061.94+5066.21C8090.13+5129+8258.3+5165.37+8258.3+5165.37L8396.47+5037.62Z" opacity="1" fill="#2baae2"/>
<path d="M8364.69+5148.74C8364.69+5148.74+8505.52+5112.49+8530.91+5064.61C8556.3+5016.73+8482.27+4996.57+8521.04+4958.89C8559.81+4921.22+8601.12+4963.58+8653.16+4898.64C8692.83+4849.15+8616.73+4812.1+8650.58+4762.96C8684.44+4713.82+8754.12+4757.99+8806.54+4710.49C8858.96+4662.99+8812.44+4604.46+8839.3+4572.89C8866.72+4540.67+8930.57+4593.81+8954.19+4520.62C8979.93+4440.88+8897.68+4453.91+8895.28+4395.03C8893.48+4350.76+8979.08+4291.02+8904.16+4235.72C8841.28+4189.32+8787.48+4264.05+8734.1+4278.79C8666.98+4297.34+8650.31+4244.06+8591.37+4300.75C8551.37+4339.24+8611.14+4393.53+8576+4434.7C8540.87+4475.87+8487.07+4405.06+8450.84+4465.44C8414.61+4525.83+8449.05+4600.05+8420.7+4638.69C8392.35+4677.34+8310.3+4652.64+8277.37+4706.99C8244.43+4761.33+8290.58+4811.64+8266.42+4872.03C8242.27+4932.41+8170.19+4886.14+8146.36+4946.8C8122.54+5007.46+8205.41+5150.83+8205.41+5150.83L8364.69+5148.74Z" opacity="1" fill="#0081c3"/>
<path d="M8071.61+5213.77L8125.58+5580.84L8343.45+5579.21L8380.01+5210.64L8071.61+5213.77Z" opacity="1" fill="#135eab"/>
<path d="M8073.77+5227.45L8378.93+5223.31L8374.13+5258.2L8078.45+5259.49L8073.77+5227.45Z" opacity="1" fill="#2e3690"/>
<path d="M8007.8+5148.54L8451.11+5141.14L8441.09+5225.9L8013.87+5230.56L8007.8+5148.54Z" opacity="1" fill="#135eab"/>
</g>
<g id="Слой 3" vectornator:layerName="Слой 3">
<g opacity="1" vectornator:mask="#Mask">
<use xlink:href="#Mask" fill="#4cc8ed" stroke="none"/>
<clipPath id="ClipPath">
<use xlink:href="#Mask" fill="none" overflow="visible"/>
</clipPath>
<g clip-path="url(#ClipPath)">
<path d="M6308.57+2102.14C6308.57+2082.85+6323.98+2067.21+6342.98+2067.21C6361.99+2067.21+6377.39+2082.85+6377.39+2102.14C6377.39+2121.44+6361.99+2137.07+6342.98+2137.07C6323.98+2137.07+6308.57+2121.44+6308.57+2102.14Z" opacity="1" fill="#ffffff"/>
<path d="M6176.21+2102.14C6176.21+2082.85+6191.61+2067.21+6210.62+2067.21C6229.62+2067.21+6245.03+2082.85+6245.03+2102.14C6245.03+2121.44+6229.62+2137.07+6210.62+2137.07C6191.61+2137.07+6176.21+2121.44+6176.21+2102.14Z" opacity="1" fill="#ffffff"/>
<path d="M6042.16+2102.14C6042.16+2082.85+6057.56+2067.21+6076.57+2067.21C6095.57+2067.21+6110.98+2082.85+6110.98+2102.14C6110.98+2121.44+6095.57+2137.07+6076.57+2137.07C6057.56+2137.07+6042.16+2121.44+6042.16+2102.14Z" opacity="1" fill="#ffffff"/>
</g>
</g>
<path d="M2250.18+1769.57L2234.85+1912.97L2710.56+1925.01L2250.18+1769.57Z" opacity="1" fill="#0081c3"/>
<path d="M2254.71+1713.15L2245.22+1804.07L2550.53+1868.64L2254.71+1713.15Z" opacity="1" fill="#1172ba"/>
<path d="M2318.6+1645.58L2254.48+1714.11L2522.52+1857.49L2185.47+1767.69L2103.47+1831.19L2731.3+1928.82L2318.6+1645.58Z" opacity="1" fill="#2baae2"/>
<path stroke="#2baae2" stroke-opacity="0.138889" stroke-width="15.78" d="M3874.11+5835.46L3466.9+5781.87C3456.45+5780.49+3444.71+5771.48+3440.67+5761.74L3283.47+5382.29C3279.44+5372.55+3281.37+5357.88+3287.79+5349.51L3537.8+5023.65C3544.22+5015.29+3557.89+5009.62+3568.35+5011L3975.56+5064.59C3986.01+5065.96+3997.76+5074.97+4001.79+5084.71L4158.99+5464.16C4163.02+5473.9+4161.09+5488.58+4154.67+5496.94L3904.66+5822.8C3898.24+5831.17+3884.57+5836.83+3874.11+5835.46Z" fill="none" stroke-linecap="round" opacity="1" stroke-linejoin="round"/>
<path stroke="#2baae2" stroke-opacity="0.138889" stroke-width="15.78" d="M3128.32+3428.21L2823.82+3388.14C2816+3387.11+2807.22+3380.37+2804.21+3373.09L2686.66+3089.35C2683.64+3082.06+2685.09+3071.09+2689.88+3064.83L2876.84+2821.16C2881.64+2814.91+2891.86+2810.67+2899.68+2811.7L3204.18+2851.77C3212+2852.8+3220.78+2859.54+3223.8+2866.82L3341.34+3150.57C3344.36+3157.85+3342.92+3168.82+3338.12+3175.08L3151.16+3418.75C3146.36+3425+3136.14+3429.24+3128.32+3428.21Z" fill="none" stroke-linecap="round" opacity="1" stroke-linejoin="round"/>
<path stroke="#2baae2" stroke-opacity="0.138889" stroke-width="15.78" d="M723.989+4583.45L500.896+4456.81C495.17+4453.55+490.489+4445.58+490.441+4439L488.574+4182.47C488.526+4175.88+493.09+4167.84+498.769+4164.51L719.995+4034.63C725.674+4031.3+734.919+4031.23+740.645+4034.48L963.739+4161.13C969.465+4164.38+974.146+4172.35+974.194+4178.93L976.06+4435.46C976.108+4442.05+971.544+4450.09+965.866+4453.42L744.639+4583.3C738.961+4586.64+729.716+4586.7+723.989+4583.45Z" fill="none" stroke-linecap="round" opacity="1" stroke-linejoin="round"/>
<path stroke="#2baae2" stroke-opacity="0.138889" stroke-width="15.78" d="M5131.56+2682.35L4650.72+2514.22C4638.37+2509.91+4626.4+2496+4623.96+2483.15L4529.14+1982.66C4526.71+1969.82+4532.77+1952.49+4542.68+1943.96L4928.7+1611.6C4938.61+1603.07+4956.65+1599.65+4968.99+1603.97L5449.83+1772.09C5462.17+1776.41+5474.15+1790.32+5476.59+1803.17L5571.4+2303.65C5573.84+2316.5+5567.78+2333.83+5557.87+2342.36L5171.85+2674.72C5161.94+2683.25+5143.9+2686.67+5131.56+2682.35Z" fill="none" stroke-linecap="round" opacity="1" stroke-linejoin="round"/>
<path stroke="#2baae2" stroke-width="15.22" d="M6940.97+2873.9C6843.96+2873.9+6763.39+2937.5+6752.59+3020.54C6743.39+3019.05+6734.1+3018.02+6724.75+3018.02C6645.65+3018.02+6580.72+3069.89+6580.72+3135.22C6580.72+3195.48+6636.29+3245.01+6708.28+3251.67C6708.28+3251.67+6724.85+3253.52+6731.2+3254.19C6749.31+3256.1+6768.99+3258.02+6789.5+3259.8C6819.31+3262.4+6848.34+3264.48+6875.69+3265.91C6901.26+3267.25+6924.68+3267.98+6945.47+3267.98C6997.72+3267.98+7048.06+3265.71+7115.77+3261.12C7123.4+3260.61+7165.15+3257.7+7175.94+3256.99C7253.18+3252.2+7313.99+3198.9+7313.99+3133.48C7313.99+3085.89+7281.49+3043.78+7231.94+3023.02C7226.65+2979.3+7185.39+2945.84+7135.84+2945.84C7124.13+2945.84+7112.7+2947.83+7101.86+2951.5C7067.41+2903.68+7007.18+2873.9+6940.97+2873.9Z" fill="#2baae2" stroke-linecap="round" fill-opacity="0.0631313" opacity="0.196035" stroke-linejoin="round"/>
<path stroke="#2baae2" stroke-width="15.22" d="M3310.27+727.644C3213.26+727.644+3132.69+791.244+3121.89+874.281C3112.69+872.787+3103.4+871.763+3094.06+871.762C3014.95+871.763+2950.02+923.631+2950.02+988.957C2950.02+1049.22+3005.59+1098.75+3077.58+1105.41C3077.58+1105.41+3094.15+1107.26+3100.5+1107.93C3118.62+1109.84+3138.29+1111.76+3158.81+1113.54C3188.61+1116.14+3217.65+1118.22+3244.99+1119.65C3270.56+1120.99+3293.98+1121.72+3314.78+1121.72C3367.02+1121.72+3417.36+1119.45+3485.08+1114.86C3492.71+1114.35+3534.45+1111.44+3545.24+1110.74C3622.48+1105.94+3683.29+1052.64+3683.29+987.222C3683.29+939.627+3650.8+897.523+3601.24+876.759C3595.95+833.045+3554.69+799.578+3505.14+799.579C3493.43+799.579+3482+801.568+3471.16+805.237C3436.71+757.416+3376.48+727.644+3310.27+727.644Z" fill="#2baae2" stroke-linecap="round" fill-opacity="0.0631313" opacity="0.196035" stroke-linejoin="round"/>
<path stroke="#2baae2" stroke-width="15.22" d="M1565.35+2278.4C1468.33+2278.4+1387.76+2342+1376.96+2425.03C1367.76+2423.54+1358.48+2422.52+1349.13+2422.52C1270.02+2422.52+1205.09+2474.38+1205.09+2539.71C1205.09+2599.97+1260.66+2649.5+1332.65+2656.16C1332.65+2656.16+1349.23+2658.01+1355.57+2658.68C1373.69+2660.59+1393.37+2662.51+1413.88+2664.3C1443.68+2666.89+1472.72+2668.98+1500.06+2670.41C1525.63+2671.75+1549.05+2672.47+1569.85+2672.47C1622.09+2672.47+1672.44+2670.2+1740.15+2665.62C1747.78+2665.1+1789.52+2662.2+1800.32+2661.49C1877.55+2656.7+1938.36+2603.4+1938.36+2537.98C1938.36+2490.38+1905.87+2448.28+1856.31+2427.51C1851.03+2383.8+1809.76+2350.33+1760.22+2350.33C1748.5+2350.33+1737.07+2352.32+1726.23+2355.99C1691.79+2308.17+1631.55+2278.4+1565.35+2278.4Z" fill="#2baae2" stroke-linecap="round" fill-opacity="0.0631313" opacity="0.196035" stroke-linejoin="round"/>
<path stroke="#2baae2" stroke-width="15.22" d="M4849.49+4555.26C4752.47+4555.26+4671.9+4618.86+4661.1+4701.9C4651.9+4700.4+4642.62+4699.38+4633.27+4699.38C4554.16+4699.38+4489.23+4751.25+4489.23+4816.57C4489.23+4876.83+4544.8+4926.36+4616.79+4933.02C4616.79+4933.02+4633.37+4934.87+4639.71+4935.54C4657.83+4937.46+4677.51+4939.37+4698.02+4941.16C4727.82+4943.75+4756.86+4945.84+4784.2+4947.27C4809.77+4948.61+4833.19+4949.34+4853.99+4949.33C4906.23+4949.33+4956.58+4947.07+5024.29+4942.48C5031.92+4941.96+5073.66+4939.06+5084.46+4938.35C5161.69+4933.56+5222.5+4880.26+5222.5+4814.84C5222.5+4767.24+5190.01+4725.14+5140.45+4704.37C5135.17+4660.66+5093.9+4627.19+5044.36+4627.19C5032.65+4627.19+5021.21+4629.18+5010.37+4632.85C4975.93+4585.03+4915.69+4555.26+4849.49+4555.26Z" fill="#2baae2" stroke-linecap="round" fill-opacity="0.0631313" opacity="0.196035" stroke-linejoin="round"/>
<path stroke="#2baae2" stroke-opacity="0.237374" stroke-width="15.22" d="M2026.19+1709.37C2026.19+1709.37+1310.46+1506.76+955.017+1836.61C585.138+2179.86+546.67+2733.2+934.303+2955.12C1659.44+3370.28+1896.24+2997.57+2206.77+3556.96C2517.3+4116.34+1567.68+4404.52+1567.68+4404.52" fill="none" stroke-linecap="round" opacity="1" stroke-linejoin="round" stroke-dasharray="50,50,50,50"/>
</g>
<g id="Слой 1" vectornator:layerName="Слой 1">
<path d="M1258.9+4827.95C1258.9+4827.95+1274.34+4684.5+1231.83+4643.64C1189.33+4602.77+1133.45+4690.77+1105.38+4638.83C1077.32+4586.89+1146.91+4539.89+1094.31+4465.92C1054.22+4409.55+987.879+4500.8+946.489+4450.65C905.099+4400.5+977.015+4318.11+942.642+4248.9C908.269+4179.68+834.125+4211.4+808.996+4173.8C783.346+4135.42+856.863+4083.86+787.546+4037.39C712.033+3986.76+702.03+4077.21+640.136+4062.36C593.605+4051.19+556.015+3943.42+477.093+4006C410.857+4058.52+473.138+4137.23+473.185+4197.78C473.245+4273.93+413.097+4275.77+455.155+4354.56C483.706+4408.04+557.247+4361.13+589.986+4410.27C622.726+4459.42+533.717+4495.17+586.115+4551.14C638.512+4607.11+743.946+4576.35+775.998+4617.6C808.05+4658.85+740.47+4754.37+787.533+4805.09C834.596+4855.81+912.95+4808.09+968.804+4851.35C1024.66+4894.6+943.072+4970.81+999.308+5013.8C1055.54+5056.79+1212.77+5009+1212.77+5009L1258.9+4827.95Z" opacity="1" fill="#0081c3"/>
<path d="M1499.99+4874.19C1499.99+4874.19+1622.76+4722.74+1599.85+4648.79C1576.94+4574.84+1490.55+4627.36+1493.46+4550.42C1496.38+4473.48+1585.33+4473.65+1558.6+4358.28C1532.38+4245.15+1462.68+4307.67+1447.86+4224C1433.03+4140.32+1508.13+4137.98+1515.74+4037.44C1523.36+3936.9+1418.1+3936.93+1408.54+3878.73C1399.72+3825.03+1521+3799.4+1469.05+3701.52C1412.46+3594.89+1355.48+3662.78+1289.83+3605.39C1240.48+3562.25+1176+3442.1+1073.12+3457.08C968.934+3472.26+1029.6+3580.04+985.884+3648.28C930.903+3734.1+855.34+3696.67+850.289+3813.04C846.86+3892.04+937.26+3890.85+936.973+3952.85C936.685+4014.85+845.59+4023.03+869.792+4120.5C893.993+4217.96+1001.78+4240.63+1013.26+4313.14C1023.92+4380.52+913.367+4450.8+934.781+4538.84C956.195+4626.89+1048.06+4634.2+1085.72+4719.61C1123.39+4805.02+1006.93+4827.68+1045.25+4913.04C1083.58+4998.4+1312.17+5047.84+1312.17+5047.84L1499.99+4874.19Z" opacity="1" fill="#2baae2"/>
<path d="M1456.79+5025.23C1456.79+5025.23+1648.22+4975.95+1682.74+4910.87C1717.25+4845.78+1616.63+4818.38+1669.32+4767.17C1722.02+4715.95+1778.17+4773.53+1848.92+4685.26C1902.84+4617.99+1799.4+4567.62+1845.41+4500.82C1891.43+4434.02+1986.16+4494.07+2057.41+4429.5C2128.66+4364.93+2065.43+4285.38+2101.94+4242.46C2139.21+4198.66+2226+4270.9+2258.12+4171.4C2293.1+4063.02+2181.3+4080.73+2178.04+4000.68C2175.59+3940.51+2291.95+3859.3+2190.11+3784.14C2104.64+3721.06+2031.5+3822.64+1958.95+3842.69C1867.7+3867.89+1845.04+3795.47+1764.93+3872.53C1710.55+3924.85+1791.79+3998.65+1744.03+4054.61C1696.28+4110.58+1623.15+4014.32+1573.9+4096.4C1524.64+4178.49+1571.46+4279.38+1532.92+4331.91C1494.39+4384.44+1382.86+4350.86+1338.09+4424.74C1293.31+4498.62+1356.05+4567+1323.21+4649.08C1290.38+4731.17+1192.4+4668.26+1160.01+4750.72C1127.63+4833.19+1240.28+5028.08+1240.28+5028.08L1456.79+5025.23Z" opacity="1" fill="#0081c3"/>
<path d="M1058.39+5113.62L1131.76+5612.6L1427.92+5610.38L1477.62+5109.38L1058.39+5113.62Z" opacity="1" fill="#135eab"/>
<path d="M1061.33+5132.22L1476.15+5126.6L1469.62+5174.02L1067.69+5175.78L1061.33+5132.22Z" opacity="1" fill="#2e3690"/>
<path d="M971.654+5024.95L1574.26+5014.89L1560.65+5130.11L979.908+5136.46L971.654+5024.95Z" opacity="1" fill="#135eab"/>
</g>
<g id="Слой 14" vectornator:layerName="Слой 14">
<path stroke="#2e3690" stroke-width="25.19" d="M3983.24+5189.66L3328.84+5183.18" fill="#ffffff" stroke-linecap="round" opacity="1" stroke-linejoin="round"/>
<path stroke="#2e3690" stroke-width="25.19" d="M4331.96+3005.59L3942.39+5545.63" fill="#ffffff" stroke-linecap="round" opacity="1" stroke-linejoin="round"/>
<path stroke="#2e3690" stroke-width="25.19" d="M3651.5+2995.2L3267.12+5535.24" fill="#ffffff" stroke-linecap="round" opacity="1" stroke-linejoin="round"/>
<path stroke="#2e3690" stroke-width="25.19" d="M4232.68+3514.79L3568.57+3511.55" fill="#ffffff" stroke-linecap="round" opacity="1" stroke-linejoin="round"/>
<path stroke="#2e3690" stroke-width="25.19" d="M4180.85+3948.9L3519.97+3948.9L4180.85+3948.9Z" fill="#ffffff" stroke-linecap="round" opacity="1" stroke-linejoin="round"/>
<path stroke="#2e3690" stroke-width="25.19" d="M4119.3+4360.32L3448.7+4353.84" fill="#ffffff" stroke-linecap="round" opacity="1" stroke-linejoin="round"/>
<path stroke="#2e3690" stroke-width="25.19" d="M4038.31+4771.75L3387.15+4768.51" fill="#ffffff" stroke-linecap="round" opacity="1" stroke-linejoin="round"/>
</g>
<g id="Слой 5" vectornator:layerName="Слой 5">
<path d="M3747.64+3073.49L3767.94+3217.35L3816.88+3218.05L3825.92+3045.26L3747.64+3073.49Z" opacity="1" fill="#ab7c59"/>
<path d="M4037.2+3080.81L4050.59+3211.58L4096.44+3210L4108.24+3076.1L4037.2+3080.81Z" opacity="1" fill="#ab7c59"/>
<path d="M3747.4+3198.39C3747.4+3198.39+3703.94+3255.21+3731.59+3304.99L3828.36+3319.15C3828.36+3319.15+3950.89+3349.88+3984.51+3339.75C4018.12+3329.61+3961.67+3289.47+3961.67+3289.47L3876.41+3235.87L3827.29+3200.57L3747.4+3198.39Z" opacity="1" fill="#272361"/>
<path d="M4033.67+3192.47C4033.67+3192.47+3990.2+3249.28+4017.86+3299.06L4114.63+3313.23C4114.63+3313.23+4237.15+3343.96+4270.77+3333.82C4304.39+3323.68+4247.94+3283.55+4247.94+3283.55L4162.68+3229.94L4113.56+3194.64L4033.67+3192.47Z" opacity="1" fill="#272361"/>
<path d="M3635.8+1577.48C3635.8+1577.48+3563.36+2886.41+3670.26+3247.86C3670.26+3247.86+3742.1+3258.78+3801.49+3249.01C3860.88+3239.24+3903.41+3215.7+3903.41+3215.7C3946.21+2819.7+3945.7+1937.45+3945.7+1937.45C3945.7+1937.45+3879.17+2872.55+3978.51+3213.72C3978.51+3213.72+4038.73+3225.38+4093.83+3225.89C4148.93+3226.39+4205.45+3197.53+4205.45+3197.53C4278.27+2830.13+4166.82+1580.23+4166.82+1580.23L3635.8+1577.48Z" opacity="1" fill="#2baae2"/>
<path d="M3981.24+1827.88C3981.24+1827.88+3989.41+1871.06+3971.7+1893.55C3953.99+1916.04+3949.91+1909.27+3947.83+1929.17C3941.27+1991.8+3948.79+1972.41+3951.25+2169.06C3953.71+2365.7+3939.57+2658.14+3931.14+2806.62C3926.84+2882.38+3942.93+3038.77+3962.4+3135.22C3972.73+3186.39+3979.27+3214.92+3979.27+3214.92C3979.27+3214.92+3955.98+2661.6+3969.06+2366.78C3982.51+2063.68+3966.29+1941.89+3966.29+1941.89C3966.29+1941.89+3963.06+1918.27+3976.67+1903.47C4000.62+1877.44+3981.24+1827.88+3981.24+1827.88Z" opacity="1" fill="#0081c3"/>
<path d="M3896.07+552.626C3921.32+511.864+3848.6+204.137+3848.6+204.137C3848.6+204.137+3952.08+233.616+4029.01+226.722C4043.22+225.448+4045.04+224.985+4057.47+220.798C4059.18+220.22+4079+248.674+4086.89+275.299C4096.65+308.239+4096.55+338.454+4098.02+334.909C4099.73+330.801+4098.52+293.596+4089.51+260.094C4082.57+234.323+4062.53+194.468+4062.53+194.468L3937.1+147.922L3788.8+216.626C3788.8+216.626+3783.56+324.362+3813.96+526.485C3821.21+574.646+3695.99+520.36+3668.37+610.775C3640.74+701.189+3696.93+770.437+3592.96+763.667C3530.21+759.581+3816.27+810.43+3847.68+801.409C3905.32+784.858+3870.82+593.389+3896.07+552.626Z" opacity="1" fill="#135eab"/>
<path d="M3813.37+526.323C3813.37+526.323+3819.95+529.931+3829.18+533.008C3838.4+536.085+3850.27+538.631+3850.27+538.631L3847.94+503.517C3847.94+503.517+3839.22+501.676+3829.39+498.259C3819.55+494.842+3808.6+489.85+3808.6+489.85C3808.6+489.85+3807.22+500.624+3808.48+510.338C3809.73+520.053+3813.37+526.323+3813.37+526.323Z" opacity="1" fill="#272361"/>
<path d="M3840.29+457.162C3840.29+457.162+3850.54+528.086+3847.36+584.55C3844.18+641.015+3827.58+683.02+3827.58+683.02C3827.58+683.02+3824.57+764.674+3875.37+789.32C3926.17+813.966+4030.79+781.606+4030.79+781.606C4030.79+781.606+3998.15+684.961+3998.47+608.002C3998.78+531.043+4032.06+473.769+4032.06+473.769L3840.29+457.162Z" opacity="1" fill="#ab7c59"/>
<path d="M3824.19+452.515C3824.19+452.515+3850.54+528.086+3847.36+584.55C3844.18+641.015+3827.58+683.02+3827.58+683.02C3827.58+683.02+3880.81+634.387+3923.43+621.021C3966.06+607.655+3999.86+586.566+3999.86+586.566C3999.86+586.566+4001.15+562.93+4003.64+547.458C4014.15+482.038+4032.06+473.769+4032.06+473.769L3824.19+452.515Z" opacity="1" fill="#896447"/>
<path d="M3626.13+1652.25C3626.13+1652.25+3614.89+1669.89+3614.86+1686.89C3614.82+1703.89+3625.02+1720.8+3625.02+1720.8C3625.02+1720.8+3755.72+1735.06+3893.65+1736.3C4031.57+1737.54+4176.72+1725.77+4176.72+1725.77C4176.72+1725.77+4183.8+1714.57+4182.8+1697.42C4181.8+1680.26+4174.91+1660.25+4174.91+1660.25L3626.13+1652.25Z" opacity="1" fill="#1172ba"/>
<path d="M3837.37+661.013C3837.37+661.013+3876.55+712.077+3922.84+721.371C3977.76+732.399+4020.25+679.833+4020.25+679.833C4020.25+679.833+4151.18+691.312+4233.87+775.658C4316.57+860.003+4307.91+893.442+4331.61+1016.09C4355.31+1138.74+4360.73+1163.95+4356.72+1216.91C4349.92+1306.56+4408.72+1401.91+4402.72+1443.91C4396.35+1488.47+4424.19+1561.43+4375.19+1593.03C4318.26+1629.75+4293.46+1570.97+4276.44+1546.55C4257.46+1519.32+4242.08+1486.43+4242.08+1486.43C4242.08+1486.43+4251+1606.38+4266.72+1626.91C4323.97+1701.72+3994.5+1689.91+3904.31+1686.78C3751.05+1681.46+3617.11+1728.24+3561.22+1623.88C3508.76+1525.93+3587.53+1375.03+3587.53+1375.03C3587.53+1375.03+3482.64+1070.74+3542.01+898.544C3601.38+726.346+3837.37+661.013+3837.37+661.013Z" opacity="1" fill="#272361"/>
<path d="M3762.82+955.502C3781.84+862.787+3750.26+793.882+3696.95+785.364C3641.8+776.551+3570.34+772.35+3530.07+930.271C3489.81+1088.19+3506.03+1378.83+3553.53+1465.64C3578.69+1511.61+3601.99+1543.77+3601.99+1543.77L3688.73+1679.28C3688.73+1679.28+3714.13+1676.8+3739+1671.44C3763.87+1666.07+3787.77+1663+3787.77+1663C3787.77+1663+3785.2+1534.66+3761.89+1416.8C3741.85+1315.49+3701.49+1267.9+3692.87+1255.5C3659.98+1208.17+3743.81+1048.22+3762.82+955.502Z" opacity="1" fill="#1172ba"/>
<path d="M3773.46+1676.39C3773.46+1676.39+3758.6+1592.81+3730.65+1494.83C3702.7+1396.85+3705.73+1401.64+3684.54+1344.22C3652.73+1258.02+3613.12+1241.75+3645.79+1140.68C3679.03+1037.87+3666.2+972.649+3616.52+949.048C3585.12+934.134+3545.74+988.556+3535.73+1091.64C3525.73+1194.73+3553.96+1298.17+3576.5+1361.4C3599.04+1424.64+3621.48+1458.61+3648.39+1526.3C3695.09+1643.73+3722.1+1688.47+3722.1+1688.47C3722.1+1688.47+3706.37+1878.88+3722.52+1873.4C3738.67+1867.93+3721.7+1817.42+3732.4+1813.94C3743.1+1810.47+3744.42+1898.56+3760.63+1892.28C3776.83+1886+3748.86+1815.33+3757+1813.16C3765.14+1811+3777.17+1890.47+3793.17+1883.62C3809.17+1876.78+3776.43+1799.68+3785.28+1795.53C3794.12+1791.38+3814.99+1874.69+3828.56+1867.03C3842.13+1859.37+3802.23+1788.48+3810.76+1767.83C3819.29+1747.19+3859.77+1804.21+3862.69+1784.46C3865.6+1764.7+3773.46+1676.39+3773.46+1676.39Z" opacity="1" fill="#ab7c59"/>
<path d="M3765.91+921.388C3784.92+828.674+3748.3+768.686+3694.99+760.167C3639.84+751.355+3558.99+768.858+3518.73+926.779C3478.46+1084.7+3444.71+1334.99+3512.39+1407.19C3572+1470.78+3686.64+1687.17+3686.64+1687.17C3686.64+1687.17+3703.15+1644.43+3728.66+1638.32C3754.17+1632.21+3788.69+1662.72+3788.69+1662.72C3788.69+1662.72+3769.74+1498.38+3756.21+1413.06C3751+1380.21+3738.7+1348.13+3725.93+1321.59C3710.14+1288.78+3693.62+1264.44+3688.86+1257.59C3664.55+1222.61+3707.88+1106.32+3739.82+1010.59C3751.09+976.804+3760.95+945.576+3765.91+921.388Z" opacity="1" fill="#2e3690"/>
<path d="M3744.38+222.305C3715.64+297.767+3752.93+352.67+3776.32+398.548C3785.79+417.118+3795.82+454.006+3842.99+519.485C3871.23+558.688+3961.92+593.384+4008.51+588.985C4067.93+583.376+4102.18+448.733+4098.2+349.298C4096.02+294.771+4085.47+242.091+4058.62+211.528C4036.51+186.356+4024.52+154.247+3984.31+140.901C3895.28+111.352+3761.56+177.199+3744.38+222.305Z" opacity="1" fill="#ab7c59"/>
<path d="M3752.91+425.641C3770.62+449.428+3819.22+510.769+3816.73+485.447C3808.05+396.984+3862.98+389.825+3862.98+389.825C3862.98+389.825+3843.61+324.317+3873.39+271.729C3900.98+222.996+3942.26+194.488+4016.05+202.185C4065.09+207.301+4081.13+252.713+4089.02+279.338C4098.78+312.278+4098.68+342.493+4100.15+338.947C4101.86+334.84+4097+268.452+4094.24+251.251C4091.47+234.05+4079.25+191.487+4060.74+172.27C4035.65+146.21+3998.28+111.772+3947.98+104.954C3889.74+97.0598+3810.43+114.475+3757.39+179.022C3734.85+206.464+3707.76+263.224+3709.31+310.177C3711.4+373.346+3737.14+404.469+3752.91+425.641Z" opacity="1" fill="#135eab"/>
<path d="M4195.47+984.496C4195.47+984.496+4180.83+1127.99+4184.94+1222.08C4189.04+1316.18+4197.01+1281.35+4212.51+1351.02C4228.01+1420.68+4243.15+1503.34+4243.15+1503.34L4241.44+1483.84C4248.25+1497.72+4263.54+1528.48+4277.01+1548.48C4294.12+1573.89+4325.9+1598.65+4325.9+1598.65C4325.9+1598.65+4287.42+1551.31+4305.79+1551.99C4324.15+1552.67+4349.88+1552.18+4363.82+1538.24C4380.33+1521.73+4389.16+1536.51+4396.99+1551.9C4404.81+1567.28+4372.53+1584.19+4372.53+1584.19L4328.77+1601.92C4328.77+1601.92+4264.73+1539.5+4243.54+1480.27C4242.69+1477.89+4241.71+1485.95+4241.01+1483.58C4224.86+1429.53+4228.26+1421.56+4216.45+1349.96C4204.78+1279.2+4195.73+1312.71+4190.17+1221.49C4184.61+1130.28+4195.47+984.496+4195.47+984.496Z" opacity="1" fill="#1172ba"/>
<path d="M4340.85+1586.13L4335.61+1555.88C4335.61+1555.88+4345.81+1545.02+4360.38+1544.47C4374.96+1543.93+4389.26+1547.33+4389.26+1547.33L4392.55+1575.62C4392.55+1575.62+4486.49+1741.99+4469.53+1743.77C4452.57+1745.55+4446.86+1692.57+4435.68+1693.89C4424.51+1695.22+4460.16+1775.78+4442.81+1776.86C4425.47+1777.93+4421.31+1702.04+4413.01+1703.48C4404.72+1704.92+4427.03+1782.13+4409.63+1782.61C4392.23+1783.08+4389.72+1699.36+4379.95+1699.29C4370.18+1699.22+4386.08+1783.62+4370.54+1782.34C4355.01+1781.05+4361.6+1699.97+4345.22+1684.79C4328.84+1669.61+4315.92+1738.34+4305.01+1721.61C4294.1+1704.89+4340.85+1586.13+4340.85+1586.13Z" opacity="1" fill="#ab7c59"/>
<path d="M3919.03+374.846C3917.93+366.362+3923.16+359.144+3930.7+358.723C3938.25+358.303+3945.25+364.841+3946.35+373.325C3947.45+381.809+3942.22+389.027+3934.68+389.447C3927.13+389.867+3920.12+383.33+3919.03+374.846Z" opacity="1" fill="#272361"/>
<path d="M4036.82+368.73C4035.63+360.241+4041.16+353.039+4049.17+352.646C4057.19+352.252+4064.65+358.815+4065.85+367.305C4067.04+375.794+4061.51+382.996+4053.5+383.389C4045.48+383.783+4038.02+377.22+4036.82+368.73Z" opacity="1" fill="#272361"/>
<path d="M3948.12+484.324C3946.07+474.683+3980.13+486.454+4006.56+484.402C4032.99+482.351+4045.44+477.265+4047.49+486.906C4049.53+496.548+4036.3+516.625+4009.87+518.677C3983.43+520.728+3950.16+493.966+3948.12+484.324Z" opacity="1" fill="#e0e0e0"/>
<path d="M4035.72+304.519L4061.83+306.475C4066.59+306.832+4070.24+309.944+4070+313.428L4070+313.428C4069.76+316.911+4065.7+319.446+4060.95+319.09L4034.84+317.134C4030.08+316.778+4026.43+313.665+4026.67+310.182L4026.67+310.182C4026.92+306.698+4030.97+304.163+4035.72+304.519Z" opacity="1" fill="#272361"/>
<path d="M3909.99+304.116L3936.1+302.052C3940.85+301.676+3944.94+304.193+3945.23+307.673L3945.23+307.673C3945.52+311.152+3941.91+314.278+3937.15+314.654L3911.05+316.718C3906.3+317.094+3902.21+314.577+3901.91+311.097L3901.91+311.097C3901.62+307.618+3905.24+304.492+3909.99+304.116Z" opacity="1" fill="#272361"/>
<path stroke="#828282" stroke-width="8.77" d="M3880.75+375.066C3882.28+347.862+3906.15+327.083+3934.06+328.654C3961.97+330.225+3983.35+353.553+3981.82+380.757C3980.28+407.961+3956.42+428.741+3928.51+427.169C3900.6+425.598+3879.22+402.27+3880.75+375.066Z" fill="none" stroke-linecap="round" opacity="1" stroke-linejoin="round"/>
<path stroke="#828282" stroke-width="8.77" d="M4011.47+370.619C4012.98+343.896+4036.18+323.471+4063.31+324.998C4090.43+326.525+4111.2+349.427+4109.69+376.15C4108.19+402.873+4084.98+423.298+4057.86+421.771C4030.73+420.244+4009.97+397.342+4011.47+370.619Z" fill="none" stroke-linecap="round" opacity="1" stroke-linejoin="round"/>
<path stroke="#828282" stroke-width="8.77" d="M3983.73+368.476C3983.73+368.476+3989.74+365.376+3995.68+365.087C4001.62+364.797+4007.49+367.32+4007.49+367.32" fill="none" stroke-linecap="round" opacity="1" stroke-linejoin="round"/>
<path stroke="#828282" stroke-width="7.95" d="M4108.62+364.599L4098.06+364.711" fill="none" stroke-linecap="butt" opacity="1" stroke-linejoin="round"/>
<path stroke="#828282" stroke-width="8.86" d="M3877.69+379.534L3755.49+391.141" fill="none" stroke-linecap="round" opacity="1" stroke-linejoin="round"/>
<path d="M3847.61+369.178C3829.19+341.24+3810.77+334.512+3796.87+339.189C3782.97+343.865+3778.42+356.563+3783.51+383.403C3787.49+404.348+3801+427.177+3815.44+441.737C3826+452.393+3843.08+443.728+3846.51+438.953C3849.93+434.179+3868.34+448.839+3870.55+450.94C3872.76+453.04+3866.03+397.116+3847.61+369.178Z" opacity="1" fill="#ab7c59"/>
<path d="M3835.91+659.271C3835.91+659.271+3886.28+715.994+3930.33+722.094C3974.38+728.194+4006.32+681.279+4006.32+681.279C4006.32+681.279+4017.54+674.054+4025.51+675.38C4033.48+676.707+4044.76+682.797+4044.76+682.797C4044.76+682.797+4033.29+758.917+3940.18+758.276C3853.17+757.677+3803.63+671.317+3803.63+671.317C3803.63+671.317+3808.76+666.714+3816.88+662.451C3825.01+658.187+3835.91+659.271+3835.91+659.271Z" opacity="1" fill="#2baae2"/>
<path d="M4397.6+1552.9C4397.6+1552.9+4379.47+1542.9+4347.29+1559.75C4330.25+1568.67+4325+1578.59+4324.21+1586.6C4323.6+1592.8+4323.65+1601.17+4332.23+1599.86C4344.41+1598+4332.94+1603.32+4328.11+1602.23C4318.5+1600.05+4308.27+1585.04+4290.46+1566.21C4278.66+1553.72+4244.96+1493.69+4241.3+1484.28C4232.12+1460.66+4312.01+1463.41+4312.01+1463.41C4312.01+1463.41+4352.01+1449.15+4377.76+1455.25C4403.51+1461.36+4397.6+1552.9+4397.6+1552.9Z" opacity="1" fill="#2baae2"/>
</g>
<g id="Слой 9" vectornator:layerName="Слой 9">
<path d="M3231.05+2594.1L3917.7+2596.9C3917.7+2596.9+3819.99+2495.94+3833.02+2401.49C3846.04+2307.04+3935.81+2231.84+4044.71+2238.65C4201.05+2248.42+4241.76+2349.38+4238.5+2414.52C4233.84+2507.74+4171.73+2596.9+4171.73+2596.9L4842.66+2631.77L4842.65+1851.08C4842.65+1851.08+4936.44+1945.47+5071.72+1933.02C5205.01+1920.75+5274.3+1807.66+5275.5+1688.3C5276.9+1550.29+5132.14+1464.05+5003.94+1470.43C4894.49+1475.88+4834.5+1576.78+4834.5+1576.78L4834.5+1014.23L3658.19+1001.3C3450.72+999.019+3277.12+1165.28+3270.43+1372.65L3231.05+2594.1Z" opacity="1" fill="#135eab"/>
</g>
<g id="Слой 15" vectornator:layerName="Слой 15">
<path d="M3762.82+955.502C3781.84+862.787+3750.26+793.882+3696.95+785.364C3641.8+776.551+3570.34+772.35+3530.07+930.271C3489.81+1088.19+3506.03+1378.83+3553.53+1465.64C3578.69+1511.61+3601.99+1543.77+3601.99+1543.77L3688.73+1679.28C3688.73+1679.28+3714.13+1676.8+3739+1671.44C3763.87+1666.07+3787.77+1663+3787.77+1663C3787.77+1663+3785.2+1534.66+3761.89+1416.8C3741.85+1315.49+3701.49+1267.9+3692.87+1255.5C3659.98+1208.17+3743.81+1048.22+3762.82+955.502Z" opacity="1" fill="#2e3690"/>
<path d="M3773.46+1676.39C3773.46+1676.39+3758.6+1592.81+3730.65+1494.83C3702.7+1396.85+3705.73+1401.64+3684.54+1344.22C3652.73+1258.02+3613.12+1241.75+3645.79+1140.68C3679.03+1037.87+3666.2+972.649+3616.52+949.048C3585.12+934.134+3545.74+988.556+3535.73+1091.64C3525.73+1194.73+3553.96+1298.17+3576.5+1361.4C3599.04+1424.64+3621.48+1458.61+3648.39+1526.3C3695.09+1643.73+3722.1+1688.47+3722.1+1688.47C3722.1+1688.47+3706.37+1878.88+3722.52+1873.4C3738.67+1867.93+3721.7+1817.42+3732.4+1813.94C3743.1+1810.47+3744.42+1898.56+3760.63+1892.28C3776.83+1886+3748.86+1815.33+3757+1813.16C3765.14+1811+3777.17+1890.47+3793.17+1883.62C3809.17+1876.78+3776.43+1799.68+3785.28+1795.53C3794.12+1791.38+3814.99+1874.69+3828.56+1867.03C3842.13+1859.37+3802.23+1788.48+3810.76+1767.83C3819.29+1747.19+3859.77+1804.21+3862.69+1784.46C3865.6+1764.7+3773.46+1676.39+3773.46+1676.39Z" opacity="1" fill="#ab7c59"/>
<path d="M3765.91+921.388C3784.92+828.674+3748.3+768.686+3694.99+760.167C3639.84+751.355+3558.99+768.858+3518.73+926.779C3478.46+1084.7+3444.71+1334.99+3512.39+1407.19C3572+1470.78+3686.64+1687.17+3686.64+1687.17C3686.64+1687.17+3703.15+1644.43+3728.66+1638.32C3754.17+1632.21+3788.69+1662.72+3788.69+1662.72C3788.69+1662.72+3769.74+1498.38+3756.21+1413.06C3751+1380.21+3738.7+1348.13+3725.93+1321.59C3710.14+1288.78+3693.62+1264.44+3688.86+1257.59C3664.26+1222.2+3708.89+1103.61+3740.92+1007.27C3751.73+974.76+3761.11+944.781+3765.91+921.388Z" opacity="1" fill="#272361"/>
</g>
<g id="Слой 7" vectornator:layerName="Слой 7">
<path d="M2822.31+2838.16C2843.65+2869.72+2818.86+2828.88+2844.99+2785.52C2860.88+2759.15+2835.19+2674.81+2858.14+2643.77C2881.1+2612.74+2898.64+2650.8+2898.64+2650.8C2898.64+2650.8+3026.96+2651.42+3013.63+2672.12C3000.3+2692.83+3059.03+2705.62+3070.95+2701.66C3072.6+2701.11+3098.26+2702.91+3105.7+2728.51C3114.91+2760.17+3129.39+2771.72+3130.82+2768.32C3132.47+2764.39+3131.76+2719+3131.02+2688.5C3130.29+2658+3122.71+2636.59+3122.71+2636.59C3122.71+2636.59+3122.78+2615.28+3095.51+2591.3C3068.23+2567.32+3016.91+2576.22+3016.91+2576.22C3016.91+2576.22+3018.14+2564.21+2960.77+2578.28C2933.41+2585+2916.35+2567.77+2916.35+2567.77C2916.35+2567.77+2830.37+2612.45+2816.46+2624.55C2785.77+2651.27+2759.74+2698.74+2724.47+2767.05C2672.51+2867.7+2733.82+2889.94+2691.25+3012.36C2626.43+3198.81+2564.96+3091.78+2550.77+3165.63C2536.59+3239.49+2562.77+3337.63+2637.47+3283.02C2643.48+3278.63+2725.11+3251.19+2733.32+3246.86C2783.14+3220.59+3193.9+3384.76+3302.26+3349.43C3367.28+3328.23+3210.45+3220.55+3243.24+3091.69C3278.36+2953.65+3107.53+2873.02+3131.69+2780.68C3141.9+2741.64+2782.87+2841.03+2784.46+2821.94C2785.8+2805.89+2814.32+2826.35+2822.31+2838.16Z" opacity="1" fill="#272361"/>
<path d="M2883.36+2884.57C2883.36+2884.57+2892.87+2952.7+2889.58+3006.9C2886.29+3061.09+2871.26+3087.61+2871.26+3087.61C2871.26+3087.61+2857.51+3120.98+2795.63+3134.37C2787.85+3136.05+2777.55+3142+2768.77+3146.14C2759.98+3150.28+2723.58+3418.32+2963.65+3450.06C3190.43+3480.04+3230.81+3193.85+3210.97+3186.38C3188.87+3178.07+3104.93+3150.95+3095.88+3146.6C3067.73+3133.08+3044.88+3117.03+3041.49+3111.71C3026.21+3087.8+3034+3058.7+3034.25+3030.07C3034.89+2956.19+3067.02+2901.35+3067.02+2901.35L2883.36+2884.57Z" opacity="1" fill="#fdbc8c"/>
<path d="M2883.36+2884.57C2883.36+2884.57+2892.87+2952.7+2889.58+3006.9C2886.29+3061.09+2871.24+3087.8+2871.24+3087.8C2871.24+3087.8+2921.41+3054.89+2962.31+3042.24C3003.21+3029.59+3035.68+3009.49+3035.68+3009.49C3035.68+3009.49+3037.02+2986.81+3039.47+2971.97C3049.82+2909.21+3067.02+2901.35+3067.02+2901.35L2883.36+2884.57Z" opacity="1" fill="#dfa58b"/>
<path d="M2816.38+2660.53C2781.04+2705.15+2818.16+2775.45+2822.03+2828.01C2823.5+2847.96+2790.44+2791.5+2782.18+2827.37C2777.77+2846.52+2804.35+2913.68+2825.49+2895.85C2846.64+2878.03+2860.29+2925.06+2880.91+2947.76C2915.44+2985.77+2945.27+3019.42+3005.65+3017.42C3052.64+3015.87+3078.09+2978.88+3103.19+2936.37C3132.52+2886.71+3130.1+2830.43+3128.42+2781.99C3126.6+2729.63+3115.85+2688.22+3090.45+2658.77C3069.54+2634.52+3037.94+2619.11+2999.75+2606.14C2915.21+2577.43+2865.14+2598.96+2816.38+2660.53Z" opacity="1" fill="#fdbc8c"/>
<path d="M2943.75+2917.78C2942.96+2908.35+2973.92+2923.67+2999.29+2924.9C3024.66+2926.13+3046.98+2918.74+3047.77+2928.17C3048.55+2937.6+3023.68+2959.17+2998.31+2957.94C2972.94+2956.71+2944.53+2927.21+2943.75+2917.78Z" opacity="1" fill="#e0e0e0"/>
<path d="M2908.94+2755.49L2945.22+2750.65C2951.83+2749.77+2957.97+2751.26+2958.94+2753.97L2958.94+2753.97C2959.91+2756.68+2955.34+2759.6+2948.73+2760.48L2912.44+2765.31C2905.84+2766.19+2899.69+2764.71+2898.73+2761.99L2898.73+2761.99C2897.76+2759.28+2902.33+2756.37+2908.94+2755.49Z" opacity="1" fill="#272361"/>
<path d="M2822.31+2838.16C2843.65+2869.72+2809.84+2828.44+2835.97+2785.09C2851.86+2758.72+2852.4+2769.66+2875.36+2738.63C2898.31+2707.59+2908.11+2675.99+2908.11+2675.99C2908.11+2675.99+2969.22+2664.96+3005.74+2699.24C3043.36+2734.56+3079.53+2705.27+3100.81+2739.65C3122.09+2774.02+3132.3+2790.68+3132.3+2790.68C3132.3+2790.68+3164.6+2760.86+3178.23+2710.99C3188.35+2673.95+3194.73+2620.7+3153.13+2574.14C3110.79+2526.77+3048.67+2519.08+3000.9+2517.46C2964.71+2516.24+2915.07+2534.47+2889.16+2532.85C2853.86+2530.64+2779.05+2519.31+2712.64+2570.9C2646.22+2622.5+2619.4+2718.18+2619.15+2868.8C2618.92+3008.37+2359.52+2976.64+2316.96+3099.07C2252.13+3285.52+2413.91+3485.92+2487.72+3571.76C2560.79+3656.73+2738.11+3688.92+2754.99+3589.25C2768.52+3509.35+2620.59+3303.92+2669.7+3278.02C2682.42+3271.32+2697.02+3169.41+2707.11+3162.3C2760.23+3124.79+2743.24+3113.51+2781.05+3055.25C2826.03+2985.94+2738.58+2887.98+2762.73+2795.63C2772.94+2756.6+2782.87+2841.03+2784.46+2821.94C2785.8+2805.89+2814.32+2826.35+2822.31+2838.16Z" opacity="1" fill="#272361"/>
<path d="M3044.44+2749.24L3080.8+2752.67C3087.43+2753.29+3092.35+2755.94+3091.81+2758.59L3091.81+2758.59C3091.26+2761.24+3085.45+2762.88+3078.83+2762.25L3042.46+2758.82C3035.84+2758.2+3030.92+2755.55+3031.46+2752.9L3031.46+2752.9C3032.01+2750.25+3037.82+2748.61+3044.44+2749.24Z" opacity="1" fill="#272361"/>
<path d="M2777+5380.91L2795.83+5519.1L2842.71+5519.99L2852.12+5354.15L2777+5380.91Z" opacity="1" fill="#fdbc8c"/>
<path d="M3061.71+5399.21L3066.66+5514.79L3110.59+5513.47L3114.14+5389.28L3061.71+5399.21Z" opacity="1" fill="#fdbc8c"/>
<path d="M2780.77+5495.29C2780.77+5495.29+2738.88+5549.64+2765.17+5597.55L2857.82+5611.57C2857.82+5611.57+2975.08+5641.6+3007.33+5632.02C3039.58+5622.43+2985.67+5583.65+2985.67+5583.65L2904.22+5531.82L2857.31+5497.72L2780.77+5495.29Z" opacity="1" fill="#272361"/>
<path d="M3050.52+5496.37C3050.52+5496.37+3008.63+5550.72+3034.91+5598.63L3127.57+5612.65C3127.57+5612.65+3244.83+5642.68+3277.08+5633.1C3309.33+5623.51+3255.42+5584.73+3255.42+5584.73L3173.97+5532.9L3127.06+5498.8L3050.52+5496.37Z" opacity="1" fill="#272361"/>
<path d="M2836.8+3777.61C2836.8+3777.61+2698.98+3983.95+2690.91+4155.09C2686.77+4242.87+2689.48+4550.81+2761.47+4718.81C2777.5+4756.23+2769.81+4789.11+2766.03+4830.97C2751.96+4986.96+2742.13+5291.89+2772.09+5395.08C2772.09+5395.08+2800+5411.59+2825.89+5412.07C2851.78+5412.54+2864.17+5392.56+2864.17+5392.56C2901.95+5150.1+2916.77+4770.14+2937.08+4519.75C2947.18+4395.17+2959.6+4267.87+2964.07+4237.86C2964.76+4233.26+2972.83+4236.5+2972.83+4236.5C2972.83+4236.5+2952.56+5075.12+3046.26+5403.07C3046.26+5403.07+3067.36+5418.1+3091.08+5419.16C3114.8+5420.21+3132.76+5408.3+3132.76+5408.3C3151.78+5314.38+3183.57+5036.98+3150.77+4811.77C3144.84+4771.05+3155.2+4735.13+3155.2+4735.13C3178.41+4646.57+3232.45+4298.76+3232+4169.58C3231.38+3987.72+3098.54+3789.75+3098.54+3789.75L2836.8+3777.61Z" opacity="1" fill="#2e3690"/>
<path stroke="#135eab" stroke-width="5" d="M2996.89+3872.16C2996.89+3872.16+3013.65+3968.7+3004.07+4063.91C2994.49+4159.12+2970.82+4236.03+2970.82+4236.03" fill="none" stroke-linecap="butt" opacity="1" stroke-linejoin="round"/>
<path stroke="#135eab" stroke-width="5.01" d="M3004.71+4044.08C3004.71+4044.08+2989.77+4055.7+2977.56+4037.62C2965.36+4019.54+2971.54+3869.23+2971.54+3869.23" fill="none" stroke-linecap="round" opacity="1" stroke-linejoin="round"/>
<path d="M2964.31+4236.09L2958.45+4283.99C2958.45+4283.99+2955.93+4290.68+2939.28+4478.74C2938.05+4492.53+2932.56+4580.17+2931.59+4593.9C2919.21+4767.32+2934.96+4899.81+2893.24+5154.31C2848.41+5427.85+2853.95+5414.45+2853.95+5414.45C2853.95+5414.45+2897.55+5092.3+2906.5+4809.13C2915.69+4518.02+2935.75+4373.62+2935.75+4373.62C2935.75+4373.62+2941.35+4324.4+2949.58+4295C2957.81+4265.61+2964.31+4236.09+2964.31+4236.09Z" opacity="1" fill="#272361"/>
<path stroke="#135eab" stroke-width="5.01" d="M2880.45+3856.3C2880.45+3856.3+2862.22+3888.92+2834.19+3903.23C2806.16+3917.54+2764.54+3913.41+2764.54+3913.41" fill="none" stroke-linecap="round" opacity="1" stroke-linejoin="round"/>
<path stroke="#135eab" stroke-width="5.01" d="M3058.23+3862.87C3058.23+3862.87+3070.32+3901.57+3096.71+3914.62C3123.11+3927.68+3163.75+3914.4+3163.75+3914.4" fill="none" stroke-linecap="round" opacity="1" stroke-linejoin="round"/>
<path d="M3424.24+3461.57C3425.46+3492.22+3332.41+3573.75+3291.23+3611.16C3246.87+3651.45+3226.91+3594.84+3226.91+3594.84L3297.76+3492.61C3297.76+3492.61+3423.02+3430.92+3424.24+3461.57Z" opacity="1" fill="#2baae2"/>
<path d="M3581.27+3274.52C3581.27+3274.52+3572.2+3285.52+3552.25+3362.4C3532.31+3439.29+3519.45+3551.33+3501.5+3582.05C3493.9+3595.03+3409.95+3490.88+3357.52+3387.09C3307.2+3287.5+3283.06+3270.7+3235.59+3244.57C3188.13+3218.45+3163.9+3250.86+3167.66+3282.58C3171.42+3314.3+3164.62+3386.17+3235.84+3451.44C3269.18+3482+3304.74+3522.59+3340.19+3561.59C3411+3639.51+3481.38+3711.09+3532.78+3683.67C3609.91+3642.54+3616.23+3394.78+3616.23+3394.78L3627.37+3286.76C3627.37+3286.76+3724.14+3144.19+3710.04+3140.39C3695.94+3136.6+3686.68+3182.07+3677.4+3179.44C3668.12+3176.81+3704.87+3111.22+3690.38+3107.99C3675.89+3104.76+3666.01+3170.43+3659.16+3168.08C3652.31+3165.73+3677.56+3101.3+3662.98+3098.59C3648.4+3095.87+3639.24+3168.6+3631.03+3167.37C3622.81+3166.13+3643.28+3094.59+3630.12+3093.65C3616.96+3092.72+3615.67+3164.34+3600.62+3175.42C3585.58+3186.5+3580.51+3124.83+3569.93+3137.98C3559.36+3151.13+3581.27+3274.52+3581.27+3274.52Z" opacity="1" fill="#fdbc8c"/>
<path d="M2791.21+3135.93C2791.21+3135.93+2813.95+3309.04+2976.09+3321.39C3184.8+3337.29+3144.19+3164.44+3144.19+3164.44C3144.19+3164.44+3297.45+3184.13+3311.9+3262.23C3326.75+3342.44+3424.61+3405.9+3424.22+3462.93C3424.22+3462.93+3360.85+3492.56+3338.03+3511.84C3304.78+3539.91+3271.9+3592.82+3270.56+3620.77C3269.71+3638.45+3218.99+3603.77+3218.99+3603.77C3218.99+3603.77+3177+3782.94+3091.69+3849.76C3045.91+3885.62+2867.19+3879.27+2825.33+3831.01C2772.54+3770.14+2736.19+3680.18+2718.31+3588.17C2700.42+3496.15+2723.49+3521.77+2720.68+3519.71C2717.54+3517.41+2708.61+3557.2+2690.07+3555.54C2617.26+3549.01+2466.92+3544.69+2469.95+3481.37C2474.73+3381.89+2523.01+3368.73+2552.9+3269.11C2584.38+3164.17+2672.28+3161+2735.7+3148.03C2774.57+3140.08+2791.21+3135.93+2791.21+3135.93Z" opacity="1" fill="#4cc8ed"/>
<path d="M2837.46+3739.34C2836.48+3741.55+2772.28+3730.14+2706.44+3730.88C2640.6+3731.63+2596.18+3735.44+2581.61+3735.97C2561.36+3736.71+2572.01+3709.24+2575.1+3689.47C2584.04+3632.41+2603.06+3614.97+2611.05+3548.19C2611.05+3548.19+2579.42+3544.93+2553.65+3540.08C2527.87+3535.22+2504.95+3524.24+2504.95+3524.24C2484.91+3559.93+2495.4+3629.29+2488.82+3700.55C2484.59+3746.36+2484.02+3797.92+2517.28+3803.22C2541.06+3807.01+2619.86+3806.74+2690.7+3800.65C2769.27+3793.89+2839.23+3781.02+2839.23+3781.02C2839.23+3781.02+2888.06+3807.13+2924.99+3809.32C2961.93+3811.51+2983.8+3814.89+2984.3+3808.13C2985.08+3797.72+2930.75+3791.65+2928.05+3787.22C2925.57+3783.16+2990.5+3792.75+2991.24+3780.46C2991.98+3768.17+2928.21+3771.01+2927.37+3766.71C2926.3+3761.18+2984.7+3766.82+2984.59+3754.05C2984.51+3746.01+2924.26+3747.7+2924.26+3747.7C2924.26+3747.7+2977.27+3735.79+2976.29+3729.93C2974.68+3720.25+2912.31+3732.48+2908.25+3731.11C2901.26+3728.75+2893.51+3728.97+2892.5+3723.95C2891.28+3717.84+2921.51+3709.65+2920.68+3704.31C2919.34+3695.67+2897.08+3702.47+2876.28+3711.23C2855.48+3719.99+2841.32+3730.69+2837.46+3739.34Z" opacity="1" fill="#fdbc8c"/>
<path d="M2739.59+3323.32C2739.59+3323.32+2710.28+3386.44+2700.17+3447.79C2690.06+3509.15+2713.27+3564.12+2713.27+3564.12L2736.01+3664.11C2736.01+3664.11+2754.77+3555.76+2750.87+3497.31C2746.35+3429.53+2739.59+3323.32+2739.59+3323.32Z" opacity="1" fill="#2baae2"/>
<path d="M3044.68+2812.85C3038.52+2808.2+3043.91+2801.51+3056.72+2797.92C3069.53+2794.32+3084.92+2795.19+3091.08+2799.84C3097.25+2804.49+3091.86+2811.18+3079.05+2814.77C3066.23+2818.37+3050.85+2817.51+3044.68+2812.85Z" opacity="1" fill="#272361"/>
<path d="M2908.73+2809.16C2903.85+2803.18+2910.67+2797.96+2923.97+2797.52C2937.27+2797.07+2952.01+2801.56+2956.89+2807.54C2961.78+2813.53+2954.95+2818.74+2941.65+2819.19C2928.35+2819.64+2913.61+2815.15+2908.73+2809.16Z" opacity="1" fill="#272361"/>
</g>
<g id="Слой 12" vectornator:layerName="Слой 12">
<path d="M4450.54+4783.27L4445.61+4283.1C4445.61+4283.1+4326.46+4364.24+4231.97+4351.54C4137.47+4338.84+3999.95+4260.88+3997.32+4116.13C3994.68+3971.38+4096.97+3852.59+4220.23+3845.62C4343.49+3838.66+4446.22+3909.06+4446.22+3909.06L4487.28+3178.25L3706.59+3180.96C3706.59+3180.96+3811.56+3092.78+3798.64+2957.54C3785.91+2824.3+3661.68+2749.47+3542.31+2748.67C3404.3+2747.75+3318.56+2892.82+3325.39+3020.99C3331.21+3130.42+3432.33+3190.06+3432.33+3190.06L2869.78+3192.01L2860.92+4368.36C2859.36+4575.83+3026.21+4748.86+3233.61+4754.82L4450.54+4783.27Z" opacity="1" fill="#1172ba"/>
</g>
<g id="Слой 19" vectornator:layerName="Слой 19">
<path d="M2837.46+3739.34C2836.48+3741.55+2772.28+3730.14+2706.44+3730.88C2640.6+3731.63+2596.18+3735.44+2581.61+3735.97C2561.36+3736.71+2572.01+3709.24+2575.1+3689.47C2584.04+3632.41+2603.06+3614.97+2611.05+3548.19C2611.05+3548.19+2579.42+3544.93+2553.65+3540.08C2527.87+3535.22+2504.95+3524.24+2504.95+3524.24C2484.91+3559.93+2495.4+3629.29+2488.82+3700.55C2484.59+3746.36+2484.02+3797.92+2517.28+3803.22C2541.06+3807.01+2619.86+3806.74+2690.7+3800.65C2769.27+3793.89+2839.23+3781.02+2839.23+3781.02C2839.23+3781.02+2888.06+3807.13+2924.99+3809.32C2961.93+3811.51+2983.8+3814.89+2984.3+3808.13C2985.08+3797.72+2930.75+3791.65+2928.05+3787.22C2925.57+3783.16+2990.5+3792.75+2991.24+3780.46C2991.98+3768.17+2928.21+3771.01+2927.37+3766.71C2926.3+3761.18+2984.7+3766.82+2984.59+3754.05C2984.51+3746.01+2924.26+3747.7+2924.26+3747.7C2924.26+3747.7+2977.27+3735.79+2976.29+3729.93C2974.68+3720.25+2912.31+3732.48+2908.25+3731.11C2901.26+3728.75+2893.51+3728.97+2892.5+3723.95C2891.28+3717.84+2921.51+3709.65+2920.68+3704.31C2919.34+3695.67+2897.08+3702.47+2876.28+3711.23C2855.48+3719.99+2841.32+3730.69+2837.46+3739.34Z" opacity="1" fill="#fdbc8c"/>
</g>
<g id="Слой 10" vectornator:layerName="Слой 10">
<path d="M5736.97+919.289L5674.75+1415.59C5674.75+1415.59+5803.71+1351.17+5895.64+1376.43C5987.58+1401.69+6113.4+1497.4+6096.59+1641.19C6079.78+1784.98+5962.48+1888.98+5839.4+1879.35C5716.32+1869.72+5623.97+1786.17+5623.97+1786.17L5485.24+2504.87L6195.86+2601.74C6195.86+2601.74+6176.39+2485.47+6194.5+2380.19C6213.04+2272.39+6320.94+2204.24+6439.33+2219.44C6557.72+2234.64+6638.91+2309.14+6643.61+2422.39C6648.3+2535.64+6548.11+2641.45+6548.11+2641.45L7089.97+2708.22L7256.56+1543.69C7285.94+1338.31+7143.8+1144.46+6939.08+1110.72L5736.97+919.289Z" opacity="1" fill="#2baae2"/>
</g>
<g id="Слой 8" vectornator:layerName="Слой 8">
<path stroke="#2e3690" stroke-width="25.19" d="M7232.12+5228.66L7886.52+5222.18" fill="#ffffff" stroke-linecap="round" opacity="1" stroke-linejoin="round"/>
<path stroke="#2e3690" stroke-width="25.19" d="M6883.39+3044.6L7272.97+5584.64" fill="#ffffff" stroke-linecap="round" opacity="1" stroke-linejoin="round"/>
<path stroke="#2e3690" stroke-width="25.19" d="M7563.85+3034.21L7948.24+5574.25" fill="#ffffff" stroke-linecap="round" opacity="1" stroke-linejoin="round"/>
<path stroke="#2e3690" stroke-width="25.19" d="M6982.67+3553.8L7646.79+3550.56" fill="#ffffff" stroke-linecap="round" opacity="1" stroke-linejoin="round"/>
<path stroke="#2e3690" stroke-width="25.19" d="M7034.51+3987.9L7695.38+3987.9L7034.51+3987.9Z" fill="#ffffff" stroke-linecap="round" opacity="1" stroke-linejoin="round"/>
<path stroke="#2e3690" stroke-width="25.19" d="M7096.06+4399.33L7766.65+4392.85" fill="#ffffff" stroke-linecap="round" opacity="1" stroke-linejoin="round"/>
<path stroke="#2e3690" stroke-width="25.19" d="M7177.05+4810.76L7828.21+4807.52" fill="#ffffff" stroke-linecap="round" opacity="1" stroke-linejoin="round"/>
</g>
<g id="Слой 6" vectornator:layerName="Слой 6">
<path d="M7567.83+3547.16C7567.83+3547.16+7588.24+3599.08+7584.94+3687.03C7582.89+3741.55+7562.57+3820.8+7560.95+3867.2C7559.95+3895.66+7568.68+3913.71+7568.68+3913.71L7510.19+3920.94L7470.38+3536.04L7567.83+3547.16Z" opacity="1" fill="#fdbc8c"/>
<path d="M7221.43+3561.04C7221.43+3561.04+7241.63+3613.04+7237.96+3700.98C7235.68+3755.49+7215.02+3834.66+7213.21+3881.05C7212.09+3909.5+7220.74+3927.59+7220.74+3927.59L7162.22+3934.58L7124.03+3549.51L7221.43+3561.04Z" opacity="1" fill="#fdbc8c"/>
<path d="M7214.41+3911.37C7214.41+3911.37+7244.94+3928.02+7226.7+3972.95C7225.29+3976.42+7223.18+3989.38+7221.19+3992.94C7221.19+3992.94+7215.82+3991.98+7170.4+3996.47C7164.25+3997.08+7165.44+3978.82+7158.74+3979.41C7150.12+3980.18+7118.9+4001.19+7110.97+4002.27C7067.27+4008.24+7052.6+4008.69+7023.09+4005.05C7009.76+4003.4+7006.33+3968.63+7032.53+3961.83C7059.48+3954.84+7066.54+3951.9+7098.66+3941.28C7130.78+3930.66+7159.29+3913.98+7159.29+3913.98C7159.29+3913.98+7174.68+3921.13+7188.62+3920.01C7202.55+3918.89+7214.41+3911.37+7214.41+3911.37Z" opacity="1" fill="#272361"/>
<path d="M7567.27+2219.24C7567.27+2219.24+7738.02+3259.22+7717.96+3664.13C7717.96+3664.13+7637.46+3696.91+7565.08+3700.75C7492.71+3704.59+7393.46+3678+7393.46+3678C7378.53+3465.88+7400.13+3244.16+7381.52+2983.09C7370.84+2833.31+7365.57+2630.42+7365.57+2630.42C7365.57+2630.42+7366.51+2890.03+7357.85+3180.99C7352.52+3360.12+7385.15+3560.45+7346.44+3681.71C7346.44+3681.71+7244.74+3708.11+7169.49+3709.06C7094.23+3710.02+7010.34+3673.88+7010.34+3673.88C6971.34+3268.04+7198.02+2228.64+7198.02+2228.64L7567.27+2219.24Z" opacity="1" fill="#4cc8ed"/>
<path d="M7421.75+2482.7C7421.75+2482.7+7422.78+2547.41+7408.55+2583.57C7394.32+2619.74+7364.83+2627.36+7364.83+2627.36C7364.83+2627.36+7359.85+2651.02+7375.28+2847.12C7376.42+2861.5+7381.38+2940.38+7386.87+3035.03C7395.91+3190.79+7393.34+3271+7388.98+3454.29C7386.74+3548.8+7393.94+3674.1+7393.94+3674.1C7393.94+3674.1+7417.5+3581.26+7420.18+3277.9C7421.79+3095.42+7383.75+2635.22+7383.75+2635.22C7383.75+2635.22+7404.82+2610.52+7417.43+2594.85C7439.62+2567.29+7421.75+2482.7+7421.75+2482.7Z" opacity="1" fill="#2baae2"/>
<path d="M6790.03+1707.09C6790.03+1707.09+6806.11+1737.34+6807.65+1762.55C6808.25+1772.27+6897.76+1844.9+6897.76+1844.9C6897.76+1844.9+6880.18+1884.96+6856.57+1871.55C6826.26+1854.33+6777.79+1797.76+6771.32+1797.64C6750.83+1797.28+6729.55+1788.66+6729.55+1788.66C6729.55+1788.66+6575.45+1709.02+6587.08+1697.21C6598.72+1685.4+6634.76+1723.46+6642.33+1715.56C6649.91+1707.67+6574.91+1666.34+6587.25+1654.85C6599.6+1643.36+6648.21+1700.35+6653.56+1694.13C6658.92+1687.91+6595.91+1641.03+6608.65+1629.97C6621.4+1618.92+6673.48+1683.06+6680.83+1677.12C6688.19+1671.17+6625.69+1614.72+6638.09+1606.19C6650.49+1597.66+6694.16+1665.32+6715.53+1667.17C6736.91+1669.03+6705.38+1607.18+6723.57+1613.6C6741.77+1620.02+6790.03+1707.09+6790.03+1707.09Z" opacity="1" fill="#fdbc8c"/>
<path d="M7466.7+1158.74C7466.7+1158.74+7439.37+1241.25+7442.24+1297.74C7445.11+1354.24+7462.26+1405.72+7462.26+1405.72C7462.26+1405.72+7496.89+1416.52+7586.89+1449.12C7591.09+1450.65+7595.42+1452.22+7599.86+1453.84C7694.86+1488.42+7410.63+1530.35+7410.63+1530.35L7164.48+1502.38C7164.48+1502.38+7192.58+1459.59+7246.62+1436.81C7265.06+1429.04+7300.27+1416.7+7303.84+1404.62C7312.17+1376.44+7319.02+1344.12+7319.06+1313.99C7319.16+1237.01+7274.8+1174.3+7274.8+1174.3L7466.7+1158.74Z" opacity="1" fill="#fdbc8c"/>
<path d="M7466.7+1158.74C7466.7+1158.74+7456.06+1229.62+7458.93+1286.11C7461.81+1342.6+7478.19+1384.71+7478.19+1384.71C7478.19+1384.71+7425.21+1335.78+7382.65+1322.18C7340.08+1308.58+7306.39+1287.3+7306.39+1287.3C7306.39+1287.3+7305.23+1263.65+7302.83+1248.16C7292.67+1182.67+7274.8+1174.3+7274.8+1174.3L7466.7+1158.74Z" opacity="1" fill="#dfa58b"/>
<path d="M7549.14+1425.72C7549.14+1425.72+7467.41+1446.29+7390.94+1450.88C7295.62+1456.6+7230.61+1436.47+7230.61+1436.47C7230.61+1436.47+7084.5+1465.19+7075.93+1547.51C7064.55+1656.8+7009.22+1850.12+7009.03+1909.54C7008.84+1968.96+7053.34+1946.37+6979.55+1888.39C6901.07+1826.72+6808.96+1757.92+6808.96+1757.92C6808.96+1757.92+6811.31+1768.42+6801.81+1780.37C6792.31+1792.33+6770.04+1789.58+6770.04+1789.58C6770.04+1789.58+6818.51+1865.64+6908.96+1993.45C6988.18+2105.39+7056.28+2117.4+7095.48+2089.42C7134.67+2061.45+7187.32+1880.17+7192.83+1850.05C7198.33+1819.93+7188.21+1935.67+7195.99+2048.27C7202.01+2135.18+7178.83+2180.76+7172.24+2219.13C7165.64+2257.51+7239.24+2255.17+7307.75+2248.12C7347.99+2243.98+7345.51+2213.94+7439.11+2269.77C7529.64+2323.77+7581.44+2299.5+7579.53+2245.5C7577.49+2187.88+7524.71+2091.7+7568.52+1913.53C7569.68+1908.8+7656.4+1794.37+7658.57+1837C7661.9+1902.59+7699.85+1943.77+7696.96+1975.41C7694.07+2007.05+7581.5+1949.95+7551.95+1944.78C7499.57+1935.62+7477.17+2020.31+7643.07+2072.15C7704.64+2091.4+7809.04+2116.49+7827.92+2064.51C7844.01+2020.22+7826.54+1956.32+7810.43+1853.8C7794.32+1751.29+7773.29+1679.31+7751.82+1582.87C7727+1471.43+7616.26+1450.75+7616.26+1450.75L7549.14+1425.72Z" opacity="1" fill="#272361"/>
<path d="M7613.85+1730.77C7613.85+1730.77+7644.45+1809.65+7661.69+1867.79C7678.72+1925.26+7708.83+1977.35+7692.58+1981.67C7669.87+1987.71+7616.34+1968.01+7616.34+1968.01C7616.34+1968.01+7724.28+2022.87+7718.06+1966.79C7698.14+1787.31+7613.85+1730.77+7613.85+1730.77Z" opacity="1" fill="#2e3690"/>
<path d="M7536.77+918.463C7573.44+965.308+7533.65+1038.18+7529.01+1092.9C7527.25+1113.67+7562.62+1055.17+7570.92+1092.63C7575.35+1112.63+7546.68+1182.33+7524.64+1163.55C7502.59+1144.77+7482.64+1203.08+7465.8+1217.08C7424.45+1251.42+7380.61+1279.74+7317.09+1279.2C7200.44+1278.19+7202.81+1141.32+7207.33+1041.89C7209.81+987.36+7221.57+944.318+7248.6+913.895C7270.85+888.838+7304.24+873.097+7344.53+859.968C7433.74+830.897+7486.17+853.833+7536.77+918.463Z" opacity="1" fill="#fdbc8c"/>
<path d="M7223.79+1069.84C7221.5+1064.36+7214.44+1060.98+7206.69+1060.85C7203.86+1060.8+7205.92+1089.93+7205.92+1089.93C7207+1089.74+7208.52+1089.48+7209.6+1089.17C7220.57+1085.98+7226.92+1077.33+7223.79+1069.84Z" opacity="1" fill="#272361"/>
<path d="M7240.24+1174.77C7239.56+1171.87+7232.36+1176.06+7223.87+1178.69C7217.04+1180.8+7212.64+1180.57+7212.64+1180.57C7212.64+1180.57+7212.83+1182.33+7214.26+1188.35C7215.69+1194.38+7217.4+1199.47+7217.4+1199.47C7232.89+1192.92+7242.44+1184.18+7240.24+1174.77Z" opacity="1" fill="#e0e0e0"/>
<path d="M7234.93+1026.68L7217.12+1022.4L7208.74+1020.36C7208.74+1020.36+7207.58+1020.02+7207.23+1026.71C7206.88+1033.26+7208+1033.17+7208+1033.17L7228.14+1037.97C7234.96+1039.61+7242.01+1038.41+7243.88+1035.29L7243.88+1035.29C7245.76+1032.17+7241.75+1028.31+7234.93+1026.68Z" opacity="1" fill="#272361"/>
<path d="M7563.8+3900.74C7563.8+3900.74+7594.5+3917.1+7576.68+3962.21C7575.31+3965.68+7573.32+3978.66+7571.37+3982.24C7571.37+3982.24+7565.98+3981.34+7520.61+3986.26C7514.47+3986.92+7515.48+3968.65+7508.79+3969.31C7500.17+3970.16+7469.15+3991.46+7461.24+3992.62C7417.6+3999.01+7402.93+3999.6+7373.39+3996.24C7360.04+3994.72+7356.28+3959.99+7382.41+3952.94C7409.3+3945.68+7416.33+3942.68+7448.35+3931.75C7480.37+3920.82+7508.72+3903.88+7508.72+3903.88C7508.72+3903.88+7524.17+3910.88+7538.1+3909.62C7552.02+3908.37+7563.8+3900.74+7563.8+3900.74Z" opacity="1" fill="#272361"/>
<path d="M7447.4+1402.14C7391.14+1407.25+7211.73+1364.93+7211.73+1364.93C7211.73+1364.93+7256.85+1342.88+7288.87+1234.16C7304.64+1180.63+7292.01+1064.62+7292.01+1064.62C7292.01+1064.62+7276.11+1054.34+7248.85+1031.5C7221.59+1008.67+7218.8+997.672+7204.85+981.526C7189.19+963.409+7195.82+888.983+7232.55+862.102C7250.54+848.941+7335.36+827.151+7383.69+832.788C7441.71+839.557+7431.83+843.972+7442.04+844.395C7452.25+844.818+7460+836.491+7513.72+848.606C7602.88+868.713+7620.89+998.624+7654.01+1062.03C7691.9+1134.55+7722.11+1226.48+7670.46+1311.51C7618.8+1396.54+7503.65+1397.03+7447.4+1402.14Z" opacity="1" fill="#2e3690"/>
</g>
<g id="Слой 4" vectornator:layerName="Слой 4">
<path d="M7075.53+2493.4L7025.18+2489.84C7025.18+2489.84+6921.68+2519.35+6844.73+2512.47C6830.51+2511.2+6828.7+2510.74+6816.26+2506.55C6814.55+2505.97+6794.73+2534.44+6786.85+2561.07C6777.09+2594.02+6777.2+2624.24+6775.73+2620.7C6774.02+2616.59+6775.22+2579.37+6784.23+2545.86C6791.16+2520.08+6808.5+2502.03+6805.28+2501.76C6766.61+2498.56+6702.65+2440.32+6720.66+2407.34C6738.67+2374.37+6811.8+2327.63+6875.04+2368.13C6946.26+2413.75+6978.13+2343.59+7050.28+2359.01C7122.44+2374.44+7139.04+2414.47+7165.94+2496.68C7182.76+2548.1+7129.49+2511.41+7129.49+2511.41L7075.53+2493.4Z" opacity="1" fill="#2e3690"/>
<path d="M6945.4+2661.5C6946.5+2653.01+6941.26+2645.79+6933.72+2645.37C6926.17+2644.95+6919.17+2651.49+6918.07+2659.98C6916.98+2668.47+6922.21+2675.69+6929.75+2676.1C6937.3+2676.52+6944.31+2669.98+6945.4+2661.5Z" opacity="1" fill="#272361"/>
<path d="M6828.47+2655.41C6829.66+2646.91+6824.13+2639.71+6816.12+2639.32C6808.1+2638.93+6800.63+2645.49+6799.44+2653.99C6798.25+2662.48+6803.78+2669.68+6811.8+2670.07C6819.81+2670.46+6827.28+2663.9+6828.47+2655.41Z" opacity="1" fill="#272361"/>
<path d="M6925.7+2770.11C6927.74+2760.47+6893.68+2772.25+6867.24+2770.2C6840.8+2768.16+6828.35+2763.07+6826.31+2772.72C6824.26+2782.36+6837.5+2802.44+6863.94+2804.48C6890.38+2806.53+6923.66+2779.76+6925.7+2770.11Z" opacity="1" fill="#e0e0e0"/>
<path d="M6832.23+2590.73L6806.12+2592.7C6801.36+2593.05+6797.71+2596.17+6797.95+2599.65L6797.95+2599.65C6798.2+2603.14+6802.25+2605.67+6807+2605.31L6833.12+2603.35C6837.88+2602.99+6841.53+2599.88+6841.29+2596.39L6841.29+2596.39C6841.04+2592.91+6836.99+2590.38+6832.23+2590.73Z" opacity="1" fill="#272361"/>
<path d="M6953.08+2591.64L6926.98+2589.58C6922.22+2589.21+6918.13+2591.73+6917.84+2595.21L6917.84+2595.21C6917.55+2598.69+6921.17+2601.81+6925.92+2602.19L6952.03+2604.25C6956.78+2604.62+6960.87+2602.1+6961.17+2598.62L6961.17+2598.62C6961.46+2595.14+6957.84+2592.02+6953.08+2591.64Z" opacity="1" fill="#272361"/>
<path stroke="#828282" stroke-width="8.77" d="M6984.13+2657.69C6982.59+2630.48+6958.72+2609.7+6930.8+2611.28C6902.89+2612.86+6881.51+2636.2+6883.05+2663.41C6884.58+2690.62+6908.46+2711.4+6936.37+2709.82C6964.29+2708.24+6985.67+2684.9+6984.13+2657.69Z" fill="none" stroke-linecap="round" opacity="1" stroke-linejoin="round"/>
<path stroke="#828282" stroke-width="8.77" d="M6853.38+2653.27C6851.87+2626.55+6828.65+2606.12+6801.52+2607.65C6774.39+2609.19+6753.63+2632.1+6755.14+2658.83C6756.65+2685.56+6779.87+2705.98+6807+2704.45C6834.12+2702.91+6854.89+2680+6853.38+2653.27Z" fill="none" stroke-linecap="round" opacity="1" stroke-linejoin="round"/>
<path stroke="#828282" stroke-width="8.77" d="M6881.13+2651.12C6881.13+2651.12+6875.12+2648.02+6869.18+2647.74C6863.24+2647.45+6857.37+2649.97+6857.37+2649.97" fill="none" stroke-linecap="round" opacity="1" stroke-linejoin="round"/>
<path stroke="#828282" stroke-width="7.95" d="M6756.21+2647.27L6775.54+2647.16" fill="none" stroke-linecap="butt" opacity="1" stroke-linejoin="round"/>
<path stroke="#828282" stroke-width="8.86" d="M6989.14+2661.94L7111.38+2673.53" fill="none" stroke-linecap="round" opacity="1" stroke-linejoin="round"/>
<path d="M7126.79+5359.81L7106.52+5503.7L7057.57+5504.41L7048.49+5331.59L7126.79+5359.81Z" opacity="1" fill="#fcd397"/>
<path d="M6831.94+5355.79L6823.8+5497.99L6777.94+5496.42L6761.78+5364.46L6831.94+5355.79Z" opacity="1" fill="#fcd397"/>
<path d="M7127.06+5484.74C7127.06+5484.74+7170.55+5541.56+7142.9+5591.35L7046.11+5605.54C7046.11+5605.54+6923.56+5636.31+6889.93+5626.18C6856.3+5616.04+6912.76+5575.89+6912.76+5575.89L6998.03+5522.25L7047.15+5486.93L7127.06+5484.74Z" opacity="1" fill="#272361"/>
<path d="M6840.97+5488.07C6840.97+5488.07+6884.46+5544.89+6856.81+5594.68L6760.02+5608.87C6760.02+5608.87+6637.47+5639.64+6603.84+5629.51C6570.21+5619.37+6626.67+5579.22+6626.67+5579.22L6711.93+5525.58L6761.06+5490.26L6840.97+5488.07Z" opacity="1" fill="#272361"/>
<path d="M7250.43+3952.02C7250.43+3952.02+7242.68+5035.11+7135.84+5396.67C7135.84+5396.67+7106.62+5413.75+7079.59+5414.13C7052.56+5414.51+7027.71+5398.18+7027.71+5398.18C6984.81+5002.1+6928.44+4223.56+6928.44+4223.56C6928.44+4223.56+6948.85+5062.51+6849.57+5403.77C6849.57+5403.77+6827.48+5419.34+6802.71+5420.33C6777.94+5421.32+6750.49+5407.75+6750.49+5407.75C6677.57+5040.28+6695.25+3975.46+6695.25+3975.46L7250.43+3952.02Z" opacity="1" fill="#1172ba"/>
<path d="M6865.41+4116.14C6865.41+4116.14+6874.51+4152.14+6892.23+4174.63C6909.95+4197.11+6924.22+4195.37+6926.31+4215.28C6932.88+4277.92+6929.24+4263.8+6926.82+4460.49C6924.41+4657.17+6941.72+4713.15+6916.64+5002.03C6891.67+5289.77+6843.25+5406.95+6843.25+5406.95C6843.25+5406.95+6918.31+4947.87+6905.17+4652.99C6891.65+4349.83+6907.84+4228+6907.84+4228C6907.84+4228+6903.05+4207.94+6889.43+4193.14C6865.47+4167.11+6865.41+4116.14+6865.41+4116.14Z" opacity="1" fill="#135eab"/>
<path d="M6359.99+3295.09C6359.99+3295.09+6391.19+3353.01+6371.61+3375.38C6352.03+3397.75+6299.97+3377.01+6299.97+3377.01C6299.97+3377.01+6145.42+3298.24+6156.99+3286.37C6168.56+3274.49+6204.81+3312.35+6212.34+3304.41C6219.87+3296.47+6144.64+3255.57+6156.92+3244.01C6169.2+3232.45+6218.14+3289.16+6223.45+3282.91C6228.77+3276.66+6165.5+3230.13+6178.18+3219.01C6190.86+3207.88+6243.3+3271.73+6250.62+3265.74C6257.95+3259.76+6195.12+3203.66+6207.48+3195.06C6219.83+3186.46+6263.89+3253.87+6285.27+3255.6C6306.65+3257.33+6274.77+3195.67+6293+3201.99C6311.24+3208.31+6359.99+3295.09+6359.99+3295.09Z" opacity="1" fill="#fcd397"/>
<path d="M7033.54+2742.92C7033.54+2742.92+7023.31+2813.86+7026.5+2870.34C7029.69+2926.81+7046.31+2968.82+7046.31+2968.82C7046.31+2968.82+7049.34+3050.5+6998.53+3075.16C6947.72+3099.82+6843.08+3067.48+6843.08+3067.48C6843.08+3067.48+6875.7+2970.8+6875.37+2893.83C6875.03+2816.85+6841.73+2759.57+6841.73+2759.57L7033.54+2742.92Z" opacity="1" fill="#fcd397"/>
<path d="M7033.54+2742.92C7033.54+2742.92+7023.31+2813.86+7026.5+2870.34C7029.69+2926.81+7046.31+2968.82+7046.31+2968.82C7046.31+2968.82+6993.05+2920.19+6950.42+2906.83C6907.78+2893.47+6873.97+2872.39+6873.97+2872.39C6873.97+2872.39+6872.67+2848.75+6870.18+2833.27C6859.65+2767.84+6841.73+2759.57+6841.73+2759.57L7033.54+2742.92Z" opacity="1" fill="#d0b691"/>
<path d="M7036.51+2946.81C7036.51+2946.81+6997.33+2997.9+6951.03+3007.2C6896.1+3018.25+6864.68+2981.93+6864.68+2981.93C6864.68+2981.93+6770.78+3028.38+6681.39+3130.65C6592+3232.91+6609.13+3472.04+6609.28+3531.46C6609.42+3590.88+6662.81+3512.37+6518.78+3408.08C6437.93+3349.54+6379.65+3301.97+6379.65+3301.97C6379.65+3301.97+6371.62+3335.18+6350.62+3356.69C6329.63+3378.2+6295.67+3388.01+6295.67+3388.01C6295.67+3388.01+6366.93+3542.82+6458.1+3670.11C6537.95+3781.61+6622.52+3791.79+6682.18+3769.88C6809.97+3722.96+6710.08+3553.07+6710.08+3553.07L6675.21+3948.81C6740.13+4053.75+6816.48+3978.18+6969.78+3972.83C7123.07+3967.47+7209.19+4005.36+7288.39+3927.38L7286.56+3660.93C7286.56+3660.93+7391.41+3356.56+7331.99+3184.33C7272.56+3012.11+7036.51+2946.81+7036.51+2946.81Z" opacity="1" fill="#2e3690"/>
<path d="M7096.7+3210.73C7077.66+3118+7114.28+3057.99+7167.59+3049.46C7222.76+3040.63+7303.63+3058.12+7343.93+3216.07C7384.24+3374.01+7420.49+3642.07+7352.81+3714.3C7321.74+3747.46+7209.44+3745.13+7103.92+3740.05C7007+3735.38+6908.35+3706.46+6908.35+3706.46C6908.35+3706.46+6944.84+3685.89+6943.26+3658.05C6941.69+3630.2+6900.38+3604.3+6900.38+3604.3C6900.38+3604.3+6925.81+3556.91+7006.87+3550.28C7080.99+3544.22+7165.22+3559.39+7173.84+3546.99C7206.73+3499.64+7115.74+3303.46+7096.7+3210.73Z" opacity="1" fill="#272361"/>
<path d="M6932.39+3606.93C6935.6+3613.65+6950.18+3624.3+6950.32+3634.43C6950.65+3657.76+6932.82+3672.44+6932.82+3672.44C6932.82+3672.44+6883.12+3699.83+6840.07+3703.39C6797.02+3706.94+6770.35+3701+6769.78+3693.61C6768.91+3682.23+6832.5+3680.5+6835.66+3675.56C6838.57+3671.03+6762.61+3676.95+6761.78+3663.5C6760.96+3650.06+6835.27+3651.18+6836.26+3646.44C6837.52+3640.35+6780.04+3648.01+6779.95+3634.02C6779.85+3620.02+6833.45+3623.06+6833.45+3623.06C6833.45+3623.06+6848.52+3616.32+6857.95+3606.74C6867.39+3597.17+6882.73+3592.13+6884.62+3583.31C6887.21+3571.26+6910.47+3574.15+6908.55+3585.69C6906.64+3597.23+6927.92+3597.57+6932.39+3606.93Z" opacity="1" fill="#fcd397"/>
<path d="M7108.05+3207.23C7089.01+3114.5+7125.62+3054.49+7178.94+3045.96C7234.1+3037.13+7314.98+3054.62+7355.28+3212.57C7395.59+3370.52+7429.4+3620.85+7361.73+3693.09C7302.12+3756.7+6916.66+3685.7+6916.66+3685.7C6916.66+3685.7+6945.24+3668.04+6943.67+3640.2C6942.1+3612.35+6910.31+3589.5+6910.31+3589.5C6910.31+3589.5+6937.15+3553.41+7018.21+3546.79C7092.34+3540.73+7176.57+3555.9+7185.19+3543.49C7218.08+3496.14+7127.08+3299.96+7108.05+3207.23Z" opacity="1" fill="#2e3690"/>
<path d="M7129.42+2507.99C7158.18+2583.46+7099.7+2702.26+7099.7+2702.26C7099.7+2702.26+7055.19+2786.61+7038.42+2800.7C6997.27+2835.27+6950.17+2871.96+6886.65+2871.77C6770+2871.43+6771.6+2734.55+6775.55+2635.09C6777.72+2580.55+6788.26+2527.85+6815.11+2497.28C6837.22+2472.1+6849.21+2439.98+6889.42+2426.62C6978.46+2397.04+7112.23+2462.88+7129.42+2507.99Z" opacity="1" fill="#fcd397"/>
<path d="M7019.06+2499.43C6940.4+2499.06+6919.55+2523.39+6842.6+2516.51C6828.38+2515.24+6826.57+2514.78+6814.14+2510.59C6812.42+2510.01+6792.6+2538.48+6784.72+2565.11C6774.97+2598.06+6775.07+2628.28+6773.6+2624.74C6771.89+2620.63+6773.09+2583.41+6782.1+2549.9C6789.03+2524.12+6806.37+2506.07+6803.16+2505.8C6764.48+2502.6+6723.58+2457.74+6741.59+2424.76C6759.6+2391.78+6788.55+2390.68+6897.57+2342.61C6974.97+2308.49+6976+2347.63+7048.16+2363.05C7120.31+2378.48+7136.91+2418.51+7163.81+2500.72C7166.96+2510.36+7164.06+2515.69+7157.26+2517.98C7127.78+2527.94+7097.72+2499.8+7019.06+2499.43Z" opacity="1" fill="#2e3690"/>
<path d="M6945.4+2661.5C6946.5+2653.01+6941.26+2645.79+6933.72+2645.37C6926.17+2644.95+6919.17+2651.49+6918.07+2659.98C6916.98+2668.47+6922.21+2675.69+6929.75+2676.1C6937.3+2676.52+6944.31+2669.98+6945.4+2661.5Z" opacity="1" fill="#272361"/>
<path d="M6828.47+2655.41C6829.66+2646.91+6824.13+2639.71+6816.12+2639.32C6808.1+2638.93+6800.63+2645.49+6799.44+2653.99C6798.25+2662.48+6803.78+2669.68+6811.8+2670.07C6819.81+2670.46+6827.28+2663.9+6828.47+2655.41Z" opacity="1" fill="#272361"/>
<path d="M7098.44+2706.93C7105.65+2707.83+7059.69+2784.35+7036.51+2806.17C7004.15+2836.64+6992.89+2846.95+6944.28+2863.39C6921.49+2871.1+6877.46+2879.3+6839.52+2863.88C6815.62+2854.16+6806.83+2838.58+6790.98+2805.65C6775.13+2772.71+6776.13+2732.13+6776.13+2732.13C6776.13+2732.13+6778.63+2756.33+6793.11+2762.58C6803.23+2766.94+6811.18+2745.57+6858.28+2744.4C6899.79+2743.36+6901.12+2744.11+6934.64+2751.59C6968.16+2759.08+6981.32+2770+6992.36+2774.35C7014.09+2782.9+7079.35+2742.54+7087.93+2718.34C7098.74+2687.84+7096.93+2706.74+7098.44+2706.93Z" opacity="1" fill="#272361"/>
<path d="M6925.7+2770.11C6927.74+2760.47+6893.68+2772.25+6867.24+2770.2C6840.8+2768.16+6828.35+2763.07+6826.31+2772.72C6824.26+2782.36+6837.5+2802.44+6863.94+2804.48C6890.38+2806.53+6923.66+2779.76+6925.7+2770.11Z" opacity="1" fill="#e0e0e0"/>
<path d="M6832.23+2590.73L6806.12+2592.7C6801.36+2593.05+6797.71+2596.17+6797.95+2599.65L6797.95+2599.65C6798.2+2603.14+6802.25+2605.67+6807+2605.31L6833.12+2603.35C6837.88+2602.99+6841.53+2599.88+6841.29+2596.39L6841.29+2596.39C6841.04+2592.91+6836.99+2590.38+6832.23+2590.73Z" opacity="1" fill="#272361"/>
<path d="M6953.08+2591.64L6926.98+2589.58C6922.22+2589.21+6918.13+2591.73+6917.84+2595.21L6917.84+2595.21C6917.55+2598.69+6921.17+2601.81+6925.92+2602.19L6952.03+2604.25C6956.78+2604.62+6960.87+2602.1+6961.17+2598.62L6961.17+2598.62C6961.46+2595.14+6957.84+2592.02+6953.08+2591.64Z" opacity="1" fill="#272361"/>
<path d="M7127.6+2510.66C7113.83+2493.88+7108.61+2497.49+7073.59+2491.63C7038.58+2485.78+6998.7+2485.05+6998.7+2485.05C6998.7+2485.05+6969.67+2506.49+6961.94+2570.62C6957.58+2606.71+6999.99+2647.25+6999.99+2647.25L7116.26+2658.45C7116.26+2658.45+7127.87+2637.59+7134.78+2596.37C7141.7+2555.16+7141.38+2527.44+7127.6+2510.66Z" opacity="0.744493" fill="#2e3690"/>
<path d="M7026.2+2654.92C7044.62+2626.97+7063.05+2620.24+7076.95+2624.91C7090.85+2629.58+7095.41+2642.28+7090.32+2669.13C7086.35+2690.08+7072.83+2712.92+7058.4+2727.49C7047.83+2738.15+7030.75+2729.48+7027.32+2724.71C7023.89+2719.93+7005.48+2734.6+7003.27+2736.7C7001.06+2738.8+7007.78+2682.87+7026.2+2654.92Z" opacity="1" fill="#fcd397"/>
<path stroke="#828282" stroke-width="8.77" d="M6984.13+2657.69C6982.59+2630.48+6958.72+2609.7+6930.8+2611.28C6902.89+2612.86+6881.51+2636.2+6883.05+2663.41C6884.58+2690.62+6908.46+2711.4+6936.37+2709.82C6964.29+2708.24+6985.67+2684.9+6984.13+2657.69Z" fill="none" stroke-linecap="round" opacity="1" stroke-linejoin="round"/>
<path stroke="#828282" stroke-width="8.77" d="M6853.38+2653.27C6851.87+2626.55+6828.65+2606.12+6801.52+2607.65C6774.39+2609.19+6753.63+2632.1+6755.14+2658.83C6756.65+2685.56+6779.87+2705.98+6807+2704.45C6834.12+2702.91+6854.89+2680+6853.38+2653.27Z" fill="none" stroke-linecap="round" opacity="1" stroke-linejoin="round"/>
<path stroke="#828282" stroke-width="8.77" d="M6881.13+2651.12C6881.13+2651.12+6875.12+2648.02+6869.18+2647.74C6863.24+2647.45+6857.37+2649.97+6857.37+2649.97" fill="none" stroke-linecap="round" opacity="1" stroke-linejoin="round"/>
<path stroke="#828282" stroke-width="7.95" d="M6756.21+2647.27L6775.54+2647.16" fill="none" stroke-linecap="butt" opacity="1" stroke-linejoin="round"/>
<path stroke="#828282" stroke-width="8.86" d="M6987.19+2662.16L7109.43+2673.74" fill="none" stroke-linecap="round" opacity="1" stroke-linejoin="round"/>
</g>
<g id="Слой 11" vectornator:layerName="Слой 11">
<path d="M6880.52+2891.28L6317.64+2892.08C6317.64+2892.08+6396.66+2764.86+6393.65+2676.3C6390.75+2591.2+6333.42+2522.55+6207.85+2508.68C6092.89+2495.98+6026.29+2541.06+5987.24+2630.3C5948.19+2719.55+6013.54+2899.57+6013.54+2899.57L5307.18+2902.6L5313.92+3663.98C5313.92+3663.98+5224.87+3559.76+5089.74+3573.81C4956.61+3587.66+4882.83+3712.51+4883.03+3831.88C4883.27+3969.89+5029.05+4054.41+5157.16+4046.51C5266.54+4039.77+5325.33+3938.16+5325.33+3938.16L5331.99+4500.67L6508.37+4499.67C6715.85+4499.49+6887.47+4331.19+6891.7+4123.75L6880.52+2891.28Z" opacity="1" fill="#0081c3"/>
</g>
<g id="Слой 13" vectornator:layerName="Слой 13">
<path d="M7096.7+3210.73C7077.66+3118+7114.28+3057.99+7167.59+3049.46C7222.76+3040.63+7303.63+3058.12+7343.93+3216.07C7384.24+3374.01+7420.49+3642.07+7352.81+3714.3C7321.74+3747.46+7209.44+3745.13+7103.92+3740.05C7007+3735.38+6908.35+3706.46+6908.35+3706.46C6908.35+3706.46+6944.84+3685.89+6943.26+3658.05C6941.69+3630.2+6900.38+3604.3+6900.38+3604.3C6900.38+3604.3+6925.81+3556.91+7006.87+3550.28C7080.99+3544.22+7165.22+3559.39+7173.84+3546.99C7206.73+3499.64+7115.74+3303.46+7096.7+3210.73Z" opacity="1" fill="#272361"/>
<path d="M6932.39+3606.93C6935.6+3613.65+6950.18+3624.3+6950.32+3634.43C6950.65+3657.76+6932.82+3672.44+6932.82+3672.44C6932.82+3672.44+6883.12+3699.83+6840.07+3703.39C6797.02+3706.94+6770.35+3701+6769.78+3693.61C6768.91+3682.23+6832.5+3680.5+6835.66+3675.56C6838.57+3671.03+6762.61+3676.95+6761.78+3663.5C6760.96+3650.06+6835.27+3651.18+6836.26+3646.44C6837.52+3640.35+6780.04+3648.01+6779.95+3634.02C6779.85+3620.02+6833.45+3623.06+6833.45+3623.06C6833.45+3623.06+6848.52+3616.32+6857.95+3606.74C6867.39+3597.17+6882.73+3592.13+6884.62+3583.31C6887.21+3571.26+6910.47+3574.15+6908.55+3585.69C6906.64+3597.23+6927.92+3597.57+6932.39+3606.93Z" opacity="1" fill="#fcd397"/>
<path d="M7108.05+3207.23C7089.01+3114.5+7125.62+3054.49+7178.94+3045.96C7234.1+3037.13+7314.98+3054.62+7355.28+3212.57C7395.59+3370.52+7429.4+3620.85+7361.73+3693.09C7302.12+3756.7+6916.66+3685.7+6916.66+3685.7C6916.66+3685.7+6945.24+3668.04+6943.67+3640.2C6942.1+3612.35+6910.31+3589.5+6910.31+3589.5C6910.31+3589.5+6937.15+3553.41+7018.21+3546.79C7092.34+3540.73+7176.57+3555.9+7185.19+3543.49C7218.08+3496.14+7127.08+3299.96+7108.05+3207.23Z" opacity="1" fill="#272361"/>
</g>
</svg>
