<?xml version="1.0" encoding="UTF-8" standalone="no"?> <!-- Created with Vectornator for iOS (http://vectornator.io/) --><!DOCTYPE svg PUBLIC "-//W3C//DTD SVG 1.1//EN" "http://www.w3.org/Graphics/SVG/1.1/DTD/svg11.dtd">
<svg style="fill-rule:evenodd;clip-rule:evenodd;stroke-linecap:round;stroke-linejoin:round;" xmlns:vectornator="http://vectornator.io" xmlns:xlink="http://www.w3.org/1999/xlink" xmlns="http://www.w3.org/2000/svg" xml:space="preserve" version="1.1" viewBox="0 0 8323.69 5938.61">
<metadata>
<vectornator:setting key="DimensionsVisible" value="1"/>
<vectornator:setting key="New" value="1"/>
<vectornator:setting key="SnapToPoints" value="0"/>
<vectornator:setting key="GuidesVisible" value="1"/>
<vectornator:setting key="RulersVisible" value="1"/>
<vectornator:setting key="CMYKEnabledKey" value="0"/>
<vectornator:setting key="SnapToEdges" value="0"/>
<vectornator:setting key="DisplayWhiteBackground" value="1"/>
<vectornator:setting key="idAngle" value="45"/>
<vectornator:setting key="SnapToGuides" value="1"/>
<vectornator:setting key="GridSpacing" value="100"/>
<vectornator:setting key="Units" value="Pixels"/>
<vectornator:setting key="DynamicGuides" value="0"/>
<vectornator:setting key="SnapToGrid" value="0"/>
</metadata>
<defs>
<linearGradient y1="4307.52" id="LinearGradient" x1="7012.01" y2="5579.48" x2="9173.26" gradientUnits="userSpaceOnUse" gradientTransform="matrix(1 0 0 1 -2864.19 -1146.52)">
<stop stop-color="#2baae2" offset="0.427184"/>
<stop stop-color="#0081c3" offset="0.990291"/>
</linearGradient>
</defs>
<g id="Слой 8" vectornator:layerName="Слой 8">
<path d="M153.432+2744.91C439.132+1795.36+2003.33+1782.69+2073.19+862.002C2142.1-46.249+3126.79+46.9255+3703.52+420.725C4327.81+825.355+6519.08+23.5532+6444.66+679.343C6370.25+1335.13+7411.92+1593.25+7477.28+2596.35C7542.21+3592.96+6637.24+4817.72+6788.67+5427.06C6897.25+5863.96+4479.76+5590.32+3652.41+5572.34C3215.73+5562.84+1628.18+5855.78+1436.17+5291.41C1026.32+4086.78-179.046+3849.92+153.432+2744.91Z" fill-opacity="0.140875" fill="#4cc8ed" opacity="1"/>
<path d="M2906.32+1518.67L2953.73+1646.72L2498.22+1766.69L2906.32+1518.67Z" opacity="1" fill="#0081c3"/>
<path d="M2889.11+1467.93L2918.95+1549.18L2639.54+1678.33L2889.11+1467.93Z" opacity="1" fill="#1172ba"/>
<path d="M2812.18+1420.57L2889.56+1468.76L2663.99+1661.68L2968.22+1502.13L3061.66+1541.61L2479.11+1774.94L2812.18+1420.57Z" opacity="1" fill="#2baae2"/>
<path stroke="#2baae2" stroke-opacity="0.138889" stroke-width="15.78" d="M4282.96+4901.24L3902.89+4851.22C3893.13+4849.94+3882.17+4841.53+3878.4+4832.44L3731.69+4478.28C3727.92+4469.19+3729.72+4455.49+3735.71+4447.69L3969.06+4143.55C3975.05+4135.74+3987.81+4130.45+3997.57+4131.74L4377.64+4181.75C4387.39+4183.04+4398.36+4191.45+4402.12+4200.54L4548.84+4554.69C4552.61+4563.78+4550.8+4577.48+4544.81+4585.29L4311.46+4889.43C4305.47+4897.24+4292.71+4902.52+4282.96+4901.24Z" fill="none" stroke-linecap="round" opacity="1" stroke-linejoin="round"/>
<path stroke="#2baae2" stroke-opacity="0.138889" stroke-width="15.78" d="M3586.88+2654.45L3302.67+2617.05C3295.38+2616.09+3287.18+2609.8+3284.36+2603L3174.65+2338.17C3171.84+2331.38+3173.18+2321.13+3177.66+2315.3L3352.16+2087.87C3356.63+2082.03+3366.18+2078.08+3373.47+2079.04L3657.68+2116.44C3664.97+2117.4+3673.17+2123.69+3675.99+2130.48L3785.7+2395.31C3788.51+2402.11+3787.17+2412.35+3782.69+2418.19L3608.19+2645.62C3603.72+2651.46+3594.17+2655.41+3586.88+2654.45Z" fill="none" stroke-linecap="round" opacity="1" stroke-linejoin="round"/>
<path stroke="#2baae2" stroke-opacity="0.138889" stroke-width="15.78" d="M1342.81+3732.69L1134.58+3614.48C1129.24+3611.45+1124.87+3604.01+1124.83+3597.86L1123.08+3358.43C1123.04+3352.29+1127.3+3344.78+1132.6+3341.67L1339.08+3220.45C1344.38+3217.34+1353.01+3217.27+1358.35+3220.31L1566.58+3338.51C1571.92+3341.55+1576.29+3348.99+1576.33+3355.13L1578.08+3594.56C1578.12+3600.71+1573.86+3608.21+1568.56+3611.33L1362.08+3732.55C1356.78+3735.66+1348.15+3735.72+1342.81+3732.69Z" fill="none" stroke-linecap="round" opacity="1" stroke-linejoin="round"/>
<path stroke="#2baae2" stroke-opacity="0.138889" stroke-width="15.78" d="M5456.58+1958.31L5007.79+1801.39C4996.27+1797.36+4985.09+1784.37+4982.82+1772.38L4894.32+1305.26C4892.05+1293.27+4897.71+1277.09+4906.96+1269.13L5267.25+958.927C5276.5+950.965+5293.33+947.775+5304.85+951.803L5753.64+1108.72C5765.16+1112.75+5776.34+1125.74+5778.61+1137.73L5867.11+1604.85C5869.38+1616.84+5863.73+1633.02+5854.48+1640.98L5494.19+1951.18C5484.94+1959.15+5468.1+1962.33+5456.58+1958.31Z" fill="none" stroke-linecap="round" opacity="1" stroke-linejoin="round"/>
<path stroke="#2baae2" stroke-width="15.22" d="M7145.39+2137.09C7054.84+2137.09+6979.64+2196.45+6969.56+2273.95C6960.97+2272.56+6952.31+2271.6+6943.58+2271.6C6869.75+2271.6+6809.15+2320.01+6809.15+2380.99C6809.15+2437.23+6861.02+2483.46+6928.21+2489.67C6928.21+2489.67+6943.67+2491.4+6949.6+2492.03C6966.51+2493.81+6984.87+2495.6+7004.02+2497.27C7031.83+2499.69+7058.94+2501.64+7084.46+2502.97C7108.32+2504.22+7130.18+2504.9+7149.59+2504.9C7198.35+2504.9+7245.34+2502.78+7308.54+2498.5C7315.66+2498.02+7354.62+2495.31+7364.7+2494.65C7436.78+2490.18+7493.54+2440.43+7493.54+2379.37C7493.54+2334.94+7463.21+2295.65+7416.96+2276.27C7412.03+2235.47+7373.51+2204.23+7327.27+2204.23C7316.34+2204.23+7305.67+2206.09+7295.55+2209.51C7263.4+2164.88+7207.18+2137.09+7145.39+2137.09Z" fill="#2baae2" stroke-linecap="round" fill-opacity="0.0631313" opacity="0.196035" stroke-linejoin="round"/>
<path stroke="#2baae2" stroke-width="15.22" d="M2589.72+371.38C2523.73+371.38+2468.92+414.641+2461.58+471.123C2455.32+470.106+2449+469.41+2442.65+469.409C2388.84+469.41+2344.67+504.69+2344.67+549.125C2344.67+590.116+2382.47+623.804+2431.44+628.335C2431.44+628.335+2442.71+629.593+2447.03+630.048C2459.35+631.35+2472.74+632.654+2486.69+633.868C2506.96+635.634+2526.71+637.053+2545.31+638.026C2562.7+638.936+2578.63+639.43+2592.78+639.43C2628.31+639.43+2662.56+637.886+2708.62+634.767C2713.81+634.416+2742.2+632.441+2749.54+631.958C2802.08+628.7+2843.44+592.446+2843.44+547.945C2843.44+515.571+2821.34+486.932+2787.63+472.808C2784.04+443.074+2755.97+420.31+2722.27+420.31C2714.3+420.31+2706.52+421.663+2699.15+424.159C2675.72+391.631+2634.75+371.38+2589.72+371.38Z" fill="#2baae2" stroke-linecap="round" fill-opacity="0.0631313" opacity="0.196035" stroke-linejoin="round"/>
<path stroke="#2baae2" stroke-width="15.22" d="M1421.06+1711.08C1330.52+1711.08+1255.31+1770.44+1245.24+1847.95C1236.65+1846.55+1227.98+1845.6+1219.26+1845.6C1145.42+1845.6+1084.82+1894.01+1084.82+1954.98C1084.82+2011.22+1136.69+2057.45+1203.88+2063.67C1203.88+2063.67+1219.35+2065.39+1225.27+2066.02C1242.18+2067.81+1260.55+2069.59+1279.69+2071.26C1307.51+2073.68+1334.61+2075.63+1360.13+2076.96C1384+2078.21+1405.85+2078.89+1425.27+2078.89C1474.03+2078.89+1521.02+2076.77+1584.21+2072.49C1591.33+2072.01+1630.29+2069.3+1640.37+2068.64C1712.46+2064.17+1769.22+2014.42+1769.22+1953.36C1769.22+1908.94+1738.89+1869.64+1692.63+1850.26C1687.7+1809.46+1649.19+1778.22+1602.95+1778.22C1592.01+1778.22+1581.34+1780.08+1571.22+1783.5C1539.08+1738.87+1482.85+1711.08+1421.06+1711.08Z" fill="#2baae2" stroke-linecap="round" fill-opacity="0.0631313" opacity="0.196035" stroke-linejoin="round"/>
<path stroke="#2baae2" stroke-width="15.22" d="M5193.32+3706.37C5102.77+3706.37+5027.57+3765.74+5017.49+3843.24C5008.9+3841.84+5000.23+3840.89+4991.51+3840.89C4917.68+3840.89+4857.07+3889.3+4857.07+3950.27C4857.07+4006.52+4908.94+4052.74+4976.13+4058.96C4976.13+4058.96+4991.6+4060.68+4997.52+4061.31C5014.43+4063.1+5032.8+4064.88+5051.94+4066.55C5079.76+4068.97+5106.86+4070.92+5132.38+4072.26C5156.25+4073.5+5178.11+4074.18+5197.52+4074.18C5246.28+4074.18+5293.27+4072.06+5356.47+4067.78C5363.59+4067.3+5402.55+4064.59+5412.62+4063.93C5484.71+4059.46+5541.47+4009.71+5541.47+3948.65C5541.47+3904.23+5511.14+3864.93+5464.88+3845.55C5459.95+3804.75+5421.44+3773.51+5375.2+3773.51C5364.26+3773.51+5353.59+3775.37+5343.48+3778.8C5311.33+3734.16+5255.11+3706.37+5193.32+3706.37Z" fill="#2baae2" stroke-linecap="round" fill-opacity="0.0631313" opacity="0.196035" stroke-linejoin="round"/>
<path stroke="#2baae2" stroke-opacity="0.237374" stroke-width="15.22" d="M4950.57+744.174C4950.57+744.174+5395.61+349.907+5930.54+462.741C6465.46+575.575+6577.79+1162.23+7025.16+1513.66C7472.53+1865.09+7917.28+2067.97+7876.48+2667.3C7823.97+3438.83+6498.06+2740.46+6208.23+3262.56C5918.4+3784.66+6804.72+4053.62+6804.72+4053.62" fill="none" stroke-linecap="round" opacity="1" stroke-linejoin="round" stroke-dasharray="50,50,50,50"/>
<path stroke="#2baae2" stroke-opacity="0.237374" stroke-width="15.22" d="M3163.15+1242.3L2913.94+1486.43" fill="none" stroke-linecap="round" opacity="1" stroke-linejoin="round" stroke-dasharray="50,50,50,50"/>
</g>
<g id="Слой 20" vectornator:layerName="Слой 20">
<path d="M254.673+5496.18C251.075+5458.92+1981.45+5440.91+4138.32+5440.91C6295.18+5440.91+8060.33+5453.78+8065.38+5496.18C8070.51+5539.29+6316.89+5579.26+4160.03+5579.26C2003.16+5579.26+258.335+5534.1+254.673+5496.18Z" opacity="1" fill="#e0e0e0"/>
</g>
<g id="Слой 2" vectornator:layerName="Слой 2">
<path d="M3036.84+5259.66L4728.74+5259.66C4771.41+5259.66+4806+5286.16+4806+5318.86L4806+5318.86C4806+5351.56+4771.41+5378.07+4728.74+5378.07L3036.84+5378.07C2994.17+5378.07+2959.57+5351.56+2959.57+5318.86L2959.57+5318.86C2959.57+5286.16+2994.17+5259.66+3036.84+5259.66Z" opacity="1" fill="#272361"/>
<path d="M3313.67+4775.11L4478.12+4775.11L4478.12+5279.78L3313.67+5279.78L3313.67+4775.11Z" opacity="1" fill="#272361"/>
<path d="M2062.32+2217.54L5747.17+2217.54C5871.07+2217.54+5971.5+2296.18+5971.5+2393.19L5971.5+4638.23C5971.5+4735.24+5871.07+4813.88+5747.17+4813.88L2062.32+4813.88C1938.43+4813.88+1837.99+4735.24+1837.99+4638.23L1837.99+2393.19C1837.99+2296.18+1938.43+2217.54+2062.32+2217.54Z" opacity="1" fill="#0081c3"/>
<path d="M1904.56+2151.46L5913.74+2151.46C5948.08+2151.46+5975.84+2179.29+5975.76+2213.63L5970.67+4383.33L1839.32+4365.55L1842.31+2213.63C1842.35+2179.29+1870.22+2151.46+1904.56+2151.46Z" opacity="1" fill="#272361"/>
<path d="M1937+2258.68L5881.44+2258.68L5877.46+4293.97L1937+4268.43L1937+2258.68Z" opacity="1" fill="#e0e0e0"/>
<path stroke="#828282" stroke-width="10.1" d="M2496.27+2563.43L5377.46+2563.43L5377.46+3954.22L2496.27+3954.22L2496.27+2563.43Z" fill="#ffffff" stroke-linecap="round" opacity="1" stroke-linejoin="round" stroke-dasharray="50,50,50,50"/>
<path d="M3865.81+2873.97C3973.52+2873.97+4096.08+2975.59+4144.98+3061.99C4178.04+3042.7+4201.3+3033.31+4237.19+3029.52C4290.61+3023.86+4354.22+3095.62+4343.95+3161.35C4430.94+3194.12+4502.2+3261.26+4502.2+3344.67C4502.2+3453.21+4369.06+3523.86+4254.64+3531.95C4177.14+3537.75+4071.38+3533.19+3962.83+3536.61L3961.25+3417.64L4040.56+3417.64L3897.8+3254.26L3750.27+3414.47L3828+3419.23L3828+3535.03C3690+3539.78+3485.43+3516.46+3485.43+3516.46C3379.41+3505.29+3285.15+3454.22+3285.15+3354.71C3285.15+3247.58+3352.33+3206.81+3433.46+3191.58C3462.47+3186.13+3533.02+3191.09+3576.7+3210.38C3583.2+3060.52+3711.8+2873.97+3865.81+2873.97Z" opacity="1" fill="#e0e0e0"/>
</g>
<g id="Слой 3" vectornator:layerName="Слой 3">
<path stroke="#2e3690" stroke-width="25.19" d="M3057.91+3911.68L2833.75+5373.22" fill="#ffffff" stroke-linecap="round" opacity="1" stroke-linejoin="round"/>
<path stroke="#2e3690" stroke-width="25.19" d="M2666.37+3905.7L2445.2+5367.25" fill="#ffffff" stroke-linecap="round" opacity="1" stroke-linejoin="round"/>
<path stroke="#2e3690" stroke-width="25.19" d="M3000.78+4204.67L2618.65+4202.81" fill="#ffffff" stroke-linecap="round" opacity="1" stroke-linejoin="round"/>
<path stroke="#2e3690" stroke-width="25.19" d="M2970.96+4454.46L2590.69+4454.46L2970.96+4454.46Z" fill="#ffffff" stroke-linecap="round" opacity="1" stroke-linejoin="round"/>
<path stroke="#2e3690" stroke-width="25.19" d="M2935.54+4691.19L2549.68+4687.47" fill="#ffffff" stroke-linecap="round" opacity="1" stroke-linejoin="round"/>
<path stroke="#2e3690" stroke-width="25.19" d="M2888.94+4927.93L2514.26+4926.07" fill="#ffffff" stroke-linecap="round" opacity="1" stroke-linejoin="round"/>
<path stroke="#2e3690" stroke-width="25.19" d="M2857.25+5168.4L2480.71+5164.67" fill="#ffffff" stroke-linecap="round" opacity="1" stroke-linejoin="round"/>
</g>
<g id="Слой 14" vectornator:layerName="Слой 14">
<path d="M2935.68+2849.44C2913.68+2829.19+2890.74+2810.19+2890.74+2810.19L2485.6+2867.02C2465.07+2869.9+2452.13+2898.59+2456.69+2931.11L2549.87+3595.41C2554.43+3627.93+2574.77+3651.96+2595.3+3649.08L3038.4+3586.93C3058.93+3584.05+3071.88+3555.35+3067.31+3522.83L2978.72+2891.18C2978.72+2891.18+2957.67+2869.69+2935.68+2849.44Z" opacity="1" fill="#2baae2"/>
<path d="M2978.65+2889.58L2905.45+2908.69C2896.77+2910.95+2889.8+2905.52+2889.88+2896.56L2890.59+2810.11L2978.65+2889.58Z" opacity="1" fill="#4cc8ed"/>
<path d="M2889.7+2990.56L2554.44+3037.58C2548.94+3038.36+2545.1+3043.44+2545.87+3048.95L2545.87+3048.95C2546.65+3054.45+2551.73+3058.29+2557.24+3057.51L2892.49+3010.49C2898+3009.72+2901.83+3004.63+2901.06+2999.13L2901.06+2999.13C2900.29+2993.62+2895.2+2989.79+2889.7+2990.56Z" opacity="1" fill="#ffffff"/>
<path d="M2896.81+3071.81L2742.04+3093.52L2561.55+3118.83C2556.05+3119.61+2552.21+3124.69+2552.98+3130.2L2552.98+3130.2C2553.76+3135.7+2558.84+3139.54+2564.35+3138.76L2899.6+3091.74C2905.11+3090.97+2908.94+3085.88+2908.17+3080.38L2908.17+3080.38C2907.4+3074.87+2902.31+3071.04+2896.81+3071.81Z" opacity="1" fill="#ffffff"/>
<path d="M2908.77+3150.97L2573.52+3198C2568.01+3198.77+2564.18+3203.86+2564.95+3209.36L2564.95+3209.36C2565.72+3214.86+2570.81+3218.7+2576.31+3217.93L2911.57+3170.9C2917.07+3170.13+2920.91+3165.04+2920.14+3159.54L2920.14+3159.54C2919.36+3154.03+2914.28+3150.2+2908.77+3150.97Z" opacity="1" fill="#ffffff"/>
<path d="M2921.58+3234.23L2586.33+3281.26C2580.82+3282.03+2576.99+3287.11+2577.76+3292.62L2577.76+3292.62C2578.53+3298.12+2583.62+3301.96+2589.12+3301.19L2924.38+3254.16C2929.88+3253.39+2933.72+3248.3+2932.95+3242.8L2932.95+3242.8C2932.18+3237.29+2927.09+3233.46+2921.58+3234.23Z" opacity="1" fill="#ffffff"/>
<path d="M2929.77+3318.48L2594.51+3365.5C2589.01+3366.28+2585.17+3371.36+2585.94+3376.87L2585.94+3376.87C2586.72+3382.37+2591.8+3386.21+2597.31+3385.43L2932.56+3338.41C2938.07+3337.64+2941.9+3332.55+2941.13+3327.05L2941.13+3327.05C2940.36+3321.54+2935.27+3317.71+2929.77+3318.48Z" opacity="1" fill="#ffffff"/>
<path d="M2940.97+3402.49L2605.71+3449.51C2600.2+3450.28+2596.37+3455.37+2597.14+3460.87L2597.14+3460.87C2597.91+3466.38+2603+3470.21+2608.5+3469.44L2943.76+3422.42C2949.26+3421.64+2953.1+3416.56+2952.33+3411.05L2952.33+3411.05C2951.56+3405.55+2946.47+3401.71+2940.97+3402.49Z" opacity="1" fill="#ffffff"/>
</g>
<g id="Слой 11" vectornator:layerName="Слой 11">
<path d="M2550.77+4790.33L2566.84+4871.08L2594.55+4869.92L2594.16+4771.86L2550.77+4790.33Z" opacity="1" fill="#fdbc8c"/>
<path d="M2719.53+4790.88L2726.59+4858.81L2752.49+4856.46L2750.13+4783.15L2719.53+4790.88Z" opacity="1" fill="#fdbc8c"/>
<path d="M2554.61+4861.01C2554.61+4861.01+2531.82+4894.55+2549.06+4921.83L2604.27+4926.76C2604.27+4926.76+2674.58+4940.25+2693.28+4933.44C2711.98+4926.64+2678.76+4905.72+2678.76+4905.72L2628.81+4878.11L2599.89+4859.7L2554.61+4861.01Z" opacity="1" fill="#272361"/>
<path d="M2716.41+4848.54C2716.41+4848.54+2693.62+4882.07+2710.86+4909.36L2766.07+4914.29C2766.07+4914.29+2836.38+4927.78+2855.08+4920.97C2873.78+4914.16+2840.55+4893.25+2840.55+4893.25L2790.6+4865.63L2761.68+4847.22L2716.41+4848.54Z" opacity="1" fill="#272361"/>
<path d="M2482.53+3961.25C2482.53+3961.25+2474.82+4610.35+2546.83+4811.47C2546.83+4811.47+2563.9+4820.2+2579.2+4819.55C2594.51+4818.9+2601.11+4806.68+2601.11+4806.68C2614.73+4662.45+2609.85+4438.02+2612.87+4289.74C2614.6+4204.68+2619.41+4136.82+2619.41+4136.82C2619.41+4136.82+2641.92+4616.45+2709+4806.34C2709+4806.34+2722+4814.43+2736.04+4814.2C2750.09+4813.97+2765.18+4805.41+2765.18+4805.41C2794.68+4595.2+2727.97+3962.97+2727.97+3962.97L2482.53+3961.25Z" opacity="1" fill="#2e3690"/>
<path d="M2583.37+4054.84C2583.37+4054.84+2584.65+4091.49+2593.74+4111.55C2602.83+4131.6+2619.74+4135.07+2619.74+4135.07C2619.74+4135.07+2619.79+4139.56+2616.7+4250.97C2616.47+4259.14+2616.89+4309.24+2616.81+4317.36C2615.72+4420+2626.79+4501.16+2611.28+4652.62C2594.61+4815.42+2597.4+4807.33+2597.4+4807.33C2597.4+4807.33+2611.6+4615.93+2606.73+4448.75C2601.73+4276.87+2609.26+4140.06+2609.26+4140.06C2609.26+4140.06+2596.62+4126.69+2589.04+4118.19C2575.69+4103.23+2583.37+4054.84+2583.37+4054.84Z" opacity="1" fill="#272361"/>
<path d="M2918.54+3597.75C2918.54+3597.75+2910.31+3615.34+2910.16+3629.65C2910.1+3635.16+2861.54+3678.84+2861.54+3678.84C2861.54+3678.84+2872.64+3701+2885.61+3692.73C2902.27+3682.12+2928.07+3648.71+2931.73+3648.46C2943.31+3647.66+2955.11+3642.17+2955.11+3642.17C2955.11+3642.17+3040.02+3592.67+3033.1+3586.32C3026.17+3579.97+3006.87+3602.55+3002.36+3598.3C2997.85+3594.05+3039.1+3568.51+3031.78+3562.36C3024.47+3556.21+2998.59+3589.86+2995.39+3586.49C2992.18+3583.12+3026.48+3554.78+3018.96+3548.89C3011.43+3543+2983.8+3580.8+2979.47+3577.65C2975.13+3574.5+3008.88+3540.75+3001.62+3536.28C2994.35+3531.81+2971.58+3571.36+2959.54+3573.02C2947.5+3574.68+2963.57+3538.78+2953.45+3542.94C2943.34+3547.09+2918.54+3597.75+2918.54+3597.75Z" opacity="1" fill="#fdbc8c"/>
<path d="M2519.83+3306.91C2519.83+3306.91+2537.67+3352.82+2537.67+3384.87C2537.67+3416.92+2529.45+3446.55+2529.45+3446.55C2529.45+3446.55+2510.16+3453.66+2460.17+3474.7C2457.84+3475.68+2455.44+3476.7+2452.97+3477.74C2400.21+3500.05+2562.25+3515.6+2562.25+3515.6L2700.75+3492.68C2700.75+3492.68+2683.62+3469.28+2652.37+3457.94C2641.72+3454.08+2621.44+3448.11+2619.07+3441.37C2613.55+3425.67+2608.74+3407.57+2607.85+3390.52C2605.58+3346.96+2628.88+3310.2+2628.88+3310.2L2519.83+3306.91Z" opacity="1" fill="#fdbc8c"/>
<path d="M2519.83+3306.91C2519.83+3306.91+2527.89+3346.72+2527.89+3378.77C2527.89+3410.82+2519.83+3435.12+2519.83+3435.12C2519.83+3435.12+2548.41+3405.91+2572.1+3396.98C2595.8+3388.06+2614.25+3375.05+2614.25+3375.05C2614.25+3375.05+2614.23+3361.64+2615.14+3352.8C2619.01+3315.45+2628.88+3310.2+2628.88+3310.2L2519.83+3306.91Z" opacity="1" fill="#dfa58b"/>
<path d="M2481.13+3465.41C2481.13+3465.41+2527.97+3474.7+2571.38+3475.1C2625.48+3475.59+2661.69+3462.33+2661.69+3462.33C2661.69+3462.33+2771.39+3483+2778.61+3529.34C2788.19+3590.86+2798.88+3690.04+2800.7+3723.66C2802.51+3757.28+2776.68+3745.78+2816.77+3710.84C2859.41+3673.69+2909.55+3632.1+2909.55+3632.1C2909.55+3632.1+2908.52+3638.11+2914.24+3644.6C2919.96+3651.09+2932.49+3648.9+2932.49+3648.9C2932.49+3648.9+2907.25+3693.33+2859.74+3768.26C2818.13+3833.89+2779.94+3842.65+2756.95+3827.94C2733.97+3813.24+2724.98+3736.21+2720.99+3719.32C2717.01+3702.43+2703.46+3741.93+2717.25+3804.38C2731.04+3866.83+2759.2+3926.19+2746.85+3980.16C2734.5+4034.12+2655.6+4039.44+2607.34+4040.92C2554.19+4042.54+2441.16+4049.6+2433.86+3981.73C2424.94+3898.81+2440.46+3889.91+2431.41+3782.49C2430.26+3768.72+2494.02+3822.79+2427.6+3839.93C2403.53+3846.13+2353.93+3863.79+2341.75+3834.92C2331.37+3810.32+2339.42+3773.65+2345.59+3715.18C2351.75+3656.7+2361.58+3615.37+2370.96+3560.17C2381.79+3496.39+2443.87+3481.51+2443.87+3481.51L2481.13+3465.41Z" opacity="1" fill="#0081c3"/>
<path stroke="#e0e0e0" stroke-width="8.77" d="M2651.24+3250.27C2651.24+3235.81+2659.12+3224.08+2668.84+3224.08C2678.56+3224.08+2686.45+3235.81+2686.45+3250.27C2686.45+3264.73+2678.56+3276.45+2668.84+3276.45C2659.12+3276.45+2651.24+3264.73+2651.24+3250.27Z" fill="none" stroke-linecap="round" opacity="1" stroke-linejoin="round"/>
<path d="M2473.27+3172.96C2453.86+3200.53+2478.48+3240.62+2482.68+3271.45C2484.27+3283.15+2462.57+3251.07+2458.95+3272.5C2457.02+3283.95+2475.25+3322.57+2487.19+3311.3C2499.12+3300.04+2512.09+3332.47+2522.02+3339.9C2546.41+3358.15+2572.03+3372.91+2607.96+3370.78C2673.94+3366.85+2668.66+3289.47+2663.24+3233.33C2660.27+3202.54+2652.38+3178.52+2636.21+3162.08C2622.9+3148.54+2603.55+3140.6+2580.37+3134.33C2529.05+3120.44+2500.04+3134.93+2473.27+3172.96Z" opacity="1" fill="#fdbc8c"/>
<path d="M2657.49+3246.16C2658.16+3242.66+2660.75+3240.15+2663.75+3239.57C2664.84+3239.36+2665.22+3257.3+2665.22+3257.3C2664.79+3257.26+2664.2+3257.19+2663.76+3257.07C2659.39+3255.81+2656.58+3250.93+2657.49+3246.16Z" opacity="1" fill="#272361"/>
<path stroke="#e0e0e0" stroke-width="8.86" d="M2684.86+3253.42L2627.37+3258.03L2579.49+3257.1" fill="none" stroke-linecap="butt" opacity="1" stroke-linejoin="round"/>
<path d="M2540.13+3441.36C2572.11+3442.63+2672.42+3413.52+2672.42+3413.52C2672.42+3413.52+2646.25+3402.34+2625+3341.74C2614.54+3311.9+2618.35+3245.89+2618.35+3245.89C2618.35+3245.89+2627.05+3239.61+2641.82+3225.9C2656.59+3212.2+2657.85+3205.89+2665.28+3196.36C2673.62+3185.65+2667.73+3143.73+2646.17+3129.57C2635.61+3122.64+2586.98+3112.75+2559.8+3117.33C2527.16+3122.83+2532.88+3125.05+2527.11+3125.58C2521.35+3126.11+2516.72+3121.62+2486.67+3130.02C2436.79+3143.97+2430.34+3218+2413.42+3254.84C2394.06+3296.97+2379.61+3349.86+2411.29+3396.49C2442.97+3443.12+2508.15+3440.09+2540.13+3441.36Z" opacity="1" fill="#272361"/>
<path d="M2648.45+3309.47C2648.75+3307.81+2652.94+3309.98+2657.82+3311.22C2661.75+3312.22+2664.23+3311.96+2664.23+3311.96C2664.23+3311.96+2664.17+3312.96+2663.54+3316.41C2662.9+3319.86+2662.08+3322.79+2662.08+3322.79C2653.13+3319.53+2647.47+3314.86+2648.45+3309.47Z" opacity="1" fill="#e0e0e0"/>
<path d="M2647.66+3217.96L2656.18+3214.14L2660.19+3212.33C2660.19+3212.33+2660.74+3212.05+2661.4+3215.74C2662.04+3219.35+2661.48+3219.39+2661.48+3219.39L2651.84+3223.69C2648.57+3225.15+2644.99+3225.05+2643.83+3223.47L2643.83+3223.47C2642.68+3221.88+2644.39+3219.42+2647.66+3217.96Z" opacity="1" fill="#272361"/>
<path d="M2435.31+3635.94C2435.31+3635.94+2418.85+3679.66+2411.97+3715.72C2405.08+3751.78+2407.79+3780.19+2407.79+3780.19L2434.26+3774.6C2434.26+3774.6+2432.45+3775.86+2431+3741.31C2429.33+3701.24+2435.31+3635.94+2435.31+3635.94Z" opacity="1" fill="#1172ba"/>
</g>
<g id="Слой 6" vectornator:layerName="Слой 6">
<path d="M1651.26+1105.34L2075.7+1105.34C2095.36+1105.34+2111.31+1121.04+2111.31+1140.42L2111.31+1536.25C2111.31+1555.63+2095.36+1571.33+2075.7+1571.33L1651.26+1571.33C1631.59+1571.33+1615.65+1555.63+1615.65+1536.25L1615.65+1140.42C1615.65+1121.04+1631.59+1105.34+1651.26+1105.34Z" opacity="1" fill="#2baae2"/>
<path d="M1806.89+1252.65L1809.47+1424.59C1809.55+1430.52+1813.12+1432.97+1817.42+1430.05L1942.06+1345.69C1946.37+1342.77+1946.38+1338.02+1942.1+1335.06L1814.5+1247.25C1810.21+1244.3+1806.81+1246.71+1806.89+1252.65Z" opacity="1" fill="#ffffff"/>
</g>
<g id="Слой 13" vectornator:layerName="Слой 13">
<path d="M1534.55+2228.83L1150.15+2310.11C1132.34+2313.88+1120.91+2331.16+1124.62+2348.71L1200.43+2707.19C1204.14+2724.74+1221.58+2735.91+1239.4+2732.15L1623.79+2650.86C1641.6+2647.1+1653.03+2629.82+1649.32+2612.27L1573.52+2253.78C1569.81+2236.23+1552.36+2225.06+1534.55+2228.83Z" opacity="1" fill="#2baae2"/>
<path d="M1519.97+2253.69L1173.55+2326.94C1157.5+2330.34+1147.2+2345.91+1150.54+2361.72L1218.86+2684.8C1222.2+2700.61+1237.92+2710.68+1253.97+2707.29L1600.4+2634.03C1616.45+2630.64+1626.75+2615.07+1623.4+2599.25L1555.09+2276.18C1551.74+2260.36+1536.02+2250.29+1519.97+2253.69Z" opacity="1" fill="#ffffff"/>
<path d="M1528.45+2344.61C1523.73+2322.28+1501.8+2308.01+1479.47+2312.73C1457.14+2317.45+1442.86+2339.38+1447.58+2361.71C1452.31+2384.04+1474.24+2398.32+1496.57+2393.59C1518.9+2388.87+1533.17+2366.94+1528.45+2344.61Z" opacity="1" fill="#2baae2"/>
<path d="M1593.75+2554.12L1599.34+2584.28C1601.97+2598.47+1592.66+2612.47+1578.55+2615.54L1267+2683.31C1252.58+2686.45+1238.27+2677.32+1235.04+2662.92L1202.04+2515.7C1202.04+2515.7+1213.72+2462.34+1268.22+2481.13C1322.71+2499.92+1453.62+2569.05+1453.62+2569.05C1453.62+2569.05+1491.02+2511.36+1532.06+2509.11C1573.11+2506.86+1593.75+2554.12+1593.75+2554.12Z" opacity="1" fill="#2baae2"/>
</g>
<g id="1" vectornator:layerName="1">
<path d="M4623.04+2659.23L5190.47+2659.23C5216.76+2659.23+5238.08+2681.15+5238.08+2708.18L5238.08+3260.46C5238.08+3287.49+5216.76+3309.41+5190.47+3309.41L4623.04+3309.41C4596.75+3309.41+4575.44+3287.49+4575.44+3260.46L4575.44+2708.18C4575.44+2681.15+4596.75+2659.23+4623.04+2659.23Z" opacity="1" fill="#2baae2"/>
<path stroke="#ffffff" stroke-width="10.55" d="M4743.76+2752.32C4743.76+2732.91+4759.65+2717.17+4779.26+2717.17C4798.86+2717.17+4814.76+2732.91+4814.76+2752.32C4814.76+2771.73+4798.86+2787.47+4779.26+2787.47C4759.65+2787.47+4743.76+2771.73+4743.76+2752.32Z" fill="none" stroke-linecap="round" opacity="1" stroke-linejoin="round"/>
<path stroke="#ffffff" stroke-width="10.55" d="M4714.1+3087.42C4714.1+3068.22+4729.6+3052.66+4748.71+3052.66C4767.82+3052.66+4783.32+3068.22+4783.32+3087.42C4783.32+3106.61+4767.82+3122.17+4748.71+3122.17C4729.6+3122.17+4714.1+3106.61+4714.1+3087.42Z" fill="none" stroke-linecap="round" opacity="1" stroke-linejoin="round"/>
<path stroke="#ffffff" stroke-width="10.55" d="M5081.48+3059.97C5081.48+3040.87+5097.12+3025.38+5116.41+3025.38C5135.7+3025.38+5151.34+3040.87+5151.34+3059.97C5151.34+3079.06+5135.7+3094.55+5116.41+3094.55C5097.12+3094.55+5081.48+3079.06+5081.48+3059.97Z" fill="none" stroke-linecap="round" opacity="1" stroke-linejoin="round"/>
<path stroke="#ffffff" stroke-width="10.55" d="M4751.88+2779.14C4751.88+2779.14+4686.14+2825.96+4677.93+2916.19C4669.73+3006.42+4721.39+3063.38+4721.39+3063.38" fill="none" stroke-linecap="round" opacity="1" stroke-linejoin="round"/>
<path stroke="#ffffff" stroke-width="10.55" d="M5089.71+3086C5089.71+3086+5026.08+3141.95+4948.63+3148.22C4871.18+3154.49+4779.91+3111.08+4779.91+3111.08" fill="none" stroke-linecap="round" opacity="1" stroke-linejoin="round"/>
<path stroke="#ffffff" stroke-width="10.55" d="M4863.74+2907.41C4863.74+2907.41+5024.57+2818.96+4972.74+2748.41C4920.91+2677.85+4817.03+2740.88+4817.03+2740.88" fill="none" stroke-linecap="round" opacity="1" stroke-linejoin="round"/>
<path stroke="#ffffff" stroke-width="10.55" d="M4799.48+2935.97C4799.48+2916.87+4815.12+2901.38+4834.41+2901.38C4853.7+2901.38+4869.34+2916.87+4869.34+2935.97C4869.34+2955.06+4853.7+2970.55+4834.41+2970.55C4815.12+2970.55+4799.48+2955.06+4799.48+2935.97Z" fill="none" stroke-linecap="round" opacity="1" stroke-linejoin="round"/>
<path stroke="#ffffff" stroke-width="10.55" d="M4827.74+2974.41C4827.74+2974.41+4805.74+3118.41+4959.74+3061.41C5113.74+3004.41+5135.74+2798.41+5135.74+2798.41" fill="none" stroke-linecap="round" opacity="1" stroke-linejoin="round"/>
<path stroke="#ffffff" stroke-width="10.55" d="M5104.8+2761.45C5104.8+2742.35+5120.44+2726.87+5139.73+2726.87C5159.02+2726.87+5174.66+2742.35+5174.66+2761.45C5174.66+2780.55+5159.02+2796.03+5139.73+2796.03C5120.44+2796.03+5104.8+2780.55+5104.8+2761.45Z" fill="none" stroke-linecap="round" opacity="1" stroke-linejoin="round"/>
</g>
<g id="Слой 12" vectornator:layerName="Слой 12">
<g opacity="1">
<path stroke="#2baae2" stroke-width="30.35" d="M550.82+3034.32C550.82+3034.32+613.401+2964.84+739.188+2952.13C864.976+2939.43+962.19+3009.45+962.19+3009.45" fill="none" stroke-linecap="round" opacity="1" stroke-linejoin="round"/>
<path stroke="#2baae2" stroke-width="30.35" d="M595.905+3104.01C595.905+3104.01+647.01+3049.48+749.442+3039.24C851.874+3029.01+930.856+3083.6+930.856+3083.6" fill="none" stroke-linecap="round" opacity="1" stroke-linejoin="round"/>
<path stroke="#2baae2" stroke-width="30.35" d="M658.065+3171.47C658.065+3171.47+692.044+3127.01+761.225+3119.67C830.406+3112.33+884.429+3158.27+884.429+3158.27" fill="none" stroke-linecap="round" opacity="1" stroke-linejoin="round"/>
<path d="M727.585+3243.8C725.787+3219.02+744.602+3197.47+769.61+3195.65C794.617+3193.84+816.346+3212.45+818.144+3237.23C819.942+3262+801.127+3283.55+776.119+3285.37C751.112+3287.18+729.383+3268.57+727.585+3243.8Z" opacity="1" fill="#2baae2"/>
</g>
</g>
<g id="'" vectornator:layerName="'">
<path d="M5831.5+1182.62L6199.35+1231.86C6216.39+1234.14+6228.27+1250.47+6225.88+1268.33L6177.03+1633.21C6174.64+1651.07+6158.89+1663.7+6141.84+1661.42L5774+1612.18C5756.96+1609.9+5745.08+1593.57+5747.47+1575.71L5796.31+1210.83C5798.71+1192.97+5814.46+1180.34+5831.5+1182.62Z" opacity="1" fill="#2baae2"/>
<path stroke="#ffffff" stroke-width="10.55" d="M5894.4+1277.9C5896.26+1264+5908.46+1254.17+5921.66+1255.94C5934.86+1257.7+5944.05+1270.4+5942.19+1284.3C5940.33+1298.2+5928.12+1308.03+5914.92+1306.26C5901.73+1304.5+5892.54+1291.8+5894.4+1277.9Z" fill="none" stroke-linecap="round" opacity="1" stroke-linejoin="round"/>
<path stroke="#ffffff" stroke-width="10.55" d="M5842.32+1515.14C5844.16+1501.4+5856.08+1491.65+5868.95+1493.37C5881.81+1495.1+5890.75+1507.63+5888.91+1521.37C5887.07+1535.12+5875.15+1544.86+5862.29+1543.14C5849.42+1541.42+5840.48+1528.88+5842.32+1515.14Z" fill="none" stroke-linecap="round" opacity="1" stroke-linejoin="round"/>
<path stroke="#ffffff" stroke-width="10.55" d="M6092.24+1528.59C6094.07+1514.91+6106.08+1505.24+6119.06+1506.98C6132.04+1508.71+6141.09+1521.21+6139.26+1534.88C6137.43+1548.55+6125.42+1558.23+6112.43+1556.49C6099.45+1554.75+6090.41+1542.26+6092.24+1528.59Z" fill="none" stroke-linecap="round" opacity="1" stroke-linejoin="round"/>
<path stroke="#ffffff" stroke-width="10.55" d="M5897.29+1297.84C5897.29+1297.84+5848.56+1325.43+5834.39+1389.29C5820.22+1453.15+5849.53+1498.58+5849.53+1498.58" fill="none" stroke-linecap="round" opacity="1" stroke-linejoin="round"/>
<path stroke="#ffffff" stroke-width="10.55" d="M6095.28+1547.97C6095.28+1547.97+6047.09+1582.29+5994.36+1579.8C5941.63+1577.31+5884.35+1538.01+5884.35+1538.01" fill="none" stroke-linecap="round" opacity="1" stroke-linejoin="round"/>
</g>
<g id="Слой 7" vectornator:layerName="Слой 7">
<path d="M6540.29+2036.61C6557.13+2016.09+6574.97+1996.55+6574.97+1996.55L6938.22+1996.55C6956.63+1996.55+6971.55+2020.19+6971.55+2049.35L6971.55+2644.98C6971.55+2674.13+6956.63+2697.77+6938.22+2697.77L6540.92+2697.77C6522.52+2697.77+6507.59+2674.13+6507.59+2644.98L6507.59+2078.62C6507.59+2078.62+6523.44+2057.13+6540.29+2036.61Z" opacity="1" fill="#2baae2"/>
<path d="M6507.45+2077.2L6574.18+2084.98C6582.08+2085.9+6587.54+2080.27+6586.37+2072.39L6575.09+1996.47L6507.45+2077.2Z" opacity="1" fill="#4cc8ed"/>
<path d="M6598.12+2155.03L6898.72+2155.03C6903.66+2155.03+6907.66+2159.03+6907.66+2163.96L6907.66+2163.96C6907.66+2168.9+6903.66+2172.9+6898.72+2172.9L6598.12+2172.9C6593.19+2172.9+6589.19+2168.9+6589.19+2163.96L6589.19+2163.96C6589.19+2159.03+6593.19+2155.03+6598.12+2155.03Z" opacity="1" fill="#ffffff"/>
<path d="M6601.9+2227.35L6740.67+2227.35L6902.5+2227.35C6907.43+2227.35+6911.43+2231.35+6911.43+2236.29L6911.43+2236.29C6911.43+2241.22+6907.43+2245.22+6902.5+2245.22L6601.9+2245.22C6596.96+2245.22+6592.96+2241.22+6592.96+2236.29L6592.96+2236.29C6592.96+2231.35+6596.96+2227.35+6601.9+2227.35Z" opacity="1" fill="#ffffff"/>
<path d="M6601.14+2298.43L6901.74+2298.43C6906.67+2298.43+6910.67+2302.44+6910.67+2307.37L6910.67+2307.37C6910.67+2312.3+6906.67+2316.3+6901.74+2316.3L6601.14+2316.3C6596.2+2316.3+6592.2+2312.3+6592.2+2307.37L6592.2+2307.37C6592.2+2302.44+6596.2+2298.43+6601.14+2298.43Z" opacity="1" fill="#ffffff"/>
<path d="M6600.14+2373.23L6900.74+2373.23C6905.68+2373.23+6909.68+2377.23+6909.68+2382.16L6909.68+2382.16C6909.68+2387.1+6905.68+2391.1+6900.74+2391.1L6600.14+2391.1C6595.21+2391.1+6591.21+2387.1+6591.21+2382.16L6591.21+2382.16C6591.21+2377.23+6595.21+2373.23+6600.14+2373.23Z" opacity="1" fill="#ffffff"/>
<path d="M6603.34+2448.32L6903.94+2448.32C6908.87+2448.32+6912.87+2452.32+6912.87+2457.25L6912.87+2457.25C6912.87+2462.19+6908.87+2466.19+6903.94+2466.19L6603.34+2466.19C6598.4+2466.19+6594.4+2462.19+6594.4+2457.25L6594.4+2457.25C6594.4+2452.32+6598.4+2448.32+6603.34+2448.32Z" opacity="1" fill="#ffffff"/>
<path d="M6603.85+2523.57L6904.45+2523.57C6909.39+2523.57+6913.39+2527.57+6913.39+2532.5L6913.39+2532.5C6913.39+2537.44+6909.39+2541.44+6904.45+2541.44L6603.85+2541.44C6598.92+2541.44+6594.92+2537.44+6594.92+2532.5L6594.92+2532.5C6594.92+2527.57+6598.92+2523.57+6603.85+2523.57Z" opacity="1" fill="#ffffff"/>
</g>
<g id="Слой 9" vectornator:layerName="Слой 9">
<g opacity="1">
<g>
<path stroke-linecap="round" stroke-width="20.06" stroke="#0081c3" d="M3961.3+1498.84C3961.14+1532.89+3959.84+1818.47+3959.84+1818.47L3965.46+2126.47" fill="none" stroke-linejoin="round"/>
<path d="M4031.37+1529.25L3961.71+1408.58L3890.95+1528.61L4031.37+1529.25Z" fill="#0081c3"/>
</g>
</g>
<g opacity="1">
<g>
<path stroke-linecap="round" stroke-width="20.06" stroke="#0081c3" d="M4536.32+1496.65C4536.48+1530.7+4537.78+1816.28+4537.78+1816.28L4294.57+1818.29L4291.46+2128.3" fill="none" stroke-linejoin="round"/>
<path d="M4606.67+1526.42L4535.91+1406.38L4466.25+1527.06L4606.67+1526.42Z" fill="#0081c3"/>
</g>
</g>
<g opacity="1">
<g>
<path stroke-linecap="round" stroke-width="20.06" stroke="#0081c3" d="M3389.86+1502.13C3389.7+1536.18+3388.4+1821.76+3388.4+1821.76L3631.61+1823.77L3634.73+2133.79" fill="none" stroke-linejoin="round"/>
<path d="M3459.93+1532.54L3390.27+1411.86L3319.51+1531.9L3459.93+1532.54Z" fill="#0081c3"/>
</g>
</g>
</g>
<g id="Слой 10" vectornator:layerName="Слой 10">
<path d="M912.063+4731.57C912.063+4731.57+922.353+4626.33+894.028+4596.34C865.703+4566.36+828.459+4630.93+809.756+4592.82C791.054+4554.71+837.434+4520.23+802.379+4465.96C775.663+4424.6+731.449+4491.55+703.865+4454.76C676.282+4417.96+724.209+4357.51+701.301+4306.73C678.394+4255.95+628.983+4279.22+612.236+4251.63C595.143+4223.47+644.136+4185.65+597.941+4151.55C547.617+4114.4+540.951+4180.77+499.703+4169.87C468.693+4161.68+443.642+4082.61+391.046+4128.52C346.905+4167.05+388.411+4224.8+388.442+4269.23C388.482+4325.1+348.398+4326.45+376.426+4384.25C395.454+4423.49+444.463+4389.07+466.282+4425.13C488.101+4461.19+428.783+4487.42+463.702+4528.48C498.621+4569.55+568.885+4546.97+590.245+4577.24C611.606+4607.51+566.568+4677.59+597.933+4714.8C629.297+4752.01+681.514+4717+718.737+4748.74C755.96+4780.47+701.588+4836.39+739.065+4867.93C776.543+4899.47+881.325+4864.41+881.325+4864.41L912.063+4731.57Z" opacity="1" fill="#0081c3"/>
<path d="M1072.73+4765.5C1072.73+4765.5+1154.55+4654.38+1139.28+4600.13C1124.01+4545.87+1066.44+4584.41+1068.38+4527.96C1070.33+4471.51+1129.61+4471.63+1111.79+4386.99C1094.32+4303.98+1047.87+4349.85+1037.99+4288.46C1028.11+4227.07+1078.16+4225.35+1083.23+4151.59C1088.31+4077.82+1018.16+4077.85+1011.79+4035.15C1005.91+3995.75+1086.73+3976.95+1052.12+3905.13C1014.4+3826.9+976.43+3876.71+932.679+3834.61C899.788+3802.96+856.82+3714.8+788.255+3725.8C718.823+3736.93+759.255+3816.01+730.119+3866.07C693.478+3929.04+643.121+3901.58+639.755+3986.95C637.469+4044.91+697.715+4044.04+697.523+4089.53C697.332+4135.02+636.624+4141.02+652.752+4212.53C668.881+4284.03+740.714+4300.67+748.361+4353.87C755.468+4403.3+681.792+4454.86+696.063+4519.46C710.334+4584.06+771.557+4589.42+796.656+4652.08C821.755+4714.75+744.145+4731.37+769.685+4794C795.226+4856.63+947.568+4892.9+947.568+4892.9L1072.73+4765.5Z" opacity="1" fill="#2baae2"/>
<path d="M1043.94+4876.31C1043.94+4876.31+1171.52+4840.16+1194.52+4792.41C1217.52+4744.65+1150.46+4724.55+1185.58+4686.98C1220.7+4649.4+1258.12+4691.65+1305.27+4626.88C1341.2+4577.53+1272.27+4540.57+1302.93+4491.56C1333.6+4442.56+1396.73+4486.61+1444.21+4439.24C1491.7+4391.86+1449.56+4333.5+1473.89+4302.01C1498.73+4269.87+1556.57+4322.87+1577.97+4249.88C1601.29+4170.36+1526.78+4183.35+1524.6+4124.62C1522.97+4080.47+1600.52+4020.9+1532.65+3965.75C1475.69+3919.47+1426.95+3994+1378.6+4008.7C1317.79+4027.19+1302.68+3974.06+1249.3+4030.6C1213.06+4068.98+1267.2+4123.13+1235.37+4164.19C1203.54+4205.25+1154.81+4134.63+1121.99+4194.85C1089.16+4255.07+1120.36+4329.1+1094.68+4367.64C1069+4406.17+994.676+4381.54+964.838+4435.75C935+4489.95+976.806+4540.12+954.925+4600.34C933.043+4660.57+867.748+4614.41+846.165+4674.91C824.581+4735.41+899.656+4878.4+899.656+4878.4L1043.94+4876.31Z" opacity="1" fill="#0081c3"/>
<path d="M767.725+4950.31L829.901+5415.86L1080.89+5413.79L1123.01+4946.35L767.725+4950.31Z" opacity="1" fill="#135eab"/>
<path d="M770.212+4967.67L1121.77+4962.42L1116.24+5006.66L775.602+5008.3L770.212+4967.67Z" opacity="1" fill="#2e3690"/>
<path d="M694.213+4867.58L1204.92+4858.2L1193.38+4965.7L701.207+4971.61L694.213+4867.58Z" opacity="1" fill="#135eab"/>
</g>
<g id="Слой 5" vectornator:layerName="Слой 5">
<path d="M3795.5+391.227C3940.9+371.45+4118.19+450.158+4190.26+583.275C4238.97+553.546+4340.38+494.918+4444.84+528.667C4528.26+555.62+4614.19+642.321+4599.04+743.586C4727.26+794.073+4832.27+897.523+4832.27+1026.04C4832.26+1193.26+4664.26+1266.69+4495.64+1279.14C4353.77+1290.26+4151.37+1291.83+3947.01+1291.83C3715.39+1291.83+3333.8+1290.71+3333.8+1290.71C3177.56+1273.5+3106.74+1065.7+3144.73+921.295C3182.71+776.895+3421.35+683.386+3485.73+713.108C3495.3+482.208+3658.06+409.921+3795.5+391.227Z" opacity="1" fill="#2baae2"/>
</g>
<g id="Слой 4" vectornator:layerName="Слой 4">
<path d="M3686.43+1063.24L3682.32+746.605C3682.23+739.479+3687.79+733.62+3694.75+733.52L3852.82+731.23C3859.78+731.129+3867.7+736.33+3870.52+742.845L3885.2+776.793C3888.02+783.309+3895.94+788.636+3902.9+788.691L4219.34+791.215C4226.29+791.27+4231.95+797.093+4231.98+804.22L4232.95+1067.47C4232.97+1074.59+4229.45+1084.86+4225.08+1090.41L4224.22+1091.5C4219.85+1097.04+4210.67+1101.49+4203.71+1101.44L3723.09+1098.1C3716.13+1098.05+3706.29+1094.16+3701.1+1089.41L3695.99+1084.74C3690.81+1079.99+3686.52+1070.37+3686.43+1063.24Z" opacity="1" fill="#272361"/>
<path d="M3717.75+812.94L4207.75+812.94C4213.76+812.94+4218.64+817.632+4218.64+823.42L4218.64+1069.45C4218.64+1075.24+4213.76+1079.93+4207.75+1079.93L3717.75+1079.93C3711.74+1079.93+3706.86+1075.24+3706.86+1069.45L3706.86+823.42C3706.86+817.632+3711.74+812.94+3717.75+812.94Z" opacity="1" fill="#e0e0e0"/>
<path d="M3724.47+813.5L4214.47+813.5C4220.48+813.5+4225.36+818.192+4225.36+823.98L4225.36+1070.01C4225.36+1075.8+4220.48+1080.49+4214.47+1080.49L3724.47+1080.49C3718.46+1080.49+3713.58+1075.8+3713.58+1070.01L3713.58+823.98C3713.58+818.192+3718.46+813.5+3724.47+813.5Z" opacity="1" fill="#ffffff"/>
<path d="M3727.68+812.889L4217.67+812.889C4223.69+812.889+4228.56+817.581+4228.56+823.369L4228.56+1069.4C4228.56+1075.18+4223.69+1079.88+4217.67+1079.88L3727.68+1079.88C3721.66+1079.88+3716.79+1075.18+3716.79+1069.4L3716.79+823.369C3716.79+817.581+3721.66+812.889+3727.68+812.889Z" opacity="1" fill="#e0e0e0"/>
<path d="M3730.99+812.491L4220.98+812.491C4227+812.491+4231.87+817.183+4231.87+822.97L4231.87+1069C4231.87+1074.79+4227+1079.48+4220.98+1079.48L3730.99+1079.48C3724.97+1079.48+3720.1+1074.79+3720.1+1069L3720.1+822.97C3720.1+817.183+3724.97+812.491+3730.99+812.491Z" opacity="1" fill="#ffffff"/>
<path d="M3769.81+1011.33L3768.71+853.951C3768.62+841.175+3779.35+830.906+3792.68+831.013L4208.36+834.372C4221.69+834.48+4232.57+844.924+4232.67+857.699L4234.39+1078.86C4234.49+1091.64+4223.77+1101.91+4210.44+1101.8L3725.14+1098.1C3725.14+1098.1+3740.7+1088.77+3756.47+1067.16C3772.24+1045.54+3769.81+1011.33+3769.81+1011.33Z" opacity="1" fill="#2e3690"/>
<path d="M3703.62+750.01L3843.68+750.01C3845.77+750.01+3847.46+751.988+3847.46+754.428L3847.46+754.428C3847.46+756.867+3845.77+758.845+3843.68+758.845L3703.62+758.845C3701.53+758.845+3699.84+756.867+3699.84+754.428L3699.84+754.428C3699.84+751.988+3701.53+750.01+3703.62+750.01Z" opacity="1" fill="#ffffff"/>
<path d="M3703.92+768.066L3819.8+768.066C3822.13+768.066+3824.03+770.034+3824.03+772.46L3824.03+772.46C3824.03+774.887+3822.13+776.854+3819.8+776.854L3703.92+776.854C3701.58+776.854+3699.69+774.887+3699.69+772.46L3699.69+772.46C3699.69+770.034+3701.58+768.066+3703.92+768.066Z" opacity="1" fill="#ffffff"/>
</g>
<g id="Слой 16" vectornator:layerName="Слой 16">
<path d="M7338.85+4921.13L7360.08+5403.62L7371.45+5403.1L7373.04+4922.87L7338.85+4921.13Z" opacity="1" fill="#828282"/>
<path d="M7645.68+4928.08L7653.07+5402.59L7666.51+5403.62L7686.5+4928.92L7645.68+4928.08Z" opacity="1" fill="#828282"/>
<path d="M7399.15+4916.28L7414.34+5371.58L7424.16+5372.1L7438.28+4916.42L7399.15+4916.28Z" opacity="1" fill="#828282"/>
<path d="M7717.32+4934.75L7719.22+5375.72L7731.1+5375.2L7749.8+4931.42L7717.32+4934.75Z" opacity="1" fill="#828282"/>
<path d="M7746.92+4112.25C7746.92+4112.25+7597.3+4302.6+7552.01+4460.3C7506.72+4617.99+7564.91+4698.68+7564.91+4698.68C7564.91+4698.68+7341.21+4674.45+7270.46+4815.87C7199.72+4957.3+7373.62+4923.22+7536.84+4921.85C7705.2+4920.43+7796.62+5001.87+7864.91+4847.73C7905.84+4755.34+7867.62+4657.27+7873.66+4542.19C7879.4+4432.7+7961.22+4256.35+7933.32+4170.26C7876.08+3993.69+7746.92+4112.25+7746.92+4112.25Z" opacity="1" fill="#828282"/>
<path stroke="#e0e0e0" stroke-width="30.35" d="M7290.19+4623.07C7293.44+4639.53+7336.25+5475.59+7336.25+5475.59L7240.68+5475.59L6985.09+4618.02C6985.09+4618.02+7286.94+4606.61+7290.19+4623.07Z" fill="none" stroke-linecap="round" opacity="0.38326" stroke-linejoin="round"/>
</g>
<g id="Слой 15" vectornator:layerName="Слой 15">
<path d="M7644.15+3947.51C7628.74+3967.51+7646.8+3941.51+7631.24+3911.79C7621.77+3893.72+7642.18+3838.99+7628.23+3817.55C7614.27+3796.11+7601.12+3820.56+7601.12+3820.56C7601.12+3820.56+7516.09+3815.81+7524.09+3830.03C7532.09+3844.25+7492.67+3850.34+7484.93+3847.24C7483.86+3846.81+7466.79+3846.97+7460.83+3863.59C7453.46+3884.16+7443.4+3891.21+7442.59+3888.91C7441.66+3886.24+7443.95+3856.26+7445.67+3836.13C7447.38+3815.99+7453.26+3802.14+7453.26+3802.14C7453.26+3802.14+7454.07+3788.05+7473.1+3773.3C7492.13+3758.55+7525.78+3766.5+7525.78+3766.5C7525.78+3766.5+7525.44+3758.5+7562.88+3770.12C7580.73+3775.66+7592.73+3764.96+7592.73+3764.96C7592.73+3764.96+7647.88+3797.97+7656.61+3806.53C7675.87+3825.42+7691.2+3857.86+7711.81+3904.44C7742.19+3973.07+7700.68+3985.3+7723.96+4067.95C7759.4+4193.82+7804.42+4125.54+7810.85+4174.94C7817.27+4224.33+7795.98+4288.16+7748.7+4249.05C7744.9+4245.9+7691.92+4224.47+7686.66+4221.28C7654.71+4201.9+7463.65+4273.76+7393.29+4246.03C7351.07+4229.4+7422.74+4183.52+7406.21+4097.01C7388.49+4004.34+7453.81+3959.06+7441.52+3897.03C7436.33+3870.82+7670.16+3950.99+7669.87+3938.3C7669.63+3927.64+7649.92+3940.02+7644.15+3947.51Z" opacity="1" fill="#272361"/>
<path d="M7601.84+3975.73C7601.84+3975.73+7592.8+4020.39+7592.8+4056.34C7592.8+4092.3+7601.69+4110.44+7601.69+4110.44C7601.69+4110.44+7609.46+4133.06+7649.91+4144.4C7654.99+4145.83+7661.57+4150.18+7667.23+4153.27C7672.88+4156.36+7686.22+4335.02+7525.91+4346.33C7374.48+4357.01+7359.24+4166.19+7372.68+4162.05C7387.66+4157.44+7444.36+4142.9+7450.53+4140.39C7469.72+4132.59+7485.49+4122.9+7487.96+4119.52C7499.04+4104.33+7495.05+4084.77+7496.03+4065.83C7498.58+4016.96+7479.51+3979.42+7479.51+3979.42L7601.84+3975.73Z" opacity="1" fill="#fdbc8c"/>
<path d="M7601.84+3975.73C7601.84+3975.73+7592.8+4020.39+7592.8+4056.34C7592.8+4092.3+7601.69+4110.57+7601.69+4110.57C7601.69+4110.57+7569.78+4086.79+7543.2+4076.78C7516.62+4066.77+7495.92+4052.17+7495.92+4052.17C7495.92+4052.17+7495.94+4037.12+7494.91+4027.21C7490.58+3985.3+7479.51+3979.42+7479.51+3979.42L7601.84+3975.73Z" opacity="1" fill="#dfa58b"/>
<path d="M7655.22+3830.31C7676.83+3861.24+7649.42+3906.22+7644.74+3940.8C7642.96+3953.94+7667.13+3917.94+7671.16+3941.99C7673.31+3954.83+7653.01+3998.15+7639.72+3985.52C7626.43+3972.88+7615.49+4003.42+7600.92+4017.6C7576.52+4041.34+7555.41+4062.38+7515.49+4058.63C7484.42+4055.71+7469.06+4030.23+7454.13+4001.11C7436.7+3967.1+7440.57+3929.99+7443.63+3898.03C7446.94+3863.5+7455.73+3836.55+7473.74+3818.11C7488.57+3802.92+7510.12+3794+7535.93+3786.97C7593.09+3771.39+7625.4+3787.64+7655.22+3830.31Z" opacity="1" fill="#fdbc8c"/>
<path d="M7582.16+3938.92C7593.42+3937.99+7601.68+3933.63+7600.63+3929.18C7599.57+3924.74+7589.59+3921.89+7578.34+3922.82C7567.09+3923.75+7558.82+3928.11+7559.88+3932.56C7560.93+3937.01+7570.91+3939.86+7582.16+3938.92Z" opacity="1" fill="#272361"/>
<path d="M7477.43+3929.33C7487.97+3931.57+7497.5+3929.97+7498.73+3925.78C7499.96+3921.58+7492.42+3916.36+7481.88+3914.12C7471.35+3911.88+7461.81+3913.47+7460.58+3917.67C7459.35+3921.87+7466.9+3927.09+7477.43+3929.33Z" opacity="1" fill="#272361"/>
<path d="M7560.5+3995.25C7561.4+3989.05+7540.28+3997.92+7523.42+3997.72C7506.57+3997.51+7492.08+3991.72+7491.18+3997.93C7490.28+4004.13+7505.89+4019.39+7522.74+4019.6C7539.6+4019.81+7559.6+4001.45+7560.5+3995.25Z" opacity="1" fill="#e0e0e0"/>
<path d="M7606.52+3891.92L7572.4+3885.89C7566.19+3884.8+7560.23+3885.93+7559.1+3888.41L7559.1+3888.41C7557.96+3890.9+7562.08+3893.81+7568.29+3894.91L7602.41+3900.93C7608.62+3902.03+7614.58+3900.9+7615.71+3898.41L7615.71+3898.41C7616.85+3895.92+7612.73+3893.01+7606.52+3891.92Z" opacity="1" fill="#272361"/>
<path d="M7644.15+3947.51C7628.74+3967.51+7652.8+3941.58+7637.23+3911.87C7627.77+3893.79+7626.97+3901.01+7613.01+3879.57C7599.05+3858.12+7593.83+3836.84+7593.83+3836.84C7593.83+3836.84+7553.79+3827.08+7528.22+3848.28C7501.88+3870.11+7479.1+3849.29+7463.62+3871.16C7448.15+3893.02+7440.71+3903.62+7440.71+3903.62C7440.71+3903.62+7428.47+3874.31+7421.44+3840.79C7416.23+3815.9+7419.21+3790.82+7448.64+3761.72C7478.59+3732.11+7540.59+3741.39+7540.59+3741.39C7540.59+3741.39+7520.42+3715.59+7519.65+3684.61C7518.81+3651.14+7544.28+3602.24+7596.6+3614.31C7653.1+3627.35+7650.88+3677.3+7643.05+3701.8C7633.52+3731.6+7609.85+3752.33+7609.85+3752.33C7609.85+3752.33+7662.22+3755.71+7704.14+3792.49C7746.06+3829.27+7783.38+3876.37+7777.49+3975.95C7772.03+4068.22+7945.14+4057.7+7968.41+4140.35C8003.85+4266.23+7856.27+4323.83+7803.92+4377.6C7710.56+4473.5+7798.32+4287.37+7727.55+4244.45C7719.39+4239.5+7713.82+4171.54+7707.42+4166.43C7673.74+4139.5+7685.45+4132.72+7662.75+4092.68C7635.74+4045.05+7697.61+3983.81+7685.32+3921.79C7680.13+3895.58+7670.16+3950.99+7669.87+3938.3C7669.63+3927.64+7649.92+3940.02+7644.15+3947.51Z" opacity="1" fill="#2e3690"/>
<path d="M7499.3+3878.92L7470.43+3880.51C7465.18+3880.8+7461.11+3882.83+7461.36+3885.04L7461.36+3885.04C7461.6+3887.25+7466.06+3888.81+7471.31+3888.52L7500.18+3886.93C7505.44+3886.64+7509.5+3884.61+7509.26+3882.4L7509.26+3882.4C7509.01+3880.19+7504.56+3878.63+7499.3+3878.92Z" opacity="1" fill="#272361"/>
<path d="M7226.34+5279.41L7208.31+5370.01L7177.21+5368.71L7177.65+5258.69L7226.34+5279.41Z" opacity="1" fill="#fdbc8c"/>
<path d="M7226.34+5279.41L7208.31+5370.01L7177.21+5368.71L7177.65+5258.69L7226.34+5279.41Z" opacity="1" fill="#fdbc8c"/>
<path d="M6941.2+5260.25L6923.17+5350.85L6892.07+5349.54L6892.52+5239.53L6941.2+5260.25Z" opacity="1" fill="#fdbc8c"/>
<path d="M6950.71+5180.9L6946.24+5257.39L6917.1+5256.06L6916.02+5173.78L6950.71+5180.9Z" opacity="1" fill="#fdbc8c"/>
<path d="M7219.24+5354.87C7219.24+5354.87+7244.8+5392.5+7225.46+5423.11L7163.52+5428.64C7163.52+5428.64+7084.64+5443.77+7063.66+5436.13C7042.68+5428.5+7079.96+5405.04+7079.96+5405.04L7136+5374.05L7168.44+5353.4L7219.24+5354.87Z" opacity="1" fill="#272361"/>
<path d="M6939.19+5323.88C6939.19+5323.88+6966.42+5360.31+6948.49+5391.76L6886.87+5400.09C6886.87+5400.09+6808.75+5418.77+6787.45+5412.09C6766.14+5405.41+6802.32+5380.29+6802.32+5380.29L6856.9+5346.8L6888.37+5324.7L6939.19+5323.88Z" opacity="1" fill="#272361"/>
<path d="M10505.6+5637.65C10505.6+5637.65+10588.6+5779.61+10587.1+5893.08C10586.3+5951.27+10572.1+6154.74+10517.6+6262.91C10505.5+6287+10509.3+6309.04+10510.1+6336.87C10513.2+6440.56+10507.4+6642.55+10483.4+6709.56C10483.4+6709.56+10464.3+6719.35+10447.1+6718.62C10429.9+6717.89+10422.5+6704.18+10422.5+6704.18C10407.2+6542.37+10412.7+6290.58+10409.3+6124.24C10407.6+6041.47+10404.5+5956.81+10402.8+5936.79C10402.5+5933.72+10397+5935.54+10397+5935.54C10397+5935.54+10376.7+6490.76+10301.5+6703.79C10301.5+6703.79+10286.9+6712.88+10271.1+6712.62C10255.4+6712.36+10244+6703.76+10244+6703.76C10235.1+6640.91+10225.2+6456.24+10256+6308.67C10261.6+6282+10256.2+6257.83+10256.2+6257.83C10244.4+6198.35+10226.7+5968.37+10232.2+5882.99C10239.9+5762.79+10331.7+5635.13+10331.7+5635.13L10505.6+5637.65Z" opacity="0" fill="#2e3690"/>
<path stroke="#135eab" stroke-width="5" d="M10395.7+5693.71C10395.7+5693.71+10380.8+5756.85+10383.3+5820.18C10385.8+5883.51+10398.4+5935.3+10398.4+5935.3" fill="none" stroke-linecap="butt" opacity="0" stroke-linejoin="round"/>
<path stroke="#135eab" stroke-width="5.01" d="M10383.7+5807.05C10383.7+5807.05+10393.1+5815.33+10401.9+5803.87C10410.7+5792.41+10412.7+5692.79+10412.7+5692.79" fill="none" stroke-linecap="round" opacity="0" stroke-linejoin="round"/>
<path stroke="#135eab" stroke-width="5.01" d="M10473.5+5687.91C10473.5+5687.91+10484.3+5710.21+10502.3+5720.8C10520.3+5731.39+10548+5730.34+10548+5730.34" fill="none" stroke-linecap="round" opacity="0" stroke-linejoin="round"/>
<path stroke="#135eab" stroke-width="5.01" d="M10355.5+5685.09C10355.5+5685.09+10345.9+5710.19+10327.9+5717.76C10309.9+5725.32+10283.5+5714.91+10283.5+5714.91" fill="none" stroke-linecap="round" opacity="0" stroke-linejoin="round"/>
<path d="M7245.5+4386.46C7245.16+4397.86+7273.48+4408.97+7307.1+4424.14C7338.88+4438.47+7354.95+4435.96+7354.95+4435.96L7303.57+4353.91C7303.57+4353.91+7246.09+4366.15+7245.5+4386.46Z" opacity="1" fill="#1172ba"/>
<path d="M5502.7+5361.61L5794.97+4514.91L5502.7+5361.61Z" opacity="1" fill="#1172ba"/>
<path d="M7110.77+4531.77C7111.49+4533.2+7153.66+4523.48+7197.32+4521.75C7240.98+4520.02+7270.55+4521.04+7280.22+4520.9C7293.68+4520.7+7285.69+4502.89+7282.97+4489.92C7275.12+4452.48+7276.15+4418.71+7279.42+4374.24C7279.42+4374.24+7294.64+4378.01+7309.85+4369.8C7325.06+4361.6+7320.76+4376.19+7338.14+4367.6C7355.53+4359+7344.27+4445.6+7347.11+4493.43C7348.92+4523.84+7347+4558.57+7325.14+4563.2C7309.5+4566.51+7257.26+4569+7210.11+4567.36C7157.81+4565.55+7111+4559.41+7111+4559.41C7111+4559.41+7079.52+4578.32+7055.11+4581.02C7030.71+4583.71+7016.33+4586.69+7015.76+4582.24C7014.9+4575.38+7050.7+4569.53+7052.34+4566.5C7053.85+4563.73+7011.14+4572.27+7010.23+4564.17C7009.33+4556.06+7051.69+4555.79+7052.1+4552.92C7052.62+4549.22+7014.11+4554.92+7013.75+4546.48C7013.53+4541.15+7053.52+4540.24+7053.52+4540.24C7053.52+4540.24+7017.99+4534.15+7018.43+4530.24C7019.18+4523.78+7060.93+4529.76+7063.57+4528.72C7068.13+4526.92+7073.27+4526.81+7073.77+4523.45C7074.37+4519.37+7054.06+4514.97+7054.43+4511.42C7055.03+4505.65+7070.01+4509.4+7084.09+4514.49C7098.18+4519.58+7107.92+4526.19+7110.77+4531.77Z" opacity="1" fill="#fdbc8c"/>
<path d="M7652.77+4145.61C7652.77+4145.61+7630.75+4259.14+7522.85+4260.77C7383.95+4262.87+7417.81+4150.24+7417.81+4150.24C7417.81+4150.24+7315.49+4157.07+7302.78+4208.13C7296.99+4231.37+7281.34+4272.1+7267.33+4301.15C7249.74+4337.63+7246.59+4365.87+7245.45+4386.87C7245.45+4386.87+7274.04+4386.45+7288.38+4400.11C7309.28+4420.01+7344.88+4417.85+7353.48+4434.62C7358.83+4445.05+7356.74+4390.87+7356.74+4390.87C7356.74+4390.87+7371.2+4557.8+7425.02+4605.42C7453.91+4630.97+7572.55+4633.97+7602.22+4603.75C7639.63+4565.64+7667.33+4507.63+7682.88+4447.52C7698.43+4387.41+7682.12+4403.42+7684.06+4402.17C7686.23+4400.78+7690.55+4427.44+7702.89+4427.09C7751.39+4425.71+7851.15+4428.91+7851.69+4386.93C7852.53+4320.96+7821.07+4310.32+7805.28+4243.26C7788.65+4172.62+7730.54+4166.98+7689.06+4155.85C7663.63+4149.02+7652.77+4145.61+7652.77+4145.61Z" opacity="1" fill="#4cc8ed"/>
<path d="M7597.87+4542.66C7598.43+4544.16+7641.42+4539.2+7685+4542.35C7728.58+4545.49+7757.86+4549.8+7767.48+4550.74C7780.87+4552.05+7774.92+4533.46+7773.67+4520.26C7770.04+4482.18+7758.14+4469.88+7755.54+4425.41C7755.54+4425.41+7776.62+4424.54+7793.89+4422.36C7811.16+4420.19+7826.78+4413.86+7826.78+4413.86C7838.62+4438.26+7828.88+4483.69+7830.38+4531.06C7831.34+4561.52+7829.64+4595.63+7807.4+4597.79C7791.49+4599.34+7739.3+4595.98+7692.62+4589.1C7640.85+4581.47+7595.02+4570.14+7595.02+4570.14C7595.02+4570.14+7561.63+4585.43+7537.07+4585.39C7512.52+4585.35+7497.9+4586.7+7497.83+4582.22C7497.73+4575.31+7533.97+4573.48+7535.94+4570.66C7537.74+4568.08+7494.35+4571.8+7494.35+4563.65C7494.35+4555.49+7536.48+4559.94+7537.21+4557.13C7538.14+4553.52+7499.23+4554.89+7499.82+4546.46C7500.19+4541.14+7540.04+4544.69+7540.04+4544.69C7540.04+4544.69+7505.4+4534.68+7506.28+4530.85C7507.74+4524.51+7548.56+4535.11+7551.31+4534.36C7556.04+4533.09+7561.16+4533.55+7562.03+4530.27C7563.09+4526.28+7543.39+4519.64+7544.15+4516.15C7545.39+4510.49+7559.86+4515.88+7573.28+4522.51C7586.71+4529.14+7595.66+4536.79+7597.87+4542.66Z" opacity="1" fill="#fdbc8c"/>
<path d="M7679.43+4271.58C7679.43+4271.58+7696.31+4314.48+7700.54+4355.45C7704.77+4396.42+7687.18+4431.83+7687.18+4431.83L7668.1+4497.01C7668.1+4497.01+7660.03+4424.63+7664.96+4386.14C7670.68+4341.52+7679.43+4271.58+7679.43+4271.58Z" opacity="1" fill="#2baae2"/>
<path d="M7623.04+4613.17L7445.77+4629.56C7445.77+4629.56+6978.24+4738.71+6924.77+4805.39C6890.24+4848.44+6879.38+4901.46+6862.2+5015.43C6845.03+5129.41+6880.52+5280.63+6880.52+5280.63L6943.52+5278.63C6943.52+5278.63+6979.48+5168.04+6996.42+5061.41C7013.56+4953.53+7033.74+4934.15+7072.73+4911.81C7144.83+4870.49+7406.9+4791.46+7406.9+4791.46L7623.04+4613.17Z" opacity="1" fill="#272361"/>
<path d="M7400.94+4633.87L7607.28+4635.79C7607.28+4635.79+7689.8+4723.23+7663.42+4787.82C7616.87+4901.78+7541.91+4872.88+7426.12+4874.29C7315.39+4875.64+7206.6+4870.99+7206.6+4870.99C7206.6+4870.99+7233.67+4939.82+7245.65+5043.02C7257.63+5146.23+7230.01+5301.8+7230.01+5301.8L7163.44+5296.63C7163.44+5296.63+7019.16+4874.39+7053.16+4799.39C7074.65+4751.99+7210.13+4723+7299.59+4693.38C7358.5+4673.88+7400.94+4633.87+7400.94+4633.87Z" opacity="1" fill="#2e3690"/>
</g>
<g id="Слой 17" vectornator:layerName="Слой 17">
<path stroke="#e0e0e0" stroke-width="30.35" d="M6206.07+4547.81C6202.82+4564.27+6160.01+5400.33+6160.01+5400.33L6255.58+5400.33L6511.17+4542.76C6511.17+4542.76+6209.32+4531.35+6206.07+4547.81Z" fill="none" stroke-linecap="round" opacity="1" stroke-linejoin="round"/>
<path stroke="#e0e0e0" stroke-width="30.35" d="M6365.12+4534.59C6361.87+4551.05+6319.07+5387.11+6319.07+5387.11L6414.64+5387.11L6670.22+4529.54C6670.22+4529.54+6368.37+4518.13+6365.12+4534.59Z" fill="none" stroke-linecap="round" opacity="0.370044" stroke-linejoin="round"/>
<path stroke="#e0e0e0" stroke-width="30.35" d="M7507.53+4537.25C7510.78+4553.71+7553.59+5389.77+7553.59+5389.77L7458.02+5389.77L7202.43+4532.19C7202.43+4532.19+7504.28+4520.79+7507.53+4537.25Z" fill="none" stroke-linecap="round" opacity="1" stroke-linejoin="round"/>
<path d="M5999.32+4505.43L7674.41+4505.43C7691.54+4505.43+7705.43+4517.57+7705.43+4532.55L7705.43+4532.55C7705.43+4547.53+7691.54+4559.67+7674.41+4559.67L5999.32+4559.67C5982.18+4559.67+5968.3+4547.53+5968.3+4532.55L5968.3+4532.55C5968.3+4517.57+5982.18+4505.43+5999.32+4505.43Z" opacity="1" fill="#e0e0e0"/>
</g>
<g id="Слой 18" vectornator:layerName="Слой 18">
<path d="M6519.57+4469.42L7236.45+4469.42C7250.71+4469.42+7262.26+4477.7+7262.26+4487.91L7262.26+4487.91C7262.26+4498.12+7250.71+4506.4+7236.45+4506.4L6910.51+4506.4L6519.57+4506.4C6505.31+4506.4+6493.76+4498.12+6493.76+4487.91L6493.76+4487.91C6493.76+4477.7+6505.31+4469.42+6519.57+4469.42Z" opacity="1" fill="#828282"/>
<path d="M6416.39+4190.55L6818.79+4188.18C6827.92+4188.12+6837.71+4195.09+6840.64+4203.74L6930.9+4469.8C6933.84+4478.45+6928.81+4485.46+6919.68+4485.46L6510.9+4485.46C6501.76+4485.46+6492.1+4478.41+6489.31+4469.71L6404.9+4206.4C6402.12+4197.7+6407.26+4190.6+6416.39+4190.55Z" opacity="1" fill="#828282"/>
<path d="M6434.8+4201.25L6807.75+4199.05C6816.22+4199+6825.29+4205.46+6828.01+4213.48L6911.66+4460.07C6914.38+4468.09+6909.73+4474.59+6901.26+4474.59L6522.39+4474.59C6513.92+4474.59+6504.96+4468.05+6502.38+4459.99L6424.15+4215.94C6421.56+4207.88+6426.33+4201.3+6434.8+4201.25Z" opacity="1" fill="#0081c3"/>
</g>
<g id="Слой 22" vectornator:layerName="Слой 22">
<path d="M6846.07+4263.91C6846.07+4263.91+6627.36+3640.24+6565.26+3487.5C6498.28+3322.78+6208.25+2927.03+5836.53+3102.82C5352.18+3331.87+5326.32+3272.04+5237.01+3031.74L5229.74+3289.92L4574.13+3194.98C4581.66+3367.01+4383.93+3572.7+4596.03+3727.32C4808.14+3881.93+5091.85+3780.22+5449.02+3813.55C5806.18+3846.89+5681.64+4028.34+5969.28+4028.34C6422.36+4028.34+6391.61+4171.41+6446.91+4285.02L6846.07+4263.91Z" opacity="1" fill="url(#LinearGradient)"/>
<g opacity="1">
<path d="M5298.75+3714.67L5257.99+3714.67L5257.99+3544.02L5205.61+3544.02L5205.61+3508.37L5351.12+3508.37L5351.12+3544.02L5298.75+3544.02L5298.75+3714.67Z" opacity="1" fill="#000000"/>
<path d="M5345.46+4036.5C5336.06+4040.37+5326.48+4043.27+5316.71+4045.21C5306.95+4047.14+5296.63+4048.11+5285.76+4048.11C5259.87+4048.11+5240.09+4041.18+5226.41+4027.31C5212.73+4013.45+5205.89+3993.48+5205.89+3967.41C5205.89+3942.17+5212.48+3922.22+5225.65+3907.58C5238.83+3892.93+5256.79+3885.61+5279.54+3885.61C5302.48+3885.61+5320.28+3892.4+5332.95+3905.99C5345.62+3919.58+5351.95+3938.71+5351.95+3963.4L5351.95+3979.85L5247.07+3979.85C5247.16+3992.01+5250.75+4001.08+5257.85+4007.07C5264.94+4013.06+5275.54+4016.05+5289.63+4016.05C5298.93+4016.05+5308.1+4014.72+5317.13+4012.04C5326.16+4009.37+5335.6+4005.14+5345.46+3999.33L5345.46+4036.5ZM5311.19+3949.45C5311+3938.76+5308.26+3930.68+5302.97+3925.2C5297.67+3919.71+5289.86+3916.97+5279.54+3916.97C5270.24+3916.97+5262.82+3919.81+5257.3+3925.47C5251.77+3931.14+5248.5+3939.18+5247.48+3949.59L5311.19+3949.45Z" opacity="1" fill="#000000"/>
<path d="M5217.22+4218.77L5257.71+4218.77L5257.71+4271.41L5306.35+4218.77L5355.41+4218.77L5296.82+4276.53L5358.72+4373.53L5313.95+4373.53L5271.53+4301.12L5257.71+4314.39L5257.71+4373.53L5217.22+4373.53L5217.22+4218.77Z" opacity="1" fill="#000000"/>
<path d="M5339.79+4695.09C5332.97+4699.05+5325.65+4702.02+5317.82+4704C5309.99+4705.98+5301.56+4706.97+5292.53+4706.97C5268.67+4706.97+5250.02+4699.78+5236.57+4685.41C5223.12+4671.04+5216.39+4651.14+5216.39+4625.72C5216.39+4600.2+5223.16+4580.23+5236.71+4565.82C5250.25+4551.4+5268.95+4544.19+5292.81+4544.19C5301.1+4544.19+5309.09+4545.16+5316.78+4547.09C5324.48+4549.03+5332.14+4552.02+5339.79+4556.07L5339.79+4593.11C5333.9+4588.04+5327.42+4584.15+5320.38+4581.43C5313.33+4578.71+5306.03+4577.35+5298.47+4577.35C5285.3+4577.35+5275.17+4581.54+5268.07+4589.93C5260.98+4598.31+5257.43+4610.24+5257.43+4625.72C5257.43+4641.19+5260.98+4653.08+5268.07+4661.37C5275.17+4669.66+5285.3+4673.81+5298.47+4673.81C5306.3+4673.81+5313.63+4672.49+5320.45+4669.87C5327.26+4667.24+5333.71+4663.26+5339.79+4657.91L5339.79+4695.09Z" opacity="1" fill="#000000"/>
<path d="M5341.17+4877.63L5341.17+4907.89L5298.61+4907.89L5298.61+5032.39L5258.4+5032.39L5258.4+4907.89L5215.84+4907.89L5215.84+4877.63L5341.17+4877.63Z" opacity="1" fill="#000000"/>
</g>
<g opacity="1">
<path d="M5534.15+3849.14L5493.39+3849.14L5493.39+3678.49L5441.02+3678.49L5441.02+3642.83L5586.53+3642.83L5586.53+3678.49L5534.15+3678.49L5534.15+3849.14Z" opacity="1" fill="#000000"/>
<path d="M5580.86+4170.97C5571.46+4174.84+5561.88+4177.74+5552.12+4179.68C5542.35+4181.61+5532.04+4182.58+5521.17+4182.58C5495.28+4182.58+5475.5+4175.65+5461.82+4161.78C5448.14+4147.92+5441.3+4127.95+5441.3+4101.88C5441.3+4076.64+5447.88+4056.69+5461.06+4042.05C5474.23+4027.4+5492.19+4020.08+5514.95+4020.08C5537.89+4020.08+5555.69+4026.87+5568.36+4040.46C5581.02+4054.05+5587.36+4073.18+5587.36+4097.87L5587.36+4114.32L5482.47+4114.32C5482.57+4126.48+5486.16+4135.55+5493.25+4141.54C5500.35+4147.53+5510.94+4150.52+5525.03+4150.52C5534.34+4150.52+5543.51+4149.19+5552.53+4146.51C5561.56+4143.84+5571+4139.6+5580.86+4133.8L5580.86+4170.97ZM5546.59+4083.92C5546.41+4073.23+5543.67+4065.15+5538.37+4059.67C5533.07+4054.18+5525.27+4051.44+5514.95+4051.44C5505.64+4051.44+5498.23+4054.28+5492.7+4059.94C5487.17+4065.61+5483.9+4073.64+5482.89+4084.05L5546.59+4083.92Z" opacity="1" fill="#000000"/>
<path d="M5452.63+4353.24L5493.11+4353.24L5493.11+4405.88L5541.76+4353.24L5590.81+4353.24L5532.22+4411L5594.13+4508L5549.36+4508L5506.93+4435.59L5493.11+4448.86L5493.11+4508L5452.63+4508L5452.63+4353.24Z" opacity="1" fill="#000000"/>
<path d="M5575.2+4829.56C5568.38+4833.52+5561.05+4836.49+5553.22+4838.47C5545.39+4840.45+5536.96+4841.44+5527.94+4841.44C5504.08+4841.44+5485.42+4834.25+5471.97+4819.88C5458.52+4805.51+5451.8+4785.61+5451.8+4760.19C5451.8+4734.67+5458.57+4714.7+5472.11+4700.28C5485.65+4685.87+5504.35+4678.66+5528.21+4678.66C5536.5+4678.66+5544.5+4679.63+5552.19+4681.56C5559.88+4683.49+5567.55+4686.49+5575.2+4690.54L5575.2+4727.58C5569.3+4722.51+5562.83+4718.62+5555.78+4715.9C5548.73+4713.18+5541.43+4711.82+5533.88+4711.82C5520.71+4711.82+5510.57+4716.01+5503.48+4724.4C5496.38+4732.78+5492.84+4744.71+5492.84+4760.19C5492.84+4775.66+5496.38+4787.55+5503.48+4795.84C5510.57+4804.13+5520.71+4808.27+5533.88+4808.27C5541.71+4808.27+5549.03+4806.96+5555.85+4804.34C5562.67+4801.71+5569.12+4797.73+5575.2+4792.38L5575.2+4829.56Z" opacity="1" fill="#000000"/>
<path d="M5576.58+5012.1L5576.58+5042.36L5534.02+5042.36L5534.02+5166.86L5493.81+5166.86L5493.81+5042.36L5451.24+5042.36L5451.24+5012.1L5576.58+5012.1Z" opacity="1" fill="#000000"/>
</g>
</g>
<g id="Слой 23" vectornator:layerName="Слой 23">
<path d="M4840.59+3433.44L4822.99+3410.92L4722.29+3492.62C4653.91+3557.39+4660.85+3565.86+4737.78+3511.52L4840.59+3433.44Z" opacity="1" fill="#135eab"/>
<path d="M4883.98+3397.25L4868.76+3379.79L4822.94+3410.92L4840.32+3434.06L4883.98+3397.25Z" opacity="1" fill="#828282"/>
<path d="M4945.39+3326.32C4945.39+3326.32+4944.3+3366.91+4925.68+3385.2C4907.07+3403.49+4892.42+3405.37+4876.26+3395.26C4860.11+3385.15+4856+3340.26+4885.72+3345.05C4918+3350.25+4945.39+3326.32+4945.39+3326.32Z" opacity="1" fill="#272361"/>
</g>
<g id="Слой 26" vectornator:layerName="Слой 26">
<path d="M6287.94+3800.83C6287.94+3744.3+6347.61+3698.48+6421.22+3698.48C6494.82+3698.48+6583.26+3739.43+6554.63+3814.29C6526+3889.15+6465.98+3812.74+6437.14+3831.51C6413.91+3846.63+6473.01+3888.05+6415.42+3888.67C6341.82+3889.48+6287.94+3857.35+6287.94+3800.83Z" opacity="1" fill="#e0e0e0"/>
<path d="M6435.85+3797.95C6437.38+3788.51+6450.76+3782.84+6465.73+3785.27C6480.7+3787.7+6491.59+3797.32+6490.06+3806.75C6488.53+3816.19+6475.15+3821.87+6460.18+3819.44C6445.21+3817.01+6434.31+3807.39+6435.85+3797.95Z" opacity="1" fill="#0081c3"/>
<path d="M6374.74+3855.41C6374.74+3845.57+6382.71+3837.6+6392.55+3837.6C6402.38+3837.6+6410.35+3845.57+6410.35+3855.41C6410.35+3865.24+6402.38+3873.21+6392.55+3873.21C6382.71+3873.21+6374.74+3865.24+6374.74+3855.41Z" opacity="1" fill="#4cc8ed"/>
<path d="M6328.04+3840.85C6328.04+3831.02+6336.01+3823.05+6345.85+3823.05C6355.68+3823.05+6363.65+3831.02+6363.65+3840.85C6363.65+3850.69+6355.68+3858.66+6345.85+3858.66C6336.01+3858.66+6328.04+3850.69+6328.04+3840.85Z" opacity="1" fill="#2baae2"/>
<path d="M6302.99+3792.99C6302.99+3783.16+6310.96+3775.18+6320.79+3775.18C6330.63+3775.18+6338.6+3783.16+6338.6+3792.99C6338.6+3802.82+6330.63+3810.8+6320.79+3810.8C6310.96+3810.8+6302.99+3802.82+6302.99+3792.99Z" opacity="1" fill="#0081c3"/>
<path d="M6333.82+3746.51C6333.82+3736.67+6341.8+3728.7+6351.63+3728.7C6361.46+3728.7+6369.44+3736.67+6369.44+3746.51C6369.44+3756.34+6361.46+3764.31+6351.63+3764.31C6341.8+3764.31+6333.82+3756.34+6333.82+3746.51Z" opacity="1" fill="#1172ba"/>
<path d="M6387.1+3725.37C6387.1+3715.54+6395.07+3707.56+6404.9+3707.56C6414.74+3707.56+6422.71+3715.54+6422.71+3725.37C6422.71+3735.2+6414.74+3743.18+6404.9+3743.18C6395.07+3743.18+6387.1+3735.2+6387.1+3725.37Z" opacity="1" fill="#135eab"/>
<path d="M6447.82+3731.43C6447.82+3721.59+6455.8+3713.62+6465.63+3713.62C6475.46+3713.62+6483.44+3721.59+6483.44+3731.43C6483.44+3741.26+6475.46+3749.23+6465.63+3749.23C6455.8+3749.23+6447.82+3741.26+6447.82+3731.43Z" opacity="1" fill="#2e3690"/>
<path d="M6499.99+3756.04C6499.99+3746.2+6507.96+3738.23+6517.79+3738.23C6527.63+3738.23+6535.6+3746.2+6535.6+3756.04C6535.6+3765.87+6527.63+3773.84+6517.79+3773.84C6507.96+3773.84+6499.99+3765.87+6499.99+3756.04Z" opacity="1" fill="#272361"/>
</g>
<g id="Слой 24" vectornator:layerName="Слой 24">
<path stroke="#ffffff" stroke-width="10.55" d="M5233.58+3375.19C5233.58+3355.78+5249.47+3340.04+5269.08+3340.04C5288.68+3340.04+5304.58+3355.78+5304.58+3375.19C5304.58+3394.6+5288.68+3410.34+5269.08+3410.34C5249.47+3410.34+5233.58+3394.6+5233.58+3375.19Z" fill="none" stroke-linecap="round" opacity="1" stroke-linejoin="round"/>
<path stroke="#ffffff" stroke-width="10.55" d="M5599.88+3623.72C5599.88+3604.52+5615.37+3588.96+5634.49+3588.96C5653.6+3588.96+5669.09+3604.52+5669.09+3623.72C5669.09+3642.91+5653.6+3658.47+5634.49+3658.47C5615.37+3658.47+5599.88+3642.91+5599.88+3623.72Z" fill="none" stroke-linecap="round" opacity="1" stroke-linejoin="round"/>
<path stroke="#ffffff" stroke-width="10.55" d="M5967.26+3596.27C5967.26+3577.17+5982.89+3561.69+6002.18+3561.69C6021.47+3561.69+6037.11+3577.17+6037.11+3596.27C6037.11+3615.37+6021.47+3630.85+6002.18+3630.85C5982.89+3630.85+5967.26+3615.37+5967.26+3596.27Z" fill="none" stroke-linecap="round" opacity="1" stroke-linejoin="round"/>
<path stroke="#ffffff" stroke-width="10.55" d="M5598.74+3616.24C5598.74+3616.24+5413.97+3609.57+5428.8+3507.18C5443.44+3406.04+5303.35+3386.82+5303.35+3386.82" fill="none" stroke-linecap="round" opacity="1" stroke-linejoin="round"/>
<path stroke="#ffffff" stroke-width="10.55" d="M5975.49+3622.3C5975.49+3622.3+5911.86+3678.25+5834.41+3684.52C5756.96+3690.79+5666.78+3641.96+5666.78+3641.96" fill="none" stroke-linecap="round" opacity="1" stroke-linejoin="round"/>
</g>
<g id="Слой 21" vectornator:layerName="Слой 21">
<path d="M6096.96+3561.87C6092.27+3555.33+6110.96+3540.73+6116.45+3552.82C6122.25+3565.6+6099.73+3571.4+6098.11+3564.05L6042.45+3591.24L6146.14+3603.7L6144.98+3565.26L6188.72+3546.45L6171.69+3504.86L6129.06+3524.37L6098.9+3494.82L6041.82+3589.83L6096.96+3561.87Z" opacity="1" fill="#e0e0e0"/>
<path d="M6035.7+3595.59L6033.91+3590.88C6033.54+3589.91+6033.86+3588.87+6034.63+3588.56L6040.63+3586.15C6041.4+3585.84+6042.32+3586.38+6042.69+3587.35L6044.48+3592.06C6044.85+3593.03+6044.53+3594.07+6043.76+3594.38L6037.76+3596.79C6036.99+3597.1+6036.07+3596.56+6035.7+3595.59Z" opacity="1" fill="#272361"/>
<path d="M6197.5+3542.41L6395.65+3459.32C6395.65+3459.32+6411.62+3452.93+6402.95+3429.98C6394.64+3408.02+6377.37+3415.44+6377.37+3415.44L6180.2+3500.85L6197.5+3542.41Z" opacity="1" fill="#135eab"/>
<path d="M6191.11+3553.21L6167.74+3499.28L6179.5+3494.39L6202.74+3547.89L6191.11+3553.21Z" opacity="1" fill="#272361"/>
</g>
<g id="Слой 25" vectornator:layerName="Слой 25">
<g opacity="1">
<path stroke="#ffffff" stroke-width="5.97" d="M4966.52+3547.42L5000.14+3675.89L5010.84+3673.09C5026.34+3669.03+5036.12+3661.26+5040.16+3649.77C5044.2+3638.29+5043.15+3620.83+5037.02+3597.39C5030.93+3574.13+5023.32+3558.5+5014.18+3550.52C5005.05+3542.53+4992.72+3540.56+4977.22+3544.62L4966.52+3547.42ZM4917.78+3522.18L4960.02+3511.13C4992.64+3502.59+5018.16+3504.22+5036.58+3516.02C5055+3527.81+5068.82+3551.36+5078.06+3586.65C5087.32+3622.03+5086.82+3649.42+5076.57+3668.81C5066.31+3688.21+5044.87+3702.18+5012.25+3710.71L4970.01+3721.77L4917.78+3522.18Z" fill="none" stroke-linecap="round" opacity="1" stroke-linejoin="round"/>
<path stroke="#ffffff" stroke-width="5.97" d="M5023.41+3944.9L5165.11+3907.82L5174.52+3943.78L5032.82+3980.86L5023.41+3944.9Z" fill="none" stroke-linecap="round" opacity="1" stroke-linejoin="round"/>
</g>
<g opacity="1">
<path stroke="#ffffff" stroke-width="5.97" d="M5785.14+3403.81L5770.89+3457.63L5794.76+3463.95C5806.21+3466.98+5814.74+3467.16+5820.36+3464.47C5825.98+3461.79+5830.07+3455.62+5832.62+3445.96C5835.22+3436.13+5834.7+3428.44+5831.05+3422.87C5827.4+3417.3+5820.05+3413.05+5809.01+3410.13L5785.14+3403.81ZM5803.9+3332.93L5792.72+3375.19L5816.59+3381.51C5825.68+3383.91+5832.58+3384+5837.3+3381.78C5842.02+3379.55+5845.36+3374.7+5847.34+3367.23C5849.32+3359.76+5848.78+3353.82+5845.74+3349.41C5842.69+3345+5836.7+3341.61+5827.77+3339.25L5803.9+3332.93ZM5776.77+3295.12L5835.35+3310.63C5855.56+3315.98+5869.75+3323.84+5877.91+3334.21C5886.07+3344.58+5888.13+3357.4+5884.08+3372.66C5880.99+3384.35+5875.57+3392.69+5867.82+3397.68C5860.07+3402.66+5850.25+3404.15+5838.36+3402.13C5851.88+3407.18+5861.1+3414.62+5866.01+3424.43C5870.93+3434.25+5871.5+3446.3+5867.72+3460.59C5863.07+3478.13+5854.43+3489.44+5841.79+3494.52C5829.15+3499.6+5810.94+3498.99+5787.15+3492.69L5728.58+3477.19L5776.77+3295.12Z" fill="none" stroke-linecap="round" opacity="1" stroke-linejoin="round"/>
</g>
<g opacity="1">
<path stroke="#ffffff" stroke-width="5.97" d="M6673.29+4307.28C6666.88+4309.27+6660.31+4310.44+6653.57+4310.82C6646.84+4311.19+6639.9+4310.74+6632.77+4309.48C6607.4+4305.01+6589.51+4293.24+6579.11+4274.17C6568.7+4255.1+6566.29+4229.77+6571.86+4198.19C6577.44+4166.53+6588.39+4143.52+6604.69+4129.16C6620.99+4114.8+6641.83+4109.86+6667.19+4114.33C6674.33+4115.59+6681.04+4117.56+6687.33+4120.22C6693.61+4122.89+6699.34+4126.24+6704.52+4130.27L6697.23+4171.59C6691.88+4164.59+6686.45+4159.19+6680.93+4155.4C6675.4+4151.61+6669.45+4149.16+6663.06+4148.03C6649.46+4145.63+6638.24+4149.21+6629.41+4158.78C6620.57+4168.36+6614.28+4183.76+6610.53+4205.01C6606.8+4226.18+6607.45+4242.77+6612.47+4254.78C6617.5+4266.8+6626.81+4274.01+6640.42+4276.41C6646.8+4277.53+6653.24+4277.26+6659.72+4275.59C6666.21+4273.92+6673.16+4270.71+6680.58+4265.96L6673.29+4307.28Z" fill="none" stroke-linecap="round" opacity="1" stroke-linejoin="round"/>
</g>
</g>
</svg>
