<svg width="8324" height="6147" viewBox="0 0 8324 6147" fill="none" xmlns="http://www.w3.org/2000/svg">
<path d="M6343.11 394.312L7676.41 3242.44C7703.92 3301.22 7697.67 3370.26 7660.03 3423.13L5795.28 6043C5758.57 6094.58 5697.45 6123.08 5634.33 6118.05L2433.15 5862.86C2368.65 5857.72 2311.87 5818.36 2284.43 5759.76L947.552 2904.46C920.054 2845.73 926.273 2776.75 963.832 2723.89L2824.94 104.347C2861.72 52.5847 2923.04 24.0276 2986.33 29.1961L6194.74 291.224C6259.11 296.481 6315.73 335.82 6343.11 394.312Z" stroke="#E0E0E0" stroke-width="40" stroke-linejoin="round"/>
<g clip-path="url(#clip0)">
<path fill-rule="evenodd" clip-rule="evenodd" d="M8170.26 2867.91C7884.56 1918.36 6320.36 1905.69 6250.5 985.002C6181.59 76.751 5196.9 169.925 4620.17 543.725C3995.88 948.355 1804.61 146.553 1879.03 802.343C1953.44 1458.13 911.77 1716.25 846.41 2719.35C781.48 3715.96 1686.45 4940.72 1535.02 5550.06C1426.44 5986.96 3843.93 5713.32 4671.28 5695.34C5107.96 5685.84 6695.51 5978.78 6887.52 5414.41C7297.37 4209.78 8502.74 3972.92 8170.26 2867.91Z" fill="#4CC8ED" fill-opacity="0.140875"/>
<path fill-rule="evenodd" clip-rule="evenodd" d="M5417.37 1641.67L5369.96 1769.72L5825.47 1889.69L5417.37 1641.67Z" fill="#0081C3"/>
<path fill-rule="evenodd" clip-rule="evenodd" d="M5434.58 1590.93L5404.74 1672.18L5684.15 1801.33L5434.58 1590.93Z" fill="#1172BA"/>
<path fill-rule="evenodd" clip-rule="evenodd" d="M5511.51 1543.57L5434.13 1591.76L5659.7 1784.68L5355.47 1625.13L5262.03 1664.61L5844.58 1897.94L5511.51 1543.57Z" fill="#2BAAE2"/>
<path fill-rule="evenodd" clip-rule="evenodd" d="M4040.73 5024.24L4420.8 4974.22C4430.56 4972.94 4441.52 4964.53 4445.29 4955.44L4592 4601.28C4595.77 4592.19 4593.97 4578.49 4587.98 4570.69L4354.63 4266.55C4348.64 4258.74 4335.88 4253.45 4326.12 4254.74L3946.05 4304.75C3936.3 4306.04 3925.33 4314.45 3921.57 4323.54L3774.85 4677.69C3771.08 4686.78 3772.89 4700.48 3778.88 4708.29L4012.23 5012.43C4018.22 5020.24 4030.98 5025.52 4040.73 5024.24Z" stroke="#2BAAE2" stroke-opacity="0.138889" stroke-width="15.78" stroke-linecap="round" stroke-linejoin="round"/>
<path fill-rule="evenodd" clip-rule="evenodd" d="M4736.81 2777.45L5021.02 2740.05C5028.31 2739.09 5036.51 2732.8 5039.33 2726L5149.04 2461.17C5151.85 2454.38 5150.51 2444.13 5146.03 2438.3L4971.53 2210.87C4967.06 2205.03 4957.51 2201.08 4950.22 2202.04L4666.01 2239.44C4658.72 2240.4 4650.52 2246.69 4647.7 2253.48L4537.99 2518.31C4535.18 2525.11 4536.52 2535.35 4541 2541.19L4715.5 2768.62C4719.97 2774.46 4729.52 2778.41 4736.81 2777.45Z" stroke="#2BAAE2" stroke-opacity="0.138889" stroke-width="15.78" stroke-linecap="round" stroke-linejoin="round"/>
<path fill-rule="evenodd" clip-rule="evenodd" d="M6980.88 3855.69L7189.11 3737.48C7194.45 3734.45 7198.82 3727.01 7198.86 3720.86L7200.61 3481.43C7200.65 3475.29 7196.39 3467.78 7191.09 3464.67L6984.61 3343.45C6979.31 3340.34 6970.68 3340.27 6965.34 3343.31L6757.11 3461.51C6751.77 3464.55 6747.4 3471.99 6747.36 3478.13L6745.61 3717.56C6745.57 3723.71 6749.83 3731.21 6755.13 3734.33L6961.61 3855.55C6966.91 3858.66 6975.54 3858.72 6980.88 3855.69Z" stroke="#2BAAE2" stroke-opacity="0.138889" stroke-width="15.78" stroke-linecap="round" stroke-linejoin="round"/>
<path fill-rule="evenodd" clip-rule="evenodd" d="M2867.11 2081.31L3315.9 1924.39C3327.42 1920.36 3338.6 1907.37 3340.87 1895.38L3429.37 1428.26C3431.64 1416.27 3425.98 1400.09 3416.73 1392.13L3056.44 1081.93C3047.19 1073.96 3030.36 1070.77 3018.84 1074.8L2570.05 1231.72C2558.53 1235.75 2547.35 1248.74 2545.08 1260.73L2456.58 1727.85C2454.31 1739.84 2459.96 1756.02 2469.21 1763.98L2829.5 2074.18C2838.75 2082.15 2855.59 2085.33 2867.11 2081.31Z" stroke="#2BAAE2" stroke-opacity="0.138889" stroke-width="15.78" stroke-linecap="round" stroke-linejoin="round"/>
<path opacity="0.196035" fill-rule="evenodd" clip-rule="evenodd" d="M1178.3 2260.09C1268.85 2260.09 1344.05 2319.45 1354.13 2396.95C1362.72 2395.56 1371.38 2394.6 1380.11 2394.6C1453.94 2394.6 1514.54 2443.01 1514.54 2503.99C1514.54 2560.23 1462.67 2606.46 1395.48 2612.67C1395.48 2612.67 1380.02 2614.4 1374.09 2615.03C1357.18 2616.81 1338.82 2618.6 1319.67 2620.27C1291.86 2622.69 1264.75 2624.64 1239.23 2625.97C1215.37 2627.22 1193.51 2627.9 1174.1 2627.9C1125.34 2627.9 1078.35 2625.78 1015.15 2621.5C1008.03 2621.02 969.07 2618.31 958.99 2617.65C886.91 2613.18 830.15 2563.43 830.15 2502.37C830.15 2457.94 860.48 2418.65 906.73 2399.27C911.66 2358.47 950.18 2327.23 996.42 2327.23C1007.35 2327.23 1018.02 2329.09 1028.14 2332.51C1060.29 2287.88 1116.51 2260.09 1178.3 2260.09Z" fill="#2BAAE2" fill-opacity="0.0631313" stroke="#2BAAE2" stroke-width="15.22" stroke-linecap="round" stroke-linejoin="round"/>
<path opacity="0.196035" fill-rule="evenodd" clip-rule="evenodd" d="M5733.97 494.38C5799.96 494.38 5854.77 537.641 5862.11 594.123C5868.37 593.106 5874.69 592.41 5881.04 592.409C5934.85 592.41 5979.02 627.69 5979.02 672.125C5979.02 713.116 5941.22 746.804 5892.25 751.335C5892.25 751.335 5880.98 752.593 5876.66 753.048C5864.34 754.35 5850.95 755.654 5837 756.868C5816.73 758.634 5796.98 760.053 5778.38 761.026C5760.99 761.936 5745.06 762.43 5730.91 762.43C5695.38 762.43 5661.13 760.886 5615.07 757.767C5609.88 757.416 5581.49 755.441 5574.15 754.958C5521.61 751.7 5480.25 715.446 5480.25 670.945C5480.25 638.571 5502.35 609.932 5536.06 595.808C5539.65 566.074 5567.72 543.31 5601.42 543.31C5609.39 543.31 5617.17 544.663 5624.54 547.159C5647.97 514.631 5688.94 494.38 5733.97 494.38Z" fill="#2BAAE2" fill-opacity="0.0631313" stroke="#2BAAE2" stroke-width="15.22" stroke-linecap="round" stroke-linejoin="round"/>
<path opacity="0.196035" fill-rule="evenodd" clip-rule="evenodd" d="M6902.63 1834.08C6993.17 1834.08 7068.38 1893.44 7078.45 1970.95C7087.04 1969.55 7095.71 1968.6 7104.43 1968.6C7178.27 1968.6 7238.87 2017.01 7238.87 2077.98C7238.87 2134.22 7187 2180.45 7119.81 2186.67C7119.81 2186.67 7104.34 2188.39 7098.42 2189.02C7081.51 2190.81 7063.14 2192.59 7044 2194.26C7016.18 2196.68 6989.08 2198.63 6963.56 2199.96C6939.69 2201.21 6917.84 2201.89 6898.42 2201.89C6849.66 2201.89 6802.67 2199.77 6739.48 2195.49C6732.36 2195.01 6693.4 2192.3 6683.32 2191.64C6611.23 2187.17 6554.47 2137.42 6554.47 2076.36C6554.47 2031.94 6584.8 1992.64 6631.06 1973.26C6635.99 1932.46 6674.5 1901.22 6720.74 1901.22C6731.68 1901.22 6742.35 1903.08 6752.47 1906.5C6784.61 1861.87 6840.84 1834.08 6902.63 1834.08Z" fill="#2BAAE2" fill-opacity="0.0631313" stroke="#2BAAE2" stroke-width="15.22" stroke-linecap="round" stroke-linejoin="round"/>
<path opacity="0.196035" fill-rule="evenodd" clip-rule="evenodd" d="M3130.37 3829.37C3220.92 3829.37 3296.12 3888.74 3306.2 3966.24C3314.79 3964.84 3323.46 3963.89 3332.18 3963.89C3406.01 3963.89 3466.62 4012.3 3466.62 4073.27C3466.62 4129.52 3414.75 4175.74 3347.56 4181.96C3347.56 4181.96 3332.09 4183.68 3326.17 4184.31C3309.26 4186.1 3290.89 4187.88 3271.75 4189.55C3243.93 4191.97 3216.83 4193.92 3191.31 4195.26C3167.44 4196.5 3145.58 4197.18 3126.17 4197.18C3077.41 4197.18 3030.42 4195.06 2967.22 4190.78C2960.1 4190.3 2921.14 4187.59 2911.07 4186.93C2838.98 4182.46 2782.22 4132.71 2782.22 4071.65C2782.22 4027.23 2812.55 3987.93 2858.81 3968.55C2863.74 3927.75 2902.25 3896.51 2948.49 3896.51C2959.43 3896.51 2970.1 3898.37 2980.21 3901.8C3012.36 3857.16 3068.58 3829.37 3130.37 3829.37Z" fill="#2BAAE2" fill-opacity="0.0631313" stroke="#2BAAE2" stroke-width="15.22" stroke-linecap="round" stroke-linejoin="round"/>
<path d="M3373.12 867.174C3373.12 867.174 2928.08 472.907 2393.15 585.741C1858.23 698.575 1745.9 1285.23 1298.53 1636.66C851.16 1988.09 406.41 2190.97 447.21 2790.3C499.72 3561.83 1825.63 2863.46 2115.46 3385.56C2405.29 3907.66 1518.97 4176.62 1518.97 4176.62" stroke="#2BAAE2" stroke-opacity="0.237374" stroke-width="15.22" stroke-linecap="round" stroke-linejoin="round" stroke-dasharray="50 50 50 50"/>
<path d="M5160.54 1365.3L5409.75 1609.43" stroke="#2BAAE2" stroke-opacity="0.237374" stroke-width="15.22" stroke-linecap="round" stroke-linejoin="round" stroke-dasharray="50 50 50 50"/>
<path fill-rule="evenodd" clip-rule="evenodd" d="M8069.02 5619.18C8072.62 5581.92 6342.24 5563.91 4185.37 5563.91C2028.51 5563.91 263.361 5576.78 258.311 5619.18C253.181 5662.29 2006.8 5702.26 4163.66 5702.26C6320.53 5702.26 8065.36 5657.1 8069.02 5619.18Z" fill="#E0E0E0"/>
<path fill-rule="evenodd" clip-rule="evenodd" d="M5286.85 5382.66H3594.95C3552.28 5382.66 3517.69 5409.16 3517.69 5441.86C3517.69 5474.56 3552.28 5501.07 3594.95 5501.07H5286.85C5329.52 5501.07 5364.12 5474.56 5364.12 5441.86C5364.12 5409.16 5329.52 5382.66 5286.85 5382.66Z" fill="#272361"/>
<path fill-rule="evenodd" clip-rule="evenodd" d="M5010.02 4898.11H3845.57V5402.78H5010.02V4898.11Z" fill="#272361"/>
<path fill-rule="evenodd" clip-rule="evenodd" d="M6261.37 2340.54H2576.52C2452.62 2340.54 2352.19 2419.18 2352.19 2516.19V4761.23C2352.19 4858.24 2452.62 4936.88 2576.52 4936.88H6261.37C6385.26 4936.88 6485.7 4858.24 6485.7 4761.23V2516.19C6485.7 2419.18 6385.26 2340.54 6261.37 2340.54Z" fill="#0081C3"/>
<path fill-rule="evenodd" clip-rule="evenodd" d="M6419.13 2274.46H2409.95C2375.61 2274.46 2347.85 2302.29 2347.93 2336.63L2353.02 4506.33L6484.37 4488.55L6481.38 2336.63C6481.34 2302.29 6453.47 2274.46 6419.13 2274.46Z" fill="#272361"/>
<path fill-rule="evenodd" clip-rule="evenodd" d="M6386.69 2381.68H2442.25L2446.23 4416.97L6386.69 4391.43V2381.68Z" fill="#E0E0E0"/>
<path fill-rule="evenodd" clip-rule="evenodd" d="M5827.42 2686.43H2946.23V4077.22H5827.42V2686.43Z" fill="white" stroke="#828282" stroke-width="10.1" stroke-linecap="round" stroke-linejoin="round" stroke-dasharray="50 50 50 50"/>
<path fill-rule="evenodd" clip-rule="evenodd" d="M4457.88 2996.97C4350.17 2996.97 4227.61 3098.59 4178.71 3184.99C4145.65 3165.7 4122.39 3156.31 4086.5 3152.52C4033.08 3146.86 3969.47 3218.62 3979.74 3284.35C3892.75 3317.12 3821.49 3384.26 3821.49 3467.67C3821.49 3576.21 3954.63 3646.86 4069.05 3654.95C4146.55 3660.75 4252.31 3656.19 4360.86 3659.61L4362.44 3540.64H4283.13L4425.89 3377.26L4573.42 3537.47L4495.69 3542.23V3658.03C4633.69 3662.78 4838.26 3639.46 4838.26 3639.46C4944.28 3628.29 5038.54 3577.22 5038.54 3477.71C5038.54 3370.58 4971.36 3329.81 4890.23 3314.58C4861.22 3309.13 4790.67 3314.09 4746.99 3333.38C4740.49 3183.52 4611.89 2996.97 4457.88 2996.97Z" fill="#E0E0E0"/>
<path fill-rule="evenodd" clip-rule="evenodd" d="M5265.78 4034.68L5489.94 5496.22Z" fill="white"/>
<path d="M5265.78 4034.68L5489.94 5496.22" stroke="#2E3690" stroke-width="25.19" stroke-linecap="round" stroke-linejoin="round"/>
<path fill-rule="evenodd" clip-rule="evenodd" d="M5657.32 4028.7L5878.49 5490.25Z" fill="white"/>
<path d="M5657.32 4028.7L5878.49 5490.25" stroke="#2E3690" stroke-width="25.19" stroke-linecap="round" stroke-linejoin="round"/>
<path fill-rule="evenodd" clip-rule="evenodd" d="M5322.91 4327.67L5705.04 4325.81Z" fill="white"/>
<path d="M5322.91 4327.67L5705.04 4325.81" stroke="#2E3690" stroke-width="25.19" stroke-linecap="round" stroke-linejoin="round"/>
<path fill-rule="evenodd" clip-rule="evenodd" d="M5352.73 4577.46H5733H5352.73Z" fill="white" stroke="#2E3690" stroke-width="25.19" stroke-linecap="round" stroke-linejoin="round"/>
<path fill-rule="evenodd" clip-rule="evenodd" d="M5388.15 4814.19L5774.01 4810.47Z" fill="white"/>
<path d="M5388.15 4814.19L5774.01 4810.47" stroke="#2E3690" stroke-width="25.19" stroke-linecap="round" stroke-linejoin="round"/>
<path fill-rule="evenodd" clip-rule="evenodd" d="M5434.75 5050.93L5809.43 5049.07Z" fill="white"/>
<path d="M5434.75 5050.93L5809.43 5049.07" stroke="#2E3690" stroke-width="25.19" stroke-linecap="round" stroke-linejoin="round"/>
<path fill-rule="evenodd" clip-rule="evenodd" d="M5466.44 5291.4L5842.98 5287.67Z" fill="white"/>
<path d="M5466.44 5291.4L5842.98 5287.67" stroke="#2E3690" stroke-width="25.19" stroke-linecap="round" stroke-linejoin="round"/>
<path fill-rule="evenodd" clip-rule="evenodd" d="M5388.01 2972.44C5410.01 2952.19 5432.95 2933.19 5432.95 2933.19L5838.09 2990.02C5858.62 2992.9 5871.56 3021.59 5867 3054.11L5773.82 3718.41C5769.26 3750.93 5748.92 3774.96 5728.39 3772.08L5285.29 3709.93C5264.76 3707.05 5251.81 3678.35 5256.38 3645.83L5344.97 3014.18C5344.97 3014.18 5366.02 2992.69 5388.01 2972.44Z" fill="#2BAAE2"/>
<path fill-rule="evenodd" clip-rule="evenodd" d="M5345.04 3012.58L5418.24 3031.69C5426.92 3033.95 5433.89 3028.52 5433.81 3019.56L5433.1 2933.11L5345.04 3012.58Z" fill="#4CC8ED"/>
<path fill-rule="evenodd" clip-rule="evenodd" d="M5433.99 3113.56L5769.25 3160.58C5774.75 3161.36 5778.59 3166.44 5777.82 3171.95C5777.04 3177.45 5771.96 3181.29 5766.45 3180.51L5431.2 3133.49C5425.69 3132.72 5421.86 3127.63 5422.63 3122.13C5423.4 3116.62 5428.49 3112.79 5433.99 3113.56Z" fill="white"/>
<path fill-rule="evenodd" clip-rule="evenodd" d="M5426.88 3194.81L5581.65 3216.52L5762.14 3241.83C5767.64 3242.61 5771.48 3247.69 5770.71 3253.2C5769.93 3258.7 5764.85 3262.54 5759.34 3261.76L5424.09 3214.74C5418.58 3213.97 5414.75 3208.88 5415.52 3203.38C5416.29 3197.87 5421.38 3194.04 5426.88 3194.81Z" fill="white"/>
<path fill-rule="evenodd" clip-rule="evenodd" d="M5414.92 3273.97L5750.17 3321C5755.68 3321.77 5759.51 3326.86 5758.74 3332.36C5757.97 3337.86 5752.88 3341.7 5747.38 3340.93L5412.12 3293.9C5406.62 3293.13 5402.78 3288.04 5403.55 3282.54C5404.33 3277.03 5409.41 3273.2 5414.92 3273.97Z" fill="white"/>
<path fill-rule="evenodd" clip-rule="evenodd" d="M5402.11 3357.23L5737.36 3404.26C5742.87 3405.03 5746.7 3410.11 5745.93 3415.62C5745.16 3421.12 5740.07 3424.96 5734.57 3424.19L5399.31 3377.16C5393.81 3376.39 5389.97 3371.3 5390.74 3365.8C5391.51 3360.29 5396.6 3356.46 5402.11 3357.23Z" fill="white"/>
<path fill-rule="evenodd" clip-rule="evenodd" d="M5393.92 3441.48L5729.18 3488.5C5734.68 3489.28 5738.52 3494.36 5737.75 3499.87C5736.97 3505.37 5731.89 3509.21 5726.38 3508.43L5391.13 3461.41C5385.62 3460.64 5381.79 3455.55 5382.56 3450.05C5383.33 3444.54 5388.42 3440.71 5393.92 3441.48Z" fill="white"/>
<path fill-rule="evenodd" clip-rule="evenodd" d="M5382.72 3525.49L5717.98 3572.51C5723.49 3573.28 5727.32 3578.37 5726.55 3583.87C5725.78 3589.38 5720.69 3593.21 5715.19 3592.44L5379.93 3545.42C5374.43 3544.64 5370.59 3539.56 5371.36 3534.05C5372.13 3528.55 5377.22 3524.71 5382.72 3525.49Z" fill="white"/>
<path fill-rule="evenodd" clip-rule="evenodd" d="M5772.92 4913.33L5756.85 4994.08L5729.14 4992.92L5729.53 4894.86L5772.92 4913.33Z" fill="#FDBC8C"/>
<path fill-rule="evenodd" clip-rule="evenodd" d="M5604.16 4913.88L5597.1 4981.81L5571.2 4979.46L5573.56 4906.15L5604.16 4913.88Z" fill="#FDBC8C"/>
<path fill-rule="evenodd" clip-rule="evenodd" d="M5769.08 4984.01C5769.08 4984.01 5791.87 5017.55 5774.63 5044.83L5719.42 5049.76C5719.42 5049.76 5649.11 5063.25 5630.41 5056.44C5611.71 5049.64 5644.93 5028.72 5644.93 5028.72L5694.88 5001.11L5723.8 4982.7L5769.08 4984.01Z" fill="#272361"/>
<path fill-rule="evenodd" clip-rule="evenodd" d="M5607.28 4971.54C5607.28 4971.54 5630.07 5005.07 5612.83 5032.36L5557.62 5037.29C5557.62 5037.29 5487.31 5050.78 5468.61 5043.97C5449.91 5037.16 5483.14 5016.25 5483.14 5016.25L5533.09 4988.63L5562.01 4970.22L5607.28 4971.54Z" fill="#272361"/>
<path fill-rule="evenodd" clip-rule="evenodd" d="M5841.16 4084.25C5841.16 4084.25 5848.87 4733.35 5776.86 4934.47C5776.86 4934.47 5759.79 4943.2 5744.49 4942.55C5729.18 4941.9 5722.58 4929.68 5722.58 4929.68C5708.96 4785.45 5713.84 4561.02 5710.82 4412.74C5709.09 4327.68 5704.28 4259.82 5704.28 4259.82C5704.28 4259.82 5681.77 4739.45 5614.69 4929.34C5614.69 4929.34 5601.69 4937.43 5587.65 4937.2C5573.6 4936.97 5558.51 4928.41 5558.51 4928.41C5529.01 4718.2 5595.72 4085.97 5595.72 4085.97L5841.16 4084.25Z" fill="#2E3690"/>
<path fill-rule="evenodd" clip-rule="evenodd" d="M5740.32 4177.84C5740.32 4177.84 5739.04 4214.49 5729.95 4234.55C5720.86 4254.6 5703.95 4258.07 5703.95 4258.07C5703.95 4258.07 5703.9 4262.56 5706.99 4373.97C5707.22 4382.14 5706.8 4432.24 5706.88 4440.36C5707.97 4543 5696.9 4624.16 5712.41 4775.62C5729.08 4938.42 5726.29 4930.33 5726.29 4930.33C5726.29 4930.33 5712.09 4738.93 5716.96 4571.75C5721.96 4399.87 5714.43 4263.06 5714.43 4263.06C5714.43 4263.06 5727.07 4249.69 5734.65 4241.19C5748 4226.23 5740.32 4177.84 5740.32 4177.84Z" fill="#272361"/>
<path fill-rule="evenodd" clip-rule="evenodd" d="M5405.15 3720.75C5405.15 3720.75 5413.38 3738.34 5413.53 3752.65C5413.59 3758.16 5462.15 3801.84 5462.15 3801.84C5462.15 3801.84 5451.05 3824 5438.08 3815.73C5421.42 3805.12 5395.62 3771.71 5391.96 3771.46C5380.38 3770.66 5368.58 3765.17 5368.58 3765.17C5368.58 3765.17 5283.67 3715.67 5290.59 3709.32C5297.52 3702.97 5316.82 3725.55 5321.33 3721.3C5325.84 3717.05 5284.59 3691.51 5291.91 3685.36C5299.22 3679.21 5325.1 3712.86 5328.3 3709.49C5331.51 3706.12 5297.21 3677.78 5304.73 3671.89C5312.26 3666 5339.89 3703.8 5344.22 3700.65C5348.56 3697.5 5314.81 3663.75 5322.07 3659.28C5329.34 3654.81 5352.11 3694.36 5364.15 3696.02C5376.19 3697.68 5360.12 3661.78 5370.24 3665.94C5380.35 3670.09 5405.15 3720.75 5405.15 3720.75Z" fill="#FDBC8C"/>
<path fill-rule="evenodd" clip-rule="evenodd" d="M5803.86 3429.91C5803.86 3429.91 5786.02 3475.82 5786.02 3507.87C5786.02 3539.92 5794.24 3569.55 5794.24 3569.55C5794.24 3569.55 5813.53 3576.66 5863.52 3597.7C5865.85 3598.68 5868.25 3599.7 5870.72 3600.74C5923.48 3623.05 5761.44 3638.6 5761.44 3638.6L5622.94 3615.68C5622.94 3615.68 5640.07 3592.28 5671.32 3580.94C5681.97 3577.08 5702.25 3571.11 5704.62 3564.37C5710.14 3548.67 5714.95 3530.57 5715.84 3513.52C5718.11 3469.96 5694.81 3433.2 5694.81 3433.2L5803.86 3429.91Z" fill="#FDBC8C"/>
<path fill-rule="evenodd" clip-rule="evenodd" d="M5803.86 3429.91C5803.86 3429.91 5795.8 3469.72 5795.8 3501.77C5795.8 3533.82 5803.86 3558.12 5803.86 3558.12C5803.86 3558.12 5775.28 3528.91 5751.59 3519.98C5727.89 3511.06 5709.44 3498.05 5709.44 3498.05C5709.44 3498.05 5709.46 3484.64 5708.55 3475.8C5704.68 3438.45 5694.81 3433.2 5694.81 3433.2L5803.86 3429.91Z" fill="#DFA58B"/>
<path fill-rule="evenodd" clip-rule="evenodd" d="M5842.56 3588.41C5842.56 3588.41 5795.72 3597.7 5752.31 3598.1C5698.21 3598.59 5662 3585.33 5662 3585.33C5662 3585.33 5552.3 3606 5545.08 3652.34C5535.5 3713.86 5524.81 3813.04 5522.99 3846.66C5521.18 3880.28 5547.01 3868.78 5506.92 3833.84C5464.28 3796.69 5414.14 3755.1 5414.14 3755.1C5414.14 3755.1 5415.17 3761.11 5409.45 3767.6C5403.73 3774.09 5391.2 3771.9 5391.2 3771.9C5391.2 3771.9 5416.44 3816.33 5463.95 3891.26C5505.56 3956.89 5543.75 3965.65 5566.74 3950.94C5589.72 3936.24 5598.71 3859.21 5602.7 3842.32C5606.68 3825.43 5620.23 3864.93 5606.44 3927.38C5592.65 3989.83 5564.49 4049.19 5576.84 4103.16C5589.19 4157.12 5668.09 4162.44 5716.35 4163.92C5769.5 4165.54 5882.53 4172.6 5889.83 4104.73C5898.75 4021.81 5883.23 4012.91 5892.28 3905.49C5893.43 3891.72 5829.67 3945.79 5896.09 3962.93C5920.16 3969.13 5969.76 3986.79 5981.94 3957.92C5992.32 3933.32 5984.27 3896.65 5978.1 3838.18C5971.94 3779.7 5962.11 3738.37 5952.73 3683.17C5941.9 3619.39 5879.82 3604.51 5879.82 3604.51L5842.56 3588.41Z" fill="#0081C3"/>
<path fill-rule="evenodd" clip-rule="evenodd" d="M5672.45 3373.27C5672.45 3358.81 5664.57 3347.08 5654.85 3347.08C5645.13 3347.08 5637.24 3358.81 5637.24 3373.27C5637.24 3387.73 5645.13 3399.45 5654.85 3399.45C5664.57 3399.45 5672.45 3387.73 5672.45 3373.27Z" stroke="#E0E0E0" stroke-width="8.77" stroke-linecap="round" stroke-linejoin="round"/>
<path fill-rule="evenodd" clip-rule="evenodd" d="M5850.42 3295.96C5869.83 3323.53 5845.21 3363.62 5841.01 3394.45C5839.42 3406.15 5861.12 3374.07 5864.74 3395.5C5866.67 3406.95 5848.44 3445.57 5836.5 3434.3C5824.57 3423.04 5811.6 3455.47 5801.67 3462.9C5777.28 3481.15 5751.66 3495.91 5715.73 3493.78C5649.75 3489.85 5655.03 3412.47 5660.45 3356.33C5663.42 3325.54 5671.31 3301.52 5687.48 3285.08C5700.79 3271.54 5720.14 3263.6 5743.32 3257.33C5794.64 3243.44 5823.65 3257.93 5850.42 3295.96Z" fill="#FDBC8C"/>
<path fill-rule="evenodd" clip-rule="evenodd" d="M5666.2 3369.16C5665.53 3365.66 5662.94 3363.15 5659.94 3362.57C5658.85 3362.36 5658.47 3380.3 5658.47 3380.3C5658.9 3380.26 5659.49 3380.19 5659.93 3380.07C5664.3 3378.81 5667.11 3373.93 5666.2 3369.16Z" fill="#272361"/>
<path d="M5638.83 3376.42L5696.32 3381.03L5744.2 3380.1" stroke="#E0E0E0" stroke-width="8.86" stroke-linejoin="round"/>
<path fill-rule="evenodd" clip-rule="evenodd" d="M5783.56 3564.36C5751.58 3565.63 5651.27 3536.52 5651.27 3536.52C5651.27 3536.52 5677.44 3525.34 5698.69 3464.74C5709.15 3434.9 5705.34 3368.89 5705.34 3368.89C5705.34 3368.89 5696.64 3362.61 5681.87 3348.9C5667.1 3335.2 5665.84 3328.89 5658.41 3319.36C5650.07 3308.65 5655.96 3266.73 5677.52 3252.57C5688.08 3245.64 5736.71 3235.75 5763.89 3240.33C5796.53 3245.83 5790.81 3248.05 5796.58 3248.58C5802.34 3249.11 5806.97 3244.62 5837.02 3253.02C5886.9 3266.97 5893.35 3341 5910.27 3377.84C5929.63 3419.97 5944.08 3472.86 5912.4 3519.49C5880.72 3566.12 5815.54 3563.09 5783.56 3564.36Z" fill="#272361"/>
<path fill-rule="evenodd" clip-rule="evenodd" d="M5675.24 3432.47C5674.94 3430.81 5670.75 3432.98 5665.87 3434.22C5661.94 3435.22 5659.46 3434.96 5659.46 3434.96C5659.46 3434.96 5659.52 3435.96 5660.15 3439.41C5660.79 3442.86 5661.61 3445.79 5661.61 3445.79C5670.56 3442.53 5676.22 3437.86 5675.24 3432.47Z" fill="#E0E0E0"/>
<path fill-rule="evenodd" clip-rule="evenodd" d="M5676.03 3340.96L5667.51 3337.14L5663.5 3335.33C5663.5 3335.33 5662.95 3335.05 5662.29 3338.74C5661.65 3342.35 5662.21 3342.39 5662.21 3342.39L5671.85 3346.69C5675.12 3348.15 5678.7 3348.05 5679.86 3346.47C5681.01 3344.88 5679.3 3342.42 5676.03 3340.96Z" fill="#272361"/>
<path fill-rule="evenodd" clip-rule="evenodd" d="M5888.38 3758.94C5888.38 3758.94 5904.84 3802.66 5911.72 3838.72C5918.61 3874.78 5915.9 3903.19 5915.9 3903.19L5889.43 3897.6C5889.43 3897.6 5891.24 3898.86 5892.69 3864.31C5894.36 3824.24 5888.38 3758.94 5888.38 3758.94Z" fill="#1172BA"/>
<path fill-rule="evenodd" clip-rule="evenodd" d="M6672.43 1228.34H6247.99C6228.33 1228.34 6212.38 1244.04 6212.38 1263.42V1659.25C6212.38 1678.63 6228.33 1694.33 6247.99 1694.33H6672.43C6692.1 1694.33 6708.04 1678.63 6708.04 1659.25V1263.42C6708.04 1244.04 6692.1 1228.34 6672.43 1228.34Z" fill="#2BAAE2"/>
<path fill-rule="evenodd" clip-rule="evenodd" d="M6516.8 1375.65L6514.22 1547.59C6514.14 1553.52 6510.57 1555.97 6506.27 1553.05L6381.63 1468.69C6377.32 1465.77 6377.31 1461.02 6381.59 1458.06L6509.19 1370.25C6513.48 1367.3 6516.88 1369.71 6516.8 1375.65Z" fill="white"/>
<path fill-rule="evenodd" clip-rule="evenodd" d="M6789.14 2351.83L7173.54 2433.11C7191.35 2436.88 7202.78 2454.16 7199.07 2471.71L7123.26 2830.19C7119.55 2847.74 7102.11 2858.91 7084.29 2855.15L6699.9 2773.86C6682.09 2770.1 6670.66 2752.82 6674.37 2735.27L6750.17 2376.78C6753.88 2359.23 6771.33 2348.06 6789.14 2351.83Z" fill="#2BAAE2"/>
<path fill-rule="evenodd" clip-rule="evenodd" d="M6803.72 2376.69L7150.14 2449.94C7166.19 2453.34 7176.49 2468.91 7173.15 2484.72L7104.83 2807.8C7101.49 2823.61 7085.77 2833.68 7069.72 2830.29L6723.29 2757.03C6707.24 2753.64 6696.94 2738.07 6700.29 2722.25L6768.6 2399.18C6771.95 2383.36 6787.67 2373.29 6803.72 2376.69Z" fill="white"/>
<path fill-rule="evenodd" clip-rule="evenodd" d="M6795.24 2467.61C6799.96 2445.28 6821.89 2431.01 6844.22 2435.73C6866.55 2440.45 6880.83 2462.38 6876.11 2484.71C6871.38 2507.04 6849.45 2521.32 6827.12 2516.59C6804.79 2511.87 6790.52 2489.94 6795.24 2467.61Z" fill="#2BAAE2"/>
<path fill-rule="evenodd" clip-rule="evenodd" d="M6729.94 2677.12L6724.35 2707.28C6721.72 2721.47 6731.03 2735.47 6745.14 2738.54L7056.69 2806.31C7071.11 2809.45 7085.42 2800.32 7088.65 2785.92L7121.65 2638.7C7121.65 2638.7 7109.97 2585.34 7055.47 2604.13C7000.98 2622.92 6870.07 2692.05 6870.07 2692.05C6870.07 2692.05 6832.67 2634.36 6791.63 2632.11C6750.58 2629.86 6729.94 2677.12 6729.94 2677.12Z" fill="#2BAAE2"/>
<path fill-rule="evenodd" clip-rule="evenodd" d="M3700.65 2782.23H3133.22C3106.93 2782.23 3085.61 2804.15 3085.61 2831.18V3383.46C3085.61 3410.49 3106.93 3432.41 3133.22 3432.41H3700.65C3726.94 3432.41 3748.25 3410.49 3748.25 3383.46V2831.18C3748.25 2804.15 3726.94 2782.23 3700.65 2782.23Z" fill="#2BAAE2"/>
<path fill-rule="evenodd" clip-rule="evenodd" d="M3579.93 2875.32C3579.93 2855.91 3564.04 2840.17 3544.43 2840.17C3524.83 2840.17 3508.93 2855.91 3508.93 2875.32C3508.93 2894.73 3524.83 2910.47 3544.43 2910.47C3564.04 2910.47 3579.93 2894.73 3579.93 2875.32Z" stroke="white" stroke-width="10.55" stroke-linecap="round" stroke-linejoin="round"/>
<path fill-rule="evenodd" clip-rule="evenodd" d="M3609.59 3210.42C3609.59 3191.22 3594.09 3175.66 3574.98 3175.66C3555.87 3175.66 3540.37 3191.22 3540.37 3210.42C3540.37 3229.61 3555.87 3245.17 3574.98 3245.17C3594.09 3245.17 3609.59 3229.61 3609.59 3210.42Z" stroke="white" stroke-width="10.55" stroke-linecap="round" stroke-linejoin="round"/>
<path fill-rule="evenodd" clip-rule="evenodd" d="M3242.21 3182.97C3242.21 3163.87 3226.57 3148.38 3207.28 3148.38C3187.99 3148.38 3172.35 3163.87 3172.35 3182.97C3172.35 3202.06 3187.99 3217.55 3207.28 3217.55C3226.57 3217.55 3242.21 3202.06 3242.21 3182.97Z" stroke="white" stroke-width="10.55" stroke-linecap="round" stroke-linejoin="round"/>
<path d="M3571.81 2902.14C3571.81 2902.14 3637.55 2948.96 3645.76 3039.19C3653.96 3129.42 3602.3 3186.38 3602.3 3186.38" stroke="white" stroke-width="10.55" stroke-linecap="round" stroke-linejoin="round"/>
<path d="M3233.98 3209C3233.98 3209 3297.61 3264.95 3375.06 3271.22C3452.51 3277.49 3543.78 3234.08 3543.78 3234.08" stroke="white" stroke-width="10.55" stroke-linecap="round" stroke-linejoin="round"/>
<path d="M3459.95 3030.41C3459.95 3030.41 3299.12 2941.96 3350.95 2871.41C3402.78 2800.85 3506.66 2863.88 3506.66 2863.88" stroke="white" stroke-width="10.55" stroke-linecap="round" stroke-linejoin="round"/>
<path fill-rule="evenodd" clip-rule="evenodd" d="M3524.21 3058.97C3524.21 3039.87 3508.57 3024.38 3489.28 3024.38C3469.99 3024.38 3454.35 3039.87 3454.35 3058.97C3454.35 3078.06 3469.99 3093.55 3489.28 3093.55C3508.57 3093.55 3524.21 3078.06 3524.21 3058.97Z" stroke="white" stroke-width="10.55" stroke-linecap="round" stroke-linejoin="round"/>
<path d="M3495.95 3097.41C3495.95 3097.41 3517.95 3241.41 3363.95 3184.41C3209.95 3127.41 3187.95 2921.41 3187.95 2921.41" stroke="white" stroke-width="10.55" stroke-linecap="round" stroke-linejoin="round"/>
<path fill-rule="evenodd" clip-rule="evenodd" d="M3218.89 2884.45C3218.89 2865.35 3203.25 2849.87 3183.96 2849.87C3164.67 2849.87 3149.03 2865.35 3149.03 2884.45C3149.03 2903.55 3164.67 2919.03 3183.96 2919.03C3203.25 2919.03 3218.89 2903.55 3218.89 2884.45Z" stroke="white" stroke-width="10.55" stroke-linecap="round" stroke-linejoin="round"/>
<path d="M7772.87 3157.32C7772.87 3157.32 7710.29 3087.84 7584.5 3075.13C7458.71 3062.43 7361.5 3132.45 7361.5 3132.45" stroke="#2BAAE2" stroke-width="30.35" stroke-linecap="round" stroke-linejoin="round"/>
<path d="M7727.79 3227.01C7727.79 3227.01 7676.68 3172.48 7574.25 3162.24C7471.82 3152.01 7392.83 3206.6 7392.83 3206.6" stroke="#2BAAE2" stroke-width="30.35" stroke-linecap="round" stroke-linejoin="round"/>
<path d="M7665.62 3294.47C7665.62 3294.47 7631.65 3250.01 7562.47 3242.67C7493.28 3235.33 7439.26 3281.27 7439.26 3281.27" stroke="#2BAAE2" stroke-width="30.35" stroke-linecap="round" stroke-linejoin="round"/>
<path fill-rule="evenodd" clip-rule="evenodd" d="M7596.1 3366.8C7597.9 3342.02 7579.09 3320.47 7554.08 3318.65C7529.07 3316.84 7507.34 3335.45 7505.55 3360.23C7503.75 3385 7522.56 3406.55 7547.57 3408.37C7572.58 3410.18 7594.31 3391.57 7596.1 3366.8Z" fill="#2BAAE2"/>
<path fill-rule="evenodd" clip-rule="evenodd" d="M2492.19 1305.62L2124.34 1354.86C2107.3 1357.14 2095.42 1373.47 2097.81 1391.33L2146.66 1756.21C2149.05 1774.07 2164.8 1786.7 2181.85 1784.42L2549.69 1735.18C2566.73 1732.9 2578.61 1716.57 2576.22 1698.71L2527.38 1333.83C2524.98 1315.97 2509.23 1303.34 2492.19 1305.62Z" fill="#2BAAE2"/>
<path fill-rule="evenodd" clip-rule="evenodd" d="M2429.29 1400.9C2427.43 1387 2415.23 1377.17 2402.03 1378.94C2388.83 1380.7 2379.64 1393.4 2381.5 1407.3C2383.36 1421.2 2395.57 1431.03 2408.77 1429.26C2421.96 1427.5 2431.15 1414.8 2429.29 1400.9Z" stroke="white" stroke-width="10.55" stroke-linecap="round" stroke-linejoin="round"/>
<path fill-rule="evenodd" clip-rule="evenodd" d="M2481.37 1638.14C2479.53 1624.4 2467.61 1614.65 2454.74 1616.37C2441.88 1618.1 2432.94 1630.63 2434.78 1644.37C2436.62 1658.12 2448.54 1667.86 2461.4 1666.14C2474.27 1664.42 2483.21 1651.88 2481.37 1638.14Z" stroke="white" stroke-width="10.55" stroke-linecap="round" stroke-linejoin="round"/>
<path fill-rule="evenodd" clip-rule="evenodd" d="M2231.45 1651.59C2229.62 1637.91 2217.61 1628.24 2204.63 1629.98C2191.65 1631.71 2182.6 1644.21 2184.43 1657.88C2186.26 1671.55 2198.27 1681.23 2211.26 1679.49C2224.24 1677.75 2233.28 1665.26 2231.45 1651.59Z" stroke="white" stroke-width="10.55" stroke-linecap="round" stroke-linejoin="round"/>
<path d="M2426.4 1420.84C2426.4 1420.84 2475.13 1448.43 2489.3 1512.29C2503.47 1576.15 2474.16 1621.58 2474.16 1621.58" stroke="white" stroke-width="10.55" stroke-linecap="round" stroke-linejoin="round"/>
<path d="M2228.41 1670.97C2228.41 1670.97 2276.6 1705.29 2329.33 1702.8C2382.06 1700.31 2439.34 1661.01 2439.34 1661.01" stroke="white" stroke-width="10.55" stroke-linecap="round" stroke-linejoin="round"/>
<path fill-rule="evenodd" clip-rule="evenodd" d="M1783.4 2159.61C1766.56 2139.09 1748.72 2119.55 1748.72 2119.55H1385.47C1367.06 2119.55 1352.14 2143.19 1352.14 2172.35V2767.98C1352.14 2797.13 1367.06 2820.77 1385.47 2820.77H1782.77C1801.17 2820.77 1816.1 2797.13 1816.1 2767.98V2201.62C1816.1 2201.62 1800.25 2180.13 1783.4 2159.61Z" fill="#2BAAE2"/>
<path fill-rule="evenodd" clip-rule="evenodd" d="M1816.24 2200.2L1749.51 2207.98C1741.61 2208.9 1736.15 2203.27 1737.32 2195.39L1748.6 2119.47L1816.24 2200.2Z" fill="#4CC8ED"/>
<path fill-rule="evenodd" clip-rule="evenodd" d="M1725.57 2278.03H1424.97C1420.03 2278.03 1416.03 2282.03 1416.03 2286.96C1416.03 2291.9 1420.03 2295.9 1424.97 2295.9H1725.57C1730.5 2295.9 1734.5 2291.9 1734.5 2286.96C1734.5 2282.03 1730.5 2278.03 1725.57 2278.03Z" fill="white"/>
<path fill-rule="evenodd" clip-rule="evenodd" d="M1721.79 2350.35H1583.02H1421.19C1416.26 2350.35 1412.26 2354.35 1412.26 2359.29C1412.26 2364.22 1416.26 2368.22 1421.19 2368.22H1721.79C1726.73 2368.22 1730.73 2364.22 1730.73 2359.29C1730.73 2354.35 1726.73 2350.35 1721.79 2350.35Z" fill="white"/>
<path fill-rule="evenodd" clip-rule="evenodd" d="M1722.55 2421.43H1421.95C1417.02 2421.43 1413.02 2425.44 1413.02 2430.37C1413.02 2435.3 1417.02 2439.3 1421.95 2439.3H1722.55C1727.49 2439.3 1731.49 2435.3 1731.49 2430.37C1731.49 2425.44 1727.49 2421.43 1722.55 2421.43Z" fill="white"/>
<path fill-rule="evenodd" clip-rule="evenodd" d="M1723.55 2496.23H1422.95C1418.01 2496.23 1414.01 2500.23 1414.01 2505.16C1414.01 2510.1 1418.01 2514.1 1422.95 2514.1H1723.55C1728.48 2514.1 1732.48 2510.1 1732.48 2505.16C1732.48 2500.23 1728.48 2496.23 1723.55 2496.23Z" fill="white"/>
<path fill-rule="evenodd" clip-rule="evenodd" d="M1720.35 2571.32H1419.75C1414.82 2571.32 1410.82 2575.32 1410.82 2580.25C1410.82 2585.19 1414.82 2589.19 1419.75 2589.19H1720.35C1725.29 2589.19 1729.29 2585.19 1729.29 2580.25C1729.29 2575.32 1725.29 2571.32 1720.35 2571.32Z" fill="white"/>
<path fill-rule="evenodd" clip-rule="evenodd" d="M1719.84 2646.57H1419.24C1414.3 2646.57 1410.3 2650.57 1410.3 2655.5C1410.3 2660.44 1414.3 2664.44 1419.24 2664.44H1719.84C1724.77 2664.44 1728.77 2660.44 1728.77 2655.5C1728.77 2650.57 1724.77 2646.57 1719.84 2646.57Z" fill="white"/>
<path d="M4362.39 1621.84C4362.55 1655.89 4363.85 1941.47 4363.85 1941.47L4358.23 2249.47" stroke="#0081C3" stroke-width="20.06" stroke-linecap="round" stroke-linejoin="round"/>
<path fill-rule="evenodd" clip-rule="evenodd" d="M4292.32 1652.25L4361.98 1531.58L4432.74 1651.61L4292.32 1652.25Z" fill="#0081C3"/>
<path d="M3787.37 1619.65C3787.21 1653.7 3785.91 1939.28 3785.91 1939.28L4029.12 1941.29L4032.23 2251.3" stroke="#0081C3" stroke-width="20.06" stroke-linecap="round" stroke-linejoin="round"/>
<path fill-rule="evenodd" clip-rule="evenodd" d="M3717.02 1649.42L3787.78 1529.38L3857.44 1650.06L3717.02 1649.42Z" fill="#0081C3"/>
<path d="M4933.83 1625.13C4933.99 1659.18 4935.29 1944.76 4935.29 1944.76L4692.08 1946.77L4688.96 2256.79" stroke="#0081C3" stroke-width="20.06" stroke-linecap="round" stroke-linejoin="round"/>
<path fill-rule="evenodd" clip-rule="evenodd" d="M4863.76 1655.54L4933.42 1534.86L5004.18 1654.9L4863.76 1655.54Z" fill="#0081C3"/>
<path fill-rule="evenodd" clip-rule="evenodd" d="M7411.63 4854.57C7411.63 4854.57 7401.34 4749.33 7429.66 4719.34C7457.99 4689.36 7495.23 4753.93 7513.93 4715.82C7532.64 4677.71 7486.26 4643.23 7521.31 4588.96C7548.03 4547.6 7592.24 4614.55 7619.83 4577.76C7647.41 4540.96 7599.48 4480.51 7622.39 4429.73C7645.3 4378.95 7694.71 4402.22 7711.45 4374.63C7728.55 4346.47 7679.55 4308.65 7725.75 4274.55C7776.07 4237.4 7782.74 4303.77 7823.99 4292.87C7855 4284.68 7880.05 4205.61 7932.64 4251.52C7976.79 4290.05 7935.28 4347.8 7935.25 4392.23C7935.21 4448.1 7975.29 4449.45 7947.26 4507.25C7928.24 4546.49 7879.23 4512.07 7857.41 4548.13C7835.59 4584.19 7894.91 4610.42 7859.99 4651.48C7825.07 4692.55 7754.81 4669.97 7733.45 4700.24C7712.08 4730.51 7757.12 4800.59 7725.76 4837.8C7694.39 4875.01 7642.18 4840 7604.95 4871.74C7567.73 4903.47 7622.1 4959.39 7584.63 4990.93C7547.15 5022.47 7442.37 4987.41 7442.37 4987.41L7411.63 4854.57Z" fill="#0081C3"/>
<path fill-rule="evenodd" clip-rule="evenodd" d="M7250.96 4888.5C7250.96 4888.5 7169.14 4777.38 7184.41 4723.13C7199.68 4668.87 7257.25 4707.41 7255.31 4650.96C7253.36 4594.51 7194.08 4594.63 7211.9 4509.99C7229.37 4426.98 7275.82 4472.85 7285.7 4411.46C7295.58 4350.07 7245.53 4348.35 7240.46 4274.59C7235.38 4200.82 7305.53 4200.85 7311.9 4158.15C7317.78 4118.75 7236.96 4099.95 7271.57 4028.13C7309.29 3949.9 7347.26 3999.71 7391.01 3957.61C7423.9 3925.96 7466.87 3837.8 7535.44 3848.8C7604.87 3859.93 7564.44 3939.01 7593.57 3989.07C7630.21 4052.04 7680.57 4024.58 7683.94 4109.95C7686.22 4167.91 7625.98 4167.04 7626.17 4212.53C7626.36 4258.02 7687.07 4264.02 7670.94 4335.53C7654.81 4407.03 7582.98 4423.67 7575.33 4476.87C7568.22 4526.3 7641.9 4577.86 7627.63 4642.46C7613.36 4707.06 7552.13 4712.42 7527.03 4775.08C7501.94 4837.75 7579.55 4854.37 7554.01 4917C7528.46 4979.63 7376.12 5015.9 7376.12 5015.9L7250.96 4888.5Z" fill="#2BAAE2"/>
<path fill-rule="evenodd" clip-rule="evenodd" d="M7279.75 4999.31C7279.75 4999.31 7152.17 4963.16 7129.17 4915.41C7106.17 4867.65 7173.23 4847.55 7138.11 4809.98C7102.99 4772.4 7065.57 4814.65 7018.42 4749.88C6982.49 4700.53 7051.42 4663.57 7020.76 4614.56C6990.09 4565.56 6926.96 4609.61 6879.48 4562.24C6831.99 4514.86 6874.13 4456.5 6849.8 4425.01C6824.96 4392.87 6767.12 4445.87 6745.72 4372.88C6722.4 4293.36 6796.91 4306.35 6799.09 4247.62C6800.72 4203.47 6723.17 4143.9 6791.04 4088.75C6848 4042.47 6896.74 4117 6945.09 4131.7C7005.9 4150.19 7021.01 4097.06 7074.39 4153.6C7110.63 4191.98 7056.49 4246.13 7088.32 4287.19C7120.15 4328.25 7168.88 4257.63 7201.7 4317.85C7234.53 4378.07 7203.33 4452.1 7229.01 4490.64C7254.69 4529.17 7329.01 4504.54 7358.85 4558.75C7388.69 4612.95 7346.88 4663.12 7368.77 4723.34C7390.65 4783.57 7455.94 4737.41 7477.53 4797.91C7499.11 4858.41 7424.03 5001.4 7424.03 5001.4L7279.75 4999.31Z" fill="#0081C3"/>
<path fill-rule="evenodd" clip-rule="evenodd" d="M7555.97 5073.31L7493.79 5538.86L7242.8 5536.79L7200.68 5069.35L7555.97 5073.31Z" fill="#135EAB"/>
<path fill-rule="evenodd" clip-rule="evenodd" d="M7553.48 5090.67L7201.92 5085.42L7207.45 5129.66L7548.09 5131.3L7553.48 5090.67Z" fill="#2E3690"/>
<path fill-rule="evenodd" clip-rule="evenodd" d="M7629.48 4990.58L7118.77 4981.2L7130.31 5088.7L7622.48 5094.61L7629.48 4990.58Z" fill="#135EAB"/>
<path fill-rule="evenodd" clip-rule="evenodd" d="M4528.19 514.227C4382.79 494.45 4205.5 573.158 4133.43 706.275C4084.72 676.546 3983.31 617.918 3878.85 651.667C3795.43 678.62 3709.5 765.321 3724.65 866.586C3596.43 917.073 3491.42 1020.52 3491.42 1149.04C3491.43 1316.26 3659.43 1389.69 3828.05 1402.14C3969.92 1413.26 4172.32 1414.83 4376.68 1414.83C4608.3 1414.83 4989.89 1413.71 4989.89 1413.71C5146.13 1396.5 5216.95 1188.7 5178.96 1044.29C5140.98 899.895 4902.34 806.386 4837.96 836.108C4828.39 605.208 4665.63 532.921 4528.19 514.227Z" fill="#2BAAE2"/>
<path fill-rule="evenodd" clip-rule="evenodd" d="M4637.26 1186.24L4641.37 869.605C4641.46 862.479 4635.9 856.62 4628.94 856.52L4470.87 854.23C4463.91 854.129 4455.99 859.33 4453.17 865.845L4438.49 899.793C4435.67 906.309 4427.75 911.636 4420.79 911.691L4104.35 914.215C4097.4 914.27 4091.74 920.093 4091.71 927.22L4090.74 1190.47C4090.72 1197.59 4094.24 1207.86 4098.61 1213.41L4099.47 1214.5C4103.84 1220.04 4113.02 1224.49 4119.98 1224.44L4600.6 1221.1C4607.56 1221.05 4617.4 1217.16 4622.59 1212.41L4627.7 1207.74C4632.88 1202.99 4637.17 1193.37 4637.26 1186.24Z" fill="#272361"/>
<path fill-rule="evenodd" clip-rule="evenodd" d="M4605.94 935.94H4115.94C4109.93 935.94 4105.05 940.632 4105.05 946.42V1192.45C4105.05 1198.24 4109.93 1202.93 4115.94 1202.93H4605.94C4611.95 1202.93 4616.83 1198.24 4616.83 1192.45V946.42C4616.83 940.632 4611.95 935.94 4605.94 935.94Z" fill="#E0E0E0"/>
<path fill-rule="evenodd" clip-rule="evenodd" d="M4599.22 936.5H4109.22C4103.21 936.5 4098.33 941.192 4098.33 946.98V1193.01C4098.33 1198.8 4103.21 1203.49 4109.22 1203.49H4599.22C4605.23 1203.49 4610.11 1198.8 4610.11 1193.01V946.98C4610.11 941.192 4605.23 936.5 4599.22 936.5Z" fill="white"/>
<path fill-rule="evenodd" clip-rule="evenodd" d="M4596.01 935.889H4106.02C4100 935.889 4095.13 940.581 4095.13 946.369V1192.4C4095.13 1198.18 4100 1202.88 4106.02 1202.88H4596.01C4602.03 1202.88 4606.9 1198.18 4606.9 1192.4V946.369C4606.9 940.581 4602.03 935.889 4596.01 935.889Z" fill="#E0E0E0"/>
<path fill-rule="evenodd" clip-rule="evenodd" d="M4592.7 935.491H4102.71C4096.69 935.491 4091.82 940.183 4091.82 945.97V1192C4091.82 1197.79 4096.69 1202.48 4102.71 1202.48H4592.7C4598.72 1202.48 4603.59 1197.79 4603.59 1192V945.97C4603.59 940.183 4598.72 935.491 4592.7 935.491Z" fill="white"/>
<path fill-rule="evenodd" clip-rule="evenodd" d="M4553.88 1134.33L4554.98 976.951C4555.07 964.175 4544.34 953.906 4531.01 954.013L4115.33 957.372C4102 957.48 4091.12 967.924 4091.02 980.699L4089.3 1201.86C4089.2 1214.64 4099.92 1224.91 4113.25 1224.8L4598.55 1221.1C4598.55 1221.1 4582.99 1211.77 4567.22 1190.16C4551.45 1168.54 4553.88 1134.33 4553.88 1134.33Z" fill="#2E3690"/>
<path fill-rule="evenodd" clip-rule="evenodd" d="M4620.07 873.01H4480.01C4477.92 873.01 4476.23 874.988 4476.23 877.428C4476.23 879.867 4477.92 881.845 4480.01 881.845H4620.07C4622.16 881.845 4623.85 879.867 4623.85 877.428C4623.85 874.988 4622.16 873.01 4620.07 873.01Z" fill="white"/>
<path fill-rule="evenodd" clip-rule="evenodd" d="M4619.77 891.066H4503.89C4501.56 891.066 4499.66 893.034 4499.66 895.46C4499.66 897.887 4501.56 899.854 4503.89 899.854H4619.77C4622.11 899.854 4624 897.887 4624 895.46C4624 893.034 4622.11 891.066 4619.77 891.066Z" fill="white"/>
<path fill-rule="evenodd" clip-rule="evenodd" d="M984.84 5044.13L963.61 5526.62L952.24 5526.1L950.65 5045.87L984.84 5044.13Z" fill="#828282"/>
<path fill-rule="evenodd" clip-rule="evenodd" d="M678.01 5051.08L670.621 5525.59L657.181 5526.62L637.19 5051.92L678.01 5051.08Z" fill="#828282"/>
<path fill-rule="evenodd" clip-rule="evenodd" d="M924.541 5039.28L909.351 5494.58L899.53 5495.1L885.411 5039.42L924.541 5039.28Z" fill="#828282"/>
<path fill-rule="evenodd" clip-rule="evenodd" d="M606.371 5057.75L604.47 5498.72L592.59 5498.2L573.891 5054.42L606.371 5057.75Z" fill="#828282"/>
<path fill-rule="evenodd" clip-rule="evenodd" d="M576.77 4235.25C576.77 4235.25 726.391 4425.6 771.681 4583.3C816.971 4740.99 758.78 4821.68 758.78 4821.68C758.78 4821.68 982.48 4797.45 1053.23 4938.87C1123.97 5080.3 950.07 5046.22 786.85 5044.85C618.49 5043.43 527.07 5124.87 458.78 4970.73C417.85 4878.34 456.07 4780.27 450.03 4665.19C444.29 4555.7 362.471 4379.35 390.371 4293.26C447.611 4116.69 576.77 4235.25 576.77 4235.25Z" fill="#828282"/>
<path opacity="0.38326" fill-rule="evenodd" clip-rule="evenodd" d="M1033.5 4746.07C1030.25 4762.53 987.44 5598.59 987.44 5598.59H1083.01L1338.6 4741.02C1338.6 4741.02 1036.75 4729.61 1033.5 4746.07Z" stroke="#E0E0E0" stroke-width="30.35" stroke-linecap="round" stroke-linejoin="round"/>
<path fill-rule="evenodd" clip-rule="evenodd" d="M679.541 4070.51C694.951 4090.51 676.89 4064.51 692.45 4034.79C701.92 4016.72 681.511 3961.99 695.461 3940.55C709.421 3919.11 722.571 3943.56 722.571 3943.56C722.571 3943.56 807.601 3938.81 799.601 3953.03C791.601 3967.25 831.02 3973.34 838.76 3970.24C839.83 3969.81 856.901 3969.97 862.861 3986.59C870.231 4007.16 880.291 4014.21 881.101 4011.91C882.031 4009.24 879.741 3979.26 878.021 3959.13C876.311 3938.99 870.431 3925.14 870.431 3925.14C870.431 3925.14 869.621 3911.05 850.591 3896.3C831.561 3881.55 797.911 3889.5 797.911 3889.5C797.911 3889.5 798.251 3881.5 760.811 3893.12C742.961 3898.66 730.961 3887.96 730.961 3887.96C730.961 3887.96 675.811 3920.97 667.081 3929.53C647.821 3948.42 632.491 3980.86 611.881 4027.44C581.501 4096.07 623.011 4108.3 599.731 4190.95C564.291 4316.82 519.271 4248.54 512.841 4297.94C506.421 4347.33 527.71 4411.16 574.99 4372.05C578.79 4368.9 631.77 4347.47 637.03 4344.28C668.98 4324.9 860.041 4396.76 930.401 4369.03C972.621 4352.4 900.951 4306.52 917.481 4220.01C935.201 4127.34 869.881 4082.06 882.171 4020.03C887.361 3993.82 653.531 4073.99 653.821 4061.3C654.061 4050.64 673.771 4063.02 679.541 4070.51Z" fill="#272361"/>
<path fill-rule="evenodd" clip-rule="evenodd" d="M721.851 4098.73C721.851 4098.73 730.891 4143.39 730.891 4179.34C730.891 4215.3 722.001 4233.44 722.001 4233.44C722.001 4233.44 714.23 4256.06 673.78 4267.4C668.7 4268.83 662.121 4273.18 656.461 4276.27C650.811 4279.36 637.47 4458.02 797.78 4469.33C949.21 4480.01 964.45 4289.19 951.01 4285.05C936.03 4280.44 879.331 4265.9 873.161 4263.39C853.971 4255.59 838.201 4245.9 835.731 4242.52C824.651 4227.33 828.641 4207.77 827.661 4188.83C825.111 4139.96 844.181 4102.42 844.181 4102.42L721.851 4098.73Z" fill="#FDBC8C"/>
<path fill-rule="evenodd" clip-rule="evenodd" d="M721.851 4098.73C721.851 4098.73 730.891 4143.39 730.891 4179.34C730.891 4215.3 722 4233.57 722 4233.57C722 4233.57 753.91 4209.79 780.49 4199.78C807.07 4189.77 827.771 4175.17 827.771 4175.17C827.771 4175.17 827.75 4160.12 828.78 4150.21C833.11 4108.3 844.181 4102.42 844.181 4102.42L721.851 4098.73Z" fill="#DFA58B"/>
<path fill-rule="evenodd" clip-rule="evenodd" d="M668.47 3953.31C646.86 3984.24 674.27 4029.22 678.95 4063.8C680.73 4076.94 656.56 4040.94 652.53 4064.99C650.38 4077.83 670.68 4121.15 683.97 4108.52C697.26 4095.88 708.201 4126.42 722.771 4140.6C747.171 4164.34 768.28 4185.38 808.2 4181.63C839.27 4178.71 854.631 4153.23 869.561 4124.11C886.991 4090.1 883.121 4052.99 880.061 4021.03C876.751 3986.5 867.96 3959.55 849.95 3941.11C835.12 3925.92 813.57 3917 787.76 3909.97C730.6 3894.39 698.29 3910.64 668.47 3953.31Z" fill="#FDBC8C"/>
<path fill-rule="evenodd" clip-rule="evenodd" d="M741.53 4061.92C730.27 4060.99 722.01 4056.63 723.06 4052.18C724.12 4047.74 734.1 4044.89 745.35 4045.82C756.6 4046.75 764.87 4051.11 763.81 4055.56C762.76 4060.01 752.78 4062.86 741.53 4061.92Z" fill="#272361"/>
<path fill-rule="evenodd" clip-rule="evenodd" d="M846.26 4052.33C835.72 4054.57 826.19 4052.97 824.96 4048.78C823.73 4044.58 831.271 4039.36 841.811 4037.12C852.341 4034.88 861.88 4036.47 863.11 4040.67C864.34 4044.87 856.79 4050.09 846.26 4052.33Z" fill="#272361"/>
<path fill-rule="evenodd" clip-rule="evenodd" d="M763.19 4118.25C762.29 4112.05 783.411 4120.92 800.271 4120.72C817.121 4120.51 831.61 4114.72 832.51 4120.93C833.41 4127.13 817.8 4142.39 800.95 4142.6C784.09 4142.81 764.09 4124.45 763.19 4118.25Z" fill="#E0E0E0"/>
<path fill-rule="evenodd" clip-rule="evenodd" d="M717.17 4014.92L751.29 4008.89C757.5 4007.8 763.46 4008.93 764.59 4011.41C765.73 4013.9 761.61 4016.81 755.4 4017.91L721.28 4023.93C715.07 4025.03 709.11 4023.9 707.98 4021.41C706.84 4018.92 710.96 4016.01 717.17 4014.92Z" fill="#272361"/>
<path fill-rule="evenodd" clip-rule="evenodd" d="M679.54 4070.51C694.95 4090.51 670.89 4064.58 686.46 4034.87C695.92 4016.79 696.721 4024.01 710.681 4002.57C724.641 3981.12 729.86 3959.84 729.86 3959.84C729.86 3959.84 769.9 3950.08 795.47 3971.28C821.81 3993.11 844.59 3972.29 860.07 3994.16C875.54 4016.02 882.98 4026.62 882.98 4026.62C882.98 4026.62 895.22 3997.31 902.25 3963.79C907.46 3938.9 904.48 3913.82 875.05 3884.72C845.1 3855.11 783.1 3864.39 783.1 3864.39C783.1 3864.39 803.27 3838.59 804.04 3807.61C804.88 3774.14 779.41 3725.24 727.09 3737.31C670.59 3750.35 672.81 3800.3 680.64 3824.8C690.17 3854.6 713.84 3875.33 713.84 3875.33C713.84 3875.33 661.47 3878.71 619.55 3915.49C577.63 3952.27 540.31 3999.37 546.2 4098.95C551.66 4191.22 378.55 4180.7 355.28 4263.35C319.84 4389.23 467.42 4446.83 519.77 4500.6C613.13 4596.5 525.37 4410.37 596.14 4367.45C604.3 4362.5 609.87 4294.54 616.27 4289.43C649.95 4262.5 638.24 4255.72 660.94 4215.68C687.95 4168.05 626.08 4106.81 638.37 4044.79C643.56 4018.58 653.53 4073.99 653.82 4061.3C654.06 4050.64 673.77 4063.02 679.54 4070.51Z" fill="#2E3690"/>
<path fill-rule="evenodd" clip-rule="evenodd" d="M824.39 4001.92L853.26 4003.51C858.51 4003.8 862.58 4005.83 862.33 4008.04C862.09 4010.25 857.63 4011.81 852.38 4011.52L823.51 4009.93C818.25 4009.64 814.19 4007.61 814.43 4005.4C814.68 4003.19 819.13 4001.63 824.39 4001.92Z" fill="#272361"/>
<path fill-rule="evenodd" clip-rule="evenodd" d="M1097.35 5402.41L1115.38 5493.01L1146.48 5491.71L1146.04 5381.69L1097.35 5402.41Z" fill="#FDBC8C"/>
<path fill-rule="evenodd" clip-rule="evenodd" d="M1097.35 5402.41L1115.38 5493.01L1146.48 5491.71L1146.04 5381.69L1097.35 5402.41Z" fill="#FDBC8C"/>
<path fill-rule="evenodd" clip-rule="evenodd" d="M1382.49 5383.25L1400.52 5473.85L1431.62 5472.54L1431.17 5362.53L1382.49 5383.25Z" fill="#FDBC8C"/>
<path fill-rule="evenodd" clip-rule="evenodd" d="M1372.98 5303.9L1377.45 5380.39L1406.59 5379.06L1407.67 5296.78L1372.98 5303.9Z" fill="#FDBC8C"/>
<path fill-rule="evenodd" clip-rule="evenodd" d="M1104.45 5477.87C1104.45 5477.87 1078.89 5515.5 1098.23 5546.11L1160.17 5551.64C1160.17 5551.64 1239.05 5566.77 1260.03 5559.13C1281.01 5551.5 1243.73 5528.04 1243.73 5528.04L1187.69 5497.05L1155.25 5476.4L1104.45 5477.87Z" fill="#272361"/>
<path fill-rule="evenodd" clip-rule="evenodd" d="M1384.5 5446.88C1384.5 5446.88 1357.27 5483.31 1375.2 5514.76L1436.82 5523.09C1436.82 5523.09 1514.94 5541.77 1536.24 5535.09C1557.55 5528.41 1521.37 5503.29 1521.37 5503.29L1466.79 5469.8L1435.32 5447.7L1384.5 5446.88Z" fill="#272361"/>
<path fill-rule="evenodd" clip-rule="evenodd" d="M1078.19 4509.46C1078.53 4520.86 1050.21 4531.97 1016.59 4547.14C984.81 4561.47 968.74 4558.96 968.74 4558.96L1020.12 4476.91C1020.12 4476.91 1077.6 4489.15 1078.19 4509.46Z" fill="#1172BA"/>
<path fill-rule="evenodd" clip-rule="evenodd" d="M2820.99 5484.61L2528.72 4637.91L2820.99 5484.61Z" fill="#1172BA"/>
<path fill-rule="evenodd" clip-rule="evenodd" d="M1212.92 4654.77C1212.2 4656.2 1170.03 4646.48 1126.37 4644.75C1082.71 4643.02 1053.14 4644.04 1043.47 4643.9C1030.01 4643.7 1038 4625.89 1040.72 4612.92C1048.57 4575.48 1047.54 4541.71 1044.27 4497.24C1044.27 4497.24 1029.05 4501.01 1013.84 4492.8C998.63 4484.6 1002.93 4499.19 985.55 4490.6C968.16 4482 979.421 4568.6 976.581 4616.43C974.771 4646.84 976.69 4681.57 998.55 4686.2C1014.19 4689.51 1066.43 4692 1113.58 4690.36C1165.88 4688.55 1212.69 4682.41 1212.69 4682.41C1212.69 4682.41 1244.17 4701.32 1268.58 4704.02C1292.98 4706.71 1307.36 4709.69 1307.93 4705.24C1308.79 4698.38 1272.99 4692.53 1271.35 4689.5C1269.84 4686.73 1312.55 4695.27 1313.46 4687.17C1314.36 4679.06 1272 4678.79 1271.59 4675.92C1271.07 4672.22 1309.58 4677.92 1309.94 4669.48C1310.16 4664.15 1270.17 4663.24 1270.17 4663.24C1270.17 4663.24 1305.7 4657.15 1305.26 4653.24C1304.51 4646.78 1262.76 4652.76 1260.12 4651.72C1255.56 4649.92 1250.42 4649.81 1249.92 4646.45C1249.32 4642.37 1269.63 4637.97 1269.26 4634.42C1268.66 4628.65 1253.68 4632.4 1239.6 4637.49C1225.51 4642.58 1215.77 4649.19 1212.92 4654.77Z" fill="#FDBC8C"/>
<path fill-rule="evenodd" clip-rule="evenodd" d="M670.92 4268.61C670.92 4268.61 692.94 4382.14 800.84 4383.77C939.74 4385.87 905.88 4273.24 905.88 4273.24C905.88 4273.24 1008.2 4280.07 1020.91 4331.13C1026.7 4354.37 1042.35 4395.1 1056.36 4424.15C1073.95 4460.63 1077.1 4488.87 1078.24 4509.87C1078.24 4509.87 1049.65 4509.45 1035.31 4523.11C1014.41 4543.01 978.81 4540.85 970.21 4557.62C964.86 4568.05 966.95 4513.87 966.95 4513.87C966.95 4513.87 952.49 4680.8 898.67 4728.42C869.78 4753.97 751.14 4756.97 721.47 4726.75C684.06 4688.64 656.361 4630.63 640.811 4570.52C625.261 4510.41 641.57 4526.42 639.63 4525.17C637.46 4523.78 633.14 4550.44 620.8 4550.09C572.3 4548.71 472.54 4551.91 472 4509.93C471.16 4443.96 502.621 4433.32 518.411 4366.26C535.041 4295.62 593.15 4289.98 634.63 4278.85C660.06 4272.02 670.92 4268.61 670.92 4268.61Z" fill="#4CC8ED"/>
<path fill-rule="evenodd" clip-rule="evenodd" d="M725.82 4665.66C725.26 4667.16 682.27 4662.2 638.69 4665.35C595.11 4668.49 565.83 4672.8 556.21 4673.74C542.82 4675.05 548.771 4656.46 550.021 4643.26C553.651 4605.18 565.55 4592.88 568.15 4548.41C568.15 4548.41 547.07 4547.54 529.8 4545.36C512.53 4543.19 496.911 4536.86 496.911 4536.86C485.071 4561.26 494.811 4606.69 493.311 4654.06C492.351 4684.52 494.051 4718.63 516.291 4720.79C532.201 4722.34 584.39 4718.98 631.07 4712.1C682.84 4704.47 728.67 4693.14 728.67 4693.14C728.67 4693.14 762.061 4708.43 786.621 4708.39C811.171 4708.35 825.79 4709.7 825.86 4705.22C825.96 4698.31 789.72 4696.48 787.75 4693.66C785.95 4691.08 829.34 4694.8 829.34 4686.65C829.34 4678.49 787.21 4682.94 786.48 4680.13C785.55 4676.52 824.461 4677.89 823.871 4669.46C823.501 4664.14 783.65 4667.69 783.65 4667.69C783.65 4667.69 818.291 4657.68 817.411 4653.85C815.951 4647.51 775.13 4658.11 772.38 4657.36C767.65 4656.09 762.531 4656.55 761.661 4653.27C760.601 4649.28 780.301 4642.64 779.541 4639.15C778.301 4633.49 763.831 4638.88 750.411 4645.51C736.981 4652.14 728.03 4659.79 725.82 4665.66Z" fill="#FDBC8C"/>
<path fill-rule="evenodd" clip-rule="evenodd" d="M644.26 4394.58C644.26 4394.58 627.38 4437.48 623.15 4478.45C618.92 4519.42 636.51 4554.83 636.51 4554.83L655.59 4620.01C655.59 4620.01 663.66 4547.63 658.73 4509.14C653.01 4464.52 644.26 4394.58 644.26 4394.58Z" fill="#2BAAE2"/>
<path fill-rule="evenodd" clip-rule="evenodd" d="M700.65 4736.17L877.92 4752.56C877.92 4752.56 1345.45 4861.71 1398.92 4928.39C1433.45 4971.44 1444.31 5024.46 1461.49 5138.43C1478.66 5252.41 1443.17 5403.63 1443.17 5403.63L1380.17 5401.63C1380.17 5401.63 1344.21 5291.04 1327.27 5184.41C1310.13 5076.53 1289.95 5057.15 1250.96 5034.81C1178.86 4993.49 916.791 4914.46 916.791 4914.46L700.65 4736.17Z" fill="#272361"/>
<path fill-rule="evenodd" clip-rule="evenodd" d="M922.751 4756.87L716.411 4758.79C716.411 4758.79 633.891 4846.23 660.271 4910.82C706.821 5024.78 781.78 4995.88 897.57 4997.29C1008.3 4998.64 1117.09 4993.99 1117.09 4993.99C1117.09 4993.99 1090.02 5062.82 1078.04 5166.02C1066.06 5269.23 1093.68 5424.8 1093.68 5424.8L1160.25 5419.63C1160.25 5419.63 1304.53 4997.39 1270.53 4922.39C1249.04 4874.99 1113.56 4846 1024.1 4816.38C965.191 4796.88 922.751 4756.87 922.751 4756.87Z" fill="#2E3690"/>
<path fill-rule="evenodd" clip-rule="evenodd" d="M2117.62 4670.81C2120.87 4687.27 2163.68 5523.33 2163.68 5523.33H2068.11L1812.52 4665.76C1812.52 4665.76 2114.37 4654.35 2117.62 4670.81Z" stroke="#E0E0E0" stroke-width="30.35" stroke-linecap="round" stroke-linejoin="round"/>
<path opacity="0.370044" fill-rule="evenodd" clip-rule="evenodd" d="M1958.57 4657.59C1961.82 4674.05 2004.62 5510.11 2004.62 5510.11H1909.05L1653.47 4652.54C1653.47 4652.54 1955.32 4641.13 1958.57 4657.59Z" stroke="#E0E0E0" stroke-width="30.35" stroke-linecap="round" stroke-linejoin="round"/>
<path fill-rule="evenodd" clip-rule="evenodd" d="M816.161 4660.25C812.911 4676.71 770.101 5512.77 770.101 5512.77H865.67L1121.26 4655.19C1121.26 4655.19 819.411 4643.79 816.161 4660.25Z" stroke="#E0E0E0" stroke-width="30.35" stroke-linecap="round" stroke-linejoin="round"/>
<path fill-rule="evenodd" clip-rule="evenodd" d="M2324.37 4628.43H649.28C632.15 4628.43 618.26 4640.57 618.26 4655.55C618.26 4670.53 632.15 4682.67 649.28 4682.67H2324.37C2341.51 4682.67 2355.39 4670.53 2355.39 4655.55C2355.39 4640.57 2341.51 4628.43 2324.37 4628.43Z" fill="#E0E0E0"/>
<path fill-rule="evenodd" clip-rule="evenodd" d="M1804.12 4592.42H1087.24C1072.98 4592.42 1061.43 4600.7 1061.43 4610.91C1061.43 4621.12 1072.98 4629.4 1087.24 4629.4H1413.18H1804.12C1818.38 4629.4 1829.93 4621.12 1829.93 4610.91C1829.93 4600.7 1818.38 4592.42 1804.12 4592.42Z" fill="#828282"/>
<path fill-rule="evenodd" clip-rule="evenodd" d="M1907.3 4313.55L1504.9 4311.18C1495.77 4311.12 1485.98 4318.09 1483.05 4326.74L1392.79 4592.8C1389.85 4601.45 1394.88 4608.46 1404.01 4608.46H1812.79C1821.93 4608.46 1831.59 4601.41 1834.38 4592.71L1918.79 4329.4C1921.57 4320.7 1916.43 4313.6 1907.3 4313.55Z" fill="#828282"/>
<path fill-rule="evenodd" clip-rule="evenodd" d="M1888.89 4324.25L1515.94 4322.05C1507.47 4322 1498.4 4328.46 1495.68 4336.48L1412.03 4583.07C1409.31 4591.09 1413.96 4597.59 1422.43 4597.59H1801.3C1809.77 4597.59 1818.73 4591.05 1821.31 4582.99L1899.54 4338.94C1902.13 4330.88 1897.36 4324.3 1888.89 4324.25Z" fill="#0081C3"/>
<path fill-rule="evenodd" clip-rule="evenodd" d="M1477.62 4386.91C1477.62 4386.91 1696.33 3763.24 1758.43 3610.5C1825.41 3445.78 2115.44 3050.03 2487.16 3225.82C2971.51 3454.87 2997.37 3395.04 3086.68 3154.74L3093.95 3412.92L3749.56 3317.98C3742.03 3490.01 3939.76 3695.7 3727.66 3850.32C3515.55 4004.93 3231.84 3903.22 2874.67 3936.55C2517.51 3969.89 2642.05 4151.34 2354.41 4151.34C1901.33 4151.34 1932.08 4294.41 1876.78 4408.02L1477.62 4386.91Z" fill="url(#paint0_linear)"/>
<path fill-rule="evenodd" clip-rule="evenodd" d="M3483.1 3556.44L3500.7 3533.92L3601.4 3615.62C3669.78 3680.39 3662.84 3688.86 3585.91 3634.52L3483.1 3556.44Z" fill="#135EAB"/>
<path fill-rule="evenodd" clip-rule="evenodd" d="M3439.71 3520.25L3454.93 3502.79L3500.75 3533.92L3483.37 3557.06L3439.71 3520.25Z" fill="#828282"/>
<path fill-rule="evenodd" clip-rule="evenodd" d="M3378.3 3449.32C3378.3 3449.32 3379.39 3489.91 3398.01 3508.2C3416.62 3526.49 3431.27 3528.37 3447.43 3518.26C3463.58 3508.15 3467.69 3463.26 3437.97 3468.05C3405.69 3473.25 3378.3 3449.32 3378.3 3449.32Z" fill="#272361"/>
<path fill-rule="evenodd" clip-rule="evenodd" d="M2035.75 3923.83C2035.75 3867.3 1976.08 3821.48 1902.47 3821.48C1828.87 3821.48 1740.43 3862.43 1769.06 3937.29C1797.69 4012.15 1857.71 3935.74 1886.55 3954.51C1909.78 3969.63 1850.68 4011.05 1908.27 4011.67C1981.87 4012.48 2035.75 3980.35 2035.75 3923.83Z" fill="#E0E0E0"/>
<path fill-rule="evenodd" clip-rule="evenodd" d="M1887.84 3920.95C1886.31 3911.51 1872.93 3905.84 1857.96 3908.27C1842.99 3910.7 1832.1 3920.32 1833.63 3929.75C1835.16 3939.19 1848.54 3944.87 1863.51 3942.44C1878.48 3940.01 1889.38 3930.39 1887.84 3920.95Z" fill="#0081C3"/>
<path fill-rule="evenodd" clip-rule="evenodd" d="M1948.95 3978.41C1948.95 3968.57 1940.98 3960.6 1931.14 3960.6C1921.31 3960.6 1913.34 3968.57 1913.34 3978.41C1913.34 3988.24 1921.31 3996.21 1931.14 3996.21C1940.98 3996.21 1948.95 3988.24 1948.95 3978.41Z" fill="#4CC8ED"/>
<path fill-rule="evenodd" clip-rule="evenodd" d="M1995.65 3963.85C1995.65 3954.02 1987.68 3946.05 1977.84 3946.05C1968.01 3946.05 1960.04 3954.02 1960.04 3963.85C1960.04 3973.69 1968.01 3981.66 1977.84 3981.66C1987.68 3981.66 1995.65 3973.69 1995.65 3963.85Z" fill="#2BAAE2"/>
<path fill-rule="evenodd" clip-rule="evenodd" d="M2020.7 3915.99C2020.7 3906.16 2012.73 3898.18 2002.9 3898.18C1993.06 3898.18 1985.09 3906.16 1985.09 3915.99C1985.09 3925.82 1993.06 3933.8 2002.9 3933.8C2012.73 3933.8 2020.7 3925.82 2020.7 3915.99Z" fill="#0081C3"/>
<path fill-rule="evenodd" clip-rule="evenodd" d="M1989.87 3869.51C1989.87 3859.67 1981.89 3851.7 1972.06 3851.7C1962.23 3851.7 1954.25 3859.67 1954.25 3869.51C1954.25 3879.34 1962.23 3887.31 1972.06 3887.31C1981.89 3887.31 1989.87 3879.34 1989.87 3869.51Z" fill="#1172BA"/>
<path fill-rule="evenodd" clip-rule="evenodd" d="M1936.59 3848.37C1936.59 3838.54 1928.62 3830.56 1918.79 3830.56C1908.95 3830.56 1900.98 3838.54 1900.98 3848.37C1900.98 3858.2 1908.95 3866.18 1918.79 3866.18C1928.62 3866.18 1936.59 3858.2 1936.59 3848.37Z" fill="#135EAB"/>
<path fill-rule="evenodd" clip-rule="evenodd" d="M1875.87 3854.43C1875.87 3844.59 1867.89 3836.62 1858.06 3836.62C1848.23 3836.62 1840.25 3844.59 1840.25 3854.43C1840.25 3864.26 1848.23 3872.23 1858.06 3872.23C1867.89 3872.23 1875.87 3864.26 1875.87 3854.43Z" fill="#2E3690"/>
<path fill-rule="evenodd" clip-rule="evenodd" d="M1823.7 3879.04C1823.7 3869.2 1815.73 3861.23 1805.9 3861.23C1796.06 3861.23 1788.09 3869.2 1788.09 3879.04C1788.09 3888.87 1796.06 3896.84 1805.9 3896.84C1815.73 3896.84 1823.7 3888.87 1823.7 3879.04Z" fill="#272361"/>
<path fill-rule="evenodd" clip-rule="evenodd" d="M3090.11 3498.19C3090.11 3478.78 3074.22 3463.04 3054.61 3463.04C3035.01 3463.04 3019.11 3478.78 3019.11 3498.19C3019.11 3517.6 3035.01 3533.34 3054.61 3533.34C3074.22 3533.34 3090.11 3517.6 3090.11 3498.19Z" stroke="white" stroke-width="10.55" stroke-linecap="round" stroke-linejoin="round"/>
<path fill-rule="evenodd" clip-rule="evenodd" d="M2723.81 3746.72C2723.81 3727.52 2708.32 3711.96 2689.2 3711.96C2670.09 3711.96 2654.6 3727.52 2654.6 3746.72C2654.6 3765.91 2670.09 3781.47 2689.2 3781.47C2708.32 3781.47 2723.81 3765.91 2723.81 3746.72Z" stroke="white" stroke-width="10.55" stroke-linecap="round" stroke-linejoin="round"/>
<path fill-rule="evenodd" clip-rule="evenodd" d="M2356.43 3719.27C2356.43 3700.17 2340.8 3684.69 2321.51 3684.69C2302.22 3684.69 2286.58 3700.17 2286.58 3719.27C2286.58 3738.37 2302.22 3753.85 2321.51 3753.85C2340.8 3753.85 2356.43 3738.37 2356.43 3719.27Z" stroke="white" stroke-width="10.55" stroke-linecap="round" stroke-linejoin="round"/>
<path d="M2724.95 3739.24C2724.95 3739.24 2909.72 3732.57 2894.89 3630.18C2880.25 3529.04 3020.34 3509.82 3020.34 3509.82" stroke="white" stroke-width="10.55" stroke-linecap="round" stroke-linejoin="round"/>
<path d="M2348.2 3745.3C2348.2 3745.3 2411.83 3801.25 2489.28 3807.52C2566.73 3813.79 2656.91 3764.96 2656.91 3764.96" stroke="white" stroke-width="10.55" stroke-linecap="round" stroke-linejoin="round"/>
<path fill-rule="evenodd" clip-rule="evenodd" d="M2226.73 3684.87C2231.42 3678.33 2212.73 3663.73 2207.24 3675.82C2201.44 3688.6 2223.96 3694.4 2225.58 3687.05L2281.24 3714.24L2177.55 3726.7L2178.71 3688.26L2134.97 3669.45L2152 3627.86L2194.63 3647.37L2224.79 3617.82L2281.87 3712.83L2226.73 3684.87Z" fill="#E0E0E0"/>
<path fill-rule="evenodd" clip-rule="evenodd" d="M2287.99 3718.59L2289.78 3713.88C2290.15 3712.91 2289.83 3711.87 2289.06 3711.56L2283.06 3709.15C2282.29 3708.84 2281.37 3709.38 2281 3710.35L2279.21 3715.06C2278.84 3716.03 2279.16 3717.07 2279.93 3717.38L2285.93 3719.79C2286.7 3720.1 2287.62 3719.56 2287.99 3718.59Z" fill="#272361"/>
<path fill-rule="evenodd" clip-rule="evenodd" d="M2126.19 3665.41L1928.04 3582.32C1928.04 3582.32 1912.07 3575.93 1920.74 3552.98C1929.05 3531.02 1946.32 3538.44 1946.32 3538.44L2143.49 3623.85L2126.19 3665.41Z" fill="#135EAB"/>
<path fill-rule="evenodd" clip-rule="evenodd" d="M2132.58 3676.21L2155.95 3622.28L2144.19 3617.39L2120.95 3670.89L2132.58 3676.21Z" fill="#272361"/>
<path fill-rule="evenodd" clip-rule="evenodd" d="M3357.17 3670.42L3323.55 3798.89L3312.85 3796.09C3297.35 3792.03 3287.57 3784.26 3283.53 3772.77C3279.49 3761.29 3280.54 3743.83 3286.67 3720.39C3292.76 3697.13 3300.37 3681.5 3309.51 3673.52C3318.64 3665.53 3330.97 3663.56 3346.47 3667.62L3357.17 3670.42ZM3405.91 3645.18L3363.67 3634.13C3331.05 3625.59 3305.53 3627.22 3287.11 3639.02C3268.69 3650.81 3254.87 3674.36 3245.63 3709.65C3236.37 3745.03 3236.87 3772.42 3247.12 3791.81C3257.38 3811.21 3278.82 3825.18 3311.44 3833.71L3353.68 3844.77L3405.91 3645.18Z" stroke="white" stroke-width="5.97" stroke-linecap="round" stroke-linejoin="round"/>
<path fill-rule="evenodd" clip-rule="evenodd" d="M3300.28 4067.9L3158.58 4030.82L3149.17 4066.78L3290.87 4103.86L3300.28 4067.9Z" stroke="white" stroke-width="5.97" stroke-linecap="round" stroke-linejoin="round"/>
<path fill-rule="evenodd" clip-rule="evenodd" d="M2538.55 3526.81L2552.8 3580.63L2528.93 3586.95C2517.48 3589.98 2508.95 3590.16 2503.33 3587.47C2497.71 3584.79 2493.62 3578.62 2491.07 3568.96C2488.47 3559.13 2488.99 3551.44 2492.64 3545.87C2496.29 3540.3 2503.64 3536.05 2514.68 3533.13L2538.55 3526.81ZM2519.79 3455.93L2530.97 3498.19L2507.1 3504.51C2498.01 3506.91 2491.11 3507 2486.39 3504.78C2481.67 3502.55 2478.33 3497.7 2476.35 3490.23C2474.37 3482.76 2474.91 3476.82 2477.95 3472.41C2481 3468 2486.99 3464.61 2495.92 3462.25L2519.79 3455.93ZM2546.92 3418.12L2488.34 3433.63C2468.13 3438.98 2453.94 3446.84 2445.78 3457.21C2437.62 3467.58 2435.56 3480.4 2439.61 3495.66C2442.7 3507.35 2448.12 3515.69 2455.87 3520.68C2463.62 3525.66 2473.44 3527.15 2485.33 3525.13C2471.81 3530.18 2462.59 3537.62 2457.68 3547.43C2452.76 3557.25 2452.19 3569.3 2455.97 3583.59C2460.62 3601.13 2469.26 3612.44 2481.9 3617.52C2494.54 3622.6 2512.75 3621.99 2536.54 3615.69L2595.11 3600.19L2546.92 3418.12Z" stroke="white" stroke-width="5.97" stroke-linecap="round" stroke-linejoin="round"/>
<path fill-rule="evenodd" clip-rule="evenodd" d="M1650.4 4430.28C1656.81 4432.27 1663.38 4433.44 1670.12 4433.82C1676.85 4434.19 1683.79 4433.74 1690.92 4432.48C1716.29 4428.01 1734.18 4416.24 1744.58 4397.17C1754.99 4378.1 1757.4 4352.77 1751.83 4321.19C1746.25 4289.53 1735.3 4266.52 1719 4252.16C1702.7 4237.8 1681.86 4232.86 1656.5 4237.33C1649.36 4238.59 1642.65 4240.56 1636.36 4243.22C1630.08 4245.89 1624.35 4249.24 1619.17 4253.27L1626.46 4294.59C1631.81 4287.59 1637.24 4282.19 1642.76 4278.4C1648.29 4274.61 1654.24 4272.16 1660.63 4271.03C1674.23 4268.63 1685.45 4272.21 1694.28 4281.78C1703.12 4291.36 1709.41 4306.76 1713.16 4328.01C1716.89 4349.18 1716.24 4365.77 1711.22 4377.78C1706.19 4389.8 1696.88 4397.01 1683.27 4399.41C1676.89 4400.53 1670.45 4400.26 1663.97 4398.59C1657.48 4396.92 1650.53 4393.71 1643.11 4388.96L1650.4 4430.28Z" stroke="white" stroke-width="5.97" stroke-linecap="round" stroke-linejoin="round"/>
</g>
<defs>
<linearGradient id="paint0_linear" x1="4175.87" y1="3284" x2="2014.62" y2="4555.96" gradientUnits="userSpaceOnUse">
<stop offset="0.427184" stop-color="#2BAAE2"/>
<stop offset="0.990291" stop-color="#0081C3"/>
</linearGradient>
<clipPath id="clip0">
<rect width="8323.69" height="5938.61" fill="white" transform="matrix(-1 0 0 1 8323.69 123)"/>
</clipPath>
</defs>
</svg>
