<svg width="10722" height="6010" viewBox="0 0 10722 6010" fill="none" xmlns="http://www.w3.org/2000/svg">
<g clip-path="url(#clip0)">
<path fill-rule="evenodd" clip-rule="evenodd" d="M1062.23 2438.26C1393.77 1545.52 3208.94 1533.61 3290.01 668.001C3369.98 -185.913 4512.67 -98.3129 5181.92 253.124C5906.38 633.546 8449.24 -120.287 8362.89 496.269C8276.53 1112.83 9485.34 1355.5 9561.19 2298.59C9636.54 3235.58 8525.28 4403.44 8762.09 4959.95C8973.98 5457.88 6237.38 5148.54 5098.57 5148.54C4377.61 5148.54 2120.78 5385.94 1897.96 4855.34C1422.35 3722.79 676.406 3477.17 1062.23 2438.26Z" fill="#4CC8ED" fill-opacity="0.153501"/>
<g opacity="0.4">
<path d="M7373.38 1653.03C7375.29 1659.46 7375.98 1664.71 7375.32 1668.36C7374.81 1671.17 7373.58 1672.86 7371.57 1673.49C7368.85 1674.36 7362.02 1674.17 7346.64 1663.76L7373.38 1653.03Z" fill="#2BAAE2"/>
<path d="M7293.58 1611.03L7295.7 1587.4L7321.84 1576.87C7340.34 1600.06 7354.89 1622.71 7363.13 1641.14L7338.11 1651.18C7330.27 1644.95 7321.62 1637.26 7312.33 1628.31C7306.07 1622.37 7299.8 1616.56 7293.58 1611.03Z" fill="#4CC8ED"/>
<path d="M7252.9 1507.38L7254.56 1506.68C7275.38 1525.02 7294.59 1544.52 7311.71 1564.6L7287.62 1574.31L7249.02 1549.49L7252.9 1507.38Z" fill="#2BAAE2"/>
<path d="M7260.98 1574.54L7278.61 1585.85L7277.61 1597.34C7260.96 1583.75 7245.21 1572.82 7230.57 1564.81L7240.02 1561.03L7260.98 1574.54Z" fill="#2BAAE2"/>
<path d="M7207.22 1469.05C7208.85 1470.21 7210.53 1471.42 7212.15 1472.63L7207.2 1469.42L7207.22 1469.05Z" fill="#2BAAE2"/>
<path d="M7236.56 1505.65L7235.33 1514.46L7235.98 1514.21L7233.02 1547.87L7212.47 1556.13C7194.87 1548.91 7178.91 1546.2 7163.82 1547.78L7151.95 1540.05L7152.84 1531.72L7152.68 1531.79L7153.89 1517.7L7155.58 1498.17L7189.4 1484.54L7189.4 1484.58L7190.28 1484.2L7198.14 1480.99L7215.99 1492.48L7236.56 1505.65Z" fill="#4CC8ED"/>
<path d="M7144.21 1552.5C7126.58 1559.35 7113.62 1571.8 7102.04 1582.87C7101.23 1583.63 7100.42 1584.44 7099.62 1585.2L7101.13 1568.63L7108.78 1565.7L7108.6 1565.58L7134.56 1555.16L7134.55 1555.2L7143.07 1551.75L7144.21 1552.5Z" fill="#2BAAE2"/>
<path d="M7169.17 1347.44L7170.22 1347.04C7172.02 1363.12 7173.08 1379.11 7173.23 1394.71L7165.47 1389.72L7169.17 1347.44Z" fill="#2BAAE2"/>
<path d="M7157.18 1481.43L7152.64 1483.29L7148.44 1484.98L7117.55 1465.14L7117.6 1465.15L7110.12 1460.34L7113.91 1418.17L7156.23 1401.13L7160.59 1403.96L7173.07 1411.98C7172.59 1429.38 7171.14 1439.92 7171.06 1440.36L7170.41 1444.83L7174.65 1447.46C7180.32 1450.93 7185.92 1454.53 7191.77 1458.45L7191.19 1465.02L7190.92 1467.93L7157.16 1481.52L7157.18 1481.43Z" fill="#2BAAE2"/>
<path d="M7135.83 1538.55L7093.28 1555.68L7062.4 1535.79L7062.45 1535.8L7055.01 1531.05L7058.22 1494.63C7061.64 1491.3 7064.93 1488.13 7068.04 1485.1L7100.97 1471.81L7102.21 1472.62L7139.46 1496.66L7138.59 1504.86L7138.76 1504.8L7135.83 1538.55Z" fill="#2BAAE2"/>
<path d="M7085.44 1187.56L7117.7 1174.6C7129.24 1196.66 7139.13 1219.83 7147.1 1243.48L7120.08 1254.34L7081.67 1229.64L7085.44 1187.56Z" fill="#2BAAE2"/>
<path d="M7141.35 1019.84L7148.65 1024.52C7135.62 1027.74 7117 1032.96 7098.21 1043.36L7098.84 1036.75L7132.71 1023.13L7132.68 1023.31L7136.72 1021.91L7141.35 1019.84Z" fill="#1172BA"/>
<path d="M7047.37 1154.43L7039.85 1149.57L7043.57 1107.52L7067.83 1097.74C7083.8 1117.93 7098.21 1139.34 7110.61 1161.42L7078.4 1174.39L7047.37 1154.43Z" fill="#1172BA"/>
<path d="M7091.64 1023.6L7065.25 1006.61C7087.01 1004.47 7107.25 1005.58 7125.61 1010L7100.25 1020.21L7100.26 1020.12L7091.64 1023.6Z" fill="#2BAAE2"/>
<path d="M7044.18 1010.38L7066.62 1024.84L7082.45 1035.02L7081.22 1043.83L7081.89 1043.54L7080.91 1054.58C7072.18 1061.21 7064.36 1068.79 7057.67 1077.16L7054.29 1081.36L7057.92 1085.65L7036.48 1094.3L6997.89 1069.47L7001.1 1033.01L7001.58 1027.51L7044.18 1010.38Z" fill="#1172BA"/>
<path d="M6981.18 1164.92L6942.72 1140.17L6946.48 1098.17L6989.01 1081.12L7022.88 1102.91L7027.52 1105.89L7027.48 1106.11L7023.81 1147.62L7014.65 1150.68L7015.43 1151.19L6981.18 1164.92Z" fill="#1172BA"/>
<path d="M6900.73 1060.25L6904.43 1018.25L6946.88 1001.14L6949.4 1002.77L6985.42 1025.95L6984.37 1034.3L6984.36 1034.39L6984.74 1034.23L6981.82 1067.93L6943.97 1083.15L6943.37 1083.4L6939.27 1085.07L6900.73 1060.25Z" fill="#2BAAE2"/>
<path d="M7074 1321.28L7064.94 1324.95L7054.97 1318.56C7046.6 1304.79 7037.64 1291.46 7028.25 1278.82L7030.05 1258.12L7072.49 1241.01L7111.08 1265.84L7107.33 1307.83L7105.84 1308.43L7074 1321.28Z" fill="#2BAAE2"/>
<path d="M7065.49 1227.89L7023 1244.95L6984.46 1220.13L6988.15 1178.21L7030.74 1161.13L7069.2 1185.84L7065.49 1227.89Z" fill="#2BAAE2"/>
<path d="M7012.7 1271.33C6997.56 1271.77 6984.76 1278.21 6975.65 1290.05C6975.12 1290.73 6974.58 1291.44 6974.09 1292.17C6967.83 1272.11 6970.73 1252.7 6982.07 1235.91L7014.01 1256.45L7012.7 1271.33Z" fill="#1172BA"/>
<path d="M7126.56 1275.76L7126.98 1271.98L7127.27 1267.58L7156.43 1255.88C7171.1 1263.48 7190.99 1278.66 7205.07 1308.49L7204.67 1312.96C7196.64 1307.51 7185.82 1300.74 7174.58 1295.21L7160.08 1288.09L7163.02 1302.47C7164.97 1312.04 7166.68 1321.88 7168.12 1331.77L7161.93 1334.24L7123.43 1309.47L7126.36 1275.73L7126.56 1275.76Z" fill="#2BAAE2"/>
<path d="M7120.91 1325.09L7145.46 1340.88L7145.41 1340.87L7152.84 1345.67L7149.06 1387.84L7106.73 1404.88L7106.64 1404.82L7094.3 1396.87C7087.53 1380.16 7079.74 1363.5 7071.19 1347.29L7072.05 1338.04L7114.49 1320.93L7120.91 1325.09Z" fill="#2BAAE2"/>
<path d="M7030.81 1532.53L7016.67 1538.19C7024.33 1529.58 7032.16 1521.1 7040.17 1512.79L7038.72 1529.33L7035.13 1530.77L7030.81 1532.53Z" fill="#2BAAE2"/>
<path d="M6964.28 1171.4L6964.64 1171.65L6967.08 1173.18L6968.14 1173.87L6972.13 1176.41L6968.94 1212.74C6948.54 1194.11 6926.62 1177.66 6903.57 1163.73L6933.64 1151.6L6964.28 1171.4Z" fill="#1172BA"/>
<path d="M6863.82 1142.74L6845.38 1130.82L6849.05 1088.76L6891.53 1071.71L6930.13 1096.53L6926.37 1138.53L6887.03 1154.34C6879.33 1150.18 6871.49 1146.26 6863.82 1142.74Z" fill="#0081C3"/>
<path d="M6544.73 1113.66L6575.48 1133.43L6575.31 1133.49L6583.33 1138.48L6579.62 1180.49L6537.18 1197.6L6498.91 1172.97L6502.68 1130.57L6544.73 1113.66Z" fill="#1172BA"/>
<path d="M6540.81 1253.1L6544.55 1210.64L6586.66 1193.66L6622.05 1216.4C6622.58 1222.26 6623.22 1228.05 6623.98 1233.78L6621.59 1260.54L6579.04 1277.68L6540.81 1253.1Z" fill="#1172BA"/>
<path d="M6599.42 1140.12L6607.15 1137.07L6607.76 1136.81L6607.71 1136.76L6624.95 1129.85C6624.93 1129.93 6624.92 1130.02 6624.89 1130.15C6621.1 1151.12 6619.71 1174.07 6620.81 1198.33L6606.58 1189.18L6595.66 1182.16L6599.42 1140.12Z" fill="#1172BA"/>
<path d="M6638.48 1067.83L6635.03 1106.71L6630.14 1107.14L6628.74 1112.29L6592.34 1126.9L6561.26 1106.94L6561.27 1106.89L6554.79 1102.77L6558.55 1059.64L6599.88 1043.01L6638.48 1067.83Z" fill="#2E3690"/>
<path d="M6638.53 1050.54L6609.9 1032.1L6613.76 988.945L6655.14 972.324L6693.64 997.088L6689.92 1039.18L6663.83 1049.72L6647.48 1056.29L6638.53 1050.54Z" fill="#1172BA"/>
<path d="M6748.91 926.401L6745.18 968.495L6711.09 982.213L6702.69 985.597L6671.67 965.637L6671.73 965.602L6665.21 961.426L6669.02 918.259L6710.36 901.585L6748.91 926.401Z" fill="#1172BA"/>
<path d="M6749.09 909.233L6720.37 890.733L6721.74 875.5C6744.03 883.982 6766.4 893.115 6788.29 902.704L6757.95 914.922L6749.09 909.233Z" fill="#1172BA"/>
<path d="M6651.37 1105.62L6654.58 1069.47L6697.02 1052.36L6735.61 1077.19L6735.58 1077.36L6732.96 1107.44C6706.75 1104.75 6679.31 1104.09 6651.37 1105.62Z" fill="#0081C3"/>
<path d="M6788.98 1026.59L6787.01 1048.53L6744.47 1065.62L6737.9 1061.44L6710.51 1043.77L6705.96 1040.86L6709.74 998.772L6752.17 981.706L6790.76 1006.53L6788.98 1026.59Z" fill="#1172BA"/>
<path d="M6703.37 1041.89L6703.34 1041.75L6703.37 1041.89Z" fill="#1172BA"/>
<path d="M6808.62 911.788L6808.72 911.85L6808.91 911.93L6845.97 935.843L6844.39 954.217L6842.33 977.771L6799.73 994.942L6779.12 981.68L6779.07 981.671L6761.27 970.231L6765 928.093L6769.2 926.401L6807.11 911.105L6808.62 911.788Z" fill="#0081C3"/>
<path d="M6828.88 1128.56L6828.66 1128.66C6803.41 1119.86 6776.65 1113.43 6748.97 1109.52L6751.65 1078.86L6794.26 1061.69L6832.76 1086.45L6828.99 1128.53L6828.88 1128.56Z" fill="#1172BA"/>
<path d="M6841.82 1074.92L6822.55 1062.49L6803.22 1050.1L6805.11 1029.19L6806.98 1008.1L6849.53 990.962L6888.03 1015.73L6884.36 1057.78L6851.54 1071.01L6841.82 1074.92Z" fill="#1172BA"/>
<path d="M6897.04 1004.19L6876.02 990.669L6858.44 979.362L6862.14 937.399L6862.2 937.364C6867.13 939.802 6872.07 942.283 6877.03 944.861C6898.78 956.059 6919.94 968.47 6939.99 981.721L6939.53 987.086L6897.04 1004.19Z" fill="#1172BA"/>
<path d="M6986.46 1574.08L6984.1 1600.44L6983.88 1600.49L6983.88 1600.54L6959.01 1610.57C6967.68 1598.33 6976.86 1586.1 6986.46 1574.08Z" fill="#2BAAE2"/>
<path d="M6920.94 1674.28L6918.07 1675.44C6922.01 1668.34 6926.13 1661.19 6930.43 1654.11L6928.94 1671.09L6920.89 1674.27L6920.94 1674.28Z" fill="#2BAAE2"/>
<path d="M7084.23 1567.16L7082.98 1575.79L7083.69 1575.51L7081.33 1601.91C7077.49 1605.58 7072.94 1610.02 7067.78 1615.04L7038.66 1626.75L7000.16 1601.98L7003.83 1559.93L7046.32 1542.82L7084.23 1567.16Z" fill="#2BAAE2"/>
<path d="M6949.8 1630.28L6950.08 1630.15L6991.25 1613.58L7002.12 1620.59L7022.18 1633.48L7022.13 1633.47L7029.56 1638.27L7028.14 1654.08C7010.76 1671.1 6996.4 1684.8 6983.2 1697.16L6945.02 1672.59L6945.42 1668.08L6947.61 1643.23L6948.72 1630.63L6949.8 1630.28Z" fill="#4CC8ED"/>
<path d="M6674.58 1498.9L6666.87 1493.97L6670.62 1452.01L6674.37 1450.51L6685.48 1446.03C6695.82 1473.55 6705.48 1499.45 6709.28 1517.21L6705.4 1518.83L6674.58 1498.9Z" fill="#1172BA"/>
<path d="M6967.26 1704.27L6969.88 1705.92L6972.22 1707.44C6947.78 1729.85 6928.19 1746.32 6912.45 1757.73L6890.01 1743.32L6891.08 1731.16L6891.26 1730.74C6896.11 1719.23 6901.51 1707.49 6907.41 1695.85L6936.19 1684.3L6967.03 1704.14L6966.98 1704.13L6967.26 1704.27Z" fill="#4CC8ED"/>
<path d="M6880.08 1764.22C6880.54 1761.67 6881.22 1758.76 6882.15 1755.61L6899.27 1766.61C6886.75 1774.37 6881.44 1775.09 6879.9 1775.09C6879.52 1774.11 6878.82 1771.17 6880.08 1764.22Z" fill="#4CC8ED"/>
<path d="M6645.85 1510.42L6657.9 1505.56L6696.54 1530.44L6696.12 1535.31L6695.63 1540.85C6682.44 1539.83 6665.37 1529.38 6645.85 1510.42Z" fill="#1172BA"/>
<path d="M6493.76 1280.14L6531.94 1264.8L6562.87 1284.69L6562.82 1284.68L6570.48 1289.61L6566.78 1331.62L6529.69 1346.57C6517.36 1324.95 6505.27 1302.6 6493.76 1280.14Z" fill="#2E3690"/>
<path d="M6611.98 1374.26L6608.71 1411.62L6577.37 1424.25C6564.26 1404.67 6550.73 1382.92 6537.16 1359.63L6568.22 1347.14L6573.8 1344.88L6612.4 1369.7L6611.98 1374.26Z" fill="#1172BA"/>
<path d="M6629.01 1274.18L6631.26 1275.63C6635.97 1297.78 6642.16 1321.01 6650.21 1346.48L6621.37 1358.06L6591.91 1339.11L6582.82 1333.29L6586.53 1291.24L6629.01 1274.18Z" fill="#1172BA"/>
<path d="M6634.11 1498.35C6619.21 1482.12 6603.07 1461.49 6586 1436.89L6615.95 1424.83L6654.45 1449.59L6650.79 1491.65L6634.11 1498.35Z" fill="#2E3690"/>
<path d="M6654.92 1432.56L6624.86 1413.23L6625.01 1411.26L6628.51 1371.26L6654.75 1360.7C6663.12 1386.1 6672.1 1410.38 6679.98 1431.37L6666.67 1436.73L6663.41 1438.04L6654.92 1432.56Z" fill="#1172BA"/>
<path d="M6902.69 491.003C6911.83 490.569 6918.18 492.853 6922.03 497.952C6922.93 499.16 6923.17 500.974 6922.74 503.348C6921.7 509.107 6916.89 517.544 6908.45 528.503C6907.78 529.424 6907.05 530.337 6906.32 531.249L6899.55 527.028L6902.69 491.003Z" fill="#2E3690"/>
<path d="M6872.02 529.946L6841.08 542.373L6817.4 527.147C6845.25 510.028 6868.37 498.867 6886.28 493.89L6883.46 525.342L6873.02 529.536L6872.02 529.946Z" fill="#2E3690"/>
<path d="M6896.78 542.599C6884.62 556.563 6869.34 572.503 6851.73 590.837L6844.85 597.991L6844.35 597.673L6848.06 555.622L6856.29 552.344L6856.24 552.335L6858.28 551.524L6890.49 538.6L6896.78 542.599Z" fill="#135EAB"/>
<path d="M6790.25 656.53L6792.92 626.23L6819.33 615.617L6833.36 609.984C6820.28 623.645 6805.43 639.481 6790.25 656.53Z" fill="#2E3690"/>
<path d="M6735.21 724.572L6737.7 696.964L6765.16 685.906C6754.14 699.257 6744.25 711.997 6735.21 724.572Z" fill="#1172BA"/>
<path d="M6682.49 767.653L6714.98 754.555C6702.45 774.535 6692.2 794.109 6684.39 812.9L6682.35 812.03L6678.77 809.704L6682.49 767.653Z" fill="#1172BA"/>
<path d="M6824.49 549.134L6825.26 549.683L6832.02 553.948L6828.31 595.954L6785.87 613.064L6747.28 588.239L6748.48 574.518C6768.2 559.79 6786.75 546.756 6803.7 535.749L6824.12 548.887L6824.08 548.878L6824.49 549.134Z" fill="#135EAB"/>
<path d="M6738.36 599.836L6772.28 621.635L6776.87 624.599L6773.14 666.694L6736.62 681.379L6730.66 683.751L6692.07 658.925L6695.87 616.937L6729.58 603.376L6729.57 603.42L6738.36 599.836Z" fill="#2E3690"/>
<path d="M6683.15 670.524L6697.98 680.061L6721.62 695.234L6717.89 737.372L6675.45 754.439L6636.86 729.613L6640.56 687.651L6683.15 670.524Z" fill="#2E3690"/>
<path d="M6585.41 758.262L6627.94 741.214L6661.63 762.881L6666.45 765.977L6662.7 807.931L6620.66 824.796L6620.57 824.734L6620.02 824.952L6581.66 800.259L6585.41 758.262Z" fill="#2E3690"/>
<path d="M6633.36 674.498L6629.23 671.844C6645.78 657.36 6662.26 643.315 6678.34 630.017L6677.68 637.661L6675.9 657.406L6633.36 674.498Z" fill="#2E3690"/>
<path d="M6586.22 741.927L6581.41 743.872L6578.19 745.198L6560.8 734.015C6569.53 725.697 6589.22 707.195 6617.83 681.862L6624.39 686.091L6623.98 690.919L6620.74 728.062L6586.22 741.927Z" fill="#2E3690"/>
<path d="M6623.38 880.266L6627.07 838.392L6631.83 836.711L6635.93 835.274L6635.47 834.964L6669.67 821.221L6678.85 827.148C6675.96 835.162 6673.51 843.027 6671.59 850.578L6670 856.784L6676.85 859.157C6685.48 862.127 6694.72 865.433 6705.04 869.253L6703.36 888.471L6674.23 900.226L6666.55 903.331L6665.88 903.619L6662.4 905.032L6662.07 905.154L6623.38 880.266Z" fill="#1172BA"/>
<path d="M6623.24 897.492L6651.97 915.948L6648.1 959.15L6606.77 975.78L6568.26 951.017L6571.94 908.869L6614.38 891.803L6623.24 897.492Z" fill="#2E3690"/>
<path d="M6588.47 1031.58L6551.56 1046.47L6512.96 1021.64L6516.68 979.549L6559.17 962.492L6560.36 963.253L6596.66 986.618L6592.89 1029.84L6589.96 1030.99L6588.47 1031.58Z" fill="#1172BA"/>
<path d="M6512.73 1038.81L6541.54 1057.37L6537.74 1099.9L6527.6 1102.75L6529.35 1103.83L6496.36 1117.12L6492.73 1114.78L6465.43 1097.22L6465.48 1097.23L6457.81 1092.3L6461.52 1050.29L6503.96 1033.18L6512.73 1038.81Z" fill="#2E3690"/>
<path d="M6603.57 831.782L6605.04 832.728L6611.06 836.542L6607.34 878.592L6581.48 888.987L6564.9 895.702L6526.3 870.877L6527.22 862.416L6527.06 862.477L6527.36 858.81L6530 828.914L6572.5 811.769L6603.62 831.747L6603.57 831.782Z" fill="#2E3690"/>
<path d="M6552.13 949.283L6518.15 962.975L6518.16 962.887L6509.6 966.332L6471.1 941.568L6472 931.744L6474.85 899.571L6517.4 882.435L6555.91 907.198L6552.13 949.283Z" fill="#2E3690"/>
<path d="M6496.92 1019.97L6454.48 1037.08L6415.89 1012.26L6416.89 1001.04L6416.84 1001.03L6419.58 970.294L6462.14 953.114L6481.55 965.615L6500.6 977.869L6496.92 1019.97Z" fill="#135EAB"/>
<path d="M6360.68 1082.89L6364.44 1040.9L6406.97 1023.85L6445.48 1048.61L6441.71 1090.65L6433.43 1093.97L6433.48 1093.98L6399.28 1107.72L6360.68 1082.89Z" fill="#2E3690"/>
<path d="M6565.3 798.663L6522.76 815.755L6498.2 799.962C6513.66 782.465 6530.82 764.095 6549.11 745.385C6549.37 745.113 6549.68 744.806 6550 744.456L6568.99 756.7L6565.3 798.663Z" fill="#2E3690"/>
<path d="M6436.76 866.572L6429.38 861.786L6433.07 819.55L6467.72 805.615C6473.34 806.541 6479 807.521 6484.71 808.553L6513.85 827.309L6510.71 863.335L6510.2 869.28L6467.59 886.451L6436.76 866.572Z" fill="#2E3690"/>
<path d="M6456.22 924.937L6454.88 939.994L6412.33 957.13L6374.06 932.5L6377.85 890.282L6420.18 873.242L6424.68 876.144L6458.64 897.997L6456.22 924.937Z" fill="#2E3690"/>
<path d="M6399.78 1010.66L6357.23 1027.79L6355.31 1026.54L6326.43 1008.01L6326.49 1007.97L6318.97 1003.12L6322.65 960.97L6364.93 943.921L6380.89 954.21L6403.43 968.684L6402.68 977.084L6399.78 1010.66Z" fill="#2E3690"/>
<path d="M6318.32 790.344C6326.42 790.628 6334.59 791.018 6342.75 791.54L6337.5 793.633L6337.51 793.589L6328.83 797.103L6318.32 790.344Z" fill="#2E3690"/>
<path d="M6317.39 807.064L6319.73 808.577L6318.47 817.247L6319.08 816.994L6317.37 836.388L6316.88 841.929L6316.13 850.601L6273.58 867.738L6235.03 842.921L6235.91 833.229L6238.8 800.88L6267.09 789.473C6274.68 789.438 6282.42 789.431 6290.24 789.529L6317.39 807.064Z" fill="#2E3690"/>
<path d="M6264.58 879.548L6260.84 921.413L6227.19 934.983L6227.2 934.939L6227.2 934.895L6218.41 938.48L6179.86 913.707L6183.52 871.648L6226.06 854.556L6264.61 879.328L6264.58 879.548Z" fill="#2E3690"/>
<path d="M6218.97 841.379L6176.48 858.48L6137.93 833.663L6141.15 797.471C6164.09 794.72 6187.36 792.665 6210.35 791.331L6222.74 799.293L6218.97 841.379Z" fill="#282560"/>
<path d="M6148.89 858.026L6167.47 870.014L6163.81 912.074L6121.33 929.131L6082.73 904.305L6086.49 862.308L6128.93 845.198L6148.89 858.026Z" fill="#2E3690"/>
<path d="M6412.59 797.726C6421.31 798.76 6430.12 799.9 6438.86 801.163L6425.98 806.37L6412.59 797.726Z" fill="#2E3690"/>
<path d="M6413.05 860.012L6370.72 877.052L6332.27 852.297L6336.03 810.256L6376.33 793.983L6380.36 794.349L6409.41 813.043L6409.36 813.034L6409.68 813.229L6416.84 817.838L6413.05 860.012Z" fill="#2E3690"/>
<path d="M6354.05 883.66L6361.53 888.508L6357.84 930.699L6315.51 947.739L6277.01 922.975L6280.71 880.969L6323.26 863.833L6354.05 883.66Z" fill="#135EAB"/>
<path d="M6294.33 1004.79L6294.38 1004.8L6260.4 1018.44L6221.85 993.627L6225.56 951.62L6259.33 937.981L6259.37 938.034L6268.05 934.519L6273.93 938.306L6298.98 954.417L6298.93 954.408L6306.42 959.212L6302.61 1001.47L6298.03 1003.32L6294.33 1004.79Z" fill="#2E3690"/>
<path d="M6079.45 849.095L6040.85 824.269L6041.76 813.899C6069.19 808.103 6097.06 803.293 6124.73 799.582L6121.88 832.028L6079.45 849.095Z" fill="#282560"/>
<path d="M5969.39 831.589C5988.32 826.343 6006.63 821.71 6025.17 817.527L6024.73 822.76L5982.25 839.817L5969.39 831.589Z" fill="#282560"/>
<path d="M6528.19 1209.32L6524.41 1251.72L6487.01 1266.75C6474.27 1241.19 6463.34 1217.74 6455.38 1198.6L6489.92 1184.69L6528.19 1209.32Z" fill="#2E3690"/>
<path d="M6449.34 1184.98C6441.01 1170.12 6425.42 1158.63 6402.98 1150.71L6405.51 1121.7L6448.06 1104.57L6486.29 1129.15L6482.55 1171.6L6449.34 1184.98Z" fill="#2E3690"/>
<path d="M6387.12 1146.02C6368.05 1141.3 6348.88 1139.65 6335.87 1139.06C6330.34 1139.02 6325.03 1138.92 6319.72 1138.82L6318.76 1138.78C6314.62 1138.72 6310.44 1138.6 6306.27 1138.43L6308.57 1112.42L6350.89 1095.38L6389.4 1120.15L6387.12 1146.02Z" fill="#2E3690"/>
<path d="M6250.58 1030.84L6247.99 1059.61L6246.81 1072.92L6213.04 1086.52L6213.05 1086.47L6213.06 1086.43L6204.37 1089.99L6204.31 1090.02L6165.82 1065.22L6169.48 1023.16L6211.98 1006.05L6240.66 1024.5L6250.58 1030.84Z" fill="#2E3690"/>
<path d="M6195.36 1101.57L6192.88 1129.72C6165.68 1126.3 6138.65 1121.95 6112.35 1116.65L6114.39 1093.77L6156.82 1076.71L6195.36 1101.57Z" fill="#2E3690"/>
<path d="M6127.77 943.056L6170.1 926.016L6208.65 950.832L6204.88 992.874L6162.44 1009.98L6123.86 985.07L6127.77 943.056Z" fill="#2E3690"/>
<path d="M6123.51 1002.26L6153.43 1021.52L6149.73 1063.53L6107.33 1080.65L6073.15 1058.62L6071.6 1057.57L6071.54 1057.6L6068.75 1055.78L6072.45 1013.82L6097.43 1003.72L6114.84 996.697L6123.51 1002.26Z" fill="#272361"/>
<path d="M6107.52 1083.04L6107.35 1083.1L6107.52 1083.04Z" fill="#282560"/>
<path d="M6155.94 1020.43L6156.04 1020.5L6155.94 1020.43Z" fill="#2E3690"/>
<path d="M6301.47 1099.25L6262.97 1074.48L6266.63 1032.43L6309.18 1015.33L6347.77 1040.16L6344.02 1082.11L6301.47 1099.25Z" fill="#135EAB"/>
<path d="M6264.89 1093.04L6284.9 1105.92L6284.85 1105.91L6292.33 1110.72L6289.93 1137.84C6262.69 1136.63 6235.5 1134.58 6208.99 1131.59L6209.1 1130.39L6211.53 1103.09L6253.97 1085.98L6264.89 1093.04Z" fill="#2E3690"/>
<path d="M6026.82 975.774L6029.52 944.664L6030.47 933.802L6073.07 916.631L6111.39 941.271L6110.1 950.117L6110.82 949.838L6107.85 983.489L6065.41 1000.6L6026.82 975.774Z" fill="#282560"/>
<path d="M6049.52 1007.72L6056.41 1012.14L6052.64 1054.18L6010.27 1071.21L5971.62 1046.38L5975.37 1004.42L6009.18 990.838L6009.17 990.925L6009.22 990.934L6009.67 990.699L6017.85 987.367L6049.52 1007.72Z" fill="#282560"/>
<path d="M5988.48 853.796L6030.97 836.695L6069.57 861.521L6065.81 903.518L6023.26 920.654L5984.77 895.847L5988.48 853.796Z" fill="#282560"/>
<path d="M5975.76 907.381L6014.36 932.207L6012.54 953.034L6011.95 959.965L6010.66 974.169L5968.55 991.157L5968.51 991.104L5968.17 991.27L5937.28 971.426L5937.29 971.382L5935.73 970.373L5929.57 966.445L5933.32 924.491L5975.76 907.381Z" fill="#2E3690"/>
<path d="M6090.76 1087.32L6094.06 1089.46L6095.49 1090.35L6096.32 1090.86L6098.34 1092.14L6096.45 1113.32C6069.44 1107.48 6042.62 1100.53 6016.62 1092.7L6017.36 1084.39L6025.59 1081.11L6025.54 1081.1L6059.74 1067.36L6090.76 1087.32Z" fill="#282560"/>
<path d="M6000.8 1087.84C5980.66 1081.38 5960.73 1074.28 5941.32 1066.59L5962.66 1057.97L5993.73 1077.94L5993.67 1077.97L5994.23 1078.3L6001.26 1082.75L6000.8 1087.84Z" fill="#282560"/>
<path d="M5952.08 1046.2L5947.44 1048.04L5947.49 1048.09L5921.52 1058.51C5905.58 1051.77 5889.72 1044.54 5874.48 1037.06L5878.13 995.092L5920.61 978.035L5959.25 1002.91L5957.05 1027.8L5955.51 1044.82L5952.08 1046.2Z" fill="#282560"/>
<path d="M5773.6 971.958L5762.49 964.819C5758.63 960.124 5755.34 955.353 5752.72 950.566C5754.46 946.886 5758.03 940.177 5764.59 931.692C5773.56 920.058 5784.97 909.093 5798.47 899.05L5819.9 912.825L5817.27 942.359L5816.15 954.822L5773.6 971.958Z" fill="#282560"/>
<path d="M5873.47 861.088L5871.47 884.062L5828.86 901.233L5811.52 890.059C5829.46 878.685 5850.28 868.967 5873.47 861.088Z" fill="#282560"/>
<path d="M5858.65 1029.11C5839.95 1019.47 5821.58 1009.15 5804 998.433L5803.54 998.168C5803.35 998.088 5793.99 993.171 5782.73 984.324L5823.36 967.929L5861.86 992.693L5860.48 1008.24L5858.65 1029.11Z" fill="#282560"/>
<path d="M5852.96 969.654L5832.36 956.392L5834.77 929.452L5836.12 914.395L5878.67 897.259L5917.16 922.066L5913.45 964.117L5881.9 976.796L5870.95 981.218L5852.96 969.654Z" fill="#282560"/>
<path d="M5926.17 910.53L5899.82 893.596L5887.57 885.704L5890.17 855.756L5898.81 853.007C5912.79 848.543 5930.08 843.001 5950.1 837.134L5972.36 851.466L5968.6 893.463L5926.17 910.53Z" fill="#282560"/>
</g>
<path opacity="0.431718" fill-rule="evenodd" clip-rule="evenodd" d="M2395.25 2386.22L2137.09 2465.08L1939.71 2280.94L2000.5 2017.93L2258.66 1939.07L2456.04 2123.22L2395.25 2386.22Z" stroke="#2BAAE2" stroke-width="20.69" stroke-linecap="round" stroke-linejoin="round"/>
<path fill-rule="evenodd" clip-rule="evenodd" d="M3946.5 460.865C3946.49 460.848 3968.36 523.855 3968.36 523.855C3968.37 523.885 3968.41 523.925 3968.45 523.925L4459.52 538.025C4459.56 538.025 3946.5 460.865 3946.5 460.865Z" fill="#0081C3"/>
<path fill-rule="evenodd" clip-rule="evenodd" d="M3984.03 329.781C3984.03 329.763 3981.92 399.159 3981.92 399.159L4256.83 470.064C4256.87 470.075 4257.73 469.898 4257.69 469.887L3984.03 329.781Z" fill="#0081C3"/>
<path fill-rule="evenodd" clip-rule="evenodd" d="M4047.24 263.035L3984.06 329.742C3984.02 329.783 3984 329.807 3984.01 329.796L4257.66 469.911C4257.71 469.937 4257.71 469.937 4257.66 469.912L3915.54 382.095C3915.48 382.081 3915.4 382.097 3915.36 382.13L3834.04 443.935C3834 443.969 3833.99 443.977 3834.02 443.954L4470.02 539.723C4470.08 539.733 4470.09 539.733 4470.03 539.723L4047.39 263.019C4047.35 262.988 4047.28 262.995 4047.24 263.035Z" fill="#2BAAE2"/>
<path opacity="0.42511" fill-rule="evenodd" clip-rule="evenodd" d="M3418.46 3032.86C3398.18 3033.65 3380.51 3036.69 3369.23 3040.37L3364.87 3148.24C3316.01 3150.25 3284.32 3152.62 3241.91 3170.93L3186.66 3076.28C3139.86 3089.4 3076.99 3128.16 3055.51 3164.01L3117.92 3250.62C3088.45 3277.78 3067.67 3301.7 3047.66 3336.68L2958.82 3292.19C2931.59 3323.37 2905.93 3386.4 2909.45 3417.09L3002.38 3447.22C2994.07 3481.8 2990.37 3518.11 2991.91 3555.43L2893.96 3573.4C2886.08 3608.94 2895.36 3678.13 2921.89 3712.88L3017.51 3680.05C3031.45 3716.44 3051.88 3752.96 3075.31 3783.08L3002.35 3858.87C3022.29 3890.09 3072.41 3937.2 3104.05 3952.39L3168.52 3867.47C3203.01 3890.1 3241.21 3907.33 3281.95 3918.1L3266.56 4016.3C3306.77 4033.25 3351.53 4038.51 3397.54 4029.94L3397.08 3930.6C3436.79 3928.96 3467.91 3924.88 3503.55 3912.28L3545.32 4001.14C3583.09 3999.69 3636.19 3971.36 3657.76 3941.8L3602.99 3861.24C3638.32 3836.57 3669.35 3806.16 3694.77 3771.45L3787.35 3823.17C3821.41 3798.67 3852.89 3734.49 3854.26 3697.32L3752.09 3658.63C3765.59 3616.13 3776.23 3586.89 3774.29 3539.71L3885.25 3522.54C3897.25 3477.18 3882.88 3416.41 3857.17 3385.92L3750.45 3415.48C3738.73 3380.15 3722.14 3347.1 3701.54 3317.15L3788.93 3242.75C3766.41 3188.64 3725.72 3147.7 3683.33 3132.52L3605.52 3218.8C3574.38 3196.07 3536.55 3174.41 3499.55 3161.69L3524.06 3054.95C3493.28 3036.48 3452.25 3031.54 3418.46 3032.86ZM3377.74 3330.64C3494.19 3325.84 3592.53 3417.13 3597.36 3534.53C3602.19 3651.92 3511.69 3750.98 3395.24 3755.77C3278.78 3760.57 3180.44 3669.28 3175.61 3551.89C3170.78 3434.5 3261.28 3335.43 3377.74 3330.64Z" fill="#2BAAE2"/>
<path opacity="0.42511" fill-rule="evenodd" clip-rule="evenodd" d="M3751.95 3103.9C3751.93 3119.13 3753.67 3132.48 3756.09 3141.06L3836.89 3147.6C3836.92 3184.33 3837.73 3208.18 3850.18 3240.55L3777.5 3279.14C3785.92 3314.65 3813.09 3363 3839.34 3380.21L3906.22 3336C3925.7 3358.94 3943.02 3375.26 3968.66 3391.33L3932.58 3456.64C3955.15 3478.01 4001.66 3499.18 4024.8 3497.47L4050.22 3428.66C4075.92 3435.94 4103.05 3439.82 4131.1 3439.8L4141.61 3513.84C4168.04 3520.83 4220.23 3515.97 4247.11 3497.12L4225.38 3424.38C4253.1 3415.02 4281.12 3400.8 4304.43 3384.13L4359.09 3441.17C4383.11 3427.17 4419.99 3390.99 4432.34 3367.71L4370.59 3316.76C4388.61 3291.57 4402.7 3263.42 4412.02 3233.19L4485.23 3247.72C4499.16 3218.06 4504.47 3184.63 4499.44 3149.85L4424.89 3147.18C4424.87 3117.33 4422.75 3093.86 4414.37 3066.74L4485.29 3042.89C4485.35 3014.51 4464.81 2965.97 4443.29 2948.89L4376.29 2984.89C4358.85 2957.63 4339.78 2939.12 4314.51 2918.99L4368.29 2854.89C4350.94 2828.59 4295.14 2798.05 4267.29 2795.89L4231.29 2864.89C4199.81 2853.47 4178.5 2852.27 4143.05 2852.29L4133.53 2768.52C4099.86 2758.14 4053.83 2767.07 4030.17 2785.44L4049.11 2866.41C4022.24 2874.13 3996.94 2885.58 3973.84 2900.12L3920.67 2832.3C3879.39 2847.55 3847.44 2876.84 3834.76 2908.18L3897.14 2969.19C3879.14 2991.86 3861.74 3019.59 3851.07 3046.97L3771.73 3025.33C3756.93 3047.86 3751.99 3078.5 3751.95 3103.9ZM3974.14 3143.49C3974.08 3055.96 4045.56 2984.95 4133.79 2984.89C4222.01 2984.83 4293.6 3055.73 4293.66 3143.26C4293.72 3230.79 4222.24 3301.8 4134.01 3301.86C4045.79 3301.92 3974.2 3231.01 3974.14 3143.49Z" fill="#2BAAE2"/>
<path opacity="0.42511" fill-rule="evenodd" clip-rule="evenodd" d="M8584.24 1060.34C8564.23 1063.73 8547.1 1069 8536.38 1074.11L8545.91 1181.64C8497.7 1189.91 8466.58 1196.32 8426.88 1219.92L8359.93 1133.15C8315.2 1152.17 8257.83 1198.67 8241.12 1236.98L8314.14 1314.87C8288.4 1345.58 8270.86 1371.98 8255.5 1409.24L8161.68 1376.52C8138.69 1410.93 8121.33 1476.73 8128.76 1506.72L8224.78 1524.67C8220.99 1560.04 8221.97 1596.52 8228.29 1633.34L8133.45 1663.73C8130.2 1699.99 8148.28 1767.41 8179.05 1798.46L8269.67 1753.64C8288.16 1787.94 8313.11 1821.53 8340.21 1848.39L8277.59 1932.93C8301.36 1961.32 8357.11 2001.62 8390.44 2012.62L8443.48 1920.13C8480.59 1938.14 8520.69 1950.33 8562.47 1955.78L8559.81 2055.15C8601.87 2066.79 8646.93 2066.26 8691.46 2051.86L8678.25 1953.4C8717.43 1946.68 8747.77 1938.64 8781.49 1921.57L8834.33 2004.33C8871.6 1998.05 8920.62 1963.14 8938.22 1931.06L8873.56 1858.19C8905.44 1829.18 8932.3 1795.05 8953.06 1757.36L9051.51 1796.77C9082.15 1768.1 9105.12 1700.42 9101.71 1663.37L8995.43 1638.12C9003.36 1594.23 9010.16 1563.87 9002.18 1517.34L9110.02 1486.07C9116.09 1439.54 9094.05 1381.12 9064.64 1354.17L8962.6 1397.18C8946.44 1363.65 8925.74 1333.01 8901.47 1305.95L8978.58 1220.95C8949.31 1170.17 8903.7 1134.8 8859.71 1125.18L8793.62 1220.73C8759.82 1202.19 8719.53 1185.57 8681.19 1177.7L8691.8 1068.7C8658.91 1054.33 8617.59 1054.7 8584.24 1060.34ZM8582.07 1360.88C8696.95 1341.18 8806.19 1419.1 8826.05 1534.9C8845.91 1650.7 8768.87 1760.56 8653.99 1780.26C8539.11 1799.96 8429.87 1722.04 8410.02 1606.24C8390.16 1490.44 8467.19 1380.58 8582.07 1360.88Z" fill="#2BAAE2"/>
<path opacity="0.42511" fill-rule="evenodd" clip-rule="evenodd" d="M8033.56 1701.25C8018.38 1699.88 8004.93 1700.44 7996.17 1702.09L7982.53 1782C7945.95 1778.79 7922.12 1777.5 7888.77 1787.05L7856.75 1711.24C7820.63 1716.5 7770.08 1739.3 7750.62 1763.93L7788.75 1834.45C7764.19 1851.83 7746.41 1867.65 7728.13 1891.77L7666.26 1850.07C7642.98 1870.67 7617.79 1915.13 7617.46 1938.33L7683.75 1969.72C7674.24 1994.67 7667.98 2021.36 7665.53 2049.3L7590.85 2053.24C7581.56 2078.95 7581.8 2131.37 7598.21 2159.8L7672.58 2144.57C7679.45 2173.02 7691.15 2202.18 7705.7 2226.87L7644.06 2276.28C7655.89 2301.45 7688.68 2341.37 7710.78 2355.73L7766.98 2298.71C7790.48 2318.88 7817.27 2335.4 7846.57 2347.34L7825.64 2418.99C7853.96 2435.49 7886.78 2443.72 7921.87 2441.77L7931.1 2367.75C7960.84 2370.36 7984.4 2370.31 8012.16 2364.36L8034.7 2434.57C8062.97 2437.13 8105.24 2421.15 8124.16 2401.22L8091.13 2335.94C8119.83 2320.97 8145.86 2301.32 8168.14 2277.92L8232.1 2325.36C8259.83 2310.4 8289.45 2265.64 8294.06 2238.09L8221.7 2199.43C8235.85 2169.07 8246.59 2148.33 8249.69 2113.01L8333.98 2110.92C8347.29 2078.29 8342.45 2031.65 8326.24 2006.46L8243.92 2018.19C8238.6 1990.75 8229.42 1964.54 8216.97 1940.25L8289.22 1893.26C8277.67 1850.8 8251.31 1816.39 8221.21 1800.99L8154.94 1857.75C8133.94 1837.82 8107.86 1818.05 8081.53 1805.01L8110.07 1727.88C8088.93 1711.15 8058.85 1703.52 8033.56 1701.25ZM7974.53 1919.08C8061.72 1926.74 8126.15 2004.2 8118.43 2092.09C8110.72 2179.98 8033.77 2245.03 7946.58 2237.37C7859.39 2229.72 7794.96 2152.25 7802.68 2064.37C7810.39 1976.48 7887.34 1911.43 7974.53 1919.08Z" fill="#2BAAE2"/>
<path opacity="0.42511" d="M3873.5 419C3873.5 419 3694.99 371.705 3315.5 339.999C2935.23 308.227 2754.93 365.509 2576.45 699.967C2397.98 1034.43 2742.96 1192.93 2754.43 1691.86C2765.89 2190.78 3215.62 2464.31 2958.15 2859.76C2700.69 3255.21 1971.47 2928.7 1724.56 3273.64C1477.66 3618.58 1483.09 4032.55 1970.53 4239.52C2457.97 4446.49 2757.93 4053.54 3674.32 4101.54C4590.7 4149.53 4297.85 4278.54 5006.12 4133.22C5714.38 3987.91 5503.58 3573.58 6542.92 3475.86C6940.41 3438.49 7368.39 4351.5 7902.05 3920.03C8319.56 3582.46 8968.04 4168.76 8968.04 4168.76" stroke="#2BAAE2" stroke-opacity="0.510574" stroke-width="15.5" stroke-linecap="round" stroke-linejoin="round" stroke-dasharray="50 50 50 50"/>
<path fill-rule="evenodd" clip-rule="evenodd" d="M5705.76 4880.25L5347.08 4833.04C5337.88 4831.83 5327.53 4823.9 5323.98 4815.32L5185.52 4481.1C5181.97 4472.52 5183.67 4459.59 5189.32 4452.22L5409.53 4165.2C5415.19 4157.83 5427.23 4152.84 5436.44 4154.06L5795.11 4201.26C5804.32 4202.47 5814.66 4210.41 5818.22 4218.98L5956.68 4553.21C5960.23 4561.79 5958.53 4574.71 5952.88 4582.08L5732.66 4869.1C5727.01 4876.47 5714.97 4881.46 5705.76 4880.25Z" stroke="#2BAAE2" stroke-opacity="0.138889" stroke-width="15.78" stroke-linecap="round" stroke-linejoin="round"/>
<path fill-rule="evenodd" clip-rule="evenodd" d="M5409.05 3297.6L5140.84 3262.3C5133.96 3261.39 5126.22 3255.46 5123.56 3249.04L5020.03 2999.12C5017.37 2992.71 5018.64 2983.04 5022.87 2977.53L5187.54 2762.91C5191.77 2757.4 5200.77 2753.67 5207.66 2754.57L5475.87 2789.87C5482.75 2790.77 5490.48 2796.71 5493.14 2803.12L5596.68 3053.04C5599.34 3059.46 5598.06 3069.13 5593.84 3074.63L5429.17 3289.26C5424.94 3294.77 5415.93 3298.5 5409.05 3297.6Z" stroke="#2BAAE2" stroke-opacity="0.138889" stroke-width="15.78" stroke-linecap="round" stroke-linejoin="round"/>
<path fill-rule="evenodd" clip-rule="evenodd" d="M8053.78 3605.2L7857.28 3493.64C7852.24 3490.78 7848.11 3483.76 7848.07 3477.96L7846.43 3252.01C7846.38 3246.21 7850.4 3239.13 7855.41 3236.19L8050.26 3121.79C8055.27 3118.85 8063.41 3118.79 8068.45 3121.66L8264.95 3233.21C8270 3236.07 8274.12 3243.09 8274.16 3248.89L8275.81 3474.85C8275.85 3480.65 8271.83 3487.73 8266.83 3490.66L8071.97 3605.06C8066.97 3608 8058.83 3608.06 8053.78 3605.2Z" stroke="#2BAAE2" stroke-opacity="0.138889" stroke-width="15.78" stroke-linecap="round" stroke-linejoin="round"/>
<path fill-rule="evenodd" clip-rule="evenodd" d="M6448.87 2272.95L6025.34 2124.86C6014.47 2121.06 6003.92 2108.81 6001.78 2097.49L5918.26 1656.66C5916.12 1645.35 5921.45 1630.08 5930.18 1622.57L6270.19 1329.83C6278.92 1322.31 6294.81 1319.3 6305.68 1323.1L6729.21 1471.19C6740.08 1474.99 6750.63 1487.25 6752.77 1498.56L6836.29 1939.39C6838.43 1950.71 6833.1 1965.97 6824.37 1973.49L6484.36 2266.23C6475.63 2273.74 6459.74 2276.75 6448.87 2272.95Z" stroke="#2BAAE2" stroke-opacity="0.138889" stroke-width="15.78" stroke-linecap="round" stroke-linejoin="round"/>
<path opacity="0.196035" fill-rule="evenodd" clip-rule="evenodd" d="M8690.16 2338.86C8604.71 2338.86 8533.74 2394.88 8524.23 2468.02C8516.12 2466.71 8507.95 2465.8 8499.71 2465.8C8430.04 2465.8 8372.85 2511.49 8372.85 2569.03C8372.85 2622.11 8421.79 2665.73 8485.2 2671.6C8485.2 2671.6 8499.8 2673.23 8505.39 2673.82C8521.35 2675.5 8538.68 2677.19 8556.75 2678.77C8583 2681.05 8608.57 2682.89 8632.66 2684.15C8655.18 2685.33 8675.81 2685.97 8694.13 2685.97C8740.14 2685.97 8784.49 2683.97 8844.13 2679.93C8850.85 2679.47 8887.61 2676.92 8897.12 2676.29C8965.15 2672.07 9018.72 2625.13 9018.72 2567.5C9018.72 2525.58 8990.09 2488.49 8946.44 2470.2C8941.79 2431.7 8905.44 2402.22 8861.8 2402.22C8851.49 2402.22 8841.42 2403.98 8831.87 2407.21C8801.53 2365.09 8748.47 2338.86 8690.16 2338.86Z" fill="#2BAAE2" fill-opacity="0.0631313" stroke="#2BAAE2" stroke-width="15.22" stroke-linecap="round" stroke-linejoin="round"/>
<path opacity="0.196035" fill-rule="evenodd" clip-rule="evenodd" d="M3887.38 827.086C3801.92 827.086 3730.95 883.106 3721.44 956.246C3713.34 954.929 3705.16 954.028 3696.93 954.027C3627.25 954.028 3570.06 999.713 3570.06 1057.25C3570.06 1110.33 3619.01 1153.96 3682.42 1159.82C3682.42 1159.82 3697.01 1161.45 3702.6 1162.04C3718.56 1163.73 3735.89 1165.42 3753.96 1166.99C3780.21 1169.28 3805.79 1171.11 3829.87 1172.37C3852.39 1173.55 3873.02 1174.19 3891.34 1174.19C3937.36 1174.19 3981.7 1172.19 4041.34 1168.15C4048.06 1167.7 4084.83 1165.14 4094.34 1164.52C4162.36 1160.3 4215.93 1113.35 4215.93 1055.73C4215.93 1013.8 4187.31 976.717 4143.66 958.428C4139 919.924 4102.66 890.447 4059.02 890.448C4048.7 890.448 4038.63 892.199 4029.08 895.431C3998.74 853.31 3945.69 827.086 3887.38 827.086Z" fill="#2BAAE2" fill-opacity="0.0631313" stroke="#2BAAE2" stroke-width="15.22" stroke-linecap="round" stroke-linejoin="round"/>
<path opacity="0.196035" fill-rule="evenodd" clip-rule="evenodd" d="M2869.24 1864.44C2783.79 1864.44 2712.82 1920.46 2703.31 1993.6C2695.2 1992.28 2687.03 1991.38 2678.79 1991.38C2609.11 1991.38 2551.92 2037.07 2551.92 2094.61C2551.92 2147.69 2600.87 2191.31 2664.28 2197.18C2664.28 2197.18 2678.88 2198.81 2684.47 2199.4C2700.42 2201.08 2717.76 2202.77 2735.82 2204.34C2762.07 2206.63 2787.65 2208.47 2811.73 2209.73C2834.26 2210.91 2854.89 2211.55 2873.2 2211.55C2919.22 2211.55 2963.56 2209.55 3023.21 2205.51C3029.93 2205.05 3066.69 2202.49 3076.2 2201.87C3144.23 2197.65 3197.79 2150.7 3197.79 2093.08C3197.79 2051.16 3169.17 2014.07 3125.52 1995.78C3120.87 1957.28 3084.52 1927.8 3040.88 1927.8C3030.57 1927.8 3020.5 1929.55 3010.95 1932.79C2980.61 1890.66 2927.55 1864.44 2869.24 1864.44Z" fill="#2BAAE2" fill-opacity="0.0631313" stroke="#2BAAE2" stroke-width="15.22" stroke-linecap="round" stroke-linejoin="round"/>
<path opacity="0.196035" fill-rule="evenodd" clip-rule="evenodd" d="M7840.32 102C7754.87 102 7683.9 158.019 7674.39 231.159C7666.28 229.843 7658.11 228.941 7649.87 228.941C7580.2 228.941 7523 274.627 7523 332.166C7523 385.245 7571.95 428.865 7635.36 434.735C7635.36 434.735 7649.96 436.365 7655.55 436.955C7671.5 438.645 7688.84 440.325 7706.9 441.905C7733.15 444.185 7758.73 446.025 7782.81 447.285C7805.34 448.465 7825.97 449.105 7844.28 449.105C7890.3 449.105 7934.64 447.105 7994.29 443.065C8001.01 442.615 8037.77 440.055 8047.28 439.425C8115.31 435.205 8168.87 388.265 8168.87 330.639C8168.87 288.716 8140.25 251.631 8096.6 233.342C8091.95 194.838 8055.6 165.36 8011.96 165.361C8001.65 165.361 7991.58 167.113 7982.03 170.344C7951.69 128.224 7898.63 102 7840.32 102Z" fill="#2BAAE2" fill-opacity="0.0631313" stroke="#2BAAE2" stroke-width="15.22" stroke-linecap="round" stroke-linejoin="round"/>
<path opacity="0.196035" fill-rule="evenodd" clip-rule="evenodd" d="M5620.02 274.836C5557.93 274.836 5506.37 315.536 5499.46 368.674C5493.57 367.718 5487.63 367.063 5481.65 367.062C5431.03 367.063 5389.48 400.254 5389.48 442.059C5389.48 480.623 5425.04 512.316 5471.11 516.579C5471.11 516.579 5481.71 517.763 5485.77 518.191C5497.37 519.416 5509.96 520.642 5523.09 521.785C5542.16 523.446 5560.74 524.781 5578.24 525.696C5594.6 526.552 5609.59 527.018 5622.9 527.018C5656.33 527.018 5688.55 525.565 5731.88 522.631C5736.76 522.3 5763.47 520.442 5770.38 519.988C5819.81 516.923 5858.72 482.815 5858.72 440.949C5858.72 410.491 5837.93 383.547 5806.21 370.26C5802.83 342.286 5776.43 320.869 5744.72 320.87C5737.23 320.87 5729.91 322.143 5722.97 324.49C5700.93 293.888 5662.38 274.836 5620.02 274.836Z" fill="#2BAAE2" fill-opacity="0.0631313" stroke="#2BAAE2" stroke-width="15.22" stroke-linecap="round" stroke-linejoin="round"/>
<path fill-rule="evenodd" clip-rule="evenodd" d="M1453.16 4798.74C1453.16 4736.25 3228.65 4685.59 5418.83 4685.59C7609.01 4685.59 9384.51 4736.25 9384.51 4798.74C9384.51 4861.23 7609.01 4911.89 5418.83 4911.89C3228.65 4911.89 1453.16 4861.23 1453.16 4798.74Z" fill="#E0E0E0"/>
<path fill-rule="evenodd" clip-rule="evenodd" d="M1675.04 4315.9C1675.04 4315.9 1660.03 4237.93 1681.47 4213.57C1702.92 4189.22 1737.59 4234.94 1750.61 4205.17C1763.63 4175.4 1723.32 4152.8 1748.79 4109.83C1768.21 4077.08 1808.76 4124.1 1829.17 4094.71C1849.58 4065.32 1806.38 4023.41 1822.08 3983.88C1837.77 3944.35 1879.88 3958.36 1891.95 3936.59C1904.27 3914.37 1861.6 3889.45 1897.49 3860.79C1936.6 3829.58 1946.21 3878.74 1979.48 3867.77C2004.49 3859.52 2020.2 3798.7 2066.34 3829.42C2105.06 3855.2 2074.49 3901.21 2077.23 3934.43C2080.67 3976.2 2113.74 3974.46 2094.27 4019.59C2081.05 4050.23 2038.58 4027.85 2022.86 4056.3C2007.15 4084.75 2057.6 4100.3 2031.41 4133.39C2005.23 4166.47 1945.99 4154.41 1930.3 4178.5C1914.6 4202.59 1956.02 4251.89 1932.52 4281.86C1909.02 4311.82 1863.87 4289.22 1835.21 4315.5C1806.55 4341.77 1854.78 4379.85 1825.89 4405.99C1797.01 4432.13 1708.6 4413.1 1708.6 4413.1L1675.04 4315.9Z" fill="#0081C3"/>
<path fill-rule="evenodd" clip-rule="evenodd" d="M1544.92 4352.26C1544.92 4352.26 1470.67 4274.79 1479.86 4233.19C1489.06 4191.58 1538.83 4216.45 1533.72 4174.38C1528.62 4132.32 1479.84 4136.47 1489.23 4071.97C1498.45 4008.73 1539.53 4039.84 1543.85 3993.27C1548.16 3946.7 1506.87 3948.84 1498.1 3894.04C1489.34 3839.25 1547.07 3834.46 1549.66 3802.11C1552.05 3772.25 1484.36 3763.73 1508.39 3707.67C1534.56 3646.61 1568.91 3681.24 1602.3 3646.77C1627.4 3620.86 1657.28 3552.02 1714.39 3555.55C1772.23 3559.11 1743.87 3621 1770.96 3656.43C1805.03 3700.99 1844.77 3677.02 1852.85 3740.61C1858.33 3783.78 1808.7 3787.25 1811.68 3821.25C1814.67 3855.24 1865 3855.57 1856.18 3910.13C1847.35 3964.69 1789.26 3982.04 1786.28 4022.33C1783.5 4059.78 1847.34 4093.28 1839.62 4142.55C1831.89 4191.81 1781.84 4200.01 1765.08 4248.58C1748.32 4297.14 1813.22 4304.25 1796.1 4352.82C1778.97 4401.39 1655.85 4438.93 1655.85 4438.93L1544.92 4352.26Z" fill="#2BAAE2"/>
<path fill-rule="evenodd" clip-rule="evenodd" d="M1575.5 4433.13C1575.5 4433.13 1468.26 4414.83 1446.36 4380.71C1424.46 4346.59 1478.4 4326.97 1447.16 4301.28C1415.92 4275.6 1387.75 4309.74 1344.92 4264.55C1312.28 4230.12 1366.71 4197.77 1338.43 4163.24C1310.14 4128.7 1260.93 4165.95 1218.9 4133.79C1176.88 4101.62 1207.93 4055.11 1185.94 4033.24C1163.51 4010.91 1119.2 4054.49 1097.04 4001.39C1072.91 3943.54 1135.04 3948.15 1133.18 3904.1C1131.78 3870.98 1064.25 3831.75 1116.68 3785.88C1160.68 3747.38 1205.43 3799.77 1246.13 3807.45C1297.33 3817.11 1306.46 3776.36 1353.91 3814.97C1386.12 3841.18 1344.93 3885.36 1373.68 3913.88C1402.42 3942.4 1438.14 3886.26 1468.9 3929.04C1499.66 3971.81 1478.58 4029.28 1502.11 4056.34C1525.64 4083.39 1585.28 4059.89 1613.21 4098.36C1641.14 4136.84 1609.85 4177.21 1631.6 4220.73C1653.36 4264.25 1704.22 4225.28 1725.75 4269.03C1747.27 4312.78 1694.38 4424.81 1694.38 4424.81L1575.5 4433.13Z" fill="#0081C3"/>
<path fill-rule="evenodd" clip-rule="evenodd" d="M1788.15 4470.59L1747.77 4745.21L1584.78 4743.99L1557.43 4468.26L1788.15 4470.59Z" fill="#135EAB"/>
<path fill-rule="evenodd" clip-rule="evenodd" d="M1786.54 4480.83L1558.23 4477.73L1561.83 4503.84L1783.03 4504.8L1786.54 4480.83Z" fill="#2E3690"/>
<path fill-rule="evenodd" clip-rule="evenodd" d="M1835.89 4421.79L1504.24 4416.26L1511.73 4479.67L1831.35 4483.16L1835.89 4421.79Z" fill="#135EAB"/>
<path fill-rule="evenodd" clip-rule="evenodd" d="M8902.97 4277.32C8902.97 4277.32 8912.79 4186.13 8885.77 4160.15C8858.75 4134.17 8823.22 4190.11 8805.38 4157.1C8787.54 4124.08 8831.78 4094.2 8798.34 4047.18C8772.86 4011.34 8730.68 4069.35 8704.37 4037.47C8678.06 4005.59 8723.78 3953.21 8701.92 3909.21C8680.07 3865.21 8632.94 3885.37 8616.96 3861.47C8600.66 3837.07 8647.39 3804.29 8603.33 3774.75C8555.32 3742.56 8548.96 3800.07 8509.62 3790.63C8480.04 3783.53 8456.14 3715.02 8405.97 3754.8C8363.86 3788.18 8403.45 3838.22 8403.48 3876.71C8403.52 3925.13 8365.29 3926.3 8392.02 3976.38C8410.17 4010.38 8456.92 3980.55 8477.74 4011.8C8498.55 4043.04 8441.97 4065.77 8475.28 4101.35C8508.59 4136.93 8575.61 4117.37 8595.99 4143.6C8616.36 4169.82 8573.4 4230.54 8603.32 4262.79C8633.24 4295.03 8683.05 4264.7 8718.56 4292.19C8754.06 4319.69 8702.2 4368.14 8737.95 4395.47C8773.7 4422.8 8873.65 4392.42 8873.65 4392.42L8902.97 4277.32Z" fill="#0081C3"/>
<path fill-rule="evenodd" clip-rule="evenodd" d="M9056.24 4306.71C9056.24 4306.71 9134.28 4210.44 9119.72 4163.43C9105.15 4116.42 9050.24 4149.81 9052.09 4100.89C9053.94 4051.98 9110.49 4052.09 9093.5 3978.75C9076.83 3906.83 9032.52 3946.57 9023.1 3893.38C9013.67 3840.19 9061.41 3838.7 9066.25 3774.78C9071.1 3710.87 9004.18 3710.89 8998.1 3673.89C8992.5 3639.75 9069.59 3623.46 9036.57 3561.23C9000.59 3493.45 8964.37 3536.6 8922.64 3500.12C8891.26 3472.7 8850.28 3396.32 8784.87 3405.84C8718.64 3415.49 8757.21 3484.01 8729.41 3527.39C8694.46 3581.95 8646.43 3558.15 8643.21 3632.13C8641.03 3682.35 8698.5 3681.59 8698.32 3721.01C8698.14 3760.42 8640.23 3765.62 8655.61 3827.58C8671 3889.54 8739.52 3903.96 8746.82 3950.05C8753.59 3992.88 8683.31 4037.56 8696.93 4093.53C8710.54 4149.5 8768.94 4154.15 8792.88 4208.45C8816.83 4262.74 8742.79 4277.15 8767.16 4331.41C8791.52 4385.68 8936.84 4417.11 8936.84 4417.11L9056.24 4306.71Z" fill="#2BAAE2"/>
<path fill-rule="evenodd" clip-rule="evenodd" d="M9028.77 4402.73C9028.77 4402.73 9150.47 4371.41 9172.41 4330.03C9194.35 4288.65 9130.39 4271.24 9163.89 4238.68C9197.39 4206.12 9233.08 4242.73 9278.06 4186.61C9312.33 4143.84 9246.58 4111.83 9275.83 4069.36C9305.08 4026.9 9365.3 4065.07 9410.6 4024.02C9455.89 3982.97 9415.7 3932.4 9438.91 3905.12C9462.6 3877.27 9517.77 3923.19 9538.19 3859.95C9560.43 3791.04 9489.35 3802.3 9487.28 3751.42C9485.72 3713.16 9559.7 3661.54 9494.96 3613.76C9440.62 3573.65 9394.13 3638.23 9348 3650.98C9290 3667 9275.59 3620.96 9224.66 3669.95C9190.09 3703.21 9241.74 3750.12 9211.38 3785.7C9181.02 3821.28 9134.53 3760.08 9103.22 3812.27C9071.91 3864.45 9101.67 3928.59 9077.17 3961.98C9052.68 3995.37 8981.78 3974.03 8953.31 4021C8924.85 4067.96 8964.73 4111.43 8943.86 4163.61C8922.99 4215.8 8860.7 4175.81 8840.11 4228.23C8819.52 4280.65 8891.14 4404.54 8891.14 4404.54L9028.77 4402.73Z" fill="#0081C3"/>
<path fill-rule="evenodd" clip-rule="evenodd" d="M8775.51 4458.93L8822.15 4776.13L9010.42 4774.72L9042.01 4456.23L8775.51 4458.93Z" fill="#135EAB"/>
<path fill-rule="evenodd" clip-rule="evenodd" d="M8777.38 4470.75L9041.08 4467.17L9036.93 4497.32L8781.42 4498.44L8777.38 4470.75Z" fill="#2E3690"/>
<path fill-rule="evenodd" clip-rule="evenodd" d="M8720.37 4402.56L9103.45 4396.16L9094.8 4469.41L8725.61 4473.44L8720.37 4402.56Z" fill="#135EAB"/>
<path d="M2234.17 4730C2138.49 4730 2045 4718.74 1953.72 4696.23C1863.53 4672.53 1789.29 4641.13 1731 4602.03L1856.38 4296.33C1911.37 4330.69 1972.96 4358.54 2041.15 4379.87C2109.34 4400.01 2174.78 4410.08 2237.47 4410.08C2291.36 4410.08 2329.86 4404.75 2352.95 4394.09C2376.05 4382.24 2387.6 4365.06 2387.6 4342.54C2387.6 4316.48 2372.2 4296.93 2341.41 4283.89C2311.71 4270.86 2262.22 4256.64 2192.93 4241.24C2103.84 4221.09 2029.6 4199.77 1970.21 4177.25C1910.82 4153.56 1859.13 4115.64 1815.14 4063.5C1771.14 4010.18 1749.15 3938.5 1749.15 3848.45C1749.15 3770.25 1769.49 3699.15 1810.19 3635.17C1850.88 3571.19 1911.37 3520.83 1991.66 3484.1C2073.05 3447.37 2171.48 3429 2286.96 3429C2366.15 3429 2443.69 3438.48 2519.58 3457.44C2596.57 3475.21 2664.21 3501.87 2722.5 3537.42L2605.36 3841.34C2492.08 3779.72 2384.85 3748.92 2283.66 3748.92C2183.58 3748.92 2133.54 3774.99 2133.54 3827.12C2133.54 3852 2148.39 3870.96 2178.08 3883.99C2207.78 3895.84 2256.72 3908.88 2324.91 3923.1C2412.89 3940.87 2487.13 3961.6 2547.62 3985.3C2608.11 4007.81 2660.36 4045.14 2704.35 4097.27C2749.44 4149.41 2771.99 4220.5 2771.99 4310.55C2771.99 4388.75 2751.64 4459.85 2710.95 4523.83C2670.25 4586.63 2609.21 4636.99 2527.83 4674.9C2447.54 4711.63 2349.65 4730 2234.17 4730Z" fill="#2E3690"/>
<path d="M3493.3 4730C3369.02 4730 3257.39 4702.16 3158.4 4646.47C3059.42 4590.78 2981.88 4513.76 2925.79 4415.41C2869.7 4315.88 2841.65 4203.91 2841.65 4079.5C2841.65 3955.09 2869.7 3843.71 2925.79 3745.36C2981.88 3645.83 3059.42 3568.22 3158.4 3512.53C3257.39 3456.84 3369.02 3429 3493.3 3429C3617.58 3429 3729.21 3456.84 3828.2 3512.53C3927.18 3568.22 4004.72 3645.83 4060.81 3745.36C4116.9 3843.71 4144.95 3955.09 4144.95 4079.5C4144.95 4203.91 4116.9 4315.88 4060.81 4415.41C4004.72 4513.76 3927.18 4590.78 3828.2 4646.47C3729.21 4702.16 3617.58 4730 3493.3 4730ZM3493.3 4390.53C3541.69 4390.53 3585.14 4378.09 3623.63 4353.21C3663.22 4327.14 3694.57 4291 3717.67 4244.79C3740.76 4197.4 3752.31 4142.3 3752.31 4079.5C3752.31 4016.7 3740.76 3962.2 3717.67 3915.99C3694.57 3868.59 3663.22 3832.45 3623.63 3807.57C3585.14 3781.5 3541.69 3768.47 3493.3 3768.47C3444.91 3768.47 3400.91 3781.5 3361.32 3807.57C3322.83 3832.45 3292.03 3868.59 3268.93 3915.99C3245.84 3962.2 3234.29 4016.7 3234.29 4079.5C3234.29 4142.3 3245.84 4197.4 3268.93 4244.79C3292.03 4291 3322.83 4327.14 3361.32 4353.21C3400.91 4378.09 3444.91 4390.53 3493.3 4390.53Z" fill="#2E3690"/>
<path d="M4838.92 4730C4661.85 4730 4523.82 4678.46 4424.84 4575.37C4325.85 4472.29 4276.36 4327.73 4276.36 4141.71V3457.44H4665.7V4129.27C4665.7 4220.5 4680.55 4286.85 4710.24 4328.33C4741.04 4369.8 4785.03 4390.53 4842.22 4390.53C4899.41 4390.53 4942.86 4369.8 4972.55 4328.33C5003.35 4286.85 5018.75 4220.5 5018.75 4129.27V3457.44H5401.49V4141.71C5401.49 4327.73 5351.99 4472.29 5253.01 4575.37C5154.02 4678.46 5016 4730 4838.92 4730Z" fill="#2E3690"/>
<path d="M6074.88 4388.75H5969.29V4701.56H5579.95V3457.44H6135.92C6242.6 3457.44 6335.54 3476.4 6414.73 3514.31C6493.91 3552.23 6554.95 3606.73 6597.85 3677.83C6640.74 3748.92 6662.19 3831.86 6662.19 3926.65C6662.19 4015.52 6643.49 4093.13 6606.1 4159.48C6568.7 4225.83 6514.81 4278.56 6444.42 4317.66L6686.93 4701.56H6271.2L6074.88 4388.75ZM6269.55 3926.65C6269.55 3880.44 6256.35 3844.89 6229.95 3820.01C6203.56 3793.94 6163.96 3780.91 6111.17 3780.91H5969.29V4072.39H6111.17C6163.96 4072.39 6203.56 4059.95 6229.95 4035.07C6256.35 4009 6269.55 3972.86 6269.55 3926.65Z" fill="#2E3690"/>
<path d="M7406.41 4730C7284.33 4730 7174.35 4702.75 7076.47 4648.24C6978.58 4592.55 6901.59 4515.54 6845.5 4417.19C6790.51 4317.66 6763.01 4205.1 6763.01 4079.5C6763.01 3953.9 6790.51 3841.93 6845.5 3743.59C6901.59 3644.06 6978.58 3567.04 7076.47 3512.53C7174.35 3456.84 7284.33 3429 7406.41 3429C7518.6 3429 7618.68 3450.33 7706.67 3492.98C7794.65 3535.64 7867.24 3597.25 7924.43 3677.83L7678.62 3914.21C7607.13 3817.05 7523 3768.47 7426.21 3768.47C7344.82 3768.47 7279.38 3796.91 7229.89 3853.78C7180.4 3909.47 7155.65 3984.71 7155.65 4079.5C7155.65 4174.29 7180.4 4250.12 7229.89 4307C7279.38 4362.69 7344.82 4390.53 7426.21 4390.53C7523 4390.53 7607.13 4341.95 7678.62 4244.79L7924.43 4481.17C7867.24 4561.75 7794.65 4623.36 7706.67 4666.02C7618.68 4708.67 7518.6 4730 7406.41 4730Z" fill="#2E3690"/>
<path d="M8997 4385.2V4701.56H8036.85V3457.44H8975.55V3773.8H8419.59V3919.54H8907.91V4221.69H8419.59V4385.2H8997Z" fill="#2E3690"/>
<path fill-rule="evenodd" clip-rule="evenodd" d="M2305.91 2027.6C2305.91 1579.02 2670.22 1215.37 3119.62 1215.37C3569.02 1215.37 3933.33 1579.02 3933.33 2027.6C3933.33 2367.34 3712.58 2665.17 3415.07 2786.9C3403.65 2791.57 3392.51 2792.82 3382.85 2786.73C3374.59 2781.52 3365.98 2761.6 3365.98 2761.6L3186.68 2293.52C3186.41 2292.83 3180.02 2274.75 3187.01 2262.96C3193.99 2251.17 3214.61 2246.36 3214.61 2246.36C3214.61 2246.36 3367.61 2176.85 3359.49 2019.67C3352.21 1878.66 3241.81 1789.88 3121.75 1786.45C3001.69 1783.03 2884.23 1880.29 2879.27 2005.97C2872.52 2176.71 2990.63 2229.77 3030.04 2246.59C3030.04 2246.59 3046.81 2253.84 3051.24 2263.85C3055.67 2273.86 3052.78 2289.13 3052.78 2289.13L2868.62 2767.05C2868.62 2767.05 2865.78 2781.03 2853.56 2785.9C2841.34 2790.77 2831.68 2791.41 2819.73 2786.52C2522.26 2664.95 2305.91 2367.55 2305.91 2027.6Z" fill="#2E3690" stroke="#272361" stroke-width="30" stroke-linejoin="round"/>
<path fill-rule="evenodd" clip-rule="evenodd" d="M2199.09 3305.61L2216.07 3390.92L2245.35 3389.69L2244.93 3286.09L2199.09 3305.61Z" fill="#FDBC8C"/>
<path fill-rule="evenodd" clip-rule="evenodd" d="M2377.37 3306.19L2384.83 3377.95L2412.19 3375.47L2409.7 3298.02L2377.37 3306.19Z" fill="#FDBC8C"/>
<path fill-rule="evenodd" clip-rule="evenodd" d="M2203.15 3380.28C2203.15 3380.28 2179.08 3415.7 2197.29 3444.53L2255.61 3449.74C2255.61 3449.74 2329.89 3463.98 2349.64 3456.79C2369.4 3449.6 2334.3 3427.51 2334.3 3427.51L2281.53 3398.34L2250.98 3378.89L2203.15 3380.28Z" fill="#272361"/>
<path fill-rule="evenodd" clip-rule="evenodd" d="M2374.07 3367.09C2374.07 3367.09 2350 3402.52 2368.21 3431.34L2426.53 3436.55C2426.53 3436.55 2500.81 3450.8 2520.57 3443.61C2540.32 3436.42 2505.22 3414.32 2505.22 3414.32L2452.46 3385.15L2421.9 3365.7L2374.07 3367.09Z" fill="#272361"/>
<path fill-rule="evenodd" clip-rule="evenodd" d="M2127 2429.77C2127 2429.77 2118.86 3115.47 2194.93 3327.94C2194.93 3327.94 2212.97 3337.16 2229.13 3336.48C2245.3 3335.79 2252.27 3322.88 2252.27 3322.88C2266.66 3170.51 2261.51 2933.42 2264.7 2776.79C2266.53 2686.92 2271.61 2615.24 2271.61 2615.24C2271.61 2615.24 2295.39 3121.92 2366.25 3322.52C2366.25 3322.52 2379.98 3331.07 2394.82 3330.83C2409.65 3330.58 2425.6 3321.54 2425.6 3321.54C2456.76 3099.47 2386.29 2431.58 2386.29 2431.58L2127 2429.77Z" fill="#2E3690"/>
<path fill-rule="evenodd" clip-rule="evenodd" d="M2233.53 2528.62C2233.53 2528.62 2234.88 2567.35 2244.49 2588.54C2254.09 2609.72 2271.95 2613.38 2271.95 2613.38C2271.95 2613.38 2272.01 2618.13 2268.74 2735.83C2268.5 2744.46 2268.95 2797.38 2268.86 2805.96C2267.71 2914.39 2279.4 3000.12 2263.02 3160.12C2245.41 3332.12 2248.36 3323.56 2248.36 3323.56C2248.36 3323.56 2263.35 3121.37 2258.21 2944.76C2252.92 2763.19 2260.88 2618.66 2260.88 2618.66C2260.88 2618.66 2247.54 2604.53 2239.52 2595.55C2225.42 2579.75 2233.53 2528.62 2233.53 2528.62Z" fill="#272361"/>
<path fill-rule="evenodd" clip-rule="evenodd" d="M2587.61 2045.76C2587.61 2045.76 2578.91 2064.34 2578.76 2079.45C2578.7 2085.28 2527.39 2131.42 2527.39 2131.42C2527.39 2131.42 2539.12 2154.84 2552.82 2146.1C2570.42 2134.89 2597.67 2099.59 2601.54 2099.33C2613.78 2098.49 2626.24 2092.69 2626.24 2092.69C2626.24 2092.69 2715.94 2040.39 2708.63 2033.69C2701.31 2026.98 2680.93 2050.83 2676.16 2046.34C2671.39 2041.85 2714.97 2014.86 2707.24 2008.37C2699.51 2001.87 2672.18 2037.42 2668.79 2033.86C2665.4 2030.31 2701.64 2000.37 2693.69 1994.15C2685.73 1987.92 2656.55 2027.86 2651.97 2024.53C2647.39 2021.19 2683.04 1985.55 2675.37 1980.82C2667.7 1976.1 2643.64 2017.88 2630.92 2019.63C2618.2 2021.39 2635.17 1983.46 2624.49 1987.85C2613.81 1992.25 2587.61 2045.76 2587.61 2045.76Z" fill="#FDBC8C"/>
<path fill-rule="evenodd" clip-rule="evenodd" d="M2166.41 1738.52C2166.41 1738.52 2185.26 1787.01 2185.26 1820.87C2185.26 1854.73 2176.58 1886.03 2176.58 1886.03C2176.58 1886.03 2156.2 1893.54 2103.39 1915.77C2100.92 1916.81 2098.38 1917.88 2095.77 1918.98C2040.04 1942.54 2211.23 1958.97 2211.23 1958.97L2357.53 1934.76C2357.53 1934.76 2339.43 1910.04 2306.43 1898.07C2295.17 1893.98 2273.75 1887.67 2271.25 1880.56C2265.41 1863.97 2260.33 1844.85 2259.39 1826.84C2256.99 1780.83 2281.61 1741.99 2281.61 1741.99L2166.41 1738.52Z" fill="#FDBC8C"/>
<path fill-rule="evenodd" clip-rule="evenodd" d="M2166.41 1738.52C2166.41 1738.52 2174.93 1780.57 2174.93 1814.43C2174.93 1848.29 2166.41 1873.96 2166.41 1873.96C2166.41 1873.96 2196.6 1843.09 2221.63 1833.67C2246.66 1824.24 2266.15 1810.5 2266.15 1810.5C2266.15 1810.5 2266.13 1796.33 2267.1 1787C2271.18 1747.53 2281.61 1741.99 2281.61 1741.99L2166.41 1738.52Z" fill="#DFA58B"/>
<path fill-rule="evenodd" clip-rule="evenodd" d="M2125.53 1905.95C2125.53 1905.95 2175.01 1915.77 2220.87 1916.19C2278.02 1916.71 2316.28 1902.7 2316.28 1902.7C2316.28 1902.7 2432.16 1924.53 2439.78 1973.49C2449.91 2038.48 2461.2 2143.25 2463.12 2178.77C2465.04 2214.29 2437.75 2202.14 2480.1 2165.23C2525.14 2125.98 2578.11 2082.05 2578.11 2082.05C2578.11 2082.05 2577.03 2088.4 2583.07 2095.25C2589.11 2102.11 2602.34 2099.79 2602.34 2099.79C2602.34 2099.79 2575.68 2146.73 2525.5 2225.89C2481.54 2295.22 2441.19 2304.47 2416.91 2288.93C2392.63 2273.4 2383.13 2192.02 2378.92 2174.19C2374.71 2156.35 2360.39 2198.08 2374.96 2264.05C2389.53 2330.02 2419.28 2392.73 2406.23 2449.74C2393.19 2506.74 2309.84 2512.36 2258.86 2513.92C2202.7 2515.64 2083.3 2523.1 2075.59 2451.4C2066.16 2363.8 2082.56 2354.4 2073.01 2240.92C2071.78 2226.37 2139.14 2283.5 2068.98 2301.6C2043.55 2308.15 1991.15 2326.8 1978.28 2296.31C1967.32 2270.32 1975.82 2231.58 1982.34 2169.81C1988.85 2108.04 1999.23 2064.37 2009.14 2006.06C2020.59 1938.69 2086.16 1922.96 2086.16 1922.96L2125.53 1905.95Z" fill="#2BAAE2"/>
<path fill-rule="evenodd" clip-rule="evenodd" d="M2305.23 1678.67C2305.23 1663.39 2313.55 1651 2323.82 1651C2334.1 1651 2342.42 1663.39 2342.42 1678.67C2342.42 1693.94 2334.1 1706.33 2323.82 1706.33C2313.55 1706.33 2305.23 1693.94 2305.23 1678.67Z" stroke="#E0E0E0" stroke-width="8.77" stroke-linecap="round" stroke-linejoin="round"/>
<path fill-rule="evenodd" clip-rule="evenodd" d="M2117.22 1597.01C2096.72 1626.13 2122.72 1668.48 2127.16 1701.05C2128.85 1713.42 2105.92 1679.52 2102.1 1702.17C2100.06 1714.26 2119.32 1755.05 2131.92 1743.15C2144.53 1731.26 2158.23 1765.51 2168.72 1773.37C2194.49 1792.64 2221.56 1808.24 2259.51 1805.98C2329.22 1801.84 2323.64 1720.08 2317.91 1660.78C2314.77 1628.26 2306.44 1602.88 2289.36 1585.52C2275.29 1571.21 2254.85 1562.82 2230.36 1556.2C2176.15 1541.53 2145.51 1556.83 2117.22 1597.01Z" fill="#FDBC8C"/>
<path fill-rule="evenodd" clip-rule="evenodd" d="M2311.84 1674.33C2312.54 1670.64 2315.28 1667.98 2318.45 1667.37C2319.6 1667.15 2320 1686.11 2320 1686.11C2319.55 1686.06 2318.92 1685.99 2318.46 1685.86C2313.84 1684.54 2310.88 1679.38 2311.84 1674.33Z" fill="#272361"/>
<path d="M2340.75 1682L2280.02 1686.86L2229.43 1685.88" stroke="#E0E0E0" stroke-width="8.86" stroke-linejoin="round"/>
<path fill-rule="evenodd" clip-rule="evenodd" d="M2187.85 1880.55C2221.64 1881.89 2327.61 1851.14 2327.61 1851.14C2327.61 1851.14 2299.96 1839.33 2277.52 1775.31C2266.46 1743.78 2270.49 1674.05 2270.49 1674.05C2270.49 1674.05 2279.68 1667.42 2295.28 1652.94C2310.88 1638.46 2312.22 1631.8 2320.07 1621.72C2328.88 1610.42 2322.65 1566.13 2299.88 1551.17C2288.72 1543.85 2237.35 1533.4 2208.63 1538.24C2174.15 1544.05 2180.19 1546.39 2174.1 1546.95C2168.01 1547.52 2163.13 1542.78 2131.38 1551.65C2078.69 1566.38 2071.87 1644.59 2054 1683.5C2033.55 1728.01 2018.29 1783.89 2051.75 1833.15C2085.21 1882.41 2154.07 1879.2 2187.85 1880.55Z" fill="#2E3690"/>
<path fill-rule="evenodd" clip-rule="evenodd" d="M2302.28 1741.21C2302.6 1739.45 2307.03 1741.74 2312.19 1743.05C2316.33 1744.11 2318.96 1743.83 2318.96 1743.83C2318.96 1743.83 2318.9 1744.89 2318.22 1748.54C2317.55 1752.18 2316.69 1755.28 2316.69 1755.28C2307.23 1751.84 2301.25 1746.9 2302.28 1741.21Z" fill="#E0E0E0"/>
<path fill-rule="evenodd" clip-rule="evenodd" d="M2301.45 1644.54L2310.45 1640.51L2314.69 1638.6C2314.69 1638.6 2315.27 1638.3 2315.97 1642.2C2316.64 1646.02 2316.05 1646.06 2316.05 1646.06L2305.86 1650.6C2302.41 1652.14 2298.63 1652.04 2297.41 1650.36C2296.19 1648.69 2298 1646.09 2301.45 1644.54Z" fill="#272361"/>
<path fill-rule="evenodd" clip-rule="evenodd" d="M2077.12 2086.09C2077.12 2086.09 2059.73 2132.28 2052.46 2170.37C2045.19 2208.47 2048.05 2238.48 2048.05 2238.48L2076.01 2232.58C2076.01 2232.58 2074.1 2233.91 2072.57 2197.41C2070.8 2155.08 2077.12 2086.09 2077.12 2086.09Z" fill="#1172BA"/>
<path fill-rule="evenodd" clip-rule="evenodd" d="M6692.67 4427.15L6605.88 4488.04L6617.33 4518.19L6721.88 4476.64L6692.67 4427.15Z" fill="#FDBC8C"/>
<path fill-rule="evenodd" clip-rule="evenodd" d="M6734.67 4650.15L6745.42 4741.73L6779.69 4745.9L6788.25 4643.78L6734.67 4650.15Z" fill="#FDBC8C"/>
<path fill-rule="evenodd" clip-rule="evenodd" d="M6612.63 4482.78C6612.63 4482.78 6583.95 4469.45 6562.48 4503.19L6584.27 4552.79C6584.27 4552.79 6609.69 4618.47 6623.29 4637.12C6630.79 4647.41 6652.35 4633.01 6649.9 4617.78C6646.82 4598.58 6639.95 4590.32 6636.69 4563.87C6633.43 4537.43 6627 4514.22 6627 4514.22C6627 4514.22 6617.71 4508.23 6613.96 4499.43C6610.2 4490.64 6612.63 4482.78 6612.63 4482.78Z" fill="#272361"/>
<path fill-rule="evenodd" clip-rule="evenodd" d="M6744.22 4733.15C6744.22 4733.15 6717.29 4755.36 6736.42 4785.65L6797.94 4794.08C6797.94 4794.08 6860.79 4800.86 6884.63 4801.43C6902.93 4801.87 6899.25 4771.28 6884.5 4766.48C6869.75 4761.68 6848.88 4757.72 6831.4 4750.48C6814.35 4743.43 6780.63 4737.33 6780.63 4737.33C6780.63 4737.33 6770.1 4743.95 6757.87 4741C6748.91 4738.84 6744.22 4733.15 6744.22 4733.15Z" fill="#272361"/>
<path fill-rule="evenodd" clip-rule="evenodd" d="M6462.23 3756.42C6462.23 3756.42 6417.31 3921.97 6496.44 3994.94C6554.38 4048.37 6832.35 4272.49 6860.83 4309.11C6879.28 4332.83 6810.6 4336.64 6760.81 4368.54C6711.03 4400.43 6671.21 4434.51 6671.21 4434.51C6671.21 4434.51 6676.25 4457.81 6684.42 4468.22C6692.59 4478.64 6702.88 4490.74 6702.88 4490.74C6702.88 4490.74 6844.54 4453.01 6908.71 4407.28C6972.88 4361.55 7015.45 4355 6990.63 4282.97C6944.92 4150.27 6636.17 3897.93 6636.17 3897.93C6636.17 3897.93 6654.14 3998.15 6668.44 4093.78C6676.62 4148.5 6698.85 4232.27 6702.58 4298.3C6710.76 4443.16 6696.52 4575.77 6729.54 4669.23C6729.54 4669.23 6744.81 4672.6 6760.4 4672.34C6775.99 4672.08 6792.48 4666.18 6792.48 4666.18C6799.45 4616.47 6810.61 4539.47 6806.11 4440.59C6801.6 4341.71 6815.85 4329.91 6810.25 4254.48C6806.08 4198.28 6821.65 4173.61 6817.48 4119.57C6812.08 4049.7 6817.74 4062.65 6811.65 3953.94C6806.8 3867.19 6755.52 3749.84 6755.52 3749.84L6462.23 3756.42Z" fill="#272361"/>
<path fill-rule="evenodd" clip-rule="evenodd" d="M6519.56 3004.88C6519.56 3004.88 6528.5 3049.06 6528.5 3084.64C6528.5 3120.22 6521.08 3145.12 6521.08 3145.12C6521.08 3145.12 6512.5 3151.12 6500.25 3155.54C6488.01 3159.96 6471.88 3167.07 6471.88 3167.07C6471.88 3167.07 6530.57 3208.17 6587.15 3214.95C6643.73 3221.72 6698.42 3189.9 6698.42 3189.9C6689.08 3184.03 6675.69 3176.16 6661.84 3167.51C6647.98 3158.87 6636.92 3150.88 6634.79 3148.23C6623.21 3133.74 6625.21 3112.69 6624.23 3094.02C6621.71 3045.67 6640.59 3008.52 6640.59 3008.52L6519.56 3004.88Z" fill="#FDBC8C"/>
<path fill-rule="evenodd" clip-rule="evenodd" d="M6519.56 3004.88C6519.56 3004.88 6528.5 3049.06 6528.5 3084.64C6528.5 3120.22 6519.56 3147.19 6519.56 3147.19C6519.56 3147.19 6551.28 3114.76 6577.58 3104.85C6603.88 3094.95 6624.35 3080.51 6624.35 3080.51C6624.35 3080.51 6624.33 3065.62 6625.34 3055.81C6629.63 3014.35 6640.59 3008.52 6640.59 3008.52L6519.56 3004.88Z" fill="#DFA58B"/>
<path fill-rule="evenodd" clip-rule="evenodd" d="M6987.71 3592.5C6986.9 3594.13 6935.5 3583.38 6882.67 3581.73C6829.84 3580.09 6794.15 3581.49 6782.46 3581.4C6766.2 3581.28 6775.01 3560.9 6777.67 3546.08C6785.37 3503.31 6805.47 3476.83 6812.5 3426.69C6819.52 3376.54 6805.49 3360.07 6805.77 3345.51C6806.83 3290.63 6763.65 3338 6758.23 3338.29C6731.55 3339.69 6714.28 3497.99 6708.34 3551.56C6704.53 3586 6703.6 3624.9 6730.23 3630.01C6749.28 3633.66 6812.51 3636.09 6869.4 3633.87C6932.5 3631.4 6988.75 3624.02 6988.75 3624.02C6988.75 3624.02 7027.69 3645.36 7057.3 3648.25C7086.92 3651.14 7104.43 3654.42 7104.9 3649.33C7105.62 3641.51 7062.07 3635.11 7059.94 3631.67C7057.99 3628.52 7110 3637.93 7110.71 3628.68C7111.41 3619.43 7060.22 3619.44 7059.59 3616.17C7058.78 3611.96 7105.59 3618.16 7105.61 3608.53C7105.63 3602.45 7057.27 3601.72 7057.27 3601.72C7057.27 3601.72 7099.92 3594.5 7099.19 3590.04C7097.98 3582.68 7047.42 3590.58 7044.59 3588.65C7039.81 3585.4 7032.77 3586.55 7032 3582.72C7031.08 3578.07 7055.42 3572.9 7054.8 3568.84C7053.81 3562.27 7035.88 3566.67 7019.11 3572.58C7002.33 3578.49 6990.89 3586.1 6987.71 3592.5Z" fill="#FDBC8C"/>
<path fill-rule="evenodd" clip-rule="evenodd" d="M6503.31 3154.4C6503.31 3154.4 6527.12 3199.46 6575 3202.79C6615.95 3205.63 6651.32 3161.77 6651.32 3161.77C6651.32 3161.77 6688.19 3165.72 6749.22 3195.42C6804.6 3222.38 6816.76 3303.14 6816.76 3303.14C6816.76 3303.14 6830.04 3371.97 6820.57 3391.34C6820.57 3391.34 6807.13 3396.24 6787.55 3397.06C6767.96 3397.88 6745.21 3391.74 6745.21 3391.74C6745.21 3391.74 6755.5 3465.92 6767.96 3562.02C6787.69 3714.26 6797.45 3830.48 6797.45 3830.48C6797.45 3830.48 6702.39 3849.7 6632.73 3853.94C6563.08 3858.18 6447.36 3858.56 6447.36 3858.56C6447.36 3858.56 6435.98 3722.21 6424.55 3637.96C6413.13 3553.71 6429.37 3560.9 6408.36 3454.27C6392.69 3374.71 6351.02 3345.39 6346.64 3276.54C6342.35 3209.16 6503.31 3154.4 6503.31 3154.4Z" fill="#0081C3"/>
<path fill-rule="evenodd" clip-rule="evenodd" d="M6503.33 3154.22C6503.33 3154.22 6548.67 3195.72 6583.94 3195.5C6626.26 3195.24 6650.06 3160 6650.06 3160C6650.06 3160 6652.79 3159.5 6655.75 3161.26C6658.32 3162.79 6658.79 3165.49 6658.79 3165.49C6658.79 3165.49 6630.85 3204.33 6586.94 3204.82C6533.14 3205.42 6493.27 3157.21 6493.27 3157.21C6493.27 3157.21 6494.57 3155.47 6498.19 3154.29C6500.91 3153.4 6503.33 3154.22 6503.33 3154.22Z" fill="#1172BA"/>
<path fill-rule="evenodd" clip-rule="evenodd" d="M6490.77 3300.56C6494.34 3245.37 6475.87 3202.25 6442.09 3198.79C6407.13 3195.2 6385.85 3204.28 6346.86 3307.51C6338.31 3330.15 6344.78 3370.99 6345.56 3392.54C6345.81 3399.63 6354.31 3400.16 6354.31 3400.16C6357.41 3401.4 6363.7 3424.62 6391.5 3427.05C6419.31 3429.49 6461.46 3420.67 6461.46 3420.67C6485.32 3399.27 6487.5 3351.2 6490.77 3300.56Z" fill="#135EAB"/>
<path fill-rule="evenodd" clip-rule="evenodd" d="M6572 3627.29L6572.06 3616.29C6572.08 3613.4 6574.61 3611.02 6577.71 3610.97L6854.26 3606.32C6857.37 3606.27 6860.94 3604.1 6862.23 3601.48L6997.29 3325.86C6998.59 3323.23 7005.7 3313.25 7008.71 3313.98L7032.46 3315.06C7035.47 3315.78 7031.2 3315.94 7030 3318.6L6897.9 3611.27C6896.7 3613.93 6898.26 3616.09 6901.36 3616.1L7210.58 3616.62C7213.68 3616.63 7215.67 3620.23 7215.61 3622.84C7215.56 3625.44 7213.49 3629.02 7210.38 3629.05L6577.59 3632.47C6574.49 3632.5 6571.98 3630.18 6572 3627.29Z" fill="#2BAAE2"/>
<path fill-rule="evenodd" clip-rule="evenodd" d="M7014.17 3327.71L6878.09 3599.05C6873.05 3609.1 6878.08 3617.24 6889.33 3617.23L7210.37 3616.88C7221.62 3616.87 7235.15 3608.88 7240.59 3599.03L7385.27 3337.45C7390.71 3327.61 7386.01 3319.38 7374.77 3319.08L7043.66 3310.06C7036.15 3309.85 7012.22 3309.72 7005.98 3315.03C7005.98 3315.03 7009.14 3316.61 7012.41 3319.14C7015.4 3321.45 7014.97 3326.12 7014.17 3327.71Z" fill="#4CC8ED"/>
<path fill-rule="evenodd" clip-rule="evenodd" d="M6639.13 3599.11C6638.4 3600.89 6583.41 3593.42 6527.59 3595.67C6471.77 3597.92 6434.25 3602.08 6421.92 3602.87C6404.77 3603.97 6412.52 3581.83 6414.21 3566C6419.1 3520.33 6438.29 3490.9 6441.92 3437.51C6445.54 3384.12 6429.51 3367.81 6428.71 3352.44C6425.69 3294.51 6383.74 3347.7 6378.04 3348.41C6350.03 3351.9 6343.76 3520.08 6341.54 3577C6340.11 3613.6 6342.06 3654.67 6370.52 3658.05C6390.87 3660.47 6457.71 3658.27 6517.52 3651.63C6583.85 3644.27 6642.61 3632.26 6642.61 3632.26C6642.61 3632.26 6685.25 3651.82 6716.69 3652.63C6748.13 3653.44 6766.85 3655.58 6766.96 3650.19C6767.13 3641.88 6720.75 3638.41 6718.25 3634.95C6715.95 3631.78 6771.49 3637.78 6771.54 3627.98C6771.58 3618.17 6717.62 3622.04 6716.71 3618.63C6715.54 3614.26 6765.35 3617.27 6764.65 3607.11C6764.2 3600.71 6713.15 3603.58 6713.15 3603.58C6713.15 3603.58 6757.56 3592.75 6756.46 3588.11C6754.63 3580.44 6701.92 3592.58 6698.79 3590.76C6693.52 3587.7 6686.18 3589.44 6685.09 3585.46C6683.77 3580.62 6709.04 3573.34 6708.08 3569.11C6706.54 3562.26 6687.97 3568.24 6670.73 3575.74C6653.5 3583.24 6641.99 3592.12 6639.13 3599.11Z" fill="#FDBC8C"/>
<path fill-rule="evenodd" clip-rule="evenodd" d="M6492.65 3307.56C6501.31 3248.66 6475.11 3200.38 6441.27 3197.53C6426.3 3196.27 6400.95 3199.81 6385.67 3213.57C6370.22 3227.48 6350.61 3235.88 6342.5 3288.3C6337.79 3318.8 6333.32 3410.07 6337.94 3418.81C6337.94 3418.81 6372.31 3423.05 6402.98 3421.97C6433.65 3420.9 6460.63 3414.51 6460.63 3414.51C6480.65 3395.3 6489.96 3325.85 6492.65 3307.56Z" fill="#0081C3"/>
<path fill-rule="evenodd" clip-rule="evenodd" d="M6466.85 2861C6445.31 2891.6 6484.14 2958.45 6477.17 2957.21C6470.2 2955.98 6464.22 2934.08 6450.96 2958.59C6440.13 2978.61 6480.31 3021.8 6488.66 3005.59C6497.13 2989.14 6509.94 3038.05 6520.97 3046.3C6548.04 3066.56 6576.48 3082.95 6616.36 3080.57C6689.6 3076.22 6684.54 2989.63 6678.53 2927.32C6675.23 2893.15 6675.18 2860.84 6657.23 2842.6C6642.45 2827.57 6644.31 2819.5 6618.58 2812.54C6561.62 2797.13 6496.57 2818.79 6466.85 2861Z" fill="#FDBC8C"/>
<path fill-rule="evenodd" clip-rule="evenodd" d="M6494.21 2997.43C6494.21 2997.43 6511.32 3002.26 6502.04 2984.41C6492.42 2965.94 6483.97 2950.33 6482.33 2936.25C6481.3 2927.43 6479.76 2916.58 6486.31 2913.31C6492.86 2910.04 6509.47 2917.52 6513.61 2906.31C6518.66 2892.64 6497.75 2871.36 6512.29 2856.95C6530.1 2839.3 6558.73 2858.15 6587.46 2855.71C6616.19 2853.28 6637.72 2837.51 6648.63 2839.62C6655.97 2841.04 6662.65 2846.38 6665.31 2856.99C6667.39 2865.24 6666.11 2877.4 6668.15 2887.49C6669 2891.72 6672.89 2892.1 6674.81 2895.57C6676.11 2897.92 6675.41 2901.87 6676.08 2905.04C6677.97 2914.07 6677.31 2922.42 6677.86 2920.86C6678.79 2918.21 6675.69 2885.44 6672.52 2870.33C6668.38 2850.6 6661.55 2839.43 6654.73 2829.28C6647.9 2819.13 6631.08 2804.8 6615.71 2799.38C6596.46 2792.6 6575.54 2789.48 6554.84 2791.72C6523.68 2795.09 6505.55 2804.51 6488.73 2815.52C6466.76 2829.91 6459.59 2857 6457.75 2873.49C6456.48 2884.95 6465.63 2922.02 6474.9 2952.42C6481.24 2973.22 6494.21 2997.43 6494.21 2997.43Z" fill="#135EAB"/>
<path fill-rule="evenodd" clip-rule="evenodd" d="M6572.02 2950.62C6571.03 2945.33 6574.05 2940.61 6578.77 2940.08C6583.5 2939.55 6588.13 2943.41 6589.12 2948.7C6590.1 2953.99 6587.08 2958.7 6582.35 2959.24C6577.63 2959.77 6573.01 2955.91 6572.02 2950.62Z" fill="#272361"/>
<path fill-rule="evenodd" clip-rule="evenodd" d="M6645.23 2942.64C6644.18 2937.35 6647.39 2932.63 6652.41 2932.1C6657.43 2931.57 6662.36 2935.43 6663.41 2940.72C6664.46 2946.01 6661.24 2950.73 6656.22 2951.26C6651.2 2951.79 6646.28 2947.93 6645.23 2942.64Z" fill="#272361"/>
<path fill-rule="evenodd" clip-rule="evenodd" d="M6475.31 2949.62C6470.82 2950.44 6504.61 3031.82 6519.94 3044.7C6541.34 3062.69 6548.77 3068.76 6579.88 3077.36C6594.46 3081.39 6622.41 3084.97 6645.69 3073.94C6660.35 3067 6665.31 3056.9 6674.09 3035.66C6682.87 3014.41 6680.81 2988.97 6680.81 2988.97C6680.81 2988.97 6680.1 3004.25 6671.23 3008.69C6665.03 3011.79 6659.29 2998.64 6629.67 2999.58C6603.57 3000.41 6602.74 3000.92 6581.96 3006.81C6561.18 3012.7 6553.32 3020.03 6546.54 3023.15C6533.19 3029.29 6505.55 2995.68 6499.31 2980.79C6491.44 2962.02 6476.25 2949.45 6475.31 2949.62Z" fill="#272361"/>
<path fill-rule="evenodd" clip-rule="evenodd" d="M6587.03 3023.71C6587.64 3019.99 6608.21 3027.04 6624.74 3024.82C6641.27 3022.6 6649.21 3018.69 6650.54 3021.23C6651.41 3022.89 6644.93 3039.02 6628.4 3041.24C6611.87 3043.47 6586.22 3028.65 6587.03 3023.71Z" fill="#E0E0E0"/>
<path fill-rule="evenodd" clip-rule="evenodd" d="M6640.56 2902.16L6657.03 2902.47C6660.03 2902.53 6662.43 2904.35 6662.4 2906.55C6662.37 2908.74 6659.92 2910.48 6656.92 2910.42L6640.45 2910.12C6637.45 2910.06 6635.04 2908.24 6635.07 2906.04C6635.1 2903.84 6637.56 2902.11 6640.56 2902.16Z" fill="#272361"/>
<path fill-rule="evenodd" clip-rule="evenodd" d="M6564.7 2907.03L6581.03 2904.81C6584 2904.4 6586.65 2905.84 6586.96 2908.01C6587.27 2910.19 6585.11 2912.28 6582.13 2912.68L6565.81 2914.9C6562.84 2915.31 6560.18 2913.87 6559.88 2911.7C6559.57 2909.52 6561.73 2907.43 6564.7 2907.03Z" fill="#272361"/>
<path fill-rule="evenodd" clip-rule="evenodd" d="M6723.06 3303.47C6723.06 3303.47 6735.85 3356 6739.77 3382.73C6748.31 3441.02 6749.5 3537.65 6749.5 3537.65C6749.5 3537.65 6751.35 3474.19 6747.9 3426.2C6744.44 3378.2 6745.3 3384.65 6735.77 3345.77C6726.25 3306.89 6723.06 3303.47 6723.06 3303.47Z" fill="#135EAB"/>
<path fill-rule="evenodd" clip-rule="evenodd" d="M6724.95 4656.28C6724.14 4656.99 6721.87 4659.93 6723.09 4664.97C6724.3 4670 6729.83 4671.59 6729.83 4671.59C6729.83 4671.59 6739.05 4675.41 6762.46 4675.26C6783.97 4675.13 6792.17 4668.48 6792.17 4668.48C6792.17 4668.48 6797.4 4665.65 6797.9 4660.62C6798.41 4655.58 6793.61 4652.71 6793.61 4652.71C6793.61 4652.71 6782.95 4660.21 6761.63 4661.08C6737.99 4662.04 6725.83 4655.51 6724.95 4656.28Z" fill="#272361"/>
<path fill-rule="evenodd" clip-rule="evenodd" d="M6677.24 4426.05C6676.24 4425.66 6673.85 4424.39 6669.92 4427.76C6665.99 4431.13 6666.94 4435.9 6666.94 4435.9C6666.94 4435.9 6668.08 4449.85 6678.53 4469.25C6688.23 4487.24 6700.71 4494.73 6700.71 4494.73C6700.71 4494.73 6704.45 4496.92 6709.16 4495.08C6713.87 4493.24 6713.49 4488.49 6713.49 4488.49C6713.49 4488.49 6701.98 4482.01 6690.88 4461.56C6680.18 4441.85 6678.33 4426.49 6677.24 4426.05Z" fill="#272361"/>
<path fill-rule="evenodd" clip-rule="evenodd" d="M6779.29 3833.98C6779.29 3833.98 6787.54 3844.29 6744.54 3849.52C6701.53 3854.76 6605.75 3855.61 6605.75 3855.61L6779.29 3833.98Z" fill="#272361"/>
<path fill-rule="evenodd" clip-rule="evenodd" d="M6707.13 4494.72C6707.13 4494.72 6707.93 4547.35 6712.61 4587.75C6717.29 4628.16 6725.84 4656.34 6725.84 4656.34L6739.02 4660.14C6739.02 4660.14 6731.8 4638.38 6726.17 4593.83C6720.54 4549.28 6719.15 4484.47 6719.15 4484.47L6707.13 4494.72Z" fill="#272361"/>
<path fill-rule="evenodd" clip-rule="evenodd" d="M6706.77 4405.73L6715.42 4397.88C6715.42 4397.88 6709.68 4276.33 6700.15 4216.67C6688.41 4143.19 6747.31 4214.32 6778.35 4238.09C6802.4 4256.5 6811.77 4264.47 6811.77 4264.47L6678.92 4149.01C6678.92 4149.01 6693.72 4212.89 6700.21 4277.48C6706.7 4342.06 6706.77 4405.73 6706.77 4405.73Z" fill="#2E3690"/>
<path fill-rule="evenodd" clip-rule="evenodd" d="M6693.52 3940.43L6814.94 4058.39L6814.71 4045.04L6693.52 3940.43Z" fill="#2E3690"/>
<path d="M6820.08 4063.38C6748.31 3988.97 6707.87 3953.96 6635.58 3896.38L6669.08 4140.88L6817.08 4265.88L6820.08 4063.38Z" fill="#272361"/>
<path d="M6808.08 4345.88C6769.33 4359.24 6747.03 4371.43 6705.58 4407.38V4491.38C6747.09 4478.96 6769.77 4471.65 6807.08 4456.88L6808.08 4345.88Z" fill="#272361"/>
<path d="M4804.56 1321C4920.95 1321 5022.35 1341.8 5108.74 1383.4C5195.14 1425 5261.73 1484.8 5308.53 1562.8C5355.33 1640.8 5378.72 1731.8 5378.72 1835.8C5378.72 1939.8 5355.33 2030.8 5308.53 2108.8C5261.73 2186.8 5195.14 2246.6 5108.74 2288.2C5022.35 2329.8 4920.95 2350.6 4804.56 2350.6H4622.77V2686H4198V1321H4804.56ZM4777.56 1995.7C4835.16 1995.7 4878.36 1982.05 4907.15 1954.75C4935.95 1926.15 4950.35 1886.5 4950.35 1835.8C4950.35 1785.1 4935.95 1746.1 4907.15 1718.8C4878.36 1690.2 4835.16 1675.9 4777.56 1675.9H4622.77V1995.7H4777.56Z" fill="#2E3690"/>
<path d="M6610.56 2338.9V2686H5563.03V1321H6587.16V1668.1H5980.6V1828H6513.37V2159.5H5980.6V2338.9H6610.56Z" fill="#2E3690"/>
<path d="M8061 1321V2686H7711.82L7233.05 2065.9V2686H6819.08V1321H7168.26L7647.03 1941.1V1321H8061Z" fill="#2E3690"/>
</g>
<defs>
<clipPath id="clip0">
<rect width="10721.7" height="6010" fill="white"/>
</clipPath>
</defs>
</svg>
