<svg width="9919" height="6147" viewBox="0 0 9919 6147" fill="none" xmlns="http://www.w3.org/2000/svg">
<path d="M6923.11 394.312L8256.41 3242.44C8283.92 3301.22 8277.67 3370.26 8240.03 3423.13L6375.28 6043C6338.57 6094.58 6277.45 6123.08 6214.33 6118.05L3013.15 5862.86C2948.65 5857.72 2891.87 5818.36 2864.44 5759.76L1527.55 2904.46C1500.05 2845.73 1506.27 2776.75 1543.83 2723.89L3404.94 104.347C3441.72 52.5847 3503.04 24.0276 3566.33 29.1961L6774.74 291.224C6839.11 296.481 6895.73 335.82 6923.11 394.312Z" stroke="#E0E0E0" stroke-width="40" stroke-linejoin="round"/>
<path fill-rule="evenodd" clip-rule="evenodd" d="M1704.08 3031.59C1942 2355.32 3244.56 2346.28 3302.74 1690.56C3360.12 1043.68 4180.11 1110.05 4660.37 1376.28C5180.24 1664.46 7005 1093.4 6943.03 1560.46C6881.06 2027.53 7748.51 2211.37 7802.93 2925.79C7857 3635.6 7059.56 4520.29 7229.5 4941.87C7381.55 5319.07 5417.77 5084.73 4600.56 5084.73C4083.2 5084.73 2932.16 5247.2 2772.26 4845.26C2430.97 3987.3 1427.22 3818.6 1704.08 3031.59Z" fill="#4CC8ED" fill-opacity="0.153501"/>
<path fill-rule="evenodd" clip-rule="evenodd" d="M2693.56 2267.85C2693.56 2267.85 2789.46 2265.15 2790.73 2160.49C2791.98 2057.48 2693.12 2052.06 2693.12 2052.06L2449.67 2053.79C2449.67 2053.79 2344.5 2048.89 2345.91 2167.11C2347.14 2270.73 2455.57 2277.93 2455.57 2277.93L2560.51 2277.18C2571.25 2277.11 2586.89 2283.95 2595.46 2292.47L2677.36 2373.91C2685.6 2382.11 2688.72 2378.77 2684.33 2366.47L2657.32 2290.82C2653.74 2280.78 2657.64 2272.05 2666.06 2271.31L2693.56 2267.85Z" fill="#4CC8ED"/>
<path fill-rule="evenodd" clip-rule="evenodd" d="M2484.14 2163.02C2484.14 2147.22 2471.53 2134.43 2455.97 2134.43C2440.42 2134.43 2427.8 2147.22 2427.8 2163.02C2427.8 2178.82 2440.42 2191.63 2455.97 2191.63C2471.53 2191.63 2484.14 2178.82 2484.14 2163.02Z" fill="white"/>
<path fill-rule="evenodd" clip-rule="evenodd" d="M2592.51 2163.02C2592.51 2147.22 2579.89 2134.43 2564.34 2134.43C2548.78 2134.43 2536.17 2147.22 2536.17 2163.02C2536.17 2178.82 2548.78 2191.63 2564.34 2191.63C2579.89 2191.63 2592.51 2178.82 2592.51 2163.02Z" fill="white"/>
<path fill-rule="evenodd" clip-rule="evenodd" d="M2702.26 2163.02C2702.26 2147.22 2689.64 2134.43 2674.09 2134.43C2658.53 2134.43 2645.91 2147.22 2645.91 2163.02C2645.91 2178.82 2658.53 2191.63 2674.09 2191.63C2689.64 2191.63 2702.26 2178.82 2702.26 2163.02Z" fill="white"/>
<path fill-rule="evenodd" clip-rule="evenodd" d="M4072.59 2731.4L4024.25 2861.25L4464.21 2985.47L4072.59 2731.4Z" fill="#0081C3"/>
<path fill-rule="evenodd" clip-rule="evenodd" d="M4090.21 2679.95L4059.78 2762.33L4328.63 2894.98L4090.21 2679.95Z" fill="#1172BA"/>
<path fill-rule="evenodd" clip-rule="evenodd" d="M4165.74 2632.22L4089.76 2680.79L4305.21 2877.93L4012.8 2714.27L3921.39 2753.91L4482.6 2993.95L4165.74 2632.22Z" fill="#2BAAE2"/>
<path fill-rule="evenodd" clip-rule="evenodd" d="M4686.55 5182.21L5019.94 5138.33C5028.49 5137.21 5038.1 5129.83 5041.41 5121.86L5170.1 4811.18C5173.41 4803.2 5171.82 4791.18 5166.57 4784.34L4961.88 4517.53C4956.63 4510.68 4945.43 4506.04 4936.88 4507.17L4603.5 4551.05C4594.94 4552.18 4585.32 4559.55 4582.02 4567.52L4453.33 4878.21C4450.03 4886.18 4451.6 4898.2 4456.86 4905.04L4661.54 5171.85C4666.8 5178.7 4677.99 5183.33 4686.55 5182.21Z" stroke="#2BAAE2" stroke-opacity="0.138889" stroke-width="15.78" stroke-linecap="round" stroke-linejoin="round"/>
<path fill-rule="evenodd" clip-rule="evenodd" d="M5297.12 3211.23L5546.42 3178.42C5552.82 3177.59 5560 3172.07 5562.48 3166.11L5658.71 2933.78C5661.18 2927.82 5660 2918.84 5656.07 2913.72L5503.02 2714.2C5499.08 2709.09 5490.71 2705.61 5484.31 2706.45L5235.02 2739.27C5228.62 2740.11 5221.43 2745.63 5218.96 2751.59L5122.72 2983.9C5120.25 2989.87 5121.43 2998.86 5125.36 3003.98L5278.42 3203.49C5282.35 3208.61 5290.72 3212.08 5297.12 3211.23Z" stroke="#2BAAE2" stroke-opacity="0.138889" stroke-width="15.78" stroke-linecap="round" stroke-linejoin="round"/>
<path fill-rule="evenodd" clip-rule="evenodd" d="M7265.53 4157.11L7448.18 4053.41C7452.87 4050.75 7456.7 4044.22 7456.75 4038.83L7458.27 3828.8C7458.31 3823.41 7454.57 3816.82 7449.93 3814.09L7268.81 3707.75C7264.16 3705.02 7256.59 3704.96 7251.9 3707.63L7069.25 3811.32C7064.57 3813.98 7060.73 3820.51 7060.7 3825.9L7059.16 4035.94C7059.13 4041.33 7062.87 4047.91 7067.51 4050.64L7248.64 4156.99C7253.28 4159.72 7260.85 4159.77 7265.53 4157.11Z" stroke="#2BAAE2" stroke-opacity="0.138889" stroke-width="15.78" stroke-linecap="round" stroke-linejoin="round"/>
<path fill-rule="evenodd" clip-rule="evenodd" d="M3277.67 2101.43L3671.34 1963.78C3681.45 1960.24 3691.25 1948.85 3693.24 1938.33L3770.87 1528.55C3772.86 1518.03 3767.9 1503.84 3759.79 1496.86L3443.75 1224.73C3435.64 1217.75 3420.87 1214.95 3410.77 1218.48L3017.11 1356.14C3007 1359.67 2997.2 1371.06 2995.2 1381.59L2917.58 1791.37C2915.58 1801.88 2920.54 1816.07 2928.66 1823.06L3244.69 2095.18C3252.8 2102.17 3267.57 2104.96 3277.67 2101.43Z" stroke="#2BAAE2" stroke-opacity="0.138889" stroke-width="15.78" stroke-linecap="round" stroke-linejoin="round"/>
<path opacity="0.196035" fill-rule="evenodd" clip-rule="evenodd" d="M4370.86 3447.04C4450.29 3447.04 4516.26 3499.12 4525.09 3567.1C4532.63 3565.89 4540.22 3565.05 4547.88 3565.05C4612.64 3565.05 4665.8 3607.51 4665.8 3661C4665.8 3710.34 4620.31 3750.89 4561.37 3756.35C4561.37 3756.35 4547.8 3757.86 4542.61 3758.41C4527.77 3759.97 4511.67 3761.54 4494.87 3763C4470.48 3765.13 4446.7 3766.84 4424.32 3768.01C4403.38 3769.11 4384.21 3769.7 4367.17 3769.7C4324.41 3769.7 4283.19 3767.85 4227.76 3764.09C4221.51 3763.67 4187.33 3761.29 4178.5 3760.71C4115.27 3756.79 4065.47 3713.14 4065.47 3659.58C4065.47 3620.61 4092.08 3586.14 4132.65 3569.13C4136.98 3533.35 4170.76 3505.94 4211.33 3505.94C4220.91 3505.94 4230.27 3507.57 4239.15 3510.58C4267.35 3471.42 4316.66 3447.04 4370.86 3447.04Z" fill="#2BAAE2" fill-opacity="0.0631313" stroke="#2BAAE2" stroke-width="15.22" stroke-linecap="round" stroke-linejoin="round"/>
<path opacity="0.196035" fill-rule="evenodd" clip-rule="evenodd" d="M7862.43 3386.08C7941.87 3386.08 8007.83 3438.15 8016.66 3506.14C8024.2 3504.92 8031.8 3504.08 8039.45 3504.08C8104.21 3504.08 8157.38 3546.55 8157.38 3600.04C8157.38 3649.37 8111.88 3689.93 8052.94 3695.38C8052.94 3695.38 8039.37 3696.9 8034.17 3697.44C8019.34 3699.01 8003.24 3700.58 7986.45 3702.04C7962.05 3704.17 7938.27 3705.87 7915.89 3707.04C7894.95 3708.15 7875.78 3708.74 7858.75 3708.74C7815.98 3708.74 7774.77 3706.88 7719.33 3703.12C7713.08 3702.7 7678.9 3700.33 7670.07 3699.74C7606.84 3695.82 7557.05 3652.18 7557.05 3598.61C7557.05 3559.64 7583.65 3525.17 7624.22 3508.17C7628.55 3472.38 7662.33 3444.98 7702.9 3444.98C7712.48 3444.98 7721.84 3446.6 7730.72 3449.61C7758.92 3410.46 7808.24 3386.08 7862.43 3386.08Z" fill="#2BAAE2" fill-opacity="0.0631313" stroke="#2BAAE2" stroke-width="15.22" stroke-linecap="round" stroke-linejoin="round"/>
<path opacity="0.196035" fill-rule="evenodd" clip-rule="evenodd" d="M6171.8 1271.85C6251.22 1271.85 6317.19 1323.92 6326.03 1391.92C6333.56 1390.69 6341.16 1389.86 6348.82 1389.86C6413.58 1389.86 6466.74 1432.32 6466.74 1485.81C6466.74 1535.15 6421.25 1575.7 6362.31 1581.16C6362.31 1581.16 6348.74 1582.67 6343.54 1583.22C6328.71 1584.78 6312.6 1586.35 6295.81 1587.81C6271.41 1589.94 6247.64 1591.65 6225.25 1592.82C6204.32 1593.92 6185.15 1594.51 6168.11 1594.51C6125.34 1594.51 6084.13 1592.66 6028.7 1588.89C6022.45 1588.48 5988.27 1586.1 5979.43 1585.52C5916.21 1581.6 5866.41 1537.95 5866.41 1484.39C5866.41 1445.42 5893.02 1410.95 5933.59 1393.94C5937.92 1358.16 5971.7 1330.75 6012.27 1330.75C6021.85 1330.75 6031.21 1332.38 6040.08 1335.39C6068.29 1296.23 6117.6 1271.85 6171.8 1271.85Z" fill="#2BAAE2" fill-opacity="0.0631313" stroke="#2BAAE2" stroke-width="15.22" stroke-linecap="round" stroke-linejoin="round"/>
<path opacity="0.196035" fill-rule="evenodd" clip-rule="evenodd" d="M3888.01 4134.03C3967.44 4134.03 4033.41 4186.1 4042.24 4254.08C4049.77 4252.87 4057.38 4252.03 4065.03 4252.03C4129.79 4252.03 4182.95 4294.49 4182.95 4347.98C4182.95 4397.32 4137.46 4437.87 4078.52 4443.33C4078.52 4443.33 4064.95 4444.84 4059.76 4445.39C4044.92 4446.95 4028.82 4448.52 4012.02 4449.98C3987.63 4452.11 3963.85 4453.82 3941.47 4454.99C3920.53 4456.09 3901.36 4456.68 3884.33 4456.68C3841.56 4456.68 3800.34 4454.83 3744.91 4451.07C3738.66 4450.65 3704.48 4448.27 3695.65 4447.69C3632.42 4443.77 3582.62 4400.12 3582.62 4346.56C3582.62 4307.59 3609.24 4273.12 3649.8 4256.11C3654.13 4220.33 3687.91 4192.92 3728.48 4192.92C3738.06 4192.92 3747.42 4194.56 3756.3 4197.56C3784.5 4158.4 3833.81 4134.03 3888.01 4134.03Z" fill="#2BAAE2" fill-opacity="0.0631313" stroke="#2BAAE2" stroke-width="15.22" stroke-linecap="round" stroke-linejoin="round"/>
<path d="M3982.72 2647.27C3982.72 2647.27 3894.18 2516.24 3881.98 2308.31C3869.9 2102.5 3900.15 2000.9 3801.26 1820.75C3698.39 1633.36 3346.26 1470.17 2877.04 1569.15C2407.82 1668.14 2309.3 2182.77 1916.88 2491.06C1524.46 2799.36 1134.35 2977.33 1170.13 3503.08C1216.19 4179.91 2379.23 3567.27 2633.45 4025.28C2887.68 4483.28 2110.24 4719.23 2110.24 4719.23" stroke="#2BAAE2" stroke-opacity="0.237374" stroke-width="15.22" stroke-linecap="round" stroke-linejoin="round" stroke-dasharray="50 50 50 50"/>
<path fill-rule="evenodd" clip-rule="evenodd" d="M1230.3 5476.73C1230.3 5420.36 2791.59 5374.65 4717.53 5374.65C6643.48 5374.65 8204.76 5420.36 8204.76 5476.73C8204.76 5533.11 6643.48 5578.82 4717.53 5578.82C2791.59 5578.82 1230.3 5533.11 1230.3 5476.73Z" fill="#E0E0E0"/>
<path opacity="0.612335" fill-rule="evenodd" clip-rule="evenodd" d="M3925.9 4539.25C3925.9 4539.25 3937.05 4435.77 3906.37 4406.28C3875.7 4376.8 3835.38 4440.29 3815.13 4402.82C3794.87 4365.35 3845.1 4331.44 3807.14 4278.08C3778.21 4237.41 3730.34 4303.24 3700.47 4267.06C3670.6 4230.89 3722.49 4171.44 3697.69 4121.51C3672.89 4071.58 3619.39 4094.46 3601.25 4067.34C3582.74 4039.65 3635.79 4002.45 3585.77 3968.92C3531.28 3932.4 3524.07 3997.65 3479.4 3986.94C3445.82 3978.89 3418.7 3901.14 3361.75 3946.28C3313.95 3984.17 3358.9 4040.95 3358.92 4084.63C3358.97 4139.57 3315.57 4140.91 3345.91 4197.74C3366.52 4236.33 3419.58 4202.47 3443.21 4237.93C3466.83 4273.39 3402.6 4299.18 3440.42 4339.56C3478.23 4379.94 3554.31 4357.74 3577.44 4387.51C3600.57 4417.27 3551.8 4486.17 3585.76 4522.76C3619.72 4559.36 3676.27 4524.92 3716.57 4556.14C3756.87 4587.34 3696.98 4641.46 3737.56 4672.47L3892.62 4669.87L3925.9 4539.25Z" fill="#0081C3"/>
<path opacity="0.612335" fill-rule="evenodd" clip-rule="evenodd" d="M4099.88 4572.61C4099.88 4572.61 4188.47 4463.35 4171.94 4410.01C4155.4 4356.66 4093.07 4394.55 4095.17 4339.04C4097.28 4283.54 4161.46 4283.65 4142.18 4200.43C4123.26 4118.81 4072.96 4163.91 4062.26 4103.55C4051.56 4043.19 4105.75 4041.5 4111.25 3968.97C4116.75 3896.44 4040.78 3896.45 4033.89 3854.47C4027.52 3815.73 4115.04 3797.24 4077.56 3726.62C4036.72 3649.7 3995.6 3698.68 3948.23 3657.28C3912.61 3626.15 3866.08 3539.47 3791.84 3550.28C3716.67 3561.23 3760.45 3638.99 3728.9 3688.22C3689.22 3750.13 3634.69 3723.13 3631.05 3807.08C3628.58 3864.07 3693.81 3863.21 3693.6 3907.94C3693.39 3952.67 3627.66 3958.57 3645.12 4028.88C3662.59 4099.2 3740.37 4115.56 3748.65 4167.86C3756.34 4216.47 3676.57 4267.17 3692.02 4330.68C3707.47 4394.21 3773.77 4399.48 3800.94 4461.09C3828.12 4522.71 3744.08 4539.06 3771.74 4600.64C3783.78 4627.47 3820.88 4651.58 3858.92 4670.25L4000.93 4668.57L4099.88 4572.61Z" fill="#2BAAE2"/>
<path opacity="0.612335" fill-rule="evenodd" clip-rule="evenodd" d="M4068.33 4667.04C4068.33 4667.04 4206.85 4646.03 4231.75 4599.07C4256.66 4552.11 4184.04 4532.35 4222.08 4495.4C4260.1 4458.46 4300.62 4500 4351.67 4436.31C4390.58 4387.78 4315.94 4351.44 4349.14 4303.26C4382.35 4255.07 4450.7 4298.39 4502.12 4251.8C4553.53 4205.22 4507.91 4147.83 4534.25 4116.87C4561.14 4085.27 4623.78 4137.38 4646.95 4065.61C4672.2 3987.42 4591.51 4000.2 4589.16 3942.45C4587.39 3899.03 4671.36 3840.45 4597.88 3786.23C4536.2 3740.72 4483.42 3814.01 4431.07 3828.47C4365.22 3846.65 4348.87 3794.4 4291.06 3850C4251.82 3887.74 4310.44 3940.98 4275.98 3981.35C4241.52 4021.73 4188.75 3952.28 4153.21 4011.5C4117.67 4070.72 4151.45 4143.5 4123.64 4181.4C4095.83 4219.29 4015.35 4195.08 3983.05 4248.37C3950.74 4301.66 3996 4351 3972.32 4410.21C3948.62 4469.44 3877.92 4424.06 3854.55 4483.54C3831.18 4543.03 3909.35 4669.03 3909.35 4669.03L4068.33 4667.04Z" fill="#0081C3"/>
<path opacity="0.612335" fill-rule="evenodd" clip-rule="evenodd" d="M3772.52 4774.89L3836.94 5212.11L4108.71 5210.07L4152.34 4770.37L3772.52 4774.89Z" fill="#135EAB"/>
<path opacity="0.612335" fill-rule="evenodd" clip-rule="evenodd" d="M3772.55 4775.02L4152.39 4770.68L4147.99 4815.15L3778.38 4814.98L3772.55 4775.02Z" fill="#135EAB"/>
<path opacity="0.612335" fill-rule="evenodd" clip-rule="evenodd" d="M3690.46 4673.25L4243.46 4664.03L4230.96 4769.73L3698.04 4775.55L3690.46 4673.25Z" fill="#0054AB"/>
<g opacity="0.546256">
<path opacity="0.546256" fill-rule="evenodd" clip-rule="evenodd" d="M5339.13 3628.85H5757.44C5778.29 3628.85 5795.38 3645.75 5795.65 3666.59L5798.49 3899.29C5798.74 3920.13 5782.06 3936.96 5761.21 3936.89L5334.86 3935.29C5314.02 3935.21 5297.36 3918.26 5297.65 3897.41L5300.86 3666.59C5301.16 3645.75 5318.28 3628.85 5339.13 3628.85Z" fill="#2BAAE2"/>
<g opacity="0.546256">
<path d="M5313.04 3641.81C5313.04 3641.81 5430.53 3757.86 5488.54 3804.02C5546.54 3850.18 5552.7 3851.86 5600.83 3808.83C5656.55 3759.03 5777.75 3636.87 5777.75 3636.87" stroke="white" stroke-width="8.86" stroke-linecap="round" stroke-linejoin="round"/>
<path d="M5627.11 3786.85L5781.75 3926.39" stroke="white" stroke-width="8.86" stroke-linecap="round" stroke-linejoin="round"/>
<path d="M5309.71 3924.28L5466.14 3790.76" stroke="white" stroke-width="8.86" stroke-linecap="round" stroke-linejoin="round"/>
</g>
</g>
<path opacity="0.42511" fill-rule="evenodd" clip-rule="evenodd" d="M2089.52 3037.03C2074.97 3037.6 2062.29 3039.78 2054.19 3042.42L2051.07 3119.83C2016 3121.28 1993.26 3122.98 1962.83 3136.12L1923.18 3068.2C1889.6 3077.61 1844.48 3105.42 1829.06 3131.15L1873.85 3193.31C1852.71 3212.8 1837.79 3229.97 1823.43 3255.08L1759.68 3223.14C1740.14 3245.52 1721.73 3290.75 1724.26 3312.78L1790.94 3334.4C1784.98 3359.22 1782.32 3385.28 1783.43 3412.06L1713.14 3424.96C1707.48 3450.46 1714.14 3500.12 1733.18 3525.05L1801.8 3501.5C1811.8 3527.61 1826.46 3553.82 1843.28 3575.44L1790.92 3629.83C1805.22 3652.23 1841.19 3686.04 1863.9 3696.95L1910.17 3636C1934.91 3652.24 1962.33 3664.61 1991.56 3672.34L1980.51 3742.81C2009.37 3754.98 2041.49 3758.75 2074.51 3752.61L2074.17 3681.31C2102.68 3680.14 2125 3677.21 2150.57 3668.16L2180.56 3731.94C2207.65 3730.89 2245.76 3710.55 2261.24 3689.34L2221.94 3631.53C2247.29 3613.83 2269.56 3592 2287.8 3567.09L2354.23 3604.2C2378.68 3586.62 2401.26 3540.56 2402.25 3513.89L2328.94 3486.12C2338.62 3455.62 2346.25 3434.64 2344.86 3400.78L2424.48 3388.46C2433.09 3355.9 2422.79 3312.3 2404.34 3290.41L2327.76 3311.62C2319.34 3286.26 2307.44 3262.55 2292.65 3241.05L2355.37 3187.66C2339.21 3148.83 2310.01 3119.45 2279.58 3108.55L2223.75 3170.47C2201.41 3154.17 2174.26 3138.62 2147.71 3129.49L2165.29 3052.88C2143.21 3039.63 2113.77 3036.08 2089.52 3037.03ZM2060.29 3250.74C2143.87 3247.29 2214.43 3312.81 2217.9 3397.06C2221.36 3481.31 2156.43 3552.4 2072.86 3555.84C1989.28 3559.28 1918.71 3493.77 1915.25 3409.52C1911.78 3325.27 1976.72 3254.18 2060.29 3250.74Z" fill="#2BAAE2"/>
<path opacity="0.42511" fill-rule="evenodd" clip-rule="evenodd" d="M2328.83 3088.01C2328.81 3098.94 2330.06 3108.52 2331.8 3114.67L2389.79 3119.37C2389.8 3145.72 2390.39 3162.84 2399.33 3186.08L2347.16 3213.77C2353.2 3239.25 2372.71 3273.95 2391.53 3286.3L2439.53 3254.58C2453.51 3271.04 2465.95 3282.74 2484.34 3294.29L2458.45 3341.15C2474.65 3356.49 2508.02 3371.68 2524.63 3370.45L2542.87 3321.08C2561.31 3326.3 2580.78 3329.09 2600.91 3329.07L2608.45 3382.2C2627.42 3387.23 2664.87 3383.73 2684.15 3370.2L2668.56 3318C2688.46 3311.29 2708.56 3301.08 2725.29 3289.12L2764.52 3330.05C2781.76 3320 2808.21 3294.04 2817.08 3277.33L2772.77 3240.77C2785.7 3222.68 2795.81 3202.49 2802.5 3180.79L2855.03 3191.22C2865.03 3169.93 2868.84 3145.95 2865.23 3120.99L2811.73 3119.07C2811.71 3097.65 2810.19 3080.8 2804.18 3061.34L2855.08 3044.22C2855.12 3023.85 2840.38 2989.03 2824.94 2976.76L2776.86 3002.6C2764.34 2983.03 2750.66 2969.74 2732.52 2955.3L2771.12 2909.3C2758.66 2890.42 2718.63 2868.51 2698.64 2866.96L2672.8 2916.47C2650.21 2908.29 2634.92 2907.42 2609.48 2907.44L2602.66 2847.31C2578.49 2839.87 2545.46 2846.28 2528.48 2859.45L2542.07 2917.57C2522.79 2923.11 2504.64 2931.33 2488.06 2941.76L2449.9 2893.09C2420.28 2904.03 2397.36 2925.05 2388.25 2947.55L2433.01 2991.32C2420.1 3007.6 2407.61 3027.5 2399.97 3047.15L2343.02 3031.63C2332.41 3047.79 2328.86 3069.78 2328.83 3088.01ZM2488.27 3116.41C2488.23 3053.6 2539.53 3002.64 2602.84 3002.6C2666.15 3002.55 2717.52 3053.44 2717.56 3116.25C2717.61 3179.06 2666.31 3230.02 2603 3230.08C2539.69 3230.12 2488.32 3179.23 2488.27 3116.41Z" fill="#2BAAE2"/>
<path opacity="0.42511" fill-rule="evenodd" clip-rule="evenodd" d="M7152.6 1350.84C7138.25 1353.28 7125.95 1357.07 7118.26 1360.73L7125.1 1437.9C7090.51 1443.83 7068.17 1448.44 7039.68 1465.37L6991.64 1403.1C6959.54 1416.75 6918.37 1450.12 6906.38 1477.62L6958.78 1533.51C6940.31 1555.55 6927.72 1574.5 6916.7 1601.24L6849.38 1577.76C6832.88 1602.46 6820.42 1649.68 6825.75 1671.2L6894.65 1684.08C6891.93 1709.46 6892.64 1735.65 6897.17 1762.07L6829.12 1783.87C6826.78 1809.9 6839.77 1858.29 6861.84 1880.58L6926.87 1848.41C6940.14 1873.02 6958.04 1897.12 6977.49 1916.4L6932.55 1977.07C6949.61 1997.45 6989.62 2026.37 7013.54 2034.26L7051.6 1967.89C7078.23 1980.81 7107 1989.56 7136.98 1993.47L7135.07 2064.79C7165.25 2073.14 7197.59 2072.76 7229.55 2062.43L7220.07 1991.77C7248.18 1986.94 7269.95 1981.17 7294.15 1968.92L7332.06 2028.32C7358.81 2023.81 7393.98 1998.75 7406.62 1975.73L7360.22 1923.44C7383.09 1902.62 7402.37 1878.12 7417.27 1851.08L7487.92 1879.36C7509.9 1858.78 7526.39 1810.21 7523.94 1783.62L7447.67 1765.5C7453.36 1734 7458.24 1712.22 7452.52 1678.81L7529.9 1656.38C7534.27 1622.98 7518.44 1581.06 7497.34 1561.72L7424.11 1592.59C7412.51 1568.52 7397.66 1546.54 7380.24 1527.11L7435.58 1466.11C7414.58 1429.67 7381.85 1404.29 7350.29 1397.38L7302.86 1465.96C7278.6 1452.65 7249.68 1440.72 7222.18 1435.07L7229.79 1356.85C7206.19 1346.53 7176.53 1346.79 7152.6 1350.84ZM7151.05 1566.54C7233.49 1552.4 7311.87 1608.32 7326.13 1691.42C7340.38 1774.52 7285.09 1853.37 7202.66 1867.51C7120.22 1881.65 7041.83 1825.73 7027.58 1742.63C7013.33 1659.52 7068.61 1580.67 7151.05 1566.54Z" fill="#2BAAE2"/>
<path opacity="0.42511" fill-rule="evenodd" clip-rule="evenodd" d="M6757.44 1810.8C6746.54 1809.82 6736.89 1810.23 6730.6 1811.42L6720.82 1868.76C6694.57 1866.45 6677.46 1865.53 6653.54 1872.38L6630.55 1817.98C6604.64 1821.75 6568.36 1838.12 6554.39 1855.79L6581.76 1906.4C6564.13 1918.88 6551.37 1930.22 6538.26 1947.54L6493.86 1917.61C6477.15 1932.39 6459.08 1964.3 6458.84 1980.95L6506.41 2003.47C6499.59 2021.38 6495.1 2040.54 6493.34 2060.59L6439.75 2063.42C6433.08 2081.87 6433.25 2119.49 6445.02 2139.89L6498.4 2128.96C6503.33 2149.38 6511.72 2170.31 6522.16 2188.02L6477.93 2223.49C6486.42 2241.55 6509.95 2270.2 6525.81 2280.5L6566.13 2239.58C6583 2254.06 6602.22 2265.91 6623.25 2274.49L6608.23 2325.91C6628.55 2337.74 6652.1 2343.65 6677.28 2342.26L6683.91 2289.13C6705.25 2291 6722.16 2290.97 6742.08 2286.7L6758.26 2337.08C6778.54 2338.92 6808.87 2327.45 6822.45 2313.15L6798.75 2266.31C6819.34 2255.56 6838.02 2241.45 6854.01 2224.66L6899.91 2258.71C6919.81 2247.97 6941.06 2215.85 6944.36 2196.07L6892.44 2168.33C6902.6 2146.55 6910.3 2131.66 6912.53 2106.31L6973.02 2104.81C6982.57 2081.39 6979.1 2047.93 6967.47 2029.84L6908.38 2038.27C6904.57 2018.57 6897.99 1999.76 6889.05 1982.33L6940.89 1948.61C6932.6 1918.13 6913.7 1893.44 6892.09 1882.39L6844.53 1923.12C6829.47 1908.82 6810.75 1894.63 6791.85 1885.27L6812.34 1829.92C6797.17 1817.92 6775.59 1812.44 6757.44 1810.8ZM6715.07 1967.14C6777.64 1972.63 6823.87 2028.22 6818.34 2091.3C6812.8 2154.37 6757.59 2201.06 6695.02 2195.56C6632.45 2190.07 6586.22 2134.48 6591.75 2071.4C6597.29 2008.33 6652.5 1961.64 6715.07 1967.14Z" fill="#2BAAE2"/>
<path fill-rule="evenodd" clip-rule="evenodd" d="M1735.91 5084.61H4496.37C4534.19 5084.61 4564.85 5114.83 4564.85 5152.11C4564.85 5189.38 4534.19 5219.6 4496.37 5219.6H1735.91C1698.08 5219.6 1667.43 5189.38 1667.43 5152.11C1667.43 5114.83 1698.08 5084.61 1735.91 5084.61Z" fill="#E0E0E0"/>
<path fill-rule="evenodd" clip-rule="evenodd" d="M1360.17 3591.96L1693.52 5053.48C1701.56 5088.77 1737.43 5117.46 1773.63 5117.55L3656.48 5122.34C3692.67 5122.44 3715.5 5093.89 3707.43 5058.6L3375.14 3602.24C3367.09 3566.94 3331.22 3538.18 3295.01 3538L1411.14 3528.39C1374.95 3528.2 1352.12 3556.67 1360.17 3591.96Z" fill="#E0E0E0"/>
<path fill-rule="evenodd" clip-rule="evenodd" d="M1445.29 3645.16L1754.46 5000.66C1761.92 5033.4 1795.2 5060.01 1828.77 5060.09L3575.05 5064.54C3608.63 5064.62 3629.79 5038.15 3622.32 5005.42L3314.12 3654.69C3306.65 3621.95 3273.38 3595.28 3239.81 3595.11L1492.57 3586.19C1458.99 3586.02 1437.82 3612.42 1445.29 3645.16Z" fill="#4CC8ED" fill-opacity="0.55303"/>
<path fill-rule="evenodd" clip-rule="evenodd" d="M7513.55 5081.47H4753.09C4715.27 5081.47 4684.61 5111.69 4684.61 5148.97C4684.61 5186.24 4715.27 5216.46 4753.09 5216.46H7513.55C7551.37 5216.46 7582.03 5186.24 7582.03 5148.97C7582.03 5111.69 7551.37 5081.47 7513.55 5081.47Z" fill="#E0E0E0"/>
<path fill-rule="evenodd" clip-rule="evenodd" d="M7889.28 3588.82L7555.94 5050.34C7547.89 5085.63 7512.02 5114.32 7475.82 5114.41L5592.98 5119.2C5556.78 5119.29 5533.96 5090.75 5542.02 5055.46L5874.31 3599.1C5882.37 3563.8 5918.24 3535.04 5954.44 3534.86L7838.32 3525.25C7874.51 3525.06 7897.34 3553.52 7889.28 3588.82Z" fill="#E0E0E0"/>
<path fill-rule="evenodd" clip-rule="evenodd" d="M7804.16 3642.01L7495 4997.53C7487.54 5030.26 7454.26 5056.87 7420.69 5056.96L5674.4 5061.4C5640.83 5061.48 5619.66 5035.01 5627.14 5002.28L5935.33 3651.55C5942.81 3618.81 5976.07 3592.14 6009.65 3591.97L7756.89 3583.05C7790.46 3582.88 7811.63 3609.27 7804.16 3642.01Z" fill="#4CC8ED" fill-opacity="0.55303"/>
<path fill-rule="evenodd" clip-rule="evenodd" d="M2585.93 4370.68C2585.93 4370.68 2547.41 4533.42 2528.52 4723.2C2509.62 4912.97 2532.01 5061.28 2532.01 5061.28L2901.13 5062.84C2901.13 5062.84 2912.08 5049.28 2922.88 5011.89C2933.67 4974.5 2944.32 4913.26 2944.32 4913.26C2944.32 4913.26 2944.27 4972.07 2947.53 5009.75C2950.79 5047.42 2957.38 5063.95 2957.38 5063.95L3301.75 5064.04C3301.75 5064.04 3295.44 4871.06 3277.04 4705.63C3258.63 4540.21 3228.13 4402.36 3228.13 4402.36L2585.93 4370.68Z" fill="#135EAB"/>
<path fill-rule="evenodd" clip-rule="evenodd" d="M4380.53 3536.88C4380.53 3536.88 4331.9 3629.36 4363.35 3664.56C4394.8 3699.78 4477.13 3666.02 4477.13 3666.02C4477.13 3666.02 4721.32 3538.47 4702.75 3519.8C4684.2 3501.12 4627.22 3561.81 4615.14 3549.32C4603.06 3536.84 4721.88 3470.69 4702.19 3452.52C4682.51 3434.36 4605.69 3525.2 4597.15 3515.36C4588.61 3505.51 4688.34 3430.62 4668.04 3413.16C4647.72 3395.69 4565.46 3497.93 4553.73 3488.53C4542.01 3479.14 4640.89 3389.05 4621.13 3375.59C4601.38 3362.12 4532.48 3469.88 4498.56 3472.97C4464.62 3476.07 4514.27 3377.62 4485.42 3387.94C4456.56 3398.27 4380.53 3536.88 4380.53 3536.88Z" fill="#FDBC8C"/>
<path fill-rule="evenodd" clip-rule="evenodd" d="M4432.73 4335.71C4432.73 4335.71 4336.24 4375.75 4337.92 4422.94C4339.61 4470.12 4424.51 4496.77 4424.51 4496.77C4424.51 4496.77 4693.83 4554.74 4691.48 4528.51C4689.15 4502.28 4606.54 4512.55 4605.22 4495.23C4603.91 4477.89 4737.57 4502.96 4734.04 4476.41C4730.51 4449.86 4613.37 4470.63 4613.09 4457.6C4612.82 4444.57 4737.39 4450.71 4732.92 4424.3C4728.46 4397.88 4599.86 4423.94 4596.84 4409.22C4593.82 4394.5 4727.44 4388.4 4720.86 4365.42C4714.27 4342.44 4592.42 4381.29 4564.35 4361.99C4536.27 4342.68 4637.37 4298.7 4608.58 4288.19C4579.78 4277.69 4432.73 4335.71 4432.73 4335.71Z" fill="#FDBC8C"/>
<path fill-rule="evenodd" clip-rule="evenodd" d="M3027.22 2891.46C3027.22 2891.46 3034.03 3005.1 3021.51 3094.06C3008.98 3183.02 2977.13 3247.31 2977.13 3247.31C2977.13 3247.31 2961.54 3376.18 3038.69 3421.93C3115.83 3467.69 3285.71 3430.34 3285.71 3430.34C3285.71 3430.34 3246.87 3273.01 3257.58 3151.23C3268.29 3029.44 3328.56 2943.19 3328.56 2943.19L3027.22 2891.46Z" fill="#FDBC8C"/>
<path fill-rule="evenodd" clip-rule="evenodd" d="M3027.22 2891.46C3027.22 2891.46 3034.03 3005.1 3021.51 3094.06C3008.98 3183.02 2977.13 3247.31 2977.13 3247.31C2977.13 3247.31 3067.84 3177.39 3137.09 3161.88C3206.34 3146.38 3262.63 3117.48 3262.63 3117.48C3262.63 3117.48 3267.82 3080.23 3273.8 3056.07C3299.11 2953.9 3328.57 2943.19 3328.57 2943.19L3027.22 2891.46Z" fill="#DFA58B"/>
<path fill-rule="evenodd" clip-rule="evenodd" d="M2995.55 3213.78C2995.55 3213.78 3050.8 3299.81 3122.83 3320.67C3208.31 3345.4 3262.84 3292.08 3262.84 3292.08C3262.84 3292.08 3344.3 3356.36 3423.28 3469.47C3516.25 3602.63 3456.78 3578.73 3597.5 3650.67C3817.64 3763.23 3859.69 3723.59 4040.44 3667.39C4221.19 3611.2 4357.34 3560.58 4357.34 3560.58C4357.34 3560.58 4347.16 3611.21 4377.54 3648.02C4407.92 3684.84 4464.4 3687.98 4464.4 3687.98C4464.4 3687.98 4242.16 3830.18 4134.68 3879.18C4038.76 3922.91 3843.87 4033.65 3678.29 4031.57C3512.71 4029.49 3446.72 3992.7 3446.72 3992.7C3446.72 3992.7 3385.92 4578.14 3278.81 4725.02C3171.7 4871.9 3014.01 4841.96 2881.16 4827.88C2784.34 4817.63 2593.48 4816.41 2512.53 4659.56C2470.35 4577.83 2474.54 4421.48 2516.17 4133C2557.81 3844.52 2572.93 3667.49 2622.09 3556.35C2759.48 3245.73 2995.55 3213.78 2995.55 3213.78Z" fill="#2E3690"/>
<path fill-rule="evenodd" clip-rule="evenodd" d="M3076.69 3618.25C3012.11 3470.97 2911.7 3387.13 2803.65 3420.12C2718.8 3446.02 2606.19 3617.47 2770.16 3832.38C2927.21 4038.2 3208.25 4384.55 3406.18 4434.33C3550.07 4470.52 4360.33 4488.44 4360.33 4488.44C4360.33 4488.44 4328.23 4462.45 4334.4 4418.58C4340.58 4374.72 4383.94 4333.68 4383.94 4333.68C4383.94 4333.68 3913.69 4282.62 3786.29 4261.41C3669.78 4242.01 3488.3 4163.07 3341.01 3963.31C3196.81 3767.76 3151.92 3789.79 3076.69 3618.25Z" fill="#135EAB"/>
<path fill-rule="evenodd" clip-rule="evenodd" d="M3095.4 3610.53C3030.81 3463.24 2930.41 3379.4 2822.35 3412.39C2737.5 3438.29 2624.89 3609.75 2788.87 3824.66C2945.91 4030.48 3226.97 4379.29 3417.88 4451.45C3554.31 4503.02 4403.52 4513.14 4403.52 4513.14C4403.52 4513.14 4346.94 4454.72 4353.11 4410.86C4359.28 4366.99 4402.65 4325.95 4402.65 4325.95C4402.65 4325.95 3932.4 4274.89 3804.99 4253.68C3688.48 4234.29 3507.01 4155.35 3359.71 3955.59C3215.52 3760.03 3170.62 3782.06 3095.4 3610.53Z" fill="#2E3690"/>
<path fill-rule="evenodd" clip-rule="evenodd" d="M2946.1 2513.14C2881.46 2582.07 2934.12 2702.97 2933.73 2790.19C2933.58 2823.3 2885.89 2725.76 2867.47 2783.84C2857.64 2814.86 2893.16 2929.16 2930.68 2902.57C2968.2 2875.97 2991.52 2971.03 3016.19 2995.55C3076.74 3055.72 3142.09 3106.72 3242.64 3114.83C3427.29 3129.72 3442.87 2912.86 3449.77 2754.92C3453.54 2668.31 3441.02 2598.56 3402.57 2546.62C3370.9 2503.83 3320.3 2474.22 3258.43 2447.76C3121.43 2389.17 3035.26 2418.05 2946.1 2513.14Z" fill="#FDBC8C"/>
<path fill-rule="evenodd" clip-rule="evenodd" d="M2942.31 2869.25C2973.45 2924.09 2896.84 2734.26 2974.83 2703.59C3052.82 2672.93 3079.67 2735.75 3116.95 2640.37C3154.23 2544.98 3067.87 2465.63 3067.87 2465.63C3067.87 2465.63 3233.81 2552.41 3356.5 2551.69C3379.17 2551.57 3382.1 2551.07 3402.33 2546.09C3405.12 2545.41 3432.72 2593.08 3441.68 2636.27C3452.76 2689.72 3448.58 2737.53 3451.39 2732.12C3454.64 2725.84 3457.66 2666.78 3447.84 2612.55C3440.28 2570.84 3415.22 2539.96 3420.34 2539.97C3481.97 2540.02 3590.89 2456.3 3566.76 2401.72C3542.62 2347.15 3433.06 2263.5 3327.63 2319.24C3208.88 2382.02 3167.72 2266.76 3051.49 2281.63C2935.26 2296.5 2903.7 2357.67 2850.26 2484.21C2816.82 2563.37 2866.59 2675.21 2903.04 2759.41C2924.85 2809.81 2930.64 2848.7 2942.31 2869.25Z" fill="#272361"/>
<path fill-rule="evenodd" clip-rule="evenodd" d="M3177.47 2774.25C3176.87 2760.67 3186.09 2749.94 3198.09 2750.27C3210.1 2750.61 3220.31 2761.89 3220.93 2775.47C3221.54 2789.04 3212.3 2799.77 3200.3 2799.44C3188.3 2799.1 3178.08 2787.82 3177.47 2774.25Z" fill="#272361"/>
<path fill-rule="evenodd" clip-rule="evenodd" d="M3363.33 2780.08C3362.57 2766.48 3372.27 2755.81 3385.01 2756.25C3397.75 2756.69 3408.69 2768.07 3409.46 2781.66C3410.23 2795.26 3400.51 2805.93 3387.78 2805.49C3375.04 2805.05 3364.09 2793.68 3363.33 2780.08Z" fill="#272361"/>
<path fill-rule="evenodd" clip-rule="evenodd" d="M3194.29 2948.76C3192.33 2933.23 3244.68 2956.38 3286.79 2956.64C3328.9 2956.9 3349.29 2950.5 3351.24 2966.03C3353.2 2981.57 3329.59 3011.59 3287.47 3011.34C3245.36 3011.08 3196.24 2964.3 3194.29 2948.76Z" fill="#E0E0E0"/>
<path fill-rule="evenodd" clip-rule="evenodd" d="M3365.92 2677.22L3407 2683.78C3414.48 2684.97 3419.86 2690.38 3419.01 2695.87C3418.15 2701.35 3411.41 2704.83 3403.92 2703.63L3362.86 2697.07C3355.37 2695.87 3350 2690.46 3350.85 2684.98C3351.69 2679.5 3358.45 2676.03 3365.92 2677.22Z" fill="#272361"/>
<path fill-rule="evenodd" clip-rule="evenodd" d="M3174.55 2662.67L3216.15 2662.87C3223.71 2662.9 3229.85 2667.43 3229.85 2672.98C3229.85 2678.52 3223.72 2682.99 3216.15 2682.95L3174.55 2682.76C3166.98 2682.73 3160.84 2678.2 3160.84 2672.65C3160.83 2667.11 3166.98 2662.63 3174.55 2662.67Z" fill="#272361"/>
<path fill-rule="evenodd" clip-rule="evenodd" d="M3116.68 2763.11C3122.71 2720.24 3163.25 2690.52 3207.22 2696.71C3251.18 2702.89 3281.94 2742.66 3275.9 2785.52C3269.87 2828.39 3229.34 2858.11 3185.37 2851.92C3141.4 2845.73 3110.64 2805.97 3116.68 2763.11Z" stroke="#828282" stroke-width="8.77" stroke-linecap="round" stroke-linejoin="round"/>
<path fill-rule="evenodd" clip-rule="evenodd" d="M3324.19 2773.4C3330.12 2731.3 3369.56 2702.04 3412.29 2708.06C3455.02 2714.08 3484.86 2753.09 3478.93 2795.19C3473 2837.3 3433.56 2866.55 3390.83 2860.54C3348.1 2854.52 3318.26 2815.51 3324.19 2773.4Z" stroke="#828282" stroke-width="8.77" stroke-linecap="round" stroke-linejoin="round"/>
<path d="M3280.56 2766.33C3280.56 2766.33 3290.48 2762.22 3299.92 2762.55C3309.36 2762.88 3318.31 2767.65 3318.31 2767.65" stroke="#828282" stroke-width="8.77" stroke-linecap="round" stroke-linejoin="round"/>
<path d="M3478.76 2776.76L3448.18 2774.04" stroke="#828282" stroke-width="7.95" stroke-linejoin="round"/>
<path d="M3108.19 2769.17L2913.21 2771.34" stroke="#828282" stroke-width="8.86" stroke-linecap="round" stroke-linejoin="round"/>
<path fill-rule="evenodd" clip-rule="evenodd" d="M3487.24 3576.95C3487.24 3576.95 3496.12 3657.1 3485.73 3756.71C3475.35 3856.31 3448.15 3990.4 3448.15 3990.4C3448.15 3990.4 3483.06 3878.09 3493.43 3778.49C3503.82 3678.88 3487.24 3576.95 3487.24 3576.95Z" fill="#135EAB"/>
<path fill-rule="evenodd" clip-rule="evenodd" d="M6378.71 3293.43C6378.71 3293.43 6554.65 3080.13 6701.58 2746.86C6786.49 2554.27 6830.21 2289.79 6906.05 2085.47C7046.15 1708.03 7354.87 1883.83 7658.44 1853.47C8037.9 1815.51 8276.82 1772.23 8309.22 1759.72C8366.84 1737.47 8637.22 1641.12 8615.01 1821.46C8592.8 2001.81 8356.5 2050.64 8356.5 2050.64C8356.5 2050.64 8558.73 2006.01 8545.19 2169.73C8534.84 2294.97 8351.72 2325.29 8351.72 2325.29C8351.72 2325.29 8528.65 2337.78 8488.64 2506.81C8448.64 2675.84 8243.13 2646.1 8243.13 2646.1C8243.13 2646.1 8335.88 2703.23 8320.22 2757.77C8304.56 2812.32 8336.67 2885.8 8136.75 2871.08C7936.84 2856.35 7737.37 2857.51 7539.15 2758.37C7349.03 2663.27 7228.08 2651.2 7131.15 2839.17C6915.11 3258.06 6634.9 3261.22 6634.9 3261.22L6378.71 3293.43Z" fill="#0081C3"/>
<path fill-rule="evenodd" clip-rule="evenodd" d="M6549.02 3391.84C6549.02 3391.84 6703.17 3228.9 6847.33 2916.58C6921.35 2756.22 6957.81 2538.8 7042.18 2320.68C7210.45 1885.7 7532.91 2100.68 7859.75 2075.37C8268.3 2043.73 8526.46 2001.24 8561.79 1987.73C8624.62 1963.72 8919.05 1860.45 8886.59 2069.77C8854.14 2279.09 8598.51 2328.15 8598.51 2328.15C8598.51 2328.15 8817.41 2282.86 8795.05 2473.11C8777.95 2618.65 8580.22 2647.89 8580.22 2647.89C8580.22 2647.89 8769.26 2668.31 8718.28 2863.86C8667.3 3059.41 8448.44 3017.96 8448.44 3017.96C8448.44 3017.96 8545.13 3087.57 8525.72 3150.59C8506.32 3213.61 8537.21 3300.27 8323.64 3276.49C8110.06 3252.71 7896.21 3247.46 7688.51 3125.41C7489.29 3008.35 7360.23 2990.28 7247.31 3206.02C6995.66 3686.77 6695.17 3681.16 6695.17 3681.16L6549.02 3391.84Z" fill="#2BAAE2"/>
<path fill-rule="evenodd" clip-rule="evenodd" d="M6734.13 4587.77C6734.13 4587.77 6727.04 4825.1 6727.84 5065.83L6314.39 5066.24C6306.22 5026.57 6299.37 4996.44 6299.37 4996.44C6299.37 4996.44 6299.94 5019.34 6296.53 5066.78L5989.01 5067.4L5981.99 4651.66L6734.13 4587.77Z" fill="#2E3690"/>
<path fill-rule="evenodd" clip-rule="evenodd" d="M6249.38 4936.6C6249.38 4936.6 6257.82 4960.52 6272.45 4978.25C6287.09 4995.98 6296.14 4975.35 6301.46 5006.45C6306.35 5035 6303.96 5037.7 6306.51 5066.46L6278.64 5067.13C6279.09 5029.89 6275 5041.42 6275.08 5021.51C6275.15 5005.34 6275.14 4996.2 6275.14 4996.2C6275.14 4996.2 6272.11 5004.5 6262.84 4991.07C6238.92 4956.39 6249.38 4936.6 6249.38 4936.6Z" fill="#272361"/>
<path fill-rule="evenodd" clip-rule="evenodd" d="M4865.03 4311.84C4865.03 4311.84 4993.61 4232.29 5157.04 4153.1C5320.46 4073.9 5310.47 4075.55 5412.04 4035.58C5564.54 3975.58 5634.86 4022.14 5659.54 3845.56C5692.04 3613.04 5680.9 3542.14 5772.04 3580.54C5829.63 3604.81 5889.54 3663.05 5857.03 3880.57C5824.54 4098.09 5630.44 4155.52 5519.54 4200.6C5408.63 4245.68 5336.6 4256.09 5214.54 4300.61C5002.75 4377.86 4910.93 4394.95 4910.93 4394.95C4910.93 4394.95 4677.78 4642.57 4665.56 4614.44C4653.35 4586.3 4740.7 4548.92 4732.39 4530.46C4724.1 4512.01 4605.85 4615.07 4594.63 4585.91C4583.42 4556.75 4710.7 4510.08 4703.77 4496.62C4696.83 4483.15 4577.1 4561.62 4566.87 4532.06C4556.64 4502.5 4698.2 4454.57 4693.03 4437.8C4687.86 4421.02 4552.4 4492.23 4546.18 4464.95C4539.96 4437.67 4681.94 4406.72 4698.98 4370.74C4716.03 4334.76 4591.73 4348.44 4614.37 4321.03C4637.02 4293.63 4865.03 4311.84 4865.03 4311.84Z" fill="#FDBC8C"/>
<path fill-rule="evenodd" clip-rule="evenodd" d="M6358.38 2735.67C6358.38 2735.67 6346.77 2848.55 6357.13 2937.11C6367.49 3025.67 6395.04 3085.26 6395.04 3085.26C6395.04 3085.26 6422.24 3104.75 6457.04 3111.78C6491.83 3118.81 6547.33 3183.1 6547.33 3183.1C6547.33 3183.1 6387.48 3245.28 6234.62 3280.5C6081.77 3315.71 5922.83 3254.25 5922.83 3254.25C5946.68 3236.6 5981 3212.67 6016.4 3186.66C6051.79 3160.64 6079.74 3137.18 6084.78 3129.88C6112.26 3090.07 6100.66 3038.3 6097.9 2991.53C6090.71 2870.37 6028.24 2784.02 6028.24 2784.02L6358.38 2735.67Z" fill="#FDBC8C"/>
<path fill-rule="evenodd" clip-rule="evenodd" d="M6358.38 2735.67C6358.38 2735.67 6346.77 2848.55 6357.13 2937.11C6367.49 3025.67 6399.83 3089.9 6399.83 3089.9C6399.83 3089.9 6303.6 3019.47 6228.74 3003.36C6153.89 2987.24 6093.64 2957.94 6093.64 2957.94C6093.64 2957.94 6089.36 2920.87 6083.73 2896.78C6059.91 2794.97 6028.24 2784.02 6028.24 2784.02L6358.38 2735.67Z" fill="#DFA58B"/>
<path fill-rule="evenodd" clip-rule="evenodd" d="M5982.64 4889.72L5983.65 4923.82L6370.3 4881.22L5982.64 4889.72Z" fill="#272361"/>
<path fill-rule="evenodd" clip-rule="evenodd" d="M6444.22 3101.12C6444.22 3101.12 6357.97 3228.35 6227.92 3252.16C6116.69 3272.53 6043.48 3168.96 6043.48 3168.96C6043.48 3168.96 6085.62 3134.03 5927.28 3227.76C5783.58 3312.83 5697.55 3529.38 5697.55 3529.38C5697.55 3529.38 5616.86 3787.28 5648.4 3832.42C5648.4 3832.42 5701.44 3873.89 5755.27 3869.57C5809.11 3865.25 5887.68 3852.87 5887.68 3852.87C5887.68 3852.87 5819.32 3769.9 5818.25 3802.85C5815.9 3874.85 5836.94 3984.79 5850.98 4151.15C5886.72 4574.42 5944.54 4876.62 5944.54 4876.62C5944.54 4876.62 6104.11 4897.86 6295.95 4885.82C6487.8 4873.77 6796.88 4832.24 6796.88 4832.24C6796.88 4832.24 6765.1 4509.21 6771.84 4295.79C6778.56 4082.38 6769.22 4071.78 6774.42 3798.34C6778.68 3573.52 6820.68 3580.55 6770.85 3414.9C6709.64 3211.38 6444.22 3101.12 6444.22 3101.12Z" fill="#135EAB"/>
<path fill-rule="evenodd" clip-rule="evenodd" d="M6430.06 3102.16C6430.06 3102.16 6322.42 3220.15 6229.52 3231.05C6118.1 3244.13 6045.57 3164.13 6045.57 3164.13C6045.57 3164.13 6038.25 3163.78 6030.95 3169.12C6024.61 3173.75 6024.18 3180.62 6024.18 3180.62C6024.18 3180.62 6108.54 3268.24 6224.23 3255.21C6365.95 3239.26 6457.38 3106.32 6457.38 3106.32C6457.38 3106.32 6453.47 3102.41 6443.65 3100.65C6436.22 3099.32 6430.06 3102.16 6430.06 3102.16Z" fill="#1172BA"/>
<path fill-rule="evenodd" clip-rule="evenodd" d="M5980.62 4452.62L5988.2 4456.99L5996.03 4447.2L6007.68 4454.9L6014.13 4445.74L6024.12 4453.03L6029.74 4442.83L6038.69 4452.61L6046.81 4440.13L6067.8 4448.58L6179.68 4983.4L6125.72 4995.55L5980.62 4452.62Z" fill="#E0E0E0"/>
<path fill-rule="evenodd" clip-rule="evenodd" d="M6048.8 4437.51L6854.56 4399.57L6870.89 4938.91L6120.65 5004.3L5968.34 4441.99L5983.95 4443.04L6125.35 4954.63L6048.8 4437.51Z" fill="#272361"/>
<path fill-rule="evenodd" clip-rule="evenodd" d="M6338.04 4661.97C6338.04 4661.97 6372.47 4516.43 6431.33 4346.84C6490.18 4177.26 6484.38 4185.37 6527.34 4086.48C6591.83 3937.99 6663.12 3913.3 6615.66 3732.28C6567.38 3548.14 6596.4 3434.68 6686.13 3398.09C6742.83 3374.95 6806.71 3474.59 6814.09 3656.92C6821.49 3839.25 6761.58 4018.4 6715.68 4127.4C6669.77 4236.4 6626.94 4293.94 6572.9 4410.33C6479.13 4612.28 6427.18 4688.31 6427.18 4688.31C6427.18 4688.31 6436.01 5024.82 6408.13 5013.58C6380.27 5002.33 6415.13 4915.17 6396.65 4907.99C6378.17 4900.83 6367.12 5055.66 6339.24 5043C6311.36 5030.35 6367.55 4908.81 6353.45 4904.19C6339.36 4899.58 6310.32 5038.18 6282.86 5024.55C6255.38 5010.93 6320.61 4878.55 6305.46 4870.37C6290.31 4862.2 6245.36 5006.68 6222.25 4991.85C6199.14 4977.03 6276.35 4856.28 6263.39 4819.13C6250.42 4781.98 6173.58 4878.26 6170.4 4843.23C6167.24 4808.18 6338.04 4661.97 6338.04 4661.97Z" fill="#FDBC8C"/>
<path fill-rule="evenodd" clip-rule="evenodd" d="M6467.03 3673.94C6460.77 3533.93 6477.33 3434.08 6575.77 3390.14C6612.64 3373.69 6643.72 3344.37 6685.58 3369.78C6727.45 3395.18 6775.07 3425.41 6802.02 3531.26C6817.69 3592.85 6655.51 3703.65 6643.94 3721.98L6624.55 3887.11C6541.92 3888.5 6488.85 3869.77 6488.85 3869.77C6488.85 3869.77 6468.71 3711.69 6467.03 3673.94Z" fill="#135EAB"/>
<path fill-rule="evenodd" clip-rule="evenodd" d="M6474.1 3627.21C6462.23 3454.69 6495.05 3327.66 6585.4 3312.7C6625.34 3306.08 6665.29 3307.4 6708.16 3337.38C6751.02 3367.35 6799.84 3403.1 6831 3532.8C6849.13 3608.27 6866.46 3817.62 6855.63 3840.6C6855.63 3840.6 6794.24 3876.51 6711.7 3880.91C6629.17 3885.3 6500.8 3860.52 6500.8 3860.52C6500.8 3860.52 6477.3 3673.71 6474.1 3627.21Z" fill="#135EAB"/>
<path fill-rule="evenodd" clip-rule="evenodd" d="M6460.68 2360.45C6528.53 2429.62 6441.77 2608.62 6460.48 2603.29C6479.19 2597.94 6489.15 2541.49 6532.6 2598.22C6568.07 2644.53 6470.69 2765.06 6443.12 2727.42C6415.14 2689.22 6394.34 2815.14 6366.56 2839.25C6298.39 2898.45 6225.33 2948.47 6115.5 2955.51C5913.82 2968.42 5902.46 2751.25 5900.77 2594.2C5899.85 2508.07 5890.58 2427.64 5934.38 2376.4C5970.44 2334.19 5963 2314.72 6031.37 2289.06C6182.76 2232.22 6367.06 2265.02 6460.68 2360.45Z" fill="#FDBC8C"/>
<path fill-rule="evenodd" clip-rule="evenodd" d="M6425.58 2708.91C6425.58 2708.91 6380.14 2726.48 6400.35 2679.06C6421.27 2629.95 6439.85 2588.36 6440.24 2552.78C6440.49 2530.48 6441.56 2503 6422.7 2496.97C6403.83 2490.95 6360.53 2514.96 6345.93 2488.4C6328.12 2456 6379.19 2396.26 6335.19 2365.11C6281.32 2326.95 6208.43 2383.15 6129.1 2386.42C6049.79 2389.68 5986.28 2357.42 5957.04 2366.2C5937.36 2372.11 5920.68 2387.58 5916.47 2414.86C5913.19 2436.07 5920.21 2465.9 5917.58 2491.7C5916.48 2502.5 5905.95 2504.7 5901.72 2513.95C5898.86 2520.23 5901.87 2529.83 5900.98 2537.96C5898.42 2561.04 5902.67 2581.61 5900.71 2577.89C5897.4 2571.62 5896.38 2489.03 5900.64 2450.38C5906.21 2399.94 5921.66 2369.92 5937.38 2342.44C5953.09 2314.95 5994.94 2273.83 6035.41 2255.37C6086.12 2232.25 6142.43 2217.7 6199.73 2216.54C6285.99 2214.81 6338.33 2232.38 6387.58 2254.35C6451.9 2283.03 6479.41 2348.15 6489.22 2388.59C6496.03 2416.69 6481.81 2511.94 6465.32 2590.61C6454.02 2644.45 6425.58 2708.91 6425.58 2708.91Z" fill="#2E3690"/>
<path fill-rule="evenodd" clip-rule="evenodd" d="M6199.03 2617.63C6200.2 2604.14 6190.54 2593.38 6177.45 2593.59C6164.38 2593.81 6152.83 2604.91 6151.66 2618.4C6150.49 2631.89 6160.16 2642.65 6173.24 2642.44C6186.32 2642.23 6197.87 2631.12 6199.03 2617.63Z" fill="#272361"/>
<path fill-rule="evenodd" clip-rule="evenodd" d="M5996.38 2621.53C5997.71 2608.02 5987.53 2597.32 5973.65 2597.63C5959.75 2597.94 5947.41 2609.14 5946.08 2622.65C5944.75 2636.16 5954.93 2646.86 5968.81 2646.55C5982.7 2646.24 5995.04 2635.04 5996.38 2621.53Z" fill="#272361"/>
<path fill-rule="evenodd" clip-rule="evenodd" d="M6463.37 2583.78C6475.91 2584.37 6407.13 2797.89 6368.95 2834.92C6315.62 2886.64 6297.03 2904.17 6214.41 2935.66C6175.68 2950.42 6100.28 2968.41 6033.37 2948.51C5991.21 2935.97 5974.68 2912.45 5944.46 2862.42C5914.24 2812.4 5912.48 2748.39 5912.48 2748.39C5912.48 2748.39 5918.88 2786.2 5944.44 2794.37C5962.3 2800.07 5974.22 2765.49 6055.54 2758.22C6127.2 2751.8 6129.57 2752.81 6188.16 2760.74C6246.74 2768.66 6270.42 2784.34 6289.88 2789.91C6328.19 2800.87 6394.03 2708.24 6406.78 2669.14C6422.86 2619.87 6460.76 2583.66 6463.37 2583.78Z" fill="#272361"/>
<path fill-rule="evenodd" clip-rule="evenodd" d="M6179.24 2804.43C6176.48 2795.38 6122.25 2819.61 6076.37 2819.44C6030.49 2819.27 6007.63 2812.11 6004.73 2818.87C6002.84 2823.28 6025.23 2861.34 6071.11 2861.51C6116.99 2861.68 6182.91 2816.47 6179.24 2804.43Z" fill="#E0E0E0"/>
<path fill-rule="evenodd" clip-rule="evenodd" d="M5997.34 2519.26L5952.36 2525.37C5944.17 2526.48 5938.12 2531.81 5938.84 2537.26C5939.56 2542.72 5946.78 2546.25 5954.98 2545.14L5999.96 2539.03C6008.15 2537.92 6014.2 2532.59 6013.47 2527.14C6012.75 2521.68 6005.53 2518.16 5997.34 2519.26Z" fill="#272361"/>
<path fill-rule="evenodd" clip-rule="evenodd" d="M6206.33 2506.76L6161.01 2506.53C6152.76 2506.48 6145.91 2510.92 6145.7 2516.43C6145.51 2521.95 6152.02 2526.45 6160.28 2526.5L6205.59 2526.72C6213.84 2526.77 6220.69 2522.33 6220.9 2516.82C6221.1 2511.3 6214.58 2506.8 6206.33 2506.76Z" fill="#272361"/>
<path fill-rule="evenodd" clip-rule="evenodd" d="M5819.72 3571.16C5819.72 3571.16 5800.98 3616.04 5815.9 3787.89C5829.51 3944.79 5799.36 3818.59 5800.3 3717.65C5801.24 3616.72 5819.72 3571.16 5819.72 3571.16Z" fill="#2E3690"/>
<path d="M6811.38 3274.13C6811.38 3274.13 7067.03 2835.84 7217.41 2320.21C7275.01 2122.69 7664.73 2232.26 7879.08 2225.68C8201.49 2215.77 8512.82 2159.07 8512.82 2159.07" stroke="#4CC8ED" stroke-width="10.1" stroke-linecap="round" stroke-linejoin="round"/>
<path d="M6680.14 3064.49C6680.14 3064.49 6913.69 2614.03 7038.24 2091.56C7058.07 2008.39 7137.83 1975.34 7239.62 1963.87C7382.76 1947.75 7569.48 1974.33 7694.4 1964.25C8015.92 1938.33 8324.05 1866.23 8324.05 1866.23" stroke="#2BAAE2" stroke-width="10.1" stroke-linecap="round" stroke-linejoin="round"/>
<path fill-rule="evenodd" clip-rule="evenodd" d="M4583.7 2262.37L4586.02 2296.44C4586.02 2296.44 4560.39 2311.94 4560.89 2325.94C4561.41 2339.95 4586.96 2354.08 4586.96 2354.08C4586.96 2354.08 4563.4 2367.49 4565.25 2380.29C4567.1 2393.08 4595.96 2406.58 4595.96 2406.58C4595.96 2406.58 4571.41 2418.67 4573.14 2431.63C4574.86 2444.59 4605.14 2458.38 4605.14 2458.38C4605.14 2458.38 4576.58 2469.04 4578.53 2481.37C4580.49 2493.7 4610.03 2508.32 4610.03 2508.32C4610.03 2508.32 4580.58 2515.03 4581.75 2526.73C4582.93 2538.44 4615.37 2553.46 4615.37 2553.46C4615.37 2553.46 4620.02 2560.67 4621.76 2562.96C4634.73 2580.06 4744.93 2579.82 4784.29 2600.53C4803.03 2610.38 4828.83 2694.13 4899.37 2685.88C4973.28 2677.24 4962.04 2617.81 5002.96 2577.05C5037.82 2542.35 5136.08 2527.1 5149.82 2493.38C5151.33 2489.68 5154.45 2477.64 5154.45 2477.64C5154.45 2477.64 5184.5 2460.44 5181.14 2445.18C5177.88 2430.42 5150.78 2430.31 5150.78 2430.31C5150.78 2430.31 5175.58 2410.99 5174.47 2398.69C5173.36 2386.39 5146.75 2379.84 5146.75 2379.84C5146.75 2379.84 5170.98 2363.67 5169.67 2350.42C5168.35 2337.18 5140.69 2329.58 5140.69 2329.58C5140.69 2329.58 5166.62 2310.64 5165.35 2297.33C5164.08 2284.02 5133.62 2275.45 5133.47 2274.13C5133.37 2273.32 5160.72 2258.13 5158.72 2239.96C5156.72 2221.78 5123.52 2221 5123.52 2221L5118.37 2195.7L4583.7 2262.37Z" fill="#272361"/>
<path fill-rule="evenodd" clip-rule="evenodd" d="M4577.14 2247.55C4569.71 2179.22 4501.73 1981.43 4438 1913.55C4327.49 1795.9 4157.01 1593.5 4108.66 1347.87C4039.38 995.956 4259.07 640.604 4670.25 609.76C5081.44 578.917 5385.91 777.43 5393.91 1201.65C5400.13 1531.13 5199.51 1763.39 5170.3 1857.79C5141.08 1952.17 5118.93 2112.7 5128.52 2187.74C5138.12 2262.77 5059.64 2298.1 5059.64 2298.1C5059.64 2298.1 5005.7 2335.17 4886.25 2344.94C4766.79 2354.72 4684.81 2328.28 4684.81 2328.28C4684.81 2328.28 4584.1 2311.57 4577.14 2247.55Z" fill="#4CC8ED" stroke="#4CC8ED" stroke-width="3.05" stroke-linecap="round" stroke-linejoin="round"/>
<path d="M4860.28 2300.63C4860.28 2300.63 4803.74 1886.52 4722.37 1566.93C4685.96 1423.91 4636.87 1336.17 4607.67 1273.79C4539.52 1128.2 4459.09 1283.77 4494.57 1354.37C4530.05 1424.98 4644.23 1420.09 4731.71 1400.09C4819.19 1380.09 4812.66 1146.4 4772.31 1133.16C4731.95 1119.91 4703.74 1223.09 4734.54 1313.44C4765.33 1403.78 4980.47 1444.84 5032.23 1336.17C5058.52 1280.99 5053.8 1198.62 5037.36 1148.5C5021.44 1099.93 4962.55 1087.91 4937.66 1103.88C4905.71 1124.37 4869.18 1230.98 4856.29 1505.49C4843.4 1780.01 4915.34 2284.33 4915.34 2284.33" stroke="#E0E0E0" stroke-width="8.86" stroke-linecap="round" stroke-linejoin="round"/>
<path d="M4604.21 2354.63C4604.21 2354.63 4750.02 2389.92 4883.09 2376.78C5016.16 2363.63 5134.73 2274.78 5134.73 2274.78" stroke="white" stroke-width="3.05" stroke-linecap="round" stroke-linejoin="round"/>
<path d="M4612.5 2409.34C4612.5 2409.34 4758.3 2444.64 4891.37 2431.49C4919.78 2428.69 4947.52 2422.43 4973.59 2414.33C5069.66 2384.46 5143.02 2329.5 5143.02 2329.5" stroke="white" stroke-width="3.05" stroke-linecap="round" stroke-linejoin="round"/>
<path d="M4618.61 2459.58C4618.61 2459.58 4764.41 2494.87 4897.49 2481.72C5030.56 2468.58 5149.13 2379.74 5149.13 2379.74" stroke="white" stroke-width="3.05" stroke-linecap="round" stroke-linejoin="round"/>
<path d="M4624 2508.98C4624 2508.98 4769.8 2544.26 4902.88 2531.12C5035.96 2517.98 5154.53 2429.13 5154.53 2429.13" stroke="white" stroke-width="3.05" stroke-linecap="round" stroke-linejoin="round"/>
<path d="M4627.35 2556.63C4627.35 2556.63 4771.35 2593.29 4904.42 2580.14C4992.08 2571.49 5073.43 2529.99 5118.76 2502.66C5142.25 2488.5 5156.07 2478.15 5156.07 2478.15" stroke="white" stroke-width="3.05" stroke-linecap="round" stroke-linejoin="round"/>
</svg>
