<?xml version="1.0" encoding="UTF-8" standalone="no"?> <!-- Created with Vectornator for iOS (http://vectornator.io/) --><!DOCTYPE svg PUBLIC "-//W3C//DTD SVG 1.1//EN" "http://www.w3.org/Graphics/SVG/1.1/DTD/svg11.dtd">
<svg style="fill-rule:evenodd;clip-rule:evenodd;stroke-linecap:round;stroke-linejoin:round;" xmlns:vectornator="http://vectornator.io" xmlns:xlink="http://www.w3.org/1999/xlink" xmlns="http://www.w3.org/2000/svg" xml:space="preserve" version="1.1" viewBox="0 0 11000 6425.97">
<metadata>
<vectornator:setting key="DimensionsVisible" value="1"/>
<vectornator:setting key="SnapToGrid" value="0"/>
<vectornator:setting key="SnapToPoints" value="0"/>
<vectornator:setting key="GuidesVisible" value="1"/>
<vectornator:setting key="RulersVisible" value="1"/>
<vectornator:setting key="CMYKEnabledKey" value="0"/>
<vectornator:setting key="SnapToEdges" value="0"/>
<vectornator:setting key="DisplayWhiteBackground" value="1"/>
<vectornator:setting key="idAngle" value="45"/>
<vectornator:setting key="SnapToGuides" value="1"/>
<vectornator:setting key="Units" value="Pixels"/>
<vectornator:setting key="DynamicGuides" value="0"/>
<vectornator:setting key="GridSpacing" value="100"/>
<vectornator:setting key="New" value="1"/>
</metadata>
<defs>
<path d="M2987.11+2124.45C2987.11+2124.45+3093.46+2121.46+3094.87+2005.4C3096.26+1891.18+2986.62+1885.17+2986.62+1885.17L2716.64+1887.09C2716.64+1887.09+2600.01+1881.65+2601.57+2012.74C2602.94+2127.64+2723.19+2135.63+2723.19+2135.63L2839.56+2134.8C2851.47+2134.72+2868.82+2142.31+2878.32+2151.75L2969.15+2242.06C2978.29+2251.15+2981.75+2247.45+2976.88+2233.81L2946.92+2149.92C2942.95+2138.79+2947.28+2129.11+2956.61+2128.29L2987.11+2124.45Z" id="Mask"/>
<path d="M5921+3633.64L6384.9+3633.64C6408.02+3633.64+6426.98+3652.38+6427.27+3675.49L6430.42+3933.53C6430.7+3956.64+6412.2+3975.3+6389.08+3975.22L5916.27+3973.45C5893.16+3973.36+5874.68+3954.56+5875+3931.44L5878.56+3675.49C5878.89+3652.38+5897.88+3633.64+5921+3633.64Z" id="Mask_2"/>
</defs>
<g id="Слой 8" vectornator:layerName="Слой 8">
<path d="M1889.8+2971.35C2153.64+2221.44+3598.16+2211.42+3662.68+1484.3C3726.32+766.996+4635.67+840.582+5168.27+1135.8C5744.8+1455.36+7768.42+822.124+7699.7+1340.04C7630.98+1857.96+8592.96+2061.82+8653.31+2854.03C8713.28+3641.12+7828.93+4622.14+8017.39+5089.62C8186.01+5507.89+6008.21+5248.04+5101.94+5248.04C4528.2+5248.04+3251.71+5428.2+3074.39+4982.49C2695.9+4031.12+1582.76+3844.05+1889.8+2971.35Z" fill-opacity="0.153501" fill="#4cc8ed" opacity="1"/>
</g>
<g id="Слой 13" vectornator:layerName="Слой 13" visibility="hidden">
<path stroke="#2baae2" stroke-width="20.69" d="M6873.23+3364.14L6667.78+3426.89L6510.71+3280.35L6559.08+3071.05L6764.53+3008.29L6921.6+3154.83L6873.23+3364.14Z" fill="none" stroke-linecap="round" opacity="0.431718" stroke-linejoin="round"/>
<path stroke="#2baae2" stroke-width="20.69" d="M4445.66+1375.16L4094.51+1482.42L3826.04+1231.95L3908.72+874.214L4259.87+766.949L4528.34+1017.42L4445.66+1375.16Z" fill="none" stroke-linecap="round" opacity="0.431718" stroke-linejoin="round"/>
<path stroke="#2baae2" stroke-width="20.69" d="M6257.73+5298.41L6052.28+5361.16L5895.21+5214.62L5943.58+5005.32L6149.03+4942.56L6306.1+5089.1L6257.73+5298.41Z" fill="none" stroke-linecap="round" opacity="0.431718" stroke-linejoin="round"/>
<path stroke="#2baae2" stroke-width="20.69" d="M2600.91+2519.37L2395.47+2582.13L2238.39+2435.59L2286.77+2226.29L2492.21+2163.53L2649.29+2310.07L2600.91+2519.37Z" fill="none" stroke-linecap="round" opacity="0.431718" stroke-linejoin="round"/>
<path stroke="#2baae2" stroke-width="20.69" d="M6594.56+1563.99L6385.69+1627.8L6226+1478.81L6275.18+1266.02L6484.05+1202.21L6643.75+1351.2L6594.56+1563.99Z" fill="none" stroke-linecap="round" opacity="0.431718" stroke-linejoin="round"/>
<path stroke="#2baae2" stroke-width="20.69" d="M5052.91+3113.93L4853.87+3174.73L4701.7+3032.76L4748.57+2829.99L4947.6+2769.19L5099.77+2911.16L5052.91+3113.93Z" fill="none" stroke-linecap="round" opacity="0" stroke-linejoin="round"/>
<path stroke="#2baae2" stroke-width="20.69" d="M7739.09+932.342L7626.44+1024.22L7490.56+972.602L7467.31+829.113L7579.96+737.238L7715.84+788.853L7739.09+932.342Z" fill="none" stroke-linecap="round" opacity="0.431718" stroke-linejoin="round"/>
<path stroke="#2baae2" stroke-width="20.69" d="M3960.63+3713.39L3755.18+3776.15L3598.11+3629.61L3646.48+3420.3L3851.93+3357.55L4009+3504.09L3960.63+3713.39Z" fill="none" stroke-linecap="round" opacity="0.431718" stroke-linejoin="round"/>
</g>
<g id="Слой 6" vectornator:layerName="Слой 6">
<g opacity="1" vectornator:mask="#Mask">
<use xlink:href="#Mask" fill="#4cc8ed" stroke="none"/>
<clipPath id="ClipPath">
<use xlink:href="#Mask" fill="none" overflow="visible"/>
</clipPath>
<g clip-path="url(#ClipPath)">
<path d="M2754.87+2008.21C2754.87+1990.69+2740.89+1976.5+2723.63+1976.5C2706.38+1976.5+2692.39+1990.69+2692.39+2008.21C2692.39+2025.73+2706.38+2039.93+2723.63+2039.93C2740.89+2039.93+2754.87+2025.73+2754.87+2008.21Z" opacity="1" fill="#ffffff"/>
<path d="M2875.05+2008.21C2875.05+1990.69+2861.06+1976.5+2843.81+1976.5C2826.55+1976.5+2812.57+1990.69+2812.57+2008.21C2812.57+2025.73+2826.55+2039.93+2843.81+2039.93C2861.06+2039.93+2875.05+2025.73+2875.05+2008.21Z" opacity="1" fill="#ffffff"/>
<path d="M2996.76+2008.21C2996.76+1990.69+2982.77+1976.5+2965.52+1976.5C2948.26+1976.5+2934.27+1990.69+2934.27+2008.21C2934.27+2025.73+2948.26+2039.93+2965.52+2039.93C2982.77+2039.93+2996.76+2025.73+2996.76+2008.21Z" opacity="1" fill="#ffffff"/>
</g>
</g>
<path d="M4516.43+2638.47L4462.82+2782.46L4950.73+2920.21L4516.43+2638.47Z" opacity="1" fill="#0081c3"/>
<path d="M4535.97+2581.42L4502.22+2672.77L4800.38+2819.86L4535.97+2581.42Z" opacity="1" fill="#1172ba"/>
<path d="M4619.73+2528.5L4535.47+2582.35L4774.4+2800.96L4450.13+2619.48L4348.75+2663.43L4971.13+2929.61L4619.73+2528.5Z" opacity="1" fill="#2baae2"/>
<path stroke="#2baae2" stroke-opacity="0.138889" stroke-width="15.78" d="M5197.3+5356.13L5567.02+5307.48C5576.51+5306.23+5587.17+5298.05+5590.83+5289.21L5733.55+4944.7C5737.22+4935.86+5735.46+4922.53+5729.64+4914.94L5502.64+4619.08C5496.82+4611.49+5484.4+4606.34+5474.91+4607.59L5105.2+4656.25C5095.71+4657.5+5085.04+4665.68+5081.38+4674.52L4938.66+5019.03C4935+5027.87+4936.75+5041.2+4942.58+5048.79L5169.57+5344.65C5175.4+5352.24+5187.81+5357.38+5197.3+5356.13Z" fill="none" stroke-linecap="round" opacity="1" stroke-linejoin="round"/>
<path stroke="#2baae2" stroke-opacity="0.138889" stroke-width="15.78" d="M5874.42+3170.55L6150.88+3134.17C6157.98+3133.24+6165.95+3127.12+6168.69+3120.51L6275.41+2862.89C6278.15+2856.28+6276.84+2846.32+6272.48+2840.64L6102.75+2619.4C6098.39+2613.73+6089.1+2609.88+6082.01+2610.81L5805.55+2647.2C5798.45+2648.13+5790.48+2654.25+5787.74+2660.86L5681.01+2918.47C5678.27+2925.09+5679.58+2935.05+5683.94+2940.73L5853.68+3161.96C5858.04+3167.64+5867.32+3171.49+5874.42+3170.55Z" fill="none" stroke-linecap="round" opacity="1" stroke-linejoin="round"/>
<path stroke="#2baae2" stroke-opacity="0.138889" stroke-width="15.78" d="M8057.35+4219.42L8259.9+4104.43C8265.1+4101.48+8269.35+4094.24+8269.4+4088.26L8271.09+3855.36C8271.14+3849.38+8266.99+3842.08+8261.84+3839.05L8060.98+3721.13C8055.83+3718.1+8047.43+3718.04+8042.23+3721L7839.68+3835.98C7834.48+3838.93+7830.23+3846.17+7830.19+3852.15L7828.49+4085.06C7828.45+4091.03+7832.6+4098.33+7837.75+4101.36L8038.61+4219.28C8043.76+4222.31+8052.16+4222.37+8057.35+4219.42Z" fill="none" stroke-linecap="round" opacity="1" stroke-linejoin="round"/>
<path stroke="#2baae2" stroke-opacity="0.138889" stroke-width="15.78" d="M3634.88+1939.91L4071.45+1787.27C4082.66+1783.35+4093.53+1770.72+4095.74+1759.05L4181.83+1304.65C4184.04+1292.99+4178.54+1277.26+4169.54+1269.51L3819.06+967.757C3810.07+960.011+3793.69+956.909+3782.48+960.827L3345.92+1113.47C3334.71+1117.39+3323.84+1130.02+3321.63+1141.69L3235.54+1596.09C3233.33+1607.75+3238.83+1623.48+3247.83+1631.23L3598.31+1932.98C3607.3+1940.73+3623.68+1943.83+3634.88+1939.91Z" fill="none" stroke-linecap="round" opacity="1" stroke-linejoin="round"/>
<path stroke="#2baae2" stroke-width="15.22" d="M4847.21+3432.04C4935.29+3432.04+5008.45+3489.78+5018.25+3565.17C5026.61+3563.82+5035.03+3562.89+5043.52+3562.89C5115.34+3562.89+5174.29+3609.98+5174.29+3669.29C5174.29+3724+5123.84+3768.97+5058.48+3775.02C5058.48+3775.02+5043.43+3776.7+5037.67+3777.31C5021.22+3779.04+5003.36+3780.78+4984.73+3782.4C4957.68+3784.76+4931.31+3786.66+4906.49+3787.95C4883.27+3789.17+4862.01+3789.83+4843.12+3789.83C4795.69+3789.83+4749.98+3787.77+4688.51+3783.6C4681.58+3783.14+4643.68+3780.5+4633.88+3779.86C4563.76+3775.51+4508.54+3727.11+4508.54+3667.72C4508.54+3624.5+4538.05+3586.28+4583.04+3567.42C4587.84+3527.74+4625.3+3497.35+4670.29+3497.35C4680.92+3497.35+4691.3+3499.16+4701.14+3502.49C4732.42+3459.07+4787.1+3432.04+4847.21+3432.04Z" fill="#2baae2" stroke-linecap="round" fill-opacity="0.0631313" opacity="0.196035" stroke-linejoin="round"/>
<path stroke="#2baae2" stroke-width="15.22" d="M8719.3+3364.44C8807.39+3364.44+8880.54+3422.18+8890.34+3497.57C8898.7+3496.22+8907.13+3495.29+8915.61+3495.29C8987.43+3495.29+9046.39+3542.38+9046.39+3601.69C9046.39+3656.4+8995.93+3701.37+8930.57+3707.42C8930.57+3707.42+8915.52+3709.1+8909.76+3709.7C8893.31+3711.44+8875.45+3713.18+8856.83+3714.8C8829.77+3717.16+8803.4+3719.05+8778.58+3720.35C8755.36+3721.57+8734.1+3722.23+8715.22+3722.23C8667.79+3722.23+8622.08+3720.17+8560.6+3716C8553.67+3715.53+8515.77+3712.9+8505.97+3712.25C8435.85+3707.9+8380.64+3659.51+8380.64+3600.11C8380.64+3556.9+8410.14+3518.67+8455.13+3499.82C8459.93+3460.13+8497.39+3429.75+8542.38+3429.75C8553.01+3429.75+8563.39+3431.55+8573.23+3434.89C8604.51+3391.47+8659.2+3364.44+8719.3+3364.44Z" fill="#2baae2" stroke-linecap="round" fill-opacity="0.0631313" opacity="0.196035" stroke-linejoin="round"/>
<path stroke="#2baae2" stroke-width="15.22" d="M6844.42+1020.01C6932.5+1020.01+7005.66+1077.75+7015.46+1153.15C7023.81+1151.79+7032.24+1150.86+7040.73+1150.86C7112.55+1150.86+7171.5+1197.95+7171.5+1257.26C7171.5+1311.97+7121.05+1356.94+7055.69+1362.99C7055.69+1362.99+7040.64+1364.67+7034.88+1365.28C7018.43+1367.01+7000.57+1368.75+6981.94+1370.37C6954.89+1372.73+6928.52+1374.63+6903.7+1375.92C6880.48+1377.14+6859.22+1377.8+6840.33+1377.8C6792.9+1377.8+6747.19+1375.74+6685.72+1371.57C6678.79+1371.11+6640.89+1368.47+6631.09+1367.83C6560.97+1363.48+6505.75+1315.08+6505.75+1255.69C6505.75+1212.47+6535.26+1174.25+6580.25+1155.39C6585.05+1115.71+6622.51+1085.32+6667.5+1085.32C6678.13+1085.32+6688.51+1087.13+6698.35+1090.46C6729.63+1047.04+6784.31+1020.01+6844.42+1020.01Z" fill="#2baae2" stroke-linecap="round" fill-opacity="0.0631313" opacity="0.196035" stroke-linejoin="round"/>
<path stroke="#2baae2" stroke-width="15.22" d="M4311.74+4193.82C4399.82+4193.82+4472.98+4251.56+4482.78+4326.95C4491.13+4325.6+4499.56+4324.67+4508.05+4324.67C4579.87+4324.67+4638.82+4371.76+4638.82+4431.07C4638.82+4485.78+4588.37+4530.75+4523.01+4536.8C4523.01+4536.8+4507.96+4538.48+4502.2+4539.09C4485.75+4540.82+4467.89+4542.56+4449.26+4544.18C4422.21+4546.54+4395.84+4548.43+4371.02+4549.73C4347.8+4550.95+4326.54+4551.61+4307.65+4551.61C4260.22+4551.61+4214.51+4549.55+4153.04+4545.38C4146.11+4544.92+4108.21+4542.28+4098.41+4541.64C4028.29+4537.29+3973.07+4488.89+3973.07+4429.5C3973.07+4386.28+4002.58+4348.06+4047.57+4329.2C4052.37+4289.52+4089.83+4259.13+4134.82+4259.13C4145.45+4259.13+4155.83+4260.94+4165.67+4264.27C4196.95+4220.85+4251.63+4193.82+4311.74+4193.82Z" fill="#2baae2" stroke-linecap="round" fill-opacity="0.0631313" opacity="0.196035" stroke-linejoin="round"/>
<path stroke="#2baae2" stroke-opacity="0.237374" stroke-width="15.22" d="M4416.77+2545.18C4416.77+2545.18+4318.58+2399.89+4305.05+2169.32C4291.65+1941.1+4325.2+1828.43+4215.53+1628.67C4101.45+1420.88+3710.94+1239.92+3190.59+1349.68C2670.23+1459.44+2560.97+2030.11+2125.79+2371.97C1690.6+2713.83+1257.97+2911.18+1297.65+3494.18C1348.73+4244.7+2638.52+3565.35+2920.45+4073.23C3202.39+4581.1+2340.22+4842.74+2340.22+4842.74" fill="none" stroke-linecap="round" opacity="1" stroke-linejoin="round" stroke-dasharray="50,50,50,50"/>
</g>
<g id="Слой 2" vectornator:layerName="Слой 2">
<path d="M1364.38+5682.72C1364.38+5620.21+3095.82+5569.53+5231.66+5569.53C7367.5+5569.53+9098.94+5620.21+9098.94+5682.72C9098.94+5745.24+7367.5+5795.92+5231.66+5795.92C3095.82+5795.92+1364.38+5745.24+1364.38+5682.72Z" opacity="1" fill="#e0e0e0"/>
</g>
<g id="Слой 9" vectornator:layerName="Слой 9">
<path d="M4353.76+4643.17C4353.76+4643.17+4366.12+4528.42+4332.1+4495.72C4298.09+4463.03+4253.37+4533.43+4230.91+4491.88C4208.45+4450.33+4264.15+4412.73+4222.05+4353.56C4189.97+4308.46+4136.88+4381.46+4103.76+4341.34C4070.63+4301.23+4128.18+4235.31+4100.68+4179.94C4073.17+4124.58+4013.84+4149.95+3993.73+4119.87C3973.2+4089.17+4032.03+4047.92+3976.56+4010.74C3916.13+3970.24+3908.13+4042.6+3858.6+4030.72C3821.36+4021.79+3791.28+3935.58+3728.12+3985.63C3675.11+4027.65+3724.96+4090.61+3724.99+4139.05C3725.04+4199.97+3676.91+4201.45+3710.56+4264.47C3733.41+4307.26+3792.26+4269.72+3818.46+4309.04C3844.66+4348.36+3773.43+4376.96+3815.37+4421.73C3857.3+4466.51+3941.67+4441.89+3967.32+4474.9C3992.97+4507.9+3938.89+4584.31+3976.55+4624.88C4014.21+4665.46+4076.92+4627.28+4121.61+4661.89C4166.31+4696.49+4099.89+4756.5+4144.89+4790.89L4316.85+4788.01L4353.76+4643.17Z" opacity="0.612335" fill="#0081c3"/>
<path d="M4546.7+4680.16C4546.7+4680.16+4644.94+4559+4626.61+4499.85C4608.27+4440.69+4539.14+4482.71+4541.47+4421.16C4543.81+4359.61+4614.99+4359.74+4593.6+4267.45C4572.62+4176.95+4516.84+4226.96+4504.98+4160.03C4493.11+4093.09+4553.21+4091.22+4559.3+4010.79C4565.4+3930.36+4481.16+3930.38+4473.51+3883.82C4466.45+3840.87+4563.51+3820.36+4521.94+3742.06C4476.65+3656.76+4431.05+3711.07+4378.52+3665.16C4339.02+3630.65+4287.42+3534.53+4205.09+3546.52C4121.72+3558.66+4170.27+3644.88+4135.28+3699.47C4091.28+3768.13+4030.81+3738.18+4026.77+3831.28C4024.03+3894.47+4096.37+3893.52+4096.14+3943.12C4095.91+3992.72+4023.01+3999.26+4042.38+4077.23C4061.75+4155.2+4148+4173.34+4157.19+4231.34C4165.72+4285.24+4077.25+4341.46+4094.39+4411.89C4111.52+4482.33+4185.04+4488.18+4215.18+4556.5C4245.32+4624.82+4152.12+4642.95+4182.79+4711.24C4196.15+4740.99+4237.29+4767.73+4279.47+4788.43L4436.96+4786.57L4546.7+4680.16Z" opacity="0.612335" fill="#2baae2"/>
<path d="M4511.71+4784.87C4511.71+4784.87+4665.32+4761.57+4692.94+4709.5C4720.56+4657.43+4640.03+4635.51+4682.21+4594.54C4724.38+4553.58+4769.31+4599.64+4825.93+4529.02C4869.08+4475.2+4786.3+4434.91+4823.12+4381.48C4859.95+4328.04+4935.75+4376.08+4992.77+4324.42C5049.79+4272.77+4999.19+4209.13+5028.41+4174.8C5058.23+4139.76+5127.69+4197.54+5153.39+4117.95C5181.39+4031.25+5091.91+4045.42+5089.3+3981.38C5087.34+3933.24+5180.46+3868.28+5098.97+3808.15C5030.57+3757.69+4972.04+3838.96+4913.98+3854.99C4840.96+3875.15+4822.82+3817.22+4758.71+3878.87C4715.2+3920.72+4780.21+3979.75+4741.99+4024.52C4703.77+4069.3+4645.25+3992.29+4605.84+4057.95C4566.43+4123.62+4603.89+4204.33+4573.05+4246.35C4542.21+4288.37+4452.96+4261.52+4417.13+4320.61C4381.3+4379.71+4431.5+4434.42+4405.23+4500.08C4378.95+4565.75+4300.55+4515.43+4274.63+4581.39C4248.71+4647.36+4335.4+4787.08+4335.4+4787.08L4511.71+4784.87Z" opacity="0.612335" fill="#0081c3"/>
<path d="M4183.66+4904.46L4255.1+5389.29L4556.49+5387.03L4604.87+4899.45L4183.66+4904.46Z" opacity="0.612335" fill="#135eab"/>
<path d="M4183.69+4904.61L4604.93+4899.79L4600.05+4949.11L4190.16+4948.92L4183.69+4904.61Z" opacity="0.612335" fill="#135eab"/>
<path d="M4092.66+4791.76L4705.92+4781.53L4692.06+4898.74L4101.06+4905.2L4092.66+4791.76Z" opacity="0.612335" fill="#0054ab"/>
</g>
<g id="Слой 7" vectornator:layerName="Слой 7">
<path d="M4414.82+2909.94C4414.81+2909.93+4456.92+2969.41+4456.92+2969.41C4456.95+2969.45+4457+2969.47+4457.05+2969.46L4976.79+2834.86C4976.83+2834.85+4414.82+2909.94+4414.82+2909.94Z" opacity="0" fill="#0081c3"/>
<path d="M4414.33+2760.93C4414.33+2760.92+4433.22+2834.4+4433.22+2834.4L4743.36+2825.19C4743.41+2825.19+4744.25+2824.74+4744.21+2824.74L4414.33+2760.93Z" opacity="0" fill="#0081c3"/>
<path d="M4460.37+2671.64L4414.36+2760.88C4414.33+2760.94+4414.31+2760.97+4414.32+2760.96L4744.18+2824.78C4744.24+2824.79+4744.25+2824.79+4744.19+2824.78L4358.35+2836.68C4358.29+2836.69+4358.21+2836.73+4358.18+2836.78L4291.63+2926.39C4291.59+2926.44+4291.58+2926.45+4291.61+2926.42L4988.34+2833.45C4988.4+2833.45+4988.4+2833.45+4988.35+2833.45L4460.53+2671.58C4460.47+2671.56+4460.4+2671.59+4460.37+2671.64Z" opacity="0" fill="#2baae2"/>
<g opacity="0.546256" vectornator:mask="#Mask_2">
<use xlink:href="#Mask_2" fill="#2baae2" stroke="none"/>
<clipPath id="ClipPath_2">
<use xlink:href="#Mask_2" fill="none" overflow="visible"/>
</clipPath>
<g clip-path="url(#ClipPath_2)">
<path stroke="#ffffff" stroke-width="8.86" d="M5892.07+3648.01C5892.07+3648.01+6022.36+3776.7+6086.69+3827.88C6151.02+3879.07+6157.85+3880.93+6211.22+3833.22C6273.02+3777.99+6407.42+3642.53+6407.42+3642.53" fill="none" stroke-linecap="round" opacity="1" stroke-linejoin="round"/>
<path stroke="#ffffff" stroke-width="8.86" d="M6240.37+3808.84L6411.86+3963.57" fill="none" stroke-linecap="round" opacity="1" stroke-linejoin="round"/>
<path stroke="#ffffff" stroke-width="8.86" d="M5888.37+3961.24L6061.85+3813.18" fill="none" stroke-linecap="round" opacity="1" stroke-linejoin="round"/>
</g>
</g>
<path d="M2317.24+2977.38C2301.1+2978.01+2287.04+2980.43+2278.06+2983.36L2274.6+3069.2C2235.71+3070.8+2210.49+3072.69+2176.74+3087.26L2132.77+3011.94C2095.53+3022.38+2045.5+3053.22+2028.4+3081.75L2078.07+3150.68C2054.62+3172.29+2038.08+3191.33+2022.15+3219.17L1951.45+3183.76C1929.79+3208.57+1909.37+3258.73+1912.17+3283.16L1986.12+3307.13C1979.51+3334.65+1976.56+3363.55+1977.79+3393.25L1899.84+3407.55C1893.56+3435.83+1900.95+3490.89+1922.07+3518.54L1998.16+3492.42C2009.25+3521.38+2025.51+3550.44+2044.16+3574.41L1986.1+3634.73C2001.96+3659.57+2041.85+3697.06+2067.03+3709.15L2118.34+3641.57C2145.78+3659.58+2176.19+3673.29+2208.6+3681.86L2196.35+3760.01C2228.36+3773.5+2263.98+3777.68+2300.59+3770.87L2300.22+3691.81C2331.83+3690.51+2356.59+3687.26+2384.95+3677.23L2418.2+3747.95C2448.25+3746.79+2490.51+3724.24+2507.68+3700.72L2464.09+3636.61C2492.21+3616.98+2516.9+3592.78+2537.13+3565.16L2610.8+3606.31C2637.91+3586.81+2662.96+3535.74+2664.05+3506.16L2582.75+3475.37C2593.49+3441.55+2601.95+3418.28+2600.41+3380.74L2688.71+3367.08C2698.26+3330.97+2686.83+3282.62+2666.37+3258.35L2581.44+3281.87C2572.11+3253.75+2558.91+3227.46+2542.51+3203.62L2612.06+3144.41C2594.14+3101.35+2561.76+3068.78+2528.02+3056.69L2466.1+3125.35C2441.32+3107.27+2411.22+3090.03+2381.77+3079.91L2401.27+2994.96C2376.78+2980.26+2344.13+2976.33+2317.24+2977.38ZM2284.83+3214.36C2377.51+3210.54+2455.76+3283.19+2459.61+3376.61C2463.45+3470.03+2391.44+3548.87+2298.76+3552.68C2206.08+3556.5+2127.82+3483.85+2123.98+3390.43C2120.13+3297.01+2192.15+3218.17+2284.83+3214.36Z" opacity="0.42511" fill="#2baae2"/>
<path d="M2582.63+3033.91C2582.61+3046.03+2584+3056.66+2585.93+3063.48L2650.23+3068.69C2650.25+3097.91+2650.9+3116.89+2660.81+3142.66L2602.96+3173.36C2609.66+3201.62+2631.29+3240.1+2652.17+3253.79L2705.4+3218.62C2720.9+3236.87+2734.69+3249.85+2755.09+3262.65L2726.38+3314.62C2744.34+3331.63+2781.35+3348.47+2799.77+3347.11L2820+3292.36C2840.45+3298.15+2862.04+3301.24+2884.36+3301.22L2892.73+3360.14C2913.76+3365.71+2955.29+3361.83+2976.68+3346.83L2959.39+3288.94C2981.45+3281.5+3003.75+3270.18+3022.3+3256.92L3065.8+3302.31C3084.92+3291.16+3114.26+3262.38+3124.09+3243.85L3074.95+3203.3C3089.29+3183.25+3100.5+3160.86+3107.92+3136.8L3166.18+3148.36C3177.27+3124.75+3181.49+3098.16+3177.49+3070.48L3118.16+3068.35C3118.14+3044.6+3116.45+3025.92+3109.79+3004.34L3166.23+2985.36C3166.28+2962.77+3149.93+2924.15+3132.81+2910.55L3079.49+2939.2C3065.6+2917.5+3050.43+2902.77+3030.32+2886.75L3073.12+2835.74C3059.31+2814.81+3014.91+2790.51+2992.74+2788.79L2964.09+2843.7C2939.04+2834.62+2922.08+2833.66+2893.87+2833.68L2886.3+2767.01C2859.5+2758.75+2822.87+2765.86+2804.04+2780.47L2819.11+2844.91C2797.73+2851.06+2777.6+2860.17+2759.22+2871.74L2716.9+2817.77C2684.05+2829.9+2658.63+2853.21+2648.53+2878.16L2698.17+2926.7C2683.85+2944.75+2670+2966.81+2661.52+2988.6L2598.37+2971.39C2586.6+2989.31+2582.66+3013.7+2582.63+3033.91ZM2759.45+3065.41C2759.4+2995.76+2816.29+2939.25+2886.5+2939.2C2956.71+2939.15+3013.68+2995.58+3013.73+3065.23C3013.78+3134.88+2956.89+3191.39+2886.68+3191.45C2816.47+3191.5+2759.5+3135.07+2759.45+3065.41Z" opacity="0.42511" fill="#2baae2"/>
</g>
<g id="Слой 10" vectornator:layerName="Слой 10">
<path d="M7932.11+1107.6C7916.19+1110.3+7902.56+1114.5+7894.03+1118.56L7901.61+1204.14C7863.25+1210.71+7838.48+1215.82+7806.88+1234.6L7753.61+1165.55C7718.01+1180.68+7672.35+1217.69+7659.06+1248.18L7717.16+1310.16C7696.68+1334.6+7682.72+1355.61+7670.5+1385.26L7595.84+1359.22C7577.54+1386.61+7563.73+1438.97+7569.64+1462.84L7646.05+1477.12C7643.03+1505.26+7643.82+1534.3+7648.84+1563.6L7573.37+1587.78C7570.78+1616.64+7585.18+1670.3+7609.66+1695.01L7681.78+1659.34C7696.49+1686.63+7716.35+1713.36+7737.92+1734.74L7688.08+1802.01C7707+1824.61+7751.37+1856.68+7777.89+1865.43L7820.1+1791.83C7849.63+1806.16+7881.54+1815.86+7914.79+1820.2L7912.67+1899.28C7946.14+1908.54+7982+1908.12+8017.44+1896.66L8006.93+1818.31C8038.11+1812.96+8062.25+1806.56+8089.09+1792.97L8131.13+1858.84C8160.79+1853.84+8199.8+1826.05+8213.81+1800.52L8162.36+1742.54C8187.72+1719.45+8209.1+1692.29+8225.62+1662.3L8303.97+1693.66C8328.35+1670.84+8346.64+1616.98+8343.92+1587.5L8259.34+1567.4C8265.65+1532.48+8271.06+1508.32+8264.71+1471.28L8350.53+1446.4C8355.37+1409.37+8337.82+1362.88+8314.42+1341.44L8233.21+1375.67C8220.35+1348.98+8203.88+1324.6+8184.56+1303.06L8245.93+1235.42C8222.64+1195.01+8186.34+1166.86+8151.34+1159.2L8098.74+1235.25C8071.84+1220.49+8039.77+1207.26+8009.27+1201L8017.71+1114.26C7991.54+1102.82+7958.65+1103.11+7932.11+1107.6ZM7930.39+1346.78C8021.81+1331.1+8108.74+1393.11+8124.55+1485.26C8140.35+1577.41+8079.04+1664.84+7987.62+1680.52C7896.2+1696.2+7809.27+1634.19+7793.46+1542.04C7777.66+1449.88+7838.97+1362.45+7930.39+1346.78Z" opacity="0.42511" fill="#2baae2"/>
<path d="M7493.88+1617.64C7481.8+1616.55+7471.1+1617+7464.12+1618.32L7453.27+1681.91C7424.16+1679.35+7405.19+1678.33+7378.66+1685.92L7353.17+1625.6C7324.43+1629.78+7284.2+1647.93+7268.71+1667.52L7299.06+1723.64C7279.51+1737.48+7265.36+1750.06+7250.82+1769.26L7201.58+1736.08C7183.05+1752.47+7163.01+1787.85+7162.74+1806.31L7215.5+1831.29C7207.93+1851.15+7202.95+1872.39+7201+1894.62L7141.57+1897.76C7134.17+1918.22+7134.36+1959.94+7147.42+1982.56L7206.61+1970.44C7212.08+1993.08+7221.39+2016.29+7232.96+2035.93L7183.91+2075.26C7193.33+2095.29+7219.42+2127.06+7237.01+2138.48L7281.73+2093.1C7300.43+2109.16+7321.75+2122.3+7345.07+2131.81L7328.41+2188.83C7350.95+2201.95+7377.07+2208.5+7404.99+2206.96L7412.34+2148.05C7436.01+2150.12+7454.76+2150.09+7476.85+2145.35L7494.79+2201.22C7517.28+2203.26+7550.92+2190.54+7565.98+2174.68L7539.7+2122.74C7562.53+2110.82+7583.25+2095.18+7600.98+2076.56L7651.88+2114.31C7673.95+2102.41+7697.52+2066.79+7701.18+2044.86L7643.6+2014.1C7654.86+1989.94+7663.41+1973.43+7665.88+1945.32L7732.96+1943.66C7743.55+1917.69+7739.7+1880.58+7726.8+1860.53L7661.28+1869.87C7657.05+1848.03+7649.75+1827.17+7639.84+1807.84L7697.33+1770.45C7688.14+1736.65+7667.17+1709.27+7643.21+1697.02L7590.47+1742.19C7573.77+1726.33+7553.01+1710.59+7532.05+1700.21L7554.77+1638.84C7537.95+1625.53+7514.01+1619.45+7493.88+1617.64ZM7446.9+1791C7516.29+1797.09+7567.56+1858.73+7561.42+1928.68C7555.28+1998.62+7494.05+2050.39+7424.66+2044.29C7355.27+2038.2+7304+1976.56+7310.14+1906.61C7316.28+1836.67+7377.51+1784.9+7446.9+1791Z" opacity="0.42511" fill="#2baae2"/>
<path stroke="#0081c3" stroke-width="20.95" d="M1618.67+1972.11C1596.41+1972.06+1576.9+1974.54+1564.37+1978.01L1554.73+2094.06C1501.08+2094.06+1466.24+2095.2+1418.94+2113.05L1362.65+2008.62C1310.76+2020.67+1240.1+2059.65+1214.94+2097.33L1279.44+2193.42C1245.92+2221.38+1222.06+2246.24+1198.54+2283.05L1103.18+2231.17C1071.94+2263.56+1040.96+2330.33+1043.44+2363.56L1143.93+2400.15C1133.27+2437.05+1127.57+2476.01+1127.57+2516.29L1019.4+2531.31C1009.16+2569.26+1016.21+2644.23+1043.72+2682.85L1150.01+2651.72C1163.64+2691.54+1184.39+2731.8+1208.71+2765.3L1125.33+2843.73C1145.77+2878.25+1198.58+2931.25+1232.57+2949.01L1307.07+2860.37C1343.85+2886.28+1384.95+2906.55+1429.1+2919.96L1407.81+3025.1C1451.12+3045.14+1499.94+3052.79+1550.75+3045.6L1554.73+2938.53C1598.34+2938.53+1632.63+2935.51+1672.25+2923.51L1714.03+3021.12C1755.49+3021.23+1814.97+2993.06+1839.95+2962.17L1783.55+2872.93C1823.39+2847.91+1858.77+2816.52+1888.2+2780.24L1987.33+2840.08C2025.78+2815.19+2063.17+2747.43+2066.34+2707.43L1956.11+2661.21C1972.83+2616.01+1985.81+2584.98+1985.81+2534.06L2108.2+2520.48C2123.39+2472.13+2110.4+2406.01+2083.59+2372.01L1965.29+2399.13C1954.03+2360.54+1937.34+2324.19+1916.11+2291L2015.25+2214.71C1993.02+2155.4+1950.26+2109.49+1904.48+2091.24L1815.3+2180.76C1782.2+2154.89+1741.72+2129.88+1701.73+2114.53L1733.41+2000.6C1700.52+1979.32+1655.76+1972.18+1618.67+1972.11ZM1560.6+2291.18C1688.46+2291.18+1792.12+2393.91+1792.12+2520.62C1792.12+2647.33+1688.46+2750.06+1560.6+2750.06C1432.74+2750.06+1329.08+2647.33+1329.08+2520.62C1329.08+2393.91+1432.74+2291.18+1560.6+2291.18Z" fill="none" stroke-linecap="round" opacity="0" stroke-linejoin="round"/>
<path stroke="#0081c3" stroke-width="20.95" d="M2394.36+2841.23C2379.63+2835.15+2366.03+2831.5+2356.78+2830.39L2318.86+2904.65C2283.32+2890.07+2259.92+2881.36+2223.73+2880.33L2214.82+2795.84C2177.17+2789.73+2119.76+2796.35+2092.85+2814.47L2109.47+2895.67C2079.66+2905.08+2057.1+2915.06+2031.52+2933.06L1982.43+2872.77C1952.93+2885.74+1914.27+2921.56+1906.88+2944.25L1963.51+2995.8C1946.42+3017.35+1932.05+3041.61+1921.11+3068.3L1845.36+3048.85C1828.26+3071.21+1812.56+3122.8+1820.29+3155.86L1899.17+3164.12C1897.38+3194.21+1900.19+3226.52+1907.2+3255.32L1830.63+3284.63C1834.8+3313.05+1855.38+3362.51+1873.07+3383.52L1946.52+3345.04C1963.84+3372.2+1985.56+3396.8+2011.18+3417.68L1968.49+3481.55C1991.74+3506.6+2022.01+3524.94+2057.62+3533.98L2089.36+3464.13C2118.25+3475.98+2141.79+3483.3+2171.3+3486.12L2172.45+3562.14C2199.89+3573.48+2246.95+3570.98+2271.89+3557.3L2258.78+3482.85C2291.98+3477.1+2323.95+3465.92+2353.3+3449.89L2402.72+3516.47C2434.96+3510.43+2478.14+3475.7+2491.12+3450.06L2430.65+3389.48C2454.01+3364.08+2471.04+3347.04+2484.88+3313.31L2569.65+3337.58C2592.86+3309.67+2602.22+3262.34+2593.7+3232.52L2507.95+3218.34C2510.99+3189.71+2509.8+3161.1+2504.76+3133.34L2591.17+3109.73C2592.56+3064.4+2576.71+3022.36+2551.34+2997.83L2467.93+3032.91C2453.03+3006.77+2433.01+2979.2+2410.69+2958.16L2462.64+2891.29C2446.63+2868.25+2418.92+2851.36+2394.36+2841.23ZM2269.18+3036.84C2353.89+3071.59+2394.64+3167.82+2360.21+3251.77C2325.77+3335.72+2229.18+3375.61+2144.47+3340.86C2059.76+3306.11+2019+3209.88+2053.43+3125.93C2087.87+3041.98+2184.47+3002.09+2269.18+3036.84Z" fill="none" stroke-linecap="round" opacity="0" stroke-linejoin="round"/>
</g>
<g id="Слой 1" vectornator:layerName="Слой 1">
<path d="M1925.09+5247.9L4986.4+5247.9C5028.34+5247.9+5062.34+5281.41+5062.34+5322.75L5062.34+5322.75C5062.34+5364.08+5028.34+5397.59+4986.4+5397.59L1925.09+5397.59C1883.14+5397.59+1849.15+5364.08+1849.15+5322.75L1849.15+5322.75C1849.15+5281.41+1883.14+5247.9+1925.09+5247.9Z" opacity="1" fill="#e0e0e0"/>
<path d="M1508.41+3592.73L1878.08+5213.38C1887+5252.52+1926.78+5284.33+1966.93+5284.43L4054.97+5289.74C4095.11+5289.85+4120.42+5258.2+4111.48+5219.06L3742.97+3604.13C3734.04+3564.99+3694.26+3533.1+3654.11+3532.9L1564.93+3522.24C1524.79+3522.03+1499.48+3553.6+1508.41+3592.73Z" opacity="1" fill="#e0e0e0"/>
<path d="M1602.8+3651.72L1945.66+5154.82C1953.94+5191.12+1990.84+5220.63+2028.07+5220.72L3964.67+5225.65C4001.91+5225.74+4025.37+5196.39+4017.09+5160.09L3675.3+3662.29C3667.02+3625.99+3630.12+3596.41+3592.89+3596.22L1655.23+3586.33C1617.99+3586.14+1594.52+3615.42+1602.8+3651.72Z" fill-opacity="0.55303" fill="#4cc8ed" opacity="1"/>
<path d="M8332.4+5244.42L5271.09+5244.42C5229.15+5244.42+5195.15+5277.93+5195.15+5319.27L5195.15+5319.27C5195.15+5360.6+5229.15+5394.11+5271.09+5394.11L8332.4+5394.11C8374.34+5394.11+8408.34+5360.6+8408.34+5319.27L8408.34+5319.27C8408.34+5277.93+8374.34+5244.42+8332.4+5244.42Z" opacity="1" fill="#e0e0e0"/>
<path d="M8749.08+3589.25L8379.41+5209.9C8370.48+5249.04+8330.7+5280.85+8290.56+5280.95L6202.52+5286.26C6162.37+5286.36+6137.07+5254.72+6146+5215.58L6514.51+3600.65C6523.45+3561.51+6563.23+3529.62+6603.37+3529.41L8692.56+3518.76C8732.7+3518.55+8758.01+3550.11+8749.08+3589.25Z" opacity="1" fill="#e0e0e0"/>
<path d="M8654.68+3648.23L8311.83+5151.34C8303.55+5187.64+8266.65+5217.15+8229.42+5217.24L6292.81+5222.17C6255.58+5222.26+6232.11+5192.91+6240.4+5156.61L6582.18+3658.81C6590.47+3622.51+6627.36+3592.93+6664.6+3592.74L8602.26+3582.85C8639.49+3582.66+8662.96+3611.93+8654.68+3648.23Z" fill-opacity="0.55303" fill="#4cc8ed" opacity="1"/>
</g>
<g id="Слой 3" vectornator:layerName="Слой 3">
<path d="M2867.75+4456.24C2867.75+4456.24+2825.03+4636.7+2804.08+4847.14C2783.13+5057.58+2807.95+5222.03+2807.95+5222.03L3217.3+5223.76C3217.3+5223.76+3229.45+5208.73+3241.42+5167.27C3253.39+5125.8+3265.2+5057.9+3265.2+5057.9C3265.2+5057.9+3265.14+5123.11+3268.76+5164.89C3272.38+5206.67+3279.68+5225+3279.68+5225L3661.58+5225.1C3661.58+5225.1+3654.59+5011.1+3634.18+4827.66C3613.76+4644.23+3579.94+4491.37+3579.94+4491.37L2867.75+4456.24Z" opacity="1" fill="#135eab"/>
<path d="M4857.93+3531.65C4857.93+3531.65+4804+3634.2+4838.88+3673.24C4873.76+3712.29+4965.06+3674.85+4965.06+3674.85C4965.06+3674.85+5235.86+3533.42+5215.27+3512.71C5194.69+3492+5131.51+3559.3+5118.11+3545.45C5104.71+3531.61+5236.48+3458.26+5214.65+3438.11C5192.82+3417.97+5107.63+3518.7+5098.16+3507.79C5088.69+3496.87+5199.29+3413.83+5176.77+3394.46C5154.24+3375.09+5063.01+3488.46+5050.01+3478.04C5037.01+3467.63+5146.66+3367.73+5124.75+3352.8C5102.85+3337.87+5026.44+3457.36+4988.82+3460.79C4951.19+3464.22+5006.25+3355.05+4974.25+3366.5C4942.25+3377.95+4857.93+3531.65+4857.93+3531.65Z" opacity="1" fill="#fdbc8c"/>
<path d="M4915.82+4417.46C4915.82+4417.46+4808.81+4461.86+4810.68+4514.19C4812.55+4566.51+4906.7+4596.06+4906.7+4596.06C4906.7+4596.06+5205.37+4660.34+5202.77+4631.26C5200.18+4602.17+5108.57+4613.56+5107.11+4594.35C5105.66+4575.13+5253.88+4602.93+5249.97+4573.48C5246.05+4544.04+5116.15+4567.08+5115.84+4552.63C5115.54+4538.18+5253.68+4544.99+5248.73+4515.7C5243.78+4486.4+5101.16+4515.3+5097.82+4498.98C5094.47+4482.66+5242.65+4475.89+5235.35+4450.41C5228.04+4424.93+5092.91+4468.01+5061.78+4446.6C5030.65+4425.19+5142.76+4376.42+5110.83+4364.77C5078.9+4353.13+4915.82+4417.46+4915.82+4417.46Z" opacity="1" fill="#fdbc8c"/>
<path d="M3357.13+2815.96C3357.13+2815.96+3364.69+2941.97+3350.8+3040.62C3336.91+3139.27+3301.59+3210.56+3301.59+3210.56C3301.59+3210.56+3284.3+3353.46+3369.85+3404.19C3455.4+3454.93+3643.8+3413.51+3643.8+3413.51C3643.8+3413.51+3600.72+3239.06+3612.6+3104.01C3624.48+2968.96+3691.32+2873.32+3691.32+2873.32L3357.13+2815.96Z" opacity="1" fill="#fdbc8c"/>
<path d="M3357.13+2815.96C3357.13+2815.96+3364.69+2941.97+3350.8+3040.62C3336.91+3139.27+3301.59+3210.56+3301.59+3210.56C3301.59+3210.56+3402.18+3133.02+3478.98+3115.83C3555.77+3098.64+3618.2+3066.59+3618.2+3066.59C3618.2+3066.59+3623.95+3025.29+3630.59+2998.49C3658.66+2885.2+3691.32+2873.32+3691.32+2873.32L3357.13+2815.96Z" opacity="1" fill="#dfa58b"/>
<path d="M3322.01+3173.37C3322.01+3173.37+3383.28+3268.77+3463.17+3291.9C3557.96+3319.33+3618.43+3260.2+3618.43+3260.2C3618.43+3260.2+3708.77+3331.48+3796.36+3456.91C3899.46+3604.56+3833.51+3578.06+3989.56+3657.84C4233.7+3782.65+4280.33+3738.69+4480.78+3676.38C4681.23+3614.07+4832.21+3557.94+4832.21+3557.94C4832.21+3557.94+4820.92+3614.08+4854.62+3654.9C4888.31+3695.73+4950.94+3699.21+4950.94+3699.21C4950.94+3699.21+4704.48+3856.89+4585.29+3911.22C4478.92+3959.72+4262.79+4082.51+4079.16+4080.21C3895.53+4077.9+3822.35+4037.11+3822.35+4037.11C3822.35+4037.11+3754.93+4686.29+3636.14+4849.16C3517.36+5012.03+3342.48+4978.83+3195.16+4963.22C3087.79+4951.85+2876.12+4950.5+2786.35+4776.57C2739.58+4685.95+2744.22+4512.57+2790.39+4192.68C2836.57+3872.79+2853.34+3676.49+2907.85+3553.25C3060.22+3208.8+3322.01+3173.37+3322.01+3173.37Z" opacity="1" fill="#2e3690"/>
<path d="M2507.96+3227.24C2559.69+3024.23+2485+2887.76+2368.02+2863.35C2247+2838.09+2066.4+2868.34+1960.86+3213.31C1855.32+3558.27+1747.29+4147.07+1889.38+4313.78C1954.61+4390.32+2203.11+4396.85+2436.9+4396.6C2651.64+4396.37+2872.73+4342.72+2872.73+4342.72C2872.73+4342.72+2794.21+4293.45+2800.59+4232.06C2806.97+4170.66+2900.98+4117.69+2900.98+4117.69C2900.98+4117.69+2849.71+4010.3+2671.21+3987.21C2507.97+3966.1+2320.19+3990.87+2302.43+3962.55C2234.66+3854.46+2456.23+3430.25+2507.96+3227.24Z" opacity="0" fill="#135eab"/>
<path d="M3412+3621.89C3340.38+3458.57+3229.03+3365.6+3109.2+3402.18C3015.1+3430.9+2890.22+3621.02+3072.06+3859.33C3246.22+4087.56+3557.89+4471.62+3777.39+4526.82C3936.97+4566.95+4835.53+4586.82+4835.53+4586.82C4835.53+4586.82+4799.93+4558+4806.78+4509.36C4813.63+4460.72+4861.71+4415.21+4861.71+4415.21C4861.71+4415.21+4340.22+4358.59+4198.93+4335.07C4069.72+4313.56+3868.46+4226.03+3705.12+4004.52C3545.21+3787.67+3495.42+3812.1+3412+3621.89Z" opacity="1" fill="#135eab"/>
<path d="M3432.74+3613.32C3361.12+3450+3249.77+3357.03+3129.94+3393.61C3035.84+3422.33+2910.96+3612.46+3092.81+3850.77C3266.96+4079+3578.65+4465.79+3790.37+4545.8C3941.67+4602.99+4883.43+4614.21+4883.43+4614.21C4883.43+4614.21+4820.68+4549.43+4827.52+4500.79C4834.37+4452.15+4882.46+4406.64+4882.46+4406.64C4882.46+4406.64+4360.96+4350.02+4219.67+4326.5C4090.46+4305+3889.21+4217.47+3725.86+3995.95C3565.95+3779.1+3516.16+3803.53+3432.74+3613.32Z" opacity="1" fill="#2e3690"/>
<path d="M3267.17+2396.45C3195.49+2472.88+3253.89+2606.95+3253.46+2703.66C3253.29+2740.38+3200.4+2632.22+3179.98+2696.62C3169.07+2731.02+3208.46+2857.77+3250.07+2828.28C3291.68+2798.78+3317.54+2904.2+3344.9+2931.39C3412.05+2998.11+3484.52+3054.66+3596.03+3063.65C3800.81+3080.16+3818.08+2839.69+3825.73+2664.55C3829.92+2568.51+3816.03+2491.17+3773.39+2433.57C3738.27+2386.13+3682.16+2353.29+3613.54+2323.95C3461.61+2258.98+3366.05+2291+3267.17+2396.45Z" opacity="1" fill="#fdbc8c"/>
<path d="M3262.97+2791.33C3297.5+2852.14+3212.55+2641.64+3299.04+2607.64C3385.53+2573.64+3415.3+2643.3+3456.64+2537.53C3497.99+2431.76+3402.21+2343.77+3402.21+2343.77C3402.21+2343.77+3586.24+2439.99+3722.3+2439.2C3747.44+2439.06+3750.69+2438.51+3773.13+2432.99C3776.22+2432.23+3806.83+2485.09+3816.76+2532.99C3829.05+2592.25+3824.42+2645.27+3827.53+2639.27C3831.14+2632.31+3834.49+2566.82+3823.59+2506.68C3815.21+2460.43+3787.42+2426.19+3793.1+2426.2C3861.45+2426.25+3982.24+2333.42+3955.47+2272.9C3928.7+2212.38+3807.2+2119.63+3690.28+2181.44C3558.59+2251.05+3512.95+2123.24+3384.05+2139.73C3255.15+2156.22+3220.15+2224.05+3160.89+2364.37C3123.81+2452.15+3179+2576.16+3219.42+2669.53C3243.61+2725.42+3250.03+2768.55+3262.97+2791.33Z" opacity="1" fill="#272361"/>
<path d="M3523.76+2685.99C3523.09+2670.93+3533.32+2659.03+3546.63+2659.4C3559.94+2659.78+3571.27+2672.28+3571.95+2687.34C3572.63+2702.39+3562.39+2714.29+3549.08+2713.92C3535.77+2713.55+3524.44+2701.04+3523.76+2685.99Z" opacity="1" fill="#272361"/>
<path d="M3729.87+2692.45C3729.03+2677.37+3739.79+2665.54+3753.92+2666.03C3768.04+2666.52+3780.18+2679.14+3781.03+2694.21C3781.88+2709.29+3771.11+2721.12+3756.99+2720.63C3742.86+2720.14+3730.72+2707.53+3729.87+2692.45Z" opacity="1" fill="#272361"/>
<path d="M3542.41+2879.5C3540.24+2862.28+3598.29+2887.95+3644.99+2888.24C3691.69+2888.52+3714.3+2881.43+3716.47+2898.65C3718.64+2915.88+3692.46+2949.17+3645.75+2948.89C3599.05+2948.6+3544.58+2896.73+3542.41+2879.5Z" opacity="1" fill="#e0e0e0"/>
<path d="M3732.75+2578.39L3778.3+2585.67C3786.6+2586.99+3792.56+2592.99+3791.62+2599.07L3791.62+2599.07C3790.67+2605.15+3783.19+2609.01+3774.89+2607.68L3729.35+2600.41C3721.05+2599.08+3715.09+2593.08+3716.03+2587L3716.03+2587C3716.97+2580.92+3724.46+2577.07+3732.75+2578.39Z" opacity="1" fill="#272361"/>
<path d="M3520.52+2562.26L3566.65+2562.48C3575.04+2562.52+3581.85+2567.54+3581.85+2573.69L3581.85+2573.69C3581.85+2579.84+3575.05+2584.79+3566.65+2584.75L3520.52+2584.54C3512.12+2584.5+3505.32+2579.48+3505.32+2573.33L3505.32+2573.33C3505.31+2567.18+3512.12+2562.22+3520.52+2562.26Z" opacity="1" fill="#272361"/>
<path stroke="#828282" stroke-width="8.77" d="M3456.34+2673.63C3463.03+2626.1+3507.99+2593.14+3556.75+2600C3605.5+2606.86+3639.61+2650.96+3632.92+2698.49C3626.23+2746.02+3581.28+2778.98+3532.52+2772.12C3483.76+2765.25+3449.65+2721.16+3456.34+2673.63Z" fill="none" stroke-linecap="round" opacity="1" stroke-linejoin="round"/>
<path stroke="#828282" stroke-width="8.77" d="M3686.47+2685.05C3693.04+2638.36+3736.78+2605.92+3784.17+2612.59C3831.56+2619.27+3864.65+2662.52+3858.07+2709.21C3851.5+2755.9+3807.76+2788.34+3760.37+2781.67C3712.98+2775+3679.89+2731.74+3686.47+2685.05Z" fill="none" stroke-linecap="round" opacity="1" stroke-linejoin="round"/>
<path stroke="#828282" stroke-width="8.77" d="M3638.08+2677.21C3638.08+2677.21+3649.08+2672.65+3659.55+2673.02C3670.02+2673.38+3679.95+2678.67+3679.95+2678.67" fill="none" stroke-linecap="round" opacity="1" stroke-linejoin="round"/>
<path stroke="#828282" stroke-width="7.95" d="M3857.88+2688.77L3823.97+2685.75" fill="none" stroke-linecap="butt" opacity="1" stroke-linejoin="round"/>
<path stroke="#828282" stroke-width="8.86" d="M3446.93+2680.36L3230.7+2682.76" fill="none" stroke-linecap="round" opacity="1" stroke-linejoin="round"/>
<path d="M3867.29+3576.09C3867.29+3576.09+3877.14+3664.97+3865.62+3775.42C3854.1+3885.87+3823.94+4034.56+3823.94+4034.56C3823.94+4034.56+3862.65+3910.02+3874.16+3799.57C3885.68+3689.12+3867.29+3576.09+3867.29+3576.09Z" opacity="1" fill="#135eab"/>
</g>
<g id="Слой 4" vectornator:layerName="Слой 4">
<path d="M7073.88+3261.7C7073.88+3261.7+7268.99+3025.17+7431.94+2655.62C7526.1+2442.06+7574.59+2148.78+7658.69+1922.21C7814.06+1503.68+8156.42+1698.62+8493.08+1664.95C8913.89+1622.86+9178.85+1574.87+9214.78+1561C9278.68+1536.32+9578.53+1429.48+9553.9+1629.46C9529.27+1829.44+9267.21+1883.59+9267.21+1883.59C9267.21+1883.59+9491.48+1834.1+9476.47+2015.65C9464.99+2154.53+9261.91+2188.15+9261.91+2188.15C9261.91+2188.15+9458.12+2202+9413.76+2389.43C9369.4+2576.87+9141.49+2543.89+9141.49+2543.89C9141.49+2543.89+9244.35+2607.24+9226.98+2667.72C9209.61+2728.21+9245.22+2809.69+9023.52+2793.36C8801.82+2777.03+8580.61+2778.32+8360.79+2668.38C8149.95+2562.93+8015.82+2549.54+7908.32+2757.98C7668.74+3222.48+7357.99+3225.98+7357.99+3225.98L7073.88+3261.7Z" opacity="1" fill="#0081c3"/>
<path d="M7262.75+3370.82C7262.75+3370.82+7433.7+3190.14+7593.57+2843.82C7675.66+2666+7716.09+2424.9+7809.66+2183.03C7996.26+1700.69+8353.87+1939.08+8716.33+1911.01C9169.4+1875.93+9455.7+1828.81+9494.88+1813.83C9564.55+1787.21+9891.07+1672.69+9855.08+1904.8C9819.09+2136.92+9535.6+2191.32+9535.6+2191.32C9535.6+2191.32+9778.36+2141.1+9753.56+2352.06C9734.6+2513.45+9515.32+2545.87+9515.32+2545.87C9515.32+2545.87+9724.96+2568.51+9668.42+2785.36C9611.89+3002.2+9369.18+2956.24+9369.18+2956.24C9369.18+2956.24+9476.4+3033.43+9454.88+3103.31C9433.36+3173.19+9467.62+3269.28+9230.77+3242.91C8993.92+3216.55+8756.76+3210.72+8526.42+3075.39C8305.49+2945.58+8162.37+2925.54+8037.14+3164.77C7758.07+3697.87+7424.83+3691.65+7424.83+3691.65L7262.75+3370.82Z" opacity="1" fill="#2baae2"/>
<path d="M7468.03+4696.97C7468.03+4696.97+7460.17+4960.14+7461.06+5227.08L7002.55+5227.54C6993.49+5183.54+6985.89+5150.13+6985.89+5150.13C6985.89+5150.13+6986.53+5175.53+6982.74+5228.13L6641.71+5228.82L6633.92+4767.81L7468.03+4696.97Z" opacity="1" fill="#2e3690"/>
<path d="M6930.46+5083.78C6930.46+5083.78+6939.81+5110.31+6956.04+5129.97C6972.27+5149.63+6982.31+5126.75+6988.21+5161.24C6993.63+5192.89+6990.98+5195.89+6993.81+5227.78L6962.9+5228.52C6963.4+5187.23+6958.87+5200.01+6958.96+5177.94C6959.03+5160.01+6959.02+5149.87+6959.02+5149.87C6959.02+5149.87+6955.66+5159.07+6945.38+5144.18C6918.86+5105.73+6930.46+5083.78+6930.46+5083.78Z" opacity="1" fill="#272361"/>
<path d="M5395.23+4390.99C5395.23+4390.99+5537.83+4302.78+5719.07+4214.97C5900.3+4127.15+5889.22+4128.98+6001.86+4084.66C6170.98+4018.12+6248.96+4069.75+6276.33+3873.95C6312.37+3616.11+6300.02+3537.49+6401.09+3580.07C6464.96+3606.98+6531.4+3671.56+6495.35+3912.77C6459.31+4153.97+6244.06+4217.65+6121.07+4267.64C5998.08+4317.63+5918.2+4329.17+5782.83+4378.54C5547.96+4464.2+5446.14+4483.15+5446.14+4483.15C5446.14+4483.15+5187.58+4757.74+5174.03+4726.54C5160.48+4695.34+5257.35+4653.89+5248.14+4633.42C5238.94+4612.96+5107.81+4727.24+5095.37+4694.91C5082.93+4662.57+5224.09+4610.82+5216.4+4595.89C5208.7+4580.96+5075.92+4667.97+5064.58+4635.19C5053.23+4602.41+5210.22+4549.27+5204.49+4530.67C5198.75+4512.06+5048.53+4591.03+5041.64+4560.78C5034.74+4530.53+5192.19+4496.21+5211.09+4456.31C5230+4416.41+5092.15+4431.58+5117.26+4401.19C5142.38+4370.8+5395.23+4390.99+5395.23+4390.99Z" opacity="1" fill="#fdbc8c"/>
<path d="M7051.33+2643.21C7051.33+2643.21+7038.46+2768.38+7049.95+2866.58C7061.44+2964.78+7091.99+3030.86+7091.99+3030.86C7091.99+3030.86+7122.15+3052.47+7160.74+3060.27C7199.33+3068.07+7260.87+3139.35+7260.87+3139.35C7260.87+3139.35+7083.6+3208.31+6914.09+3247.36C6744.58+3286.4+6568.32+3218.25+6568.32+3218.25C6594.77+3198.68+6632.83+3172.14+6672.08+3143.3C6711.33+3114.45+6742.33+3088.43+6747.91+3080.34C6778.39+3036.2+6765.53+2978.79+6762.46+2926.93C6754.49+2792.57+6685.21+2696.82+6685.21+2696.82L7051.33+2643.21Z" opacity="1" fill="#fdbc8c"/>
<path d="M7051.33+2643.21C7051.33+2643.21+7038.46+2768.38+7049.95+2866.58C7061.44+2964.78+7097.3+3036.01+7097.3+3036.01C7097.3+3036.01+6990.58+2957.91+6907.57+2940.04C6824.56+2922.17+6757.74+2889.68+6757.74+2889.68C6757.74+2889.68+6753+2848.57+6746.75+2821.86C6720.34+2708.97+6685.21+2696.82+6685.21+2696.82L7051.33+2643.21Z" opacity="1" fill="#dfa58b"/>
<path d="M6634.64+5031.8L6635.76+5069.61L7064.55+5022.37L6634.64+5031.8Z" opacity="1" fill="#272361"/>
<path d="M7146.53+3048.45C7146.53+3048.45+7050.88+3189.53+6906.66+3215.93C6783.3+3238.52+6702.12+3123.67+6702.12+3123.67C6702.12+3123.67+6748.85+3084.94+6573.25+3188.88C6413.89+3283.21+6318.48+3523.34+6318.48+3523.34C6318.48+3523.34+6229+3809.32+6263.98+3859.37C6263.98+3859.37+6322.8+3905.36+6382.5+3900.57C6442.2+3895.78+6529.33+3882.05+6529.33+3882.05C6529.33+3882.05+6453.53+3790.05+6452.34+3826.58C6449.73+3906.42+6473.06+4028.34+6488.63+4212.81C6528.27+4682.17+6592.39+5017.27+6592.39+5017.27C6592.39+5017.27+6769.35+5040.82+6982.1+5027.47C7194.86+5014.11+7537.62+4968.06+7537.62+4968.06C7537.62+4968.06+7502.38+4609.85+7509.85+4373.2C7517.31+4136.55+7506.95+4124.8+7512.71+3821.58C7517.44+3572.28+7564.02+3580.08+7508.76+3396.39C7440.87+3170.71+7146.53+3048.45+7146.53+3048.45Z" opacity="1" fill="#135eab"/>
<path d="M7130.82+3049.6C7130.82+3049.6+7011.45+3180.44+6908.43+3192.53C6784.87+3207.03+6704.43+3118.32+6704.43+3118.32C6704.43+3118.32+6696.31+3117.93+6688.22+3123.85C6681.19+3128.99+6680.71+3136.6+6680.71+3136.6C6680.71+3136.6+6774.26+3233.77+6902.56+3219.32C7059.73+3201.63+7161.12+3054.22+7161.12+3054.22C7161.12+3054.22+7156.79+3049.88+7145.89+3047.93C7137.66+3046.45+7130.82+3049.6+7130.82+3049.6Z" opacity="1" fill="#1172ba"/>
<path d="M7052.24+4756.06C7056.95+4761.86+7265.2+4669.16+7486.71+4611.8C7708.22+4554.45+7859.8+4525.8+7909.03+4514.22C7977.51+4498.13+7924.22+4424.48+7901.21+4367.35C7834.77+4202.42+7728.93+4115.09+7659.46+3919.85C7589.99+3724.61+7636.09+3644.78+7623.33+3586.4C7575.25+3366.33+7795.02+3515.68+7818.11+3511.62C7931.73+3491.66+8130.35+4112.74+8197.95+4322.81C8241.4+4457.88+8276.22+4613.68+8167.96+4659.85C8090.54+4692.87+7825.8+4763.39+7584.11+4809.06C7316.02+4859.72+7072.92+4884.04+7072.92+4884.04C7072.92+4884.04+6925.66+5007.38+6803.06+5047.46C6680.46+5087.53+6609.2+5117.58+6603.19+5097.55C6593.93+5066.71+6772.44+4999.12+6778.7+4983.23C6784.43+4968.67+6572.56+5056.54+6562.23+5019.94C6551.91+4983.35+6767.81+4934.24+6767.86+4920.44C6767.93+4902.71+6575.47+4972.66+6567.71+4933.86C6562.82+4909.4+6766.2+4859.99+6766.2+4859.99C6766.2+4859.99+6580.62+4871.86+6580.15+4853.22C6579.39+4822.4+6798.93+4805.67+6809.34+4795.18C6826.88+4777.52+6857.47+4775.37+6857.64+4759.23C6857.85+4739.6+6751.13+4742.13+6750.5+4725.2C6749.49+4697.79+6828.54+4698.26+6903.98+4705.98C6979.42+4713.69+7033.77+4733.34+7052.24+4756.06Z" opacity="0" fill="#fdbc8c"/>
<path d="M6632.4+4547.1L6640.81+4551.95L6649.49+4541.09L6662.41+4549.63L6669.57+4539.48L6680.64+4547.56L6686.88+4536.25L6696.8+4547.09L6705.81+4533.26L6729.08+4542.63L6853.16+5135.68L6793.32+5149.15L6632.4+4547.1Z" opacity="1" fill="#e0e0e0"/>
<path d="M6708.01+4530.35L7601.59+4488.28L7619.7+5086.34L6787.69+5158.85L6618.79+4535.32L6636.1+4536.48L6792.91+5103.77L6708.01+4530.35Z" opacity="1" fill="#272361"/>
<path d="M7028.78+4779.25C7028.78+4779.25+7066.96+4617.86+7132.23+4429.81C7197.5+4241.76+7191.07+4250.76+7238.71+4141.1C7310.23+3976.44+7389.28+3949.06+7336.65+3748.33C7283.11+3544.14+7315.29+3418.33+7414.8+3377.75C7477.68+3352.1+7548.52+3462.58+7556.71+3664.77C7564.91+3866.95+7498.48+4065.6+7447.57+4186.47C7396.66+4307.34+7349.16+4371.15+7289.23+4500.21C7185.24+4724.15+7127.63+4808.46+7127.63+4808.46C7127.63+4808.46+7137.42+5181.6+7106.51+5169.14C7075.61+5156.67+7114.27+5060.02+7093.77+5052.06C7073.28+5044.11+7061.03+5215.8+7030.11+5201.77C6999.19+5187.74+7061.5+5052.96+7045.87+5047.84C7030.24+5042.73+6998.04+5196.42+6967.58+5181.31C6937.11+5166.2+7009.45+5019.41+6992.65+5010.34C6975.85+5001.28+6926+5161.49+6900.37+5145.05C6874.74+5128.61+6960.36+4994.72+6945.99+4953.52C6931.61+4912.32+6846.39+5019.09+6842.87+4980.24C6839.36+4941.38+7028.78+4779.25+7028.78+4779.25Z" opacity="1" fill="#fdbc8c"/>
<path d="M7171.82+3683.64C7164.88+3528.38+7183.25+3417.66+7292.42+3368.94C7333.3+3350.7+7367.77+3318.19+7414.19+3346.36C7460.62+3374.53+7513.44+3408.05+7543.32+3525.42C7560.7+3593.72+7380.85+3716.58+7368.01+3736.91L7346.51+3920.02C7254.88+3921.56+7196.02+3900.79+7196.02+3900.79C7196.02+3900.79+7173.69+3725.5+7171.82+3683.64Z" opacity="1" fill="#135eab"/>
<path d="M7179.66+3631.82C7166.5+3440.52+7202.9+3299.66+7303.09+3283.07C7347.39+3275.73+7391.69+3277.19+7439.23+3310.43C7486.76+3343.67+7540.9+3383.31+7575.46+3527.13C7595.57+3610.82+7614.78+3842.96+7602.77+3868.45C7602.77+3868.45+7534.69+3908.27+7443.16+3913.14C7351.64+3918.01+7209.28+3890.53+7209.28+3890.53C7209.28+3890.53+7183.21+3683.39+7179.66+3631.82Z" opacity="1" fill="#135eab"/>
<path d="M7164.78+2227.13C7240.03+2303.84+7143.81+2502.33+7164.56+2496.41C7185.31+2490.48+7196.36+2427.89+7244.54+2490.79C7283.88+2542.14+7175.89+2675.8+7145.31+2634.06C7114.28+2591.7+7091.21+2731.33+7060.41+2758.07C6984.81+2823.71+6903.78+2879.18+6781.99+2886.98C6558.33+2901.3+6545.73+2660.49+6543.85+2486.33C6542.83+2390.83+6532.55+2301.64+6581.12+2244.82C6621.12+2198.02+6612.87+2176.43+6688.69+2147.97C6856.58+2084.94+7060.96+2121.31+7164.78+2227.13Z" opacity="1" fill="#fdbc8c"/>
<path d="M7125.86+2613.54C7125.86+2613.54+7075.46+2633.02+7097.88+2580.43C7121.08+2525.98+7141.68+2479.86+7142.12+2440.4C7142.39+2415.68+7143.58+2385.2+7122.66+2378.52C7101.74+2371.84+7053.72+2398.47+7037.53+2369.02C7017.78+2333.09+7074.41+2266.84+7025.62+2232.3C6965.88+2189.99+6885.04+2252.31+6797.07+2255.93C6709.11+2259.55+6638.68+2223.77+6606.25+2233.51C6584.43+2240.06+6565.93+2257.22+6561.26+2287.47C6557.63+2310.99+6565.41+2344.07+6562.49+2372.67C6561.27+2384.65+6549.6+2387.09+6544.91+2397.35C6541.73+2404.31+6545.07+2414.96+6544.08+2423.97C6541.25+2449.56+6545.96+2472.37+6543.79+2468.25C6540.12+2461.3+6538.98+2369.71+6543.71+2326.86C6549.89+2270.92+6567.02+2237.63+6584.45+2207.16C6601.87+2176.68+6648.28+2131.08+6693.17+2110.61C6749.4+2084.97+6811.85+2068.84+6875.39+2067.56C6971.05+2065.64+7029.1+2085.12+7083.72+2109.48C7155.04+2141.29+7185.55+2213.49+7196.43+2258.34C7203.99+2289.5+7188.22+2395.12+7169.93+2482.35C7157.4+2542.06+7125.86+2613.54+7125.86+2613.54Z" opacity="1" fill="#2e3690"/>
<path d="M6874.62+2512.32C6875.91+2497.36+6865.2+2485.43+6850.69+2485.66C6836.19+2485.9+6823.38+2498.21+6822.09+2513.17C6820.79+2528.13+6831.51+2540.06+6846.02+2539.83C6860.52+2539.59+6873.33+2527.28+6874.62+2512.32Z" opacity="1" fill="#272361"/>
<path d="M6649.88+2516.64C6651.36+2501.66+6640.07+2489.8+6624.67+2490.14C6609.26+2490.48+6595.58+2502.9+6594.1+2517.88C6592.62+2532.86+6603.91+2544.73+6619.31+2544.38C6634.71+2544.04+6648.4+2531.62+6649.88+2516.64Z" opacity="1" fill="#272361"/>
<path d="M7167.76+2474.78C7181.67+2475.43+7105.4+2712.2+7063.05+2753.27C7003.91+2810.62+6983.3+2830.05+6891.67+2864.97C6848.72+2881.34+6765.1+2901.29+6690.9+2879.22C6644.15+2865.32+6625.82+2839.24+6592.3+2783.76C6558.79+2728.29+6556.84+2657.31+6556.84+2657.31C6556.84+2657.31+6563.93+2699.24+6592.28+2708.3C6612.09+2714.62+6625.3+2676.28+6715.49+2668.21C6794.96+2661.1+6797.59+2662.22+6862.56+2671.01C6927.53+2679.79+6953.79+2697.18+6975.37+2703.35C7017.85+2715.51+7090.87+2612.79+7105.01+2569.44C7122.84+2514.8+7164.87+2474.65+7167.76+2474.78Z" opacity="1" fill="#272361"/>
<path d="M6852.67+2719.46C6849.61+2709.42+6789.47+2736.29+6738.59+2736.1C6687.71+2735.91+6662.36+2727.97+6659.14+2735.47C6657.05+2740.36+6681.87+2782.56+6732.75+2782.75C6783.64+2782.94+6856.74+2732.81+6852.67+2719.46Z" opacity="1" fill="#e0e0e0"/>
<path d="M6650.95+2403.24L6601.06+2410.01C6591.98+2411.24+6585.27+2417.15+6586.07+2423.2L6586.07+2423.2C6586.87+2429.25+6594.88+2433.16+6603.97+2431.93L6653.85+2425.16C6662.93+2423.93+6669.64+2418.02+6668.84+2411.97L6668.84+2411.97C6668.04+2405.92+6660.03+2402.01+6650.95+2403.24Z" opacity="1" fill="#272361"/>
<path d="M6882.71+2389.37L6832.46+2389.12C6823.31+2389.07+6815.71+2393.99+6815.48+2400.1L6815.48+2400.1C6815.26+2406.22+6822.49+2411.21+6831.64+2411.26L6881.89+2411.51C6891.04+2411.56+6898.64+2406.64+6898.87+2400.53L6898.87+2400.53C6899.09+2394.41+6891.86+2389.42+6882.71+2389.37Z" opacity="1" fill="#272361"/>
<path d="M6453.97+3569.67C6453.97+3569.67+6433.19+3619.43+6449.73+3809.99C6464.82+3983.98+6431.39+3844.04+6432.43+3732.11C6433.47+3620.19+6453.97+3569.67+6453.97+3569.67Z" opacity="1" fill="#2e3690"/>
<path stroke="#4cc8ed" stroke-width="10.1" d="M7553.7+3240.3C7553.7+3240.3+7837.21+2754.29+8003.98+2182.51C8067.86+1963.49+8500.05+2084.99+8737.76+2077.69C9095.31+2066.7+9440.57+2003.83+9440.57+2003.83" fill="none" stroke-linecap="round" opacity="1" stroke-linejoin="round"/>
<path stroke="#2baae2" stroke-width="10.1" d="M7408.16+3007.83C7408.16+3007.83+7667.16+2508.33+7805.29+1928.97C7827.28+1836.74+7915.73+1800.09+8028.61+1787.37C8187.35+1769.5+8394.42+1798.97+8532.96+1787.8C8889.52+1759.05+9231.23+1679.1+9231.23+1679.1" fill="none" stroke-linecap="round" opacity="1" stroke-linejoin="round"/>
</g>
<g id="Слой 5" vectornator:layerName="Слой 5">
<path d="M5083.24+2118.38L5085.82+2156.15C5085.82+2156.15+5057.39+2173.34+5057.95+2188.87C5058.52+2204.4+5086.86+2220.07+5086.86+2220.07C5086.86+2220.07+5060.73+2234.94+5062.78+2249.13C5064.84+2263.32+5096.84+2278.29+5096.84+2278.29C5096.84+2278.29+5069.62+2291.69+5071.53+2306.06C5073.44+2320.44+5107.02+2335.73+5107.02+2335.73C5107.02+2335.73+5075.35+2347.55+5077.51+2361.22C5079.68+2374.89+5112.44+2391.1+5112.44+2391.1C5112.44+2391.1+5079.78+2398.54+5081.08+2411.52C5082.39+2424.5+5118.36+2441.16+5118.36+2441.16C5118.36+2441.16+5123.52+2449.15+5125.45+2451.69C5139.83+2470.65+5262.05+2470.39+5305.69+2493.35C5326.48+2504.28+5355.09+2597.15+5433.32+2588C5515.28+2578.42+5502.82+2512.52+5548.2+2467.32C5586.85+2428.84+5695.82+2411.93+5711.06+2374.54C5712.73+2370.44+5716.2+2357.08+5716.2+2357.08C5716.2+2357.08+5749.52+2338.01+5745.79+2321.09C5742.18+2304.72+5712.12+2304.6+5712.12+2304.6C5712.12+2304.6+5739.63+2283.18+5738.4+2269.54C5737.17+2255.9+5707.66+2248.63+5707.66+2248.63C5707.66+2248.63+5734.53+2230.7+5733.07+2216.01C5731.61+2201.33+5700.94+2192.9+5700.94+2192.9C5700.94+2192.9+5729.69+2171.9+5728.28+2157.14C5726.87+2142.38+5693.09+2132.88+5692.93+2131.42C5692.82+2130.52+5723.15+2113.67+5720.93+2093.52C5718.71+2073.37+5681.89+2072.5+5681.89+2072.5L5676.18+2044.45L5083.24+2118.38Z" opacity="1" fill="#272361"/>
<path stroke="#4cc8ed" stroke-width="3.05" d="M5075.97+2101.94C5067.73+2026.17+4992.34+1806.85+4921.66+1731.58C4799.11+1601.11+4610.05+1376.68+4556.43+1104.3C4479.6+714.071+4723.24+320.028+5179.23+285.826C5635.23+251.624+5972.88+471.752+5981.75+942.166C5988.65+1307.52+5766.17+1565.07+5733.77+1669.74C5701.37+1774.4+5676.8+1952.41+5687.44+2035.62C5698.09+2118.82+5611.05+2158+5611.05+2158C5611.05+2158+5551.24+2199.1+5418.77+2209.94C5286.29+2220.78+5195.37+2191.46+5195.37+2191.46C5195.37+2191.46+5083.69+2172.93+5075.97+2101.94Z" fill="#4cc8ed" stroke-linecap="round" opacity="1" stroke-linejoin="round"/>
<path stroke="#e0e0e0" stroke-width="8.86" d="M5389.97+2160.8C5389.97+2160.8+5327.27+1701.6+5237.03+1347.21C5196.65+1188.62+5142.21+1091.33+5109.83+1022.16C5034.25+860.716+4945.05+1033.22+4984.4+1111.51C5023.75+1189.81+5150.37+1184.39+5247.39+1162.21C5344.4+1140.03+5337.16+880.893+5292.41+866.21C5247.65+851.527+5216.37+965.932+5250.52+1066.12C5284.67+1166.3+5523.26+1211.83+5580.66+1091.33C5609.81+1030.14+5604.58+938.803+5586.35+883.225C5568.69+829.366+5503.38+816.035+5475.78+833.743C5440.35+856.47+5399.84+974.684+5385.54+1279.09C5371.25+1583.49+5451.03+2142.73+5451.03+2142.73" fill="none" stroke-linecap="round" opacity="1" stroke-linejoin="round"/>
<path stroke="#ffffff" stroke-width="3.05" d="M5105.99+2220.68C5105.99+2220.68+5267.69+2259.81+5415.26+2245.24C5562.84+2230.66+5694.33+2132.14+5694.33+2132.14" fill="none" stroke-linecap="round" opacity="1" stroke-linejoin="round"/>
<path stroke="#ffffff" stroke-width="3.05" d="M5115.18+2281.35C5115.18+2281.35+5276.87+2320.49+5424.45+2305.91C5455.95+2302.8+5486.71+2295.86+5515.62+2286.88C5622.17+2253.76+5703.52+2192.81+5703.52+2192.81" fill="none" stroke-linecap="round" opacity="1" stroke-linejoin="round"/>
<path stroke="#ffffff" stroke-width="3.05" d="M5121.96+2337.06C5121.96+2337.06+5283.65+2376.19+5431.23+2361.61C5578.8+2347.04+5710.3+2248.52+5710.3+2248.52" fill="none" stroke-linecap="round" opacity="1" stroke-linejoin="round"/>
<path stroke="#ffffff" stroke-width="3.05" d="M5127.94+2391.83C5127.94+2391.83+5289.63+2430.96+5437.21+2416.39C5584.79+2401.81+5716.28+2303.29+5716.28+2303.29" fill="none" stroke-linecap="round" opacity="1" stroke-linejoin="round"/>
<path stroke="#ffffff" stroke-width="3.05" d="M5131.65+2444.68C5131.65+2444.68+5291.35+2485.33+5438.92+2470.75C5536.13+2461.15+5626.35+2415.13+5676.62+2384.83C5702.67+2369.13+5717.99+2357.65+5717.99+2357.65" fill="none" stroke-linecap="round" opacity="1" stroke-linejoin="round"/>
</g>
</svg>
