<svg width="9919" height="6147" viewBox="0 0 9919 6147" fill="none" xmlns="http://www.w3.org/2000/svg">
<path d="M6923.11 394.312L8256.41 3242.44C8283.92 3301.22 8277.67 3370.26 8240.03 3423.13L6375.28 6043C6338.57 6094.58 6277.45 6123.08 6214.33 6118.05L3013.15 5862.86C2948.65 5857.72 2891.87 5818.36 2864.44 5759.76L1527.55 2904.46C1500.05 2845.73 1506.27 2776.75 1543.83 2723.89L3404.94 104.347C3441.72 52.5847 3503.04 24.0276 3566.33 29.1961L6774.74 291.224C6839.11 296.481 6895.73 335.82 6923.11 394.312Z" stroke="#E0E0E0" stroke-width="40" stroke-linejoin="round"/>
<path fill-rule="evenodd" clip-rule="evenodd" d="M1704.08 3031.59C1941.99 2355.31 3244.56 2346.28 3302.74 1690.55C3360.12 1043.68 4180.11 1110.04 4660.37 1376.27C5180.24 1664.46 7004.99 1093.4 6943.03 1560.46C6881.06 2027.52 7748.5 2211.37 7802.92 2925.79C7857 3635.59 7059.56 4520.29 7229.5 4941.87C7381.55 5319.07 5417.76 5084.73 4600.56 5084.73C4083.2 5084.73 2932.15 5247.2 2772.26 4845.25C2430.96 3987.3 1427.22 3818.6 1704.08 3031.59Z" fill="#4CC8ED" fill-opacity="0.153501"/>
<path fill-rule="evenodd" clip-rule="evenodd" d="M2693.56 2267.85C2693.56 2267.85 2789.46 2265.15 2790.73 2160.49C2791.98 2057.48 2693.12 2052.06 2693.12 2052.06L2449.67 2053.79C2449.67 2053.79 2344.5 2048.89 2345.91 2167.11C2347.14 2270.72 2455.58 2277.93 2455.58 2277.93L2560.51 2277.18C2571.25 2277.11 2586.89 2283.95 2595.46 2292.47L2677.37 2373.91C2685.61 2382.11 2688.73 2378.77 2684.34 2366.47L2657.32 2290.82C2653.74 2280.78 2657.64 2272.05 2666.06 2271.31L2693.56 2267.85Z" fill="#4CC8ED"/>
<path fill-rule="evenodd" clip-rule="evenodd" d="M2484.14 2163.02C2484.14 2147.22 2471.54 2134.43 2455.97 2134.43C2440.42 2134.43 2427.8 2147.22 2427.8 2163.02C2427.8 2178.82 2440.42 2191.63 2455.97 2191.63C2471.54 2191.63 2484.14 2178.82 2484.14 2163.02Z" fill="white"/>
<path fill-rule="evenodd" clip-rule="evenodd" d="M2592.52 2163.02C2592.52 2147.22 2579.9 2134.43 2564.35 2134.43C2548.78 2134.43 2536.18 2147.22 2536.18 2163.02C2536.18 2178.82 2548.78 2191.63 2564.35 2191.63C2579.9 2191.63 2592.52 2178.82 2592.52 2163.02Z" fill="white"/>
<path fill-rule="evenodd" clip-rule="evenodd" d="M2702.26 2163.02C2702.26 2147.22 2689.65 2134.43 2674.09 2134.43C2658.53 2134.43 2645.91 2147.22 2645.91 2163.02C2645.91 2178.82 2658.53 2191.63 2674.09 2191.63C2689.65 2191.63 2702.26 2178.82 2702.26 2163.02Z" fill="white"/>
<path fill-rule="evenodd" clip-rule="evenodd" d="M4072.59 2731.4L4024.25 2861.25L4464.21 2985.47L4072.59 2731.4Z" fill="#0081C3"/>
<path fill-rule="evenodd" clip-rule="evenodd" d="M4090.21 2679.95L4059.77 2762.33L4328.63 2894.98L4090.21 2679.95Z" fill="#1172BA"/>
<path fill-rule="evenodd" clip-rule="evenodd" d="M4165.74 2632.22L4089.76 2680.79L4305.21 2877.93L4012.8 2714.27L3921.39 2753.9L4482.6 2993.95L4165.74 2632.22Z" fill="#2BAAE2"/>
<path fill-rule="evenodd" clip-rule="evenodd" d="M4686.55 5182.21L5019.94 5138.34C5028.49 5137.21 5038.1 5129.83 5041.41 5121.86L5170.1 4811.18C5173.41 4803.21 5171.82 4791.18 5166.57 4784.34L4961.88 4517.53C4956.63 4510.69 4945.43 4506.04 4936.88 4507.17L4603.5 4551.05C4594.94 4552.18 4585.32 4559.55 4582.02 4567.53L4453.33 4878.21C4450.03 4886.18 4451.6 4898.2 4456.86 4905.05L4661.54 5171.86C4666.8 5178.7 4677.99 5183.34 4686.55 5182.21Z" stroke="#2BAAE2" stroke-opacity="0.138889" stroke-width="15.78" stroke-linecap="round" stroke-linejoin="round"/>
<path fill-rule="evenodd" clip-rule="evenodd" d="M5297.12 3211.23L5546.42 3178.42C5552.82 3177.59 5560 3172.07 5562.48 3166.11L5658.71 2933.78C5661.18 2927.82 5660 2918.84 5656.07 2913.72L5503.02 2714.2C5499.08 2709.09 5490.71 2705.61 5484.31 2706.45L5235.02 2739.27C5228.62 2740.11 5221.43 2745.63 5218.96 2751.59L5122.72 2983.9C5120.25 2989.87 5121.43 2998.86 5125.36 3003.98L5278.42 3203.49C5282.35 3208.61 5290.72 3212.08 5297.12 3211.23Z" stroke="#2BAAE2" stroke-opacity="0.138889" stroke-width="15.78" stroke-linecap="round" stroke-linejoin="round"/>
<path fill-rule="evenodd" clip-rule="evenodd" d="M7265.53 4157.11L7448.18 4053.41C7452.87 4050.75 7456.7 4044.22 7456.75 4038.83L7458.27 3828.8C7458.31 3823.41 7454.57 3816.82 7449.93 3814.09L7268.81 3707.75C7264.16 3705.02 7256.59 3704.96 7251.9 3707.63L7069.25 3811.32C7064.57 3813.98 7060.73 3820.51 7060.7 3825.9L7059.16 4035.94C7059.13 4041.33 7062.87 4047.91 7067.51 4050.64L7248.64 4156.99C7253.28 4159.72 7260.85 4159.77 7265.53 4157.11Z" stroke="#2BAAE2" stroke-opacity="0.138889" stroke-width="15.78" stroke-linecap="round" stroke-linejoin="round"/>
<path fill-rule="evenodd" clip-rule="evenodd" d="M3277.67 2101.43L3671.34 1963.78C3681.44 1960.24 3691.25 1948.85 3693.24 1938.33L3770.87 1528.55C3772.86 1518.03 3767.9 1503.84 3759.79 1496.86L3443.75 1224.73C3435.64 1217.75 3420.87 1214.95 3410.76 1218.48L3017.11 1356.14C3007 1359.67 2997.2 1371.06 2995.2 1381.59L2917.57 1791.37C2915.58 1801.88 2920.54 1816.07 2928.66 1823.06L3244.69 2095.18C3252.8 2102.17 3267.57 2104.96 3277.67 2101.43Z" stroke="#2BAAE2" stroke-opacity="0.138889" stroke-width="15.78" stroke-linecap="round" stroke-linejoin="round"/>
<path opacity="0.196035" fill-rule="evenodd" clip-rule="evenodd" d="M4370.86 3447.05C4450.28 3447.05 4516.25 3499.12 4525.09 3567.1C4532.63 3565.89 4540.22 3565.05 4547.88 3565.05C4612.64 3565.05 4665.8 3607.51 4665.8 3661C4665.8 3710.34 4620.31 3750.89 4561.37 3756.35C4561.37 3756.35 4547.8 3757.86 4542.6 3758.41C4527.77 3759.98 4511.67 3761.54 4494.87 3763C4470.47 3765.13 4446.7 3766.85 4424.32 3768.01C4403.38 3769.11 4384.21 3769.71 4367.17 3769.71C4324.4 3769.71 4283.19 3767.85 4227.76 3764.09C4221.51 3763.67 4187.33 3761.29 4178.49 3760.71C4115.27 3756.79 4065.47 3713.14 4065.47 3659.59C4065.47 3620.61 4092.08 3586.14 4132.65 3569.13C4136.98 3533.35 4170.76 3505.94 4211.33 3505.94C4220.91 3505.94 4230.27 3507.58 4239.15 3510.58C4267.35 3471.42 4316.66 3447.05 4370.86 3447.05Z" fill="#2BAAE2" fill-opacity="0.0631313" stroke="#2BAAE2" stroke-width="15.22" stroke-linecap="round" stroke-linejoin="round"/>
<path opacity="0.196035" fill-rule="evenodd" clip-rule="evenodd" d="M7862.43 3386.08C7941.86 3386.08 8007.82 3438.15 8016.66 3506.14C8024.2 3504.92 8031.8 3504.08 8039.45 3504.08C8104.21 3504.08 8157.38 3546.55 8157.38 3600.04C8157.38 3649.37 8111.88 3689.93 8052.94 3695.38C8052.94 3695.38 8039.37 3696.9 8034.17 3697.44C8019.34 3699.01 8003.24 3700.58 7986.44 3702.04C7962.04 3704.17 7938.27 3705.87 7915.88 3707.04C7894.95 3708.15 7875.78 3708.74 7858.75 3708.74C7815.98 3708.74 7774.76 3706.88 7719.33 3703.12C7713.08 3702.7 7678.9 3700.33 7670.06 3699.74C7606.84 3695.82 7557.05 3652.18 7557.05 3598.61C7557.05 3559.64 7583.65 3525.17 7624.22 3508.17C7628.55 3472.38 7662.33 3444.98 7702.9 3444.98C7712.48 3444.98 7721.84 3446.6 7730.72 3449.61C7758.92 3410.46 7808.24 3386.08 7862.43 3386.08Z" fill="#2BAAE2" fill-opacity="0.0631313" stroke="#2BAAE2" stroke-width="15.22" stroke-linecap="round" stroke-linejoin="round"/>
<path opacity="0.196035" fill-rule="evenodd" clip-rule="evenodd" d="M6171.8 1271.86C6251.23 1271.86 6317.2 1323.93 6326.03 1391.92C6333.56 1390.7 6341.16 1389.86 6348.82 1389.86C6413.58 1389.86 6466.74 1432.32 6466.74 1485.81C6466.74 1535.15 6421.25 1575.7 6362.31 1581.16C6362.31 1581.16 6348.74 1582.67 6343.55 1583.22C6328.71 1584.78 6312.61 1586.35 6295.81 1587.81C6271.42 1589.94 6247.64 1591.66 6225.26 1592.82C6204.32 1593.92 6185.15 1594.51 6168.11 1594.51C6125.35 1594.51 6084.13 1592.66 6028.7 1588.9C6022.45 1588.48 5988.27 1586.1 5979.44 1585.52C5916.21 1581.6 5866.41 1537.95 5866.41 1484.39C5866.41 1445.42 5893.02 1410.95 5933.59 1393.94C5937.92 1358.16 5971.7 1330.75 6012.27 1330.75C6021.85 1330.75 6031.21 1332.38 6040.09 1335.39C6068.29 1296.23 6117.6 1271.86 6171.8 1271.86Z" fill="#2BAAE2" fill-opacity="0.0631313" stroke="#2BAAE2" stroke-width="15.22" stroke-linecap="round" stroke-linejoin="round"/>
<path opacity="0.196035" fill-rule="evenodd" clip-rule="evenodd" d="M3888.01 4134.02C3967.44 4134.02 4033.41 4186.09 4042.24 4254.08C4049.77 4252.86 4057.38 4252.03 4065.03 4252.03C4129.79 4252.03 4182.95 4294.49 4182.95 4347.98C4182.95 4397.32 4137.46 4437.87 4078.52 4443.33C4078.52 4443.33 4064.95 4444.84 4059.76 4445.39C4044.92 4446.95 4028.82 4448.52 4012.02 4449.98C3987.63 4452.11 3963.85 4453.81 3941.47 4454.99C3920.53 4456.09 3901.36 4456.68 3884.33 4456.68C3841.56 4456.68 3800.34 4454.82 3744.91 4451.06C3738.66 4450.65 3704.48 4448.27 3695.65 4447.69C3632.42 4443.77 3582.62 4400.12 3582.62 4346.56C3582.62 4307.59 3609.24 4273.12 3649.8 4256.11C3654.13 4220.33 3687.91 4192.92 3728.48 4192.92C3738.06 4192.92 3747.42 4194.55 3756.3 4197.56C3784.5 4158.4 3833.81 4134.02 3888.01 4134.02Z" fill="#2BAAE2" fill-opacity="0.0631313" stroke="#2BAAE2" stroke-width="15.22" stroke-linecap="round" stroke-linejoin="round"/>
<path d="M3982.72 2647.26C3982.72 2647.26 3894.18 2516.24 3881.98 2308.31C3869.9 2102.5 3900.15 2000.89 3801.26 1820.75C3698.39 1633.36 3346.26 1470.17 2877.04 1569.15C2407.82 1668.13 2309.3 2182.77 1916.88 2491.06C1524.46 2799.36 1134.35 2977.33 1170.13 3503.08C1216.19 4179.91 2379.23 3567.26 2633.45 4025.27C2887.68 4483.28 2110.24 4719.23 2110.24 4719.23" stroke="#2BAAE2" stroke-opacity="0.237374" stroke-width="15.22" stroke-linecap="round" stroke-linejoin="round" stroke-dasharray="50 50 50 50"/>
<path fill-rule="evenodd" clip-rule="evenodd" d="M1230.3 5476.73C1230.3 5420.36 2791.58 5374.65 4717.53 5374.65C6643.47 5374.65 8204.76 5420.36 8204.76 5476.73C8204.76 5533.11 6643.47 5578.81 4717.53 5578.81C2791.58 5578.81 1230.3 5533.11 1230.3 5476.73Z" fill="#E0E0E0"/>
<path opacity="0.612335" fill-rule="evenodd" clip-rule="evenodd" d="M3925.9 4539.26C3925.9 4539.26 3937.05 4435.77 3906.37 4406.28C3875.7 4376.8 3835.38 4440.29 3815.13 4402.82C3794.87 4365.35 3845.1 4331.44 3807.14 4278.08C3778.21 4237.41 3730.34 4303.24 3700.47 4267.06C3670.6 4230.89 3722.49 4171.44 3697.69 4121.51C3672.89 4071.59 3619.39 4094.47 3601.25 4067.34C3582.74 4039.65 3635.79 4002.45 3585.77 3968.92C3531.28 3932.4 3524.07 3997.66 3479.4 3986.94C3445.82 3978.89 3418.7 3901.14 3361.75 3946.28C3313.95 3984.17 3358.9 4040.95 3358.92 4084.64C3358.97 4139.57 3315.57 4140.91 3345.91 4197.74C3366.52 4236.33 3419.58 4202.48 3443.21 4237.93C3466.83 4273.39 3402.6 4299.19 3440.42 4339.56C3478.23 4379.94 3554.31 4357.74 3577.44 4387.51C3600.57 4417.27 3551.8 4486.18 3585.76 4522.76C3619.72 4559.36 3676.27 4524.93 3716.57 4556.14C3756.87 4587.34 3696.98 4641.46 3737.56 4672.47L3892.62 4669.87L3925.9 4539.26Z" fill="#0081C3"/>
<path opacity="0.612335" fill-rule="evenodd" clip-rule="evenodd" d="M4099.88 4572.61C4099.88 4572.61 4188.47 4463.35 4171.94 4410.01C4155.4 4356.66 4093.07 4394.55 4095.17 4339.05C4097.28 4283.54 4161.46 4283.66 4142.18 4200.43C4123.26 4118.81 4072.96 4163.91 4062.26 4103.56C4051.56 4043.19 4105.75 4041.5 4111.25 3968.97C4116.75 3896.44 4040.78 3896.46 4033.89 3854.47C4027.52 3815.73 4115.04 3797.24 4077.56 3726.63C4036.72 3649.7 3995.6 3698.68 3948.23 3657.28C3912.61 3626.16 3866.08 3539.47 3791.84 3550.29C3716.67 3561.23 3760.45 3638.99 3728.9 3688.22C3689.22 3750.14 3634.69 3723.13 3631.05 3807.09C3628.58 3864.07 3693.81 3863.21 3693.6 3907.94C3693.39 3952.67 3627.66 3958.57 3645.12 4028.89C3662.59 4099.2 3740.37 4115.56 3748.65 4167.86C3756.34 4216.47 3676.57 4267.17 3692.02 4330.69C3707.47 4394.21 3773.77 4399.48 3800.94 4461.1C3828.12 4522.71 3744.08 4539.06 3771.74 4600.64C3783.78 4627.47 3820.88 4651.59 3858.92 4670.25L4000.93 4668.58L4099.88 4572.61Z" fill="#2BAAE2"/>
<path opacity="0.612335" fill-rule="evenodd" clip-rule="evenodd" d="M4068.33 4667.04C4068.33 4667.04 4206.85 4646.03 4231.75 4599.07C4256.66 4552.12 4184.04 4532.35 4222.08 4495.4C4260.1 4458.46 4300.62 4500 4351.67 4436.31C4390.58 4387.78 4315.94 4351.45 4349.14 4303.26C4382.35 4255.07 4450.7 4298.39 4502.12 4251.8C4553.53 4205.23 4507.91 4147.83 4534.25 4116.88C4561.14 4085.28 4623.78 4137.38 4646.95 4065.61C4672.2 3987.42 4591.51 4000.2 4589.16 3942.45C4587.39 3899.03 4671.36 3840.45 4597.88 3786.23C4536.2 3740.72 4483.42 3814.01 4431.07 3828.47C4365.22 3846.65 4348.87 3794.41 4291.06 3850C4251.82 3887.74 4310.44 3940.98 4275.98 3981.35C4241.52 4021.73 4188.75 3952.29 4153.21 4011.5C4117.67 4070.72 4151.45 4143.51 4123.64 4181.4C4095.83 4219.29 4015.35 4195.08 3983.05 4248.37C3950.74 4301.67 3996 4351 3972.32 4410.22C3948.62 4469.44 3877.92 4424.06 3854.55 4483.54C3831.18 4543.03 3909.35 4669.04 3909.35 4669.04L4068.33 4667.04Z" fill="#0081C3"/>
<path opacity="0.612335" fill-rule="evenodd" clip-rule="evenodd" d="M3772.52 4774.89L3836.94 5212.11L4108.71 5210.08L4152.34 4770.37L3772.52 4774.89Z" fill="#135EAB"/>
<path opacity="0.612335" fill-rule="evenodd" clip-rule="evenodd" d="M3772.55 4775.03L4152.39 4770.68L4147.99 4815.16L3778.38 4814.98L3772.55 4775.03Z" fill="#135EAB"/>
<path opacity="0.612335" fill-rule="evenodd" clip-rule="evenodd" d="M3690.46 4673.26L4243.45 4664.03L4230.96 4769.73L3698.04 4775.56L3690.46 4673.26Z" fill="#0054AB"/>
<g opacity="0.546256">
<path opacity="0.546256" fill-rule="evenodd" clip-rule="evenodd" d="M5339.13 3628.85H5757.44C5778.29 3628.85 5795.38 3645.75 5795.65 3666.59L5798.49 3899.3C5798.74 3920.14 5782.06 3936.96 5761.21 3936.89L5334.86 3935.3C5314.02 3935.21 5297.36 3918.26 5297.65 3897.41L5300.86 3666.59C5301.16 3645.75 5318.28 3628.85 5339.13 3628.85Z" fill="#2BAAE2"/>
<g opacity="0.546256">
<path d="M5313.04 3641.81C5313.04 3641.81 5430.53 3757.86 5488.53 3804.02C5546.54 3850.18 5552.7 3851.86 5600.83 3808.83C5656.55 3759.03 5777.75 3636.87 5777.75 3636.87" stroke="white" stroke-width="8.86" stroke-linecap="round" stroke-linejoin="round"/>
<path d="M5627.11 3786.85L5781.75 3926.39" stroke="white" stroke-width="8.86" stroke-linecap="round" stroke-linejoin="round"/>
<path d="M5309.7 3924.28L5466.13 3790.76" stroke="white" stroke-width="8.86" stroke-linecap="round" stroke-linejoin="round"/>
</g>
</g>
<path opacity="0.42511" fill-rule="evenodd" clip-rule="evenodd" d="M2089.52 3037.03C2074.97 3037.6 2062.29 3039.78 2054.19 3042.42L2051.07 3119.83C2016 3121.27 1993.26 3122.98 1962.83 3136.12L1923.18 3068.19C1889.6 3077.61 1844.48 3105.42 1829.06 3131.15L1873.85 3193.31C1852.71 3212.8 1837.79 3229.97 1823.43 3255.08L1759.68 3223.14C1740.14 3245.52 1721.73 3290.75 1724.26 3312.78L1790.94 3334.4C1784.98 3359.22 1782.32 3385.28 1783.43 3412.06L1713.14 3424.96C1707.48 3450.46 1714.14 3500.12 1733.18 3525.05L1801.8 3501.49C1811.8 3527.61 1826.46 3553.82 1843.28 3575.43L1790.92 3629.83C1805.22 3652.23 1841.19 3686.04 1863.9 3696.94L1910.17 3636C1934.91 3652.24 1962.33 3664.61 1991.56 3672.33L1980.51 3742.81C2009.37 3754.98 2041.49 3758.75 2074.51 3752.6L2074.17 3681.31C2102.68 3680.13 2125 3677.2 2150.57 3668.16L2180.56 3731.93C2207.65 3730.89 2245.76 3710.55 2261.24 3689.34L2221.94 3631.53C2247.29 3613.82 2269.56 3592 2287.8 3567.09L2354.23 3604.2C2378.68 3586.62 2401.26 3540.56 2402.25 3513.89L2328.94 3486.12C2338.62 3455.62 2346.25 3434.63 2344.86 3400.78L2424.48 3388.46C2433.09 3355.9 2422.79 3312.3 2404.34 3290.41L2327.76 3311.62C2319.34 3286.26 2307.44 3262.55 2292.65 3241.05L2355.37 3187.66C2339.21 3148.82 2310.01 3119.45 2279.58 3108.55L2223.75 3170.47C2201.41 3154.16 2174.26 3138.62 2147.71 3129.49L2165.29 3052.88C2143.21 3039.62 2113.77 3036.08 2089.52 3037.03ZM2060.29 3250.74C2143.87 3247.29 2214.43 3312.81 2217.9 3397.06C2221.36 3481.3 2156.43 3552.4 2072.86 3555.84C1989.28 3559.28 1918.71 3493.77 1915.25 3409.52C1911.78 3325.27 1976.72 3254.17 2060.29 3250.74Z" fill="#2BAAE2"/>
<path opacity="0.42511" fill-rule="evenodd" clip-rule="evenodd" d="M2328.83 3088.01C2328.81 3098.94 2330.06 3108.53 2331.8 3114.68L2389.79 3119.37C2389.8 3145.73 2390.39 3162.84 2399.33 3186.08L2347.16 3213.77C2353.2 3239.25 2372.71 3273.95 2391.53 3286.3L2439.53 3254.58C2453.51 3271.04 2465.95 3282.75 2484.34 3294.29L2458.45 3341.16C2474.65 3356.5 2508.02 3371.68 2524.63 3370.46L2542.87 3321.08C2561.31 3326.3 2580.78 3329.09 2600.91 3329.07L2608.45 3382.21C2627.42 3387.23 2664.87 3383.73 2684.15 3370.2L2668.56 3318C2688.46 3311.29 2708.56 3301.08 2725.29 3289.12L2764.52 3330.06C2781.76 3320 2808.21 3294.05 2817.08 3277.34L2772.77 3240.77C2785.7 3222.69 2795.81 3202.49 2802.5 3180.8L2855.03 3191.22C2865.03 3169.93 2868.84 3145.95 2865.23 3120.99L2811.73 3119.07C2811.71 3097.65 2810.19 3080.8 2804.18 3061.34L2855.08 3044.23C2855.12 3023.86 2840.38 2989.03 2824.94 2976.76L2776.86 3002.6C2764.34 2983.03 2750.66 2969.75 2732.52 2955.3L2771.12 2909.3C2758.66 2890.42 2718.63 2868.51 2698.64 2866.96L2672.8 2916.48C2650.21 2908.29 2634.92 2907.42 2609.48 2907.44L2602.66 2847.32C2578.49 2839.87 2545.46 2846.28 2528.48 2859.46L2542.07 2917.57C2522.79 2923.11 2504.64 2931.33 2488.06 2941.76L2449.9 2893.09C2420.28 2904.03 2397.36 2925.05 2388.25 2947.55L2433.01 2991.33C2420.1 3007.6 2407.61 3027.5 2399.97 3047.15L2343.02 3031.63C2332.41 3047.79 2328.86 3069.78 2328.83 3088.01ZM2488.27 3116.42C2488.23 3053.61 2539.53 3002.64 2602.84 3002.6C2666.15 3002.55 2717.52 3053.44 2717.56 3116.25C2717.61 3179.07 2666.31 3230.03 2603 3230.08C2539.69 3230.13 2488.32 3179.24 2488.27 3116.42Z" fill="#2BAAE2"/>
<path opacity="0.42511" fill-rule="evenodd" clip-rule="evenodd" d="M7152.6 1350.85C7138.25 1353.28 7125.95 1357.07 7118.26 1360.73L7125.1 1437.91C7090.51 1443.83 7068.17 1448.44 7039.68 1465.37L6991.64 1403.1C6959.54 1416.75 6918.37 1450.13 6906.38 1477.62L6958.78 1533.52C6940.31 1555.56 6927.72 1574.5 6916.7 1601.24L6849.38 1577.76C6832.88 1602.46 6820.42 1649.68 6825.75 1671.2L6894.65 1684.08C6891.93 1709.46 6892.64 1735.65 6897.17 1762.07L6829.12 1783.88C6826.78 1809.9 6839.77 1858.29 6861.84 1880.58L6926.87 1848.41C6940.14 1873.02 6958.04 1897.12 6977.49 1916.41L6932.55 1977.07C6949.61 1997.45 6989.62 2026.37 7013.54 2034.26L7051.6 1967.89C7078.23 1980.81 7107 1989.56 7136.98 1993.47L7135.07 2064.79C7165.25 2073.14 7197.59 2072.76 7229.55 2062.43L7220.07 1991.77C7248.18 1986.95 7269.95 1981.17 7294.15 1968.92L7332.06 2028.32C7358.81 2023.81 7393.98 1998.75 7406.62 1975.73L7360.22 1923.44C7383.09 1902.62 7402.37 1878.12 7417.27 1851.08L7487.92 1879.36C7509.9 1858.78 7526.39 1810.21 7523.94 1783.62L7447.67 1765.5C7453.36 1734.01 7458.24 1712.22 7452.52 1678.82L7529.9 1656.38C7534.27 1622.98 7518.44 1581.06 7497.34 1561.72L7424.11 1592.59C7412.51 1568.52 7397.66 1546.54 7380.24 1527.11L7435.58 1466.11C7414.58 1429.67 7381.85 1404.29 7350.29 1397.38L7302.86 1465.96C7278.6 1452.65 7249.68 1440.72 7222.18 1435.07L7229.79 1356.85C7206.19 1346.53 7176.53 1346.8 7152.6 1350.85ZM7151.05 1566.54C7233.49 1552.4 7311.87 1608.32 7326.13 1691.42C7340.38 1774.52 7285.09 1853.37 7202.66 1867.51C7120.22 1881.65 7041.83 1825.73 7027.58 1742.63C7013.33 1659.52 7068.61 1580.67 7151.05 1566.54Z" fill="#2BAAE2"/>
<path opacity="0.42511" fill-rule="evenodd" clip-rule="evenodd" d="M6757.44 1810.8C6746.54 1809.82 6736.9 1810.23 6730.6 1811.42L6720.82 1868.76C6694.57 1866.45 6677.46 1865.53 6653.54 1872.38L6630.56 1817.98C6604.64 1821.75 6568.36 1838.12 6554.4 1855.78L6581.76 1906.39C6564.13 1918.88 6551.37 1930.22 6538.26 1947.53L6493.86 1917.61C6477.15 1932.39 6459.08 1964.3 6458.84 1980.95L6506.41 2003.47C6499.59 2021.38 6495.1 2040.54 6493.34 2060.59L6439.75 2063.42C6433.08 2081.87 6433.25 2119.49 6445.03 2139.89L6498.4 2128.96C6503.33 2149.38 6511.73 2170.31 6522.16 2188.02L6477.93 2223.49C6486.42 2241.55 6509.95 2270.2 6525.81 2280.5L6566.14 2239.58C6583 2254.06 6602.22 2265.91 6623.25 2274.49L6608.23 2325.91C6628.55 2337.74 6652.11 2343.65 6677.28 2342.26L6683.91 2289.13C6705.25 2291 6722.16 2290.97 6742.08 2286.7L6758.26 2337.08C6778.54 2338.92 6808.87 2327.45 6822.45 2313.15L6798.75 2266.31C6819.34 2255.56 6838.02 2241.45 6854.01 2224.66L6899.91 2258.7C6919.81 2247.97 6941.06 2215.85 6944.37 2196.07L6892.44 2168.33C6902.6 2146.55 6910.31 2131.66 6912.53 2106.31L6973.02 2104.81C6982.57 2081.39 6979.1 2047.92 6967.47 2029.84L6908.39 2038.27C6904.57 2018.57 6897.99 1999.76 6889.05 1982.33L6940.89 1948.61C6932.61 1918.13 6913.7 1893.44 6892.09 1882.39L6844.54 1923.12C6829.48 1908.82 6810.76 1894.63 6791.86 1885.26L6812.34 1829.92C6797.18 1817.92 6775.59 1812.43 6757.44 1810.8ZM6715.07 1967.14C6777.64 1972.63 6823.88 2028.22 6818.34 2091.3C6812.8 2154.37 6757.59 2201.06 6695.02 2195.56C6632.45 2190.07 6586.22 2134.48 6591.75 2071.4C6597.29 2008.33 6652.5 1961.64 6715.07 1967.14Z" fill="#2BAAE2"/>
<path fill-rule="evenodd" clip-rule="evenodd" d="M1735.91 5084.61H4496.37C4534.19 5084.61 4564.85 5114.83 4564.85 5152.11C4564.85 5189.38 4534.19 5219.6 4496.37 5219.6H1735.91C1698.08 5219.6 1667.43 5189.38 1667.43 5152.11C1667.43 5114.83 1698.08 5084.61 1735.91 5084.61Z" fill="#E0E0E0"/>
<path fill-rule="evenodd" clip-rule="evenodd" d="M1360.17 3591.96L1693.52 5053.47C1701.56 5088.77 1737.43 5117.46 1773.63 5117.55L3656.48 5122.34C3692.67 5122.43 3715.5 5093.89 3707.43 5058.6L3375.14 3602.24C3367.09 3566.94 3331.22 3538.18 3295.01 3538L1411.14 3528.39C1374.95 3528.2 1352.12 3556.67 1360.17 3591.96Z" fill="#E0E0E0"/>
<path fill-rule="evenodd" clip-rule="evenodd" d="M1445.29 3645.15L1754.45 5000.66C1761.92 5033.4 1795.19 5060.01 1828.77 5060.09L3575.05 5064.54C3608.63 5064.62 3629.79 5038.15 3622.32 5005.42L3314.12 3654.69C3306.65 3621.95 3273.38 3595.27 3239.81 3595.1L1492.57 3586.18C1458.98 3586.01 1437.82 3612.42 1445.29 3645.15Z" fill="#4CC8ED" fill-opacity="0.55303"/>
<path fill-rule="evenodd" clip-rule="evenodd" d="M7513.55 5081.47H4753.09C4715.27 5081.47 4684.61 5111.69 4684.61 5148.97C4684.61 5186.24 4715.27 5216.46 4753.09 5216.46H7513.55C7551.37 5216.46 7582.03 5186.24 7582.03 5148.97C7582.03 5111.69 7551.37 5081.47 7513.55 5081.47Z" fill="#E0E0E0"/>
<path fill-rule="evenodd" clip-rule="evenodd" d="M7889.28 3588.82L7555.94 5050.34C7547.89 5085.63 7512.02 5114.32 7475.82 5114.41L5592.98 5119.2C5556.78 5119.29 5533.96 5090.75 5542.02 5055.46L5874.31 3599.1C5882.37 3563.8 5918.24 3535.04 5954.44 3534.86L7838.32 3525.25C7874.51 3525.06 7897.34 3553.52 7889.28 3588.82Z" fill="#E0E0E0"/>
<path fill-rule="evenodd" clip-rule="evenodd" d="M7804.16 3642.01L7495 4997.53C7487.54 5030.26 7454.26 5056.87 7420.69 5056.96L5674.4 5061.4C5640.83 5061.48 5619.66 5035.01 5627.14 5002.28L5935.33 3651.55C5942.81 3618.81 5976.07 3592.14 6009.65 3591.97L7756.89 3583.05C7790.46 3582.88 7811.63 3609.27 7804.16 3642.01Z" fill="#4CC8ED" fill-opacity="0.55303"/>
<g opacity="0.4">
<path d="M2540.23 4580.46C2544.66 4580.29 2548.09 4579.6 2550.23 4578.41C2551.89 4577.5 2552.68 4576.37 2552.65 4574.98C2552.61 4573.09 2551.04 4568.86 2541.25 4561.45L2540.23 4580.46Z" fill="#2BAAE2"/>
<path d="M2496.96 4539.47L2482.63 4545.83L2481.6 4564.42C2500.05 4571.06 2517.32 4575.35 2530.6 4576.58L2531.56 4558.79C2526 4555.21 2519.34 4551.44 2511.77 4547.52C2506.72 4544.88 2501.75 4542.19 2496.96 4539.47Z" fill="#4CC8ED"/>
<path d="M2423.45 4536.08L2423.37 4537.26C2439.27 4546.38 2455.57 4554.26 2471.77 4560.7L2472.72 4543.55L2448.97 4524.69L2423.45 4536.08Z" fill="#2BAAE2"/>
<path d="M2467.19 4526.84L2478.02 4535.46L2484.99 4532.39C2472.95 4524.87 2462.76 4517.34 2454.63 4509.88L2454.27 4516.6L2467.19 4526.84Z" fill="#2BAAE2"/>
<path d="M2389.75 4515.64C2390.82 4516.42 2391.94 4517.21 2393.04 4517.97L2389.97 4515.56L2389.75 4515.64Z" fill="#2BAAE2"/>
<path d="M2418.89 4526.22L2424.14 4523.57L2424.12 4524.04L2444.55 4515.02L2445.35 4500.4C2437.08 4490.93 2431.99 4481.52 2429.77 4471.74L2422.41 4465.96L2417.39 4468.29L2417.39 4468.17L2408.84 4471.93L2396.97 4477.15L2395.64 4501.21L2395.67 4501.19L2395.62 4501.83L2395.28 4507.43L2406.27 4516.15L2418.89 4526.22Z" fill="#4CC8ED"/>
<path d="M2428.56 4458.47C2429.09 4445.98 2434.12 4435.22 2438.58 4425.62C2438.89 4424.95 2439.22 4424.27 2439.53 4423.61L2429.48 4428.08L2429.28 4433.49L2429.16 4433.4L2428.17 4451.87L2428.19 4451.85L2427.84 4457.91L2428.56 4458.47Z" fill="#2BAAE2"/>
<path d="M2305.56 4517.72L2305.53 4518.46C2315.98 4516.17 2326.21 4513.43 2336 4510.2L2331.23 4506.41L2305.56 4517.72Z" fill="#2BAAE2"/>
<path d="M2386.84 4481.71L2387.04 4478.47L2387.2 4475.48L2368.21 4460.38L2368.23 4460.41L2363.63 4456.75L2338.05 4468.09L2336.4 4498.2L2339.09 4500.33L2346.77 4506.43C2357.55 4502.43 2363.84 4499.28 2364.1 4499.13L2366.76 4497.77L2369.3 4499.87C2372.68 4502.68 2376.13 4505.41 2379.83 4508.24L2383.81 4506.48L2385.57 4505.7L2386.89 4481.68L2386.84 4481.71Z" fill="#2BAAE2"/>
<path d="M2418.04 4456.19L2419.71 4425.92L2400.69 4410.83L2400.71 4410.86L2396.15 4407.22L2374.04 4416.98C2372.69 4419.82 2371.4 4422.56 2370.17 4425.15L2368.87 4448.59L2369.64 4449.19L2392.61 4467.38L2397.55 4465.09L2397.55 4465.21L2418.04 4456.19Z" fill="#2BAAE2"/>
<path d="M2187.7 4499.36L2186.46 4522.3C2202.72 4524.83 2219.33 4526.09 2235.81 4526.04L2236.86 4506.82L2213.23 4488.04L2187.7 4499.36Z" fill="#2BAAE2"/>
<path d="M2094.66 4570.04L2099.14 4573.61C2098.38 4564.77 2097.68 4552.01 2100.19 4538.04L2096.19 4539.84L2094.88 4563.93L2094.98 4563.87L2094.97 4566.7L2094.66 4570.04Z" fill="#1172BA"/>
<path d="M2158.87 4482.59L2154.23 4478.92L2128.71 4490.19L2127.76 4507.45C2143.79 4513.14 2160.25 4517.61 2176.71 4520.67L2177.97 4497.75L2158.87 4482.59Z" fill="#1172BA"/>
<path d="M2086.43 4538.13L2070.19 4525.23C2073.47 4539.3 2078.48 4551.72 2085.15 4562.27L2086.14 4544.23L2086.09 4544.26L2086.43 4538.13Z" fill="#2BAAE2"/>
<path d="M2068.06 4511.25L2081.88 4522.21L2091.62 4529.95L2096.87 4527.31L2096.83 4527.78L2103.53 4524.83C2105.83 4517.95 2108.9 4511.44 2112.71 4505.48L2114.62 4502.47L2118.08 4503.83L2118.93 4488.57L2095.18 4469.71L2073.05 4479.48L2069.71 4480.95L2068.06 4511.25Z" fill="#1172BA"/>
<path d="M2151.35 4438.94L2127.68 4420.15L2102.2 4431.43L2100.59 4461.68L2121.43 4478.23L2124.27 4480.5L2124.4 4480.43L2149.6 4469.3L2149.57 4462.91L2150.05 4463.29L2151.35 4438.94Z" fill="#1172BA"/>
<path d="M2068.74 4410.88L2043.24 4422.14L2041.57 4452.33L2043.13 4453.56L2065.3 4471.17L2070.3 4468.74L2070.35 4468.71L2070.33 4468.98L2090.8 4459.98L2092.27 4433.06L2092.3 4432.63L2092.47 4429.71L2068.74 4410.88Z" fill="#2BAAE2"/>
<path d="M2268.94 4463.74L2269.3 4457.29L2263.19 4452.42C2252.79 4450.11 2242.54 4447.34 2232.63 4444.15L2220.06 4449.68L2218.39 4479.88L2242.14 4498.75L2267.61 4487.46L2267.67 4486.4L2268.94 4463.74Z" fill="#2BAAE2"/>
<path d="M2208.7 4478.29L2210.33 4448.07L2186.6 4429.24L2161.15 4440.47L2159.53 4470.75L2183.17 4489.56L2208.7 4478.29Z" fill="#2BAAE2"/>
<path d="M2224.64 4436.02C2221.69 4426.45 2223 4417.07 2228.47 4408.85C2228.78 4408.38 2229.11 4407.89 2229.46 4407.42C2215.58 4407.78 2204.05 4413.72 2195.96 4424.39L2215.61 4440L2224.64 4436.02Z" fill="#1172BA"/>
<path d="M2251.64 4506.31L2249.37 4507.39L2246.67 4508.5L2245.56 4529.24C2253.43 4536.8 2267.17 4546.02 2288.83 4548.47L2291.54 4547.27C2286.42 4543.41 2279.88 4538.08 2274.03 4532.22L2266.49 4524.67L2276.11 4523.44C2282.52 4522.63 2289.04 4521.6 2295.53 4520.4L2295.76 4516L2272.07 4497.18L2251.58 4506.2L2251.64 4506.31Z" fill="#2BAAE2"/>
<path d="M2281.31 4492.29L2296.41 4504.29L2296.4 4504.26L2300.98 4507.89L2326.56 4496.54L2328.22 4466.43L2328.16 4466.39L2320.55 4460.36C2308.66 4459.68 2296.58 4458.35 2284.61 4456.46L2279.01 4458.96L2277.34 4489.15L2281.31 4492.29Z" fill="#2BAAE2"/>
<path d="M2391.93 4391.77L2392.46 4381.72C2388.7 4388.33 2385.07 4395.04 2381.57 4401.82L2391.61 4397.39L2391.74 4394.84L2391.93 4391.77Z" fill="#2BAAE2"/>
<path d="M2151.81 4426.99L2152.04 4427.16L2153.52 4428.36L2154.17 4428.87L2156.61 4430.83L2178.67 4421.1C2162.67 4412.3 2147.71 4402.09 2134.09 4390.63L2132.9 4412.03L2151.81 4426.99Z" fill="#1172BA"/>
<path d="M2112.5 4370.23L2101.12 4361.23L2075.58 4372.47L2073.95 4402.69L2097.7 4421.55L2123.17 4410.26L2124.7 4382.29C2120.45 4378.35 2116.33 4374.28 2112.5 4370.23Z" fill="#0081C3"/>
<path d="M2026.39 4176.77L2045.31 4191.8L2045.31 4191.68L2050.14 4195.63L2075.64 4184.37L2077.31 4154.18L2053.75 4135.47L2028.03 4146.86L2026.39 4176.77Z" fill="#1172BA"/>
<path d="M2112.81 4144.64L2087.04 4156.01L2085.37 4185.97L2107.13 4203.27C2110.91 4202.36 2114.67 4201.53 2118.42 4200.78L2134.65 4193.6L2136.32 4163.33L2112.81 4144.64Z" fill="#1172BA"/>
<path d="M2054.59 4205.35L2054.33 4210.84L2054.3 4211.27L2054.26 4211.26L2053.6 4223.51C2053.65 4223.48 2053.7 4223.46 2053.78 4223.41C2066.09 4216.58 2080.16 4210.83 2095.57 4206.35L2086.81 4199.39L2080.1 4194.05L2054.59 4205.35Z" fill="#1172BA"/>
<path d="M2017.67 4245.17L2041.26 4234.74L2040.49 4231.59L2043.41 4229.62L2044.81 4203.73L2025.7 4188.54L2025.68 4188.55L2021.72 4185.38L1995.53 4196.91L1993.92 4226.3L2017.67 4245.17Z" fill="#2E3690"/>
<path d="M2006.86 4248.89L1989.23 4234.89L1963.05 4246.5L1961.46 4275.92L1985.15 4294.75L2010.69 4283.46L2011.73 4264.89L2012.37 4253.26L2006.86 4248.89Z" fill="#1172BA"/>
<path d="M1952.68 4344.36L1978.23 4333.08L1979.55 4308.83L1979.88 4302.85L1960.79 4287.69L1960.78 4287.73L1956.78 4284.54L1930.58 4296.11L1928.95 4325.53L1952.68 4344.36Z" fill="#1172BA"/>
<path d="M1941.97 4348.13L1924.29 4334.1L1915.05 4338.2C1925.1 4350.34 1935.57 4362.4 1946.23 4374.05L1947.42 4352.47L1941.97 4348.13Z" fill="#1172BA"/>
<path d="M2044.06 4245.2L2022.13 4254.9L2020.45 4285.09L2044.2 4303.96L2044.3 4303.9L2062.56 4295.86C2055.3 4280.04 2049.05 4263 2044.06 4245.2Z" fill="#0081C3"/>
<path d="M2023.9 4348.12L2037.2 4342.22L2038.84 4311.96L2034.83 4308.74L2017.94 4295.36L2015.15 4293.14L1989.62 4304.45L1987.98 4334.64L2011.72 4353.5L2023.9 4348.12Z" fill="#1172BA"/>
<path d="M2015.25 4291.29L2015.15 4291.31L2015.25 4291.29Z" fill="#1172BA"/>
<path d="M1956.25 4384.84L1956.3 4384.88L1956.39 4384.99L1979.25 4403.09L1990.41 4398.19L2004.71 4391.89L2006.38 4361.58L1993.7 4351.51L1993.68 4351.48L1982.74 4342.77L1957.16 4354.07L1957 4357.06L1955.5 4384.04L1956.25 4384.84Z" fill="#0081C3"/>
<path d="M2096.19 4351.38L2096.21 4351.23C2085.33 4337.29 2075.61 4321.92 2067.27 4305.44L2048.66 4313.64L2046.98 4343.95L2070.67 4362.77L2096.2 4351.46L2096.19 4351.38Z" fill="#1172BA"/>
<path d="M2065.38 4370.89L2053.5 4361.48L2041.63 4352.02L2028.95 4357.65L2016.16 4363.31L2014.49 4393.58L2038.18 4412.4L2063.71 4401.16L2065 4377.81L2065.38 4370.89Z" fill="#1172BA"/>
<path d="M2032.87 4420.49L2019.94 4410.22L2009.12 4401.63L1983.65 4412.87L1983.65 4412.92C1986.22 4415.49 1988.82 4418.04 1991.49 4420.6C2003.13 4431.82 2015.4 4442.43 2027.95 4452.15L2031.21 4450.72L2032.87 4420.49Z" fill="#1172BA"/>
<path d="M2408.48 4355.17L2424.48 4348.08L2424.46 4347.94L2424.49 4347.92L2425.47 4330.23C2419.66 4338.25 2413.96 4346.6 2408.48 4355.17Z" fill="#2BAAE2"/>
<path d="M2457.23 4292.85L2457.35 4290.81C2453.75 4294.79 2450.15 4298.88 2446.63 4303.08L2456.94 4298.54L2457.22 4292.82L2457.23 4292.85Z" fill="#2BAAE2"/>
<path d="M2424.97 4417.82L2430.1 4415.2L2430.07 4415.7L2446.09 4408.6C2447.57 4405.42 2449.38 4401.63 2451.42 4397.34L2452.55 4376.62L2428.86 4357.8L2403.33 4369.05L2401.67 4399.27L2424.97 4417.82Z" fill="#2BAAE2"/>
<path d="M2435.85 4320.28L2435.83 4320.48L2434.22 4349.76L2440.92 4355.08L2453.26 4364.88L2453.24 4364.85L2457.82 4368.48L2467.41 4364.22C2474.36 4349.73 2479.88 4337.83 2484.81 4326.94L2461.31 4308.28L2458.57 4309.49L2443.49 4316.15L2435.84 4319.52L2435.85 4320.28Z" fill="#4CC8ED"/>
<path d="M2295.07 4176.03L2290.34 4172.25L2264.89 4183.52L2264.75 4186.19L2264.31 4194.1C2283.73 4194.71 2301.99 4195.24 2313.92 4193.84L2314.1 4191.07L2295.07 4176.03Z" fill="#1172BA"/>
<path d="M2485.86 4315.45L2487.45 4316.74L2488.9 4317.88C2497.71 4297.82 2503.86 4282.06 2507.65 4269.78L2493.85 4258.8L2486.47 4262.06L2486.25 4262.26C2480.07 4267.75 2473.88 4273.62 2467.85 4279.79L2466.75 4300.26L2485.73 4315.33L2485.71 4315.3L2485.86 4315.45Z" fill="#4CC8ED"/>
<path d="M2504.82 4248.14C2503.32 4248.97 2501.64 4250.02 2499.87 4251.27L2510.39 4259.64C2512.59 4250.15 2511.91 4246.68 2511.58 4245.72C2510.89 4245.69 2508.9 4245.88 2504.82 4248.14Z" fill="#4CC8ED"/>
<path d="M2296.17 4155.6L2295.69 4164.17L2319.48 4183.06L2322.44 4181.76L2325.8 4180.27C2322.35 4172.24 2312.19 4163.78 2296.17 4155.6Z" fill="#1172BA"/>
<path d="M2119.72 4109.44L2118.24 4136.59L2137.27 4151.71L2137.26 4151.68L2141.97 4155.43L2167.47 4144.17L2168.93 4117.79C2152.78 4114.67 2136.22 4111.86 2119.72 4109.44Z" fill="#2E3690"/>
<path d="M2203.76 4163.38L2226.44 4153.38L2227.67 4131.09C2212.63 4127.05 2196.15 4123.21 2178.69 4119.68L2177.48 4141.77L2177.25 4145.75L2201 4164.61L2203.76 4163.38Z" fill="#1172BA"/>
<path d="M2144.77 4195.34L2146.16 4196.44C2161.02 4194.67 2176.87 4193.6 2194.52 4193.21L2195.63 4172.7L2177.5 4158.3L2171.93 4153.85L2146.4 4165.13L2144.77 4195.34Z" fill="#1172BA"/>
<path d="M2286.12 4150.82C2272.79 4144.95 2256.45 4139.24 2237.42 4133.8L2236.25 4155.1L2259.94 4173.93L2285.48 4162.68L2286.12 4150.82Z" fill="#2E3690"/>
<path d="M2249.38 4177.84L2230.89 4163.15L2229.69 4163.66L2205.4 4174.36L2204.39 4193.03C2222.06 4192.86 2239.16 4193.31 2253.97 4193.77L2254.49 4184.3L2254.62 4181.98L2249.38 4177.84Z" fill="#1172BA"/>
<path d="M1712.97 4533.25C1714.65 4539.06 1717.43 4542.55 1721.43 4543.87C1722.38 4544.18 1723.57 4543.94 1724.96 4543.17C1728.34 4541.29 1732.6 4536.49 1737.66 4528.87C1738.09 4528.25 1738.51 4527.6 1738.93 4526.95L1734.84 4523.62L1712.97 4533.25Z" fill="#2E3690"/>
<path d="M1730.82 4505.77L1732.01 4483.77L1717.44 4472.19C1712.66 4493.25 1710.6 4510.1 1711.29 4522.36L1730.37 4513.91L1730.78 4506.48L1730.82 4505.77Z" fill="#2E3690"/>
<path d="M1744 4518.57C1750.15 4507.99 1756.87 4495.04 1764.6 4480.12L1767.61 4474.29L1767.3 4474.04L1741.78 4485.31L1741.48 4491.16L1741.46 4491.13L1741.39 4492.58L1740.16 4515.48L1744 4518.57Z" fill="#135EAB"/>
<path d="M1792.62 4427.67L1774.23 4435.78L1773.21 4454.57L1772.67 4464.55C1778.44 4453.46 1785.18 4440.79 1792.62 4427.67Z" fill="#2E3690"/>
<path d="M1823.48 4378.75L1806.73 4386.18L1805.66 4405.72C1811.66 4395.98 1817.53 4387.08 1823.48 4378.75Z" fill="#1172BA"/>
<path d="M1839.22 4336.59L1837.94 4359.71C1847.77 4347.62 1857.84 4337.04 1867.93 4328.16L1866.95 4327.06L1864.74 4325.32L1839.22 4336.59Z" fill="#1172BA"/>
<path d="M1732.71 4471.94L1733.21 4472.31L1737.32 4475.63L1762.81 4464.37L1764.49 4434.18L1740.74 4415.31L1732.41 4418.98C1727.39 4434.46 1723.19 4448.84 1719.91 4461.79L1732.47 4471.77L1732.46 4471.74L1732.71 4471.94Z" fill="#135EAB"/>
<path d="M1746.1 4407.26L1766.96 4423.85L1769.79 4426.09L1795.34 4414.8L1796.75 4388.82L1796.97 4384.59L1773.22 4365.72L1747.76 4377.04L1746.45 4401.01L1746.47 4401L1746.1 4407.26Z" fill="#2E3690"/>
<path d="M1778.58 4357.68L1787.7 4364.92L1802.23 4376.49L1827.8 4365.18L1829.45 4335L1805.7 4316.13L1780.23 4327.38L1778.58 4357.68Z" fill="#2E3690"/>
<path d="M1812.68 4277.85L1811.07 4308.09L1831.79 4324.56L1834.76 4326.91L1860.21 4315.64L1861.81 4285.75L1861.76 4285.7L1861.77 4285.31L1838.16 4266.56L1812.68 4277.85Z" fill="#2E3690"/>
<path d="M1770.47 4325.67L1767.93 4323.65C1762.39 4337.09 1757.11 4350.39 1752.21 4363.28L1756.85 4361.24L1768.83 4355.93L1770.47 4325.67Z" fill="#2E3690"/>
<path d="M1802.63 4281.83L1802.82 4278.41L1802.97 4276.11L1792.27 4267.61C1788.92 4274.84 1781.54 4291.1 1771.77 4314.39L1775.82 4317.6L1778.75 4316.31L1801.3 4306.38L1802.63 4281.83Z" fill="#2E3690"/>
<path d="M1897.1 4275.65L1871.68 4286.86L1871.64 4290.2L1871.62 4293.07L1871.33 4292.85L1870 4317.17L1875.67 4321.65C1880.07 4318.14 1884.47 4314.94 1888.78 4312.12L1892.33 4309.81L1895.27 4313.59C1898.96 4318.36 1903 4323.44 1907.59 4329.08L1919.25 4323.94L1920.41 4303.21L1920.72 4297.75L1920.75 4297.27L1920.9 4294.79L1920.9 4294.56L1897.1 4275.65Z" fill="#1172BA"/>
<path d="M1907.85 4271.88L1925.51 4285.93L1951.72 4274.32L1953.33 4244.92L1929.64 4226.1L1904.05 4237.37L1902.41 4267.55L1907.85 4271.88Z" fill="#2E3690"/>
<path d="M1984.35 4221.6L1985.81 4195.33L1962.06 4176.46L1936.51 4187.75L1934.88 4217.96L1935.61 4218.55L1957.96 4236.29L1984.2 4224.73L1984.3 4222.66L1984.35 4221.6Z" fill="#1172BA"/>
<path d="M1972.75 4172.66L1990.5 4186.74L2016.3 4175.31L2015.92 4168.36L2016.97 4169.22L2018.26 4145.76L2016.03 4143.99L1999.23 4130.64L1999.25 4130.67L1994.53 4126.92L1969.04 4138.18L1967.36 4168.38L1972.75 4172.66Z" fill="#2E3690"/>
<path d="M1862.54 4273.56L1863.45 4274.28L1867.11 4277.24L1892.64 4265.96L1893.64 4247.57L1894.31 4235.77L1870.56 4216.9L1865.46 4219.27L1865.47 4219.16L1863.24 4220.13L1845.09 4228.14L1843.41 4258.39L1862.53 4273.61L1862.54 4273.56Z" fill="#2E3690"/>
<path d="M1925.12 4216.38L1926.45 4192.2L1926.4 4192.23L1926.73 4186.14L1903.04 4167.31L1897.09 4169.97L1877.57 4178.6L1875.9 4208.87L1899.59 4227.69L1925.12 4216.38Z" fill="#2E3690"/>
<path d="M1957.6 4166.79L1959.27 4136.59L1935.53 4117.73L1928.72 4120.74L1928.71 4120.71L1910.06 4128.97L1908.36 4159.25L1920.32 4168.74L1932.04 4178.05L1957.6 4166.79Z" fill="#135EAB"/>
<path d="M1967.98 4068.15L1942.5 4079.43L1940.89 4109.68L1964.58 4128.5L1990.08 4117.2L1990.39 4111.31L1990.41 4111.34L1991.73 4087.01L1967.98 4068.15Z" fill="#2E3690"/>
<path d="M1833.68 4256.67L1835.32 4226.41L1820.21 4214.41C1812.56 4227.81 1804.71 4242.45 1796.9 4257.88C1796.78 4258.1 1796.66 4258.36 1796.51 4258.63L1808.21 4267.91L1833.68 4256.67Z" fill="#2E3690"/>
<path d="M1848.81 4161.79L1844.25 4158.19L1818.61 4169.49L1817.26 4194.13C1819.04 4197.45 1820.85 4200.79 1822.71 4204.14L1840.65 4218.38L1862.53 4208.75L1866.14 4207.16L1867.81 4176.85L1848.81 4161.79Z" fill="#2E3690"/>
<path d="M1889.47 4161.55L1898.61 4157.5L1900.28 4127.23L1876.72 4108.53L1851.11 4119.89L1849.46 4150L1852.23 4152.19L1873.13 4168.79L1889.47 4161.55Z" fill="#2E3690"/>
<path d="M1931.1 4107.99L1932.76 4077.72L1931.57 4076.78L1913.83 4062.65L1913.82 4062.7L1909.18 4059.02L1883.59 4070.3L1881.92 4100.38L1891.76 4108.18L1905.61 4119.2L1910.71 4116.94L1931.1 4107.99Z" fill="#2E3690"/>
<path d="M1775.91 4103.9C1777.82 4108.9 1779.8 4113.94 1781.86 4118.93L1782.05 4115.2L1782.03 4115.22L1782.38 4109.04L1775.91 4103.9Z" fill="#2E3690"/>
<path d="M1786.18 4099.76L1787.63 4100.91L1792.78 4098.27L1792.75 4098.71L1804.52 4093.51L1807.89 4092.02L1813.15 4089.71L1814.82 4059.44L1791.09 4040.6L1785.21 4043.21L1765.59 4051.9L1764.47 4072.03C1766.06 4076.79 1767.7 4081.63 1769.43 4086.5L1786.18 4099.76Z" fill="#2E3690"/>
<path d="M1820.29 4051.29L1845.69 4040.05L1847.02 4016.1L1846.99 4016.12L1846.97 4016.13L1847.34 4009.86L1823.64 3991.01L1798.1 4002.26L1796.46 4032.51L1820.16 4051.36L1820.29 4051.29Z" fill="#2E3690"/>
<path d="M1786.7 4030.88L1788.36 4000.65L1764.63 3981.82L1742.67 3991.53C1745.83 4006.47 1749.5 4021.47 1753.55 4036.14L1761.17 4042.2L1786.7 4030.88Z" fill="#282560"/>
<path d="M1782.21 3983.49L1793.66 3992.56L1819.2 3981.32L1820.83 3951.11L1797.08 3932.24L1771.61 3943.53L1769.93 3973.73L1782.21 3983.49Z" fill="#2E3690"/>
<path d="M1800.59 4161.31C1803.1 4166.55 1805.69 4171.82 1808.33 4177.02L1808.85 4167.85L1800.59 4161.31Z" fill="#2E3690"/>
<path d="M1839.66 4148.35L1841.32 4118.24L1817.64 4099.45L1792.14 4110.75L1790.53 4139.42L1791.62 4141.87L1809.5 4156.06L1809.48 4156.03L1809.67 4156.2L1814.08 4159.69L1839.66 4148.35Z" fill="#2E3690"/>
<path d="M1841.9 4106.4L1846.53 4110.05L1872.14 4098.76L1873.8 4068.65L1850.11 4049.83L1824.61 4061.09L1822.95 4091.36L1841.9 4106.4Z" fill="#135EAB"/>
<path d="M1904.99 4043.25L1905 4043.28L1906.31 4019.12L1882.58 4000.28L1857.09 4011.54L1855.74 4035.57L1855.78 4035.59L1855.43 4041.77L1859.05 4044.64L1874.46 4056.89L1874.45 4056.86L1879.04 4060.52L1904.68 4049.14L1904.86 4045.88L1904.99 4043.25Z" fill="#2E3690"/>
<path d="M1761.84 3941.94L1738.09 3923.07L1731.8 3925.84C1734.01 3944.24 1736.93 3962.7 1740.5 3980.81L1760.19 3972.12L1761.84 3941.94Z" fill="#282560"/>
<path d="M1727.46 3876.8C1728.21 3889.76 1729.21 3902.2 1730.53 3914.69L1733.72 3913.31L1735.35 3883.09L1727.46 3876.8Z" fill="#282560"/>
<path d="M2082.73 4146.06L2108.45 4134.67L2109.9 4108.07C2091.2 4105.53 2074.2 4103.69 2060.52 4102.78L2059.17 4127.35L2082.73 4146.06Z" fill="#2E3690"/>
<path d="M2050.71 4101.9C2039.65 4099.85 2029.14 4092.54 2019.41 4080.18L2001.8 4087.94L2000.13 4118.21L2023.64 4136.9L2049.41 4125.53L2050.71 4101.9Z" fill="#2E3690"/>
<path d="M2013.11 4071.26C2006.09 4060.33 2000.98 4048.68 1997.85 4040.67C1996.64 4037.22 1995.45 4033.92 1994.26 4030.62L1994.03 4030.02C1993.11 4027.45 1992.14 4024.86 1991.15 4022.28L1975.37 4029.25L1973.71 4059.36L1997.4 4078.19L2013.11 4071.26Z" fill="#2E3690"/>
<path d="M1911.97 4010.34L1929.42 4002.59L1937.5 3999.02L1938.82 3975L1938.8 3975.02L1938.77 3975.03L1939.15 3968.84L1939.16 3968.79L1915.44 3949.99L1889.91 3961.23L1888.25 3991.46L1905.9 4005.48L1911.97 4010.34Z" fill="#2E3690"/>
<path d="M1944.48 3960.73L1961.57 3953.19C1953.64 3936.9 1945.16 3920.91 1936.25 3905.58L1922.37 3911.73L1920.72 3941.91L1944.48 3960.73Z" fill="#2E3690"/>
<path d="M1830.91 3952.18L1829.26 3982.29L1852.99 4001.13L1878.49 3989.82L1880.17 3959.63L1856.37 3940.79L1830.91 3952.18Z" fill="#2E3690"/>
<path d="M1867.05 3936.92L1885.47 3951.54L1910.96 3940.28L1912.65 3910.11L1891.59 3893.41L1890.61 3892.66L1890.62 3892.62L1888.88 3891.26L1863.41 3902.5L1862.41 3920.28L1861.72 3932.67L1867.05 3936.92Z" fill="#272361"/>
<path d="M1914.19 3909.71L1914.2 3909.6L1914.19 3909.71Z" fill="#282560"/>
<path d="M1885.32 3953.33L1885.38 3953.38L1885.32 3953.33Z" fill="#2E3690"/>
<path d="M1965.61 4027.62L1941.92 4008.8L1916.38 4020.04L1914.74 4050.3L1938.49 4069.16L1963.94 4057.89L1965.61 4027.62Z" fill="#135EAB"/>
<path d="M1953.93 4006.05L1966.25 4015.83L1966.24 4015.8L1970.83 4019.46L1987.3 4012.19C1980.74 3995.4 1973.67 3978.82 1966.16 3962.87L1965.43 3963.2L1948.87 3970.53L1947.19 4000.72L1953.93 4006.05Z" fill="#2E3690"/>
<path d="M1829.9 3882.05L1811.01 3890.36L1804.42 3893.26L1802.74 3923.58L1826.31 3942.31L1831.57 3939.62L1831.55 3940.13L1851.97 3931.11L1853.65 3900.91L1829.9 3882.05Z" fill="#282560"/>
<path d="M1854.72 3889.46L1858.95 3892.82L1884.46 3881.52L1886.1 3851.38L1862.33 3832.49L1836.88 3843.76L1835.58 3867.81L1835.63 3867.78L1835.64 3867.81L1835.59 3868.14L1835.25 3873.97L1854.72 3889.46Z" fill="#282560"/>
<path d="M1745.42 3884.02L1743.77 3914.24L1767.51 3933.11L1792.99 3921.82L1794.66 3891.55L1770.94 3872.75L1745.42 3884.02Z" fill="#282560"/>
<path d="M1776.25 3864.66L1799.99 3883.52L1812.64 3877.95L1816.85 3876.11L1825.46 3872.28L1827.13 3842.31L1827.09 3842.3L1827.12 3842.05L1808.13 3826.95L1808.1 3826.96L1807.14 3826.2L1803.37 3823.19L1777.92 3834.46L1776.25 3864.66Z" fill="#2E3690"/>
<path d="M1913.3 3898.32L1915.35 3899.93L1916.21 3900.63L1916.71 3901.04L1917.93 3902.04L1930.78 3896.35C1921.38 3880.69 1911.33 3865.38 1900.9 3850.79L1895.85 3853.02L1895.55 3858.86L1895.53 3858.83L1894.21 3883.16L1913.3 3898.32Z" fill="#282560"/>
<path d="M1894.49 3841.92C1886.16 3830.69 1877.47 3819.73 1868.53 3809.22L1867.68 3824.41L1886.78 3839.6L1886.79 3839.56L1887.12 3839.83L1891.4 3843.29L1894.49 3841.92Z" fill="#282560"/>
<path d="M1858.06 3820.3L1858.23 3817L1858.27 3817.02L1859.26 3798.56C1851.65 3790.02 1843.76 3781.63 1835.83 3773.68L1810.35 3784.9L1808.71 3815.11L1832.5 3833.99L1847.61 3827.32L1857.93 3822.73L1858.06 3820.3Z" fill="#282560"/>
<path d="M1773.63 3724.42L1766.8 3718.99C1763.04 3717.57 1759.35 3716.53 1755.8 3715.91C1753.87 3717.78 1750.43 3721.44 1746.51 3727.35C1741.14 3735.44 1736.71 3744.91 1733.3 3755.5L1746.48 3765.98L1764.4 3758.05L1771.96 3754.69L1773.63 3724.42Z" fill="#282560"/>
<path d="M1725.51 3810.51L1739.46 3804.37L1741.14 3774.05L1730.46 3765.58C1727.16 3779.22 1725.51 3794.32 1725.51 3810.51Z" fill="#282560"/>
<path d="M1827.49 3765.47C1817.48 3755.83 1807.11 3746.53 1796.66 3737.81L1796.4 3737.58C1796.31 3737.47 1791.24 3732.67 1783.31 3727.5L1781.7 3756.41L1805.38 3775.23L1814.82 3771.06L1827.49 3765.47Z" fill="#282560"/>
<path d="M1789.07 3774.57L1776.39 3764.5L1760.05 3771.74L1750.91 3775.79L1749.24 3806.06L1772.96 3824.86L1798.48 3813.59L1799.7 3791.15L1800.13 3783.36L1789.07 3774.57Z" fill="#282560"/>
<path d="M1767.66 3832.95L1751.46 3820.07L1743.92 3814.09L1725.73 3822.09L1725.85 3828.08C1726.03 3837.78 1726.24 3849.78 1726.83 3863.55L1740.54 3874.42L1766.01 3863.14L1767.66 3832.95Z" fill="#282560"/>
</g>
<path fill-rule="evenodd" clip-rule="evenodd" d="M2585.93 4370.68C2585.93 4370.68 2547.41 4533.42 2528.52 4723.2C2509.62 4912.97 2532.01 5061.28 2532.01 5061.28L2901.13 5062.84C2901.13 5062.84 2912.08 5049.28 2922.88 5011.89C2933.67 4974.5 2944.32 4913.26 2944.32 4913.26C2944.32 4913.26 2944.27 4972.07 2947.53 5009.75C2950.79 5047.42 2957.38 5063.95 2957.38 5063.95L3301.75 5064.04C3301.75 5064.04 3295.44 4871.06 3277.04 4705.63C3258.63 4540.21 3228.13 4402.36 3228.13 4402.36L2585.93 4370.68Z" fill="#135EAB"/>
<path fill-rule="evenodd" clip-rule="evenodd" d="M4380.53 3536.87C4380.53 3536.87 4331.89 3629.35 4363.35 3664.56C4394.8 3699.78 4477.13 3666.01 4477.13 3666.01C4477.13 3666.01 4721.32 3538.47 4702.75 3519.79C4684.19 3501.12 4627.22 3561.81 4615.14 3549.32C4603.05 3536.84 4721.87 3470.69 4702.19 3452.52C4682.51 3434.36 4605.69 3525.2 4597.15 3515.36C4588.61 3505.51 4688.34 3430.62 4668.03 3413.15C4647.72 3395.69 4565.45 3497.92 4553.73 3488.53C4542.01 3479.14 4640.88 3389.05 4621.12 3375.59C4601.38 3362.12 4532.48 3469.88 4498.55 3472.97C4464.62 3476.07 4514.27 3377.61 4485.41 3387.94C4456.56 3398.27 4380.53 3536.87 4380.53 3536.87Z" fill="#FDBC8C"/>
<path fill-rule="evenodd" clip-rule="evenodd" d="M4432.73 4335.7C4432.73 4335.7 4336.23 4375.74 4337.92 4422.94C4339.61 4470.12 4424.5 4496.77 4424.5 4496.77C4424.5 4496.77 4693.82 4554.74 4691.48 4528.51C4689.14 4502.28 4606.54 4512.55 4605.22 4495.23C4603.91 4477.89 4737.57 4502.96 4734.04 4476.4C4730.51 4449.86 4613.37 4470.63 4613.09 4457.6C4612.82 4444.57 4737.39 4450.71 4732.92 4424.3C4728.46 4397.88 4599.85 4423.94 4596.84 4409.22C4593.82 4394.5 4727.44 4388.4 4720.86 4365.42C4714.27 4342.44 4592.41 4381.29 4564.34 4361.98C4536.27 4342.68 4637.37 4298.69 4608.57 4288.19C4579.78 4277.69 4432.73 4335.7 4432.73 4335.7Z" fill="#FDBC8C"/>
<path fill-rule="evenodd" clip-rule="evenodd" d="M3027.21 2891.46C3027.21 2891.46 3034.03 3005.09 3021.51 3094.06C3008.98 3183.02 2977.13 3247.31 2977.13 3247.31C2977.13 3247.31 2961.54 3376.18 3038.68 3421.93C3115.83 3467.69 3285.71 3430.33 3285.71 3430.33C3285.71 3430.33 3246.87 3273.01 3257.58 3151.22C3268.29 3029.43 3328.56 2943.18 3328.56 2943.18L3027.21 2891.46Z" fill="#FDBC8C"/>
<path fill-rule="evenodd" clip-rule="evenodd" d="M3027.21 2891.46C3027.21 2891.46 3034.03 3005.09 3021.51 3094.06C3008.98 3183.02 2977.13 3247.31 2977.13 3247.31C2977.13 3247.31 3067.84 3177.38 3137.09 3161.88C3206.33 3146.38 3262.63 3117.48 3262.63 3117.48C3262.63 3117.48 3267.81 3080.23 3273.8 3056.06C3299.11 2953.9 3328.56 2943.18 3328.56 2943.18L3027.21 2891.46Z" fill="#DFA58B"/>
<path fill-rule="evenodd" clip-rule="evenodd" d="M2995.55 3213.77C2995.55 3213.77 3050.79 3299.81 3122.83 3320.66C3208.31 3345.4 3262.84 3292.08 3262.84 3292.08C3262.84 3292.08 3344.3 3356.36 3423.28 3469.47C3516.25 3602.62 3456.78 3578.73 3597.49 3650.67C3817.64 3763.23 3859.69 3723.58 4040.44 3667.39C4221.19 3611.2 4357.33 3560.58 4357.33 3560.58C4357.33 3560.58 4347.15 3611.21 4377.54 3648.02C4407.92 3684.84 4464.4 3687.98 4464.4 3687.98C4464.4 3687.98 4242.16 3830.18 4134.68 3879.17C4038.76 3922.91 3843.87 4033.64 3678.29 4031.57C3512.7 4029.49 3446.72 3992.7 3446.72 3992.7C3446.72 3992.7 3385.92 4578.14 3278.8 4725.02C3171.7 4871.89 3014 4841.95 2881.16 4827.88C2784.34 4817.62 2593.47 4816.41 2512.53 4659.55C2470.35 4577.83 2474.54 4421.48 2516.17 4133C2557.81 3844.52 2572.93 3667.49 2622.09 3556.35C2759.48 3245.72 2995.55 3213.77 2995.55 3213.77Z" fill="#2E3690"/>
<path fill-rule="evenodd" clip-rule="evenodd" d="M3076.69 3618.25C3012.11 3470.97 2911.7 3387.13 2803.65 3420.12C2718.8 3446.02 2606.19 3617.47 2770.16 3832.38C2927.21 4038.2 3208.25 4384.55 3406.18 4434.33C3550.07 4470.52 4360.33 4488.44 4360.33 4488.44C4360.33 4488.44 4328.23 4462.45 4334.4 4418.58C4340.58 4374.72 4383.94 4333.68 4383.94 4333.68C4383.94 4333.68 3913.69 4282.62 3786.29 4261.41C3669.78 4242.01 3488.3 4163.07 3341.01 3963.31C3196.81 3767.76 3151.92 3789.79 3076.69 3618.25Z" fill="#135EAB"/>
<path fill-rule="evenodd" clip-rule="evenodd" d="M3095.39 3610.53C3030.81 3463.24 2930.41 3379.4 2822.35 3412.39C2737.5 3438.29 2624.89 3609.75 2788.87 3824.66C2945.91 4030.48 3226.97 4379.29 3417.88 4451.45C3554.31 4503.02 4403.52 4513.14 4403.52 4513.14C4403.52 4513.14 4346.94 4454.72 4353.11 4410.86C4359.28 4366.99 4402.65 4325.95 4402.65 4325.95C4402.65 4325.95 3932.4 4274.89 3804.99 4253.68C3688.48 4234.29 3507.01 4155.35 3359.71 3955.59C3215.51 3760.03 3170.62 3782.06 3095.39 3610.53Z" fill="#2E3690"/>
<path fill-rule="evenodd" clip-rule="evenodd" d="M2946.09 2513.14C2881.46 2582.07 2934.12 2702.97 2933.73 2790.19C2933.58 2823.3 2885.89 2725.76 2867.47 2783.84C2857.64 2814.86 2893.15 2929.16 2930.68 2902.57C2968.2 2875.97 2991.51 2971.03 3016.19 2995.55C3076.74 3055.72 3142.09 3106.72 3242.64 3114.83C3427.29 3129.72 3442.87 2912.86 3449.76 2754.92C3453.54 2668.31 3441.02 2598.56 3402.57 2546.62C3370.9 2503.83 3320.3 2474.22 3258.43 2447.76C3121.43 2389.17 3035.26 2418.05 2946.09 2513.14Z" fill="#FDBC8C"/>
<path fill-rule="evenodd" clip-rule="evenodd" d="M2942.31 2869.25C2973.45 2924.09 2896.84 2734.25 2974.83 2703.59C3052.82 2672.93 3079.67 2735.75 3116.95 2640.37C3154.23 2544.98 3067.87 2465.63 3067.87 2465.63C3067.87 2465.63 3233.81 2552.41 3356.5 2551.69C3379.17 2551.57 3382.1 2551.07 3402.33 2546.09C3405.12 2545.41 3432.72 2593.08 3441.68 2636.27C3452.76 2689.71 3448.58 2737.53 3451.39 2732.12C3454.64 2725.84 3457.66 2666.78 3447.84 2612.55C3440.28 2570.84 3415.22 2539.96 3420.34 2539.97C3481.97 2540.01 3590.89 2456.3 3566.76 2401.72C3542.62 2347.14 3433.06 2263.5 3327.63 2319.24C3208.88 2382.02 3167.72 2266.76 3051.49 2281.63C2935.26 2296.5 2903.7 2357.67 2850.26 2484.21C2816.82 2563.37 2866.59 2675.2 2903.04 2759.41C2924.85 2809.81 2930.64 2848.7 2942.31 2869.25Z" fill="#272361"/>
<path fill-rule="evenodd" clip-rule="evenodd" d="M3177.47 2774.25C3176.87 2760.67 3186.09 2749.94 3198.09 2750.27C3210.09 2750.61 3220.31 2761.88 3220.92 2775.47C3221.54 2789.04 3212.3 2799.77 3200.3 2799.44C3188.3 2799.1 3178.08 2787.82 3177.47 2774.25Z" fill="#272361"/>
<path fill-rule="evenodd" clip-rule="evenodd" d="M3363.32 2780.08C3362.57 2766.48 3372.27 2755.81 3385.01 2756.25C3397.74 2756.69 3408.69 2768.07 3409.46 2781.66C3410.22 2795.26 3400.51 2805.93 3387.78 2805.49C3375.04 2805.05 3364.09 2793.68 3363.32 2780.08Z" fill="#272361"/>
<path fill-rule="evenodd" clip-rule="evenodd" d="M3194.29 2948.76C3192.33 2933.23 3244.68 2956.38 3286.79 2956.64C3328.9 2956.89 3349.29 2950.5 3351.24 2966.03C3353.2 2981.57 3329.59 3011.59 3287.47 3011.34C3245.36 3011.07 3196.24 2964.3 3194.29 2948.76Z" fill="#E0E0E0"/>
<path fill-rule="evenodd" clip-rule="evenodd" d="M3365.92 2677.21L3407 2683.78C3414.48 2684.97 3419.86 2690.38 3419.01 2695.86C3418.15 2701.35 3411.41 2704.83 3403.92 2703.63L3362.86 2697.07C3355.37 2695.87 3350 2690.46 3350.85 2684.98C3351.69 2679.5 3358.45 2676.02 3365.92 2677.21Z" fill="#272361"/>
<path fill-rule="evenodd" clip-rule="evenodd" d="M3174.55 2662.67L3216.14 2662.87C3223.71 2662.9 3229.85 2667.43 3229.85 2672.98C3229.85 2678.52 3223.72 2682.99 3216.14 2682.95L3174.55 2682.76C3166.97 2682.72 3160.84 2678.2 3160.84 2672.65C3160.83 2667.11 3166.97 2662.63 3174.55 2662.67Z" fill="#272361"/>
<path fill-rule="evenodd" clip-rule="evenodd" d="M3116.67 2763.11C3122.71 2720.24 3163.25 2690.52 3207.22 2696.71C3251.18 2702.89 3281.93 2742.66 3275.9 2785.52C3269.87 2828.39 3229.34 2858.11 3185.37 2851.92C3141.4 2845.73 3110.64 2805.97 3116.67 2763.11Z" stroke="#828282" stroke-width="8.77" stroke-linecap="round" stroke-linejoin="round"/>
<path fill-rule="evenodd" clip-rule="evenodd" d="M3324.19 2773.4C3330.11 2731.3 3369.56 2702.04 3412.29 2708.06C3455.02 2714.08 3484.86 2753.08 3478.93 2795.19C3473 2837.3 3433.56 2866.55 3390.83 2860.54C3348.09 2854.52 3318.26 2815.51 3324.19 2773.4Z" stroke="#828282" stroke-width="8.77" stroke-linecap="round" stroke-linejoin="round"/>
<path d="M3280.55 2766.33C3280.55 2766.33 3290.47 2762.22 3299.91 2762.55C3309.36 2762.88 3318.31 2767.65 3318.31 2767.65" stroke="#828282" stroke-width="8.77" stroke-linecap="round" stroke-linejoin="round"/>
<path d="M3478.75 2776.76L3448.18 2774.04" stroke="#828282" stroke-width="7.95" stroke-linejoin="round"/>
<path d="M3108.19 2769.17L2913.21 2771.34" stroke="#828282" stroke-width="8.86" stroke-linecap="round" stroke-linejoin="round"/>
<path fill-rule="evenodd" clip-rule="evenodd" d="M3487.24 3576.95C3487.24 3576.95 3496.12 3657.1 3485.73 3756.71C3475.34 3856.31 3448.15 3990.4 3448.15 3990.4C3448.15 3990.4 3483.05 3878.09 3493.43 3778.49C3503.82 3678.88 3487.24 3576.95 3487.24 3576.95Z" fill="#135EAB"/>
<g opacity="0.4">
<path d="M6792.13 3740.18C6787.75 3739.8 6784.29 3740.04 6782.04 3740.94C6780.3 3741.64 6779.38 3742.64 6779.23 3744.02C6779.03 3745.88 6780.05 3750.23 6788.74 3758.74L6792.13 3740.18Z" fill="#2BAAE2"/>
<path d="M6829.51 3785.88L6844.39 3781.43L6847.73 3763.28C6830.43 3754.45 6814 3748.08 6801.1 3745.2L6797.93 3762.57C6802.95 3766.78 6809.02 3771.32 6815.97 3776.11C6820.6 3779.35 6825.15 3782.61 6829.51 3785.88Z" fill="#4CC8ED"/>
<path d="M6901.32 3798.42L6901.55 3797.26C6887.06 3786.31 6872.04 3776.53 6856.92 3768.18L6853.84 3784.91L6874.81 3806.42L6901.32 3798.42Z" fill="#2BAAE2"/>
<path d="M6857.18 3802.02L6847.62 3792.19L6840.38 3794.33C6851.27 3803.24 6860.35 3811.91 6867.4 3820.25L6868.59 3813.7L6857.18 3802.02Z" fill="#2BAAE2"/>
<path d="M6931.88 3822.71C6930.92 3821.82 6929.93 3820.9 6928.94 3820.01L6931.65 3822.77L6931.88 3822.71Z" fill="#2BAAE2"/>
<path d="M6904.57 3808.68L6899.08 3810.62L6899.15 3810.17L6877.95 3816.47L6875.33 3830.74C6882.27 3841.08 6886.09 3850.96 6887.05 3860.85L6893.56 3867.45L6898.79 3865.79L6898.77 3865.91L6907.64 3863.29L6919.96 3859.65L6924.28 3836.17L6924.25 3836.18L6924.38 3835.56L6925.41 3830.1L6915.7 3820.15L6904.57 3808.68Z" fill="#4CC8ED"/>
<path d="M6886.59 3874.05C6884.51 3886.25 6878.21 3896.2 6872.63 3905.07C6872.24 3905.69 6871.83 3906.32 6871.45 3906.93L6881.88 3903.79L6882.76 3898.5L6882.86 3898.6L6886.15 3880.58L6886.12 3880.6L6887.22 3874.68L6886.59 3874.05Z" fill="#2BAAE2"/>
<path d="M7014.87 3831.21L7014.99 3830.49C7004.44 3831.43 6994.04 3832.85 6984.02 3834.79L6988.23 3839.12L7014.87 3831.21Z" fill="#2BAAE2"/>
<path d="M6930.49 3856.44L6929.89 3859.59L6929.35 3862.5L6946.12 3879.72L6946.11 3879.69L6950.17 3883.86L6976.73 3875.92L6982.12 3846.54L6979.74 3844.11L6972.96 3837.16C6961.86 3839.74 6955.29 3842.05 6955.02 3842.16L6952.24 3843.16L6950 3840.78C6947.02 3837.6 6943.98 3834.48 6940.7 3831.24L6936.56 3832.47L6934.74 3833.02L6930.43 3856.46L6930.49 3856.44Z" fill="#2BAAE2"/>
<path d="M6896.64 3877.6L6891.21 3907.13L6908.01 3924.34L6907.99 3924.31L6912.01 3928.46L6934.96 3921.64C6936.65 3919.01 6938.25 3916.49 6939.79 3914.1L6944 3891.23L6943.32 3890.54L6923.03 3869.79L6917.88 3871.42L6917.9 3871.31L6896.64 3877.6Z" fill="#2BAAE2"/>
<path d="M7128.39 3864.02L7132.48 3841.62C7116.82 3837.11 7100.66 3833.79 7084.45 3831.78L7081.01 3850.53L7101.88 3871.94L7128.39 3864.02Z" fill="#2BAAE2"/>
<path d="M7228.67 3806.22L7224.72 3802.15C7224.35 3810.93 7223.44 3823.55 7219.23 3836.97L7223.38 3835.7L7227.69 3812.19L7227.58 3812.23L7227.95 3809.45L7228.67 3806.22Z" fill="#1172BA"/>
<path d="M7154.62 3884.1L7158.72 3888.3L7185.21 3880.41L7188.31 3863.57C7173.27 3855.97 7157.65 3849.52 7141.86 3844.45L7137.76 3866.81L7154.62 3884.1Z" fill="#1172BA"/>
<path d="M7232.76 3838.6L7247.11 3853.3C7245.64 3839.07 7242.27 3826.23 7237.04 3815.03L7233.81 3832.63L7233.86 3832.61L7232.76 3838.6Z" fill="#2BAAE2"/>
<path d="M7247.44 3867.31L7235.23 3854.81L7226.63 3845.98L7221.14 3847.93L7221.24 3847.46L7214.29 3849.53C7211.17 3856 7207.34 3862.01 7202.84 3867.4L7200.59 3870.11L7197.36 3868.34L7194.62 3883.23L7215.59 3904.74L7238.56 3897.91L7242.03 3896.88L7247.44 3867.31Z" fill="#1172BA"/>
<path d="M7156.54 3927.94L7177.45 3949.37L7203.9 3941.47L7209.28 3911.95L7190.87 3893.08L7188.36 3890.49L7188.22 3890.55L7162.07 3898.33L7161.3 3904.61L7160.88 3904.17L7156.54 3927.94Z" fill="#1172BA"/>
<path d="M7234.22 3965.86L7260.68 3957.99L7266.1 3928.53L7264.72 3927.12L7245.14 3907.05L7239.93 3908.81L7239.87 3908.83L7239.92 3908.56L7218.68 3914.85L7213.87 3941.11L7213.79 3941.54L7213.25 3944.38L7234.22 3965.86Z" fill="#2BAAE2"/>
<path d="M7044.1 3888.85L7042.93 3895.14L7048.33 3900.7C7058.26 3904.27 7067.99 3908.27 7077.33 3912.64L7090.37 3908.78L7095.79 3879.32L7074.82 3857.81L7048.37 3865.71L7048.19 3866.74L7044.1 3888.85Z" fill="#2BAAE2"/>
<path d="M7105.12 3882.09L7099.74 3911.58L7120.7 3933.06L7147.11 3925.21L7152.5 3895.65L7131.61 3874.21L7105.12 3882.09Z" fill="#2BAAE2"/>
<path d="M7084.16 3921.64C7085.86 3931.41 7083.4 3940.46 7077 3947.85C7076.63 3948.28 7076.24 3948.72 7075.84 3949.13C7089.53 3950.52 7101.6 3946.12 7110.89 3936.66L7093.54 3918.85L7084.16 3921.64Z" fill="#1172BA"/>
<path d="M7066.43 3849.18L7068.8 3848.41L7071.58 3847.65L7075.27 3827.41C7068.48 3819 7056.14 3808.22 7035.16 3803.09L7032.35 3803.93C7036.89 3808.37 7042.65 3814.43 7047.67 3820.92L7054.13 3829.28L7044.52 3829.28C7038.13 3829.28 7031.59 3829.47 7025.06 3829.84L7024.29 3834.13L7045.21 3855.59L7066.47 3849.3L7066.43 3849.18Z" fill="#2BAAE2"/>
<path d="M7035.52 3859.25L7022.18 3845.57L7022.19 3845.6L7018.14 3841.46L6991.58 3849.4L6986.19 3878.79L6986.24 3878.84L6992.96 3885.71C7004.56 3887.87 7016.27 3890.69 7027.79 3894.05L7033.6 3892.29L7039.03 3862.83L7035.52 3859.25Z" fill="#2BAAE2"/>
<path d="M6914.23 3944.18L6912.45 3953.99C6916.97 3947.96 6921.38 3941.82 6925.67 3935.6L6915.25 3938.69L6914.8 3941.18L6914.23 3944.18Z" fill="#2BAAE2"/>
<path d="M7154.6 3939.63L7154.39 3939.43L7153.09 3938.06L7152.51 3937.48L7150.36 3935.25L7127.47 3942.05C7142.09 3952.7 7155.51 3964.61 7167.46 3977.57L7171.31 3956.7L7154.6 3939.63Z" fill="#1172BA"/>
<path d="M7186.12 4000.33L7196.18 4010.6L7222.68 4002.75L7228.07 3973.26L7207.09 3951.75L7180.64 3959.65L7175.65 3986.96C7179.32 3991.35 7182.86 3995.87 7186.12 4000.33Z" fill="#0081C3"/>
<path d="M7246.52 4201.22L7229.81 4184.08L7229.79 4184.19L7225.54 4179.71L7199.08 4187.58L7193.66 4217.04L7214.46 4238.37L7241.17 4230.4L7246.52 4201.22Z" fill="#1172BA"/>
<path d="M7157.58 4221.97L7184.32 4214.02L7189.71 4184.79L7170.49 4165.06C7166.66 4165.49 7162.86 4165.83 7159.09 4166.1L7142.24 4171.12L7136.81 4200.66L7157.58 4221.97Z" fill="#1172BA"/>
<path d="M7222.38 4169.6L7223.33 4164.24L7223.41 4163.82L7223.45 4163.84L7225.64 4151.88C7225.58 4151.9 7225.53 4151.92 7225.45 4151.95C7212.49 4157.13 7197.95 4161.02 7182.24 4163.49L7189.98 4171.42L7195.91 4177.51L7222.38 4169.6Z" fill="#1172BA"/>
<path d="M7263.65 4135.09L7239.16 4142.38L7239.53 4145.58L7236.41 4147.15L7231.79 4172.41L7248.66 4189.74L7248.69 4189.72L7252.18 4193.34L7279.36 4185.29L7284.63 4156.6L7263.65 4135.09Z" fill="#2E3690"/>
<path d="M7274.74 4132.79L7290.31 4148.75L7317.49 4140.63L7322.74 4111.91L7301.82 4090.44L7275.3 4098.34L7271.96 4116.45L7269.88 4127.8L7274.74 4132.79Z" fill="#1172BA"/>
<path d="M7339.93 4045.75L7313.42 4053.64L7309.08 4077.31L7308 4083.14L7324.87 4100.43L7324.88 4100.39L7328.41 4104.02L7355.6 4095.93L7360.89 4067.23L7339.93 4045.75Z" fill="#1172BA"/>
<path d="M7350.92 4043.39L7366.55 4059.39L7376.14 4056.52C7367.78 4043.33 7359 4030.17 7349.99 4017.39L7346.12 4038.45L7350.92 4043.39Z" fill="#1172BA"/>
<path d="M7237.72 4131.76L7260.49 4124.97L7265.92 4095.51L7244.95 4074L7244.84 4074.04L7225.88 4079.66C7231.04 4096.11 7235.05 4113.63 7237.72 4131.76Z" fill="#0081C3"/>
<path d="M7270.42 4033.14L7256.61 4037.28L7251.21 4066.8L7254.75 4070.47L7269.67 4085.73L7272.13 4088.26L7298.63 4080.34L7304.03 4050.89L7283.06 4029.37L7270.42 4033.14Z" fill="#1172BA"/>
<path d="M7271.8 4090.07L7271.9 4090.07L7271.8 4090.07Z" fill="#1172BA"/>
<path d="M7341.5 4005.53L7341.45 4005.48L7341.37 4005.37L7321.18 3984.72L7309.6 3988.13L7294.76 3992.54L7289.32 4022.11L7300.52 4033.6L7300.53 4033.63L7310.2 4043.56L7336.74 4035.65L7337.28 4032.74L7342.13 4006.41L7341.5 4005.53Z" fill="#0081C3"/>
<path d="M7199.79 4020.89L7199.76 4021.04C7208.7 4036.09 7216.32 4052.42 7222.46 4069.66L7241.78 4063.93L7247.22 4034.35L7226.3 4012.89L7199.79 4020.82L7199.79 4020.89Z" fill="#1172BA"/>
<path d="M7232.51 4005.57L7243 4016.31L7253.48 4027.08L7266.65 4023.14L7279.93 4019.18L7285.36 3989.65L7264.44 3968.18L7237.94 3976.04L7233.75 3998.82L7232.51 4005.57Z" fill="#1172BA"/>
<path d="M7270.66 3960.9L7282.08 3972.61L7291.64 3982.41L7318.07 3974.55L7318.09 3974.51C7315.88 3971.66 7313.64 3968.82 7311.34 3965.97C7301.31 3953.49 7290.58 3941.53 7279.46 3930.41L7276.07 3931.4L7270.66 3960.9Z" fill="#1172BA"/>
<path d="M6893.38 3978.07L6876.77 3983.03L6876.77 3983.17L6876.74 3983.19L6873.56 4000.45C6880.28 3993.29 6886.92 3985.8 6893.38 3978.07Z" fill="#2BAAE2"/>
<path d="M6837.67 4033.2L6837.31 4035.2C6841.34 4031.74 6845.39 4028.16 6849.37 4024.48L6838.67 4027.65L6837.69 4033.23L6837.67 4033.2Z" fill="#2BAAE2"/>
<path d="M6885.03 3914.44L6879.66 3916.37L6879.74 3915.88L6863.11 3920.85C6861.27 3923.79 6859.01 3927.29 6856.47 3931.25L6852.76 3951.46L6873.68 3972.93L6900.19 3965.07L6905.6 3935.58L6885.03 3914.44Z" fill="#2BAAE2"/>
<path d="M6862.12 4008.93L6862.17 4008.74L6867.41 3980.16L6861.5 3974.1L6850.6 3962.92L6850.62 3962.95L6846.57 3958.81L6836.61 3961.79C6827.97 3975.16 6821.06 3986.17 6814.85 3996.26L6835.61 4017.54L6838.45 4016.69L6854.1 4012.03L6862.04 4009.68L6862.12 4008.93Z" fill="#4CC8ED"/>
<path d="M6982.4 4168.31L6986.57 4172.61L7013 4164.72L7013.47 4162.11L7014.89 4154.4C6995.88 4151.37 6978 4148.56 6966.11 4148.44L6965.58 4151.14L6982.4 4168.31Z" fill="#1172BA"/>
<path d="M6812.37 4007.41L6810.97 4005.95L6809.69 4004.64C6798.52 4023.26 6790.5 4037.97 6785.25 4049.56L6797.43 4062.08L6805.08 4059.8L6805.33 4059.63C6812.09 4055.01 6818.91 4050.01 6825.61 4044.71L6829.25 4024.73L6812.49 4007.54L6812.5 4007.57L6812.37 4007.41Z" fill="#4CC8ED"/>
<path d="M6785.31 4071.18C6786.89 4070.55 6788.67 4069.73 6790.57 4068.72L6781.28 4059.18C6777.93 4068.23 6778.16 4071.72 6778.37 4072.71C6779.04 4072.83 6781.02 4072.89 6785.31 4071.18Z" fill="#4CC8ED"/>
<path d="M6978.77 4188.24L6980.31 4179.88L6959.29 4158.35L6956.22 4159.25L6952.73 4160.29C6955.11 4168.62 6964.05 4178.2 6978.77 4188.24Z" fill="#1172BA"/>
<path d="M7146.38 4255.69L7151.23 4229.19L7134.42 4211.95L7134.43 4211.98L7130.27 4207.71L7103.81 4215.58L7099.07 4241.32C7114.55 4246.41 7130.46 4251.24 7146.38 4255.69Z" fill="#2E3690"/>
<path d="M7070.54 4192.16L7047 4199.15L7043 4220.9C7057.27 4226.75 7072.99 4232.59 7089.71 4238.24L7093.67 4216.69L7094.38 4212.81L7073.41 4191.3L7070.54 4192.16Z" fill="#1172BA"/>
<path d="M7132.51 4168.15L7131.28 4166.9C7116.46 4166.78 7100.75 4165.84 7083.36 4164.01L7079.7 4184.02L7095.71 4200.45L7100.63 4205.52L7127.12 4197.63L7132.51 4168.15Z" fill="#1172BA"/>
<path d="M6988.04 4194.2C7000.4 4201.63 7015.74 4209.29 7033.76 4217.02L7037.58 4196.23L7016.66 4174.77L6990.16 4182.62L6988.04 4194.2Z" fill="#2E3690"/>
<path d="M7027.52 4172.24L7043.86 4188.99L7045.1 4188.64L7070.3 4181.16L7073.64 4162.95C7056.26 4160.9 7039.51 4158.32 7025.01 4156.01L7023.31 4165.25L7022.9 4167.51L7027.52 4172.24Z" fill="#1172BA"/>
<path d="M7599.14 3890.15C7598.22 3884.23 7595.92 3880.45 7592.15 3878.66C7591.25 3878.23 7590.06 3878.32 7588.59 3878.9C7585.04 3880.32 7580.25 3884.51 7574.33 3891.36C7573.82 3891.91 7573.33 3892.5 7572.84 3893.09L7576.44 3896.88L7599.14 3890.15Z" fill="#2E3690"/>
<path d="M7578.16 3914.92L7574.23 3936.4L7587.1 3949.6C7594.44 3929.5 7598.57 3913.2 7599.42 3901.06L7579.62 3906.98L7578.29 3914.23L7578.16 3914.92Z" fill="#2E3690"/>
<path d="M7566.81 3900.69C7559.44 3910.32 7551.21 3922.21 7541.76 3935.9L7538.07 3941.25L7538.34 3941.53L7564.83 3933.65L7565.85 3927.94L7565.87 3927.97L7566.12 3926.56L7570.2 3904.21L7566.81 3900.69Z" fill="#135EAB"/>
<path d="M7507.65 3983.93L7526.74 3978.26L7530.09 3959.93L7531.87 3950.19C7524.82 3960.36 7516.6 3971.96 7507.65 3983.93Z" fill="#2E3690"/>
<path d="M7471.2 4028.14L7488.59 4022.94L7492.09 4003.87C7484.97 4012.69 7478.09 4020.7 7471.2 4028.14Z" fill="#1172BA"/>
<path d="M7450.46 4067.6L7454.61 4045.04C7443.43 4055.69 7432.22 4064.83 7421.18 4072.29L7422.01 4073.49L7423.97 4075.48L7450.46 4067.6Z" fill="#1172BA"/>
<path d="M7572.07 3947.92L7571.62 3947.5L7568 3943.72L7541.53 3951.59L7536.11 3981.06L7557.08 4002.57L7565.73 4000C7572.6 3985.42 7578.53 3971.82 7583.37 3959.51L7572.28 3948.12L7572.29 3948.15L7572.07 3947.92Z" fill="#135EAB"/>
<path d="M7550.81 4009.8L7532.38 3990.89L7529.88 3988.34L7503.37 3996.23L7498.72 4021.58L7497.98 4025.72L7518.95 4047.23L7545.39 4039.3L7549.68 4015.9L7549.66 4015.91L7550.81 4009.8Z" fill="#2E3690"/>
<path d="M7512.68 4054.47L7504.63 4046.2L7491.8 4033.02L7465.26 4040.93L7459.86 4070.38L7480.83 4091.89L7507.27 4084.03L7512.68 4054.47Z" fill="#2E3690"/>
<path d="M7469.18 4128.64L7474.55 4099.13L7456.25 4080.35L7453.63 4077.66L7427.21 4085.56L7421.89 4114.73L7421.94 4114.78L7421.87 4115.16L7442.73 4136.54L7469.18 4128.64Z" fill="#2E3690"/>
<path d="M7516.64 4086.93L7518.89 4089.24C7526.01 4076.72 7532.87 4064.31 7539.3 4052.26L7534.48 4053.68L7522.05 4057.41L7516.64 4086.93Z" fill="#2E3690"/>
<path d="M7479.55 4125.99L7478.93 4129.33L7478.5 4131.56L7487.95 4141.26C7492.14 4134.57 7501.44 4119.52 7513.95 4097.85L7510.38 4094.2L7507.33 4095.09L7483.93 4102.03L7479.55 4125.99Z" fill="#2E3690"/>
<path d="M7385.95 4120.24L7412.33 4112.4L7412.79 4109.13L7413.17 4106.31L7413.43 4106.56L7417.77 4082.82L7412.77 4077.71C7408.01 4080.61 7403.28 4083.21 7398.69 4085.43L7394.92 4087.26L7392.5 4083.18C7389.46 4078.03 7386.14 4072.54 7382.33 4066.41L7370.23 4070.01L7366.49 4090.23L7365.51 4095.56L7365.41 4096.03L7364.96 4098.45L7364.92 4098.68L7385.95 4120.24Z" fill="#1172BA"/>
<path d="M7374.91 4122.59L7359.31 4106.57L7332.11 4114.7L7326.84 4143.39L7347.77 4164.85L7374.32 4156.98L7379.72 4127.53L7374.91 4122.59Z" fill="#2E3690"/>
<path d="M7293.44 4162.42L7288.72 4188.05L7309.7 4209.57L7336.21 4201.67L7341.6 4172.19L7340.95 4171.52L7321.22 4151.29L7293.99 4159.36L7293.63 4161.39L7293.44 4162.42Z" fill="#1172BA"/>
<path d="M7298.71 4211.96L7283.04 4195.9L7256.25 4203.91L7255.75 4210.79L7254.83 4209.81L7250.62 4232.71L7252.59 4234.73L7267.43 4249.95L7267.42 4249.92L7271.58 4254.19L7298.04 4246.32L7303.47 4216.85L7298.71 4211.96Z" fill="#2E3690"/>
<path d="M7419.64 4126.61L7418.84 4125.79L7415.61 4122.43L7389.12 4130.31L7385.83 4148.26L7383.69 4159.78L7404.67 4181.29L7409.98 4179.59L7409.96 4179.71L7412.27 4179.03L7431.1 4173.43L7436.54 4143.92L7419.66 4126.57L7419.64 4126.61Z" fill="#2E3690"/>
<path d="M7350.99 4174.97L7346.65 4198.56L7346.71 4198.54L7345.62 4204.49L7366.54 4225.95L7372.72 4224.08L7392.99 4218.05L7398.42 4188.51L7377.5 4167.05L7350.99 4174.97Z" fill="#2E3690"/>
<path d="M7312.87 4219.63L7307.44 4249.1L7328.41 4270.61L7335.48 4268.5L7335.49 4268.53L7354.85 4262.75L7360.3 4233.2L7349.75 4222.38L7339.4 4211.77L7312.87 4219.63Z" fill="#135EAB"/>
<path d="M7290.31 4315.27L7316.76 4307.36L7322.14 4277.85L7301.22 4256.39L7274.74 4264.3L7273.7 4270.05L7273.68 4270.02L7269.34 4293.75L7290.31 4315.27Z" fill="#2E3690"/>
<path d="M7445.89 4146.83L7440.49 4176.36L7453.83 4190.04C7463.04 4177.84 7472.58 4164.43 7482.19 4150.24C7482.33 4150.05 7482.48 4149.81 7482.67 4149.56L7472.33 4138.97L7445.89 4146.83Z" fill="#2E3690"/>
<path d="M7419.14 4238.17L7423.18 4242.28L7449.79 4234.39L7454.2 4210.34C7452.87 4206.85 7451.5 4203.35 7450.09 4199.82L7434.25 4183.58L7411.55 4190.31L7407.8 4191.41L7402.36 4220.99L7419.14 4238.17Z" fill="#2E3690"/>
<path d="M7379.15 4233.32L7369.67 4236.15L7364.24 4265.68L7385.05 4287.01L7411.63 4279.06L7417.03 4249.67L7414.58 4247.17L7396.12 4228.24L7379.15 4233.32Z" fill="#2E3690"/>
<path d="M7331.54 4280.74L7326.12 4310.27L7327.17 4311.34L7342.83 4327.44L7342.85 4327.4L7346.95 4331.59L7373.51 4323.72L7378.91 4294.37L7370.22 4285.47L7357.99 4272.91L7352.7 4274.49L7331.54 4280.74Z" fill="#2E3690"/>
<path d="M7483.53 4304.18C7482.29 4299.02 7480.97 4293.83 7479.57 4288.66L7478.91 4292.3L7478.94 4292.29L7477.82 4298.32L7483.53 4304.18Z" fill="#2E3690"/>
<path d="M7472.93 4306.96L7471.65 4305.66L7466.25 4307.6L7466.33 4307.17L7454.12 4310.81L7450.63 4311.85L7445.16 4313.47L7439.73 4343L7460.7 4364.48L7466.8 4362.65L7487.17 4356.57L7490.79 4336.93C7489.82 4332.05 7488.81 4327.09 7487.73 4322.09L7472.93 4306.96Z" fill="#2E3690"/>
<path d="M7433.34 4350.32L7406.97 4358.19L7402.66 4381.56L7402.69 4381.54L7402.72 4381.53L7401.57 4387.64L7422.5 4409.14L7449.01 4401.28L7454.41 4371.76L7433.47 4350.27L7433.34 4350.32Z" fill="#2E3690"/>
<path d="M7463.79 4374.59L7458.38 4404.08L7479.34 4425.56L7502.13 4418.76C7500.9 4403.69 7499.17 4388.49 7497.02 4373.57L7490.29 4366.66L7463.79 4374.59Z" fill="#282560"/>
<path d="M7462.27 4421.71L7452.15 4411.36L7425.65 4419.21L7420.26 4448.7L7441.24 4470.21L7467.69 4462.31L7473.11 4432.84L7462.27 4421.71Z" fill="#2E3690"/>
<path d="M7466.47 4244.67C7464.66 4239.21 7462.78 4233.7 7460.82 4228.26L7459.17 4237.21L7466.47 4244.67Z" fill="#2E3690"/>
<path d="M7426.45 4252.52L7421.06 4281.9L7441.97 4303.33L7468.44 4295.42L7473.61 4267.44L7472.85 4264.9L7457.06 4248.71L7457.07 4248.74L7456.9 4248.56L7453.01 4244.57L7426.45 4252.52Z" fill="#2E3690"/>
<path d="M7419 4293.46L7414.91 4289.3L7388.33 4297.18L7382.93 4326.56L7403.85 4348.03L7430.31 4340.15L7435.74 4310.62L7419 4293.46Z" fill="#135EAB"/>
<path d="M7349.1 4347.62L7349.09 4347.59L7344.78 4371.17L7365.74 4392.65L7392.2 4384.78L7396.54 4361.33L7396.5 4361.31L7397.62 4355.28L7394.42 4352.01L7380.81 4338.04L7380.82 4338.07L7376.76 4333.9L7350.15 4341.87L7349.56 4345.05L7349.1 4347.62Z" fill="#2E3690"/>
<path d="M7477.08 4465.09L7498.06 4486.61L7504.59 4484.67C7504.72 4466.31 7504.16 4447.81 7502.92 4429.57L7482.48 4435.64L7477.08 4465.09Z" fill="#282560"/>
<path d="M7502.71 4533.41C7503.6 4520.58 7504.18 4508.23 7504.44 4495.79L7501.14 4496.75L7495.75 4526.24L7502.71 4533.41Z" fill="#282560"/>
<path d="M7187.31 4224.34L7160.6 4232.31L7155.86 4258.27C7173.91 4263.1 7190.39 4267.04 7203.71 4269.65L7208.12 4245.67L7187.31 4224.34Z" fill="#2E3690"/>
<path d="M7213.24 4271.74C7223.86 4275.14 7233.27 4283.64 7241.28 4297L7259.56 4291.58L7264.99 4262.04L7244.22 4240.73L7217.48 4248.68L7213.24 4271.74Z" fill="#2E3690"/>
<path d="M7246.36 4306.56C7251.88 4318.18 7255.45 4330.26 7257.53 4338.53C7258.28 4342.07 7259.04 4345.46 7259.79 4348.86L7259.95 4349.47C7260.53 4352.12 7261.15 4354.78 7261.81 4357.44L7278.19 4352.56L7283.58 4323.18L7262.66 4301.72L7246.36 4306.56Z" fill="#2E3690"/>
<path d="M7338.12 4379.09L7320 4384.51L7311.61 4387.01L7307.31 4410.45L7307.33 4410.44L7307.36 4410.43L7306.21 4416.46L7306.2 4416.51L7327.15 4437.96L7353.65 4430.1L7359.06 4400.61L7343.48 4384.62L7338.12 4379.09Z" fill="#2E3690"/>
<path d="M7299.96 4423.76L7282.23 4429.03C7287.98 4446.03 7294.3 4462.81 7301.14 4478.98L7315.55 4474.68L7320.95 4445.23L7299.96 4423.76Z" fill="#2E3690"/>
<path d="M7410.49 4446.39L7415.88 4417.01L7394.92 4395.52L7368.44 4403.44L7363.02 4432.9L7384.05 4454.39L7410.49 4446.39Z" fill="#2E3690"/>
<path d="M7373.06 4456.86L7356.79 4440.19L7330.33 4448.06L7324.89 4477.5L7343.5 4496.54L7344.37 4497.4L7344.36 4497.44L7345.89 4499L7372.33 4491.14L7375.54 4473.79L7377.77 4461.7L7373.06 4456.86Z" fill="#272361"/>
<path d="M7323.33 4477.69L7323.32 4477.81L7323.33 4477.69Z" fill="#282560"/>
<path d="M7357.16 4438.44L7357.11 4438.39L7357.16 4438.44Z" fill="#2E3690"/>
<path d="M7287.57 4355.39L7308.5 4376.85L7335 4369L7340.4 4339.47L7319.43 4317.96L7293 4325.85L7287.57 4355.39Z" fill="#135EAB"/>
<path d="M7296.34 4378.04L7285.46 4366.89L7285.47 4366.92L7281.41 4362.75L7264.33 4367.84C7268.66 4385.15 7273.54 4402.33 7278.92 4418.95L7279.68 4418.71L7296.87 4413.59L7302.3 4384.12L7296.34 4378.04Z" fill="#2E3690"/>
<path d="M7402.7 4515.43L7422.31 4509.62L7429.15 4507.6L7434.59 4478.02L7413.78 4456.66L7408.27 4458.65L7408.35 4458.15L7387.16 4464.45L7381.73 4493.92L7402.7 4515.43Z" fill="#282560"/>
<path d="M7379.24 4505.04L7375.5 4501.2L7349.03 4509.12L7343.64 4538.53L7364.63 4560.07L7391.05 4552.18L7395.35 4528.71L7395.29 4528.73L7395.28 4528.7L7395.37 4528.38L7396.44 4522.7L7379.24 4505.04Z" fill="#282560"/>
<path d="M7485.97 4524.07L7491.38 4494.57L7470.41 4473.06L7443.96 4480.96L7438.53 4510.5L7459.48 4531.95L7485.97 4524.07Z" fill="#282560"/>
<path d="M7453.25 4539.23L7432.28 4517.72L7419.16 4521.61L7414.79 4522.9L7405.84 4525.58L7400.45 4554.82L7400.49 4554.84L7400.43 4555.08L7417.2 4572.3L7417.23 4572.29L7418.08 4573.16L7421.4 4576.59L7447.83 4568.7L7453.25 4539.23Z" fill="#2E3690"/>
<path d="M7322.79 4489L7320.98 4487.16L7320.22 4486.36L7319.78 4485.9L7318.7 4484.77L7305.36 4488.74C7312.64 4505.31 7320.6 4521.61 7329.03 4537.26L7334.26 4535.7L7335.29 4529.99L7335.3 4530.02L7339.65 4506.29L7322.79 4489Z" fill="#282560"/>
<path d="M7334.21 4546.78C7340.99 4558.85 7348.15 4570.71 7355.62 4582.15L7358.37 4567.34L7341.49 4550.02L7341.48 4550.06L7341.2 4549.74L7337.42 4545.81L7334.21 4546.78Z" fill="#282560"/>
<path d="M7367.3 4572.59L7366.73 4575.8L7366.69 4575.78L7363.4 4593.8C7369.81 4603.15 7376.52 4612.37 7383.31 4621.17L7409.76 4613.34L7415.15 4583.86L7394.13 4562.33L7378.45 4566.99L7367.74 4570.21L7367.3 4572.59Z" fill="#282560"/>
<path d="M7438.27 4677.37L7444.3 4683.56C7447.82 4685.43 7451.31 4686.91 7454.72 4687.96C7456.85 4686.37 7460.69 4683.2 7465.28 4677.88C7471.57 4670.61 7477.11 4661.85 7481.79 4651.88L7470.15 4639.93L7451.54 4645.48L7443.69 4647.83L7438.27 4677.37Z" fill="#282560"/>
<path d="M7496.33 4598.8L7481.85 4603.09L7476.41 4632.67L7485.84 4642.33C7490.79 4629.34 7494.31 4614.71 7496.33 4598.8Z" fill="#282560"/>
<path d="M7390.48 4630.29C7399.11 4641.02 7408.13 4651.45 7417.31 4661.33L7417.54 4661.59C7417.62 4661.7 7421.99 4667.06 7429.14 4673.13L7434.35 4644.93L7413.43 4623.46L7403.63 4626.38L7390.48 4630.29Z" fill="#282560"/>
<path d="M7429.37 4626.16L7440.57 4637.64L7457.54 4632.57L7467.02 4629.74L7472.45 4600.2L7451.5 4578.75L7425.01 4586.63L7421 4608.53L7419.6 4616.13L7429.37 4626.16Z" fill="#282560"/>
<path d="M7457.72 4571.47L7472.03 4586.15L7478.7 4592.98L7497.57 4587.39L7498.2 4581.49C7499.24 4571.94 7500.53 4560.12 7501.68 4546.51L7489.57 4534.11L7463.12 4542.01L7457.72 4571.47Z" fill="#282560"/>
</g>
<path fill-rule="evenodd" clip-rule="evenodd" d="M6378.71 3293.43C6378.71 3293.43 6554.65 3080.13 6701.58 2746.86C6786.49 2554.27 6830.21 2289.79 6906.05 2085.47C7046.15 1708.03 7354.87 1883.83 7658.44 1853.47C8037.9 1815.51 8276.82 1772.23 8309.22 1759.73C8366.84 1737.47 8637.22 1641.12 8615.01 1821.46C8592.8 2001.81 8356.5 2050.64 8356.5 2050.64C8356.5 2050.64 8558.73 2006.01 8545.19 2169.73C8534.84 2294.98 8351.72 2325.3 8351.72 2325.3C8351.72 2325.3 8528.65 2337.79 8488.64 2506.81C8448.64 2675.85 8243.13 2646.11 8243.13 2646.11C8243.13 2646.11 8335.88 2703.23 8320.22 2757.78C8304.56 2812.33 8336.67 2885.81 8136.75 2871.08C7936.84 2856.35 7737.37 2857.52 7539.15 2758.37C7349.03 2663.28 7228.08 2651.2 7131.15 2839.17C6915.11 3258.06 6634.9 3261.22 6634.9 3261.22L6378.71 3293.43Z" fill="#0081C3"/>
<path fill-rule="evenodd" clip-rule="evenodd" d="M6549.02 3391.84C6549.02 3391.84 6703.17 3228.9 6847.33 2916.58C6921.35 2756.22 6957.81 2538.8 7042.18 2320.68C7210.45 1885.7 7532.91 2100.68 7859.75 2075.37C8268.3 2043.73 8526.46 2001.24 8561.79 1987.73C8624.62 1963.72 8919.05 1860.45 8886.59 2069.77C8854.14 2279.09 8598.51 2328.15 8598.51 2328.15C8598.51 2328.15 8817.41 2282.86 8795.05 2473.11C8777.95 2618.65 8580.22 2647.89 8580.22 2647.89C8580.22 2647.89 8769.26 2668.31 8718.28 2863.86C8667.3 3059.41 8448.44 3017.97 8448.44 3017.97C8448.44 3017.97 8545.13 3087.58 8525.72 3150.59C8506.32 3213.61 8537.21 3300.27 8323.64 3276.49C8110.06 3252.72 7896.21 3247.46 7688.51 3125.42C7489.29 3008.35 7360.23 2990.28 7247.31 3206.02C6995.66 3686.77 6695.17 3681.16 6695.17 3681.16L6549.02 3391.84Z" fill="#2BAAE2"/>
<path fill-rule="evenodd" clip-rule="evenodd" d="M6734.12 4587.77C6734.12 4587.77 6727.04 4825.1 6727.84 5065.83L6314.39 5066.25C6306.22 5026.57 6299.37 4996.44 6299.37 4996.44C6299.37 4996.44 6299.94 5019.34 6296.53 5066.78L5989.01 5067.4L5981.98 4651.66L6734.12 4587.77Z" fill="#2E3690"/>
<path fill-rule="evenodd" clip-rule="evenodd" d="M6249.38 4936.6C6249.38 4936.6 6257.81 4960.53 6272.45 4978.26C6287.08 4995.99 6296.14 4975.35 6301.46 5006.46C6306.34 5035 6303.96 5037.7 6306.51 5066.46L6278.63 5067.13C6279.09 5029.89 6275 5041.42 6275.08 5021.52C6275.15 5005.35 6275.14 4996.2 6275.14 4996.2C6275.14 4996.2 6272.11 5004.5 6262.84 4991.07C6238.92 4956.4 6249.38 4936.6 6249.38 4936.6Z" fill="#272361"/>
<path fill-rule="evenodd" clip-rule="evenodd" d="M4865.02 4311.84C4865.02 4311.84 4993.61 4232.29 5157.04 4153.1C5320.46 4073.9 5310.47 4075.55 5412.04 4035.59C5564.54 3975.58 5634.86 4022.14 5659.54 3845.57C5692.03 3613.04 5680.9 3542.14 5772.04 3580.54C5829.63 3604.81 5889.54 3663.05 5857.03 3880.57C5824.53 4098.09 5630.44 4155.52 5519.53 4200.6C5408.63 4245.68 5336.6 4256.09 5214.53 4300.61C5002.75 4377.86 4910.93 4394.95 4910.93 4394.95C4910.93 4394.95 4677.78 4642.58 4665.56 4614.44C4653.34 4586.3 4740.69 4548.92 4732.39 4530.46C4724.09 4512.01 4605.85 4615.07 4594.63 4585.92C4583.42 4556.75 4710.7 4510.08 4703.77 4496.62C4696.83 4483.15 4577.09 4561.62 4566.87 4532.06C4556.63 4502.5 4698.2 4454.58 4693.03 4437.8C4687.85 4421.02 4552.4 4492.24 4546.18 4464.96C4539.96 4437.68 4681.94 4406.73 4698.98 4370.74C4716.03 4334.76 4591.73 4348.44 4614.37 4321.04C4637.02 4293.63 4865.02 4311.84 4865.02 4311.84Z" fill="#FDBC8C"/>
<path fill-rule="evenodd" clip-rule="evenodd" d="M6358.38 2735.67C6358.38 2735.67 6346.77 2848.55 6357.13 2937.11C6367.49 3025.67 6395.04 3085.26 6395.04 3085.26C6395.04 3085.26 6422.24 3104.75 6457.03 3111.78C6491.83 3118.81 6547.32 3183.1 6547.32 3183.1C6547.32 3183.1 6387.47 3245.28 6234.62 3280.5C6081.77 3315.71 5922.83 3254.25 5922.83 3254.25C5946.68 3236.6 5981 3212.67 6016.4 3186.66C6051.79 3160.64 6079.74 3137.18 6084.77 3129.88C6112.26 3090.07 6100.66 3038.3 6097.89 2991.53C6090.71 2870.37 6028.24 2784.02 6028.24 2784.02L6358.38 2735.67Z" fill="#FDBC8C"/>
<path fill-rule="evenodd" clip-rule="evenodd" d="M6358.37 2735.67C6358.37 2735.67 6346.77 2848.55 6357.13 2937.11C6367.49 3025.67 6399.83 3089.9 6399.83 3089.9C6399.83 3089.9 6303.59 3019.47 6228.74 3003.36C6153.89 2987.24 6093.64 2957.94 6093.64 2957.94C6093.64 2957.94 6089.36 2920.87 6083.73 2896.78C6059.91 2794.97 6028.23 2784.02 6028.23 2784.02L6358.37 2735.67Z" fill="#DFA58B"/>
<path fill-rule="evenodd" clip-rule="evenodd" d="M5982.63 4889.73L5983.64 4923.82L6370.29 4881.22L5982.63 4889.73Z" fill="#272361"/>
<path fill-rule="evenodd" clip-rule="evenodd" d="M6444.22 3101.12C6444.22 3101.12 6357.97 3228.35 6227.92 3252.16C6116.69 3272.53 6043.48 3168.96 6043.48 3168.96C6043.48 3168.96 6085.62 3134.03 5927.28 3227.76C5783.58 3312.83 5697.54 3529.38 5697.54 3529.38C5697.54 3529.38 5616.86 3787.28 5648.4 3832.42C5648.4 3832.42 5701.44 3873.89 5755.27 3869.57C5809.11 3865.25 5887.67 3852.87 5887.67 3852.87C5887.67 3852.87 5819.32 3769.9 5818.25 3802.85C5815.9 3874.85 5836.93 3984.79 5850.97 4151.15C5886.72 4574.42 5944.54 4876.62 5944.54 4876.62C5944.54 4876.62 6104.11 4897.86 6295.95 4885.82C6487.8 4873.77 6796.88 4832.24 6796.88 4832.24C6796.88 4832.24 6765.1 4509.21 6771.83 4295.79C6778.56 4082.38 6769.22 4071.78 6774.41 3798.34C6778.68 3573.52 6820.68 3580.55 6770.85 3414.9C6709.63 3211.38 6444.22 3101.12 6444.22 3101.12Z" fill="#135EAB"/>
<path fill-rule="evenodd" clip-rule="evenodd" d="M6430.05 3102.16C6430.05 3102.16 6322.41 3220.15 6229.52 3231.06C6118.1 3244.13 6045.56 3164.13 6045.56 3164.13C6045.56 3164.13 6038.24 3163.78 6030.95 3169.12C6024.61 3173.75 6024.18 3180.62 6024.18 3180.62C6024.18 3180.62 6108.53 3268.25 6224.22 3255.21C6365.95 3239.26 6457.37 3106.33 6457.37 3106.33C6457.37 3106.33 6453.47 3102.41 6443.64 3100.65C6436.22 3099.32 6430.05 3102.16 6430.05 3102.16Z" fill="#1172BA"/>
<path fill-rule="evenodd" clip-rule="evenodd" d="M5980.61 4452.62L5988.2 4456.99L5996.02 4447.2L6007.67 4454.9L6014.13 4445.75L6024.11 4453.03L6029.74 4442.83L6038.68 4452.61L6046.81 4440.14L6067.79 4448.59L6179.68 4983.4L6125.72 4995.55L5980.61 4452.62Z" fill="#E0E0E0"/>
<path fill-rule="evenodd" clip-rule="evenodd" d="M6048.8 4437.51L6854.56 4399.57L6870.89 4938.91L6120.65 5004.3L5968.34 4442L5983.95 4443.04L6125.35 4954.63L6048.8 4437.51Z" fill="#272361"/>
<path fill-rule="evenodd" clip-rule="evenodd" d="M6338.04 4661.97C6338.04 4661.97 6372.47 4516.43 6431.33 4346.85C6490.18 4177.26 6484.38 4185.38 6527.34 4086.48C6591.83 3937.99 6663.12 3913.3 6615.66 3732.28C6567.38 3548.14 6596.4 3434.68 6686.13 3398.09C6742.83 3374.96 6806.71 3474.59 6814.09 3656.93C6821.49 3839.25 6761.58 4018.4 6715.68 4127.4C6669.77 4236.4 6626.94 4293.95 6572.9 4410.33C6479.13 4612.28 6427.18 4688.32 6427.18 4688.32C6427.18 4688.32 6436.01 5024.82 6408.13 5013.58C6380.27 5002.34 6415.13 4915.18 6396.65 4908C6378.17 4900.83 6367.12 5055.66 6339.24 5043.01C6311.36 5030.35 6367.55 4908.81 6353.45 4904.19C6339.36 4899.58 6310.32 5038.18 6282.86 5024.56C6255.38 5010.93 6320.61 4878.55 6305.46 4870.37C6290.31 4862.2 6245.36 5006.68 6222.25 4991.86C6199.14 4977.03 6276.35 4856.29 6263.39 4819.13C6250.42 4781.98 6173.58 4878.26 6170.4 4843.23C6167.24 4808.18 6338.04 4661.97 6338.04 4661.97Z" fill="#FDBC8C"/>
<path fill-rule="evenodd" clip-rule="evenodd" d="M6467.02 3673.94C6460.77 3533.93 6477.33 3434.08 6575.77 3390.14C6612.64 3373.69 6643.72 3344.38 6685.58 3369.78C6727.44 3395.18 6775.07 3425.41 6802.02 3531.26C6817.69 3592.85 6655.51 3703.65 6643.93 3721.98L6624.55 3887.11C6541.92 3888.5 6488.85 3869.77 6488.85 3869.77C6488.85 3869.77 6468.71 3711.69 6467.02 3673.94Z" fill="#135EAB"/>
<path fill-rule="evenodd" clip-rule="evenodd" d="M6474.09 3627.21C6462.23 3454.69 6495.05 3327.67 6585.39 3312.7C6625.34 3306.09 6665.29 3307.4 6708.15 3337.38C6751.01 3367.35 6799.83 3403.1 6831 3532.8C6849.13 3608.27 6866.45 3817.62 6855.62 3840.61C6855.62 3840.61 6794.23 3876.52 6711.7 3880.91C6629.17 3885.3 6500.8 3860.52 6500.8 3860.52C6500.8 3860.52 6477.29 3673.72 6474.09 3627.21Z" fill="#135EAB"/>
<path fill-rule="evenodd" clip-rule="evenodd" d="M6460.68 2360.45C6528.53 2429.62 6441.77 2608.62 6460.48 2603.29C6479.19 2597.94 6489.15 2541.49 6532.6 2598.22C6568.07 2644.53 6470.69 2765.06 6443.12 2727.42C6415.14 2689.22 6394.34 2815.14 6366.56 2839.25C6298.39 2898.45 6225.33 2948.47 6115.5 2955.51C5913.82 2968.42 5902.46 2751.25 5900.77 2594.2C5899.85 2508.07 5890.58 2427.64 5934.38 2376.4C5970.44 2334.19 5963 2314.72 6031.37 2289.06C6182.76 2232.22 6367.06 2265.02 6460.68 2360.45Z" fill="#FDBC8C"/>
<path fill-rule="evenodd" clip-rule="evenodd" d="M6425.58 2708.92C6425.58 2708.92 6380.13 2726.48 6400.35 2679.06C6421.27 2629.95 6439.85 2588.36 6440.24 2552.78C6440.49 2530.49 6441.56 2503 6422.7 2496.97C6403.83 2490.95 6360.53 2514.97 6345.93 2488.41C6328.12 2456.01 6379.19 2396.26 6335.19 2365.11C6281.32 2326.96 6208.43 2383.16 6129.1 2386.42C6049.79 2389.69 5986.28 2357.42 5957.03 2366.2C5937.36 2372.11 5920.68 2387.58 5916.46 2414.86C5913.19 2436.07 5920.21 2465.91 5917.57 2491.7C5916.47 2502.5 5905.95 2504.7 5901.72 2513.96C5898.85 2520.23 5901.87 2529.84 5900.97 2537.96C5898.42 2561.04 5902.67 2581.61 5900.71 2577.89C5897.4 2571.63 5896.37 2489.03 5900.64 2450.39C5906.21 2399.94 5921.66 2369.92 5937.38 2342.44C5953.08 2314.95 5994.93 2273.83 6035.41 2255.37C6086.12 2232.25 6142.43 2217.7 6199.72 2216.55C6285.98 2214.82 6338.33 2232.38 6387.58 2254.35C6451.89 2283.04 6479.4 2348.15 6489.22 2388.59C6496.03 2416.7 6481.81 2511.94 6465.32 2590.61C6454.02 2644.46 6425.58 2708.92 6425.58 2708.92Z" fill="#2E3690"/>
<path fill-rule="evenodd" clip-rule="evenodd" d="M6199.03 2617.64C6200.19 2604.14 6190.54 2593.39 6177.45 2593.59C6164.38 2593.81 6152.83 2604.91 6151.66 2618.4C6150.49 2631.89 6160.16 2642.65 6173.24 2642.44C6186.32 2642.23 6197.87 2631.13 6199.03 2617.64Z" fill="#272361"/>
<path fill-rule="evenodd" clip-rule="evenodd" d="M5996.38 2621.53C5997.71 2608.02 5987.53 2597.32 5973.64 2597.63C5959.75 2597.94 5947.41 2609.14 5946.08 2622.65C5944.74 2636.16 5954.92 2646.86 5968.81 2646.55C5982.7 2646.24 5995.04 2635.04 5996.38 2621.53Z" fill="#272361"/>
<path fill-rule="evenodd" clip-rule="evenodd" d="M6463.36 2583.78C6475.91 2584.37 6407.13 2797.89 6368.94 2834.93C6315.62 2886.65 6297.03 2904.17 6214.41 2935.66C6175.68 2950.42 6100.27 2968.41 6033.37 2948.51C5991.21 2935.97 5974.68 2912.46 5944.46 2862.42C5914.24 2812.4 5912.48 2748.39 5912.48 2748.39C5912.48 2748.39 5918.87 2786.2 5944.44 2794.37C5962.3 2800.07 5974.21 2765.5 6055.54 2758.22C6127.2 2751.81 6129.57 2752.82 6188.16 2760.74C6246.74 2768.66 6270.42 2784.34 6289.88 2789.91C6328.19 2800.87 6394.03 2708.24 6406.78 2669.15C6422.86 2619.87 6460.76 2583.66 6463.36 2583.78Z" fill="#272361"/>
<path fill-rule="evenodd" clip-rule="evenodd" d="M6179.24 2804.44C6176.48 2795.38 6122.25 2819.61 6076.37 2819.44C6030.49 2819.27 6007.63 2812.11 6004.73 2818.87C6002.84 2823.28 6025.22 2861.34 6071.1 2861.51C6116.99 2861.68 6182.91 2816.48 6179.24 2804.44Z" fill="#E0E0E0"/>
<path fill-rule="evenodd" clip-rule="evenodd" d="M5997.34 2519.27L5952.36 2525.37C5944.17 2526.48 5938.12 2531.81 5938.84 2537.27C5939.56 2542.72 5946.78 2546.25 5954.98 2545.14L5999.96 2539.03C6008.15 2537.92 6014.2 2532.6 6013.47 2527.14C6012.75 2521.68 6005.53 2518.16 5997.34 2519.27Z" fill="#272361"/>
<path fill-rule="evenodd" clip-rule="evenodd" d="M6206.33 2506.76L6161.01 2506.53C6152.76 2506.49 6145.91 2510.92 6145.7 2516.43C6145.51 2521.95 6152.02 2526.45 6160.28 2526.5L6205.59 2526.72C6213.84 2526.77 6220.69 2522.33 6220.9 2516.82C6221.1 2511.3 6214.58 2506.8 6206.33 2506.76Z" fill="#272361"/>
<path fill-rule="evenodd" clip-rule="evenodd" d="M5819.72 3571.16C5819.72 3571.16 5800.98 3616.04 5815.9 3787.89C5829.5 3944.79 5799.36 3818.59 5800.29 3717.65C5801.23 3616.72 5819.72 3571.16 5819.72 3571.16Z" fill="#2E3690"/>
<path d="M6811.38 3274.13C6811.38 3274.13 7067.02 2835.85 7217.4 2320.21C7275.01 2122.7 7664.72 2232.27 7879.07 2225.68C8201.49 2215.77 8512.82 2159.07 8512.82 2159.07" stroke="#4CC8ED" stroke-width="10.1" stroke-linecap="round" stroke-linejoin="round"/>
<path d="M6680.14 3064.49C6680.14 3064.49 6913.69 2614.04 7038.24 2091.57C7058.07 2008.39 7137.83 1975.34 7239.62 1963.87C7382.76 1947.75 7569.48 1974.33 7694.4 1964.26C8015.92 1938.33 8324.05 1866.23 8324.05 1866.23" stroke="#2BAAE2" stroke-width="10.1" stroke-linecap="round" stroke-linejoin="round"/>
<path fill-rule="evenodd" clip-rule="evenodd" d="M4583.69 2262.37L4586.02 2296.44C4586.02 2296.44 4560.39 2311.94 4560.89 2325.94C4561.4 2339.95 4586.96 2354.08 4586.96 2354.08C4586.96 2354.08 4563.4 2367.49 4565.25 2380.29C4567.1 2393.08 4595.96 2406.58 4595.96 2406.58C4595.96 2406.58 4571.41 2418.67 4573.14 2431.63C4574.86 2444.59 4605.14 2458.38 4605.14 2458.38C4605.14 2458.38 4576.58 2469.04 4578.53 2481.37C4580.48 2493.7 4610.03 2508.32 4610.03 2508.32C4610.03 2508.32 4580.57 2515.02 4581.75 2526.73C4582.93 2538.44 4615.36 2553.46 4615.36 2553.46C4615.36 2553.46 4620.02 2560.67 4621.76 2562.96C4634.72 2580.05 4744.93 2579.82 4784.28 2600.53C4803.03 2610.38 4828.83 2694.13 4899.37 2685.88C4973.28 2677.24 4962.04 2617.81 5002.96 2577.05C5037.81 2542.35 5136.07 2527.1 5149.82 2493.38C5151.32 2489.68 5154.45 2477.64 5154.45 2477.64C5154.45 2477.64 5184.5 2460.44 5181.13 2445.18C5177.88 2430.42 5150.77 2430.31 5150.77 2430.31C5150.77 2430.31 5175.58 2410.99 5174.47 2398.69C5173.36 2386.39 5146.75 2379.83 5146.75 2379.83C5146.75 2379.83 5170.98 2363.67 5169.66 2350.42C5168.35 2337.18 5140.69 2329.58 5140.69 2329.58C5140.69 2329.58 5166.62 2310.64 5165.34 2297.33C5164.07 2284.02 5133.61 2275.45 5133.47 2274.13C5133.37 2273.32 5160.72 2258.13 5158.72 2239.95C5156.72 2221.78 5123.51 2221 5123.51 2221L5118.37 2195.7L4583.69 2262.37Z" fill="#272361"/>
<path fill-rule="evenodd" clip-rule="evenodd" d="M4577.14 2247.55C4569.71 2179.22 4501.73 1981.43 4438 1913.55C4327.49 1795.9 4157.01 1593.5 4108.66 1347.87C4039.38 995.956 4259.07 640.604 4670.25 609.76C5081.44 578.917 5385.91 777.43 5393.91 1201.65C5400.13 1531.13 5199.51 1763.39 5170.3 1857.79C5141.08 1952.17 5118.93 2112.7 5128.52 2187.74C5138.12 2262.77 5059.64 2298.1 5059.64 2298.1C5059.64 2298.1 5005.7 2335.17 4886.25 2344.94C4766.79 2354.72 4684.81 2328.28 4684.81 2328.28C4684.81 2328.28 4584.1 2311.57 4577.14 2247.55Z" fill="#4CC8ED" stroke="#4CC8ED" stroke-width="3.05" stroke-linecap="round" stroke-linejoin="round"/>
<path d="M4860.28 2300.63C4860.28 2300.63 4803.75 1886.52 4722.37 1566.93C4685.96 1423.91 4636.87 1336.17 4607.67 1273.79C4539.52 1128.2 4459.09 1283.77 4494.57 1354.37C4530.05 1424.98 4644.23 1420.09 4731.72 1400.09C4819.19 1380.09 4812.66 1146.4 4772.31 1133.16C4731.95 1119.91 4703.74 1223.09 4734.54 1313.44C4765.33 1403.78 4980.48 1444.84 5032.23 1336.17C5058.52 1280.99 5053.8 1198.62 5037.37 1148.5C5021.44 1099.93 4962.55 1087.91 4937.66 1103.88C4905.71 1124.37 4869.18 1230.98 4856.29 1505.49C4843.4 1780.01 4915.34 2284.33 4915.34 2284.33" stroke="#E0E0E0" stroke-width="8.86" stroke-linecap="round" stroke-linejoin="round"/>
<path d="M4604.21 2354.63C4604.21 2354.63 4750.02 2389.92 4883.09 2376.78C5016.16 2363.63 5134.73 2274.79 5134.73 2274.79" stroke="white" stroke-width="3.05" stroke-linecap="round" stroke-linejoin="round"/>
<path d="M4612.5 2409.34C4612.5 2409.34 4758.3 2444.64 4891.37 2431.49C4919.78 2428.69 4947.51 2422.43 4973.58 2414.33C5069.66 2384.46 5143.02 2329.5 5143.02 2329.5" stroke="white" stroke-width="3.05" stroke-linecap="round" stroke-linejoin="round"/>
<path d="M4618.61 2459.58C4618.61 2459.58 4764.41 2494.87 4897.49 2481.72C5030.55 2468.58 5149.13 2379.73 5149.13 2379.73" stroke="white" stroke-width="3.05" stroke-linecap="round" stroke-linejoin="round"/>
<path d="M4624 2508.98C4624 2508.98 4769.8 2544.26 4902.88 2531.12C5035.96 2517.98 5154.53 2429.13 5154.53 2429.13" stroke="white" stroke-width="3.05" stroke-linecap="round" stroke-linejoin="round"/>
<path d="M4627.35 2556.64C4627.35 2556.64 4771.35 2593.3 4904.42 2580.15C4992.08 2571.49 5073.43 2529.99 5118.76 2502.66C5142.25 2488.51 5156.07 2478.15 5156.07 2478.15" stroke="white" stroke-width="3.05" stroke-linecap="round" stroke-linejoin="round"/>
</svg>
