<svg width="7948" height="4513" viewBox="0 0 7948 4513" fill="none" xmlns="http://www.w3.org/2000/svg">
<path fill-rule="evenodd" clip-rule="evenodd" d="M915.73 2058.28C1147.37 1330.26 2415.63 1320.54 2472.26 614.63C2528.14 -81.7401 3326.53 -10.3 3794.14 276.3C4300.31 586.53 6076.99 -28.2201 6016.66 474.58C5956.32 977.39 6800.91 1175.29 6853.9 1944.38C6906.55 2708.5 6172.8 3647.54 6295.58 4114.73C6383.61 4449.71 4531.58 4268.53 3735.89 4268.53C3232.17 4268.53 2111.45 4443.43 1955.77 4010.73C1623.47 3087.12 646.15 2905.52 915.73 2058.28Z" fill="#4CC8ED" fill-opacity="0.140875"/>
<path fill-rule="evenodd" clip-rule="evenodd" d="M5912.66 1192.65C5912.66 1192.65 5824.02 1190.16 5822.85 1093.42C5821.69 998.21 5913.07 993.21 5913.07 993.21L6138.11 994.81C6138.11 994.81 6235.31 990.28 6234.01 1099.54C6232.88 1195.3 6132.65 1201.97 6132.65 1201.97L6035.65 1201.28C6025.72 1201.21 6011.26 1207.53 6003.35 1215.4L5927.64 1290.68C5920.02 1298.25 5917.13 1295.18 5921.19 1283.8L5946.16 1213.88C5949.48 1204.6 5945.86 1196.54 5938.09 1195.85L5912.66 1192.65Z" fill="#4CC8ED"/>
<path fill-rule="evenodd" clip-rule="evenodd" d="M6106.23 1095.76C6106.23 1081.16 6117.89 1069.33 6132.27 1069.33C6146.66 1069.33 6158.31 1081.16 6158.31 1095.76C6158.31 1110.36 6146.66 1122.2 6132.27 1122.2C6117.89 1122.2 6106.23 1110.36 6106.23 1095.76Z" fill="white"/>
<path fill-rule="evenodd" clip-rule="evenodd" d="M6006.07 1095.76C6006.07 1081.16 6017.73 1069.33 6032.11 1069.33C6046.49 1069.33 6058.15 1081.16 6058.15 1095.76C6058.15 1110.36 6046.49 1122.2 6032.11 1122.2C6017.73 1122.2 6006.07 1110.36 6006.07 1095.76Z" fill="white"/>
<path fill-rule="evenodd" clip-rule="evenodd" d="M5904.62 1095.76C5904.62 1081.16 5916.28 1069.33 5930.66 1069.33C5945.04 1069.33 5956.7 1081.16 5956.7 1095.76C5956.7 1110.36 5945.04 1122.2 5930.66 1122.2C5916.28 1122.2 5904.62 1110.36 5904.62 1095.76Z" fill="white"/>
<path fill-rule="evenodd" clip-rule="evenodd" d="M4756.9 599.19L4783.71 724.42L4364.69 779.06L4756.9 599.19Z" fill="#0081C3"/>
<path fill-rule="evenodd" clip-rule="evenodd" d="M4747.68 549.78L4764.47 629.2L4500.8 714.47L4747.68 549.78Z" fill="#1172BA"/>
<path fill-rule="evenodd" clip-rule="evenodd" d="M4685 496.02L4747.97 550.61L4524.51 702.03L4813.87 591.55L4892.17 640.04L4346.72 784.35L4685 496.02Z" fill="#2BAAE2"/>
<path fill-rule="evenodd" clip-rule="evenodd" d="M4263.95 3920.97L3955.78 3880.42C3947.88 3879.37 3938.99 3872.56 3935.93 3865.19L3816.97 3578.03C3813.92 3570.66 3815.38 3559.56 3820.24 3553.23L4009.44 3306.63C4014.3 3300.3 4024.64 3296.01 4032.55 3297.05L4340.71 3337.61C4348.62 3338.65 4357.51 3345.47 4360.56 3352.84L4479.52 3639.99C4482.58 3647.36 4481.12 3658.47 4476.26 3664.8L4287.06 3911.39C4282.2 3917.72 4271.85 3922.01 4263.95 3920.97Z" stroke="#2BAAE2" stroke-opacity="0.138889" stroke-width="15.78" stroke-linecap="round" stroke-linejoin="round"/>
<path fill-rule="evenodd" clip-rule="evenodd" d="M3699.56 2099.27L3469.13 2068.95C3463.22 2068.17 3456.57 2063.07 3454.29 2057.56L3365.33 1842.83C3363.05 1837.32 3364.14 1829.02 3367.77 1824.29L3509.25 1639.89C3512.88 1635.15 3520.62 1631.95 3526.54 1632.73L3756.97 1663.05C3762.88 1663.83 3769.53 1668.93 3771.81 1674.44L3860.77 1889.16C3863.05 1894.67 3861.96 1902.98 3858.33 1907.71L3716.85 2092.11C3713.22 2096.84 3705.48 2100.05 3699.56 2099.27Z" stroke="#2BAAE2" stroke-opacity="0.138889" stroke-width="15.78" stroke-linecap="round" stroke-linejoin="round"/>
<path fill-rule="evenodd" clip-rule="evenodd" d="M1880.07 2973.51L1711.25 2877.67C1706.91 2875.21 1703.37 2869.17 1703.33 2864.19L1701.92 2670.06C1701.88 2665.08 1705.34 2658.99 1709.64 2656.47L1877.05 2558.18C1881.35 2555.66 1888.34 2555.61 1892.68 2558.07L2061.5 2653.91C2065.84 2656.37 2069.38 2662.4 2069.42 2667.39L2070.83 2861.52C2070.86 2866.5 2067.41 2872.58 2063.11 2875.11L1895.7 2973.39C1891.4 2975.92 1884.41 2975.97 1880.07 2973.51Z" stroke="#2BAAE2" stroke-opacity="0.138889" stroke-width="15.78" stroke-linecap="round" stroke-linejoin="round"/>
<path fill-rule="evenodd" clip-rule="evenodd" d="M5215.52 1534.84L4851.64 1407.61C4842.3 1404.34 4833.24 1393.81 4831.4 1384.09L4759.64 1005.35C4757.8 995.63 4762.39 982.51 4769.88 976.06L5062.01 724.54C5069.51 718.09 5083.16 715.5 5092.5 718.77L5456.38 846C5465.72 849.26 5474.78 859.79 5476.62 869.51L5548.38 1248.26C5550.22 1257.98 5545.63 1271.09 5538.14 1277.55L5246.01 1529.06C5238.51 1535.52 5224.86 1538.1 5215.52 1534.84Z" stroke="#2BAAE2" stroke-opacity="0.138889" stroke-width="15.78" stroke-linecap="round" stroke-linejoin="round"/>
<path opacity="0.196035" fill-rule="evenodd" clip-rule="evenodd" d="M6584.81 1679.8C6511.39 1679.8 6450.42 1727.93 6442.24 1790.77C6435.28 1789.63 6428.26 1788.86 6421.18 1788.86C6361.32 1788.86 6312.18 1828.11 6312.18 1877.55C6312.18 1923.15 6354.24 1960.63 6408.71 1965.67C6408.71 1965.67 6421.26 1967.07 6426.06 1967.58C6439.77 1969.03 6454.66 1970.48 6470.18 1971.83C6492.73 1973.79 6514.71 1975.37 6535.4 1976.45C6554.75 1977.47 6572.47 1978.02 6588.21 1978.02C6627.75 1978.02 6665.85 1976.3 6717.09 1972.83C6722.86 1972.44 6754.45 1970.24 6762.62 1969.7C6821.07 1966.08 6867.09 1925.74 6867.09 1876.23C6867.09 1840.22 6842.5 1808.35 6804.99 1792.64C6801 1759.56 6769.77 1734.23 6732.28 1734.23C6723.41 1734.23 6714.76 1735.74 6706.56 1738.52C6680.49 1702.33 6634.91 1679.8 6584.81 1679.8Z" fill="#2BAAE2" fill-opacity="0.0631313" stroke="#2BAAE2" stroke-width="15.22" stroke-linecap="round" stroke-linejoin="round"/>
<path opacity="0.196035" fill-rule="evenodd" clip-rule="evenodd" d="M3837.26 55.6C3763.84 55.6 3702.87 103.73 3694.69 166.57C3687.73 165.44 3680.71 164.67 3673.63 164.67C3613.77 164.67 3564.63 203.92 3564.63 253.35C3564.63 298.96 3606.69 336.44 3661.16 341.48C3661.16 341.48 3673.71 342.88 3678.51 343.39C3692.22 344.83 3707.11 346.28 3722.63 347.64C3745.18 349.6 3767.16 351.18 3787.85 352.26C3807.2 353.27 3824.92 353.82 3840.66 353.82C3880.2 353.82 3918.3 352.11 3969.54 348.64C3975.31 348.24 4006.9 346.05 4015.07 345.51C4073.52 341.89 4119.54 301.55 4119.54 252.04C4119.54 216.02 4094.95 184.16 4057.44 168.45C4053.45 135.37 4022.22 110.04 3984.73 110.04C3975.86 110.04 3967.21 111.55 3959.01 114.32C3932.94 78.1299 3887.36 55.6 3837.26 55.6Z" fill="#2BAAE2" fill-opacity="0.0631313" stroke="#2BAAE2" stroke-width="15.22" stroke-linecap="round" stroke-linejoin="round"/>
<path opacity="0.196035" fill-rule="evenodd" clip-rule="evenodd" d="M1943.52 1334.39C1870.11 1334.39 1809.13 1382.52 1800.96 1445.36C1794 1444.23 1786.97 1443.45 1779.9 1443.45C1720.03 1443.45 1670.9 1482.7 1670.9 1532.14C1670.9 1577.74 1712.95 1615.22 1767.43 1620.27C1767.43 1620.27 1779.97 1621.66 1784.77 1622.17C1798.48 1623.62 1813.38 1625.07 1828.9 1626.42C1851.45 1628.39 1873.43 1629.96 1894.12 1631.05C1913.47 1632.06 1931.19 1632.61 1946.93 1632.61C1986.46 1632.61 2024.56 1630.89 2075.81 1627.42C2081.58 1627.03 2113.17 1624.83 2121.34 1624.3C2179.78 1620.67 2225.81 1580.34 2225.81 1530.83C2225.81 1494.81 2201.21 1462.95 2163.71 1447.23C2159.71 1414.15 2128.49 1388.83 2090.99 1388.83C2082.13 1388.83 2073.48 1390.33 2065.27 1393.11C2039.21 1356.92 1993.62 1334.39 1943.52 1334.39Z" fill="#2BAAE2" fill-opacity="0.0631313" stroke="#2BAAE2" stroke-width="15.22" stroke-linecap="round" stroke-linejoin="round"/>
<path opacity="0.196035" fill-rule="evenodd" clip-rule="evenodd" d="M5002.07 2952.17C4928.65 2952.17 4867.67 3000.3 4859.5 3063.14C4852.54 3062.01 4845.51 3061.24 4838.44 3061.23C4778.58 3061.24 4729.44 3100.49 4729.44 3149.92C4729.44 3195.53 4771.49 3233.01 4825.97 3238.05C4825.97 3238.05 4838.51 3239.45 4843.32 3239.95C4857.03 3241.4 4871.92 3242.85 4887.44 3244.2C4909.99 3246.17 4931.97 3247.75 4952.66 3248.83C4972.01 3249.84 4989.73 3250.39 5005.47 3250.39C5045.01 3250.39 5083.11 3248.67 5134.35 3245.2C5140.12 3244.81 5171.71 3242.62 5179.88 3242.08C5238.33 3238.45 5284.35 3198.12 5284.35 3148.61C5284.35 3112.59 5259.76 3080.73 5222.25 3065.02C5218.25 3031.93 5187.03 3006.61 5149.53 3006.61C5140.67 3006.61 5132.02 3008.11 5123.82 3010.89C5097.75 2974.7 5052.16 2952.17 5002.07 2952.17Z" fill="#2BAAE2" fill-opacity="0.0631313" stroke="#2BAAE2" stroke-width="15.22" stroke-linecap="round" stroke-linejoin="round"/>
<path fill-rule="evenodd" clip-rule="evenodd" d="M3430.32 850.28L3404.95 800.88L3446.73 800.6C3472.07 800.43 3492.31 779.95 3491.94 754.86L3489.98 620.83C3489.53 590.3 3464.18 565.55 3433.34 565.55H3171.88C3145.61 565.55 3124.83 586.63 3125.49 612.65L3128.91 749.17C3129.62 777.42 3153.33 800.46 3181.86 800.62L3327.51 801.93L3430.32 850.28Z" fill="#2BAAE2"/>
<path fill-rule="evenodd" clip-rule="evenodd" d="M3231.9 716.76C3214.67 716.65 3200.94 702.05 3201.24 684.15L3201.28 681.53C3201.64 659.8 3218.89 642.18 3239.81 642.18H3296.15C3316.58 642.18 3332.65 659.38 3332.05 680.6L3332.04 680.99C3331.48 700.65 3315.68 716.69 3296.76 716.83L3263.75 717.07C3261.71 717.08 3258.59 717.84 3256.76 718.77L3227.73 729.63C3223.76 731.11 3222.6 729.57 3225.15 726.17L3232.16 716.84C3232.19 716.79 3232.18 716.76 3232.12 716.76H3231.9Z" fill="#E0E0E0"/>
<path fill-rule="evenodd" clip-rule="evenodd" d="M3372.48 671.17V657.82C3383.31 656.57 3391.07 652.58 3395.77 645.85H3409.85V711.57H3390.88V665.05C3387.05 667.63 3380.91 669.67 3372.48 671.17Z" fill="#E0E0E0"/>
<path d="M4805.25 550.42C4805.25 550.42 5166.09 230.75 5599.8 322.23C6033.52 413.72 6124.59 889.38 6487.32 1174.32C6850.05 1459.26 7210.65 1623.76 7177.58 2109.69C7135 2735.25 6059.95 2169.01 5824.96 2592.33C5589.97 3015.65 6308.59 3233.72 6308.59 3233.72" stroke="#2BAAE2" stroke-opacity="0.237374" stroke-width="15.22" stroke-linecap="round" stroke-linejoin="round" stroke-dasharray="50 50 50 50"/>
<path fill-rule="evenodd" clip-rule="evenodd" d="M5969.36 4083.44C5969.36 4083.44 5986.29 3924.59 6032.63 3886.24C6078.96 3847.88 6109.66 3952.15 6145.58 3899.58C6181.49 3847.01 6129.92 3785.48 6192.25 3712.48C6239.76 3656.84 6279.02 3766.19 6326.35 3717.54C6373.68 3668.88 6327.6 3568.38 6372.79 3497.89C6417.98 3427.39 6476.84 3472.91 6507.1 3435.56C6537.99 3397.44 6483.91 3330.36 6555.18 3289.82C6632.82 3245.66 6622.38 3345.86 6680.33 3338.75C6723.89 3333.4 6780.15 3221.29 6836.66 3301.19C6884.08 3368.25 6812.17 3445.01 6799.21 3511.1C6782.92 3594.21 6835.76 3605.06 6781.73 3684.87C6745.05 3739.05 6689.97 3677.03 6650.51 3725.86C6611.05 3774.69 6682.2 3826.8 6623.89 3880.19C6565.57 3933.58 6478.81 3884.5 6441.64 3924.82C6404.48 3965.14 6443.92 4079.32 6391.44 4127.77C6338.97 4176.21 6279.8 4112.61 6221.13 4151.61C6162.47 4190.62 6218.43 4285.79 6159.48 4324.45C6100.54 4363.11 5971.57 4287.84 5971.57 4287.84L5969.36 4083.44Z" fill="#0081C3"/>
<path fill-rule="evenodd" clip-rule="evenodd" d="M5687.36 4127.51C5687.36 4127.51 5640.45 3931.65 5687.4 3860.88C5734.36 3790.11 5787.56 3871.18 5813.86 3789.52C5840.16 3707.86 5765.09 3681.34 5830.75 3568.23C5895.13 3457.3 5930.53 3543.87 5974.3 3460.46C6018.08 3377.05 5955.63 3352.05 5986.79 3244.2C6017.94 3136.35 6106.68 3167.97 6136.49 3109.73C6163.99 3055.99 6071.32 2992.68 6151.7 2905.5C6239.26 2810.52 6261.93 2898.9 6338.73 2858.35C6396.46 2827.86 6495.73 2721.05 6576.87 2767.66C6659.04 2814.86 6567.61 2909.83 6578.97 2994.6C6593.25 3101.21 6670.95 3084.58 6631.72 3208.29C6605.09 3292.26 6529.31 3263.88 6506.38 3329.07C6483.45 3394.26 6557.2 3430.18 6500.37 3525.26C6443.54 3620.33 6344.19 3611.79 6307.42 3684.48C6273.25 3752.03 6340.19 3859 6289.23 3945.02C6238.27 4031.04 6158.08 4011.15 6094.41 4089.52C6030.74 4167.9 6120.46 4226.64 6056.24 4304.77C5992.03 4382.9 5780.82 4366.2 5780.82 4366.2L5687.36 4127.51Z" fill="#2BAAE2"/>
<path fill-rule="evenodd" clip-rule="evenodd" d="M5667.34 4299.07C5667.34 4299.07 5524.35 4189.88 5519.57 4111.18C5514.8 4032.48 5609.88 4033.91 5584.58 3964.32C5559.29 3894.74 5490.43 3938.34 5463.77 3824.42C5443.45 3737.61 5549.49 3715.77 5535.65 3631.82C5521.82 3547.87 5419.51 3582.5 5383.57 3493.31C5347.63 3404.13 5430.67 3339.58 5415.92 3283.56C5400.87 3226.38 5300.69 3276.19 5310.8 3162.08C5321.81 3037.78 5409.46 3089.93 5442.12 3006.86C5466.67 2944.41 5398.91 2824.22 5512.87 2775.86C5608.51 2735.28 5632.21 2863.89 5685.89 2906.71C5753.4 2960.55 5799.58 2891.32 5838.32 2996.27C5864.62 3067.52 5768.54 3120.63 5787.89 3193.72C5807.24 3266.82 5904.87 3187.69 5915.72 3288.66C5926.57 3389.63 5849.39 3481.52 5862.25 3548.24C5875.11 3614.95 5981.69 3613.17 5991.83 3704.18C6001.97 3795.18 5923.53 3848.16 5920.53 3944.2C5917.54 4040.24 6023.66 4003.6 6020.15 4099.9C6016.64 4196.2 6020.38 4358.75 5848.82 4367.03C5709.42 4373.76 5667.34 4299.07 5667.34 4299.07Z" fill="#0081C3"/>
<path fill-rule="evenodd" clip-rule="evenodd" d="M5893.82 4222.01L6071.36 4254.22C6075.92 4255.05 6082.4 4252.15 6085.85 4247.75L6219.9 4076.12C6223.34 4071.72 6225.22 4063.9 6224.1 4058.67L6180.61 3854.83C6179.49 3849.6 6174.89 3844.69 6170.34 3843.86L5992.79 3811.64C5988.24 3810.82 5981.75 3813.72 5978.31 3818.12L5844.26 3989.75C5840.82 3994.15 5838.94 4001.96 5840.05 4007.2L5883.55 4211.04C5884.66 4216.27 5889.26 4221.18 5893.82 4222.01Z" stroke="#2BAAE2" stroke-opacity="0.138889" stroke-width="15.78" stroke-linecap="round" stroke-linejoin="round"/>
<path fill-rule="evenodd" clip-rule="evenodd" d="M1819.23 4098.21C1819.23 4098.21 1803.46 3951.73 1846.86 3910C1890.26 3868.27 1947.32 3958.13 1975.98 3905.1C2004.64 3852.06 1933.57 3804.07 1987.28 3728.54C2028.22 3670.98 2095.96 3764.15 2138.23 3712.94C2180.49 3661.74 2107.06 3577.61 2142.15 3506.93C2177.25 3436.26 2252.96 3468.64 2278.62 3430.25C2304.81 3391.06 2229.74 3338.42 2300.52 3290.96C2377.63 3239.26 2387.84 3331.63 2451.04 3316.46C2498.55 3305.06 2536.94 3195.02 2617.52 3258.91C2685.16 3312.54 2621.56 3392.91 2621.52 3454.74C2621.45 3532.5 2682.87 3534.38 2639.93 3614.82C2610.77 3669.44 2535.68 3621.53 2502.25 3671.71C2468.82 3721.9 2559.71 3758.4 2506.2 3815.56C2452.7 3872.71 2345.04 3841.29 2312.31 3883.41C2279.59 3925.54 2348.59 4023.07 2300.54 4074.86C2252.48 4126.65 2172.47 4077.93 2115.44 4122.09C2058.41 4166.26 2141.71 4244.08 2084.29 4287.98C2026.87 4331.87 1866.32 4283.08 1866.32 4283.08L1819.23 4098.21Z" fill="#0081C3"/>
<path fill-rule="evenodd" clip-rule="evenodd" d="M1573.05 4145.42C1573.05 4145.42 1447.69 3990.77 1471.08 3915.26C1494.48 3839.75 1582.69 3893.39 1579.71 3814.82C1576.74 3736.26 1485.9 3736.43 1513.2 3618.63C1539.97 3503.11 1611.14 3566.95 1626.28 3481.51C1641.42 3396.07 1564.74 3393.68 1556.96 3291.01C1549.18 3188.35 1656.66 3188.39 1666.43 3128.96C1675.43 3074.13 1551.6 3047.95 1604.64 2948.01C1662.42 2839.13 1720.6 2908.45 1787.64 2849.85C1838.03 2805.8 1903.87 2683.12 2008.93 2698.42C2115.31 2713.91 2053.36 2823.97 2098 2893.65C2154.14 2981.28 2231.3 2943.06 2236.46 3061.88C2239.96 3142.55 2147.65 3141.33 2147.94 3204.64C2148.24 3267.95 2241.25 3276.3 2216.54 3375.82C2191.83 3475.34 2081.77 3498.5 2070.05 3572.53C2059.16 3641.33 2172.05 3713.09 2150.18 3803C2128.31 3892.9 2034.51 3900.37 1996.05 3987.58C1957.6 4074.79 2076.51 4097.93 2037.38 4185.09C1998.24 4272.25 1767.43 4310.81 1767.43 4310.81L1573.05 4145.42Z" fill="#2BAAE2"/>
<path fill-rule="evenodd" clip-rule="evenodd" d="M1617.16 4299.64C1617.16 4299.64 1421.69 4249.33 1386.44 4182.87C1351.2 4116.41 1453.95 4088.43 1400.14 4036.14C1346.33 3983.84 1289 4042.63 1216.75 3952.5C1161.7 3883.81 1267.32 3832.38 1220.34 3764.17C1173.35 3695.97 1076.62 3757.28 1003.87 3691.35C931.11 3625.41 995.68 3544.19 958.4 3500.36C920.34 3455.63 831.72 3529.4 798.92 3427.81C763.2 3317.13 877.37 3335.22 880.7 3253.48C883.2 3192.04 764.38 3109.12 868.37 3032.37C955.64 2967.96 1030.33 3071.69 1104.41 3092.15C1197.57 3117.89 1220.72 3043.94 1302.52 3122.63C1358.05 3176.05 1275.09 3251.4 1323.85 3308.55C1372.62 3365.7 1447.29 3267.4 1497.58 3351.22C1547.87 3435.04 1500.07 3538.06 1539.42 3591.7C1578.77 3645.33 1692.65 3611.05 1738.36 3686.49C1784.08 3761.92 1720.03 3831.75 1753.55 3915.56C1787.08 3999.38 1887.13 3935.15 1920.2 4019.35C1953.27 4103.55 1840.84 4204.19 1826.18 4306.34C1821.15 4341.41 1617.16 4299.64 1617.16 4299.64Z" fill="#0081C3"/>
<path fill-rule="evenodd" clip-rule="evenodd" d="M2255.67 4098.3L2275.97 4242.16L2324.91 4242.86L2333.95 4070.06L2255.67 4098.3Z" fill="#AB7C59"/>
<path fill-rule="evenodd" clip-rule="evenodd" d="M2545.23 4105.62L2558.62 4236.38L2604.47 4234.81L2616.27 4100.91L2545.23 4105.62Z" fill="#AB7C59"/>
<path fill-rule="evenodd" clip-rule="evenodd" d="M2255.43 4223.2C2255.43 4223.2 2211.96 4280.01 2239.62 4329.79L2336.39 4343.96C2336.39 4343.96 2458.92 4374.69 2492.54 4364.55C2526.15 4354.42 2469.7 4314.28 2469.7 4314.28L2384.44 4260.68L2335.32 4225.37L2255.43 4223.2Z" fill="#272361"/>
<path fill-rule="evenodd" clip-rule="evenodd" d="M2541.7 4217.28C2541.7 4217.28 2498.23 4274.09 2525.89 4323.87L2622.66 4338.03C2622.66 4338.03 2745.18 4368.77 2778.8 4358.63C2812.42 4348.49 2755.97 4308.36 2755.97 4308.36L2670.71 4254.75L2621.59 4219.45L2541.7 4217.28Z" fill="#272361"/>
<path fill-rule="evenodd" clip-rule="evenodd" d="M2143.83 2602.29C2143.83 2602.29 2071.39 3911.22 2178.29 4272.67C2178.29 4272.67 2250.13 4283.59 2309.52 4273.82C2368.91 4264.05 2411.44 4240.5 2411.44 4240.5C2454.24 3844.5 2453.73 2962.26 2453.73 2962.26C2453.73 2962.26 2387.2 3897.36 2486.53 4238.53C2486.53 4238.53 2546.76 4250.19 2601.86 4250.7C2656.96 4251.2 2713.48 4222.34 2713.48 4222.34C2786.3 3854.94 2674.85 2605.04 2674.85 2605.04L2143.83 2602.29Z" fill="#2E3690"/>
<path fill-rule="evenodd" clip-rule="evenodd" d="M2489.27 2852.69C2489.27 2852.69 2497.44 2895.87 2479.73 2918.36C2462.02 2940.85 2457.94 2934.08 2455.85 2953.98C2449.29 3016.6 2456.82 2997.22 2459.28 3193.87C2461.73 3390.51 2447.6 3682.95 2439.17 3831.43C2434.87 3907.19 2450.96 4063.58 2470.43 4160.03C2480.76 4211.2 2487.3 4239.73 2487.3 4239.73C2487.3 4239.73 2464.01 3686.41 2477.09 3391.58C2490.54 3088.49 2474.32 2966.7 2474.32 2966.7C2474.32 2966.7 2471.09 2943.07 2484.7 2928.28C2508.65 2902.24 2489.27 2852.69 2489.27 2852.69Z" fill="#272361"/>
<path fill-rule="evenodd" clip-rule="evenodd" d="M2404.1 1577.43C2429.35 1536.67 2356.63 1228.94 2356.63 1228.94C2356.63 1228.94 2460.11 1258.42 2537.04 1251.53C2551.25 1250.26 2553.07 1249.79 2565.5 1245.61C2567.21 1245.03 2587.03 1273.48 2594.92 1300.11C2604.68 1333.05 2604.58 1363.26 2606.05 1359.72C2607.76 1355.61 2606.55 1318.4 2597.54 1284.9C2590.6 1259.13 2570.56 1219.28 2570.56 1219.28L2445.13 1172.73L2296.83 1241.43C2296.83 1241.43 2291.59 1349.17 2321.99 1551.29C2329.24 1599.45 2204.02 1545.17 2176.4 1635.58C2148.77 1726 2204.96 1795.25 2100.99 1788.48C2038.24 1784.39 2324.3 1835.24 2355.71 1826.22C2413.35 1809.67 2378.85 1618.2 2404.1 1577.43Z" fill="#135EAB"/>
<path fill-rule="evenodd" clip-rule="evenodd" d="M2321.4 1551.13C2321.4 1551.13 2327.98 1554.74 2337.21 1557.82C2346.43 1560.89 2358.3 1563.44 2358.3 1563.44L2355.97 1528.32C2355.97 1528.32 2347.25 1526.48 2337.42 1523.07C2327.58 1519.65 2316.63 1514.66 2316.63 1514.66C2316.63 1514.66 2315.25 1525.43 2316.51 1535.15C2317.76 1544.86 2321.4 1551.13 2321.4 1551.13Z" fill="#272361"/>
<path fill-rule="evenodd" clip-rule="evenodd" d="M2348.32 1481.97C2348.32 1481.97 2358.57 1552.89 2355.39 1609.36C2352.21 1665.82 2335.61 1707.83 2335.61 1707.83C2335.61 1707.83 2332.6 1789.48 2383.4 1814.13C2434.2 1838.77 2538.82 1806.41 2538.82 1806.41C2538.82 1806.41 2506.18 1709.77 2506.5 1632.81C2506.81 1555.85 2540.09 1498.58 2540.09 1498.58L2348.32 1481.97Z" fill="#AB7C59"/>
<path fill-rule="evenodd" clip-rule="evenodd" d="M2332.22 1477.32C2332.22 1477.32 2358.57 1552.89 2355.39 1609.36C2352.21 1665.82 2335.61 1707.83 2335.61 1707.83C2335.61 1707.83 2388.84 1659.2 2431.46 1645.83C2474.09 1632.46 2507.89 1611.37 2507.89 1611.37C2507.89 1611.37 2509.18 1587.74 2511.67 1572.27C2522.18 1506.85 2540.09 1498.58 2540.09 1498.58L2332.22 1477.32Z" fill="#896447"/>
<path fill-rule="evenodd" clip-rule="evenodd" d="M2134.16 2677.06C2134.16 2677.06 2122.92 2694.7 2122.89 2711.7C2122.85 2728.69 2133.05 2745.61 2133.05 2745.61C2133.05 2745.61 2263.75 2759.87 2401.68 2761.11C2539.6 2762.35 2684.75 2750.58 2684.75 2750.58C2684.75 2750.58 2691.83 2739.38 2690.83 2722.23C2689.83 2705.07 2682.93 2685.05 2682.93 2685.05L2134.16 2677.06Z" fill="#1172BA"/>
<path fill-rule="evenodd" clip-rule="evenodd" d="M2345.4 1685.82C2345.4 1685.82 2384.58 1736.88 2430.87 1746.18C2485.79 1757.21 2528.28 1704.64 2528.28 1704.64C2528.28 1704.64 2659.21 1716.12 2741.9 1800.47C2824.6 1884.81 2815.94 1918.25 2839.64 2040.9C2863.34 2163.55 2868.76 2188.76 2864.75 2241.72C2857.95 2331.37 2916.75 2426.72 2910.75 2468.72C2904.38 2513.28 2932.22 2586.24 2883.22 2617.84C2826.29 2654.56 2801.49 2595.78 2784.47 2571.36C2765.49 2544.13 2750.11 2511.23 2750.11 2511.23C2750.11 2511.23 2759.03 2631.19 2774.75 2651.72C2832 2726.53 2502.53 2714.72 2412.34 2711.59C2259.08 2706.27 2125.14 2753.05 2069.25 2648.69C2016.79 2550.74 2095.56 2399.84 2095.56 2399.84C2095.56 2399.84 1990.67 2095.55 2050.04 1923.35C2109.41 1751.15 2345.4 1685.82 2345.4 1685.82Z" fill="#2BAAE2"/>
<path fill-rule="evenodd" clip-rule="evenodd" d="M2270.85 1980.31C2289.87 1887.6 2258.29 1818.69 2204.98 1810.17C2149.83 1801.36 2078.37 1797.16 2038.1 1955.08C1997.84 2113 2014.06 2403.64 2061.56 2490.45C2086.72 2536.42 2110.02 2568.58 2110.02 2568.58L2196.76 2704.09C2196.76 2704.09 2222.16 2701.61 2247.03 2696.25C2271.9 2690.88 2295.8 2687.81 2295.8 2687.81C2295.8 2687.81 2293.23 2559.46 2269.92 2441.61C2249.88 2340.29 2209.52 2292.71 2200.9 2280.31C2168.01 2232.98 2251.84 2073.02 2270.85 1980.31Z" fill="#1172BA"/>
<path fill-rule="evenodd" clip-rule="evenodd" d="M2281.49 2701.2C2281.49 2701.2 2266.63 2617.62 2238.68 2519.64C2210.73 2421.66 2213.76 2426.45 2192.57 2369.03C2160.76 2282.83 2121.15 2266.56 2153.82 2165.49C2187.06 2062.68 2174.23 1997.46 2124.55 1973.86C2093.15 1958.94 2053.77 2013.36 2043.76 2116.45C2033.76 2219.54 2061.99 2322.97 2084.53 2386.21C2107.07 2449.44 2129.51 2483.42 2156.42 2551.1C2203.12 2668.54 2230.13 2713.28 2230.13 2713.28C2230.13 2713.28 2214.4 2903.69 2230.55 2898.21C2246.7 2892.73 2229.73 2842.22 2240.43 2838.75C2251.13 2835.28 2252.45 2923.37 2268.66 2917.09C2284.86 2910.81 2256.89 2840.14 2265.03 2837.97C2273.17 2835.81 2285.2 2915.28 2301.2 2908.43C2317.2 2901.59 2284.46 2824.49 2293.31 2820.34C2302.15 2816.19 2323.02 2899.5 2336.59 2891.84C2350.16 2884.17 2310.26 2813.28 2318.79 2792.64C2327.32 2772 2367.8 2829.02 2370.72 2809.26C2373.63 2789.51 2281.49 2701.2 2281.49 2701.2Z" fill="#AB7C59"/>
<path fill-rule="evenodd" clip-rule="evenodd" d="M2273.93 1946.2C2292.95 1853.48 2256.33 1793.49 2203.02 1784.98C2147.87 1776.16 2067.02 1793.67 2026.76 1951.59C1986.49 2109.51 1952.74 2359.8 2020.42 2432C2080.03 2495.59 2194.67 2711.97 2194.67 2711.97C2194.67 2711.97 2211.18 2669.24 2236.69 2663.13C2262.2 2657.01 2296.71 2687.53 2296.71 2687.53C2296.71 2687.53 2277.77 2523.19 2264.24 2437.87C2259.03 2405.02 2246.73 2372.94 2233.96 2346.39C2218.17 2313.59 2201.65 2289.25 2196.89 2282.4C2163.99 2235.07 2254.92 2038.91 2273.93 1946.2Z" fill="#2BAAE2"/>
<path fill-rule="evenodd" clip-rule="evenodd" d="M2252.41 1247.11C2223.67 1322.58 2260.96 1377.48 2284.35 1423.36C2293.82 1441.93 2303.85 1478.81 2351.02 1544.29C2379.26 1583.5 2469.95 1618.19 2516.54 1613.79C2575.96 1608.18 2610.21 1473.54 2606.23 1374.11C2604.05 1319.58 2593.5 1266.9 2566.65 1236.34C2544.54 1211.16 2532.55 1179.05 2492.34 1165.71C2403.31 1136.16 2269.59 1202.01 2252.41 1247.11Z" fill="#AB7C59"/>
<path fill-rule="evenodd" clip-rule="evenodd" d="M2260.94 1450.45C2278.65 1474.24 2327.25 1535.58 2324.76 1510.26C2316.07 1421.79 2371.01 1414.63 2371.01 1414.63C2371.01 1414.63 2351.64 1349.13 2381.42 1296.54C2409.01 1247.8 2450.29 1219.3 2524.08 1226.99C2573.12 1232.11 2589.16 1277.52 2597.05 1304.15C2606.81 1337.09 2606.7 1367.3 2608.18 1363.76C2609.89 1359.65 2605.03 1293.26 2602.27 1276.06C2599.5 1258.86 2587.28 1216.3 2568.77 1197.08C2543.68 1171.02 2506.31 1136.58 2456.01 1129.76C2397.77 1121.87 2318.46 1139.28 2265.42 1203.83C2242.88 1231.27 2215.78 1288.03 2217.34 1334.98C2219.43 1398.15 2245.17 1429.28 2260.94 1450.45Z" fill="#135EAB"/>
<path fill-rule="evenodd" clip-rule="evenodd" d="M2703.5 2009.3C2703.5 2009.3 2688.86 2152.79 2692.97 2246.89C2697.07 2340.99 2705.04 2306.16 2720.54 2375.82C2736.04 2445.49 2751.18 2528.14 2751.18 2528.14L2749.47 2508.65C2756.28 2522.52 2771.57 2553.29 2785.04 2573.29C2802.15 2598.7 2833.93 2623.45 2833.93 2623.45C2833.93 2623.45 2795.45 2576.12 2813.81 2576.8C2832.18 2577.48 2857.91 2576.98 2871.85 2563.04C2888.36 2546.54 2897.19 2561.32 2905.01 2576.7C2912.84 2592.09 2880.56 2609 2880.56 2609L2836.8 2626.73C2836.8 2626.73 2772.76 2564.31 2751.57 2505.08C2750.72 2502.7 2749.74 2510.75 2749.04 2508.39C2732.89 2454.34 2736.29 2446.37 2724.48 2374.76C2712.81 2304.01 2703.76 2337.51 2698.2 2246.3C2692.64 2155.09 2703.5 2009.3 2703.5 2009.3Z" fill="#1172BA"/>
<path fill-rule="evenodd" clip-rule="evenodd" d="M2848.87 2610.94L2843.64 2580.68C2843.64 2580.68 2853.84 2569.83 2868.41 2569.28C2882.98 2568.74 2897.29 2572.14 2897.29 2572.14L2900.58 2600.43C2900.58 2600.43 2994.52 2766.8 2977.56 2768.58C2960.59 2770.36 2954.89 2717.38 2943.71 2718.7C2932.54 2720.02 2968.19 2800.59 2950.84 2801.67C2933.5 2802.74 2929.34 2726.85 2921.04 2728.29C2912.75 2729.72 2935.06 2806.94 2917.66 2807.42C2900.26 2807.89 2897.75 2724.16 2887.98 2724.1C2878.21 2724.03 2894.11 2808.43 2878.57 2807.15C2863.04 2805.86 2869.63 2724.78 2853.25 2709.6C2836.87 2694.42 2823.95 2763.14 2813.04 2746.42C2802.12 2729.69 2848.87 2610.94 2848.87 2610.94Z" fill="#AB7C59"/>
<path fill-rule="evenodd" clip-rule="evenodd" d="M2427.06 1399.65C2425.96 1391.17 2431.19 1383.95 2438.73 1383.53C2446.28 1383.11 2453.28 1389.65 2454.38 1398.13C2455.48 1406.62 2450.25 1413.83 2442.7 1414.25C2435.16 1414.67 2428.15 1408.14 2427.06 1399.65Z" fill="#272361"/>
<path fill-rule="evenodd" clip-rule="evenodd" d="M2544.85 1393.54C2543.66 1385.05 2549.19 1377.85 2557.2 1377.45C2565.21 1377.06 2572.68 1383.62 2573.87 1392.11C2575.07 1400.6 2569.54 1407.8 2561.53 1408.2C2553.51 1408.59 2546.05 1402.03 2544.85 1393.54Z" fill="#272361"/>
<path fill-rule="evenodd" clip-rule="evenodd" d="M2456.15 1509.13C2454.1 1499.49 2488.16 1511.26 2514.59 1509.21C2541.02 1507.16 2553.47 1502.07 2555.52 1511.71C2557.56 1521.36 2544.33 1541.43 2517.9 1543.48C2491.46 1545.54 2458.19 1518.77 2456.15 1509.13Z" fill="#E0E0E0"/>
<path fill-rule="evenodd" clip-rule="evenodd" d="M2543.75 1329.33L2569.86 1331.28C2574.62 1331.64 2578.27 1334.75 2578.03 1338.24C2577.79 1341.72 2573.73 1344.25 2568.98 1343.9L2542.87 1341.94C2538.11 1341.59 2534.46 1338.47 2534.7 1334.99C2534.95 1331.51 2539 1328.97 2543.75 1329.33Z" fill="#272361"/>
<path fill-rule="evenodd" clip-rule="evenodd" d="M2418.02 1328.92L2444.12 1326.86C2448.88 1326.48 2452.97 1329 2453.26 1332.48C2453.55 1335.96 2449.93 1339.09 2445.18 1339.46L2419.08 1341.53C2414.33 1341.9 2410.24 1339.39 2409.94 1335.91C2409.65 1332.43 2413.27 1329.3 2418.02 1328.92Z" fill="#272361"/>
<path fill-rule="evenodd" clip-rule="evenodd" d="M2388.78 1399.87C2390.31 1372.67 2414.18 1351.89 2442.09 1353.46C2469.99 1355.03 2491.38 1378.36 2489.85 1405.56C2488.31 1432.77 2464.45 1453.55 2436.54 1451.98C2408.63 1450.41 2387.25 1427.08 2388.78 1399.87Z" stroke="#828282" stroke-width="8.77" stroke-linecap="round" stroke-linejoin="round"/>
<path fill-rule="evenodd" clip-rule="evenodd" d="M2519.5 1395.43C2521 1368.7 2544.21 1348.28 2571.34 1349.81C2598.46 1351.33 2619.23 1374.23 2617.72 1400.96C2616.22 1427.68 2593.01 1448.11 2565.89 1446.58C2538.76 1445.05 2518 1422.15 2519.5 1395.43Z" stroke="#828282" stroke-width="8.77" stroke-linecap="round" stroke-linejoin="round"/>
<path d="M2491.76 1393.28C2491.76 1393.28 2497.77 1390.18 2503.7 1389.89C2509.64 1389.61 2515.51 1392.13 2515.51 1392.13" stroke="#828282" stroke-width="8.77" stroke-linecap="round" stroke-linejoin="round"/>
<path d="M2616.65 1389.41L2606.09 1389.52" stroke="#828282" stroke-width="7.95" stroke-linejoin="round"/>
<path d="M2385.72 1404.34L2263.51 1415.95" stroke="#828282" stroke-width="8.86" stroke-linecap="round" stroke-linejoin="round"/>
<path fill-rule="evenodd" clip-rule="evenodd" d="M2355.64 1393.99C2337.22 1366.05 2318.8 1359.32 2304.9 1364C2291 1368.67 2286.45 1381.37 2291.54 1408.21C2295.52 1429.16 2309.03 1451.99 2323.47 1466.55C2334.03 1477.2 2351.11 1468.54 2354.54 1463.76C2357.96 1458.99 2376.37 1473.65 2378.58 1475.75C2380.79 1477.85 2374.06 1421.92 2355.64 1393.99Z" fill="#AB7C59"/>
<path fill-rule="evenodd" clip-rule="evenodd" d="M2343.94 1684.08C2343.94 1684.08 2393.65 1738.93 2437.7 1745.03C2481.76 1751.13 2520.6 1708.07 2520.6 1708.07C2520.6 1708.07 2530.06 1705.52 2538.02 1706.85C2545.99 1708.17 2552.41 1714.49 2552.41 1714.49C2552.41 1714.49 2501.86 1786.25 2448.21 1783.08C2379.86 1779.05 2311.66 1696.12 2311.66 1696.12C2311.66 1696.12 2316.78 1691.52 2324.91 1687.26C2333.04 1683 2343.94 1684.08 2343.94 1684.08Z" fill="#1172BA"/>
<path fill-rule="evenodd" clip-rule="evenodd" d="M2905.63 2577.71C2905.63 2577.71 2887.5 2567.71 2855.32 2584.56C2838.28 2593.48 2833.03 2603.4 2832.24 2611.41C2831.63 2617.6 2831.68 2625.98 2840.26 2624.67C2852.44 2622.81 2840.97 2628.13 2836.14 2627.04C2826.53 2624.86 2816.3 2609.85 2798.49 2591.02C2786.69 2578.53 2752.99 2518.5 2749.33 2509.09C2740.15 2485.47 2820.04 2488.22 2820.04 2488.22C2820.04 2488.22 2860.04 2473.95 2885.79 2480.06C2911.54 2486.17 2905.63 2577.71 2905.63 2577.71Z" fill="#2BAAE2"/>
<path fill-rule="evenodd" clip-rule="evenodd" d="M5187.14 1446.46C5209.42 1479.4 5183.55 1436.76 5210.83 1391.49C5227.42 1363.96 5200.6 1275.9 5224.56 1243.49C5248.53 1211.09 5266.85 1250.83 5266.85 1250.83C5266.85 1250.83 5400.82 1251.48 5386.9 1273.1C5372.99 1294.71 5434.3 1308.07 5446.75 1303.93C5448.47 1303.36 5475.26 1305.25 5483.03 1331.97C5492.65 1365.03 5507.76 1377.09 5509.26 1373.54C5510.98 1369.43 5510.24 1322.04 5509.47 1290.2C5508.7 1258.35 5500.8 1235.99 5500.8 1235.99C5500.8 1235.99 5500.87 1213.74 5472.39 1188.71C5443.91 1163.68 5390.32 1172.97 5390.32 1172.97C5390.32 1172.97 5391.62 1160.42 5331.71 1175.12C5303.14 1182.13 5285.33 1164.14 5285.33 1164.14C5285.33 1164.14 5195.56 1210.8 5181.04 1223.43C5148.99 1251.32 5121.82 1300.89 5085 1372.21C5030.74 1477.3 5094.75 1500.52 5050.31 1628.34C4982.63 1823.01 4918.44 1711.26 4903.64 1788.37C4888.83 1865.48 4916.17 1967.95 4994.16 1910.93C5000.43 1906.35 5085.66 1877.69 5094.23 1873.17C5146.25 1845.75 5439.42 1977.1 5552.56 1940.21C5620.45 1918.08 5512.28 1839.02 5546.52 1704.48C5583.2 1560.35 5484.94 1482.85 5510.16 1386.44C5520.83 1345.68 5145.97 1449.45 5147.63 1429.52C5149.03 1412.77 5178.8 1434.12 5187.14 1446.46Z" fill="#272361"/>
<path fill-rule="evenodd" clip-rule="evenodd" d="M5250.89 1494.92C5250.89 1494.92 5260.82 1566.05 5257.39 1622.63C5253.95 1679.22 5238.26 1706.9 5238.26 1706.9C5238.26 1706.9 5223.9 1741.75 5159.29 1755.73C5151.17 1757.48 5140.42 1763.69 5131.25 1768.02C5122.07 1772.34 5084.06 2052.2 5334.72 2085.33C5571.5 2116.64 5613.66 1817.83 5592.95 1810.03C5569.87 1801.35 5482.23 1773.03 5472.78 1768.5C5443.38 1754.38 5419.53 1737.62 5415.99 1732.07C5400.04 1707.11 5408.18 1676.72 5408.43 1646.82C5409.1 1569.69 5442.65 1512.43 5442.65 1512.43L5250.89 1494.92Z" fill="#FDBC8C"/>
<path fill-rule="evenodd" clip-rule="evenodd" d="M5250.89 1494.92C5250.89 1494.92 5260.82 1566.05 5257.39 1622.63C5253.95 1679.22 5238.24 1707.1 5238.24 1707.1C5238.24 1707.1 5290.62 1672.74 5333.32 1659.53C5376.02 1646.33 5409.92 1625.34 5409.92 1625.34C5409.92 1625.34 5411.33 1601.66 5413.88 1586.16C5424.69 1520.64 5442.65 1512.43 5442.65 1512.43L5250.89 1494.92Z" fill="#DFA58B"/>
<path fill-rule="evenodd" clip-rule="evenodd" d="M5180.96 1260.99C5144.06 1307.58 5182.81 1380.99 5186.86 1435.86C5188.39 1456.69 5153.87 1397.73 5145.25 1435.19C5140.64 1455.19 5168.39 1525.3 5190.47 1506.69C5212.55 1488.08 5226.8 1537.19 5248.34 1560.89C5284.38 1600.58 5315.53 1635.71 5378.57 1633.63C5427.63 1632 5454.2 1593.38 5480.42 1549C5511.04 1497.15 5508.51 1438.38 5506.76 1387.81C5504.86 1333.14 5493.63 1289.9 5467.11 1259.16C5445.27 1233.84 5412.28 1217.75 5372.42 1204.21C5284.15 1174.23 5231.86 1196.71 5180.96 1260.99Z" fill="#FDBC8C"/>
<path fill-rule="evenodd" clip-rule="evenodd" d="M5313.94 1529.59C5313.12 1519.74 5345.44 1535.73 5371.93 1537.02C5398.42 1538.31 5421.73 1530.59 5422.55 1540.44C5423.36 1550.28 5397.4 1572.81 5370.91 1571.52C5344.42 1570.23 5314.76 1539.43 5313.94 1529.59Z" fill="#E0E0E0"/>
<path fill-rule="evenodd" clip-rule="evenodd" d="M5277.59 1360.14L5315.48 1355.09C5322.38 1354.17 5328.79 1355.72 5329.8 1358.55C5330.81 1361.39 5326.04 1364.43 5319.14 1365.35L5281.25 1370.4C5274.36 1371.32 5267.94 1369.76 5266.93 1366.93C5265.92 1364.1 5270.7 1361.06 5277.59 1360.14Z" fill="#272361"/>
<path fill-rule="evenodd" clip-rule="evenodd" d="M5187.14 1446.46C5209.42 1479.4 5174.12 1436.31 5201.4 1391.04C5218 1363.51 5218.57 1374.94 5242.53 1342.53C5266.5 1310.13 5276.73 1277.13 5276.73 1277.13C5276.73 1277.13 5340.54 1265.61 5378.67 1301.41C5417.94 1338.29 5455.71 1307.7 5477.93 1343.6C5500.14 1379.49 5510.8 1396.88 5510.8 1396.88C5510.8 1396.88 5532.83 1351.93 5547.07 1299.86C5557.64 1261.19 5555.34 1221.44 5511.9 1172.84C5467.71 1123.37 5369.45 1132.04 5369.45 1132.04C5369.45 1132.04 5403.6 1093.38 5407.77 1044.7C5412.28 992.12 5376.95 912.74 5293.65 926.72C5203.66 941.83 5202.38 1020.65 5212.34 1059.95C5224.45 1107.74 5259.64 1142.62 5259.64 1142.62C5259.64 1142.62 5177.09 1142.93 5107.75 1196.79C5038.4 1250.66 4975.29 1321.19 4975.03 1478.45C4974.79 1624.17 4703.95 1591.05 4659.51 1718.87C4591.83 1913.54 4818.09 2018.3 4895.15 2107.92C5032.6 2267.76 4912.57 1966.48 5027.81 1905.72C5041.09 1898.72 5056.34 1792.32 5066.86 1784.89C5122.33 1745.72 5104.59 1733.95 5144.06 1673.12C5191.03 1600.75 5099.72 1498.47 5124.94 1402.05C5135.6 1361.3 5145.97 1449.45 5147.63 1429.52C5149.03 1412.77 5178.8 1434.12 5187.14 1446.46Z" fill="#272361"/>
<path fill-rule="evenodd" clip-rule="evenodd" d="M5419.07 1353.61L5457.04 1357.19C5463.95 1357.84 5469.1 1360.61 5468.53 1363.38C5467.96 1366.14 5461.89 1367.85 5454.98 1367.2L5417.01 1363.62C5410.1 1362.97 5404.95 1360.2 5405.52 1357.44C5406.09 1354.67 5412.16 1352.96 5419.07 1353.61Z" fill="#272361"/>
<path fill-rule="evenodd" clip-rule="evenodd" d="M5139.84 4101.33L5159.5 4245.61L5208.45 4246.54L5218.27 4073.38L5139.84 4101.33Z" fill="#FDBC8C"/>
<path fill-rule="evenodd" clip-rule="evenodd" d="M5437.11 4120.43L5442.27 4241.11L5488.14 4239.73L5491.85 4110.06L5437.11 4120.43Z" fill="#FDBC8C"/>
<path fill-rule="evenodd" clip-rule="evenodd" d="M5143.78 4220.75C5143.78 4220.75 5100.04 4277.5 5127.48 4327.52L5224.22 4342.15C5224.22 4342.15 5346.65 4373.51 5380.33 4363.5C5414 4353.5 5357.71 4313.01 5357.71 4313.01L5272.67 4258.9L5223.69 4223.29L5143.78 4220.75Z" fill="#272361"/>
<path fill-rule="evenodd" clip-rule="evenodd" d="M5425.42 4221.88C5425.42 4221.88 5381.69 4278.63 5409.13 4328.65L5505.87 4343.28C5505.87 4343.28 5628.29 4374.64 5661.97 4364.63C5695.64 4354.62 5639.35 4314.14 5639.35 4314.14L5554.31 4260.02L5505.33 4224.42L5425.42 4221.88Z" fill="#272361"/>
<path fill-rule="evenodd" clip-rule="evenodd" d="M5202.27 2427.33C5202.27 2427.33 5058.38 2642.77 5049.95 2821.46C5045.63 2913.1 5048.46 3234.62 5123.62 3410.03C5140.36 3449.1 5132.33 3483.43 5128.39 3527.14C5113.69 3690 5103.43 4008.38 5134.71 4116.12C5134.71 4116.12 5163.85 4133.36 5190.88 4133.86C5217.91 4134.35 5230.85 4113.49 5230.85 4113.49C5270.3 3860.34 5285.77 3463.62 5306.97 3202.2C5317.53 3072.12 5330.49 2939.21 5335.16 2907.87C5335.88 2903.08 5344.3 2906.45 5344.3 2906.45C5344.3 2906.45 5323.14 3782.05 5420.97 4124.47C5420.97 4124.47 5443 4140.16 5467.77 4141.26C5492.54 4142.36 5511.29 4129.92 5511.29 4129.92C5531.14 4031.86 5564.34 3742.23 5530.09 3507.09C5523.9 3464.58 5534.71 3427.07 5534.71 3427.07C5558.95 3334.6 5615.37 2971.46 5614.91 2836.58C5614.25 2646.71 5475.55 2440.01 5475.55 2440.01L5202.27 2427.33Z" fill="#2E3690"/>
<path d="M5369.42 2526.05C5369.42 2526.05 5386.92 2626.85 5376.92 2726.25C5366.92 2825.66 5342.21 2905.96 5342.21 2905.96" stroke="#135EAB" stroke-width="5" stroke-linejoin="round"/>
<path d="M5377.59 2705.55C5377.59 2705.55 5361.99 2717.68 5349.25 2698.81C5336.5 2679.93 5342.96 2522.99 5342.96 2522.99" stroke="#135EAB" stroke-width="5.01" stroke-linecap="round" stroke-linejoin="round"/>
<path fill-rule="evenodd" clip-rule="evenodd" d="M5335.4 2906.02L5329.29 2956.04C5329.29 2956.04 5326.65 2963.03 5309.27 3159.38C5308 3173.77 5302.26 3265.28 5301.24 3279.61C5288.32 3460.69 5304.76 3599.02 5261.21 3864.74C5214.39 4150.34 5220.18 4136.35 5220.18 4136.35C5220.18 4136.35 5265.7 3799.99 5275.04 3504.34C5284.65 3200.39 5305.59 3049.62 5305.59 3049.62C5305.59 3049.62 5311.44 2998.23 5320.03 2967.54C5328.62 2936.85 5335.4 2906.02 5335.4 2906.02Z" fill="#272361"/>
<path d="M5247.85 2509.49C5247.85 2509.49 5228.82 2543.55 5199.55 2558.49C5170.29 2573.43 5126.83 2569.12 5126.83 2569.12" stroke="#135EAB" stroke-width="5.01" stroke-linecap="round" stroke-linejoin="round"/>
<path d="M5433.47 2516.35C5433.47 2516.35 5446.09 2556.76 5473.65 2570.39C5501.21 2584.01 5543.64 2570.16 5543.64 2570.16" stroke="#135EAB" stroke-width="5.01" stroke-linecap="round" stroke-linejoin="round"/>
<path fill-rule="evenodd" clip-rule="evenodd" d="M5815.62 2097.36C5816.89 2129.36 5719.74 2214.49 5676.74 2253.54C5630.43 2295.6 5609.59 2236.5 5609.59 2236.5L5683.56 2129.76C5683.56 2129.76 5814.35 2065.36 5815.62 2097.36Z" fill="#2BAAE2"/>
<path fill-rule="evenodd" clip-rule="evenodd" d="M5979.57 1902.06C5979.57 1902.06 5970.1 1913.55 5949.28 1993.82C5928.45 2074.09 5915.03 2191.07 5896.28 2223.14C5888.35 2236.7 5800.69 2127.96 5745.95 2019.59C5693.42 1915.61 5668.21 1898.07 5618.65 1870.79C5569.1 1843.51 5543.8 1877.35 5547.72 1910.47C5551.65 1943.59 5544.56 2018.63 5618.91 2086.77C5653.73 2118.68 5690.85 2161.06 5727.86 2201.79C5801.8 2283.14 5875.28 2357.87 5928.94 2329.25C6009.47 2286.3 6016.07 2027.62 6016.07 2027.62L6027.7 1914.83C6027.7 1914.83 6128.75 1765.98 6114.02 1762.02C6099.3 1758.05 6089.63 1805.53 6079.94 1802.79C6070.26 1800.04 6108.62 1731.56 6093.49 1728.18C6078.37 1724.81 6068.05 1793.38 6060.89 1790.92C6053.74 1788.47 6080.11 1721.2 6064.89 1718.37C6049.67 1715.53 6040.1 1791.46 6031.52 1790.18C6022.94 1788.89 6044.31 1714.19 6030.57 1713.22C6016.83 1712.24 6015.49 1787.02 5999.78 1798.59C5984.07 1810.16 5978.78 1745.76 5967.74 1759.49C5956.69 1773.23 5979.57 1902.06 5979.57 1902.06Z" fill="#FDBC8C"/>
<path fill-rule="evenodd" clip-rule="evenodd" d="M5154.68 1757.36C5154.68 1757.36 5178.42 1938.1 5347.7 1950.99C5565.62 1967.59 5523.22 1787.12 5523.22 1787.12C5523.22 1787.12 5683.23 1807.68 5698.33 1889.23C5713.83 1972.97 5816 2039.23 5815.6 2098.78C5815.6 2098.78 5749.44 2129.71 5725.6 2149.84C5690.89 2179.15 5656.56 2234.39 5655.16 2263.58C5654.27 2282.03 5601.32 2245.83 5601.32 2245.83C5601.32 2245.83 5557.47 2432.9 5468.4 2502.67C5420.6 2540.11 5234 2533.47 5190.3 2483.08C5135.19 2419.53 5097.23 2325.61 5078.56 2229.53C5059.88 2133.46 5083.97 2160.21 5081.03 2158.06C5077.75 2155.66 5068.43 2197.2 5049.08 2195.47C4973.06 2188.65 4816.08 2184.14 4819.26 2118.03C4824.24 2014.16 4874.65 2000.43 4905.85 1896.41C4938.72 1786.84 5030.51 1783.53 5096.71 1769.99C5137.31 1761.69 5154.68 1757.36 5154.68 1757.36Z" fill="#4CC8ED"/>
<path fill-rule="evenodd" clip-rule="evenodd" d="M5202.97 2387.37C5201.94 2389.68 5134.91 2377.77 5066.17 2378.54C4997.43 2379.32 4951.04 2383.3 4935.84 2383.86C4914.69 2384.63 4925.81 2355.95 4929.04 2335.31C4938.37 2275.72 4958.23 2257.52 4966.57 2187.79C4966.57 2187.79 4933.55 2184.39 4906.64 2179.32C4879.72 2174.25 4855.8 2162.79 4855.8 2162.79C4834.87 2200.05 4845.83 2272.47 4838.95 2346.87C4834.53 2394.7 4833.94 2448.53 4868.66 2454.07C4893.49 2458.02 4975.77 2457.74 5049.73 2451.38C5131.76 2444.33 5204.81 2430.89 5204.81 2430.89C5204.81 2430.89 5255.79 2458.15 5294.36 2460.43C5332.92 2462.72 5355.75 2466.25 5356.28 2459.2C5357.09 2448.33 5300.37 2441.99 5297.54 2437.36C5294.96 2433.12 5362.75 2443.14 5363.52 2430.31C5364.3 2417.47 5297.71 2420.44 5296.84 2415.95C5295.73 2410.18 5356.7 2416.06 5356.58 2402.74C5356.5 2394.33 5293.59 2396.11 5293.59 2396.11C5293.59 2396.11 5348.94 2383.67 5347.92 2377.55C5346.23 2367.44 5281.12 2380.21 5276.88 2378.78C5269.57 2376.32 5261.48 2376.55 5260.43 2371.3C5259.15 2364.93 5290.72 2356.37 5289.86 2350.8C5288.45 2341.78 5265.22 2348.88 5243.5 2358.02C5221.77 2367.17 5207 2378.35 5202.97 2387.37Z" fill="#FDBC8C"/>
<path fill-rule="evenodd" clip-rule="evenodd" d="M5100.78 1953.01C5100.78 1953.01 5070.18 2018.91 5059.62 2082.97C5049.06 2147.03 5073.3 2204.43 5073.3 2204.43L5097.04 2308.82C5097.04 2308.82 5116.63 2195.7 5112.56 2134.67C5107.84 2063.9 5100.78 1953.01 5100.78 1953.01Z" fill="#2BAAE2"/>
<path fill-rule="evenodd" clip-rule="evenodd" d="M5419.33 1420.03C5412.89 1415.17 5418.52 1408.19 5431.89 1404.44C5445.27 1400.69 5461.34 1401.59 5467.77 1406.45C5474.21 1411.3 5468.58 1418.29 5455.2 1422.04C5441.83 1425.79 5425.76 1424.89 5419.33 1420.03Z" fill="#272361"/>
<path fill-rule="evenodd" clip-rule="evenodd" d="M4760.82 4083.79L4749.34 4255.95L4697.71 4265.46L4667.31 4084.91L4760.82 4083.79Z" fill="#FDBC8C"/>
<path fill-rule="evenodd" clip-rule="evenodd" d="M4467.23 4103.13L4460.63 4253.05L4405.52 4263.89L4379.49 4099.15L4467.23 4103.13Z" fill="#FDBC8C"/>
<path fill-rule="evenodd" clip-rule="evenodd" d="M4750.96 4242.1C4750.96 4242.1 4793.72 4270.78 4764.88 4329.14L4677.47 4340.66C4677.47 4340.66 4564.62 4360.72 4527.18 4357.54C4506.53 4355.79 4508.39 4313.64 4531.63 4304.19C4560.96 4292.27 4578.26 4294.87 4617.81 4277.09C4657.36 4259.31 4695.08 4248.66 4695.08 4248.66C4695.08 4248.66 4711.26 4256.51 4726.66 4254.31C4742.07 4252.12 4750.96 4242.1 4750.96 4242.1Z" fill="#272361"/>
<path fill-rule="evenodd" clip-rule="evenodd" d="M4461.57 4238.98C4461.57 4238.98 4507.92 4271.84 4480.46 4323.28L4381.6 4344.26C4381.6 4344.26 4280.39 4362.73 4241.76 4366.48C4212.11 4369.37 4214.46 4319.28 4237.82 4309.74C4261.19 4300.19 4294.6 4291.29 4322.12 4277.47C4348.96 4263.99 4402.97 4250.09 4402.97 4250.09C4402.97 4250.09 4420.84 4259.58 4440.35 4253.35C4454.64 4248.78 4461.57 4238.98 4461.57 4238.98Z" fill="#272361"/>
<path fill-rule="evenodd" clip-rule="evenodd" d="M4803.35 2620.08C4803.35 2620.08 4799.9 2831.59 4789.51 3098.02C4785.69 3196.05 4770.58 3300.36 4767.27 3406.39C4762.58 3556.78 4775.89 3745.6 4773.29 3816.64C4770.68 3887.67 4791.11 4047.87 4770.7 4121.36C4770.7 4121.36 4741.34 4134.31 4713.69 4135.16C4686.03 4136 4660.07 4124.74 4660.07 4124.74C4648.12 4029.22 4646.24 3929.57 4636.14 3805.19C4625.73 3676.9 4612.07 3559.44 4604.99 3435.65C4591.72 3203.38 4537.81 2870.42 4537.81 2870.42C4537.81 2870.42 4520.54 3035.23 4508.67 3192.16C4501.89 3281.95 4497.12 3386.76 4498.9 3494.39C4502.82 3730.49 4520.33 3977.86 4477.83 4133.48C4477.83 4133.48 4453.42 4140.76 4428.09 4142.2C4402.75 4143.63 4375.29 4136.01 4375.29 4136.01C4358.06 4056.15 4359.9 3973.2 4355.47 3812.16C4351.05 3651.12 4357.46 3614.96 4357.59 3491.86C4357.69 3400.13 4343.95 3257.72 4344.31 3169.49C4345.56 2865.34 4357.74 2636.31 4357.74 2636.31L4803.35 2620.08Z" fill="#0081C3"/>
<path fill-rule="evenodd" clip-rule="evenodd" d="M4503.1 2787.79C4503.1 2787.79 4497.48 2821.07 4516 2843.78C4534.51 2866.5 4536.36 2856.65 4538.83 2876.99C4546.62 2940.98 4546.53 2981.87 4536.9 3160.5C4531.37 3263.07 4502.88 3383.83 4504.99 3462.32C4507.01 3537.69 4523.42 3635.89 4513.25 3780.95C4492.55 4075.87 4476.3 4135.63 4476.3 4135.63C4476.3 4135.63 4492.12 3650.46 4478.73 3484.24C4471.23 3391.08 4495.22 3289.55 4505.17 3184.7C4517.55 3054.3 4523.5 2869.46 4523.5 2869.46C4523.5 2869.46 4510.38 2852.2 4505.2 2843.18C4491.81 2819.91 4503.1 2787.79 4503.1 2787.79Z" fill="#1172BA"/>
<path fill-rule="evenodd" clip-rule="evenodd" d="M4152.83 2785.59C4152.83 2785.59 4156.98 2694.61 4173.03 2586.47C4189.08 2478.34 4186.52 2483.86 4201.05 2419.82C4222.86 2323.67 4244.69 2286.78 4216.32 2176.41C4179.69 2033.87 4206.75 1871.04 4256.31 1839C4271.49 1829.18 4324.4 1803.4 4353.62 1855.52C4384.7 1910.95 4391.51 1987.42 4346.74 2065.21C4289.01 2165.52 4325.63 2337.84 4310.48 2408.25C4295.33 2478.67 4284.11 2532.7 4264.93 2608.46C4231.65 2739.91 4209.15 2791.28 4209.15 2791.28C4209.15 2791.28 4252.48 2991.64 4234.53 2988.07C4216.58 2984.49 4227.59 2928.39 4215.72 2926.19C4203.85 2923.99 4214.75 3017.89 4196.63 3013.47C4178.51 3009.05 4198.4 2929.96 4189.44 2928.8C4180.48 2927.63 4178.78 3013.85 4160.8 3008.8C4142.82 3003.75 4166.89 2917.16 4156.9 2913.99C4146.91 2910.81 4136.34 3002.35 4120.83 2996.09C4105.33 2989.83 4137.88 2908.85 4125.92 2888.08C4113.96 2867.31 4078.86 2933.62 4073 2913.01C4067.14 2892.4 4152.83 2785.59 4152.83 2785.59Z" fill="#FDBC8C"/>
<path fill-rule="evenodd" clip-rule="evenodd" d="M4621.08 1406.97C4621.08 1406.97 4611.81 1479.75 4616.03 1537.5C4620.26 1595.25 4635.25 1634.8 4635.25 1634.8C4635.25 1634.8 4649.91 1643.52 4670.31 1649.24C4690.71 1654.96 4717.73 1664.58 4717.73 1664.58C4717.73 1664.58 4627.35 1738.27 4536.32 1755.98C4445.28 1773.69 4352.72 1728.53 4352.72 1728.53C4367.19 1717.89 4387.97 1703.53 4409.43 1687.85C4430.89 1672.18 4447.91 1657.9 4451.04 1653.34C4468.13 1628.45 4462.38 1594.51 4461.75 1564.1C4460.1 1485.32 4425.05 1427.26 4425.05 1427.26L4621.08 1406.97Z" fill="#FDBC8C"/>
<path fill-rule="evenodd" clip-rule="evenodd" d="M4621.08 1406.97C4621.08 1406.97 4611.81 1479.75 4616.03 1537.5C4620.26 1595.25 4637.98 1637.97 4637.98 1637.97C4637.98 1637.97 4582.65 1589.1 4538.78 1576.15C4494.91 1563.19 4459.95 1542.18 4459.95 1542.18C4459.95 1542.18 4458.22 1518.01 4455.41 1502.21C4443.53 1435.42 4425.05 1427.26 4425.05 1427.26L4621.08 1406.97Z" fill="#DFA58B"/>
<path fill-rule="evenodd" clip-rule="evenodd" d="M4665.2 1647.74C4665.2 1647.74 4631.9 1723.72 4554.58 1734.8C4488.44 1744.28 4425.81 1677.28 4425.81 1677.28C4425.81 1677.28 4366.44 1688.08 4270.9 1743.53C4184.21 1793.86 4174.06 1926.39 4174.06 1926.39C4174.06 1926.39 4160.68 2039.7 4178.34 2070.02C4178.34 2070.02 4200.75 2076.38 4232.63 2075.38C4264.52 2074.38 4300.73 2061.72 4300.73 2061.72C4300.73 2061.72 4298.15 2212.06 4289.34 2369.54C4275.38 2618.99 4273.78 2771.66 4273.78 2771.66C4273.78 2771.66 4424.59 2799.99 4538.16 2798.6C4651.73 2797.22 4844.33 2785.11 4844.33 2785.11C4844.33 2785.11 4841.9 2561.43 4850.44 2423.32C4858.99 2285.21 4833.48 2298.8 4854.92 2123.23C4870.91 1992.23 4935.07 1939.68 4934.01 1827.4C4932.96 1717.53 4665.2 1647.74 4665.2 1647.74Z" fill="#135EAB"/>
<path fill-rule="evenodd" clip-rule="evenodd" d="M4665.14 1647.47C4665.14 1647.47 4596.5 1720.2 4539.21 1724.04C4470.49 1728.63 4427.65 1674.26 4427.65 1674.26C4427.65 1674.26 4423.16 1673.77 4418.56 1676.98C4414.57 1679.77 4414.16 1684.2 4414.16 1684.2C4414.16 1684.2 4464.09 1743.93 4535.43 1739.52C4622.83 1734.11 4681.83 1651.12 4681.83 1651.12C4681.83 1651.12 4679.52 1648.45 4673.52 1646.96C4668.99 1645.84 4665.14 1647.47 4665.14 1647.47Z" fill="#2BAAE2"/>
<path fill-rule="evenodd" clip-rule="evenodd" d="M4702.92 1883.52C4690.58 1794.35 4715.42 1722.17 4769.85 1712.53C4826.15 1702.56 4861.78 1714.78 4937.32 1877.7C4953.9 1913.45 4948.24 1980.5 4949.54 2015.58C4949.96 2027.11 4936.23 2028.97 4936.23 2028.97C4931.35 2031.35 4923.91 2069.8 4879.07 2077.05C4834.23 2084.3 4764.74 2074.99 4764.74 2074.99C4723.47 2043.09 4714.25 1965.33 4702.92 1883.52Z" fill="#135EAB"/>
<path fill-rule="evenodd" clip-rule="evenodd" d="M4701.99 2840.76C4701.99 2840.76 4717.08 2746.86 4746.54 2636.59C4776 2526.32 4772.7 2531.74 4795.36 2467.03C4829.37 2369.88 4873.43 2350.91 4834.94 2238.32C4795.78 2123.79 4746.04 1920.49 4801.25 1893.12C4818.15 1884.74 4898.86 1890.86 4923 1948.39C4948.67 2009.57 4950.52 2121.92 4957.29 2181.33C4970.44 2296.61 4940.76 2412.99 4916.7 2484.24C4892.64 2555.5 4868.14 2593.98 4839.27 2670.29C4789.17 2802.71 4759.75 2853.33 4759.75 2853.33C4759.75 2853.33 4780.95 3066.31 4762.75 3060.47C4744.56 3054.64 4762.62 2997.75 4750.57 2994.06C4738.52 2990.37 4738.7 3089.06 4720.43 3082.33C4702.15 3075.6 4732.16 2995.92 4723 2993.65C4713.85 2991.37 4701.86 3080.61 4683.81 3073.25C4665.76 3065.88 4700.98 2978.91 4691 2974.43C4681.01 2969.94 4659.21 3063.65 4643.86 3055.32C4628.51 3047 4671.88 2966.84 4661.94 2943.88C4651.99 2920.92 4607.72 2985.55 4604.08 2963.47C4600.45 2941.4 4701.99 2840.76 4701.99 2840.76Z" fill="#FDBC8C"/>
<path fill-rule="evenodd" clip-rule="evenodd" d="M4700.68 1895.1C4679.63 1800.51 4716.43 1719.03 4771.03 1710.4C4795.17 1706.58 4836.76 1709.31 4863.19 1729.82C4889.93 1750.58 4922.75 1761.87 4942.13 1846.01C4953.41 1894.96 4971.47 2042.58 4965.01 2057.31C4965.01 2057.31 4909.74 2068.27 4859.83 2070.16C4809.92 2072.06 4765.37 2064.89 4765.37 2064.89C4730.59 2036.09 4707.22 1924.47 4700.68 1895.1Z" fill="#135EAB"/>
<path fill-rule="evenodd" clip-rule="evenodd" d="M4689.54 1167.18C4728.14 1214.28 4673.06 1327.41 4684.22 1324.57C4695.39 1321.74 4702.49 1285.48 4726.93 1323.7C4746.89 1354.91 4686.79 1429.78 4671.31 1404.46C4655.6 1378.76 4640.62 1459.68 4623.7 1474.39C4582.17 1510.48 4537.94 1540.45 4472.92 1541.34C4353.52 1542.96 4351.46 1401.82 4353.83 1299.95C4355.13 1244.09 4351.38 1191.65 4378.34 1159.9C4400.55 1133.75 4396.57 1120.88 4437.51 1106.53C4528.14 1074.76 4636.29 1102.18 4689.54 1167.18Z" fill="#FDBC8C"/>
<path fill-rule="evenodd" clip-rule="evenodd" d="M4661.35 1391.87C4661.35 1391.87 4634.13 1401.74 4647.09 1371.68C4660.5 1340.55 4672.36 1314.21 4673.35 1291.16C4673.98 1276.72 4675.2 1258.93 4664.19 1254.4C4653.17 1249.86 4627.08 1263.98 4619.03 1246.27C4609.2 1224.68 4640.64 1187.66 4615.33 1165.99C4584.32 1139.46 4540.06 1173.45 4493.15 1172.91C4446.23 1172.38 4409.41 1149.34 4391.94 1154.05C4380.2 1157.22 4370.01 1166.69 4366.94 1184.23C4364.55 1197.87 4368.06 1217.45 4365.95 1234.08C4365.07 1241.04 4358.81 1242.11 4356.11 1247.97C4354.28 1251.95 4355.86 1258.27 4355.15 1263.5C4353.15 1278.38 4355.22 1291.86 4354.14 1289.38C4352.32 1285.21 4353.48 1231.64 4356.83 1206.73C4361.2 1174.21 4370.97 1155.27 4380.84 1137.99C4390.71 1120.7 4416.31 1095.44 4440.61 1084.83C4471.06 1071.54 4504.63 1063.99 4538.49 1065.16C4589.48 1066.93 4620.02 1080.07 4648.64 1095.96C4686.01 1116.7 4700.87 1159.83 4705.8 1186.37C4709.22 1204.82 4698.78 1266.08 4687.35 1316.52C4679.53 1351.05 4661.35 1391.87 4661.35 1391.87Z" fill="#272361"/>
<path fill-rule="evenodd" clip-rule="evenodd" d="M4562.09 1310.71C4562.3 1301.95 4556.21 1295.16 4548.48 1295.53C4540.76 1295.9 4534.32 1303.3 4534.1 1312.06C4533.88 1320.81 4539.97 1327.61 4547.7 1327.24C4555.43 1326.87 4561.87 1319.47 4562.09 1310.71Z" fill="#272361"/>
<path fill-rule="evenodd" clip-rule="evenodd" d="M4432.04 1308.01C4432.25 1299.23 4425.78 1292.56 4417.58 1293.11C4409.39 1293.66 4402.57 1301.22 4402.36 1309.99C4402.15 1318.77 4408.62 1325.44 4416.82 1324.89C4425.02 1324.34 4431.83 1316.78 4432.04 1308.01Z" fill="#272361"/>
<path fill-rule="evenodd" clip-rule="evenodd" d="M4686.35 1312.03C4693.74 1312.83 4648.55 1448.93 4625.2 1471.66C4592.59 1503.4 4581.24 1514.13 4531.76 1531.78C4508.57 1540.06 4463.65 1549.2 4424.56 1534.06C4399.93 1524.52 4390.67 1508.72 4373.89 1475.28C4357.11 1441.84 4357.44 1400.29 4357.44 1400.29C4357.44 1400.29 4360.41 1425.02 4375.34 1431.16C4385.76 1435.46 4393.54 1413.44 4441.73 1411.45C4484.2 1409.69 4485.57 1410.43 4520.01 1417.52C4554.44 1424.62 4568.09 1435.57 4579.46 1439.84C4601.85 1448.23 4642.73 1390.38 4651.1 1365.47C4661.65 1334.06 4684.81 1311.86 4686.35 1312.03Z" fill="#272361"/>
<path fill-rule="evenodd" clip-rule="evenodd" d="M4513.8 1445.55C4512.37 1439.59 4479.82 1453.48 4452.72 1451.83C4425.63 1450.19 4412.28 1444.78 4410.42 1449.07C4409.21 1451.86 4421.62 1477.28 4448.71 1478.93C4475.81 1480.57 4515.71 1453.47 4513.8 1445.55Z" fill="#E0E0E0"/>
<path fill-rule="evenodd" clip-rule="evenodd" d="M4418.93 1248.35L4392.51 1252.9C4387.7 1253.73 4384.27 1257.26 4384.87 1260.79C4385.46 1264.31 4389.83 1266.5 4394.64 1265.67L4421.06 1261.12C4425.88 1260.29 4429.3 1256.76 4428.71 1253.23C4428.12 1249.71 4423.74 1247.52 4418.93 1248.35Z" fill="#272361"/>
<path fill-rule="evenodd" clip-rule="evenodd" d="M4569.43 1253.71L4542.67 1252.05C4537.8 1251.74 4533.65 1254.39 4533.41 1257.96C4533.17 1261.52 4536.93 1264.66 4541.8 1264.97L4568.56 1266.63C4573.43 1266.93 4577.57 1264.29 4577.81 1260.72C4578.05 1257.15 4574.3 1254.01 4569.43 1253.71Z" fill="#272361"/>
<path fill-rule="evenodd" clip-rule="evenodd" d="M4348.22 1896.42C4348.22 1896.42 4333.67 1983.21 4330.49 2027.06C4323.55 2122.7 4324.32 2286.48 4324.32 2286.48C4324.32 2286.48 4319.25 2195.48 4319.16 2117.17C4319.07 2038.85 4321.75 2030.83 4332.58 1966.6C4343.42 1902.36 4348.22 1896.42 4348.22 1896.42Z" fill="#2E3690"/>
<path fill-rule="evenodd" clip-rule="evenodd" d="M4483.72 4111.92C4485.12 4112.98 4489.16 4117.48 4487.78 4125.8C4486.41 4134.11 4477.64 4137.34 4477.64 4137.34C4477.64 4137.34 4463.11 4144.64 4425.1 4147.18C4390.17 4149.52 4376.06 4139.7 4376.06 4139.7C4376.06 4139.7 4367.24 4135.73 4365.82 4127.62C4364.41 4119.51 4371.84 4114.28 4371.84 4114.28C4371.84 4114.28 4390.04 4125.18 4424.76 4124.06C4463.24 4122.82 4482.2 4110.78 4483.72 4111.92Z" fill="#1172BA"/>
<path fill-rule="evenodd" clip-rule="evenodd" d="M4775.37 4104.32C4776.77 4105.37 4780.54 4107.63 4779.17 4115.95C4777.79 4124.26 4770.36 4126.97 4770.36 4126.97C4770.36 4126.97 4749.98 4137.15 4714.17 4138.97C4680.95 4140.67 4659.98 4129.62 4659.98 4129.62C4659.98 4129.62 4653.78 4126.27 4652.37 4118.16C4650.95 4110.05 4657.89 4106.56 4657.89 4106.56C4657.89 4106.56 4676.63 4117.11 4714.44 4115.3C4750.9 4113.56 4773.85 4103.17 4775.37 4104.32Z" fill="#1172BA"/>
<path fill-rule="evenodd" clip-rule="evenodd" d="M4353.02 2790.65L4352.88 2812.78L4582.17 2798.11L4353.02 2790.65Z" fill="#0081C3"/>
<path fill-rule="evenodd" clip-rule="evenodd" d="M4717.28 1921.94C4717.28 1921.94 4721.41 1946.55 4729.18 1998.45C4743.37 2093.28 4747.46 2066.55 4788.07 2069.37C4788.07 2069.37 4785.39 2087.33 4754.31 2082.8C4737.36 2080.33 4731.32 2038.62 4725.58 2011.46C4720.15 1985.83 4717.28 1921.94 4717.28 1921.94Z" fill="#2E3690"/>
<path fill-rule="evenodd" clip-rule="evenodd" d="M3326.01 4242.51C3326.01 4242.51 3316.66 4270.79 3296.05 4273.63C3275.44 4276.47 3271.68 4238.75 3271.68 4238.75C3271.68 4238.75 3267.1 4313.97 3283.02 4350.34C3298.95 4386.7 3305.81 4354.2 3317.2 4329.58C3332.73 4296.03 3326.01 4242.51 3326.01 4242.51Z" fill="#272361"/>
<path fill-rule="evenodd" clip-rule="evenodd" d="M2983.55 1433.92C3008.09 1465.77 2979.32 1424.36 3004.11 1377.03C3019.19 1348.25 2986.68 1261.09 3008.91 1226.94C3031.14 1192.79 3052.09 1231.74 3052.09 1231.74C3052.09 1231.74 3187.5 1224.16 3174.77 1246.81C3162.03 1269.47 3224.8 1279.17 3237.13 1274.23C3238.83 1273.55 3266.02 1273.8 3275.51 1300.27C3287.25 1333.02 3303.27 1344.25 3304.56 1340.58C3306.05 1336.33 3302.4 1288.59 3299.66 1256.52C3296.93 1224.46 3287.57 1202.4 3287.57 1202.4C3287.57 1202.4 3286.28 1179.95 3255.97 1156.46C3225.66 1132.96 3172.08 1145.63 3172.08 1145.63C3172.08 1145.63 3172.61 1132.9 3112.99 1151.4C3084.55 1160.23 3073.49 1174.28 3073.49 1174.28C3073.49 1174.28 2977.6 1195.75 2963.71 1209.38C2933.03 1239.48 2930.94 1258.57 2926.66 1362.12C2922.38 1465.67 2983.66 1491.96 2946.59 1623.59C2890.14 1824.06 2959.34 1778.74 2967.72 1773.65C3018.6 1742.8 3154.23 1805.53 3266.3 1761.38C3333.54 1734.89 3337.43 1844.48 3354.65 1721.37C3371.87 1598.26 3335.19 1268.94 3335.19 1268.94C3335.19 1268.94 2942.13 1439.47 2942.59 1419.26C2942.97 1402.28 2974.36 1421.99 2983.55 1433.92Z" fill="#272361"/>
<path fill-rule="evenodd" clip-rule="evenodd" d="M3050.94 1478.86C3050.94 1478.86 3065.33 1549.99 3065.33 1607.26C3065.33 1664.53 3051.18 1693.41 3051.18 1693.41C3051.18 1693.41 3036.02 1736.83 2948.07 1751.14C2923.85 1755.07 3022.85 1887.59 3131.89 1891.98C3253.65 1896.88 3372.39 1772.71 3350.21 1769.55C3300.09 1762.4 3238.96 1716.99 3232.31 1707.87C3214.66 1683.67 3221.02 1652.53 3219.45 1622.37C3215.39 1544.54 3245.77 1484.74 3245.77 1484.74L3050.94 1478.86Z" fill="#FDBC8C"/>
<path fill-rule="evenodd" clip-rule="evenodd" d="M3050.94 1478.86C3050.94 1478.86 3065.33 1549.99 3065.33 1607.26C3065.33 1664.53 3051.17 1693.61 3051.17 1693.61C3051.17 1693.61 3101.99 1655.74 3144.33 1639.8C3186.66 1623.86 3219.63 1600.61 3219.63 1600.61C3219.63 1600.61 3219.6 1576.64 3221.23 1560.86C3228.14 1494.12 3245.77 1484.74 3245.77 1484.74L3050.94 1478.86Z" fill="#DFA58B"/>
<path fill-rule="evenodd" clip-rule="evenodd" d="M2966.11 1247.26C2931.43 1296.51 2975.42 1368.15 2982.92 1423.24C2985.77 1444.16 2946.99 1386.82 2940.53 1425.12C2937.08 1445.58 2969.65 1514.57 2990.98 1494.45C3012.3 1474.33 3029.84 1522.97 3053.22 1545.55C3092.36 1583.36 3126.24 1616.87 3190.27 1610.89C3240.11 1606.24 3264.77 1565.66 3288.71 1519.29C3316.67 1465.12 3310.47 1406.01 3305.56 1355.12C3300.25 1300.11 3286.14 1257.2 3257.25 1227.83C3233.46 1203.63 3198.89 1189.44 3157.47 1178.23C3065.78 1153.42 3013.95 1179.31 2966.11 1247.26Z" fill="#FDBC8C"/>
<path fill-rule="evenodd" clip-rule="evenodd" d="M2967.58 1745.39L3151.9 1817.51L3307.85 1756.78C3307.85 1756.78 3357.73 1759.85 3389.89 1769.75C3422.05 1779.65 3452.77 1797.38 3452.77 1797.38C3452.77 1797.38 3420.68 1813.04 3405.5 1861.64C3390.32 1910.24 3379.93 1944.12 3392.06 1991.79C3413.32 2075.39 3396.38 2101.05 3360.02 2146.52C3330.64 2183.25 3326.36 2339.94 3333.74 2402.81C3340.11 2457.06 3364.7 2505.26 3364.7 2505.26L3007.74 2519.38C3007.74 2519.38 3022.84 2519.51 3030.05 2406.91C3037.27 2294.03 2972.13 2184.65 2941.83 2153.85C2923.83 2135.56 2879.81 2101.43 2888.15 2025.52C2898.17 1934.28 2888.49 1939.17 2876.24 1854C2867.32 1791.98 2801.03 1796.01 2801.03 1796.01C2801.03 1796.01 2820.66 1772.17 2858.47 1760.2C2896.28 1748.22 2967.58 1745.39 2967.58 1745.39Z" fill="#135EAB"/>
<path fill-rule="evenodd" clip-rule="evenodd" d="M2967.58 1745.39L3151.9 1817.51L3307.85 1756.78C3307.85 1756.78 3357.73 1759.85 3389.89 1769.75C3422.05 1779.65 3452.77 1797.38 3452.77 1797.38C3452.77 1797.38 3420.68 1813.04 3405.5 1861.64C3390.32 1910.24 3379.93 1944.12 3392.06 1991.79C3413.32 2075.39 3396.38 2101.05 3360.02 2146.52C3330.64 2183.25 3282.61 2068.81 3282.61 2068.81C3282.61 2068.81 2972.13 2184.65 2941.83 2153.85C2923.83 2135.56 2879.81 2101.43 2888.15 2025.52C2898.17 1934.28 2888.49 1939.17 2876.24 1854C2867.32 1791.98 2801.03 1796.01 2801.03 1796.01C2801.03 1796.01 2820.66 1772.17 2858.47 1760.2C2896.28 1748.22 2967.58 1745.39 2967.58 1745.39Z" fill="#135EAB"/>
<path fill-rule="evenodd" clip-rule="evenodd" d="M3251.72 2412.07L3323.17 2404.77C3323.17 2404.77 3325.09 2388.74 3326.16 2329.38C3327.24 2270.02 3337.91 2159.85 3337.91 2159.85C3337.91 2159.85 3353.34 2145.43 3366.29 2124.61C3380.26 2102.15 3385.29 2061.21 3385.29 2061.21C3385.29 2061.21 3370.98 2101.92 3354.39 2120.94C3337.8 2139.97 3316.61 2156.17 3316.61 2156.17C3316.61 2156.17 3302.81 2251.22 3289.14 2310.61C3275.46 2370 3251.72 2412.07 3251.72 2412.07Z" fill="#2E3690"/>
<path fill-rule="evenodd" clip-rule="evenodd" d="M3193.33 2201.92C3192.84 2204.42 3124.03 2208.11 3056.43 2224.67C2988.84 2241.24 2944.03 2255.82 2929.16 2259.86C2908.49 2265.48 2912.87 2234.7 2911.32 2213.65C2906.85 2152.88 2918.42 2134.55 2910.65 2064.03C2902.88 1993.51 2905.13 1942.68 2905.92 1893.82C2906.71 1844.96 2862.48 1739.13 2809 1781.92C2755.51 1824.71 2814.87 2170.96 2825.16 2245.74C2831.77 2293.82 2843.54 2346.92 2879.04 2344.38C2904.43 2342.57 2985.48 2323.38 3056.94 2300.12C3136.19 2274.33 3205.13 2244.31 3205.13 2244.31C3205.13 2244.31 3261.64 2259.41 3300.19 2252.79C3338.73 2246.18 3362.05 2244.4 3360.95 2237.34C3359.26 2226.46 3301.88 2233.27 3298.04 2229.36C3294.51 2225.78 3363.65 2220.06 3361.46 2207.25C3359.28 2194.45 3294.32 2212.67 3292.43 2208.45C3290.01 2203.03 3351.47 2194.81 3348.29 2181.72C3346.29 2173.47 3284.67 2189.68 3284.67 2189.68C3284.67 2189.68 3336.39 2164.72 3333.98 2158.93C3330 2149.37 3268.73 2176.9 3264.22 2176.47C3256.46 2175.73 3248.53 2177.82 3246.29 2172.9C3243.57 2166.91 3272.73 2151.24 3270.6 2145.96C3267.15 2137.4 3245.87 2149.73 3226.55 2163.72C3207.23 2177.71 3195.23 2192.11 3193.33 2201.92Z" fill="#FDBC8C"/>
<path fill-rule="evenodd" clip-rule="evenodd" d="M3175.87 4242.28C3175.87 4242.28 3187.66 4269.63 3208.44 4270.65C3229.22 4271.68 3229.66 4233.77 3229.66 4233.77C3229.66 4233.77 3240.82 4308.3 3228.14 4345.92C3215.47 4383.54 3205.79 4351.77 3192.28 4328.24C3173.87 4296.19 3175.87 4242.28 3175.87 4242.28Z" fill="#272361"/>
<path fill-rule="evenodd" clip-rule="evenodd" d="M3093.89 1400.93C3092.22 1391.48 3097.55 1383.11 3105.79 1382.22C3114.03 1381.33 3122.06 1388.26 3123.72 1397.7C3125.38 1407.14 3120.05 1415.52 3111.81 1416.41C3103.57 1417.3 3095.55 1410.37 3093.89 1400.93Z" fill="#272361"/>
<path fill-rule="evenodd" clip-rule="evenodd" d="M3127.01 1510.76C3124.38 1501.73 3159.75 1511.07 3186.57 1507.71C3213.39 1504.36 3235.35 1493.17 3237.99 1502.2C3240.62 1511.22 3218.73 1536.66 3191.91 1540.01C3165.09 1543.36 3129.65 1519.78 3127.01 1510.76Z" fill="#E0E0E0"/>
<path fill-rule="evenodd" clip-rule="evenodd" d="M3259.38 3563.46C3259.38 3563.46 3270.04 3631.14 3255.99 3726.62C3245.04 3801.15 3242.34 3902.44 3254.59 3962.53C3285.74 4115.29 3271.66 4245.19 3271.66 4245.19C3271.66 4245.19 3283.07 4298.13 3296.06 4297.83C3309.05 4297.54 3325.59 4245.19 3325.59 4245.19C3325.59 4245.19 3311.99 4089.04 3338.14 3933.74C3347.89 3875.83 3349.89 3784.32 3338.14 3716.8C3321.01 3618.35 3344.11 3553.2 3344.11 3553.2L3259.38 3563.46Z" fill="#FDBC8C"/>
<path fill-rule="evenodd" clip-rule="evenodd" d="M3122.24 3545.11C3122.24 3545.11 3132.43 3655.71 3124.7 3713.29C3117.92 3763.82 3117.67 3856.21 3131.02 3908.47C3170.91 4064.62 3177.08 4247.33 3177.08 4247.33L3213.91 4323.63L3231.18 4248.01C3231.18 4248.01 3204.85 4058.02 3220.19 3894.42C3225.09 3842.11 3222.32 3781.19 3213.87 3720.31C3205.42 3659.42 3203.5 3535.71 3203.5 3535.71L3122.24 3545.11Z" fill="#FDBC8C"/>
<path fill-rule="evenodd" clip-rule="evenodd" d="M2764.8 2979.9C2697.52 3263.7 2667.75 3466.8 2700.45 3524.04C2741.64 3596.1 2856.82 3631.04 2936.27 3644.54C3069.44 3667.17 3218.19 3642.74 3274.94 3620.81C3523.55 3524.76 3610.06 3607.16 3692.93 3583.75C3812.06 3550.09 3726.11 3302.73 3616.75 2959.85C3540.56 2720.99 3334.21 2402.08 3334.21 2402.08C3334.21 2402.08 3259.66 2413.13 3182.86 2416.47C3106.06 2419.81 3028.71 2404.51 3028.71 2404.51C3028.71 2404.51 2809.59 2791 2764.8 2979.9Z" fill="#135EAB"/>
<path fill-rule="evenodd" clip-rule="evenodd" d="M3323.81 2403.5L3250.89 2411.61C3250.89 2411.61 3384.45 2722.04 3398.13 2920.72C3411.81 3119.4 3620.15 3415.93 3620.15 3415.93C3620.15 3415.93 3466.34 3239.22 3462.78 2940.39C3459.12 2633.18 3323.81 2403.5 3323.81 2403.5Z" fill="#2E3690"/>
<path fill-rule="evenodd" clip-rule="evenodd" d="M3071.5 1338.15L3114.7 1329.77C3122.56 1328.24 3130.1 1329.81 3131.53 1333.28C3132.97 1336.74 3127.76 1340.78 3119.89 1342.31L3076.7 1350.68C3068.83 1352.21 3061.29 1350.64 3059.86 1347.18C3058.42 1343.71 3063.64 1339.67 3071.5 1338.15Z" fill="#272361"/>
<path fill-rule="evenodd" clip-rule="evenodd" d="M3216.49 1321.12L3258.42 1323.65C3266.06 1324.11 3271.96 1327.35 3271.61 1330.87C3271.25 1334.4 3264.78 1336.88 3257.14 1336.42L3215.21 1333.89C3207.58 1333.42 3201.68 1330.19 3202.03 1326.67C3202.38 1323.14 3208.86 1320.66 3216.49 1321.12Z" fill="#272361"/>
<path fill-rule="evenodd" clip-rule="evenodd" d="M2998.05 1459.08C3022.58 1490.94 2989.42 1454.59 3003.12 1392.95C3006.47 1377.89 3010.92 1359.86 3033.14 1325.71C3055.37 1291.56 3075.9 1221.58 3075.9 1221.58C3075.9 1221.58 3112.39 1243.76 3153.12 1277.52C3195.07 1312.29 3242.99 1316.31 3267.64 1351.14C3275.72 1362.57 3290.76 1525.72 3285.12 1608.78C3274.84 1760.22 3222.52 1859.49 3222.52 1859.49L3241.73 1855.94C3241.73 1855.94 3249.28 1844.72 3250.63 1840.97C3251.99 1837.22 3257.93 1816 3257.93 1816L3252.14 1842.65L3245.88 1855.63C3245.88 1855.63 3342.77 1829.89 3388.99 1768.75C3435.22 1707.62 3445.41 1530.08 3445.41 1530.08C3445.41 1530.08 3454.08 1376.86 3414.97 1254.92C3374.21 1127.83 3256.47 1096.85 3188.53 1092.06C3126.21 1087.66 3085.16 1119.93 3060.77 1121.1C3036.38 1122.26 2971.61 1134.79 2931.39 1177.64C2891.17 1220.49 2837.7 1343.37 2847.09 1501.98C2853.46 1609.78 2874.25 1660.01 2913.83 1736.16C2953.4 1812.3 2973.32 1806.01 2981.35 1806.92C2984.53 1807.28 2974.41 1781.34 2974.41 1781.34C2977.82 1781.63 2989.95 1811.45 2993.41 1811.67C3041.81 1814.71 3084 1855.14 3084 1855.14C3084 1855.14 3002.05 1737.04 2982.95 1632.61C2963.85 1528.18 2958.1 1449.09 2958.56 1428.88C2958.94 1411.91 2988.86 1447.16 2998.05 1459.08Z" fill="#2E3690"/>
<path fill-rule="evenodd" clip-rule="evenodd" d="M3093.31 2215.08C3093.79 2217.58 3162.61 2221.27 3230.2 2237.84C3297.8 2254.4 3342.61 2268.98 3357.47 2273.03C3378.15 2278.65 3373.77 2247.87 3375.31 2226.82C3379.78 2166.05 3368.22 2147.72 3375.98 2077.2C3383.75 2006.67 3381.5 1955.84 3380.71 1906.98C3379.92 1858.13 3424.16 1752.3 3477.64 1795.08C3531.12 1837.87 3471.77 2184.12 3461.48 2258.9C3454.86 2306.98 3443.09 2360.08 3407.59 2357.55C3382.21 2355.73 3301.15 2336.54 3229.7 2313.29C3150.44 2287.49 3081.5 2257.48 3081.5 2257.48C3081.5 2257.48 3024.99 2272.57 2986.45 2265.96C2947.91 2259.35 2924.59 2257.57 2925.68 2250.51C2927.37 2239.63 2984.75 2246.43 2988.6 2242.53C2992.12 2238.95 2922.99 2233.22 2925.17 2220.42C2927.35 2207.61 2992.31 2225.84 2994.2 2221.62C2996.63 2216.2 2935.17 2207.97 2938.34 2194.89C2940.34 2186.64 3001.96 2202.84 3001.96 2202.84C3001.96 2202.84 2950.25 2177.88 2952.66 2172.1C2956.64 2162.54 3017.9 2190.07 3022.42 2189.63C3030.18 2188.89 3038.1 2190.98 3040.34 2186.06C3043.06 2180.08 3013.91 2164.41 3016.04 2159.13C3019.49 2150.57 3040.77 2162.9 3060.08 2176.89C3079.4 2190.88 3091.41 2205.27 3093.31 2215.08Z" fill="#FDBC8C"/>
<path fill-rule="evenodd" clip-rule="evenodd" d="M3229.92 1385.74C3232.85 1376.61 3241.46 1371.68 3249.17 1374.73C3256.87 1377.78 3260.75 1387.65 3257.82 1396.78C3254.9 1405.91 3246.28 1410.84 3238.57 1407.79C3230.87 1404.74 3226.99 1394.87 3229.92 1385.74Z" fill="#272361"/>
<path fill-rule="evenodd" clip-rule="evenodd" d="M5278.21 1414.32C5272.89 1408.45 5281.36 1403.28 5297.12 1402.77C5312.88 1402.26 5329.97 1406.6 5335.28 1412.46C5340.59 1418.33 5332.13 1423.49 5316.36 1424.01C5300.6 1424.52 5283.52 1420.18 5278.21 1414.32Z" fill="#272361"/>
<path fill-rule="evenodd" clip-rule="evenodd" d="M3735.89 4103.61L3759.72 4246.96L3808.67 4246.46L3813.47 4073.46L3735.89 4103.61Z" fill="#FDBC8C"/>
<path fill-rule="evenodd" clip-rule="evenodd" d="M4033.55 4114.05L4042.2 4234.26L4088.01 4231.56L4087.96 4102.12L4033.55 4114.05Z" fill="#FDBC8C"/>
<path fill-rule="evenodd" clip-rule="evenodd" d="M3738.71 4228.5C3738.71 4228.5 3696.64 4286.38 3725.51 4335.48L3822.62 4347.27C3822.62 4347.27 3945.89 4375 3979.26 4364.04C4012.63 4353.08 3955.2 4314.33 3955.2 4314.33L3868.63 4262.82L3818.65 4228.72L3738.71 4228.5Z" fill="#272361"/>
<path fill-rule="evenodd" clip-rule="evenodd" d="M4024.81 4215.57C4024.81 4215.57 3982.74 4273.45 4011.61 4322.54L4108.72 4334.34C4108.72 4334.34 4231.99 4362.07 4265.36 4351.11C4298.73 4340.15 4241.3 4301.4 4241.3 4301.4L4154.73 4249.88L4104.75 4215.79L4024.81 4215.57Z" fill="#272361"/>
<path fill-rule="evenodd" clip-rule="evenodd" d="M3577.51 2699.31C3577.51 2699.31 3612.02 3781.87 3727.76 4140.68C3727.76 4140.68 3757.39 4157.04 3784.42 4156.75C3811.45 4156.45 3835.89 4139.52 3835.89 4139.52C3868.99 3742.5 3906.11 2962.8 3906.11 2962.8C3906.11 2962.8 3906.43 3802 4014.11 4140.71C4014.11 4140.71 4036.58 4155.72 4061.37 4156.1C4086.16 4156.48 4113.26 4142.23 4113.26 4142.23C4177.08 3773.08 4133.1 2709.02 4133.1 2709.02L3577.51 2699.31Z" fill="#2E3690"/>
<path fill-rule="evenodd" clip-rule="evenodd" d="M3966.47 2853.86C3966.47 2853.86 3958.26 2890.07 3941.1 2912.99C3923.94 2935.91 3909.63 2934.52 3908.04 2954.48C3903.01 3017.26 3906.3 3003.05 3913.58 3199.62C3920.85 3396.19 3904.93 3452.57 3937.14 3740.75C3969.21 4027.78 4020.52 4143.73 4020.52 4143.73C4020.52 4143.73 3934.13 3686.65 3939.99 3391.52C3946.01 3088.13 3926.81 2966.74 3926.81 2966.74C3926.81 2966.74 3931.11 2946.56 3944.36 2931.43C3967.67 2904.81 3966.47 2853.86 3966.47 2853.86Z" fill="#272361"/>
<path fill-rule="evenodd" clip-rule="evenodd" d="M4451.45 2020.58C4451.45 2020.58 4421.69 2079.25 4441.82 2101.12C4461.95 2123 4513.47 2100.98 4513.47 2100.98C4513.47 2100.98 4666.03 2018.42 4654.17 2006.84C4642.31 1995.25 4607.01 2033.99 4599.28 2026.24C4591.56 2018.49 4665.76 1975.75 4653.2 1964.49C4640.63 1953.23 4593.11 2011.14 4587.64 2005.02C4582.17 1998.9 4644.27 1950.83 4631.32 1940.02C4618.37 1929.21 4567.52 1994.34 4560.05 1988.54C4552.58 1982.73 4614 1925.1 4601.44 1916.81C4588.88 1908.51 4546.5 1976.99 4525.17 1979.25C4503.84 1981.51 4534.19 1919.07 4516.11 1925.84C4498.04 1932.61 4451.45 2020.58 4451.45 2020.58Z" fill="#FDBC8C"/>
<path fill-rule="evenodd" clip-rule="evenodd" d="M3764.46 1485.21C3764.46 1485.21 3776.45 1555.88 3774.65 1612.42C3772.85 1668.96 3757.28 1711.36 3757.28 1711.36C3757.28 1711.36 3756.27 1793.09 3807.67 1816.49C3859.07 1839.89 3962.89 1804.97 3962.89 1804.97C3962.89 1804.97 3927.88 1709.13 3926.32 1632.17C3924.75 1555.21 3956.62 1497.12 3956.62 1497.12L3764.46 1485.21Z" fill="#FDBC8C"/>
<path fill-rule="evenodd" clip-rule="evenodd" d="M3764.46 1485.21C3764.46 1485.21 3776.45 1555.88 3774.65 1612.42C3772.85 1668.96 3757.28 1711.36 3757.28 1711.36C3757.28 1711.36 3809.31 1661.43 3851.61 1647.02C3893.91 1632.61 3927.18 1610.7 3927.18 1610.7C3927.18 1610.7 3927.9 1587.03 3930.01 1571.5C3938.92 1505.83 3956.62 1497.12 3956.62 1497.12L3764.46 1485.21Z" fill="#DFA58B"/>
<path fill-rule="evenodd" clip-rule="evenodd" d="M3766.53 1689.12C3766.53 1689.12 3806.96 1739.22 3853.47 1747.38C3908.66 1757.06 3939.17 1719.97 3939.17 1719.97C3939.17 1719.97 4034.2 1764.1 4126.09 1864.12C4217.98 1964.14 4206.76 2203.62 4208.08 2263.03C4209.4 2322.44 4154.09 2245.27 4295.5 2137.45C4374.87 2076.93 4431.96 2027.94 4431.96 2027.94C4431.96 2027.94 4440.81 2060.94 4462.33 2081.93C4483.85 2102.91 4518.05 2111.88 4518.05 2111.88C4518.05 2111.88 4450.63 2268.4 4362.64 2397.91C4285.56 2511.34 4201.27 2523.61 4141.08 2503.18C4012.17 2459.43 4107.83 2287.12 4107.83 2287.12L4152.48 2681.88C4090.17 2788.39 4011.97 2714.74 3858.59 2713.17C3705.21 2711.6 3620.05 2751.6 3538.95 2675.61L3534.2 2409.2C3534.2 2409.2 3421.87 2107.5 3477.01 1933.87C3532.16 1760.23 3766.53 1689.12 3766.53 1689.12Z" fill="#0081C3"/>
<path fill-rule="evenodd" clip-rule="evenodd" d="M3712.88 1954.44C3729.62 1861.27 3691.54 1802.18 3638.02 1794.97C3582.66 1787.51 3502.24 1806.99 3465.85 1965.88C3429.46 2124.78 3399.84 2393.65 3469.28 2464.18C3501.16 2496.56 3613.38 2491.46 3718.73 2483.77C3815.51 2476.71 3913.42 2445.37 3913.42 2445.37C3913.42 2445.37 3876.43 2425.71 3877.32 2397.83C3878.21 2369.95 3918.86 2343.04 3918.86 2343.04C3918.86 2343.04 3892.27 2296.29 3811.07 2291.67C3736.82 2287.45 3652.99 2304.69 3644.07 2292.5C3610.02 2245.98 3696.14 2047.61 3712.88 1954.44Z" fill="#135EAB"/>
<path fill-rule="evenodd" clip-rule="evenodd" d="M3890.15 2365.87C3889.05 2368.54 3806.41 2357.33 3722.54 2360.71C3638.67 2364.09 3582.32 2370.34 3563.79 2371.53C3538.03 2373.18 3549.65 2339.9 3552.19 2316.13C3559.54 2247.5 3588.39 2203.29 3593.84 2123.07C3599.29 2042.85 3575.19 2018.35 3573.99 1995.25C3569.45 1908.2 3506.42 1988.12 3497.86 1989.19C3455.77 1994.44 3446.33 2247.13 3443 2332.65C3440.85 2387.64 3443.79 2449.36 3486.56 2454.44C3517.14 2458.07 3617.57 2454.76 3707.43 2444.79C3807.1 2433.73 3895.36 2415.68 3895.36 2415.68C3895.36 2415.68 3959.45 2445.06 4006.69 2446.29C4053.92 2447.51 4082.04 2450.72 4082.2 2442.62C4082.46 2430.14 4012.78 2424.93 4009.01 2419.73C4005.56 2414.96 4089.01 2423.98 4089.08 2409.25C4089.15 2394.51 4008.07 2400.33 4006.7 2395.21C4004.94 2388.64 4079.78 2393.17 4078.73 2377.9C4078.06 2368.27 4001.38 2372.59 4001.38 2372.59C4001.38 2372.59 4068.1 2356.32 4066.44 2349.35C4063.7 2337.82 3984.5 2356.06 3979.8 2353.33C3971.87 2348.73 3960.85 2351.34 3959.21 2345.36C3957.22 2338.1 3995.18 2327.15 3993.74 2320.8C3991.42 2310.51 3963.53 2319.49 3937.64 2330.76C3911.74 2342.02 3894.46 2355.37 3890.15 2365.87Z" fill="#FDBC8C"/>
<path fill-rule="evenodd" clip-rule="evenodd" d="M3701.45 1951.22C3718.19 1858.05 3680.1 1798.96 3626.59 1791.75C3571.23 1784.29 3490.81 1803.77 3454.42 1962.67C3418.03 2121.56 3390.41 2372.66 3459.85 2443.2C3521.01 2505.32 3904.6 2424.82 3904.6 2424.82C3904.6 2424.82 3875.59 2407.87 3876.47 2379.99C3877.36 2352.12 3908.57 2328.49 3908.57 2328.49C3908.57 2328.49 3880.84 2293.08 3799.64 2288.46C3725.39 2284.23 3641.56 2301.48 3632.64 2289.29C3598.59 2242.77 3684.71 2044.4 3701.45 1951.22Z" fill="#0081C3"/>
<path fill-rule="evenodd" clip-rule="evenodd" d="M3687.98 1253.91C3652.2 1301.45 3693.38 1373.55 3699.06 1428.17C3701.22 1448.91 3664.73 1391.09 3657.15 1428.7C3653.1 1448.78 3683.1 1517.92 3704.78 1498.72C3726.46 1479.53 3747.51 1537.45 3764.63 1551.12C3806.62 1584.67 3850.99 1612.15 3914.49 1610.4C4031.1 1607.17 4026.12 1470.37 4019.71 1371.04C4016.19 1316.57 4003.61 1273.76 3976.01 1243.86C3953.29 1219.23 3919.6 1204.13 3879.07 1191.77C3789.32 1164.4 3737.34 1188.33 3687.98 1253.91Z" fill="#FDBC8C"/>
<path fill-rule="evenodd" clip-rule="evenodd" d="M3709.8 1477.07C3733.02 1509.29 3672.17 1395.66 3718.91 1371.17C3765.65 1346.68 3786.72 1384.18 3803.58 1321.95C3820.44 1259.71 3760.99 1215.9 3760.99 1215.9C3760.99 1215.9 3870.76 1258.95 3947.52 1250.17C3961.7 1248.55 3963.5 1248.04 3975.83 1243.55C3977.53 1242.93 3998.05 1270.89 4006.59 1297.32C4017.15 1330.02 4017.79 1360.24 4019.18 1356.66C4020.78 1352.51 4018.66 1315.33 4008.83 1282.06C4001.26 1256.46 3983.48 1238.84 3986.69 1238.49C4025.28 1234.33 4087.77 1174.54 4068.95 1142.01C4050.13 1109.49 3975.87 1064.57 3913.65 1106.62C3843.58 1153.98 3809.99 1084.63 3738.24 1101.84C3666.48 1119.04 3650.88 1159.47 3626.02 1242.31C3610.47 1294.13 3649.22 1360.76 3677.75 1410.99C3694.83 1441.06 3701.1 1465.01 3709.8 1477.07Z" fill="#2E3690"/>
<path fill-rule="evenodd" clip-rule="evenodd" d="M3850.56 1401.64C3849.26 1393.18 3854.31 1385.83 3861.84 1385.23C3869.38 1384.62 3876.54 1390.99 3877.85 1399.45C3879.15 1407.9 3874.1 1415.25 3866.57 1415.85C3859.03 1416.46 3851.87 1410.09 3850.56 1401.64Z" fill="#272361"/>
<path fill-rule="evenodd" clip-rule="evenodd" d="M3967.31 1392.66C3965.9 1384.2 3971.26 1376.86 3979.26 1376.27C3987.26 1375.68 3994.89 1382.06 3996.29 1390.52C3997.69 1398.98 3992.34 1406.32 3984.34 1406.91C3976.33 1407.5 3968.71 1401.12 3967.31 1392.66Z" fill="#272361"/>
<path fill-rule="evenodd" clip-rule="evenodd" d="M3872.94 1509.73C3870.66 1500.14 3905 1511.08 3931.38 1508.38C3957.76 1505.68 3970.09 1500.29 3972.37 1509.88C3974.65 1519.47 3961.91 1539.87 3935.53 1542.57C3909.15 1545.27 3875.22 1519.32 3872.94 1509.73Z" fill="#E0E0E0"/>
<path fill-rule="evenodd" clip-rule="evenodd" d="M3961.95 1328.1L3988.1 1329.42C3992.87 1329.66 3996.6 1332.68 3996.44 1336.17C3996.28 1339.66 3992.29 1342.29 3987.53 1342.05L3961.37 1340.73C3956.61 1340.49 3952.88 1337.47 3953.03 1333.98C3953.19 1330.49 3957.18 1327.86 3961.95 1328.1Z" fill="#272361"/>
<path fill-rule="evenodd" clip-rule="evenodd" d="M3841.15 1331.99L3867.2 1329.29C3871.95 1328.8 3876.1 1331.21 3876.48 1334.69C3876.85 1338.16 3873.31 1341.37 3868.57 1341.86L3842.52 1344.57C3837.78 1345.06 3833.63 1342.64 3833.25 1339.17C3832.87 1335.7 3836.41 1332.49 3841.15 1331.99Z" fill="#272361"/>
<path fill-rule="evenodd" clip-rule="evenodd" d="M3811.75 1398.79C3812.61 1371.55 3835.97 1350.19 3863.91 1351.08C3891.86 1351.96 3913.81 1374.77 3912.95 1402.01C3912.08 1429.25 3888.72 1450.61 3860.78 1449.72C3832.84 1448.83 3810.88 1426.03 3811.75 1398.79Z" stroke="#828282" stroke-width="8.77" stroke-linecap="round" stroke-linejoin="round"/>
<path fill-rule="evenodd" clip-rule="evenodd" d="M3942.35 1391.14C3943.2 1364.39 3965.91 1343.39 3993.06 1344.26C4020.22 1345.12 4041.55 1367.51 4040.7 1394.27C4039.85 1421.03 4017.15 1442.02 3989.99 1441.16C3962.83 1440.29 3941.5 1417.9 3942.35 1391.14Z" stroke="#828282" stroke-width="8.77" stroke-linecap="round" stroke-linejoin="round"/>
<path d="M3914.55 1389.68C3914.55 1389.68 3920.49 1386.43 3926.42 1386C3932.35 1385.56 3938.28 1387.94 3938.28 1387.94" stroke="#828282" stroke-width="8.77" stroke-linecap="round" stroke-linejoin="round"/>
<path d="M4039.34 1382.74L4020.01 1383.11" stroke="#828282" stroke-width="7.95" stroke-linejoin="round"/>
<path d="M3806.85 1403.16L3684.93 1417.76" stroke="#828282" stroke-width="8.86" stroke-linecap="round" stroke-linejoin="round"/>
</svg>
