<svg width="1071" height="226" viewBox="0 0 1071 226" fill="none" xmlns="http://www.w3.org/2000/svg">
<path opacity="0.15" d="M64.7 60.1H0.2V13H188.3V60.1H124.1V223H64.7V60.1ZM297.13 57.7C317.33 57.7 333.53 63.7 345.73 75.7C358.13 87.7 364.33 105.8 364.33 130V223H307.33V139.3C307.33 117.1 298.43 106 280.63 106C270.83 106 262.93 109.2 256.93 115.6C251.13 122 248.23 131.6 248.23 144.4V223H191.23V0.399987H248.23V75.4C254.43 69.6 261.73 65.2 270.13 62.2C278.53 59.2 287.53 57.7 297.13 57.7ZM452.916 57.7C479.916 57.7 500.516 63.9 514.716 76.3C528.916 88.5 536.016 107.3 536.016 132.7V223H482.916V202C474.716 217.8 458.716 225.7 434.916 225.7C422.316 225.7 411.416 223.5 402.216 219.1C393.016 214.7 386.016 208.8 381.216 201.4C376.616 193.8 374.316 185.2 374.316 175.6C374.316 160.2 380.216 148.3 392.016 139.9C403.816 131.3 422.016 127 446.616 127H479.016C478.016 109.8 466.516 101.2 444.516 101.2C436.716 101.2 428.816 102.5 420.816 105.1C412.816 107.5 406.016 110.9 400.416 115.3L381.216 76.6C390.216 70.6 401.116 66 413.916 62.8C426.916 59.4 439.916 57.7 452.916 57.7ZM450.816 189.7C457.416 189.7 463.216 188.1 468.216 184.9C473.216 181.7 476.816 177 479.016 170.8V156.7H454.416C437.816 156.7 429.516 162.2 429.516 173.2C429.516 178.2 431.416 182.2 435.216 185.2C439.016 188.2 444.216 189.7 450.816 189.7ZM661.395 57.7C681.595 57.7 697.795 63.7 709.995 75.7C722.395 87.7 728.595 105.8 728.595 130V223H671.595V139.3C671.595 117.1 662.695 106 644.895 106C635.095 106 627.195 109.2 621.195 115.6C615.395 122 612.495 131.6 612.495 144.4V223H555.495V60.4H609.795V78.1C616.195 71.5 623.795 66.5 632.595 63.1C641.395 59.5 650.995 57.7 661.395 57.7ZM821.682 166L804.882 183.1V223H747.882V0.399987H804.882V117.1L863.082 60.4H930.582L863.082 130L936.282 223H867.282L821.682 166ZM990.58 225.7C976.98 225.7 963.58 224.2 950.38 221.2C937.18 218 926.58 213.9 918.58 208.9L935.68 169.9C943.08 174.5 951.88 178.2 962.08 181C972.28 183.6 982.38 184.9 992.38 184.9C1001.58 184.9 1008.08 184 1011.88 182.2C1015.88 180.2 1017.88 177.4 1017.88 173.8C1017.88 170.2 1015.48 167.7 1010.68 166.3C1006.08 164.7 998.68 163.2 988.48 161.8C975.48 160.2 964.38 158.1 955.18 155.5C946.18 152.9 938.38 148.1 931.78 141.1C925.18 134.1 921.88 124.3 921.88 111.7C921.88 101.3 924.98 92.1 931.18 84.1C937.38 75.9 946.38 69.5 958.18 64.9C970.18 60.1 984.48 57.7 1001.08 57.7C1012.88 57.7 1024.58 58.9 1036.18 61.3C1047.78 63.7 1057.48 67.1 1065.28 71.5L1048.18 110.2C1033.78 102.2 1018.18 98.2 1001.38 98.2C992.38 98.2 985.78 99.3 981.58 101.5C977.38 103.5 975.28 106.2 975.28 109.6C975.28 113.4 977.58 116.1 982.18 117.7C986.78 119.1 994.38 120.6 1004.98 122.2C1018.38 124.2 1029.48 126.5 1038.28 129.1C1047.08 131.7 1054.68 136.5 1061.08 143.5C1067.68 150.3 1070.98 159.9 1070.98 172.3C1070.98 182.5 1067.88 191.7 1061.68 199.9C1055.48 207.9 1046.28 214.2 1034.08 218.8C1022.08 223.4 1007.58 225.7 990.58 225.7Z" fill="#2D3691"/>
</svg>
