<svg width="7518" height="6147" viewBox="0 0 7518 6147" fill="none" xmlns="http://www.w3.org/2000/svg">
<path d="M6116.13 394.312L7449.43 3242.44C7476.95 3301.22 7470.69 3370.26 7433.05 3423.13L5568.3 6043C5531.59 6094.58 5470.47 6123.08 5407.35 6118.05L2206.17 5862.86C2141.67 5857.72 2084.89 5818.36 2057.46 5759.76L720.575 2904.46C693.076 2845.73 699.295 2776.75 736.855 2723.89L2597.96 104.347C2634.74 52.5847 2696.07 24.0276 2759.35 29.1961L5967.76 291.224C6032.13 296.481 6088.75 335.82 6116.13 394.312Z" stroke="#E0E0E0" stroke-width="40" stroke-linejoin="round"/>
<path opacity="0.151982" fill-rule="evenodd" clip-rule="evenodd" d="M6734.67 3296.48C6480.93 2536.25 5091.7 2526.1 5029.66 1788.96C4968.45 1061.78 4093.91 1136.38 3581.69 1435.66C3027.24 1759.62 1081.08 1117.67 1147.17 1642.72C1213.26 2167.77 288.104 2374.43 230.058 3177.54C172.388 3975.47 1022.89 4970 841.639 5443.92C679.479 5867.94 2869.38 5659.34 3679.67 5620.62C4230.82 5594.28 5777.88 5839.33 5948.41 5387.48C6312.4 4423.01 7029.95 4181.2 6734.67 3296.48Z" fill="#4CC8ED"/>
<path opacity="0.947137" fill-rule="evenodd" clip-rule="evenodd" d="M534.719 5534.75C534.719 5500.66 1788.53 5473.04 3335.16 5473.04C4881.81 5473.04 6135.61 5500.66 6135.61 5534.75C6135.61 5568.83 4881.81 5596.45 3335.16 5596.45C1788.53 5596.45 534.719 5568.83 534.719 5534.75Z" fill="#E0E0E0"/>
<path fill-rule="evenodd" clip-rule="evenodd" d="M5998.66 2716.46C5998.66 2716.46 5902.27 2713.75 5900.99 2608.56C5899.74 2505.03 5999.11 2499.58 5999.11 2499.58L6243.82 2501.32C6243.82 2501.32 6349.52 2496.39 6348.11 2615.21C6346.87 2719.35 6237.88 2726.59 6237.88 2726.59L6132.4 2725.84C6121.61 2725.77 6105.88 2732.65 6097.27 2741.2L6014.94 2823.05C6006.65 2831.3 6003.52 2827.95 6007.93 2815.58L6035.1 2739.54C6038.69 2729.46 6034.76 2720.68 6026.31 2719.95L5998.66 2716.46Z" fill="#4CC8ED"/>
<path fill-rule="evenodd" clip-rule="evenodd" d="M6209.16 2611.11C6209.16 2595.23 6221.83 2582.35 6237.47 2582.35C6253.11 2582.35 6265.79 2595.23 6265.79 2611.11C6265.79 2626.98 6253.11 2639.85 6237.47 2639.85C6221.83 2639.85 6209.16 2626.98 6209.16 2611.11Z" fill="white"/>
<path fill-rule="evenodd" clip-rule="evenodd" d="M6100.23 2611.11C6100.23 2595.23 6112.91 2582.35 6128.54 2582.35C6144.18 2582.35 6156.86 2595.23 6156.86 2611.11C6156.86 2626.98 6144.18 2639.85 6128.54 2639.85C6112.91 2639.85 6100.23 2626.98 6100.23 2611.11Z" fill="white"/>
<path fill-rule="evenodd" clip-rule="evenodd" d="M5989.91 2611.11C5989.91 2595.23 6002.6 2582.35 6018.23 2582.35C6033.87 2582.35 6046.55 2595.23 6046.55 2611.11C6046.55 2626.98 6033.87 2639.85 6018.23 2639.85C6002.6 2639.85 5989.91 2626.98 5989.91 2611.11Z" fill="white"/>
<path fill-rule="evenodd" clip-rule="evenodd" d="M5024.52 2461.47L5053.67 2597.64L4598.02 2657.06L5024.52 2461.47Z" fill="#0081C3"/>
<path fill-rule="evenodd" clip-rule="evenodd" d="M5014.5 2407.73L5032.76 2494.1L4746.04 2586.83L5014.5 2407.73Z" fill="#1172BA"/>
<path fill-rule="evenodd" clip-rule="evenodd" d="M4946.34 2349.27L5014.82 2408.64L4771.82 2573.3L5086.48 2453.16L5171.62 2505.89L4578.49 2662.81L4946.34 2349.27Z" fill="#2BAAE2"/>
<path fill-rule="evenodd" clip-rule="evenodd" d="M1924.64 4912.69L1589.54 4868.58C1580.94 4867.45 1571.27 4860.04 1567.96 4852.02L1438.6 4539.77C1435.28 4531.76 1436.87 4519.67 1442.15 4512.8L1647.89 4244.64C1653.17 4237.75 1664.42 4233.09 1673.02 4234.22L2008.12 4278.32C2016.73 4279.45 2026.39 4286.87 2029.7 4294.88L2159.07 4607.14C2162.39 4615.15 2160.8 4627.23 2155.52 4634.11L1949.77 4902.27C1944.5 4909.16 1933.24 4913.81 1924.64 4912.69Z" stroke="#2BAAE2" stroke-opacity="0.138889" stroke-width="15.78" stroke-linecap="round" stroke-linejoin="round"/>
<path fill-rule="evenodd" clip-rule="evenodd" d="M3874.75 4092.69L3624.17 4059.71C3617.74 4058.86 3610.52 4053.32 3608.03 4047.33L3511.3 3813.83C3508.81 3807.84 3510 3798.81 3513.95 3793.66L3667.8 3593.14C3671.75 3588 3680.17 3584.51 3686.6 3585.35L3937.18 3618.33C3943.6 3619.18 3950.83 3624.73 3953.32 3630.72L4050.04 3864.21C4052.53 3870.2 4051.34 3879.24 4047.39 3884.38L3893.54 4084.9C3889.6 4090.05 3881.18 4093.53 3874.75 4092.69Z" stroke="#2BAAE2" stroke-opacity="0.138889" stroke-width="15.78" stroke-linecap="round" stroke-linejoin="round"/>
<path fill-rule="evenodd" clip-rule="evenodd" d="M4575.02 3813.15L4179.33 3674.8C4169.18 3671.25 4159.32 3659.8 4157.32 3649.22L4079.29 3237.37C4077.28 3226.79 4082.27 3212.54 4090.43 3205.52L4408.09 2932.02C4416.24 2925 4431.09 2922.18 4441.24 2925.73L4836.94 3064.09C4847.09 3067.64 4856.95 3079.09 4858.95 3089.66L4936.98 3501.52C4938.98 3512.08 4934 3526.35 4925.84 3533.37L4608.18 3806.87C4600.02 3813.89 4585.18 3816.7 4575.02 3813.15Z" stroke="#2BAAE2" stroke-opacity="0.138889" stroke-width="15.78" stroke-linecap="round" stroke-linejoin="round"/>
<path opacity="0.196035" fill-rule="evenodd" clip-rule="evenodd" d="M6739.76 3443.99C6659.92 3443.99 6593.62 3496.32 6584.74 3564.66C6577.16 3563.43 6569.52 3562.59 6561.83 3562.59C6496.73 3562.59 6443.3 3605.27 6443.3 3659.03C6443.3 3708.62 6489.03 3749.37 6548.27 3754.86C6548.27 3754.86 6561.91 3756.38 6567.13 3756.93C6582.04 3758.51 6598.23 3760.08 6615.11 3761.55C6639.64 3763.68 6663.53 3765.4 6686.03 3766.58C6707.07 3767.69 6726.35 3768.28 6743.46 3768.28C6786.45 3768.28 6827.88 3766.42 6883.6 3762.64C6889.88 3762.21 6924.23 3759.83 6933.11 3759.24C6996.67 3755.3 7046.71 3711.44 7046.71 3657.6C7046.71 3618.43 7019.97 3583.79 6979.19 3566.7C6974.85 3530.73 6940.89 3503.19 6900.12 3503.19C6890.48 3503.19 6881.07 3504.82 6872.15 3507.84C6843.81 3468.49 6794.23 3443.99 6739.76 3443.99Z" fill="#2BAAE2" fill-opacity="0.0631313" stroke="#2BAAE2" stroke-width="15.22" stroke-linecap="round" stroke-linejoin="round"/>
<path opacity="0.196035" fill-rule="evenodd" clip-rule="evenodd" d="M4024.48 1870.35C3944.64 1870.35 3878.34 1922.7 3869.46 1991.02C3861.89 1989.79 3854.24 1988.96 3846.55 1988.96C3781.45 1988.96 3728.02 2031.64 3728.02 2085.39C3728.02 2134.98 3773.75 2175.75 3832.99 2181.23C3832.99 2181.23 3846.63 2182.74 3851.86 2183.29C3866.76 2184.88 3882.96 2186.45 3899.83 2187.92C3924.36 2190.06 3948.25 2191.77 3970.75 2192.95C3991.8 2194.05 4011.07 2194.65 4028.18 2194.65C4071.18 2194.65 4112.6 2192.78 4168.33 2189C4174.6 2188.58 4208.95 2186.19 4217.84 2185.61C4281.39 2181.66 4331.44 2137.8 4331.44 2083.97C4331.44 2044.8 4304.7 2010.15 4263.92 1993.07C4259.57 1957.1 4225.61 1929.55 4184.84 1929.55C4175.2 1929.55 4165.79 1931.19 4156.87 1934.21C4128.53 1894.86 4078.96 1870.35 4024.48 1870.35Z" fill="#2BAAE2" fill-opacity="0.0631313" stroke="#2BAAE2" stroke-width="15.22" stroke-linecap="round" stroke-linejoin="round"/>
<path opacity="0.196035" fill-rule="evenodd" clip-rule="evenodd" d="M1965.2 3260.94C1885.36 3260.94 1819.06 3313.28 1810.17 3381.61C1802.6 3380.38 1794.96 3379.54 1787.26 3379.54C1722.16 3379.54 1668.73 3422.22 1668.73 3475.98C1668.73 3525.57 1714.47 3566.33 1773.71 3571.81C1773.71 3571.81 1787.34 3573.33 1792.57 3573.88C1807.48 3575.46 1823.67 3577.03 1840.55 3578.5C1865.08 3580.64 1888.97 3582.35 1911.47 3583.53C1932.52 3584.64 1951.79 3585.23 1968.9 3585.23C2011.89 3585.23 2053.32 3583.36 2109.04 3579.59C2115.32 3579.16 2149.67 3576.78 2158.55 3576.19C2222.11 3572.25 2272.15 3528.39 2272.15 3474.56C2272.15 3435.38 2245.42 3400.74 2204.64 3383.65C2200.28 3347.68 2166.33 3320.13 2125.55 3320.13C2115.92 3320.13 2106.51 3321.77 2097.59 3324.79C2069.25 3285.44 2019.67 3260.94 1965.2 3260.94Z" fill="#2BAAE2" fill-opacity="0.0631313" stroke="#2BAAE2" stroke-width="15.22" stroke-linecap="round" stroke-linejoin="round"/>
<path opacity="0.196035" fill-rule="evenodd" clip-rule="evenodd" d="M2758.27 5020.88C2678.43 5020.88 2612.13 5073.21 2603.25 5141.54C2595.68 5140.31 2588.03 5139.48 2580.34 5139.48C2515.24 5139.48 2461.81 5182.16 2461.81 5235.91C2461.81 5285.5 2507.54 5326.26 2566.78 5331.75C2566.78 5331.75 2580.42 5333.26 2585.64 5333.81C2600.55 5335.4 2616.74 5336.97 2633.63 5338.44C2658.15 5340.57 2682.04 5342.29 2704.54 5343.47C2725.59 5344.57 2744.86 5345.16 2761.97 5345.16C2804.97 5345.16 2846.39 5343.3 2902.11 5339.52C2908.39 5339.1 2942.74 5336.71 2951.63 5336.13C3015.19 5332.19 3065.23 5288.32 3065.23 5234.48C3065.23 5195.32 3038.49 5160.67 2997.71 5143.59C2993.36 5107.61 2959.4 5080.07 2918.63 5080.07C2908.99 5080.07 2899.58 5081.71 2890.66 5084.73C2862.32 5045.38 2812.75 5020.88 2758.27 5020.88Z" fill="#2BAAE2" fill-opacity="0.0631313" stroke="#2BAAE2" stroke-width="15.22" stroke-linecap="round" stroke-linejoin="round"/>
<path fill-rule="evenodd" clip-rule="evenodd" d="M3581.97 2734.5L3554.38 2680.79L3599.82 2680.48C3627.36 2680.29 3649.37 2658.03 3648.97 2630.74L3646.85 2485C3646.36 2451.8 3618.78 2424.88 3585.26 2424.88H3300.94C3272.36 2424.88 3249.78 2447.81 3250.49 2476.1L3254.21 2624.55C3254.98 2655.28 3280.76 2680.32 3311.79 2680.51L3470.18 2681.93L3581.97 2734.5Z" fill="#2BAAE2"/>
<path fill-rule="evenodd" clip-rule="evenodd" d="M3366.21 2589.31C3347.46 2589.2 3332.54 2573.32 3332.86 2553.85L3332.9 2551.01C3333.3 2527.37 3352.06 2508.21 3374.8 2508.21H3436.07C3458.29 2508.21 3475.76 2526.92 3475.11 2550L3475.1 2550.42C3474.49 2571.8 3457.31 2589.24 3436.74 2589.39L3400.84 2589.65C3398.63 2589.66 3395.22 2590.49 3393.24 2591.51L3361.67 2603.3C3357.35 2604.92 3356.09 2603.24 3358.86 2599.55L3366.49 2589.4C3366.53 2589.35 3366.5 2589.31 3366.45 2589.31H3366.21Z" fill="#E0E0E0"/>
<path fill-rule="evenodd" clip-rule="evenodd" d="M3519.08 2539.74V2525.23C3530.86 2523.87 3539.3 2519.52 3544.4 2512.21H3559.72V2583.67H3539.08V2533.08C3534.92 2535.89 3528.25 2538.11 3519.08 2539.74Z" fill="#E0E0E0"/>
<path d="M5077.1 2408.43C5077.1 2408.43 5300.57 2392.73 5576.67 2344.22C5852.77 2295.72 6128.86 2172.59 6505.7 2583.01C6726.86 2823.88 6577.99 3613.41 5488.75 3708.36C4651.43 3781.35 4118.35 4306.65 4339.49 4880.97C4528.67 5372.31 3266.48 5135.74 3266.48 5135.74" stroke="#2BAAE2" stroke-opacity="0.237374" stroke-width="15.22" stroke-linecap="round" stroke-linejoin="round" stroke-dasharray="50 50 50 50"/>
<path fill-rule="evenodd" clip-rule="evenodd" d="M1110.03 4128.15C1110.03 4128.15 1130.96 3933.69 1073.35 3878.3C1015.73 3822.9 939.979 3942.19 901.931 3871.79C863.891 3801.38 958.228 3737.67 886.924 3637.4C832.583 3560.98 742.646 3684.67 686.54 3616.7C630.434 3548.72 727.919 3437.02 681.325 3343.2C634.731 3249.38 534.223 3292.37 500.159 3241.4C465.389 3189.37 565.045 3119.48 471.081 3056.48C368.717 2987.85 355.159 3110.47 271.256 3090.34C208.18 3075.2 157.223 2929.11 50.2385 3013.93C-39.5494 3085.12 44.8771 3191.83 44.941 3273.91C45.0224 3377.14 -36.5129 3379.64 20.5003 3486.44C59.2034 3558.93 158.893 3495.33 203.275 3561.96C247.656 3628.58 126.997 3677.04 198.026 3752.92C269.055 3828.79 411.979 3787.08 455.427 3843.01C498.876 3898.93 407.266 4028.41 471.064 4097.16C534.862 4165.92 641.08 4101.23 716.793 4159.87C792.506 4218.5 681.908 4321.81 758.14 4380.09C834.372 4438.36 1047.51 4373.58 1047.51 4373.58L1110.03 4128.15Z" fill="#0081C3"/>
<path fill-rule="evenodd" clip-rule="evenodd" d="M1436.85 4190.83C1436.85 4190.83 1603.28 3985.53 1572.22 3885.29C1541.16 3785.04 1424.06 3856.24 1428.01 3751.94C1431.96 3647.65 1552.55 3647.87 1516.3 3491.48C1480.76 3338.12 1386.28 3422.87 1366.19 3309.45C1346.08 3196.02 1447.89 3192.85 1458.21 3056.56C1468.53 2920.27 1325.85 2920.31 1312.88 2841.41C1300.93 2768.62 1465.33 2733.87 1394.91 2601.19C1318.2 2456.65 1240.96 2548.67 1151.97 2470.88C1085.06 2412.41 997.667 2249.53 858.197 2269.84C716.97 2290.41 799.208 2436.52 739.947 2529.03C665.416 2645.36 562.982 2594.62 556.135 2752.37C551.487 2859.46 674.034 2857.83 673.643 2941.89C673.251 3025.94 549.766 3037.03 582.571 3169.14C615.38 3301.27 761.495 3332 777.053 3430.28C791.509 3521.63 641.64 3616.9 670.672 3736.25C699.703 3855.6 824.23 3865.51 875.289 3981.29C926.339 4097.06 768.476 4127.79 820.429 4243.5C872.374 4359.21 1182.25 4426.22 1182.25 4426.22L1436.85 4190.83Z" fill="#4CC8ED"/>
<path fill-rule="evenodd" clip-rule="evenodd" d="M1378.28 4395.58C1378.28 4395.58 1637.79 4328.78 1684.58 4240.55C1731.36 4152.32 1594.96 4115.17 1666.39 4045.75C1737.83 3976.33 1813.95 4054.38 1909.86 3934.72C1982.94 3843.53 1842.72 3775.26 1905.11 3684.7C1967.48 3594.15 2095.89 3675.56 2192.48 3588.03C2289.06 3500.49 2203.35 3392.66 2252.84 3334.48C2303.37 3275.09 2421.02 3373.03 2464.55 3238.16C2511.98 3091.23 2360.41 3115.23 2356 3006.73C2352.67 2925.15 2510.42 2815.08 2372.36 2713.19C2256.5 2627.68 2157.35 2765.38 2059.01 2792.55C1935.32 2826.72 1904.59 2728.55 1796 2833.01C1722.28 2903.92 1832.41 3003.96 1767.67 3079.84C1702.93 3155.7 1603.8 3025.21 1537.03 3136.48C1470.27 3247.76 1533.74 3384.53 1481.5 3455.73C1429.26 3526.94 1278.08 3481.43 1217.39 3581.57C1156.69 3681.72 1241.73 3774.41 1197.22 3885.69C1152.71 3996.96 1019.89 3911.68 975.99 4023.46C932.088 4135.24 1084.79 4399.44 1084.79 4399.44L1378.28 4395.58Z" fill="#0081C3"/>
<path fill-rule="evenodd" clip-rule="evenodd" d="M816.432 4532.3L942.908 5392.47L1453.45 5388.66L1539.12 4524.98L816.432 4532.3Z" fill="#1172BA"/>
<path fill-rule="evenodd" clip-rule="evenodd" d="M821.496 4564.37L1536.59 4554.67L1525.35 4636.42L832.462 4639.45L821.496 4564.37Z" fill="#135EAB"/>
<path fill-rule="evenodd" clip-rule="evenodd" d="M666.908 4379.44L1705.73 4362.11L1682.26 4560.73L681.132 4571.67L666.908 4379.44Z" fill="#1172BA"/>
<path opacity="0.42511" fill-rule="evenodd" clip-rule="evenodd" d="M1997.1 1215.02C2015.15 1215.46 2030.91 1217.93 2040.99 1221.06L2046.28 1316.97C2089.78 1318.11 2118.01 1319.8 2155.98 1335.53L2203.88 1250.61C2245.69 1261.66 2302.13 1295.32 2321.71 1326.93L2267.33 1404.8C2293.91 1428.58 2312.71 1449.59 2330.97 1480.45L2409.42 1439.7C2434.05 1467.08 2457.71 1522.81 2454.98 1550.16L2372.71 1578.19C2380.54 1608.85 2384.32 1641.1 2383.44 1674.32L2470.82 1689.02C2478.3 1720.53 2470.95 1782.21 2447.81 1813.47L2362.3 1785.53C2350.39 1818.08 2332.69 1850.83 2312.23 1877.94L2378.14 1944.41C2360.82 1972.44 2316.85 2015.02 2288.9 2028.94L2230.42 1954.25C2200.04 1974.84 2166.28 1990.66 2130.18 2000.78L2145.16 2087.94C2109.61 2103.55 2069.86 2108.82 2028.81 2101.8L2027.92 2013.41C1992.56 2012.48 1964.83 2009.26 1932.96 1998.52L1896.96 2078.12C1863.34 2077.33 1815.73 2052.82 1796.15 2026.8L1843.82 1954.41C1812.06 1932.93 1784.06 1906.29 1760.98 1875.75L1679.3 1922.96C1648.67 1901.61 1619.84 1844.94 1618.13 1811.88L1708.5 1776.12C1695.94 1738.49 1686.09 1712.62 1687.19 1670.62L1588.26 1656.81C1576.99 1616.6 1588.97 1562.36 1611.44 1534.88L1706.77 1559.78C1716.73 1528.2 1731.06 1498.58 1748.99 1471.66L1670.27 1406.62C1689.59 1358.18 1725.25 1321.23 1762.76 1307.17L1833.13 1382.9C1860.53 1362.27 1893.9 1342.51 1926.65 1330.71L1903.44 1236.07C1930.58 1219.23 1967.01 1214.3 1997.1 1215.02ZM2037.24 1479.41C1933.57 1476.67 1847.29 1559.18 1844.53 1663.68C1841.78 1768.18 1923.59 1855.12 2027.26 1857.86C2130.93 1860.59 2217.21 1778.08 2219.97 1673.58C2222.72 1569.08 2140.91 1482.14 2037.24 1479.41Z" fill="#2BAAE2"/>
<path opacity="0.42511" fill-rule="evenodd" clip-rule="evenodd" d="M2589.14 1699.12C2602.33 1695.98 2614.25 1694.77 2622.17 1695.11L2644.34 1763.74C2676.15 1756.26 2696.97 1752.1 2727.55 1756.26L2746.11 1685.43C2778.58 1685.46 2826 1699.11 2846.27 1718.32L2821.66 1785.27C2845.5 1797.46 2863.17 1809.12 2882.33 1828.04L2931.52 1783.45C2954.63 1798.63 2982.47 1834.57 2985.71 1854.96L2931.32 1891.04C2942.88 1911.8 2951.79 1934.5 2957.5 1958.8L3023.76 1952.77C3035.22 1974.22 3041.67 2020.41 3030.85 2047.54L2963.41 2043.59C2960.98 2069.51 2954.39 2096.68 2944.72 2120.27L3005.28 2155.95C2998.06 2179.61 2974.28 2218.94 2956.63 2234.39L2899.9 2191.33C2881.77 2212.08 2860.27 2230.04 2836 2244.28L2863.54 2304.71C2840.7 2322.84 2812.84 2334.26 2781.7 2337.02L2764.15 2273.01C2738.3 2279.08 2717.54 2282.05 2692.34 2280.34L2681.41 2345.03C2656.86 2350.88 2617.59 2342.19 2598.4 2327.04L2619.18 2265.36C2592 2255.83 2566.58 2241.83 2543.99 2224.06L2493.7 2273.97C2467.37 2264.32 2435.59 2228.67 2428.04 2205L2486.84 2161.75C2470.51 2136.83 2458.41 2119.92 2451.19 2089.21L2376.7 2098.09C2360.83 2071.05 2359.16 2029.37 2370.22 2005.13L2444.21 2004.98C2445.41 1980.14 2450.15 1955.89 2458.03 1932.91L2388.43 1900.73C2393.19 1861.86 2412.03 1828.22 2436.59 1810.83L2502.16 1852.38C2518.11 1832.16 2538.57 1811.43 2560.1 1796.59L2525.15 1732.31C2541.63 1714.89 2567.16 1704.34 2589.14 1699.12ZM2668.83 1883.44C2593.03 1901.27 2546.14 1977.68 2564.12 2054.09C2582.09 2130.51 2658.13 2178 2733.93 2160.17C2809.74 2142.34 2856.63 2065.92 2838.65 1989.51C2820.67 1913.1 2744.64 1865.6 2668.83 1883.44Z" fill="#2BAAE2"/>
<path opacity="0.42511" fill-rule="evenodd" clip-rule="evenodd" d="M6016.35 4952.96C6002.12 4969.86 5987.72 4983.02 5977.02 4990.25L5881.43 4921.97C5847.07 4962.62 5823.88 4988.27 5779.83 5012.48L5824.26 5123.14C5781.74 5154.6 5706.46 5182.75 5661.31 5177.27L5628.56 5065.81C5585.55 5073 5551.12 5074.87 5507.69 5068.71L5486.6 5174.76C5441.64 5177.33 5370.35 5157.29 5346.33 5133.77L5382.49 5033.82C5347.22 5017.86 5313.55 4996.8 5282.51 4970.56L5201.66 5042.73C5165.87 5025.76 5112.61 4971.59 5100.47 4925.59L5192.52 4865.35C5170.56 4829.08 5152.83 4787.14 5142.59 4746.89L5028.75 4758.97C5015.24 4721.01 5008.22 4646.48 5016.3 4609.15L5132.31 4610.45C5135.89 4565.71 5146.6 4521.38 5164.54 4479.18L5069.88 4426.84C5082.18 4380.97 5107.54 4338.99 5145.62 4305.19L5230.68 4371.91C5258.6 4338.87 5282.89 4314.87 5317.51 4292.66L5269.05 4197.43C5295.51 4165.95 5355.31 4139.24 5395.11 4140.44L5427.76 4241.29C5472.56 4227.41 5519.4 4221.05 5566.2 4222.38L5583.58 4108.3C5627.37 4095.39 5703.53 4111.2 5736.39 4134.84L5701.42 4248.46C5746.95 4265.24 5779.18 4275.62 5818.41 4308.79L5907.26 4224.91C5954.25 4244.9 5996.87 4297.81 6005.91 4340.26L5909.25 4412.22C5931.78 4445.89 5949.1 4482.21 5961.09 4519.91L6083.36 4494.5C6114.82 4549.97 6122.82 4612.26 6107.57 4658.83L5981.48 4668.08C5980.21 4710.01 5973.56 4756.98 5959.79 4797.27L6067.87 4847.48C6063.2 4886.25 6040.04 4924.81 6016.35 4952.96ZM5733.28 4789.13C5815.16 4692.27 5802.38 4546.81 5704.74 4464.28C5607.1 4381.75 5461.55 4393.36 5379.67 4490.23C5297.79 4587.09 5310.58 4732.54 5408.21 4815.08C5505.86 4897.61 5651.41 4886 5733.28 4789.13Z" fill="#2BAAE2"/>
<path opacity="0.42511" fill-rule="evenodd" clip-rule="evenodd" d="M5111.34 5115.7C5104.25 5130.69 5096.3 5143 5089.91 5150.3L5007.45 5118.98C4990.27 5155.06 4978.33 5178.12 4950.97 5204.13L5004.39 5276C4979.52 5306.98 4930.24 5341.8 4896.41 5346.46L4851.31 5271.77C4821.45 5285.21 4796.81 5293.17 4764.1 5296.99L4769.06 5378.03C4736.9 5388.5 4681.3 5387.58 4659.36 5375.09L4666.5 5295.59C4637.85 5290.74 4609.37 5281.88 4581.81 5268.76L4536.9 5336.62C4507.66 5331.15 4458.63 5301.99 4441.02 5270.91L4496.35 5209.56C4473.47 5187.42 4452.58 5160.36 4437.45 5133.08L4357.09 5163.63C4340.01 5138.64 4320.67 5085.85 4319.4 5057.2L4403.9 5035.97C4397.95 5002.79 4397.24 4968.55 4402.21 4934.48L4323.46 4914.56C4323.62 4878.9 4334.01 4843.58 4355.2 4811.74L4429.73 4843.94C4443.69 4814.61 4456.74 4792.54 4477.64 4769.79L4424.24 4709.9C4437.43 4681.98 4475.75 4651.16 4504.89 4644.42L4547.88 4711.41C4577.75 4692.76 4610.55 4679.19 4644.79 4671.21L4635.6 4585.04C4664.94 4567.3 4723.27 4564.22 4751.65 4575.11L4747.97 4664.3C4784.24 4667.78 4809.63 4669.16 4844.47 4685.75L4892.95 4607.85C4930.89 4613.37 4971.96 4643.65 4986.64 4672.75L4930.21 4743.49C4953 4763.63 4972.52 4786.7 4988.43 4811.78L5072.37 4769.96C5105.82 4804.22 5123.54 4847.93 5121.37 4884.66L5031.56 4915.49C5038.66 4946.17 5042.82 4981.55 5040.51 5013.44L5128.59 5029.24C5132.62 5058.3 5123.17 5090.72 5111.34 5115.7ZM4874.48 5050.84C4915.42 4964.84 4878.33 4861.66 4791.64 4820.39C4704.95 4779.12 4601.48 4815.38 4560.54 4901.38C4519.6 4987.38 4556.69 5090.56 4643.38 5131.82C4730.05 5173.09 4833.53 5136.83 4874.48 5050.84Z" fill="#2BAAE2"/>
<path opacity="0.42511" fill-rule="evenodd" clip-rule="evenodd" d="M1360.46 1846.57C1374.52 1842.04 1387.37 1839.7 1396.02 1839.4L1425.97 1912.11C1459.9 1901.27 1482.18 1894.97 1515.77 1896.89L1529.9 1818.32C1565.2 1815.59 1617.91 1826.39 1641.57 1845.55L1620.52 1920.41C1647.47 1931.62 1667.67 1942.8 1690.12 1961.73L1739.78 1909.07C1766.2 1923.6 1799.51 1960.31 1804.77 1982.18L1748.73 2026.03C1763.06 2047.62 1774.67 2071.53 1782.95 2097.45L1854.46 2085.25C1868.74 2107.6 1879.69 2157.26 1870.22 2187.66L1796.59 2189.12C1796.15 2217.49 1791.31 2247.59 1782.81 2274.05L1851.68 2307.67C1845.84 2334.01 1823.33 2378.77 1805.48 2397.07L1740.14 2355.1C1722.2 2379.21 1700.37 2400.55 1675.2 2418.1L1710.27 2481.43C1687 2503.09 1657.69 2517.88 1624.07 2523.52L1599.55 2455.44C1571.97 2464.25 1549.65 2469.23 1522.12 2469.52L1515.76 2540.77C1489.56 2549.22 1446.15 2543.11 1423.99 2528.28L1441.32 2459.47C1410.98 2451.42 1382.15 2438.37 1356.08 2420.98L1305.67 2479.51C1276.24 2471.27 1238.66 2435.23 1228.43 2410.14L1288.65 2358.12C1268.79 2332.42 1254.21 2315.07 1243.74 2282.31L1163.53 2298.31C1143.97 2270.28 1138.61 2225.11 1148.58 2197.81L1228.98 2191.35C1228.17 2164.25 1231.26 2137.5 1237.86 2111.85L1159.47 2082.8C1161.35 2040.15 1178.95 2001.97 1204.15 1980.98L1278.96 2020.55C1294.59 1997.22 1315.06 1972.94 1337.19 1954.99L1293.73 1888.08C1310.17 1867.75 1337.01 1854.12 1360.46 1846.57ZM1462.77 2040.12C1381.9 2065.95 1337.44 2153 1363.49 2234.53C1389.53 2316.06 1476.22 2361.2 1557.1 2335.37C1637.97 2309.52 1682.42 2222.48 1656.38 2140.96C1630.34 2059.43 1543.65 2014.28 1462.77 2040.12Z" fill="#2BAAE2"/>
<path opacity="0.42511" fill-rule="evenodd" clip-rule="evenodd" d="M2976.57 1553.22C2983.83 1544.83 2991.16 1538.32 2996.58 1534.75L3044.17 1569.72C3061.71 1549.52 3073.54 1536.79 3095.85 1524.92L3074.27 1468.99C3095.86 1453.47 3133.88 1439.84 3156.54 1442.9L3172.24 1499.14C3193.91 1495.82 3211.23 1495.11 3233.01 1498.5L3244.34 1445.35C3266.95 1444.36 3302.65 1454.91 3314.56 1466.89L3295.7 1516.89C3313.32 1525.16 3330.1 1535.97 3345.53 1549.36L3386.65 1513.65C3404.53 1522.41 3430.93 1550 3436.72 1573.2L3390.04 1602.86C3400.83 1621.24 3409.46 1642.44 3414.33 1662.73L3471.63 1657.44C3478.17 1676.61 3481.19 1714.12 3476.87 1732.82L3418.57 1731.39C3416.47 1753.85 3410.79 1776.06 3401.48 1797.15L3448.7 1824.1C3442.21 1847.07 3429.18 1868 3409.81 1884.73L3367.51 1850.61C3353.25 1867.03 3340.89 1878.93 3323.33 1889.86L3347.04 1938.05C3333.53 1953.69 3303.29 1966.71 3283.29 1965.84L3267.57 1914.93C3244.96 1921.6 3221.37 1924.48 3197.85 1923.5L3188.35 1980.71C3166.24 1986.9 3128.07 1978.44 3111.72 1966.34L3130.07 1909.46C3107.3 1900.73 3091.17 1895.29 3071.67 1878.35L3026.45 1919.9C3002.96 1909.54 2981.9 1882.66 2977.65 1861.26L3026.72 1825.74C3015.62 1808.67 3007.16 1790.3 3001.4 1771.26L2939.77 1783.21C2924.33 1755.11 2920.73 1723.74 2928.71 1700.45L2992.16 1696.65C2993.08 1675.58 2996.73 1652.02 3003.94 1631.87L2949.95 1605.89C2952.56 1586.44 2964.46 1567.21 2976.57 1553.22ZM3117.72 1637.5C3075.91 1685.63 3081.35 1758.82 3129.86 1800.97C3178.38 1843.11 3251.62 1838.26 3293.43 1790.14C3335.24 1742 3329.81 1668.81 3281.29 1626.67C3232.77 1584.51 3159.53 1589.37 3117.72 1637.5Z" fill="#2BAAE2"/>
<path fill-rule="evenodd" clip-rule="evenodd" d="M3616.67 4729.18L2860.64 4735.64C2860.64 4735.64 2827.13 4903.2 2797.14 5058.41C2767.16 5213.61 2770.31 5285.63 2817.93 5343.4C2865.55 5401.16 2998.98 5418.63 2998.98 5418.63L4038.21 5416.62L4035.31 5368.83C4035.31 5368.83 3598.88 5377.55 3509.71 5255.95C3420.53 5134.35 3616.67 4729.18 3616.67 4729.18Z" fill="#1172BA"/>
<path fill-rule="evenodd" clip-rule="evenodd" d="M3668.68 4725.93L2912.66 4732.39C2912.66 4732.39 2879.14 4899.95 2849.16 5055.17C2819.17 5210.38 2822.32 5282.39 2869.94 5340.15C2917.57 5397.92 3050.99 5415.39 3050.99 5415.39L4090.23 5413.38L4087.32 5365.59C4087.32 5365.59 3650.89 5374.31 3561.72 5252.71C3472.54 5131.11 3668.68 4725.93 3668.68 4725.93Z" fill="#2BAAE2"/>
<path opacity="0.947137" fill-rule="evenodd" clip-rule="evenodd" d="M3546.81 5127.54L2841.21 5278.28C2841.21 5278.28 2822.65 5248.65 2830.57 5162.89C2838.5 5077.13 2872.9 4935.25 2872.9 4935.25L3603.22 4881.88C3603.22 4881.88 3583.4 4924.63 3567.32 5008.2C3551.23 5091.78 3546.81 5127.54 3546.81 5127.54Z" fill="#4CC8ED"/>
<path fill-rule="evenodd" clip-rule="evenodd" d="M4370.9 2259.56L1274.32 2222.95C1257.38 2222.95 1245.91 2251.83 1239.73 2308.76C1233.54 2365.69 1249.59 2450.66 1249.59 2450.66L1694.16 4792.45C1699.94 4821.9 1728.99 4845.73 1759.06 4845.64L4828.41 4769.24C4880.36 4760.92 4901.62 4711.97 4901.14 4675.83L4874.51 4553.83L4435.49 2365.24C4422.73 2316.75 4393.98 2259.56 4370.9 2259.56Z" fill="#1172BA"/>
<path fill-rule="evenodd" clip-rule="evenodd" d="M4377.95 2260.73L4337.68 2260.24L1270.88 2222.95C1256.89 2222.95 1264.9 2316.99 1282.93 2404.74C1309.46 2533.87 1728.92 4743.09 1728.92 4743.09C1734.63 4772.26 1764.65 4794.6 1794.38 4794.52L4845.26 4736.44C4874.98 4736.36 4905.88 4700.9 4900.21 4671.73L4428.44 2341.76C4421.69 2308.12 4377.95 2260.73 4377.95 2260.73Z" fill="#4CC8ED"/>
<path fill-rule="evenodd" clip-rule="evenodd" d="M1937.37 4792.87L1809.72 4795.85C1729.9 4793.12 1731.36 4777.54 1708.47 4646.05L1693.44 4550.98L2553.55 4244.29L3496.15 4241.96L1937.37 4792.87Z" fill="#2BAAE2"/>
<path fill-rule="evenodd" clip-rule="evenodd" d="M1280.64 2219.02L1704.47 4332.46C1706.53 4342.73 1716.69 4350.86 1727.16 4350.62L4805.4 4280.32L4394.81 2256.12L4347.53 2255.56L1280.64 2219.02Z" fill="#272361"/>
<path fill-rule="evenodd" clip-rule="evenodd" d="M1363.16 2297.76L1759.31 4252.03C1761.72 4263.93 1773.52 4273.34 1785.66 4273.05L4666.57 4205.13C4685.01 4204.7 4697.08 4189.67 4693.52 4171.56L4329.31 2331.94L1363.16 2297.76Z" fill="white"/>
<path fill-rule="evenodd" clip-rule="evenodd" d="M1346.72 2285.82L1390.67 2522.28L4389.05 2534.38L4344.07 2323.48L1346.72 2285.82Z" fill="#272361"/>
<path fill-rule="evenodd" clip-rule="evenodd" d="M2641.09 3422.28L2712.32 3789.86C2713.36 3795.22 2719.9 3799.56 2726.93 3799.56H3326.46C3333.49 3799.56 3338.35 3795.22 3337.32 3789.86L3266.57 3422.29C3265.54 3416.93 3259.01 3412.59 3251.98 3412.59H2651.94C2644.91 3412.59 2640.05 3416.92 2641.09 3422.28Z" fill="#34DE0F"/>
<path fill-rule="evenodd" clip-rule="evenodd" d="M4225.36 3449.27H3764.57C3763.46 3449.27 3762.76 3449.83 3763 3450.54L3776.65 3491.23C3776.88 3491.93 3777.97 3492.51 3779.07 3492.51L4242.95 3494.2C4244.05 3494.21 4244.73 3493.64 4244.46 3492.95L4227.86 3450.53C4227.58 3449.83 4226.46 3449.27 4225.36 3449.27Z" fill="#34DE0F"/>
<path fill-rule="evenodd" clip-rule="evenodd" d="M2007.58 3427.98L1814.84 3428.33C1811.43 3428.33 1809.35 3431.02 1810.17 3434.32L1899.27 3790.19C1900.1 3793.49 1903.53 3796.17 1906.93 3796.17H2096.44C2099.84 3796.17 2101.95 3793.49 2101.15 3790.18L2015.18 3433.96C2014.38 3430.65 2010.98 3427.97 2007.58 3427.98Z" fill="#4B4B4B"/>
<path fill-rule="evenodd" clip-rule="evenodd" d="M4248.07 3526.24H3787.27C3786.17 3526.24 3785.47 3526.8 3785.7 3527.51L3799.36 3568.2C3799.59 3568.9 3800.68 3569.48 3801.79 3569.48L4265.66 3571.17C4266.77 3571.17 4267.45 3570.61 4267.17 3569.92L4250.56 3527.5C4250.29 3526.8 4249.17 3526.24 4248.07 3526.24Z" fill="#4B4B4B"/>
<path fill-rule="evenodd" clip-rule="evenodd" d="M4270.77 3601.94H3809.99C3808.89 3601.94 3808.17 3602.51 3808.41 3603.21L3822.07 3643.9C3822.3 3644.6 3823.39 3645.18 3824.5 3645.18L4288.37 3646.87C4289.48 3646.87 4290.15 3646.31 4289.88 3645.62L4273.27 3603.2C4273 3602.51 4271.89 3601.94 4270.77 3601.94Z" fill="#4B4B4B"/>
<path fill-rule="evenodd" clip-rule="evenodd" d="M4321.25 3842.94H3860.45C3859.35 3842.94 3858.65 3843.5 3858.88 3844.21L3872.54 3884.9C3872.77 3885.6 3873.86 3886.17 3874.96 3886.18L4338.84 3887.87C4339.95 3887.87 4340.62 3887.31 4340.34 3886.61L4323.74 3844.2C4323.47 3843.49 4322.35 3842.94 4321.25 3842.94Z" fill="#34DE0F"/>
<path fill-rule="evenodd" clip-rule="evenodd" d="M4342.7 3922.42H3881.91C3880.81 3922.42 3880.1 3922.99 3880.34 3923.69L3893.99 3964.39C3894.22 3965.09 3895.31 3965.66 3896.42 3965.66L4360.29 3967.36C4361.4 3967.36 4362.07 3966.8 4361.8 3966.1L4345.2 3923.69C4344.92 3922.98 4343.81 3922.42 4342.7 3922.42Z" fill="#4B4B4B"/>
<path fill-rule="evenodd" clip-rule="evenodd" d="M4367.93 4005.7H3907.14C3906.03 4005.7 3905.33 4006.27 3905.57 4006.97L3919.22 4047.66C3919.46 4048.36 3920.55 4048.93 3921.65 4048.94L4385.53 4050.64C4386.64 4050.64 4387.31 4050.08 4387.04 4049.37L4370.43 4006.96C4370.15 4006.26 4369.04 4005.7 4367.93 4005.7Z" fill="#4B4B4B"/>
<path fill-rule="evenodd" clip-rule="evenodd" d="M3358.04 3869.41L1919.12 3872.14C1918.2 3872.14 1917.67 3872.85 1917.93 3873.74L1933.17 3924.86C1933.43 3925.74 1934.4 3926.46 1935.32 3926.46L3375.32 3931.97C3376.25 3931.97 3376.79 3931.26 3376.55 3930.37L3360.16 3871.02C3359.91 3870.13 3358.97 3869.41 3358.04 3869.41Z" fill="#34DE0F"/>
<path fill-rule="evenodd" clip-rule="evenodd" d="M2265.24 3427.98L2072.5 3428.33C2069.1 3428.33 2067.01 3431.02 2067.84 3434.32L2156.94 3790.19C2157.76 3793.49 2161.19 3796.17 2164.6 3796.17H2354.09C2357.5 3796.17 2359.61 3793.49 2358.81 3790.18L2272.85 3433.96C2272.05 3430.65 2268.64 3427.97 2265.24 3427.98Z" fill="#4B4B4B"/>
<path fill-rule="evenodd" clip-rule="evenodd" d="M2523.88 3427.98L2331.15 3428.33C2327.75 3428.33 2325.66 3431.02 2326.49 3434.32L2415.59 3790.19C2416.41 3793.49 2419.84 3796.17 2423.24 3796.17H2612.74C2616.15 3796.17 2618.25 3793.49 2617.45 3790.18L2531.49 3433.96C2530.7 3430.65 2527.29 3427.97 2523.88 3427.98Z" fill="#4B4B4B"/>
<path fill-rule="evenodd" clip-rule="evenodd" d="M3397.25 3973.49L1958.33 3976.21C1957.41 3976.21 1956.87 3976.93 1957.14 3977.82L1972.38 4028.94C1972.64 4029.82 1973.6 4030.53 1974.52 4030.54L2804.59 4033.71L3414.53 4036.05C3415.45 4036.05 3416 4035.33 3415.76 4034.45L3399.37 3975.09C3399.12 3974.21 3398.18 3973.49 3397.25 3973.49Z" fill="#4B4B4B"/>
<path fill-rule="evenodd" clip-rule="evenodd" d="M3422.99 4072.37L1984.06 4075.09C1983.14 4075.09 1982.61 4075.81 1982.87 4076.7L1998.11 4127.81C1998.37 4128.7 1999.33 4129.42 2000.26 4129.42L2830.32 4132.59L3440.26 4134.93C3441.19 4134.93 3441.73 4134.22 3441.48 4133.32L3425.1 4073.97C3424.85 4073.09 3423.91 4072.37 3422.99 4072.37Z" fill="#4B4B4B"/>
<path fill-rule="evenodd" clip-rule="evenodd" d="M4993.44 1967.41L5050.16 1855.9L4956.77 1855.27C4900.12 1854.88 4854.88 1808.67 4855.7 1752.03L4860.08 1449.48C4861.08 1380.56 4917.77 1324.69 4986.69 1324.69H5304.12H5571.15C5629.88 1324.69 5676.32 1372.29 5674.87 1431L5667.21 1739.17C5665.63 1802.95 5612.63 1854.95 5548.84 1855.32L5223.26 1858.28L4993.44 1967.41Z" fill="#272361"/>
<path fill-rule="evenodd" clip-rule="evenodd" d="M4972.47 1433.06H5088.11C5096.44 1433.06 5103.19 1439.81 5103.19 1448.14C5103.19 1456.47 5096.44 1463.22 5088.11 1463.22H4972.47C4964.14 1463.22 4957.39 1456.47 4957.39 1448.14C4957.39 1439.81 4964.14 1433.06 4972.47 1433.06Z" fill="white"/>
<path fill-rule="evenodd" clip-rule="evenodd" d="M5156.83 1430.55H5545.4C5555.33 1430.55 5563.38 1437.3 5563.38 1445.63C5563.38 1453.95 5555.33 1460.7 5545.4 1460.7H5156.83C5146.89 1460.7 5138.84 1453.95 5138.84 1445.63C5138.84 1437.3 5146.89 1430.55 5156.83 1430.55Z" fill="white"/>
<path fill-rule="evenodd" clip-rule="evenodd" d="M4975.09 1526.24H5347.27C5355.51 1526.24 5362.19 1533 5362.19 1541.32C5362.19 1549.65 5355.51 1556.4 5347.27 1556.4H4975.09C4966.85 1556.4 4960.18 1549.65 4960.18 1541.32C4960.18 1533 4966.85 1526.24 4975.09 1526.24Z" fill="white"/>
<path fill-rule="evenodd" clip-rule="evenodd" d="M5411.37 1524.8H5551.64C5557.97 1524.8 5563.11 1531.54 5563.11 1539.87C5563.11 1548.2 5557.97 1554.95 5551.64 1554.95H5411.37C5405.03 1554.95 5399.88 1548.2 5399.88 1539.87C5399.88 1531.54 5405.03 1524.8 5411.37 1524.8Z" fill="white"/>
<path fill-rule="evenodd" clip-rule="evenodd" d="M4978.11 1619.28H5255.09C5263.42 1619.28 5270.17 1626.03 5270.17 1634.35C5270.17 1642.68 5263.42 1649.43 5255.09 1649.43H4978.11C4969.78 1649.43 4963.03 1642.68 4963.03 1634.35C4963.03 1626.03 4969.78 1619.28 4978.11 1619.28Z" fill="white"/>
<path fill-rule="evenodd" clip-rule="evenodd" d="M5308.79 1618.26H5351.72C5360.04 1618.26 5366.79 1625.01 5366.79 1633.34C5366.79 1641.66 5360.04 1648.41 5351.72 1648.41H5308.79C5300.46 1648.41 5293.71 1641.66 5293.71 1633.34C5293.71 1625.01 5300.46 1618.26 5308.79 1618.26Z" fill="white"/>
<path fill-rule="evenodd" clip-rule="evenodd" d="M5404.79 1616.05H5544.83C5553.16 1616.05 5559.91 1622.8 5559.91 1631.13C5559.91 1639.45 5553.16 1646.2 5544.83 1646.2H5404.79C5396.46 1646.2 5389.71 1639.45 5389.71 1631.13C5389.71 1622.8 5396.46 1616.05 5404.79 1616.05Z" fill="white"/>
<path fill-rule="evenodd" clip-rule="evenodd" d="M4983.16 1708.73H5131.86C5140.18 1708.73 5146.93 1715.48 5146.93 1723.81C5146.93 1732.14 5140.18 1738.88 5131.86 1738.88H4983.16C4974.83 1738.88 4968.08 1732.14 4968.08 1723.81C4968.08 1715.48 4974.83 1708.73 4983.16 1708.73Z" fill="white"/>
<path fill-rule="evenodd" clip-rule="evenodd" d="M5204.75 1708.01H5312.86C5321.18 1708.01 5327.93 1714.76 5327.93 1723.09C5327.93 1731.42 5321.18 1738.17 5312.86 1738.17H5204.75C5196.42 1738.17 5189.67 1731.42 5189.67 1723.09C5189.67 1714.76 5196.42 1708.01 5204.75 1708.01Z" fill="white"/>
<path fill-rule="evenodd" clip-rule="evenodd" d="M4313.47 1516.75L4264.02 1420.51L4345.43 1419.96C4394.79 1419.63 4434.23 1379.74 4433.51 1330.86L4429.69 1069.71C4428.82 1010.22 4379.42 962 4319.34 962H3809.93C3758.74 962 3718.26 1003.09 3719.53 1053.77L3726.2 1319.76C3727.58 1374.8 3773.78 1419.69 3829.38 1420.01L4113.15 1422.56L4313.47 1516.75Z" fill="#2BAAE2"/>
<path fill-rule="evenodd" clip-rule="evenodd" d="M3926.88 1256.61C3893.29 1256.41 3866.55 1227.97 3867.12 1193.08L3867.21 1187.98C3867.91 1145.63 3901.52 1111.3 3942.28 1111.3H4052.04C4091.85 1111.3 4123.17 1144.82 4121.99 1186.17L4121.98 1186.93C4120.88 1225.23 4090.11 1256.49 4053.24 1256.75L3988.92 1257.21C3984.96 1257.24 3978.86 1258.73 3975.31 1260.54L3918.75 1281.69C3911.01 1284.58 3908.76 1281.57 3913.72 1274.96L3927.38 1256.77C3927.45 1256.69 3927.41 1256.61 3927.3 1256.61L3926.88 1256.61Z" fill="#E0E0E0"/>
<path fill-rule="evenodd" clip-rule="evenodd" d="M4200.77 1167.78V1141.78C4221.87 1139.36 4236.98 1131.58 4246.14 1118.46H4273.58V1246.51H4236.61V1155.88C4229.14 1160.9 4217.19 1164.87 4200.77 1167.78Z" fill="#E0E0E0"/>
<path fill-rule="evenodd" clip-rule="evenodd" d="M5296.84 3126.12H5783.23C5807.46 3126.12 5827.34 3145.76 5827.64 3169.99L5830.95 3440.53C5831.24 3464.76 5811.84 3484.33 5787.6 3484.24L5291.88 3482.39C5267.65 3482.29 5248.28 3462.58 5248.62 3438.35L5252.36 3169.99C5252.69 3145.76 5272.61 3126.12 5296.84 3126.12Z" fill="#2BAAE2"/>
<path d="M5266.52 3141.18C5266.52 3141.18 5403.11 3276.11 5470.56 3329.78C5538 3383.44 5545.17 3385.39 5601.13 3335.37C5665.92 3277.46 5806.83 3135.45 5806.83 3135.45" stroke="white" stroke-width="8.86" stroke-linecap="round" stroke-linejoin="round"/>
<path d="M5631.69 3309.81L5811.48 3472.03" stroke="white" stroke-width="8.86" stroke-linecap="round" stroke-linejoin="round"/>
<path d="M5262.62 3469.59L5444.52 3314.36" stroke="white" stroke-width="8.86" stroke-linecap="round" stroke-linejoin="round"/>
<path fill-rule="evenodd" clip-rule="evenodd" d="M5868.25 4840.97L5869.17 4761.24C5869.17 4761.24 6131.06 4758.26 6129.47 4993.38C6127.91 5225.65 5868.5 5258.79 5868.5 5258.79L5872.51 5167.24C5872.51 5167.24 6058.65 5161.29 6056.05 4996.79C6053.54 4838.1 5868.25 4840.97 5868.25 4840.97Z" fill="#2BAAE2"/>
<path fill-rule="evenodd" clip-rule="evenodd" d="M5275.01 4537.99L5288.56 5322.55C5289.31 5365.65 5324.25 5400.74 5366.61 5400.93L5792.38 5402.9C5843.21 5403.14 5884.36 5361.41 5884.28 5309.68L5883.07 4539.38L5275.01 4537.99Z" fill="#2BAAE2"/>
<path fill-rule="evenodd" clip-rule="evenodd" d="M5883.69 4539.35L5773.67 4539.61L5777.45 5309.72C5777.45 5309.72 5776.9 5341.22 5767.59 5364.46C5758.28 5387.71 5722.34 5402.58 5722.34 5402.58L5789.4 5403.13C5846.89 5403.61 5885.33 5362.47 5885.41 5305.25L5883.69 4539.35Z" fill="#0081C3"/>
<path fill-rule="evenodd" clip-rule="evenodd" d="M5326.66 4607.35L5329.68 5012C5329.75 5021.69 5337.53 5029.53 5347.04 5029.52H5350.59C5360.1 5029.51 5367.72 5021.66 5367.59 5011.98L5362.42 4607.36C5362.3 4597.68 5354.49 4589.83 5344.97 4589.83H5343.76C5334.25 4589.83 5326.59 4597.67 5326.66 4607.35Z" fill="#4CC8ED"/>
<path fill-rule="evenodd" clip-rule="evenodd" d="M2016.23 2801.29L2015.91 3013C2015.29 3092.41 1972.08 3121.22 1931.98 3123.81C1893.45 3126.31 1841.17 3091.04 1841.8 3010.18L1841.69 2803.98L1754.27 2802.57L1756.89 3060.51C1771.53 3144.42 1819.79 3217.42 1933.9 3216.36C2019.42 3215.58 2098.68 3144.07 2103.75 3054.49L2100.95 3004.92C2100.95 3004.92 2117.54 3030 2133.62 3054.72C2149.71 3079.44 2165.3 3103.78 2165.3 3103.78L2108.85 3366.73L2200.97 3365.97L2245.46 3183.39C2245.46 3183.39 2413.86 3270.02 2496.92 3157.13C2552.05 3082.19 2559.88 2971.12 2495.89 2908.13C2431.89 2845.12 2314.79 2823.04 2240.95 2905.12C2188.14 2963.82 2192.37 2995.44 2192.37 2995.44C2192.37 2995.44 2161.65 2952.3 2140.35 2905.13C2119.05 2857.97 2104.29 2802.49 2104.29 2802.49L2016.23 2801.29ZM2361.46 2942.5C2396.14 2940.94 2430.79 2961.09 2448.2 2993.15C2471.51 3036.09 2444.35 3098.13 2401.99 3116.95C2339 3144.95 2253.19 3085.64 2264.63 3076.19C2277.12 3065.85 2274.19 2979.45 2327.42 2951.66C2338.34 2945.95 2349.9 2943.02 2361.46 2942.5Z" fill="#34DE0F"/>
<path fill-rule="evenodd" clip-rule="evenodd" d="M2546.64 2864.6L2645.84 3207.49L2721.99 3207.06L2782.92 2970.26L2843.71 3207.08L2918.25 3206.88L3017.17 2867.44L2938.62 2866.62L2876.5 3099.25L2820.41 2866.36L2746.15 2865.12L2689.04 3101.43L2624.21 2865.51L2546.64 2864.6Z" fill="#4B4B4B"/>
<path fill-rule="evenodd" clip-rule="evenodd" d="M3199.6 2858.31C3102.08 2857.54 3022.39 2937.07 3021.62 3035.94C3020.84 3134.81 3099.28 3215.58 3196.8 3216.35C3294.31 3217.1 3373.99 3137.57 3374.76 3038.71C3375.54 2939.83 3297.12 2859.07 3199.6 2858.31ZM3198.07 2935.5C3255.95 2935.95 3302.55 2982.84 3302.09 3040.23C3301.65 3097.63 3254.33 3143.77 3196.44 3143.32C3138.54 3142.87 3091.98 3095.98 3092.43 3038.59C3092.88 2981.2 3140.17 2935.05 3198.07 2935.5Z" fill="#4B4B4B"/>
<path fill-rule="evenodd" clip-rule="evenodd" d="M3428.42 2868.4L3426.8 3208.26L3503.97 3208.83L3506.34 3020.52C3506.34 3020.52 3514.83 2988.43 3534.86 2969.61C3554.89 2950.79 3563.98 2947.04 3594.69 2945.5L3628.24 2946.54L3627.73 2869.78L3590.99 2870.68C3590.99 2870.68 3565.85 2872.28 3544.5 2885.29C3523.13 2898.3 3505.54 2922.7 3505.54 2922.7L3505.96 2868.76L3428.42 2868.4Z" fill="#4B4B4B"/>
<path fill-rule="evenodd" clip-rule="evenodd" d="M3679.62 2704.67L3676.58 3210.4L3754.73 3210.47L3756.23 3051.43C3756.23 3051.43 3765.48 3049.25 3776.95 3053.68C3780.69 3055.13 3808.6 3095.59 3808.6 3095.59L3892.17 3210.64L3985.72 3210.76L3855.04 3026.46C3855.04 3026.46 3901.11 3000.16 3922.89 2960.65C3951.6 2908.54 3946.68 2871.01 3946.68 2871.01L3867.91 2870.44C3867.91 2870.44 3872.84 2909.02 3834.51 2947.43C3806.95 2975.03 3756.08 2975 3756.08 2975L3755.09 2705.2L3679.62 2704.67Z" fill="#4B4B4B"/>
</svg>
